<svg width="369" height="246" viewBox="0 0 369 246" fill="none" xmlns="http://www.w3.org/2000/svg">
<path d="M368.527 245.738H0.473145L66.5421 206.724H303.469L368.527 245.738Z" fill="#D0F0E4"/>
<path d="M211.495 55.0046H145.279V16.7164C145.279 14.1239 147.38 12.0225 149.973 12.0225H206.801C209.394 12.0225 211.495 14.1239 211.495 16.7164V55.0046Z" fill="white" stroke="#88BFBF" stroke-width="0.5892" stroke-miterlimit="10"/>
<path d="M206.497 52.5104H150.552C149.079 52.5104 147.881 51.3123 147.881 49.8393V17.0209C147.881 15.5479 149.079 14.3499 150.552 14.3499H206.497C207.97 14.3499 209.168 15.5479 209.168 17.0209V49.8492C209.168 51.3222 207.97 52.5104 206.497 52.5104Z" fill="#88BFBF"/>
<path d="M223.102 63.99C225.636 65.6397 225.047 68.8705 222.052 68.8705H131.845C129.321 68.8705 128.457 65.463 130.932 63.9016L223.102 63.99Z" fill="#88BFBF" stroke="#88BFBF" stroke-width="0.5892" stroke-miterlimit="10"/>
<path d="M222.052 66.6217H131.845C130.235 66.6217 129.597 64.7264 130.932 63.9016L145.299 55.0046H211.309L223.093 63.9899C224.271 64.8836 223.584 66.6217 222.052 66.6217Z" fill="white" stroke="#88BFBF" stroke-width="0.5892" stroke-miterlimit="10"/>
<path d="M211.643 63.9411H142.254C141.017 63.9411 140.526 62.4779 141.547 61.8494L151.525 55.0049H203.374L212.438 61.9182C213.351 62.6056 212.821 63.9411 211.643 63.9411Z" fill="white" stroke="#88BFBF" stroke-width="0.5892" stroke-miterlimit="10"/>
<path d="M198.886 55.0046L207.96 63.9408" stroke="#88BFBF" stroke-width="0.5892" stroke-miterlimit="10"/>
<path d="M194.074 55.0046L202.068 63.9408" stroke="#88BFBF" stroke-width="0.5892" stroke-miterlimit="10"/>
<path d="M189.577 55.0046L196.51 63.9408" stroke="#88BFBF" stroke-width="0.5892" stroke-miterlimit="10"/>
<path d="M184.549 55.0046L190.411 63.9408" stroke="#88BFBF" stroke-width="0.5892" stroke-miterlimit="10"/>
<path d="M180.375 55.0046L183.233 63.9408" stroke="#88BFBF" stroke-width="0.5892" stroke-miterlimit="10"/>
<path d="M155.737 55.0046L146.664 63.9408" stroke="#88BFBF" stroke-width="0.5892" stroke-miterlimit="10"/>
<path d="M160.549 55.0046L152.555 63.9408" stroke="#88BFBF" stroke-width="0.5892" stroke-miterlimit="10"/>
<path d="M165.046 55.0046L158.113 63.9408" stroke="#88BFBF" stroke-width="0.5892" stroke-miterlimit="10"/>
<path d="M170.074 55.0046L164.211 63.9408" stroke="#88BFBF" stroke-width="0.5892" stroke-miterlimit="10"/>
<path d="M174.248 55.0046L171.39 63.9408" stroke="#88BFBF" stroke-width="0.5892" stroke-miterlimit="10"/>
<path d="M177.076 64.0489V55.0046" stroke="#88BFBF" stroke-width="0.5892" stroke-miterlimit="10"/>
<path d="M146.664 58.3435H207.764" stroke="#88BFBF" stroke-width="0.5892" stroke-miterlimit="10"/>
<path d="M201.842 52.5103H152.163L153.056 46.1764C153.606 42.2779 156.405 39.0765 160.186 37.9963L172.294 35.4824H181.711L193.819 37.9963C197.61 39.0667 200.408 42.2779 200.948 46.1764L201.842 52.5103Z" fill="#F6C850"/>
<path d="M180.356 42.7197L176.771 39.0961C176.693 39.0175 176.693 38.8899 176.771 38.8211C176.85 38.7426 176.978 38.7426 177.046 38.8211L180.336 42.1501L185.442 36.3661C185.511 36.2876 185.639 36.2778 185.717 36.3465C185.796 36.4152 185.806 36.5429 185.737 36.6215L180.356 42.7197Z" fill="white"/>
<path d="M173.698 42.7196L168.316 36.6214C168.248 36.5428 168.248 36.4152 168.336 36.3464C168.415 36.2777 168.542 36.2777 168.611 36.3661L173.717 42.1501L177.007 38.8211C177.086 38.7425 177.204 38.7425 177.282 38.8211C177.361 38.8997 177.361 39.0175 177.282 39.096L173.698 42.7196Z" fill="white"/>
<path d="M177.086 45.0864C176.614 45.0864 176.231 44.7034 176.231 44.232C176.231 43.7607 176.614 43.3777 177.086 43.3777C177.557 43.3777 177.94 43.7607 177.94 44.232C177.94 44.7034 177.557 45.0864 177.086 45.0864ZM177.086 43.7705C176.83 43.7705 176.624 43.9767 176.624 44.232C176.624 44.4873 176.83 44.6936 177.086 44.6936C177.341 44.6936 177.547 44.4873 177.547 44.232C177.547 43.9767 177.341 43.7705 177.086 43.7705Z" fill="white"/>
<path d="M177.086 49.8981C176.614 49.8981 176.231 49.5152 176.231 49.0438C176.231 48.5724 176.614 48.1895 177.086 48.1895C177.557 48.1895 177.94 48.5724 177.94 49.0438C177.94 49.5152 177.557 49.8981 177.086 49.8981ZM177.086 48.5823C176.83 48.5823 176.624 48.7885 176.624 49.0438C176.624 49.2991 176.83 49.5053 177.086 49.5053C177.341 49.5053 177.547 49.2991 177.547 49.0438C177.547 48.7885 177.341 48.5823 177.086 48.5823Z" fill="white"/>
<path d="M172.234 52.3041H156.188L151.907 39.597L167.953 35.0012L172.234 52.3041Z" fill="white" stroke="#88BFBF" stroke-width="0.3928" stroke-miterlimit="10"/>
<path d="M157.023 41.2468H156.719C155.943 41.2468 155.314 40.6183 155.314 39.8425V35.4333C155.314 35.1191 155.57 34.8638 155.884 34.8638H157.21C157.524 34.8638 157.779 35.1191 157.779 35.4333V40.4808C157.789 40.9031 157.445 41.2468 157.023 41.2468Z" fill="white"/>
<path d="M157.023 41.2468H156.719C155.943 41.2468 155.314 40.6183 155.314 39.8425V35.4333C155.314 35.1191 155.57 34.8638 155.884 34.8638H157.21C157.524 34.8638 157.779 35.1191 157.779 35.4333V40.4808C157.789 40.9031 157.445 41.2468 157.023 41.2468Z" stroke="#88BFBF" stroke-width="0.3928" stroke-miterlimit="10" stroke-linecap="round"/>
<path d="M163.485 41.2468H163.789C164.565 41.2468 165.193 40.6183 165.193 39.8425V35.4333C165.193 35.1191 164.938 34.8638 164.624 34.8638H163.288C162.974 34.8638 162.719 35.1191 162.719 35.4333V40.4808C162.719 40.9031 163.062 41.2468 163.485 41.2468Z" fill="white"/>
<path d="M159.488 41.7574H158.781C158.231 41.7574 157.789 41.3155 157.789 40.7655V35.4431C157.789 35.1289 158.044 34.8735 158.359 34.8735H159.684C159.999 34.8735 160.254 35.1289 160.254 35.4431V40.9914C160.254 41.4137 159.91 41.7574 159.488 41.7574Z" fill="white"/>
<path d="M161.963 41.9538H161.374C160.755 41.9538 160.254 41.453 160.254 40.8343V35.4333C160.254 35.1191 160.51 34.8638 160.824 34.8638H162.15C162.464 34.8638 162.719 35.1191 162.719 35.4333V41.1879C162.719 41.6101 162.376 41.9538 161.963 41.9538Z" fill="white"/>
<path d="M163.485 41.2468H163.789C164.565 41.2468 165.193 40.6183 165.193 39.8425V35.4333C165.193 35.1191 164.938 34.8638 164.624 34.8638H163.288C162.974 34.8638 162.719 35.1191 162.719 35.4333V40.4808C162.719 40.9031 163.062 41.2468 163.485 41.2468Z" stroke="#88BFBF" stroke-width="0.3928" stroke-miterlimit="10" stroke-linecap="round"/>
<path d="M159.488 41.7574H158.781C158.231 41.7574 157.789 41.3155 157.789 40.7655V35.4431C157.789 35.1289 158.044 34.8735 158.359 34.8735H159.684C159.999 34.8735 160.254 35.1289 160.254 35.4431V40.9914C160.254 41.4137 159.91 41.7574 159.488 41.7574Z" stroke="#88BFBF" stroke-width="0.3928" stroke-miterlimit="10" stroke-linecap="round"/>
<path d="M161.963 41.9538H161.374C160.755 41.9538 160.254 41.453 160.254 40.8343V35.4333C160.254 35.1191 160.51 34.8638 160.824 34.8638H162.15C162.464 34.8638 162.719 35.1191 162.719 35.4333V41.1879C162.719 41.6101 162.376 41.9538 161.963 41.9538Z" stroke="#88BFBF" stroke-width="0.3928" stroke-miterlimit="10" stroke-linecap="round"/>
<path d="M181.72 29.7083V36.8769C181.72 38.1142 179.609 39.1256 177.007 39.1256C174.404 39.1256 172.293 38.1142 172.293 36.8769V29.7083H181.72Z" fill="white"/>
<path d="M181.721 29.7083C181.721 35.1191 178.254 36.7296 174.925 36.4448C174.915 36.4448 174.906 36.4448 174.896 36.4448C173.423 36.3073 172.303 35.0503 172.303 33.5773V29.7181H181.721V29.7083Z" fill="#88BFBF"/>
<path d="M183.91 27.8622V28.2255C183.91 29.0308 183.262 29.6789 182.457 29.6789H181.711L181.721 29.8458C181.721 32.1633 179.845 34.039 177.527 34.039H176.496C174.179 34.039 172.303 32.1633 172.303 29.8458L172.313 29.6789H171.567C170.761 29.6789 170.113 29.0308 170.113 28.2255V27.8622C170.113 27.0569 170.761 26.4088 171.567 26.4088H172.519L172.627 24.6314C172.627 24.3564 172.666 24.0913 172.745 23.8458C175.554 24.543 178.843 22.7361 179.727 22.196C180.709 22.5692 181.406 23.5119 181.406 24.6216L181.514 26.399H182.467C183.262 26.4088 183.91 27.0569 183.91 27.8622Z" fill="white"/>
<path d="M182.526 26.4088H181.504L181.396 24.6314C181.396 23.5218 180.699 22.579 179.717 22.2059C178.833 22.7362 175.544 24.543 172.735 23.8556C172.657 24.1011 172.617 24.3663 172.617 24.6412L172.509 26.4187H171.871C171.871 26.4187 170.565 20.0946 171.851 18.9358C172.804 18.0815 181.524 19.9473 182.486 21.273C183.027 22.0291 182.526 26.4088 182.526 26.4088Z" fill="#F5E4D4"/>
<path d="M180.07 26.026C180.041 26.026 180.001 26.0162 179.972 25.9867C179.962 25.9769 179.324 25.4565 178.303 25.4565C178.224 25.4565 178.155 25.3877 178.155 25.3092C178.155 25.2306 178.224 25.1619 178.303 25.1619C179.432 25.1619 180.129 25.7314 180.159 25.7609C180.217 25.81 180.227 25.9082 180.178 25.9671C180.159 26.0064 180.109 26.026 180.07 26.026Z" fill="#88BFBF"/>
<path d="M176.339 29.0701C176.319 29.0701 176.3 29.0701 176.29 29.0603C176.211 29.0308 176.172 28.9424 176.202 28.8737C176.477 28.147 176.408 27.2338 176.025 26.4285C175.799 25.9375 175.475 25.584 175.19 25.4858C174.562 25.2698 173.678 25.5742 173.668 25.5742C173.589 25.6036 173.511 25.5644 173.481 25.4858C173.452 25.4072 173.491 25.3287 173.57 25.2992C173.609 25.2894 174.552 24.9653 175.279 25.2108C175.642 25.3385 176.015 25.7411 176.28 26.3107C176.693 27.1847 176.761 28.1863 176.467 28.9915C176.457 29.0308 176.398 29.0701 176.339 29.0701Z" fill="#88BFBF"/>
<path d="M178.273 30.6314C178.283 30.71 178.214 30.7787 178.136 30.7886H178.126C178.047 30.7886 177.989 30.7296 177.979 30.6511C177.969 30.5529 177.949 30.4547 177.92 30.3663C177.498 30.5725 177.115 30.6413 176.8 30.6413C176.182 30.6413 175.808 30.3859 175.789 30.3663C175.72 30.3172 175.71 30.2288 175.75 30.1601C175.799 30.0913 175.887 30.0815 175.956 30.1208C175.975 30.1306 176.29 30.3467 176.8 30.3467C177.075 30.3467 177.409 30.2877 177.792 30.1012C177.733 30.003 177.674 29.944 177.674 29.944C177.615 29.8851 177.625 29.7869 177.684 29.7378C177.743 29.6887 177.841 29.6887 177.89 29.7476C177.91 29.7771 178.244 30.1503 178.273 30.6314Z" fill="#88BFBF"/>
<path d="M178.804 27.825C178.939 27.8165 179.035 27.5903 179.018 27.3196C179.001 27.049 178.878 26.8364 178.743 26.8448C178.607 26.8533 178.511 27.0795 178.528 27.3502C178.545 27.6208 178.668 27.8334 178.804 27.825Z" fill="#88BFBF"/>
<path d="M174.794 27.7859C174.919 27.7781 175.007 27.57 174.992 27.321C174.976 27.072 174.863 26.8764 174.738 26.8841C174.614 26.8919 174.525 27.1001 174.541 27.3491C174.556 27.5981 174.67 27.7936 174.794 27.7859Z" fill="#88BFBF"/>
<path d="M172.047 28.3336C171.969 28.3336 171.9 28.2649 171.9 28.1863C171.9 27.7543 171.547 27.4106 171.124 27.4106C171.046 27.4106 170.977 27.3418 170.977 27.2633C170.977 27.1847 171.046 27.116 171.124 27.116C171.714 27.116 172.195 27.5971 172.195 28.1863C172.195 28.2747 172.126 28.3336 172.047 28.3336Z" fill="#88BFBF"/>
<path d="M181.926 28.3336C181.848 28.3336 181.779 28.2649 181.779 28.1863C181.779 27.5971 182.26 27.116 182.849 27.116C182.928 27.116 182.996 27.1847 182.996 27.2633C182.996 27.3418 182.928 27.4106 182.849 27.4106C182.417 27.4106 182.073 27.7641 182.073 28.1863C182.073 28.2747 182.014 28.3336 181.926 28.3336Z" fill="#88BFBF"/>
<path d="M359.689 245.739L317.63 106.668C316.795 103.898 314.232 102.003 311.335 102.003H56.0643C53.138 102.003 50.5651 103.938 49.7501 106.756L9.61572 245.739" stroke="#88BFBF" stroke-width="0.5892" stroke-miterlimit="10"/>
<path d="M125.993 55.0046H237.646" stroke="#88BFBF" stroke-width="0.5892" stroke-miterlimit="10"/>
<path d="M164.742 76.1372H191.119V98.792H164.742C164.742 98.792 164.742 75.2829 164.742 76.1372Z" fill="#F6C850"/>
<path d="M263.373 181.398L251.107 150.858H270.855L263.373 181.398Z" fill="#626A7F"/>
<path d="M229.72 110.095C232.351 105.116 237.527 102.003 243.153 102.003H258.345L268.666 110.095H229.72Z" fill="#626A7F"/>
<path d="M287.314 145.849H249.045L263.451 180.818C262.45 179.188 256.45 180.887 250.096 184.786C243.821 188.635 239.579 193.27 240.443 194.959L209.392 140.93C201.34 127.299 211.16 110.095 226.99 110.095H312.748L312.934 110.684C318.532 128.065 305.569 145.849 287.314 145.849Z" fill="#88BFBF"/>
<path d="M314.23 120.121C314.093 123.313 313.386 126.396 312.188 129.254L267.212 110.105H311.854L312.895 113.149C313.621 114.975 314.024 117.538 314.23 120.121Z" fill="#E6E6E6"/>
<path d="M263.461 180.818C264.463 182.449 260.083 186.897 253.739 190.796C247.386 194.694 241.484 196.648 240.482 195.018C239.481 193.388 243.753 188.783 250.106 184.884C256.45 180.985 262.45 179.188 263.461 180.818Z" fill="#88BFBF"/>
<path d="M249.369 184.903L221.441 135.529C219.251 131.62 222.07 126.789 226.557 126.789H280.95C288.276 126.789 293.746 120.042 292.234 112.874" stroke="white" stroke-width="0.5892" stroke-miterlimit="10" stroke-linecap="round"/>
<path d="M240.158 195.126C239.157 193.496 243.487 188.311 250.106 184.452C257.54 180.121 262.352 178.835 263.785 181.133" stroke="white" stroke-width="0.5892" stroke-miterlimit="10" stroke-linecap="round"/>
<path d="M264 181.349L245.755 137.846" stroke="white" stroke-width="0.5892" stroke-miterlimit="10" stroke-linecap="round"/>
<path d="M225.919 109.771H270.433" stroke="white" stroke-width="0.5892" stroke-miterlimit="10"/>
<path d="M251.097 197.267L248.446 193.653L244.793 188.684C246.286 187.427 248.083 186.121 250.096 184.884C254.102 182.429 257.962 180.799 260.525 180.347L262.302 183.892L264.521 188.311C262.95 193.899 251.097 197.267 251.097 197.267Z" fill="#F5E4D4"/>
<path d="M262.312 183.892C260.662 185.905 257.559 188.449 253.739 190.796C251.903 191.925 250.106 192.887 248.456 193.653L244.803 188.684C246.295 187.427 248.092 186.121 250.106 184.884C254.112 182.429 257.971 180.799 260.534 180.347L262.312 183.892Z" fill="#626A7F"/>
<path d="M276.659 207.784L249.713 227.139C247.425 228.73 243.87 230.056 244.341 224.301C244.999 216.367 246.757 204.563 251.098 197.257C251.284 197.208 262.95 193.84 264.521 188.301L276.806 197.031C280.341 199.781 280.263 205.143 276.659 207.784Z" fill="white" stroke="#F6C850" stroke-width="0.5892" stroke-miterlimit="10"/>
<path d="M249.851 199.82C251.991 200.223 264.011 195.961 265.877 189.391" stroke="#F6C850" stroke-width="0.5892" stroke-miterlimit="10" stroke-linecap="round"/>
<path d="M246.954 225.146C246.954 225.146 264.542 200.714 277.052 202.089C290.673 203.571 235.818 239.395 246.954 225.146Z" fill="#F6C850"/>
<path d="M246.453 228.475C245.088 228.563 243.645 226.972 245.638 224.419C245.638 224.419 263.943 199.084 276.974 200.517C278.987 200.733 279.664 202.373 279.193 203.787" stroke="#F6C850" stroke-width="0.5892" stroke-miterlimit="10" stroke-linecap="round"/>
<path d="M314.331 122.115C308.105 120.642 292.609 116.763 274.933 112.678C266.625 110.763 259.672 105.106 256.088 97.3681L239.993 62.5464L249.735 47.1094C252.73 42.3565 257.836 39.3319 263.443 38.9882L273.028 38.399C282.691 37.8098 290.448 43.8393 293.394 53.0603L312.887 110.095C315.028 115.437 314.331 122.115 314.331 122.115Z" fill="white" stroke="#F69050" stroke-width="0.5892" stroke-miterlimit="10"/>
<path d="M248.468 64.5005C248.468 64.5005 253.594 72.5529 265.27 74.3303" stroke="#F69050" stroke-width="0.5892" stroke-miterlimit="10"/>
<path d="M255.382 49.8492C254.851 49.2796 253.918 49.4367 253.594 50.134C253.231 50.9196 253.889 51.7935 254.743 51.6659C255.617 51.5382 255.981 50.4875 255.382 49.8492Z" fill="#F6C850" stroke="#F69050" stroke-width="0.5892" stroke-miterlimit="10" stroke-linejoin="round"/>
<path d="M279.844 66.6314C279.313 66.0618 278.38 66.219 278.056 66.9162C277.693 67.7018 278.351 68.5758 279.205 68.4481C280.079 68.3204 280.443 67.2697 279.844 66.6314Z" fill="#F6C850" stroke="#F69050" stroke-width="0.5892" stroke-miterlimit="10" stroke-linejoin="round"/>
<path d="M287.592 73.5054C287.061 72.9359 286.128 73.093 285.804 73.7902C285.441 74.5758 286.099 75.4498 286.953 75.3221C287.817 75.2043 288.181 74.1535 287.592 73.5054Z" fill="#F6C850" stroke="#F69050" stroke-width="0.5892" stroke-miterlimit="10" stroke-linejoin="round"/>
<path d="M302.449 112.402C301.919 111.833 300.986 111.99 300.662 112.687C300.298 113.473 300.956 114.347 301.811 114.219C302.675 114.091 303.038 113.051 302.449 112.402Z" fill="#F6C850" stroke="#F69050" stroke-width="0.5892" stroke-miterlimit="10" stroke-linejoin="round"/>
<path d="M294.132 93.8133C293.601 93.2437 292.668 93.4009 292.344 94.0981C291.981 94.8837 292.639 95.7577 293.493 95.63C294.367 95.5023 294.731 94.4516 294.132 93.8133Z" fill="#F6C850" stroke="#F69050" stroke-width="0.5892" stroke-miterlimit="10" stroke-linejoin="round"/>
<path d="M297.578 80.4384C296.812 80.5366 296.389 81.3909 296.772 82.0587C297.205 82.8148 298.295 82.7854 298.687 82.0096C299.09 81.224 298.442 80.3206 297.578 80.4384Z" fill="#F6C850" stroke="#F69050" stroke-width="0.5892" stroke-miterlimit="10" stroke-linejoin="round"/>
<path d="M303.853 100.275C303.087 100.373 302.665 101.227 303.048 101.895C303.48 102.651 304.57 102.622 304.963 101.846C305.365 101.06 304.727 100.157 303.853 100.275Z" fill="#F6C850" stroke="#F69050" stroke-width="0.5892" stroke-miterlimit="10" stroke-linejoin="round"/>
<path d="M277.831 78.877C277.301 78.3075 276.368 78.4646 276.044 79.1618C275.68 79.9474 276.338 80.8214 277.193 80.6937C278.057 80.5661 278.42 79.5251 277.831 78.877Z" fill="#F6C850" stroke="#F69050" stroke-width="0.5892" stroke-miterlimit="10" stroke-linejoin="round"/>
<path d="M272.42 90.003C271.889 89.4334 270.957 89.5906 270.632 90.2878C270.269 91.0734 270.927 91.9473 271.781 91.8197C272.655 91.692 273.019 90.6413 272.42 90.003Z" fill="#F6C850" stroke="#F69050" stroke-width="0.5892" stroke-miterlimit="10" stroke-linejoin="round"/>
<path d="M262.736 86.1143C263.306 85.584 263.149 84.6511 262.452 84.327C261.666 83.9637 260.792 84.6216 260.92 85.476C261.047 86.3401 262.088 86.7035 262.736 86.1143Z" fill="#F6C850" stroke="#F69050" stroke-width="0.5892" stroke-miterlimit="10" stroke-linejoin="round"/>
<path d="M271.329 105.263C271.899 104.733 271.742 103.8 271.044 103.476C270.259 103.113 269.385 103.771 269.513 104.625C269.64 105.499 270.691 105.862 271.329 105.263Z" fill="#F6C850" stroke="#F69050" stroke-width="0.5892" stroke-miterlimit="10" stroke-linejoin="round"/>
<path d="M285.794 88.8345C286.364 88.3042 286.206 87.3713 285.509 87.0472C284.724 86.6839 283.85 87.3418 283.977 88.1962C284.105 89.0603 285.156 89.4335 285.794 88.8345Z" fill="#F6C850" stroke="#F69050" stroke-width="0.5892" stroke-miterlimit="10" stroke-linejoin="round"/>
<path d="M290.733 109.397C291.303 108.867 291.146 107.934 290.449 107.61C289.663 107.247 288.789 107.905 288.917 108.759C289.035 109.633 290.085 109.996 290.733 109.397Z" fill="#F6C850" stroke="#F69050" stroke-width="0.5892" stroke-miterlimit="10" stroke-linejoin="round"/>
<path d="M261.116 67.751C260.586 67.1815 259.653 67.3386 259.329 68.0358C258.965 68.8214 259.623 69.6954 260.478 69.5677C261.352 69.4401 261.715 68.3893 261.116 67.751Z" fill="#F6C850" stroke="#F69050" stroke-width="0.5892" stroke-miterlimit="10" stroke-linejoin="round"/>
<path d="M262.875 42.2779C262.345 41.7083 261.412 41.8655 261.088 42.5627C260.724 43.3483 261.382 44.2223 262.236 44.0946C263.11 43.9669 263.474 42.9162 262.875 42.2779Z" fill="#F6C850" stroke="#F69050" stroke-width="0.5892" stroke-miterlimit="10" stroke-linejoin="round"/>
<path d="M279.844 42.2779C279.313 41.7083 278.38 41.8655 278.056 42.5627C277.693 43.3483 278.351 44.2223 279.205 44.0946C280.079 43.9669 280.443 42.9162 279.844 42.2779Z" fill="#F6C850" stroke="#F69050" stroke-width="0.5892" stroke-miterlimit="10" stroke-linejoin="round"/>
<path d="M279.873 53.2763C279.156 53.561 278.95 54.4841 279.49 55.0439C280.089 55.6625 281.14 55.3777 281.336 54.5332C281.533 53.6789 280.688 52.9522 279.873 53.2763Z" fill="#F6C850" stroke="#F69050" stroke-width="0.5892" stroke-miterlimit="10" stroke-linejoin="round"/>
<path d="M270.229 47.0111C269.483 47.2272 269.198 48.1208 269.67 48.7296C270.21 49.4072 271.28 49.2206 271.555 48.4056C271.84 47.5709 271.064 46.7656 270.229 47.0111Z" fill="#F6C850" stroke="#F69050" stroke-width="0.5892" stroke-miterlimit="10" stroke-linejoin="round"/>
<path d="M268.806 74.2126C268.04 74.301 267.608 75.1455 267.981 75.8231C268.403 76.5792 269.493 76.5694 269.896 75.8034C270.308 75.0277 269.68 74.1144 268.806 74.2126Z" fill="#F6C850" stroke="#F69050" stroke-width="0.5892" stroke-miterlimit="10" stroke-linejoin="round"/>
<path d="M260.39 94.6677C259.624 94.7561 259.192 95.6006 259.565 96.2782C259.987 97.0343 261.077 97.0245 261.48 96.2585C261.892 95.4828 261.264 94.5695 260.39 94.6677Z" fill="#F6C850" stroke="#F69050" stroke-width="0.5892" stroke-miterlimit="10" stroke-linejoin="round"/>
<path d="M263.218 55.1225C262.471 55.3385 262.187 56.2321 262.658 56.841C263.198 57.5185 264.268 57.3319 264.543 56.5169C264.828 55.692 264.062 54.8868 263.218 55.1225Z" fill="#F6C850" stroke="#F69050" stroke-width="0.5892" stroke-miterlimit="10" stroke-linejoin="round"/>
<path d="M271.349 60.6217C270.602 60.8377 270.317 61.7314 270.789 62.3402C271.329 63.0178 272.399 62.8312 272.674 62.0161C272.959 61.1814 272.193 60.3762 271.349 60.6217Z" fill="#F6C850" stroke="#F69050" stroke-width="0.5892" stroke-miterlimit="10" stroke-linejoin="round"/>
<path d="M253.742 60.3859C254.233 59.7869 253.968 58.8835 253.221 58.6576C252.396 58.4023 251.611 59.1682 251.856 59.9931C252.102 60.8376 253.182 61.0635 253.742 60.3859Z" fill="#F6C850" stroke="#F69050" stroke-width="0.5892" stroke-miterlimit="10" stroke-linejoin="round"/>
<path d="M290.969 60.4155C291.46 59.8165 291.195 58.913 290.449 58.6871C289.624 58.4318 288.838 59.1978 289.084 60.0227C289.319 60.8672 290.409 61.0931 290.969 60.4155Z" fill="#F6C850" stroke="#F69050" stroke-width="0.5892" stroke-miterlimit="10" stroke-linejoin="round"/>
<path d="M281.522 100.226C282.013 99.6267 281.748 98.7233 281.001 98.4975C280.177 98.2421 279.391 99.0081 279.636 99.833C279.872 100.668 280.962 100.894 281.522 100.226Z" fill="#F6C850" stroke="#F69050" stroke-width="0.5892" stroke-miterlimit="10" stroke-linejoin="round"/>
<path d="M273.684 38.0748C273.468 38.0846 273.252 38.0944 273.027 38.1042L263.442 38.6934C260.997 38.8407 258.66 39.4987 256.539 40.5887L253.593 31.7703L266.722 22.1467L273.684 38.0748Z" fill="#F5E4D4"/>
<path d="M256.499 40.4513C259.229 39.2139 261.409 37.0143 262.647 34.2843L267.419 23.7278L266.722 22.137L253.593 31.7606L256.499 40.4513Z" fill="#626A7F"/>
<path d="M267.567 23.0306C267.567 23.9439 267.193 24.7688 266.594 25.3678C265.995 25.9668 265.17 26.34 264.257 26.34H261.37C260.231 30.7688 255.822 33.8032 251.079 32.9685L248.909 32.5855C246.532 32.1632 244.912 29.9439 245.246 27.5577L247.789 14.8211C248.231 12.101 251.03 10.4414 253.632 11.3743L257.845 13.0633C260.123 13.8489 261.655 15.9897 261.655 18.3956V19.6231L264.257 19.7213C266.084 19.7213 267.567 21.2041 267.567 23.0306Z" fill="#F5E4D4"/>
<path d="M262.676 23.6689C262.676 22.4021 263.697 21.3809 264.964 21.3809" stroke="#626A7F" stroke-width="0.491" stroke-miterlimit="10" stroke-linecap="round"/>
<path d="M249.202 17.502C249.202 17.502 251.264 17.502 252.737 19.4758" stroke="#626A7F" stroke-width="0.491" stroke-miterlimit="10" stroke-linecap="round"/>
<path d="M250.573 21.1774C250.677 20.6064 250.545 20.1043 250.278 20.0558C250.011 20.0073 249.711 20.4309 249.607 21.0018C249.503 21.5728 249.635 22.0749 249.902 22.1234C250.169 22.1719 250.469 21.7484 250.573 21.1774Z" fill="#626A7F"/>
<path d="M264.257 19.7213C266.084 19.7213 267.567 21.2042 267.567 23.0307C267.567 23.0405 267.567 23.0601 267.567 23.0798C269.04 20.8114 272.653 15.0372 272.653 13.083C272.653 10.4611 269.383 7.83914 265.995 9.03718C266.221 8.87024 266.457 8.69349 266.703 8.50691C268.009 7.48563 268.696 6.71967 268.804 6.16975C268.843 5.97335 268.814 5.79659 268.716 5.65911C268.323 5.09936 267.891 4.85386 267.429 4.93242C266.752 5.04044 266.054 5.87514 265.357 7.40706C265.043 8.10428 264.797 8.79169 264.66 9.21395C264.385 7.57401 263.059 2.14355 257.364 2.97825C255.4 3.26303 254.477 4.07808 254.221 4.9717C252.591 3.6951 250.411 2.69346 248.604 3.646C245.482 5.28594 245.864 7.97662 247.671 9.8817C245.963 9.85224 244.765 10.3531 244.765 11.7966C244.765 13.1223 246.13 13.7606 248.005 14.0159C249.881 14.2712 252.287 14.1338 254.369 13.8981C255.851 13.7311 257.187 13.5249 258.041 13.3776C257.472 14.5462 257.246 15.5478 257.295 16.3924C257.383 18.1403 258.65 19.1714 260.437 19.5348C260.82 19.6133 261.233 19.6624 261.655 19.6821L264.257 19.7213ZM267.488 5.32522C267.518 5.3154 267.547 5.3154 267.586 5.3154C267.861 5.3154 268.126 5.5118 268.392 5.88496C268.411 5.92424 268.441 5.98316 268.421 6.09118C268.264 6.8866 266.251 8.39888 265.082 9.1943C265.544 7.83914 266.516 5.49216 267.488 5.32522Z" fill="#F6C850"/>
<path d="M256.421 8.232C255.743 8.232 255.056 7.86866 254.555 7.23036C253.995 6.52332 253.808 5.64934 254.044 4.8932C254.074 4.795 254.172 4.73608 254.27 4.75572C254.309 4.75572 254.349 4.76554 254.378 4.795C255.861 5.85556 257.049 7.36784 256.872 7.96686C256.833 8.12398 256.705 8.22218 256.538 8.232C256.499 8.232 256.46 8.232 256.421 8.232ZM254.358 5.26636C254.27 5.83592 254.447 6.4644 254.859 6.98486C255.301 7.5446 255.91 7.86865 256.499 7.82937C256.519 7.57405 255.861 6.40548 254.358 5.26636Z" fill="white"/>
<path d="M237.036 94.9425H174.188C172.636 94.9425 171.703 93.2338 172.528 91.9278L180.895 78.7886C181.985 77.0799 183.86 76.0488 185.883 76.0488H228.424L237.036 94.9425Z" fill="#F5E4D4"/>
<path d="M187.268 76.0586L192.276 67.8098C192.571 67.3188 193.111 67.0144 193.681 67.0144C194.967 67.0144 195.753 68.4187 195.085 69.5185L191.108 76.0586H187.268Z" fill="#F69050"/>
<path d="M237.036 94.9425H222.905C222.875 94.9131 222.836 94.8738 222.806 94.8443C219.369 91.3091 217.906 85.9474 219.841 80.7821L221.854 76.0488H228.423L237.036 94.9425Z" fill="#626A7F"/>
<path d="M183.065 86.124H175.19C174.66 86.124 174.169 86.4088 173.903 86.8703L173.069 88.3237C172.509 89.3057 173.216 90.5332 174.355 90.5332H180.689C181.789 90.5332 182.81 89.9636 183.39 89.0209L184.067 87.9113C184.538 87.1257 183.979 86.124 183.065 86.124Z" fill="#F5E4D4"/>
<path d="M181.032 90.5332H173.157C172.626 90.5332 172.135 90.818 171.87 91.2795L171.035 92.7329C170.476 93.7149 171.183 94.9424 172.322 94.9424H178.656C179.756 94.9424 180.777 94.3728 181.356 93.4301L182.034 92.3204C182.515 91.5348 181.946 90.5332 181.032 90.5332Z" fill="#F5E4D4"/>
<path d="M185.314 81.656H177.438C176.908 81.656 176.417 81.9408 176.152 82.4023L175.317 83.8557C174.757 84.8377 175.465 86.0652 176.604 86.0652H182.938C184.037 86.0652 185.059 85.4956 185.638 84.5529L186.316 83.4433C186.797 82.6577 186.227 81.656 185.314 81.656Z" fill="#F5E4D4"/>
<path d="M183.065 86.124H175.19C174.66 86.124 174.169 86.4088 173.903 86.8703L173.069 88.3237C172.509 89.3057 173.216 90.5332 174.355 90.5332H180.689C181.789 90.5332 182.81 89.9636 183.39 89.0209L184.067 87.9113C184.538 87.1257 183.979 86.124 183.065 86.124Z" stroke="#626A7F" stroke-width="0.491" stroke-miterlimit="10" stroke-linecap="round"/>
<path d="M181.032 90.5332H173.157C172.626 90.5332 172.135 90.818 171.87 91.2795L171.035 92.7329C170.476 93.7149 171.183 94.9424 172.322 94.9424H178.656C179.756 94.9424 180.777 94.3728 181.356 93.4301L182.034 92.3204C182.515 91.5348 181.946 90.5332 181.032 90.5332Z" stroke="#626A7F" stroke-width="0.491" stroke-miterlimit="10" stroke-linecap="round"/>
<path d="M185.314 81.656H177.438C176.908 81.656 176.417 81.9408 176.152 82.4023L175.317 83.8557C174.757 84.8377 175.465 86.0652 176.604 86.0652H182.938C184.037 86.0652 185.059 85.4956 185.638 84.5529L186.316 83.4433C186.797 82.6577 186.227 81.656 185.314 81.656Z" stroke="#626A7F" stroke-width="0.491" stroke-miterlimit="10" stroke-linecap="round"/>
<path d="M196.715 88.2255C194.348 88.2255 192.07 87.3712 190.283 85.8098L187.298 83.1977H184.548L183.841 83.9538C182.574 85.309 181.013 86.0847 179.157 86.0847H177.841C177.154 86.0847 176.731 85.3188 177.104 84.7394L180.414 79.5544H196.725V88.2255H196.715Z" fill="#F5E4D4"/>
<path d="M180.414 79.5544L177.104 84.7394C176.731 85.3188 177.154 86.0847 177.841 86.0847H179.157C181.013 86.0847 182.574 85.3188 183.841 83.9538L184.548 83.1977H187.298L190.283 85.8098C192.06 87.3614 194.348 88.2255 196.715 88.2255" stroke="#626A7F" stroke-width="0.491" stroke-miterlimit="10" stroke-linecap="round"/>
<path d="M263.02 76.5791L248.025 93.332C244.873 96.8574 240.365 98.8705 235.632 98.8705C226.283 98.8705 219.812 89.5415 223.092 80.782L240.905 38.9292L234.886 35.5609C234.031 34.8932 233.619 33.8032 233.806 32.7426L234.827 25.8588C235.141 24.3269 236.702 23.1288 238.225 22.7753L245.275 21.1845C245.874 21.047 246.424 21.5576 246.326 22.1566L245.305 27.4693C244.902 30.0617 246.65 32.3007 249.243 32.7426C251.364 33.1059 252.856 35.2369 252.66 37.3776L247.858 67.3286C247.848 67.3483 252.768 75.0177 263.02 76.5791Z" fill="#F5E4D4"/>
<path d="M251.52 44.4971L245.727 82.1175" stroke="#626A7F" stroke-width="0.491" stroke-miterlimit="10" stroke-linecap="round"/>
<path d="M239.51 26.3596L239.432 28.795C239.402 29.7966 240.001 30.6804 240.865 30.9259L249.89 32.7524" stroke="#626A7F" stroke-width="0.491" stroke-miterlimit="10" stroke-linecap="round"/>
<path d="M256.028 33.538L248.811 32.5757C246.434 32.1534 244.814 29.9341 245.148 27.5478L246.081 22.2156C246.169 21.7147 245.717 21.2925 245.226 21.4103L237.861 23.1288" stroke="#626A7F" stroke-width="0.491" stroke-miterlimit="10" stroke-linecap="round"/>
<path d="M252.041 88.8149L271.563 67.093" stroke="#F69050" stroke-width="0.5892" stroke-miterlimit="10"/>
<path d="M241.111 38.939H244.558" stroke="#626A7F" stroke-width="0.491" stroke-miterlimit="10" stroke-linecap="round"/>
<path d="M239.521 27.0076V27.7932C239.521 28.7261 240.198 29.4921 241.033 29.4921H242.113C242.584 29.4921 242.958 29.0698 242.958 28.5395L243.026 23.4135C243.036 22.6181 242.192 22.1271 241.504 22.294" stroke="#626A7F" stroke-width="0.491" stroke-miterlimit="10" stroke-linecap="round"/>
<path d="M243.026 27.0078V27.7934C243.026 28.7263 243.704 29.4923 244.539 29.4923H245.226" stroke="#626A7F" stroke-width="0.491" stroke-miterlimit="10" stroke-linecap="round"/>
<path d="M308.242 150.858L319.643 245.739" stroke="#88BFBF" stroke-width="0.5892" stroke-miterlimit="10"/>
<path d="M258.828 150.858L247.427 245.739" stroke="#88BFBF" stroke-width="0.5892" stroke-miterlimit="10"/>
<path d="M251.335 213.156H315.725" stroke="#88BFBF" stroke-width="0.5892" stroke-miterlimit="10"/>
<path d="M252.258 151.152H314.222C315.047 151.152 315.715 150.484 315.715 149.66V147.637C315.715 146.812 315.047 146.144 314.222 146.144H252.258C251.433 146.144 250.766 146.812 250.766 147.637V149.66C250.766 150.484 251.433 151.152 252.258 151.152Z" fill="white" stroke="#F6C850" stroke-width="0.5892" stroke-miterlimit="10"/>
<path d="M149.149 79.3481L139.663 98.8703H110.998L122.517 79.3481H149.149Z" fill="white" stroke="#88BFBF" stroke-width="0.491" stroke-miterlimit="10"/>
<path d="M142.864 84.1109C142.864 84.1109 141.617 81.9799 138.622 82.5298C136.383 82.9325 133.731 84.7786 132.101 83.7868C130.471 82.795 129.028 81.5577 126.916 82.1469C124.805 82.7361 123.244 83.8654 123.244 83.8654" stroke="#88BFBF" stroke-width="0.491" stroke-miterlimit="10"/>
<path d="M141.882 87.155C141.882 87.155 140.635 85.0241 137.64 85.574C135.401 85.9766 132.749 87.8228 131.119 86.831C129.489 85.8392 128.046 84.6018 125.934 85.191C123.823 85.7802 122.262 86.9095 122.262 86.9095" stroke="#88BFBF" stroke-width="0.491" stroke-miterlimit="10"/>
<path d="M159.931 166.962C159.931 169.584 152.654 171.705 143.541 171.705C134.428 171.705 127.368 169.584 127.368 166.962C127.368 164.34 134.428 162.219 143.541 162.219C152.654 162.219 159.931 164.35 159.931 166.962Z" fill="#F69050"/>
<path d="M155.738 163.771V197.65L154.707 192.759C153.598 187.496 148.953 183.735 143.571 183.735C141.951 183.735 140.36 184.079 138.917 184.727C138.868 184.746 138.819 184.776 138.76 184.795L134.979 171.008L132.877 163.339C135.755 162.641 139.476 162.219 143.542 162.219C148.373 162.219 152.724 162.818 155.738 163.771Z" fill="#A0505A"/>
<path d="M155.738 163.771V170.154C152.723 171.106 148.373 171.705 143.541 171.705C140.409 171.705 137.483 171.45 134.978 171.018L132.877 163.349C135.754 162.651 139.476 162.229 143.541 162.229C148.373 162.219 152.723 162.818 155.738 163.771Z" fill="#E0712C"/>
<path d="M155.012 196.658C155.277 196.737 157.771 197.434 159.981 197.434C161.179 197.434 162.288 197.228 162.917 196.599C163.457 196.059 163.585 195.273 163.3 194.282C163.045 193.398 162.554 192.848 161.837 192.651C160.521 192.298 158.694 193.28 157.251 194.311C159.5 191.581 161.719 188.115 160.894 185.846C160.599 185.041 159.932 184.501 159.097 184.403C158.4 184.324 157.752 184.57 157.447 185.031C156.033 187.182 154.874 196.01 154.825 196.383L155.012 196.658ZM157.86 185.306C158.036 185.041 158.409 184.884 158.842 184.884C158.91 184.884 158.979 184.884 159.048 184.894C159.362 184.933 160.118 185.11 160.442 186.013C160.658 186.612 160.737 187.712 159.863 189.558C159.038 191.306 157.545 193.359 155.424 195.686C155.738 193.447 156.74 187.005 157.86 185.306ZM162.573 196.255C161.925 196.904 160.452 197.1 158.301 196.825C157.172 196.678 156.121 196.442 155.562 196.295C155.984 195.922 156.77 195.244 157.683 194.615C159.431 193.408 160.825 192.887 161.719 193.133C162.259 193.28 162.622 193.702 162.838 194.419C163.074 195.244 162.986 195.843 162.573 196.255Z" fill="#F6C850"/>
<path d="M135.077 187.545L132.809 190.088C130.236 192.975 129.814 197.178 131.768 200.517L141.755 217.643C143.709 220.992 147.293 223.044 151.162 223.044H155.297C158.292 223.044 160.521 220.295 159.902 217.368L154.697 192.769C153.588 187.506 148.943 183.745 143.562 183.745C140.331 183.735 137.238 185.119 135.077 187.545Z" fill="white" stroke="#88BFBF" stroke-width="0.491" stroke-miterlimit="10"/>
<path d="M142.805 194.949L155.699 219.931C156.308 221.061 157.064 221.787 157.928 222.249C157.182 222.75 156.278 223.054 155.296 223.054H151.162C147.283 223.054 143.699 220.992 141.755 217.653L131.768 200.517C131.365 199.82 131.061 199.093 130.854 198.337C129.44 193.084 135.421 188.959 139.908 192.043C140.93 192.74 141.931 193.683 142.805 194.949Z" fill="#88BFBF"/>
<path d="M142.834 195.008H130.933C130.992 194.822 131.06 194.645 131.139 194.478H142.451C142.569 194.635 142.687 194.792 142.805 194.959L142.834 195.008Z" fill="white"/>
<path d="M144.582 198.386H130.874C130.874 198.367 130.864 198.347 130.864 198.337C130.825 198.18 130.785 198.013 130.756 197.856H144.317L144.582 198.386Z" fill="white"/>
<path d="M146.33 201.774H132.504L132.189 201.234H146.055L146.33 201.774Z" fill="white"/>
<path d="M148.079 205.162H134.478L134.164 204.622H147.804L148.079 205.162Z" fill="white"/>
<path d="M149.826 208.54H136.451L136.137 208.01H149.551L149.826 208.54Z" fill="white"/>
<path d="M151.575 211.928H138.426L138.111 211.388H151.29L151.575 211.928Z" fill="white"/>
<path d="M153.322 215.316H140.399L140.085 214.776H153.038L153.322 215.316Z" fill="white"/>
<path d="M155.061 218.694H142.452C142.324 218.517 142.196 218.341 142.079 218.164H154.786L155.061 218.694Z" fill="white"/>
<path d="M157.643 222.082H146.684C146.33 221.925 145.987 221.748 145.653 221.552H156.936C157.162 221.748 157.398 221.925 157.643 222.082Z" fill="white"/>
<path d="M119.708 166.265C119.62 168.858 112.265 170.959 103.21 170.959C94.1565 170.959 86.8013 168.867 86.7129 166.265V145.849H119.708V166.265Z" fill="#E0712C"/>
<path d="M117.518 169.653L117.469 172.079L116.998 195.755V195.067C116.998 188.989 112.068 184.059 105.99 184.059H105.322C102.219 184.059 99.4199 185.267 97.3479 187.211L95.9044 177.45L95.0107 171.411C97.4265 171.814 100.225 172.04 103.201 172.04C109.328 172.03 114.661 171.067 117.518 169.653Z" fill="#A0505A"/>
<path d="M117.518 169.653L117.469 172.079C113.815 174.671 102.532 177.863 95.9136 177.44L95.02 171.401C97.4357 171.794 100.234 172.03 103.21 172.03C109.328 172.03 114.66 171.067 117.518 169.653Z" fill="#E0712C"/>
<path d="M106.49 223.369H108.316C113.109 223.369 116.997 219.48 116.997 214.688V195.067C116.997 188.989 112.068 184.059 105.989 184.059H105.321C98.2509 184.059 92.8008 190.295 93.7534 197.306L96.0611 214.275C96.7779 219.48 101.226 223.369 106.49 223.369Z" fill="white" stroke="#88BFBF" stroke-width="0.491" stroke-miterlimit="10"/>
<path d="M114.267 221.002C112.716 222.465 110.614 223.369 108.316 223.369H106.49C101.226 223.369 96.7779 219.48 96.0709 214.275L93.7632 197.306C93.7239 196.982 93.6846 196.658 93.6748 196.344C94.264 192.583 97.5144 189.706 101.442 189.706C103.377 189.706 105.164 190.413 106.549 191.591C107.933 192.769 108.906 194.429 109.21 196.344L112.244 217.054C112.47 218.596 113.197 219.971 114.267 221.002Z" fill="#88BFBF"/>
<path d="M108.297 193.722H94.5786C94.6768 193.535 94.7946 193.359 94.9125 193.192H107.973C108.091 193.359 108.199 193.535 108.297 193.722Z" fill="white"/>
<path d="M109.319 197.1H93.7342C93.7145 196.923 93.6949 196.747 93.6851 196.57H109.24L109.319 197.1Z" fill="white"/>
<path d="M109.819 200.488H94.1958L94.1172 199.958H109.741L109.819 200.488Z" fill="white"/>
<path d="M110.31 203.876H94.6572L94.5786 203.336H110.232L110.31 203.876Z" fill="white"/>
<path d="M110.811 207.254H95.1186L95.04 206.724H110.732L110.811 207.254Z" fill="white"/>
<path d="M111.302 210.642H95.5702L95.5015 210.112H111.223L111.302 210.642Z" fill="white"/>
<path d="M111.803 214.03H96.0316L95.9629 213.49H111.724L111.803 214.03Z" fill="white"/>
<path d="M112.304 217.408H97.0042C96.9159 217.231 96.8373 217.054 96.7686 216.877H112.215L112.245 217.054C112.265 217.172 112.284 217.29 112.304 217.408Z" fill="white"/>
<path d="M114.062 220.796H99.5969C99.4005 220.629 99.2041 220.442 99.0273 220.265H113.61C113.748 220.452 113.905 220.629 114.062 220.796Z" fill="white"/>
<path d="M126.849 60.1502V76.6871C126.132 74.8115 120.456 75.0766 114.21 77.4432C108.859 79.476 104.842 82.2649 104.253 84.1994V60.926C104.253 54.0029 107.955 47.8163 113.641 44.4382C121.025 45.7247 126.849 52.1568 126.849 60.1502Z" fill="#F6C850"/>
<path d="M103.82 45.1846C98.7926 48.6805 95.5913 54.4841 95.5913 60.926V80.1241H67.6338L71.493 63.5087C73.133 56.4285 78.259 50.782 84.9366 48.3761L103.82 45.1846Z" fill="#F6C850"/>
<path d="M160.363 127.358V165.902C160.363 163.28 152.654 161.159 143.541 161.159C134.428 161.159 127.044 163.28 127.044 165.902V147.43C127.044 146.566 126.337 145.859 125.473 145.859H75.3514C60.2777 145.859 49.1319 131.826 52.5395 117.146L64.6377 65.021C66.5625 56.7034 73.299 50.3695 81.7147 48.9358L84.9357 48.3859C78.2581 50.7918 73.132 56.4383 71.4921 63.5185L67.6328 80.134H95.5904V60.926C95.5904 54.4841 98.8015 48.6707 103.82 45.1846L108.239 44.4383C109.152 44.2811 110.045 44.2124 110.939 44.2124C111.057 44.2124 111.165 44.2124 111.283 44.2124C111.391 44.2124 111.499 44.2222 111.597 44.2222C111.617 44.2222 111.636 44.2222 111.656 44.2222C111.734 44.2222 111.823 44.232 111.901 44.232C111.911 44.232 111.931 44.232 111.941 44.232C111.99 44.232 112.039 44.2419 112.078 44.2419C112.167 44.2517 112.245 44.2517 112.333 44.2615C112.432 44.2713 112.54 44.2811 112.638 44.291C112.736 44.3008 112.824 44.3106 112.923 44.3204C112.942 44.3204 112.962 44.3302 112.991 44.3302C113.09 44.3401 113.198 44.3597 113.296 44.3695C113.306 44.3695 113.315 44.3695 113.315 44.3695C113.423 44.3892 113.532 44.399 113.64 44.4186C107.954 47.7967 104.252 53.9833 104.252 60.9064V108.092H141.116C151.741 108.111 160.363 116.723 160.363 127.358Z" fill="#F69050"/>
<path d="M104.458 44.7524C99.4305 48.2484 95.5811 54.4841 95.5811 60.926V80.1241H67.6235L71.4828 63.5086C73.1227 56.4284 77.8167 50.6739 84.5041 48.268" fill="#A0505A"/>
<path d="M104.458 44.7524C99.4305 48.2484 95.5811 54.4841 95.5811 60.926V80.1241H67.6235L71.4828 63.5086C73.1227 56.4284 77.8167 50.6739 84.5041 48.268" stroke="white" stroke-width="0.5892" stroke-miterlimit="10" stroke-linecap="round"/>
<path d="M127.044 141.509C127.044 136.039 128.979 130.746 132.504 126.573" stroke="white" stroke-width="0.5892" stroke-miterlimit="10" stroke-linecap="round"/>
<path d="M86.2031 139.555C86.154 139.555 86.1049 139.545 86.0656 139.516L84.7693 138.809C84.622 138.73 84.5729 138.553 84.6515 138.406C84.7301 138.259 84.9068 138.21 85.0541 138.288L86.3504 138.995C86.4977 139.074 86.5468 139.25 86.4682 139.398C86.4093 139.496 86.3111 139.555 86.2031 139.555ZM87.4993 139.221C87.3913 139.221 87.2931 139.162 87.244 139.064C87.1654 138.917 87.2145 138.74 87.3618 138.661L88.6581 137.954C88.8054 137.876 88.9821 137.935 89.0607 138.072C89.1392 138.219 89.0901 138.396 88.9428 138.475L87.6466 139.182C87.5975 139.201 87.5484 139.221 87.4993 139.221ZM83.6106 138.151C83.5615 138.151 83.5124 138.141 83.4731 138.111L82.1769 137.404C82.0296 137.326 81.9805 137.149 82.059 137.002C82.1376 136.854 82.3143 136.805 82.4616 136.884L83.7579 137.591C83.9052 137.669 83.9543 137.846 83.8757 137.993C83.8168 138.092 83.7186 138.151 83.6106 138.151ZM90.082 137.807C89.9739 137.807 89.8757 137.748 89.8266 137.65C89.7481 137.502 89.7972 137.326 89.9445 137.247L91.2407 136.54C91.4666 136.422 91.6728 136.285 91.879 136.138C92.0067 136.039 92.1933 136.069 92.2915 136.196C92.3897 136.324 92.3602 136.511 92.2325 136.609C92.0067 136.776 91.771 136.923 91.5255 137.061L90.2293 137.768C90.1802 137.797 90.1311 137.807 90.082 137.807ZM81.0476 136.697C80.9886 136.697 80.9297 136.678 80.8708 136.638C80.4584 136.334 80.0754 135.98 79.7513 135.578C79.6433 135.45 79.6629 135.264 79.7906 135.165C79.9183 135.057 80.1048 135.077 80.203 135.205C80.4976 135.568 80.8413 135.882 81.2145 136.157C81.3422 136.255 81.3716 136.442 81.2832 136.57C81.2341 136.658 81.1458 136.697 81.0476 136.697ZM93.1163 135.666C93.0476 135.666 92.9887 135.647 92.9298 135.597C92.8021 135.499 92.7825 135.313 92.8905 135.185C93.1851 134.822 93.4306 134.429 93.627 133.997C93.6957 133.849 93.8725 133.781 94.0198 133.849C94.1671 133.918 94.2358 134.095 94.1671 134.242C93.951 134.714 93.6761 135.156 93.352 135.548C93.2833 135.627 93.2047 135.666 93.1163 135.666ZM79.2014 134.448C79.0934 134.448 78.9854 134.39 78.9363 134.282C78.7202 133.81 78.5631 133.319 78.4649 132.809C78.4354 132.651 78.5435 132.494 78.7006 132.465C78.8577 132.435 79.0148 132.543 79.0443 132.701C79.1327 133.162 79.2701 133.604 79.4665 134.026C79.5353 134.174 79.4665 134.35 79.3192 134.419C79.28 134.439 79.2407 134.448 79.2014 134.448ZM94.334 133.015C94.3144 133.015 94.2947 133.015 94.2849 133.015C94.1278 132.985 94.0198 132.828 94.0492 132.671C94.1082 132.347 94.1376 132.023 94.1376 131.699V131.257C94.1376 131.09 94.2653 130.962 94.4322 130.962C94.5992 130.962 94.7268 131.09 94.7268 131.257V131.699C94.7268 132.062 94.6974 132.426 94.6286 132.779C94.5992 132.917 94.4715 133.015 94.334 133.015ZM78.6613 131.581C78.4944 131.581 78.3667 131.453 78.3667 131.286V129.813C78.3667 129.646 78.4944 129.519 78.6613 129.519C78.8282 129.519 78.9559 129.646 78.9559 129.813V131.286C78.9559 131.444 78.8184 131.581 78.6613 131.581ZM94.4224 130.079C94.2555 130.079 94.1278 129.951 94.1278 129.784V128.311C94.1278 128.144 94.2555 128.016 94.4224 128.016C94.5893 128.016 94.717 128.144 94.717 128.311V129.784C94.717 129.951 94.5893 130.079 94.4224 130.079ZM78.6613 128.635C78.4944 128.635 78.3667 128.507 78.3667 128.34V126.867C78.3667 126.7 78.4944 126.573 78.6613 126.573C78.8282 126.573 78.9559 126.7 78.9559 126.867V128.34C78.9559 128.498 78.8184 128.635 78.6613 128.635ZM94.4224 127.133C94.2555 127.133 94.1278 127.005 94.1278 126.838V125.365C94.1278 125.198 94.2555 125.07 94.4224 125.07C94.5893 125.07 94.717 125.198 94.717 125.365V126.838C94.717 127.005 94.5893 127.133 94.4224 127.133ZM78.6613 125.689C78.4944 125.689 78.3667 125.561 78.3667 125.394V123.921C78.3667 123.754 78.4944 123.627 78.6613 123.627C78.8282 123.627 78.9559 123.754 78.9559 123.921V125.394C78.9559 125.552 78.8184 125.689 78.6613 125.689ZM94.4224 124.187C94.2555 124.187 94.1278 124.059 94.1278 123.892V122.419C94.1278 122.252 94.2555 122.124 94.4224 122.124C94.5893 122.124 94.717 122.252 94.717 122.419V123.892C94.717 124.059 94.5893 124.187 94.4224 124.187ZM78.6613 122.743C78.4944 122.743 78.3667 122.615 78.3667 122.448V121.182H79.1621C79.3291 121.182 79.4567 121.309 79.4567 121.476C79.4567 121.643 79.3291 121.771 79.1621 121.771H78.9559V122.448C78.9559 122.606 78.8184 122.743 78.6613 122.743ZM93.8921 121.771H92.4191C92.2522 121.771 92.1245 121.643 92.1245 121.476C92.1245 121.309 92.2522 121.182 92.4191 121.182H93.8921C94.0591 121.182 94.1867 121.309 94.1867 121.476C94.1867 121.643 94.0591 121.771 93.8921 121.771ZM90.9461 121.771H89.4731C89.3062 121.771 89.1785 121.643 89.1785 121.476C89.1785 121.309 89.3062 121.182 89.4731 121.182H90.9461C91.1131 121.182 91.2407 121.309 91.2407 121.476C91.2407 121.643 91.1131 121.771 90.9461 121.771ZM88.0001 121.771H86.5271C86.3602 121.771 86.2325 121.643 86.2325 121.476C86.2325 121.309 86.3602 121.182 86.5271 121.182H88.0001C88.1671 121.182 88.2947 121.309 88.2947 121.476C88.2947 121.643 88.1671 121.771 88.0001 121.771ZM85.0541 121.771H83.5811C83.4142 121.771 83.2865 121.643 83.2865 121.476C83.2865 121.309 83.4142 121.182 83.5811 121.182H85.0541C85.2211 121.182 85.3487 121.309 85.3487 121.476C85.3487 121.643 85.2211 121.771 85.0541 121.771ZM82.1081 121.771H80.6351C80.4682 121.771 80.3405 121.643 80.3405 121.476C80.3405 121.309 80.4682 121.182 80.6351 121.182H82.1081C82.2751 121.182 82.4027 121.309 82.4027 121.476C82.4027 121.643 82.2751 121.771 82.1081 121.771Z" fill="white"/>
<path d="M58.4124 137.925C58.3044 137.925 58.2062 137.866 58.1571 137.768C58.0786 137.62 58.1277 137.444 58.275 137.365L59.473 136.707C59.5025 136.687 59.5319 136.678 59.5614 136.658C59.6989 136.579 59.8854 136.629 59.964 136.766C60.0426 136.903 59.9935 137.09 59.856 137.169C59.8265 137.188 59.7971 137.208 59.7578 137.218L58.5597 137.876C58.5106 137.915 58.4615 137.925 58.4124 137.925ZM60.8969 136.354C60.8183 136.354 60.7398 136.324 60.6809 136.255C60.5728 136.137 60.5827 135.951 60.7005 135.843C61.0442 135.529 61.3486 135.165 61.6138 134.782C61.7021 134.645 61.8887 134.615 62.0262 134.704C62.1637 134.792 62.1931 134.979 62.1048 135.116C61.82 135.538 61.4763 135.931 61.1031 136.285C61.0344 136.334 60.9656 136.354 60.8969 136.354ZM62.5368 133.938C62.4976 133.938 62.4681 133.928 62.4288 133.918C62.2815 133.859 62.203 133.692 62.2619 133.535C62.4288 133.093 62.5467 132.642 62.6154 132.18C62.635 132.023 62.7823 131.905 62.9493 131.925C63.1064 131.944 63.2242 132.092 63.2046 132.259C63.1359 132.769 63.0082 133.27 62.8216 133.751C62.7627 133.869 62.6547 133.938 62.5368 133.938ZM62.9591 131.051C62.7922 131.051 62.6645 130.923 62.6645 130.756V129.283C62.6645 129.116 62.7922 128.989 62.9591 128.989C63.126 128.989 63.2537 129.116 63.2537 129.283V130.756C63.2537 130.913 63.126 131.051 62.9591 131.051ZM62.9591 128.105C62.7922 128.105 62.6645 127.977 62.6645 127.81V126.337C62.6645 126.17 62.7922 126.043 62.9591 126.043C63.126 126.043 63.2537 126.17 63.2537 126.337V127.81C63.2537 127.967 63.126 128.105 62.9591 128.105ZM62.9591 125.159C62.7922 125.159 62.6645 125.031 62.6645 124.864V123.391C62.6645 123.224 62.7922 123.097 62.9591 123.097C63.126 123.097 63.2537 123.224 63.2537 123.391V124.864C63.2537 125.021 63.126 125.159 62.9591 125.159ZM62.9591 122.213C62.7922 122.213 62.6645 122.085 62.6645 121.918V121.771H61.928C61.7611 121.771 61.6334 121.643 61.6334 121.476C61.6334 121.309 61.7611 121.182 61.928 121.182H63.2537V121.918C63.2537 122.075 63.126 122.213 62.9591 122.213ZM60.455 121.771H58.982C58.8151 121.771 58.6874 121.643 58.6874 121.476C58.6874 121.309 58.8151 121.182 58.982 121.182H60.455C60.6219 121.182 60.7496 121.309 60.7496 121.476C60.7496 121.643 60.6121 121.771 60.455 121.771ZM57.509 121.771H56.036C55.8691 121.771 55.7414 121.643 55.7414 121.476C55.7414 121.309 55.8691 121.182 56.036 121.182H57.509C57.676 121.182 57.8036 121.309 57.8036 121.476C57.8036 121.643 57.6661 121.771 57.509 121.771ZM54.563 121.771H53.09C52.9231 121.771 52.7954 121.643 52.7954 121.476C52.7954 121.309 52.9231 121.182 53.09 121.182H54.563C54.73 121.182 54.8576 121.309 54.8576 121.476C54.8576 121.643 54.7201 121.771 54.563 121.771Z" fill="white"/>
<path d="M126.848 76.687C127.565 78.5627 123.028 81.8916 116.792 84.2583C110.557 86.6249 104.969 86.9882 104.252 85.1028C103.535 83.2173 107.964 79.8196 114.21 77.453C120.455 75.0864 126.131 74.8016 126.848 76.687Z" fill="#F69050"/>
<path d="M130.334 137.61V138.651C130.01 138.573 129.666 138.533 129.323 138.533H128.056C126.18 138.533 124.58 137.335 123.971 135.666L127.565 135.185C129.028 134.988 130.334 136.127 130.334 137.61Z" fill="#E0712C"/>
<path d="M133.654 142.864V150.857C133.654 152.723 132.141 154.235 130.276 154.235H126.514C125.582 154.235 124.737 153.862 124.128 153.244C123.519 152.635 123.136 151.79 123.136 150.857H125.582C126.387 150.857 127.035 150.209 127.035 149.404V147.312C127.035 146.507 126.387 145.859 125.582 145.859H113.081C108.2 145.859 104.243 141.902 104.243 137.021V84.209C104.832 82.2745 108.848 79.4758 114.2 77.4529C117.853 76.0682 121.32 75.4005 123.706 75.4594V134.203C123.706 136.599 125.65 138.543 128.046 138.543H129.313C131.709 138.533 133.654 140.468 133.654 142.864Z" fill="#A0505A"/>
<path d="M123.706 75.4496V80.7917C121.929 81.9898 119.523 83.2172 116.783 84.2483C110.537 86.615 104.96 86.9783 104.243 85.0929V84.1992C104.832 82.2647 108.848 79.466 114.2 77.4431C117.863 76.0585 121.32 75.3907 123.706 75.4496Z" fill="#E0712C"/>
<path d="M107.375 35.6689L103.683 45.1845L84.6514 48.5921L89.6203 35.6689H107.375Z" fill="#A0505A"/>
<path d="M107.375 35.6689L105.382 40.8146L86.5078 43.7606L89.6208 35.6689H107.375Z" fill="#E0712C"/>
<path d="M118.53 16.3038C118.53 17.5902 116.301 19.0141 113.728 20.2121C110.223 21.8521 106.088 23.0992 106.088 23.0992L103.299 28.3529C107.09 30.366 108.573 33.9798 109.162 36.5035C109.535 38.114 109.535 39.2629 109.535 39.2629H82.8051C82.8051 39.2629 75.7838 16.5198 92.7036 11.0795C103.054 7.75054 118.53 13.2497 118.53 16.3038Z" fill="white" stroke="#F6C850" stroke-width="0.5892" stroke-miterlimit="10" stroke-linecap="round"/>
<path d="M90.2292 14.3202C93.9009 14.3202 96.8773 11.3437 96.8773 7.67207C96.8773 4.0004 93.9009 1.02393 90.2292 1.02393C86.5575 1.02393 83.5811 4.0004 83.5811 7.67207C83.5811 11.3437 86.5575 14.3202 90.2292 14.3202Z" fill="white" stroke="#F6C850" stroke-width="0.5892" stroke-miterlimit="10" stroke-linecap="round"/>
<path d="M109.152 36.5035C108.602 34.1172 107.227 30.7195 103.839 28.6672H102.965C102.16 28.6672 101.424 28.3431 100.893 27.8128C100.363 27.2825 100.039 26.546 100.039 25.7408C100.039 24.1205 101.345 22.8144 102.965 22.8144L106.668 22.893H106.766C106.835 22.8734 106.903 22.8439 106.982 22.8242C107.983 22.6082 111.155 21.8422 113.787 20.5264L114.091 22.3431L115.073 28.1663C115.741 32.1631 113.001 35.8456 109.152 36.5035Z" fill="#A0505A"/>
<path d="M114.082 22.3333C110.861 23.6394 106.658 22.8832 106.658 22.8832C106.658 22.8832 110.615 22.0976 113.777 20.5166L114.082 22.3333Z" fill="#E0712C"/>
<path d="M105.244 26.3005C105.244 25.181 104.34 24.2776 103.221 24.2776" stroke="#E0712C" stroke-width="0.491" stroke-miterlimit="10" stroke-linecap="round"/>
<path d="M115.643 150.858L127.044 245.739" stroke="#88BFBF" stroke-width="0.5892" stroke-miterlimit="10"/>
<path d="M66.2183 150.858L54.8271 245.739" stroke="#88BFBF" stroke-width="0.5892" stroke-miterlimit="10"/>
<path d="M58.7358 213.156H123.126" stroke="#88BFBF" stroke-width="0.5892" stroke-miterlimit="10"/>
<path d="M56.3105 150.858H125.551C126.376 150.858 127.044 150.19 127.044 149.365V147.342C127.044 146.517 126.376 145.849 125.551 145.849H56.3105C55.4856 145.849 54.8179 146.517 54.8179 147.342V149.365C54.8277 150.19 55.4954 150.858 56.3105 150.858Z" fill="white" stroke="#F6C850" stroke-width="0.5892" stroke-miterlimit="10"/>
</svg>
