<svg width="468" height="376" viewBox="0 0 468 376" fill="none" xmlns="http://www.w3.org/2000/svg">
<path d="M314.492 11.0113L343.183 38.5595L372.019 193.853H101.536L314.492 11.0113Z" fill="#F6C850"/>
<path d="M343.428 38.3431L314.65 10.7084L319.464 5.73241C326.553 -1.59453 339.325 -0.757989 346.69 6.2805C354.055 13.3334 355.345 26.0402 348.256 33.3671L343.428 38.3431Z" fill="white" stroke="#F6C850" stroke-width="0.5892" stroke-miterlimit="10" stroke-linecap="round"/>
<path d="M348.241 33.3671L319.449 5.73242" stroke="#F6C850" stroke-width="0.5892" stroke-miterlimit="10" stroke-linecap="round"/>
<path d="M348.27 7.53527L351.488 5.08334C355.809 1.79487 362.014 2.66025 365.247 7.03046L444.346 102.829L403.854 192.671" stroke="#88BFBF" stroke-width="0.5892" stroke-miterlimit="10" stroke-linecap="round"/>
<path d="M443.056 107.718C445.506 107.718 447.492 105.742 447.492 103.305C447.492 100.867 445.506 98.8914 443.056 98.8914C440.606 98.8914 438.62 100.867 438.62 103.305C438.62 105.742 440.606 107.718 443.056 107.718Z" fill="white" stroke="#F6C850" stroke-width="0.5892" stroke-miterlimit="10" stroke-linecap="round"/>
<path d="M392.604 182.632H414.22C420.44 182.632 425.47 187.651 425.47 193.824V194.142H381.339V193.824C381.354 187.651 386.385 182.632 392.604 182.632Z" fill="white" stroke="#F6C850" stroke-width="0.5892" stroke-miterlimit="10" stroke-linecap="round"/>
<path d="M287.888 161.387H151.045C145.898 161.387 141.737 157.247 141.737 152.127V56.9056C141.737 51.7854 145.898 47.646 151.045 47.646H287.888C293.035 47.646 297.196 51.7854 297.196 56.9056V152.113C297.21 157.233 293.035 161.387 287.888 161.387Z" fill="white" stroke="#88BFBF" stroke-width="0.5892" stroke-miterlimit="10" stroke-linecap="round"/>
<path d="M287.976 152.531H152.452C150.437 152.531 148.813 150.901 148.813 148.911V57.8143C148.813 55.8095 150.451 54.1941 152.452 54.1941H287.976C289.991 54.1941 291.615 55.8239 291.615 57.8143V148.896C291.629 150.901 289.991 152.531 287.976 152.531Z" fill="#88BFBF" stroke="#88BFBF" stroke-width="0.5892" stroke-miterlimit="10" stroke-linejoin="round"/>
<path d="M157.309 62.7037H155.163C154.467 62.7037 153.887 62.1412 153.887 61.4345V59.2999C153.887 58.6076 154.453 58.0306 155.163 58.0306H157.309C158.005 58.0306 158.584 58.5931 158.584 59.2999V61.4345C158.57 62.1412 158.005 62.7037 157.309 62.7037Z" stroke="white" stroke-width="0.5892" stroke-miterlimit="10" stroke-linecap="round"/>
<path d="M167.066 62.7037H164.921C164.225 62.7037 163.645 62.1412 163.645 61.4345V59.2999C163.645 58.6076 164.21 58.0306 164.921 58.0306H167.066C167.762 58.0306 168.342 58.5931 168.342 59.2999V61.4345C168.342 62.1412 167.762 62.7037 167.066 62.7037Z" stroke="white" stroke-width="0.5892" stroke-miterlimit="10" stroke-linecap="round"/>
<path d="M176.823 62.7037H174.677C173.981 62.7037 173.401 62.1412 173.401 61.4345V59.2999C173.401 58.6076 173.967 58.0306 174.677 58.0306H176.823C177.519 58.0306 178.099 58.5931 178.099 59.2999V61.4345C178.099 62.1412 177.533 62.7037 176.823 62.7037Z" stroke="white" stroke-width="0.5892" stroke-miterlimit="10" stroke-linecap="round"/>
<path d="M248.354 193.853H195.234L205.658 161.387H237.915L248.354 193.853Z" fill="white" stroke="#88BFBF" stroke-width="0.5892" stroke-miterlimit="10" stroke-linecap="round"/>
<path d="M199.41 180.858L205.658 161.387H237.915L199.41 180.858Z" fill="#88BFBF"/>
<path d="M280.089 84.0644H254.269C251.848 84.0644 249.891 82.1173 249.891 79.7086V63.122C249.891 60.7134 251.848 58.7662 254.269 58.7662H280.089C282.51 58.7662 284.468 60.7134 284.468 63.122V79.7086C284.468 82.1173 282.51 84.0644 280.089 84.0644Z" stroke="white" stroke-width="0.5892" stroke-miterlimit="10" stroke-linecap="round"/>
<path d="M257.27 64.6797H276.972" stroke="white" stroke-width="0.5892" stroke-miterlimit="10" stroke-linecap="round"/>
<path d="M257.27 69.1509H276.972" stroke="white" stroke-width="0.5892" stroke-miterlimit="10" stroke-linecap="round"/>
<path d="M257.27 73.6221H276.972" stroke="white" stroke-width="0.5892" stroke-miterlimit="10" stroke-linecap="round"/>
<path d="M257.27 78.0933H276.972" stroke="white" stroke-width="0.5892" stroke-miterlimit="10" stroke-linecap="round"/>
<path d="M287.223 152.531H184.594L178.578 161.113C171.778 170.805 157.411 170.949 150.423 161.387L113.773 111.238C115.31 113.141 122.341 111.021 129.039 106.637C135.838 102.18 140.231 96.5693 138.854 94.4924L164.268 126.714L172.054 113.041C174.185 109.42 177.722 106.824 181.839 105.872L208.327 100.29H231.161L256.329 105.815C260.707 106.81 264.418 109.651 266.52 113.589L287.223 152.531Z" fill="white" stroke="#88BFBF" stroke-width="0.5892" stroke-miterlimit="10"/>
<path d="M259.054 151.94L251.762 137.618" stroke="#88BFBF" stroke-width="0.5892" stroke-miterlimit="10" stroke-linecap="round"/>
<path d="M184.013 153.281L191.233 139.103" stroke="#88BFBF" stroke-width="0.5892" stroke-miterlimit="10" stroke-linecap="round"/>
<path d="M154.381 114.209L170.923 135.252" stroke="#88BFBF" stroke-width="0.5892" stroke-miterlimit="10" stroke-linecap="round"/>
<path d="M222.592 107.214L228.681 114.584L242.309 103.074" stroke="#88BFBF" stroke-width="0.5892" stroke-miterlimit="10" stroke-linecap="round"/>
<path d="M217.938 107.358L212.023 114.872L197.047 103.074" stroke="#88BFBF" stroke-width="0.5892" stroke-miterlimit="10" stroke-linecap="round"/>
<path d="M143.899 100.94C145.276 103.031 140.869 108.714 134.026 113.228C127.299 117.67 120.166 119.805 118.615 117.887" stroke="#88BFBF" stroke-width="0.5892" stroke-miterlimit="10" stroke-linecap="round"/>
<path d="M139.347 104.589C140.251 104.589 140.985 103.859 140.985 102.959C140.985 102.059 140.251 101.329 139.347 101.329C138.442 101.329 137.708 102.059 137.708 102.959C137.708 103.859 138.442 104.589 139.347 104.589Z" stroke="#88BFBF" stroke-width="0.5892" stroke-miterlimit="10" stroke-linecap="round"/>
<path d="M220.243 114.829C221.148 114.829 221.881 114.099 221.881 113.199C221.881 112.299 221.148 111.569 220.243 111.569C219.338 111.569 218.605 112.299 218.605 113.199C218.605 114.099 219.338 114.829 220.243 114.829Z" stroke="#88BFBF" stroke-width="0.5892" stroke-miterlimit="10" stroke-linecap="round"/>
<path d="M220.243 127.954C221.148 127.954 221.881 127.224 221.881 126.324C221.881 125.424 221.148 124.694 220.243 124.694C219.338 124.694 218.605 125.424 218.605 126.324C218.605 127.224 219.338 127.954 220.243 127.954Z" stroke="#88BFBF" stroke-width="0.5892" stroke-miterlimit="10" stroke-linecap="round"/>
<path d="M178.055 161.805L184.594 152.531V161.805H178.055Z" fill="#88BFBF"/>
<path d="M128.88 106.204C122.182 110.589 115.151 112.709 113.614 110.805C113.585 110.776 113.57 110.747 113.541 110.704C113.223 110.228 113.252 109.579 113.541 108.786C114.542 106.175 118.674 102.137 123.922 98.7039C128.097 95.9635 132.214 94.0597 135.07 93.4683C136.723 93.1366 137.956 93.2375 138.55 93.8722L138.695 94.0452C140.058 96.1222 135.679 101.747 128.88 106.204Z" fill="#F69050"/>
<path d="M128.879 106.204C125.066 108.699 121.137 110.473 118.18 111.165L104.943 92.5885C103.102 89.9923 103.711 86.4009 106.335 84.5692L118.252 76.2326L111.496 64.7951C110.51 63.1365 111.076 60.9874 112.758 60.0211C113.309 59.7037 113.903 59.5595 114.497 59.5595C115.643 59.5595 116.773 60.122 117.44 61.1605L138.563 93.8433L138.708 94.0741C140.057 96.1221 135.678 101.747 128.879 106.204Z" fill="#F5E4D4"/>
<path d="M118.222 76.3625L125.602 87.7423C126.283 88.8096 125.979 90.2231 124.906 90.9154L123.268 91.9827C122.195 92.6895 120.745 92.3866 120.049 91.3193L113.076 80.9346" stroke="#626A7F" stroke-width="0.5892" stroke-miterlimit="10" stroke-linecap="round"/>
<path d="M120.021 91.2904C120.731 92.3721 120.412 93.8289 119.325 94.5212L117.832 95.4587C116.759 96.1366 115.338 95.8337 114.642 94.7808" stroke="#626A7F" stroke-width="0.5892" stroke-miterlimit="10" stroke-linecap="round"/>
<path d="M107.785 84.5981L114.614 94.6943C115.324 95.776 115.02 97.2328 113.903 97.9251L112.512 98.6895C111.468 99.353 110.09 99.0789 109.366 98.0693L105.408 92.5164" stroke="#626A7F" stroke-width="0.5892" stroke-miterlimit="10" stroke-linecap="round"/>
<path d="M133.635 86.2279L130.17 80.8769C129.025 79.1029 126.633 78.6125 124.878 79.7952L116.281 85.5933C116.281 85.5933 118.775 90.05 124.835 86.5163L126.865 89.7327C122.718 92.3433 121.529 97.8385 124.226 101.92L133.635 86.2279Z" fill="#F5E4D4"/>
<path d="M133.186 86.3722L129.721 81.0212C128.575 79.2471 126.183 78.7568 124.429 79.9395L116.281 85.5933C116.281 85.5933 118.775 90.0501 124.835 86.5164L126.865 89.7328C122.718 92.3433 121.529 97.8385 124.226 101.92" stroke="#626A7F" stroke-width="0.5892" stroke-miterlimit="10" stroke-linecap="round"/>
<path d="M128.879 106.204C125.066 108.699 121.137 110.473 118.18 111.165L114.889 106.55C116.73 104.156 120.021 101.271 123.921 98.7183C128.096 95.9779 132.213 94.0741 135.069 93.4827C136.722 93.151 137.954 93.2519 138.549 93.8866L138.694 94.0596C138.708 94.0885 138.723 94.1029 138.737 94.1318C138.752 94.1462 138.752 94.1606 138.766 94.1894C138.781 94.2183 138.795 94.2327 138.81 94.2615C139.796 96.4683 135.461 101.877 128.879 106.204Z" fill="#626A7F"/>
<path d="M231.147 87.5981V100.276C231.147 103.954 226.015 106.925 219.708 106.925C213.387 106.925 208.27 103.954 208.27 100.276V87.5981H231.147Z" fill="#F5E4D4"/>
<path d="M211.617 104.978C209.544 103.781 208.254 102.108 208.254 100.276V87.5981H231.146V91.1174C231.146 94.7664 228.913 98.0405 225.521 99.4107L211.617 104.978Z" fill="#626A7F"/>
<path d="M237.525 86.8481V87.0645C237.525 89.2568 235.741 91.0308 233.538 91.0308H230.914C230.029 94.5789 226.811 97.2183 222.954 97.2183H216.459C212.618 97.2183 209.385 94.5933 208.515 91.0308H205.891C203.687 91.0308 201.904 89.2568 201.904 87.0645V86.8481C201.904 84.6558 203.687 82.8817 205.891 82.8817H208.268V79.7519C208.268 76.4058 210.747 73.6365 213.98 73.175C214.691 74.3577 216.836 77.1846 221.215 77.026C223.273 76.9538 225.187 76.5644 226.767 76.1029C228.666 75.5548 230.566 76.7087 231.044 78.5115C231.117 78.9154 231.16 79.3192 231.16 79.7375V82.8673H233.538C235.727 82.8673 237.525 84.6558 237.525 86.8481Z" fill="#F5E4D4"/>
<path d="M232.972 82.8673H231.145V79.3913C231.145 79.0885 231.101 78.7856 231.029 78.5115C230.55 76.7086 228.651 75.5548 226.752 76.1029C225.172 76.5644 223.273 76.9538 221.199 77.026C216.821 77.1846 214.676 74.3577 213.965 73.175C210.732 73.6365 208.253 76.4058 208.253 79.7519V82.8817H205.977C205.977 82.8817 203.367 73.4923 205.325 70.8384C207.253 68.2278 209.572 69.3673 209.572 69.3673C209.572 69.3673 208.181 61.5499 215.951 61.6942C223.708 61.8384 233.798 70.7952 234.537 72.4394C235.697 74.9635 232.972 82.8673 232.972 82.8673Z" fill="#626A7F"/>
<path d="M232.03 87.5837C232.03 86.0404 233.292 84.8 234.828 84.8" stroke="#626A7F" stroke-width="0.491" stroke-miterlimit="10" stroke-linecap="round"/>
<path d="M207.414 87.5837C207.414 86.0404 206.152 84.8 204.616 84.8" stroke="#626A7F" stroke-width="0.491" stroke-miterlimit="10" stroke-linecap="round"/>
<path d="M227.493 79.7519C227.493 79.7519 225.435 78.2519 222.811 79.3337" stroke="#626A7F" stroke-width="0.491" stroke-miterlimit="10" stroke-linecap="round"/>
<path d="M211.777 79.7519C211.777 79.7519 213.836 78.2519 216.46 79.3337" stroke="#626A7F" stroke-width="0.491" stroke-miterlimit="10" stroke-linecap="round"/>
<path d="M223.318 90.3962C223.318 90.3962 222.201 92.7905 218.78 91.5357" stroke="#626A7F" stroke-width="0.491" stroke-miterlimit="10" stroke-linecap="round"/>
<path d="M218.62 89.1559C219.504 89.2136 220.853 89.1559 220.853 89.1559" stroke="#626A7F" stroke-width="0.491" stroke-miterlimit="10" stroke-linecap="round"/>
<path d="M225.158 85.7664C225.558 85.7664 225.883 85.224 225.883 84.5549C225.883 83.8858 225.558 83.3433 225.158 83.3433C224.758 83.3433 224.433 83.8858 224.433 84.5549C224.433 85.224 224.758 85.7664 225.158 85.7664Z" fill="#626A7F"/>
<path d="M214.764 85.7664C215.164 85.7664 215.489 85.224 215.489 84.5549C215.489 83.8858 215.164 83.3433 214.764 83.3433C214.364 83.3433 214.039 83.8858 214.039 84.5549C214.039 85.224 214.364 85.7664 214.764 85.7664Z" fill="#626A7F"/>
<path d="M216.489 88.6365H211.922C211.038 88.6365 210.328 87.9298 210.328 87.05V82.5067C210.328 81.6269 211.038 80.9202 211.922 80.9202H216.489C217.373 80.9202 218.084 81.6269 218.084 82.5067V87.05C218.098 87.9154 217.373 88.6365 216.489 88.6365Z" stroke="white" stroke-width="0.491" stroke-miterlimit="10"/>
<path d="M227.667 88.6365H223.1C222.216 88.6365 221.505 87.9298 221.505 87.05V82.5067C221.505 81.6269 222.216 80.9202 223.1 80.9202H227.667C228.551 80.9202 229.262 81.6269 229.262 82.5067V87.05C229.262 87.9154 228.551 88.6365 227.667 88.6365Z" stroke="white" stroke-width="0.491" stroke-miterlimit="10"/>
<path d="M218.099 83.9202H221.506" stroke="white" stroke-width="0.491" stroke-miterlimit="10"/>
<path d="M228.869 146.935H213.023C211.587 146.935 210.413 145.781 210.413 144.339V135.959C210.413 134.531 211.573 133.363 213.023 133.363H228.869C230.304 133.363 231.478 134.516 231.478 135.959V144.339C231.478 145.767 230.318 146.935 228.869 146.935Z" stroke="#88BFBF" stroke-width="0.5892" stroke-miterlimit="10" stroke-linejoin="round"/>
<path d="M221.344 143.56H215.98C215.125 143.56 214.429 142.867 214.429 142.016V138.281C214.429 137.43 215.125 136.738 215.98 136.738H221.344C222.199 136.738 222.895 137.43 222.895 138.281V142.016C222.895 142.867 222.199 143.56 221.344 143.56Z" fill="#88BFBF"/>
<path d="M226.564 143.459L224.911 142.363C224.462 142.06 224.187 141.541 224.187 140.978V139.334C224.187 138.771 224.462 138.252 224.911 137.949L226.564 136.853C226.956 136.593 227.463 136.882 227.463 137.372V142.954C227.477 143.43 226.956 143.718 226.564 143.459Z" fill="#88BFBF"/>
<path d="M440.794 194.142H55.9248" stroke="#88BFBF" stroke-width="0.5892" stroke-miterlimit="10" stroke-linecap="round"/>
<path d="M179.837 196.666V374.734H169.732V340.839C169.732 337.681 167.151 335.113 163.976 335.113H91.6476C88.4726 335.113 85.892 337.681 85.892 340.839V374.734H75.7871V196.666H179.837Z" fill="white" stroke="#88BFBF" stroke-width="0.5892" stroke-miterlimit="10" stroke-linecap="round"/>
<path d="M180.141 196.666V243.916L75.7871 329.402L75.8016 196.666H180.141Z" fill="#D0F0E4"/>
<path d="M169.731 210.223V242.517C169.731 245.517 167.296 247.94 164.28 247.94H91.3569C88.3414 247.94 85.9058 245.517 85.9058 242.517V210.223C85.9058 207.223 88.3414 204.8 91.3569 204.8H164.28C167.296 204.8 169.731 207.223 169.731 210.223Z" stroke="#88BFBF" stroke-width="0.5892" stroke-miterlimit="10" stroke-linecap="round"/>
<path d="M146.361 272.402H110.464L108.971 262.176H144.882L146.361 272.402Z" fill="#F6C850"/>
<path d="M165.513 256.277C161.033 256.277 157.408 259.882 157.408 264.339V272.402H126.862V264.339C126.862 259.882 130.486 256.277 134.966 256.277H165.513Z" fill="white" stroke="#88BFBF" stroke-width="0.5892" stroke-miterlimit="10" stroke-linecap="round"/>
<path d="M173.124 262.176H142.577C141.635 258.772 138.489 256.277 134.763 256.277H165.309C169.035 256.277 172.167 258.772 173.124 262.176Z" fill="white" stroke="#88BFBF" stroke-width="0.5892" stroke-miterlimit="10" stroke-linecap="round"/>
<path d="M169.731 277.825V310.118C169.731 313.118 167.296 315.541 164.28 315.541H91.3569C88.3414 315.541 85.9058 313.118 85.9058 310.118V277.825C85.9058 274.825 88.3414 272.402 91.3569 272.402H164.28C167.296 272.402 169.731 274.825 169.731 277.825Z" stroke="#88BFBF" stroke-width="0.5892" stroke-miterlimit="10" stroke-linecap="round"/>
<path d="M112.885 225.728C112.885 223.161 114.972 221.07 117.568 221.07H138.082C140.662 221.07 142.764 223.147 142.764 225.728" stroke="#88BFBF" stroke-width="0.5892" stroke-miterlimit="10" stroke-linecap="round"/>
<path d="M112.885 293.329C112.885 290.762 114.972 288.671 117.568 288.671H138.082C140.662 288.671 142.764 290.748 142.764 293.329" stroke="#88BFBF" stroke-width="0.5892" stroke-miterlimit="10" stroke-linecap="round"/>
<path d="M425.47 196.666H414.698V375.123H425.47V196.666Z" fill="white" stroke="#88BFBF" stroke-width="0.5892" stroke-miterlimit="10" stroke-linecap="round"/>
<path d="M242.408 375.123H467.209" stroke="#88BFBF" stroke-width="0.5892" stroke-miterlimit="10" stroke-linecap="round"/>
<path d="M106.376 169.666H99.8664C99.8664 169.666 90.5734 131.141 82.4112 129.887C74.2491 128.632 73.8286 143.459 73.8286 143.459C73.8286 143.459 73.9736 120.915 94.3718 124.002C114.785 127.089 106.376 169.666 106.376 169.666Z" fill="white" stroke="#88BFBF" stroke-width="0.5892" stroke-miterlimit="10" stroke-linecap="round"/>
<path d="M84.0791 124.983C84.0791 124.983 102.68 118.146 103.52 169.089" stroke="#88BFBF" stroke-width="0.5892" stroke-miterlimit="10" stroke-linecap="round"/>
<path d="M124.107 169.089H93.5312V193.853H124.107V169.089Z" fill="#F69050"/>
<path d="M130.544 181.478C128.601 182.315 126.281 182.214 124.121 181.276C122.526 180.584 121.019 179.444 119.801 177.887C118.119 175.723 116.988 172.767 116.988 169.089C116.988 160.175 109.855 154.579 106.927 166.377C106.724 167.199 106.535 168.094 106.376 169.089V169.06V169.002C106.376 168.973 106.376 168.93 106.39 168.887V168.829C106.448 168.093 106.666 165.916 107.333 163.291C107.826 161.343 108.565 159.18 109.667 157.175C110.218 156.18 110.856 155.228 111.61 154.377C113.552 152.156 116.22 150.598 119.859 150.598C126.557 150.598 131.457 158.444 133.327 166.262C134.965 173.055 134.298 179.848 130.544 181.478Z" fill="white" stroke="#88BFBF" stroke-width="0.5892" stroke-miterlimit="10" stroke-linecap="round"/>
<path d="M111.624 154.377C111.624 154.377 125.049 144.872 128.992 181.752" stroke="#88BFBF" stroke-width="0.5892" stroke-miterlimit="10" stroke-linecap="round"/>
<path d="M73.394 143.459C73.394 145.839 73.1186 154.94 81.8462 155.358C90.5738 155.776 91.4436 142.666 91.4436 142.666C91.4436 142.666 87.1523 131.069 82.4116 129.887C74.3944 127.882 73.394 143.459 73.394 143.459Z" fill="#88BFBF"/>
<path d="M116.988 169.089H106.376C108.826 153.815 116.988 159.555 116.988 169.089Z" fill="#88BFBF"/>
<path opacity="0.4" d="M297.21 56.9056V152.113C297.21 157.233 293.035 161.372 287.903 161.372H178.373C171.501 170.791 157.337 170.834 150.407 161.372L150.392 161.358C147.638 161.17 145.202 159.771 143.636 157.709L146.159 155.545L210.528 100.276L271.825 47.646H287.903C293.035 47.646 297.21 51.7999 297.21 56.9056Z" fill="white"/>
<path opacity="0.4" d="M130.546 181.911C128.617 182.776 126.283 182.646 124.123 181.709V193.853H101.55L119.817 178.175L124.138 174.469L127.429 171.642L133.793 166.262C135.649 174.137 134.619 180.05 130.546 181.911Z" fill="white"/>
<path d="M11.7356 61.2037C11.5616 61.2037 11.3877 61.0883 11.3297 60.9152C11.2572 60.6845 11.3732 60.4393 11.5906 60.3672L12.9534 59.8912C13.1854 59.8191 13.4318 59.9345 13.5043 60.1508C13.5768 60.3816 13.4608 60.6268 13.2434 60.6989L11.8806 61.1749C11.8226 61.1893 11.7791 61.2037 11.7356 61.2037ZM15.1571 60.021C14.9831 60.021 14.8091 59.9056 14.7511 59.7325C14.6786 59.5018 14.7946 59.2566 15.0121 59.1845L16.3749 58.7085C16.6068 58.6364 16.8533 58.7518 16.9258 58.9681C16.9983 59.1989 16.8823 59.4441 16.6648 59.5162L15.302 59.9922C15.2585 60.0066 15.2006 60.021 15.1571 60.021ZM18.5785 58.8239C18.4045 58.8239 18.2306 58.7085 18.1726 58.5354C18.1001 58.3047 18.2161 58.0595 18.4335 57.9873L19.7963 57.5114C20.0283 57.4393 20.2747 57.5547 20.3472 57.771C20.4197 58.0018 20.3037 58.247 20.0863 58.3191L18.7235 58.795C18.68 58.8239 18.622 58.8239 18.5785 58.8239ZM22 57.6412C21.826 57.6412 21.652 57.5258 21.594 57.3527C21.5215 57.122 21.6375 56.8768 21.855 56.8046L23.2178 56.3287C23.4497 56.2566 23.6962 56.372 23.7687 56.5883C23.8412 56.8191 23.7252 57.0643 23.5077 57.1364L22.1449 57.6123C22.1014 57.6412 22.0579 57.6412 22 57.6412ZM25.4214 56.4585C25.2474 56.4585 25.0735 56.3431 25.0155 56.17C24.943 55.9393 25.059 55.6941 25.2764 55.6219L26.6392 55.146C26.8712 55.0739 27.1176 55.1893 27.1901 55.4056C27.2626 55.6364 27.1466 55.8816 26.9292 55.9537L25.5664 56.4296C25.5229 56.4585 25.4794 56.4585 25.4214 56.4585ZM28.8574 55.2758C28.6834 55.2758 28.5094 55.1604 28.4514 54.9873C28.3789 54.7566 28.4949 54.5114 28.7124 54.4392L30.0752 53.9633C30.3071 53.8912 30.5536 54.0066 30.6261 54.2229C30.6986 54.4537 30.5826 54.6989 30.3651 54.771L29.0023 55.247C28.9443 55.2758 28.9009 55.2758 28.8574 55.2758ZM32.2788 54.0931C32.1048 54.0931 31.9309 53.9777 31.8729 53.8046C31.8004 53.5739 31.9164 53.3287 32.1338 53.2566L33.4966 52.7806C33.7286 52.7085 33.975 52.8239 34.0475 53.0402C34.12 53.271 34.004 53.5162 33.7866 53.5883L32.4238 54.0643C32.3658 54.0787 32.3223 54.0931 32.2788 54.0931ZM35.7003 52.9104C35.5263 52.9104 35.3523 52.795 35.2943 52.6219C35.2218 52.3912 35.3378 52.146 35.5553 52.0739L36.9181 51.5979C37.15 51.5258 37.3965 51.6412 37.469 51.8575C37.5415 52.0883 37.4255 52.3335 37.208 52.4056L35.8452 52.8816C35.7872 52.896 35.7437 52.9104 35.7003 52.9104ZM39.1217 51.7277C38.9477 51.7277 38.7738 51.6123 38.7158 51.4392C38.6433 51.2085 38.7593 50.9633 38.9767 50.8912L40.3395 50.4152C40.5715 50.3431 40.8179 50.4585 40.8904 50.6748C40.9629 50.9056 40.8469 51.1508 40.6295 51.2229L39.2667 51.6989C39.2232 51.7133 39.1652 51.7277 39.1217 51.7277ZM42.5432 50.545C42.3692 50.545 42.1952 50.4296 42.1372 50.2565C42.0647 50.0258 42.1807 49.7806 42.3982 49.7085L43.761 49.2325C43.9929 49.1604 44.2394 49.2758 44.3119 49.4921C44.3844 49.7229 44.2684 49.9681 44.0509 50.0402L42.6881 50.5162C42.6446 50.5306 42.5867 50.545 42.5432 50.545ZM45.9646 49.3623C45.7906 49.3623 45.6167 49.2469 45.5587 49.0739C45.4862 48.8431 45.6022 48.5979 45.8196 48.5258L47.1824 48.0498C47.4144 47.9777 47.6608 48.0931 47.7333 48.3094C47.8058 48.5402 47.6898 48.7854 47.4724 48.8575L46.1096 49.3335C46.0661 49.3479 46.0081 49.3623 45.9646 49.3623ZM49.3861 48.1652C49.2121 48.1652 49.0381 48.0498 48.9801 47.8767C48.9076 47.646 49.0236 47.4008 49.2411 47.3287L50.6039 46.8527C50.8358 46.7806 51.0823 46.896 51.1548 47.1123C51.2273 47.3431 51.1113 47.5883 50.8938 47.6604L49.531 48.1364C49.4875 48.1652 49.444 48.1652 49.3861 48.1652ZM52.8075 46.9825C52.6335 46.9825 52.4596 46.8671 52.4016 46.694C52.3291 46.4633 52.4451 46.2181 52.6625 46.146L54.0253 45.67C54.2573 45.5979 54.5037 45.7133 54.5762 45.9296C54.6487 46.1604 54.5327 46.4056 54.3153 46.4777L52.9525 46.9537C52.909 46.9825 52.8655 46.9825 52.8075 46.9825ZM56.2435 45.7998C56.0695 45.7998 55.8955 45.6844 55.8375 45.5113C55.765 45.2806 55.881 45.0354 56.0985 44.9633L57.4613 44.4873C57.6932 44.4152 57.9397 44.5306 58.0122 44.7469C58.0847 44.9777 57.9687 45.2229 57.7512 45.295L56.3884 45.771C56.3304 45.7998 56.2869 45.7998 56.2435 45.7998ZM59.6649 44.6171C59.4909 44.6171 59.3169 44.5017 59.259 44.3286C59.1865 44.0979 59.3025 43.8527 59.5199 43.7806L60.8827 43.3046C61.1147 43.2325 61.3611 43.3479 61.4336 43.5642C61.5061 43.795 61.3901 44.0402 61.1727 44.1123L59.8099 44.5883C59.7519 44.6171 59.7084 44.6171 59.6649 44.6171ZM63.0863 43.4344C62.9124 43.4344 62.7384 43.319 62.6804 43.1459C62.6079 42.9152 62.7239 42.67 62.9414 42.5979L64.3042 42.1219C64.5361 42.0498 64.7826 42.1652 64.8551 42.3815C64.9276 42.6123 64.8116 42.8575 64.5941 42.9296L63.2313 43.4056C63.1733 43.4344 63.1298 43.4344 63.0863 43.4344ZM66.5078 42.2517C66.3338 42.2517 66.1599 42.1363 66.1019 41.9632C66.0294 41.7325 66.1454 41.4873 66.3628 41.4152L67.7256 40.9392C67.9576 40.8671 68.204 40.9825 68.2765 41.1988C68.349 41.4296 68.233 41.6748 68.0156 41.7469L66.6528 42.2229C66.6093 42.2373 66.5513 42.2517 66.5078 42.2517ZM69.9293 41.069C69.7553 41.069 69.5813 40.9536 69.5233 40.7806C69.4508 40.5498 69.5668 40.3046 69.7843 40.2325L71.147 39.7565C71.379 39.6844 71.6255 39.7998 71.698 40.0161C71.7705 40.2469 71.6545 40.4921 71.437 40.5642L70.0742 41.0402C70.0307 41.0546 69.9727 41.069 69.9293 41.069Z" fill="#F6C850"/>
<path d="M27.1622 61.2037C26.9158 61.2037 26.7273 61.0162 26.7273 60.771C26.7273 56.8624 25.5095 54.021 23.0884 52.3479C21.2761 51.0931 19.435 50.9777 19.4205 50.9777C19.174 50.9633 19 50.7614 19.0145 50.5162C19.029 50.271 19.232 50.0979 19.4639 50.1123C19.5509 50.1123 21.5371 50.2277 23.5523 51.6124C26.9013 53.9201 27.5971 57.872 27.5971 60.771C27.5971 61.0018 27.4087 61.2037 27.1622 61.2037Z" fill="#88BFBF"/>
<path d="M96.4314 61.2037H11.7361C11.5766 61.2037 11.4171 61.1172 11.3446 60.9585C11.2721 60.8143 11.2866 60.6412 11.3881 60.5114L45.8056 14.8622C45.8781 14.7613 45.994 14.7036 46.11 14.6891C46.226 14.6747 46.3565 14.718 46.4435 14.8045L96.7359 60.4537C96.8663 60.5691 96.9098 60.7566 96.8519 60.9297C96.7794 61.0883 96.6199 61.2037 96.4314 61.2037ZM12.6059 60.3383H95.3151L46.2115 15.7564L12.6059 60.3383Z" fill="#88BFBF"/>
<path d="M4.12453 64.2037C2.05136 64.2037 0.369629 62.5306 0.369629 60.4681C0.369629 58.4056 2.05136 56.7325 4.12453 56.7325C6.19769 56.7325 7.87942 58.4056 7.87942 60.4681C7.87942 62.5306 6.19769 64.2037 4.12453 64.2037ZM4.12453 57.5835C2.52978 57.5835 1.23949 58.8672 1.23949 60.4537C1.23949 62.0402 2.52978 63.3239 4.12453 63.3239C5.71927 63.3239 7.00956 62.0402 7.00956 60.4537C7.00956 58.8672 5.71927 57.5835 4.12453 57.5835Z" fill="#F6C850"/>
<path d="M7.88011 60.4681H7.01025V63.771H7.88011V60.4681Z" fill="#F6C850"/>
<path d="M48.7193 12.0209C46.6461 12.0209 44.9644 10.3478 44.9644 8.28527C44.9644 6.22276 46.6461 4.54968 48.7193 4.54968C50.7924 4.54968 52.4742 6.22276 52.4742 8.28527C52.4742 10.3334 50.7924 12.0209 48.7193 12.0209ZM48.7193 5.40065C47.1245 5.40065 45.8342 6.6843 45.8342 8.27085C45.8342 9.85739 47.1245 11.1555 48.7193 11.1555C50.314 11.1555 51.6043 9.87181 51.6043 8.28527C51.6043 6.69873 50.314 5.40065 48.7193 5.40065Z" fill="#F6C850"/>
<path d="M45.8059 2.50159H44.936V11.5737H45.8059V2.50159Z" fill="#F6C850"/>
<path d="M103.203 64.1172C101.129 64.1172 99.4478 62.4441 99.4478 60.3816C99.4478 58.3191 101.129 56.646 103.203 56.646V57.5114C101.608 57.5114 100.318 58.795 100.318 60.3816C100.318 61.9681 101.608 63.2518 103.203 63.2518V64.1172Z" fill="#F6C850"/>
<path d="M322.769 245.993V326.272H304.125L292.251 293.286L275.246 245.993H322.769Z" fill="#A0505A"/>
<path d="M275.246 245.993H322.769V271.767L280.9 261.7L275.246 245.993Z" fill="#E0712C"/>
<path d="M322.769 293.286V326.272H304.125L292.251 293.286C292.251 293.286 301.863 298.565 322.769 293.286Z" stroke="white" stroke-width="0.5892" stroke-miterlimit="10" stroke-linecap="round"/>
<path d="M301.95 301.032C303.119 301.032 304.067 300.089 304.067 298.926C304.067 297.763 303.119 296.82 301.95 296.82C300.781 296.82 299.833 297.763 299.833 298.926C299.833 300.089 300.781 301.032 301.95 301.032Z" stroke="white" stroke-width="0.5892" stroke-miterlimit="10" stroke-linecap="round"/>
<path d="M312.041 307.825C313.21 307.825 314.157 306.882 314.157 305.719C314.157 304.556 313.21 303.613 312.041 303.613C310.872 303.613 309.924 304.556 309.924 305.719C309.924 306.882 310.872 307.825 312.041 307.825Z" stroke="white" stroke-width="0.5892" stroke-miterlimit="10" stroke-linecap="round"/>
<path d="M319.55 300.282C320.719 300.282 321.667 299.339 321.667 298.176C321.667 297.013 320.719 296.07 319.55 296.07C318.381 296.07 317.434 297.013 317.434 298.176C317.434 299.339 318.381 300.282 319.55 300.282Z" stroke="white" stroke-width="0.5892" stroke-miterlimit="10" stroke-linecap="round"/>
<path d="M316.578 315.729C317.747 315.729 318.695 314.786 318.695 313.623C318.695 312.46 317.747 311.517 316.578 311.517C315.409 311.517 314.461 312.46 314.461 313.623C314.461 314.786 315.409 315.729 316.578 315.729Z" stroke="white" stroke-width="0.5892" stroke-miterlimit="10" stroke-linecap="round"/>
<path d="M304.066 311.892C305.235 311.892 306.183 310.949 306.183 309.786C306.183 308.623 305.235 307.681 304.066 307.681C302.897 307.681 301.95 308.623 301.95 309.786C301.95 310.949 302.897 311.892 304.066 311.892Z" stroke="white" stroke-width="0.5892" stroke-miterlimit="10" stroke-linecap="round"/>
<path d="M307.518 323.431C308.687 323.431 309.634 322.488 309.634 321.325C309.634 320.162 308.687 319.219 307.518 319.219C306.349 319.219 305.401 320.162 305.401 321.325C305.401 322.488 306.349 323.431 307.518 323.431Z" stroke="white" stroke-width="0.5892" stroke-miterlimit="10" stroke-linecap="round"/>
<path d="M331.584 341.243L318.797 367.652C316.984 371.907 312.795 374.676 308.141 374.676H291.831C287.656 374.676 285.119 370.464 286.713 366.628L303.11 327.282C304.023 324.887 305.633 322.897 307.648 321.498C309.678 320.099 312.113 319.306 314.679 319.306C318.246 319.306 321.783 321.714 324.132 324.383L329.815 330.483C332.439 333.455 333.12 337.623 331.584 341.243Z" fill="#88BFBF"/>
<path d="M331.584 341.243L318.797 367.652C316.985 371.907 312.795 374.676 308.141 374.676H290.802C289.193 374.676 288.28 373.681 287.743 372.311H291.6C296.253 372.311 300.443 369.541 302.255 365.287L316.999 334.695C318.377 331.839 321.291 330.008 324.48 330.008C328.641 330.008 331.802 333.036 332.382 336.873C332.439 338.344 332.179 339.83 331.584 341.243Z" fill="white" stroke="#88BFBF" stroke-width="0.5892" stroke-miterlimit="10" stroke-linejoin="round"/>
<path d="M328.641 329.214C327.104 328.378 325.248 327.772 323.625 327.772C320.508 327.772 317.623 329.575 316.274 332.373L301.008 364.046C299.066 368.618 294.571 371.575 289.57 371.575H286.757C286.612 371.301 286.511 371.013 286.409 370.71H289.57C294.223 370.71 298.399 367.955 300.211 363.7L300.225 363.686L315.506 331.998C316.999 328.897 320.189 326.907 323.639 326.907C324.741 326.907 326.06 327.267 327.191 327.657L328.641 329.214Z" fill="white"/>
<path d="M275.246 245.993L271.607 293.286L269.983 314.474C269.983 314.474 259.385 326.214 247.323 318.974L241.742 293.301L228.969 234.555C225.519 218.675 236.421 203.228 252.615 201.079L275.246 245.993Z" fill="#A0505A"/>
<path d="M271.607 293.286L269.983 315.051C269.983 315.051 259.385 326.791 247.323 319.551L241.742 293.301C255.761 297.483 271.607 293.286 271.607 293.286Z" stroke="white" stroke-width="0.5892" stroke-miterlimit="10" stroke-linecap="round"/>
<path d="M254.949 306.368C256.118 306.368 257.065 305.425 257.065 304.262C257.065 303.099 256.118 302.157 254.949 302.157C253.78 302.157 252.832 303.099 252.832 304.262C252.832 305.425 253.78 306.368 254.949 306.368Z" stroke="white" stroke-width="0.5892" stroke-miterlimit="10" stroke-linecap="round"/>
<path d="M268.403 303.137C269.572 303.137 270.519 302.195 270.519 301.032C270.519 299.869 269.572 298.926 268.403 298.926C267.234 298.926 266.286 299.869 266.286 301.032C266.286 302.195 267.234 303.137 268.403 303.137Z" stroke="white" stroke-width="0.5892" stroke-miterlimit="10" stroke-linecap="round"/>
<path d="M246.831 300.282C248 300.282 248.948 299.339 248.948 298.176C248.948 297.013 248 296.07 246.831 296.07C245.662 296.07 244.714 297.013 244.714 298.176C244.714 299.339 245.662 300.282 246.831 300.282Z" stroke="white" stroke-width="0.5892" stroke-miterlimit="10" stroke-linecap="round"/>
<path d="M252.832 317.834C254.001 317.834 254.949 316.892 254.949 315.729C254.949 314.566 254.001 313.623 252.832 313.623C251.663 313.623 250.715 314.566 250.715 315.729C250.715 316.892 251.663 317.834 252.832 317.834Z" stroke="white" stroke-width="0.5892" stroke-miterlimit="10" stroke-linecap="round"/>
<path d="M262.705 313.623C263.874 313.623 264.822 312.68 264.822 311.517C264.822 310.354 263.874 309.411 262.705 309.411C261.536 309.411 260.588 310.354 260.588 311.517C260.588 312.68 261.536 313.623 262.705 313.623Z" stroke="white" stroke-width="0.5892" stroke-miterlimit="10" stroke-linecap="round"/>
<path d="M283.957 319.522L269.981 375.123H265.574C265.371 375.123 265.183 375.109 264.98 375.094C261.645 374.791 258.833 371.993 258.122 368.69L247.307 318.945C259.369 326.2 269.981 314.459 269.981 314.459L283.957 319.522Z" fill="#88BFBF"/>
<path d="M284.668 348.051C287.611 332.589 288.423 320.777 283.349 319.825C278.275 318.873 269.243 329.128 266.3 344.589C263.357 360.051 264.894 373.724 269.968 374.676C275.042 375.642 281.725 363.527 284.668 348.051Z" fill="white" stroke="#88BFBF" stroke-width="0.5892" stroke-miterlimit="10" stroke-linejoin="round"/>
<path d="M264.27 344.344C262.748 352.363 262.299 360.108 263.024 366.166C263.545 370.522 264.647 373.623 266.155 375.123H265.575C265.372 375.123 265.184 375.109 264.981 375.094C263.618 373.306 262.647 370.306 262.154 366.267C261.414 360.137 261.864 352.291 263.415 344.185C264.879 336.512 267.837 329.315 271.766 323.906C274.114 320.676 276.579 318.411 278.826 317.387L280.131 317.82C274.955 319.349 267.097 329.503 264.27 344.344Z" fill="white"/>
<path d="M252.615 201.065L318.754 194.286L384.863 212.733L384.298 221.473C383.399 235.262 371.453 245.993 357.564 245.993H275.261L252.615 201.065Z" fill="#F69050"/>
<path d="M381.093 212.098C381.093 224.618 368.538 239.935 354.649 239.935H272.346" stroke="white" stroke-width="0.5892" stroke-miterlimit="10" stroke-linecap="round" stroke-linejoin="round"/>
<path d="M373.25 209.603C371.192 220.781 360.202 232.723 348.169 232.723H269.012" stroke="white" stroke-width="0.5892" stroke-miterlimit="10" stroke-linecap="round" stroke-linejoin="round"/>
<path d="M364.334 206.949C360.854 216.44 351.416 225.368 341.195 225.368H264.807" stroke="white" stroke-width="0.5892" stroke-miterlimit="10" stroke-linecap="round" stroke-linejoin="round"/>
<path d="M357.477 205.089C352.91 211.997 345.414 217.435 337.426 217.435H261.038" stroke="white" stroke-width="0.5892" stroke-miterlimit="10" stroke-linecap="round" stroke-linejoin="round"/>
<path d="M349.823 202.954C345.43 207.353 339.747 210.223 333.803 210.223H257.415" stroke="white" stroke-width="0.5892" stroke-miterlimit="10" stroke-linecap="round" stroke-linejoin="round"/>
<path d="M339.862 200.084C336.759 201.829 333.367 202.868 329.887 202.868H253.499" stroke="white" stroke-width="0.5892" stroke-miterlimit="10" stroke-linecap="round" stroke-linejoin="round"/>
<path d="M275.101 245.993L252.47 201.065" stroke="white" stroke-width="0.5892" stroke-miterlimit="10" stroke-linecap="round" stroke-linejoin="round"/>
<path d="M388.488 152.531C382.254 154.291 376.121 153.771 375.469 151.882C374.86 150.079 377.614 146.992 383.196 144.944C383.472 144.843 383.761 144.742 384.051 144.641C385.733 144.079 387.415 143.718 388.995 143.531C393.678 142.94 397.491 143.776 397.969 145.19C398.622 147.079 395.084 150.67 388.488 152.531Z" fill="white" stroke="#88BFBF" stroke-width="0.5892" stroke-miterlimit="10" stroke-linejoin="round"/>
<path d="M384.545 194.589H382.153L375.875 152.43V152.401L375.716 151.348C376.02 149.43 379.036 146.718 384.356 144.959C387.01 144.079 389.648 143.69 391.895 143.646L394.186 149.891L394.403 150.483L401.652 170.257C406.001 182.069 397.201 194.589 384.545 194.589Z" fill="#A0505A"/>
<path d="M394.331 150.339C392.809 151.29 390.837 152.17 388.488 152.834C383.095 154.348 377.63 153.728 375.875 152.43V152.401L375.716 151.348C376.02 149.43 379.036 146.718 384.356 144.959C387.01 144.079 389.648 143.69 391.895 143.646L394.331 150.339Z" fill="#E0712C"/>
<path d="M306.894 159.901L299.283 178.738C295.528 188.041 286.453 194.142 276.362 194.142H174.052V184.824C174.052 182.574 175.444 180.555 177.561 179.762L188.071 175.795C189.028 175.435 190.029 175.247 191.044 175.247H202.975L270.505 168.468L282.161 141.916L306.894 159.901Z" fill="#A0505A"/>
<path d="M185.071 181.521L177.14 184.507C175.546 185.113 174.487 186.627 174.487 188.329" stroke="#E0712C" stroke-width="0.5892" stroke-miterlimit="10" stroke-linecap="round"/>
<path d="M185.071 186.281L177.14 189.267C175.546 189.872 174.487 191.387 174.487 193.089" stroke="#E0712C" stroke-width="0.5892" stroke-miterlimit="10" stroke-linecap="round"/>
<path d="M185.071 190.868L177.141 193.709" stroke="#E0712C" stroke-width="0.5892" stroke-miterlimit="10" stroke-linecap="round"/>
<path d="M184.244 177.396C184.244 177.396 191.667 158.545 194.045 158.863C196.422 159.18 187.463 176.185 187.463 176.185L184.244 177.396Z" fill="#F69050"/>
<path d="M282.162 141.93L280.451 145.81L302.357 171.122L306.895 159.901L282.162 141.93Z" fill="#E0712C"/>
<path d="M375.874 152.444L384.862 212.733L318.767 194.286L306.894 159.887L276.246 137.603L287.003 124.853C296.6 113.473 310.765 106.896 325.697 106.896H346.936C365.406 106.896 382.412 116.935 391.27 133.06L398.157 144.916C398.157 144.916 396.083 141.887 384.906 144.93C375.062 147.627 375.874 152.444 375.874 152.444Z" fill="#88BFBF"/>
<path d="M306.895 159.613L310.331 144.786" stroke="white" stroke-width="0.5892" stroke-miterlimit="10" stroke-linecap="round" stroke-linejoin="round"/>
<path d="M383.197 198.656L372.019 129.526" stroke="white" stroke-width="0.5892" stroke-miterlimit="10" stroke-linecap="round" stroke-linejoin="round"/>
<path d="M318.754 194.012L384.718 212.733" stroke="white" stroke-width="0.5892" stroke-miterlimit="10" stroke-linecap="round" stroke-linejoin="round"/>
<path d="M322.319 97.2616V106.954L339.514 106.81V89.7039L322.319 97.2616Z" fill="#A0505A"/>
<path d="M340.906 86.7182V86.9778C340.906 89.574 338.934 91.6798 336.325 91.6798H335.31C334.657 94.2471 328.858 97.2471 324.741 97.2471H319.942C314.694 97.2471 310.678 92.5596 311.534 87.3961L311.766 85.9971L310.345 85.2038C309.533 84.7423 309.301 83.6894 309.866 82.9394L312.94 78.9009L313.607 74.9201C314.143 71.6461 316.303 68.9778 319.174 67.6653C320.305 80.3432 331.555 81.8432 334.527 82.0163H336.18C338.789 82.0163 340.906 84.1221 340.906 86.7182Z" fill="#A0505A"/>
<path d="M333.294 87.9586C333.294 85.9105 334.961 84.2518 337.02 84.2518" stroke="#E0712C" stroke-width="0.5892" stroke-miterlimit="10" stroke-linecap="round"/>
<path d="M317.578 82.1461C317.987 82.1461 318.318 81.3841 318.318 80.4442C318.318 79.5042 317.987 78.7422 317.578 78.7422C317.17 78.7422 316.839 79.5042 316.839 80.4442C316.839 81.3841 317.17 82.1461 317.578 82.1461Z" fill="#E0712C"/>
<path d="M316.448 75.1797C316.448 75.1797 318.492 74.9778 320.594 77.8624" stroke="#E0712C" stroke-width="0.5892" stroke-miterlimit="10" stroke-linecap="round"/>
<path d="M334.526 82.0163H336.179C338.788 82.0163 340.905 84.1221 340.905 86.7182V86.9779C340.905 89.574 338.933 91.6798 336.324 91.6798L335.208 92.4586C330.51 95.4587 324.015 107.257 325.61 115.608C327.408 124.997 335.628 127.089 343.225 125.646C350.821 124.204 356.36 119.805 354.562 110.401C354.359 109.29 354.025 108.18 353.605 107.084C353.736 107.127 353.852 107.17 353.982 107.214C363.116 109.694 373.844 109.983 376.801 102.887C379.759 95.7904 379.092 88.7663 370.205 85.1028C365.044 82.9682 358.027 82.9826 352.59 84.4538C355.33 74.9778 350.459 64.4345 341.514 63.3816C327.466 61.723 319.405 67.4922 319.188 67.6509C319.173 69.324 320.318 81.1942 334.526 82.0163Z" fill="#E0712C"/>
<path d="M352.953 84.1221C351.808 87.8288 349.444 91.7952 345.603 94.4923C345.603 94.4923 352.387 98.949 353.982 107.228" stroke="white" stroke-width="0.5892" stroke-miterlimit="10" stroke-linecap="round" stroke-linejoin="round"/>
<path d="M356.897 83.8048H353.055V79.9826C353.055 77.9778 354.679 76.3624 356.694 76.3624H356.897C358.912 76.3624 360.536 77.9778 360.536 79.9826V80.1846C360.551 82.1749 358.912 83.8048 356.897 83.8048Z" stroke="#F69050" stroke-width="0.5892" stroke-miterlimit="10" stroke-linejoin="round"/>
<path d="M355.49 87.7278L353.026 83.8336L356.94 81.3817C358.897 80.1557 361.493 80.7326 362.725 82.6797L362.957 83.0403C364.189 84.9874 363.609 87.5692 361.652 88.7952L361.29 89.0259C359.303 90.2519 356.723 89.675 355.49 87.7278Z" stroke="#F69050" stroke-width="0.5892" stroke-miterlimit="10" stroke-linejoin="round"/>
<path d="M332.786 94.6799L335.526 92.0693L338.208 95.0837C339.527 96.5981 339.353 98.8914 337.831 100.189L337.671 100.319C336.149 101.632 333.844 101.459 332.539 99.9443L332.409 99.7856C331.089 98.2856 331.263 95.9924 332.786 94.6799Z" stroke="#F69050" stroke-width="0.5892" stroke-miterlimit="10" stroke-linejoin="round"/>
<path d="M336.787 96.5548L335.555 92.1269L340.006 90.901C342.239 90.2808 344.544 91.5789 345.167 93.8L345.283 94.2183C345.907 96.4395 344.602 98.7327 342.369 99.3529L341.949 99.4683C339.716 100.074 337.411 98.7616 336.787 96.5548Z" stroke="#F69050" stroke-width="0.5892" stroke-miterlimit="10" stroke-linejoin="round"/>
<path d="M297.225 257.084L271.97 374.676" stroke="#F6C850" stroke-width="0.5892" stroke-miterlimit="10" stroke-linecap="round"/>
<path d="M361.855 257.084L387.11 374.676" stroke="#F6C850" stroke-width="0.5892" stroke-miterlimit="10" stroke-linecap="round"/>
<path d="M277.566 348.57H381.167" stroke="#F6C850" stroke-width="0.5892" stroke-miterlimit="10" stroke-linecap="round"/>
<path d="M381.732 257.084H277.334C276.015 257.084 274.942 256.017 274.942 254.704V248.373C274.942 247.06 276.015 245.993 277.334 245.993H381.732C383.051 245.993 384.124 247.06 384.124 248.373V254.704C384.124 256.017 383.051 257.084 381.732 257.084Z" fill="white" stroke="#88BFBF" stroke-width="0.5892" stroke-miterlimit="10" stroke-linejoin="round"/>
</svg>
