<svg width="301" height="269" viewBox="0 0 301 269" fill="none" xmlns="http://www.w3.org/2000/svg">
<path d="M290.779 262.925H0.166016" stroke="#88BFBF" stroke-width="0.5892" stroke-miterlimit="10"/>
<path d="M25.5498 268.189H191.969" stroke="#88BFBF" stroke-width="0.5892" stroke-miterlimit="10"/>
<path d="M275.803 197.612H229.325C227.125 197.612 225.338 199.399 225.338 201.599V262.925H279.78V201.599C279.79 199.399 278.003 197.612 275.803 197.612Z" fill="#D0F0E4"/>
<path d="M275.803 197.612H229.325C227.125 197.612 225.338 199.399 225.338 201.599V262.925H279.78V201.599C279.79 199.399 278.003 197.612 275.803 197.612Z" stroke="#F6C850" stroke-width="0.5892" stroke-miterlimit="10"/>
<path d="M286.144 128.715H219.073V262.915H286.144V128.715Z" stroke="#F6C850" stroke-width="0.5892" stroke-miterlimit="10"/>
<path d="M287.902 111.913H57.8877V128.715H300.834" stroke="#F6C850" stroke-width="0.5892" stroke-miterlimit="10"/>
<path d="M275.803 160.257H229.414C227.214 160.257 225.427 158.47 225.427 156.27V139.89C225.427 137.691 227.214 135.903 229.414 135.903H275.803C278.003 135.903 279.79 137.691 279.79 139.89V156.28C279.79 158.48 278.003 160.257 275.803 160.257Z" stroke="#F6C850" stroke-width="0.5892" stroke-miterlimit="10"/>
<path d="M275.803 189.913H229.414C227.214 189.913 225.427 188.126 225.427 185.926V169.547C225.427 167.347 227.214 165.56 229.414 165.56H275.803C278.003 165.56 279.79 167.347 279.79 169.547V185.926C279.79 188.126 278.003 189.913 275.803 189.913Z" stroke="#F6C850" stroke-width="0.5892" stroke-miterlimit="10"/>
<path d="M252.766 151.065C254.528 151.065 255.957 149.637 255.957 147.874C255.957 146.111 254.528 144.682 252.766 144.682C251.003 144.682 249.574 146.111 249.574 147.874C249.574 149.637 251.003 151.065 252.766 151.065Z" stroke="#88BFBF" stroke-width="0.5892" stroke-miterlimit="10"/>
<path d="M252.766 180.81C254.528 180.81 255.957 179.381 255.957 177.619C255.957 175.856 254.528 174.427 252.766 174.427C251.003 174.427 249.574 175.856 249.574 177.619C249.574 179.381 251.003 180.81 252.766 180.81Z" stroke="#88BFBF" stroke-width="0.5892" stroke-miterlimit="10"/>
<path d="M272.69 218.038L272.622 218.46L272.592 218.706L271.571 225.216L271.463 225.913L271.001 228.879L270.834 229.92L270.402 232.67L270.294 233.367L269.244 240.103V240.133L269.136 240.83L269.077 241.144L268.075 247.586L267.967 248.283L267.496 251.318V251.328L267.329 252.368L266.906 255.04L266.798 255.737L265.748 262.503L265.738 262.542L265.689 262.856L265.679 262.925H238.085L238.075 262.846L238.026 262.571L238.016 262.483L236.955 255.727L236.847 255.02L236.435 252.398L236.278 251.347L235.797 248.264L235.689 247.567L234.687 241.174L234.628 240.81L234.52 240.123V240.113L233.46 233.347L233.351 232.65L232.929 229.949L232.772 228.909L232.301 225.894L232.193 225.197L231.181 218.735L231.073 218.038H272.69Z" fill="white"/>
<path d="M265.944 263.229H237.82L237.702 262.503L230.71 217.733H273.044L265.944 263.229ZM238.34 262.621H265.414L272.327 218.352H231.417L238.34 262.621Z" fill="#88BFBF"/>
<path d="M273.074 218.038C273.074 218.175 273.054 218.323 273.005 218.46C272.671 219.491 271.139 220.444 268.733 221.229C268.556 221.288 268.38 221.337 268.203 221.396C266.651 221.858 264.795 222.26 262.704 222.565C262.507 222.594 262.311 222.624 262.105 222.653C260.259 222.908 258.245 223.095 256.115 223.203C255.898 223.213 255.692 223.223 255.476 223.233C254.308 223.282 253.1 223.311 251.872 223.311C250.93 223.311 249.997 223.291 249.083 223.262C248.858 223.252 248.632 223.242 248.406 223.233C245.951 223.134 243.633 222.928 241.532 222.634C241.277 222.594 241.031 222.565 240.785 222.526C237.221 221.985 234.353 221.19 232.596 220.237C231.574 219.688 230.936 219.089 230.73 218.46L230.671 218.048C230.671 215.141 240.157 212.794 251.862 212.794C263.499 212.794 272.946 215.121 273.054 218.008C273.074 218.008 273.074 218.018 273.074 218.038Z" fill="#88BFBF"/>
<path d="M265.758 262.513V262.905L265.689 262.856L265.68 262.915H265.424L262.292 258.869L261.968 258.447L258.815 254.382L258.491 253.959L255.339 249.894L255.015 249.472L251.863 245.406L251.539 244.984L248.387 240.918L248.063 240.496L244.92 236.431L244.596 236.008L241.444 231.943L241.12 231.521L237.977 227.455L237.653 227.033L234.511 222.967L234.187 222.545L231.172 218.656L231.123 218.372C231.319 218.99 231.948 219.58 232.95 220.12L234.501 222.123L234.825 222.545L237.977 226.611L238.301 227.033L241.454 231.098L241.778 231.521L244.93 235.586L245.254 236.008L248.406 240.074L248.73 240.496L251.883 244.562L252.207 244.984L255.359 249.049L255.683 249.472L258.835 253.537L259.159 253.959L262.311 258.025L262.635 258.447L265.768 262.493L265.758 262.513Z" fill="#88BFBF"/>
<path d="M266.907 255.04L266.799 255.737L265.758 254.391L265.434 253.969L262.282 249.904L261.958 249.481L258.806 245.416L258.482 244.994L255.329 240.928L255.005 240.506L251.853 236.44L251.529 236.018L248.406 231.992L248.082 231.57L244.93 227.504L244.606 227.082L241.454 223.017L241.13 222.594L240.992 222.418C241.228 222.457 241.473 222.486 241.719 222.526L241.768 222.594L244.92 226.66L245.244 227.082L248.396 231.147L248.721 231.57L251.873 235.635L252.197 236.057L255.349 240.123L255.673 240.545L258.825 244.611L259.149 245.033L262.302 249.098L262.626 249.521L265.778 253.586L266.102 254.008L266.907 255.04Z" fill="#88BFBF"/>
<path d="M268.075 247.586L267.967 248.283L265.758 245.436L265.434 245.013L262.282 240.948L261.958 240.526L258.805 236.46L258.481 236.038L255.329 231.972L255.005 231.55L251.853 227.485L251.529 227.062L248.455 223.095C248.681 223.105 248.897 223.115 249.123 223.125L251.853 226.64L252.177 227.062L255.329 231.128L255.653 231.55L258.805 235.616L259.129 236.038L262.282 240.103L262.606 240.526L265.758 244.591L266.082 245.013L268.075 247.586Z" fill="#88BFBF"/>
<path d="M269.245 240.133L269.137 240.83L268.911 240.535L265.758 236.47L265.434 236.048L262.282 231.982L261.958 231.56L258.806 227.494L258.482 227.072L255.408 223.105C255.614 223.095 255.83 223.085 256.037 223.075L258.806 226.65L259.13 227.072L262.282 231.138L262.606 231.56L265.758 235.625L266.083 236.048L269.235 240.113L269.245 240.133Z" fill="#88BFBF"/>
<path d="M245.127 262.768L244.931 262.915L244.921 262.925H244.597L241.454 258.879L241.13 258.457L237.988 254.391L237.664 253.979L236.436 252.398L236.279 251.347L237.988 253.557L238.312 253.979L241.454 258.035L241.778 258.457L244.931 262.522L245.127 262.768Z" fill="#88BFBF"/>
<path d="M238.174 262.768L238.075 262.846L238.026 262.571L238.174 262.768Z" fill="#88BFBF"/>
<path d="M252.069 262.768L251.872 262.915L251.863 262.925H251.539L248.406 258.879L248.082 258.457L244.93 254.391L244.606 253.979L241.453 249.914L241.129 249.501V249.491L237.987 245.436L237.663 245.013L234.687 241.174L234.629 240.81L234.521 240.123L234.835 240.535L237.987 244.601L238.311 245.013L241.453 249.079L241.777 249.501L244.93 253.557L245.254 253.979L248.406 258.035L248.73 258.457L251.872 262.522L252.069 262.768Z" fill="#88BFBF"/>
<path d="M259.011 262.768L258.815 262.915L258.805 262.925H258.481L255.349 258.879L255.025 258.457L251.872 254.391L251.548 253.979L248.406 249.914L248.082 249.501L244.93 245.436L244.606 245.013L241.453 240.958L241.129 240.535L237.987 236.47L237.663 236.058L234.511 231.992L234.187 231.58L232.93 229.949L232.772 228.909L234.511 231.157L234.835 231.58L237.987 235.635L238.311 236.058L241.453 240.113L241.777 240.535L244.93 244.601L245.254 245.013L248.406 249.079L248.73 249.501L251.872 253.557L252.196 253.979L255.349 258.035L255.673 258.457L258.815 262.522L259.011 262.768Z" fill="#88BFBF"/>
<path d="M270.402 232.67L270.294 233.367L269.234 231.992L268.91 231.57L265.758 227.504L265.434 227.082L262.281 223.017L261.957 222.594L261.918 222.545C262.114 222.516 262.311 222.486 262.497 222.457L262.605 222.594L265.758 226.66L266.082 227.082L269.234 231.148L269.558 231.57L270.402 232.67Z" fill="#88BFBF"/>
<path d="M271.572 225.216L271.464 225.913L269.235 223.036L268.911 222.614L267.919 221.328C268.096 221.278 268.272 221.219 268.439 221.161L269.235 222.192L269.559 222.614L271.572 225.216Z" fill="#88BFBF"/>
<path d="M272.976 218.195L272.701 218.548L272.622 218.45C272.671 218.313 272.691 218.175 272.691 218.038C272.691 218.018 272.691 218.008 272.691 217.989L272.701 217.979L272.976 218.195Z" fill="#88BFBF"/>
<path d="M271.002 228.879L270.835 229.92L269.558 231.58L269.234 231.992L266.082 236.058L265.758 236.47L262.616 240.535L262.292 240.958L259.139 245.013L258.815 245.436L255.673 249.501L255.349 249.914L252.197 253.979L251.872 254.391L248.73 258.457L248.406 258.879L245.264 262.925H244.94L244.93 262.915L244.743 262.768L244.93 262.522L248.082 258.457L248.406 258.035L251.548 253.979L251.872 253.557L255.025 249.501L255.349 249.079L258.491 245.013L258.815 244.601L261.967 240.535L262.292 240.113L265.434 236.058L265.758 235.635L268.91 231.58L269.234 231.157L271.002 228.879Z" fill="#88BFBF"/>
<path d="M272.593 218.706L269.559 222.624L269.235 223.046L266.082 227.112L265.758 227.534L262.606 231.599L262.282 232.022L259.13 236.087L258.806 236.509L255.673 240.535L255.349 240.958L252.197 245.023L251.873 245.445L248.721 249.511L248.397 249.933L245.244 253.999L244.92 254.421L241.768 258.486L241.444 258.909L238.311 262.955H238.076L238.066 262.876L238.027 262.601L237.987 262.552L238.017 262.513L241.14 258.486L241.464 258.064L244.616 253.999L244.94 253.576L248.092 249.511L248.416 249.089L251.568 245.023L251.892 244.601L255.045 240.535L255.369 240.113L258.521 236.048L258.845 235.625L261.997 231.56L262.321 231.138L265.473 227.072L265.798 226.65L268.94 222.584L269.264 222.162L270.806 220.169C271.817 219.629 272.456 219.039 272.662 218.411L272.593 218.706Z" fill="#88BFBF"/>
<path d="M262.743 222.447L262.606 222.624L262.282 223.046L259.129 227.112L258.805 227.534L255.653 231.599L255.329 232.022L252.177 236.087L251.853 236.509L248.701 240.575L248.377 240.997L245.224 245.062L244.9 245.485L241.748 249.55L241.424 249.972L238.272 254.038L237.948 254.46L236.917 255.786L236.809 255.089L237.624 254.038L237.948 253.616L241.09 249.55L241.414 249.128L244.566 245.062L244.89 244.64L248.033 240.575L248.357 240.152L251.509 236.087L251.833 235.665L254.985 231.599L255.309 231.177L258.462 227.112L258.786 226.689L261.938 222.624L261.987 222.555C262.154 222.535 262.321 222.506 262.478 222.486C262.586 222.467 262.665 222.457 262.743 222.447Z" fill="#88BFBF"/>
<path d="M255.271 223.134L252.197 227.092L251.873 227.514L248.721 231.58L248.397 232.002L245.244 236.067L244.92 236.49L241.768 240.555L241.444 240.977L238.292 245.043L237.968 245.465L235.778 248.293L235.67 247.596L237.644 245.043L237.968 244.621L241.12 240.555L241.444 240.133L244.596 236.067L244.92 235.645L248.073 231.58L248.397 231.157L251.549 227.092L251.873 226.67L254.603 223.154C254.819 223.154 255.045 223.144 255.271 223.134Z" fill="#88BFBF"/>
<path d="M267.496 251.328L267.329 252.369L266.082 253.979L265.758 254.391L262.616 258.457L262.292 258.879L259.149 262.925H258.825L258.815 262.915L258.629 262.768L258.815 262.522L261.968 258.457L262.292 258.035L265.434 253.979L265.758 253.557L267.496 251.328Z" fill="#88BFBF"/>
<path d="M269.077 241.144L266.082 245.013L265.758 245.436L262.615 249.501L262.291 249.914L259.139 253.979L258.815 254.391L255.672 258.457L255.348 258.879L252.206 262.925H251.882L251.872 262.915L251.686 262.768L251.872 262.522L255.024 258.457L255.348 258.035L258.491 253.979L258.815 253.557L261.967 249.501L262.291 249.079L265.434 245.013L265.758 244.601L268.91 240.535L269.234 240.113L269.244 240.103V240.133L269.136 240.83L269.077 241.144Z" fill="#88BFBF"/>
<path d="M248.328 223.125L245.254 227.092L244.93 227.514L241.778 231.58L241.454 232.002L238.301 236.067L237.977 236.49L234.825 240.555L234.619 240.83L234.511 240.152L234.501 240.143L234.511 240.133L237.653 236.077L237.977 235.655L241.12 231.589L241.444 231.167L244.596 227.102L244.92 226.679L247.689 223.105C247.915 223.105 248.121 223.115 248.328 223.125Z" fill="#88BFBF"/>
<path d="M241.827 222.565L241.788 222.624L241.464 223.046L238.312 227.111L237.988 227.534L234.835 231.599L234.511 232.021L233.461 233.377L233.353 232.679L234.187 231.599L234.511 231.177L237.654 227.111L237.978 226.689L241.13 222.624L241.238 222.486C241.395 222.506 241.562 222.535 241.729 222.555L241.827 222.565Z" fill="#88BFBF"/>
<path d="M235.837 221.328L234.835 222.614L234.511 223.036L232.292 225.894L232.184 225.197L234.187 222.614L234.511 222.192L235.316 221.161C235.483 221.22 235.66 221.278 235.837 221.328Z" fill="#88BFBF"/>
<path d="M274.713 212.273H265.649V209.514H271.149C272.867 209.514 274.301 210.692 274.713 212.273Z" fill="white" stroke="#F6C850" stroke-width="0.491" stroke-miterlimit="10"/>
<path d="M271.208 209.514C268.635 209.544 266.386 211.262 265.699 213.746L263.607 221.337C263.313 221.386 263.008 221.436 262.704 221.475C262.507 221.504 262.311 221.534 262.105 221.563C260.259 221.819 258.245 222.005 256.114 222.113C255.898 222.123 255.692 222.133 255.476 222.143C254.308 222.192 253.1 222.221 251.872 222.221C250.93 222.221 249.997 222.201 249.083 222.172C248.857 222.162 248.632 222.152 248.406 222.143C248.317 222.143 248.229 222.133 248.141 222.133L250.458 213.746C251.146 211.242 253.424 209.514 256.026 209.514H271.208Z" fill="white" stroke="#F6C850" stroke-width="0.491" stroke-miterlimit="10"/>
<path d="M265.002 45.8834L288.187 111.913H203.283L225.85 45.8834H265.002Z" fill="#F6C850"/>
<path d="M245.607 38.0176C245.607 35.268 247.837 33.0388 250.586 33.0388H253.463C256.213 33.0388 258.442 35.268 258.442 38.0176V102.447" stroke="#88BFBF" stroke-width="0.5892" stroke-miterlimit="10"/>
<path d="M265.13 109.812V111.805H244.135V109.812C244.135 108.113 244.714 106.542 245.686 105.294C247.032 103.566 249.143 102.447 251.5 102.447H257.755C257.853 102.447 257.961 102.447 258.06 102.456C261.997 102.614 265.13 105.844 265.13 109.812Z" fill="white" stroke="#F69050" stroke-width="0.5892" stroke-miterlimit="10"/>
<path d="M269.794 46.1583H221.215V44.6362C221.215 40.993 224.171 38.047 227.804 38.047H263.205C266.848 38.047 269.794 41.0028 269.794 44.6362V46.1583Z" fill="#F69050"/>
<path d="M269.794 44.9406H221.215" stroke="white" stroke-width="0.491" stroke-miterlimit="10" stroke-linecap="round"/>
<path d="M264.717 46.1583C264.717 47.8965 263.637 49.3105 262.292 49.3105H228.295C226.959 49.3105 225.869 47.8965 225.869 46.1583H264.717Z" fill="white"/>
<path d="M258.443 104.371C258.443 107.524 255.565 110.087 252.02 110.087C248.829 110.087 246.178 108.015 245.687 105.294C247.032 103.566 249.143 102.447 251.5 102.447H257.755C257.853 102.447 257.962 102.447 258.06 102.456C258.315 103.055 258.443 103.704 258.443 104.371Z" fill="white" stroke="#F69050" stroke-width="0.5892" stroke-miterlimit="10"/>
<path d="M252.197 101.101V104.185C252.197 104.813 251.617 105.324 250.91 105.324C250.203 105.324 249.624 104.813 249.624 104.185V101.101H249.644C249.762 101.641 250.282 102.054 250.901 102.054C251.519 102.054 252.04 101.641 252.158 101.101H252.197Z" fill="#F69050"/>
<path d="M251.921 100.993C251.921 101.062 251.912 101.131 251.902 101.199C251.813 101.69 251.401 102.054 250.9 102.054C250.409 102.054 249.997 101.69 249.899 101.199C249.889 101.131 249.879 101.062 249.879 100.993C249.879 100.404 250.331 99.9326 250.9 99.9326C251.46 99.9326 251.921 100.414 251.921 100.993Z" fill="white" stroke="#F69050" stroke-width="0.5892" stroke-miterlimit="10"/>
<path d="M218.474 67.1535H215.115V111.913H218.474V67.1535Z" fill="#88BFBF"/>
<path d="M213.711 111.913H207.956C207.347 111.913 206.856 111.422 206.856 110.813V77.543C206.856 76.9342 207.347 76.4432 207.956 76.4432H213.711C214.32 76.4432 214.811 76.9342 214.811 77.543V110.813C214.811 111.422 214.32 111.913 213.711 111.913Z" fill="white" stroke="#F6C850" stroke-width="0.491" stroke-miterlimit="10"/>
<path d="M232.222 111.196H225.613C225.132 111.196 224.719 110.852 224.631 110.381L218.7 79.566C218.582 78.9473 219.053 78.3777 219.682 78.3777H226.291C226.772 78.3777 227.184 78.7215 227.273 79.1928L233.204 110.008C233.322 110.627 232.85 111.196 232.222 111.196Z" stroke="#88BFBF" stroke-width="0.5892" stroke-miterlimit="10"/>
<path d="M205.541 111.913H174.412C173.685 111.913 173.096 111.324 173.096 110.597V104.224C173.096 103.497 173.685 102.908 174.412 102.908H205.541C206.268 102.908 206.857 103.497 206.857 104.224V110.597C206.857 111.324 206.268 111.913 205.541 111.913Z" fill="#F69050"/>
<path d="M88.9664 2.67532V22.9831C88.9664 26.9602 85.7356 30.191 81.7585 30.191H59.2412C63.2183 30.191 66.4491 26.97 66.4491 22.9831V2.67532H88.9664Z" fill="white" stroke="#F6C850" stroke-width="0.491" stroke-miterlimit="10"/>
<path d="M78.5667 0.711334H76.75V5.04195H78.5667V0.711334Z" fill="#F69050"/>
<path d="M82.4167 10.3939C82.1614 10.3939 81.9061 10.2957 81.6998 10.1091L80.9437 9.44132C80.708 9.2351 80.3938 9.2351 80.1581 9.44132L79.4412 10.0796C79.019 10.4528 78.4298 10.4528 77.9977 10.0796L77.3398 9.50023C77.1041 9.29401 76.7898 9.29401 76.5542 9.50023L75.9453 10.0403C75.5231 10.4135 74.9339 10.4135 74.5018 10.0403L74.001 9.59843C73.7653 9.39221 73.451 9.39221 73.2154 9.59843L72.6753 10.0796C72.253 10.4528 71.6638 10.4528 71.2317 10.0796L70.7309 9.63772C70.4952 9.4315 70.181 9.4315 69.9453 9.63772C69.8471 9.7261 69.69 9.71628 69.6016 9.61808C69.5132 9.51988 69.523 9.36276 69.6212 9.27438C70.0435 8.90122 70.6327 8.90122 71.0648 9.27438L71.5656 9.71628C71.8013 9.9225 72.1155 9.9225 72.3512 9.71628L72.8913 9.2351C73.3136 8.86194 73.9028 8.86194 74.3348 9.2351L74.8357 9.677C75.0713 9.88322 75.3856 9.88322 75.6213 9.677L76.2301 9.1369C76.6524 8.76374 77.2416 8.76374 77.6736 9.1369L78.3316 9.71628C78.5673 9.9225 78.8815 9.9225 79.1172 9.71628L79.834 9.07798C80.2563 8.70482 80.8455 8.70482 81.2776 9.07798L82.0337 9.74573C82.2694 9.95195 82.5836 9.95195 82.8193 9.74573L83.6049 9.04852C84.0272 8.67536 84.6164 8.67536 85.0485 9.04852C85.1467 9.1369 85.1565 9.29402 85.0681 9.39222C84.9797 9.49042 84.8226 9.50023 84.7244 9.41185C84.4887 9.20563 84.1745 9.20563 83.9388 9.41185L83.1532 10.1091C82.9175 10.2957 82.672 10.3939 82.4167 10.3939Z" fill="#F6C850"/>
<path d="M82.4177 14.4299C82.1624 14.4299 81.907 14.3317 81.7008 14.1451L80.9447 13.4774C80.709 13.2711 80.3948 13.2711 80.1591 13.4774L79.4422 14.1157C79.02 14.4888 78.4308 14.4888 77.9987 14.1157L77.3407 13.5363C77.1051 13.3301 76.7908 13.3301 76.5551 13.5363L75.9463 14.0764C75.524 14.4495 74.9348 14.4495 74.5028 14.0764L74.0019 13.6345C73.7663 13.4283 73.452 13.4283 73.2163 13.6345L72.6762 14.1157C72.254 14.4888 71.6648 14.4888 71.2327 14.1157L70.7319 13.6738C70.4962 13.4675 70.182 13.4675 69.9463 13.6738C69.8481 13.7621 69.691 13.7523 69.6026 13.6541C69.5142 13.5559 69.524 13.3988 69.6222 13.3104C70.0445 12.9373 70.6337 12.9373 71.0658 13.3104L71.5666 13.7523C71.8023 13.9585 72.1165 13.9585 72.3522 13.7523L72.8923 13.2711C73.3145 12.898 73.9037 12.898 74.3358 13.2711L74.8366 13.713C75.0723 13.9193 75.3866 13.9193 75.6222 13.713L76.2311 13.1729C76.6533 12.7998 77.2425 12.7998 77.6746 13.1729L78.3326 13.7523C78.5682 13.9585 78.8825 13.9585 79.1182 13.7523L79.835 13.114C80.2573 12.7409 80.8465 12.7409 81.2786 13.114L82.0347 13.7818C82.2704 13.988 82.5846 13.988 82.8203 13.7818L83.6059 13.0846C84.0282 12.7114 84.6174 12.7114 85.0494 13.0846C85.1476 13.1729 85.1575 13.3301 85.0691 13.4283C84.9807 13.5265 84.8236 13.5363 84.7254 13.4479C84.4897 13.2417 84.1755 13.2417 83.9398 13.4479L83.1542 14.1451C82.9185 14.3415 82.673 14.4299 82.4177 14.4299Z" fill="#F6C850"/>
<path d="M82.4177 18.4659C82.1624 18.4659 81.907 18.3677 81.7008 18.1811L80.9447 17.5134C80.709 17.3071 80.3948 17.3071 80.1591 17.5134L79.4422 18.1517C79.02 18.5248 78.4308 18.5248 77.9987 18.1517L77.3407 17.5723C77.1051 17.3661 76.7908 17.3661 76.5551 17.5723L75.9463 18.1124C75.524 18.4855 74.9348 18.4855 74.5028 18.1124L74.0019 17.6705C73.7663 17.4643 73.452 17.4643 73.2163 17.6705L72.6762 18.1517C72.254 18.5248 71.6648 18.5248 71.2327 18.1517L70.7319 17.7098C70.4962 17.5035 70.182 17.5035 69.9463 17.7098C69.8481 17.7981 69.691 17.7883 69.6026 17.6901C69.5142 17.5919 69.524 17.4348 69.6222 17.3464C70.0445 16.9733 70.6337 16.9733 71.0658 17.3464L71.5666 17.7883C71.8023 17.9945 72.1165 17.9945 72.3522 17.7883L72.8923 17.3071C73.3145 16.934 73.9037 16.934 74.3358 17.3071L74.8366 17.749C75.0723 17.9553 75.3866 17.9553 75.6222 17.749L76.2311 17.2089C76.6533 16.8358 77.2425 16.8358 77.6746 17.2089L78.3326 17.7883C78.5682 17.9945 78.8825 17.9945 79.1182 17.7883L79.835 17.15C80.2573 16.7769 80.8465 16.7769 81.2786 17.15L82.0347 17.8178C82.2704 18.024 82.5846 18.024 82.8203 17.8178L83.6059 17.1206C84.0282 16.7474 84.6174 16.7474 85.0494 17.1206C85.1476 17.2089 85.1575 17.3661 85.0691 17.4643C84.9807 17.5625 84.8236 17.5723 84.7254 17.4839C84.4897 17.2777 84.1755 17.2777 83.9398 17.4839L83.1542 18.1811C82.9185 18.3775 82.673 18.4659 82.4177 18.4659Z" fill="#F6C850"/>
<path d="M82.4177 22.5117C82.1624 22.5117 81.907 22.4136 81.7008 22.227L80.9447 21.5592C80.709 21.353 80.3948 21.353 80.1591 21.5592L79.4422 22.1975C79.02 22.5707 78.4308 22.5707 77.9987 22.1975L77.3407 21.6181C77.1051 21.4119 76.7908 21.4119 76.5551 21.6181L75.9463 22.1582C75.524 22.5314 74.9348 22.5314 74.5028 22.1582L74.0019 21.7163C73.7663 21.5101 73.452 21.5101 73.2163 21.7163L72.6762 22.1975C72.254 22.5707 71.6648 22.5707 71.2327 22.1975L70.7319 21.7556C70.4962 21.5494 70.182 21.5494 69.9463 21.7556C69.8481 21.844 69.691 21.8342 69.6026 21.736C69.5142 21.6378 69.524 21.4807 69.6222 21.3923C70.0445 21.0191 70.6337 21.0191 71.0658 21.3923L71.5666 21.8342C71.8023 22.0404 72.1165 22.0404 72.3522 21.8342L72.8923 21.353C73.3145 20.9798 73.9037 20.9798 74.3358 21.353L74.8366 21.7949C75.0723 22.0011 75.3866 22.0011 75.6222 21.7949L76.2311 21.2548C76.6533 20.8816 77.2425 20.8816 77.6746 21.2548L78.3326 21.8342C78.5682 22.0404 78.8825 22.0404 79.1182 21.8342L79.835 21.1959C80.2573 20.8227 80.8465 20.8227 81.2786 21.1959L82.0347 21.8636C82.2704 22.0698 82.5846 22.0698 82.8203 21.8636L83.6059 21.1664C84.0282 20.7932 84.6174 20.7932 85.0494 21.1664C85.1476 21.2548 85.1575 21.4119 85.0691 21.5101C84.9807 21.6083 84.8236 21.6181 84.7254 21.5297C84.4897 21.3235 84.1755 21.3235 83.9398 21.5297L83.1542 22.227C82.9185 22.4136 82.673 22.5117 82.4177 22.5117Z" fill="#F6C850"/>
<path d="M112.153 2.67535H96.4014V18.4266H112.153V2.67535Z" fill="#88BFBF"/>
<path d="M99.8646 2.00168L98.7227 0.588654L94.5599 3.95286L95.7019 5.36589L99.8646 2.00168Z" fill="#F6C850"/>
<path d="M112.97 5.36402L114.112 3.95099L109.95 0.586784L108.808 1.99981L112.97 5.36402Z" fill="#F6C850"/>
<path d="M108.824 6.40692H99.2695V6.99612H108.824V6.40692Z" fill="white"/>
<path d="M108.824 8.95032H99.2695V9.53952H108.824V8.95032Z" fill="white"/>
<path d="M108.824 11.5035H99.2695V12.0927H108.824V11.5035Z" fill="white"/>
<path d="M108.824 14.0469H99.2695V14.6361H108.824V14.0469Z" fill="white"/>
<path d="M172.36 111.913H135.643L142.752 96.2011L143.793 93.8934H164.209L167.076 100.227L172.36 111.913Z" fill="white" stroke="#88BFBF" stroke-width="0.5892" stroke-miterlimit="10"/>
<path d="M167.077 100.227L142.753 96.201L143.794 93.8933H164.21L167.077 100.227Z" fill="#88BFBF"/>
<path d="M197.273 93.8933H110.847C107.675 93.8933 105.112 91.3205 105.112 88.1585V31.7426C105.112 28.5707 107.685 26.0077 110.847 26.0077H197.273C200.445 26.0077 203.008 28.5805 203.008 31.7426V88.1486C203.008 91.3205 200.435 93.8933 197.273 93.8933Z" fill="white" stroke="#88BFBF" stroke-width="0.5892" stroke-miterlimit="10"/>
<path d="M171.378 89.9064H136.733C135.044 89.9064 133.679 88.5415 133.679 86.8524V82.6593C133.679 80.9702 135.044 79.6053 136.733 79.6053H171.378C173.067 79.6053 174.432 80.9702 174.432 82.6593V86.8524C174.432 88.5415 173.057 89.9064 171.378 89.9064Z" fill="#88BFBF"/>
<path d="M162.284 87.1077H159.947C159.368 87.1077 158.896 86.6364 158.896 86.057V84.2305C158.896 83.6511 159.368 83.1797 159.947 83.1797H162.284C162.864 83.1797 163.335 83.6511 163.335 84.2305V86.057C163.335 86.6364 162.864 87.1077 162.284 87.1077Z" fill="white"/>
<path d="M165.26 86.8034L164.396 86.2534C164.16 86.1061 164.013 85.841 164.013 85.5562V84.7313C164.013 84.4466 164.16 84.1814 164.396 84.0341L165.26 83.4842C165.466 83.3565 165.731 83.5038 165.731 83.7395V86.5382C165.741 86.7837 165.466 86.931 165.26 86.8034Z" fill="white"/>
<path d="M153.426 86.1847H153.21C152.355 86.1847 151.658 85.4875 151.658 84.6331V83.7199C151.658 83.6413 151.727 83.5726 151.806 83.5726H154.82C154.899 83.5726 154.968 83.6413 154.968 83.7199V84.6331C154.977 85.4875 154.28 86.1847 153.426 86.1847ZM151.953 83.8672V84.6331C151.953 85.3205 152.513 85.8901 153.21 85.8901H153.426C154.113 85.8901 154.683 85.3304 154.683 84.6331V83.8672H151.953Z" fill="white"/>
<path d="M153.317 87.8835C153.239 87.8835 153.17 87.8148 153.17 87.7362V86.6266C153.17 86.548 153.239 86.4793 153.317 86.4793C153.396 86.4793 153.465 86.548 153.465 86.6266V87.7362C153.465 87.8148 153.396 87.8835 153.317 87.8835Z" fill="white"/>
<path d="M154.093 87.8835H152.552C152.473 87.8835 152.404 87.8148 152.404 87.7362C152.404 87.6577 152.473 87.5889 152.552 87.5889H154.093C154.172 87.5889 154.241 87.6577 154.241 87.7362C154.241 87.8148 154.172 87.8835 154.093 87.8835Z" fill="white"/>
<path d="M153.387 85.4973H153.249C152.758 85.4973 152.365 85.1045 152.365 84.6135V82.8262C152.365 82.3352 152.758 81.9424 153.249 81.9424H153.387C153.878 81.9424 154.27 82.3352 154.27 82.8262V84.6135C154.27 85.1045 153.878 85.4973 153.387 85.4973Z" fill="white"/>
<path d="M144.353 84.3876L144.343 84.3974C144.156 84.6233 144.215 84.967 144.461 85.1732L145.364 85.8999C145.61 86.0963 145.963 86.0767 146.15 85.8508L146.16 85.841C146.346 85.6151 146.7 85.6053 146.935 85.8115L147.751 86.548C148.006 86.7837 148.006 87.1765 147.751 87.3532C146.896 87.9523 145.787 87.7362 144.873 86.9997L143.498 85.8901C142.585 85.1437 142.143 84.1028 142.546 83.1405C142.674 82.8459 143.057 82.7673 143.332 82.9735L144.225 83.6216C144.471 83.818 144.53 84.1618 144.353 84.3876Z" fill="white"/>
<path d="M146.748 84.9572C146.67 84.9572 146.611 84.8983 146.601 84.8197C146.552 84.1127 145.943 83.5725 145.236 83.6216C145.158 83.6216 145.089 83.5627 145.079 83.4842C145.069 83.4056 145.138 83.3369 145.217 83.327C146.091 83.2681 146.837 83.9359 146.896 84.8C146.906 84.8786 146.847 84.9473 146.748 84.9572C146.758 84.9572 146.758 84.9572 146.748 84.9572Z" fill="white"/>
<path d="M147.672 84.8099C147.593 84.8099 147.534 84.751 147.525 84.6724C147.485 84.0832 147.22 83.5333 146.769 83.1405C146.317 82.7477 145.747 82.5513 145.158 82.5906C145.08 82.5906 145.011 82.5316 145.001 82.4531C144.991 82.3745 145.06 82.3058 145.138 82.296C145.806 82.2567 146.454 82.4727 146.965 82.9146C147.476 83.3565 147.77 83.9752 147.819 84.6429C147.829 84.7411 147.76 84.8099 147.672 84.8099C147.682 84.8099 147.682 84.8099 147.672 84.8099Z" fill="white"/>
<path d="M180.884 31.3203C181.448 31.3203 181.905 30.8631 181.905 30.299C181.905 29.735 181.448 29.2777 180.884 29.2777C180.32 29.2777 179.862 29.735 179.862 30.299C179.862 30.8631 180.32 31.3203 180.884 31.3203Z" stroke="#F6C850" stroke-width="0.491" stroke-miterlimit="10"/>
<path d="M185.056 31.3203C185.62 31.3203 186.078 30.8631 186.078 30.299C186.078 29.735 185.62 29.2777 185.056 29.2777C184.492 29.2777 184.035 29.735 184.035 30.299C184.035 30.8631 184.492 31.3203 185.056 31.3203Z" stroke="#F6C850" stroke-width="0.491" stroke-miterlimit="10"/>
<path d="M189.24 31.3203C189.804 31.3203 190.261 30.8631 190.261 30.299C190.261 29.735 189.804 29.2777 189.24 29.2777C188.676 29.2777 188.219 29.735 188.219 30.299C188.219 30.8631 188.676 31.3203 189.24 31.3203Z" stroke="#F6C850" stroke-width="0.491" stroke-miterlimit="10"/>
<path d="M150.421 77.0913H119.645C118.702 77.0913 117.946 76.3254 117.946 75.3925V58.9145C117.946 57.9718 118.712 57.2157 119.645 57.2157H150.421C151.364 57.2157 152.12 57.9816 152.12 58.9145V75.3925C152.12 76.3254 151.364 77.0913 150.421 77.0913Z" stroke="#88BFBF" stroke-width="0.5892" stroke-miterlimit="10"/>
<path d="M189.24 77.0913H158.464C157.522 77.0913 156.766 76.3254 156.766 75.3925V58.9145C156.766 57.9718 157.532 57.2157 158.464 57.2157H189.24C190.183 57.2157 190.939 57.9816 190.939 58.9145V75.3925C190.939 76.3254 190.183 77.0913 189.24 77.0913Z" fill="#88BFBF"/>
<path d="M183.427 77.0423H163.315C165.348 74.5382 168.451 72.9277 171.928 72.9277H174.815C178.291 72.9375 181.394 74.5382 183.427 77.0423Z" fill="#F69050"/>
<path d="M172.742 72.9375C172.546 74.4203 171.279 75.5594 169.747 75.5594C168.618 75.5594 167.636 74.9407 167.115 74.0275C168.569 73.3303 170.199 72.9375 171.917 72.9375H172.742Z" fill="white"/>
<path d="M178.684 73.6249C178.242 74.7542 177.152 75.5496 175.865 75.5496C174.333 75.5496 173.067 74.4105 172.87 72.9277H174.824C176.179 72.9375 177.476 73.1732 178.684 73.6249Z" fill="white"/>
<path d="M176.474 68.5578V73.0161C176.474 73.7133 175.079 74.273 173.371 74.273C173.056 74.273 172.752 74.2534 172.467 74.2239C171.191 74.0668 170.268 73.5856 170.268 73.0161V68.5578H176.474Z" fill="#A0505A"/>
<path d="M176.061 69.471C176.061 71.4056 174.372 73.7526 172.467 74.2141C171.191 74.057 170.268 73.5758 170.268 73.0062V68.5479H175.963L176.061 69.471Z" fill="#E0712C"/>
<path d="M178.065 67.9882V68.0962C178.065 68.8524 177.446 69.471 176.69 69.471H175.374C174.775 70.7575 173.469 71.6413 171.957 71.6413H171.701C170.012 71.6413 168.647 70.2763 168.647 68.5872V65.435C170.602 65.5627 173.086 63.854 173.086 63.854C173.901 67.0062 176.228 66.9669 177.309 66.7607C177.751 66.9866 178.065 67.4579 178.065 67.9882Z" fill="#A0505A"/>
<path d="M176.131 68.4694C176.052 68.4694 175.983 68.4006 175.983 68.3221C175.983 67.6936 176.494 67.183 177.123 67.183C177.201 67.183 177.27 67.2517 177.27 67.3303C177.27 67.4088 177.201 67.4776 177.123 67.4776C176.661 67.4776 176.278 67.8507 176.278 68.3221C176.278 68.4006 176.209 68.4694 176.131 68.4694Z" fill="#E0712C"/>
<path d="M176.473 69.471H176.69C177.446 69.471 178.064 68.8524 178.064 68.0962V67.9882C178.064 67.4481 177.76 66.9866 177.308 66.7607C177.014 66.8196 176.611 66.8589 176.179 66.8294C175.059 66.7411 173.675 66.1322 173.086 63.854C173.086 63.854 170.601 65.5627 168.647 65.435C168.284 65.4154 167.94 65.327 167.635 65.1502C166.015 64.2271 169.933 59.9063 174.431 60.5545C178.025 61.0749 177.947 65.3761 177.878 66.3974C178.055 66.3777 178.231 66.3679 178.408 66.3679C181.04 66.3679 183.171 68.3908 183.171 70.8949C183.171 72.525 182.267 73.9588 180.902 74.7542C179.596 73.89 178.094 73.3008 176.473 73.0553V69.471Z" fill="#F6C850"/>
<path d="M170.631 68.5774C170.611 68.5774 170.592 68.5774 170.582 68.5676C170.503 68.5381 170.464 68.4497 170.493 68.381C170.493 68.3712 170.788 67.5757 170.297 66.7214C169.875 65.9849 168.942 66.1126 168.903 66.1224C168.824 66.1322 168.745 66.0831 168.736 65.9947C168.726 65.9162 168.775 65.8376 168.863 65.8278C168.912 65.818 170.032 65.6608 170.562 66.5741C171.122 67.5463 170.788 68.4497 170.778 68.4792C170.739 68.5381 170.69 68.5774 170.631 68.5774Z" fill="#E0712C"/>
<path d="M173.98 66.7116C173.951 66.7116 173.921 66.7018 173.892 66.6821C173.037 66.0242 171.898 66.1027 171.889 66.1027C171.81 66.1126 171.741 66.0438 171.731 65.9653C171.722 65.8867 171.79 65.818 171.869 65.8081C171.918 65.8081 173.126 65.7198 174.069 66.4464C174.137 66.4955 174.147 66.5839 174.098 66.6527C174.059 66.6919 174.019 66.7116 173.98 66.7116Z" fill="#E0712C"/>
<path d="M170.121 68.9113C170.121 68.9113 170.357 70.4628 171.957 68.9506C171.957 68.9506 170.838 69.0979 170.121 68.9113Z" fill="white"/>
<path d="M172.586 67.6052C172.7 67.6052 172.792 67.3986 172.792 67.1437C172.792 66.8888 172.7 66.6821 172.586 66.6821C172.472 66.6821 172.38 66.8888 172.38 67.1437C172.38 67.3986 172.472 67.6052 172.586 67.6052Z" fill="#E0712C"/>
<path d="M169.521 67.5267C169.619 67.5267 169.698 67.3552 169.698 67.1437C169.698 66.9322 169.619 66.7607 169.521 66.7607C169.424 66.7607 169.345 66.9322 169.345 67.1437C169.345 67.3552 169.424 67.5267 169.521 67.5267Z" fill="#E0712C"/>
<path d="M188.857 54.5741H158.081C157.138 54.5741 156.382 53.8081 156.382 52.8752V36.3973C156.382 35.4545 157.148 34.6984 158.081 34.6984H188.857C189.799 34.6984 190.555 35.4644 190.555 36.3973V52.8752C190.555 53.8081 189.789 54.5741 188.857 54.5741Z" fill="#88BFBF"/>
<path d="M182.591 54.5741H163.806C165.701 52.0503 168.598 50.4398 171.848 50.4398H174.549C177.799 50.4398 180.696 52.0503 182.591 54.5741Z" fill="#F6C850"/>
<path d="M172.202 53.7296H172.624C174.461 53.7296 175.953 52.2369 175.953 50.4006V48.034C175.953 48.0241 175.944 48.0143 175.934 48.0143H169.757C169.747 48.0143 169.737 48.0241 169.737 48.034V51.2844C169.747 52.6395 170.847 53.7296 172.202 53.7296Z" fill="white"/>
<path d="M169.747 48.0143V51.2058C169.747 51.2451 169.747 51.2942 169.747 51.3335C169.835 53.16 174.382 52.4431 175.747 48.0143H169.747Z" fill="#F6C850"/>
<path d="M177.751 46.5904C177.751 46.9832 177.593 47.3368 177.328 47.6019C177.073 47.8572 176.72 48.0143 176.317 48.0143H174.972C174.49 49.2909 173.253 50.1944 171.81 50.1944H170.759C169.296 50.1944 168.117 49.0062 168.117 47.5528V43.4284C169.629 43.5561 170.906 42.3384 170.955 42.2893C170.936 42.358 170.17 44.5184 171.908 44.6363C173.636 44.7541 174.206 43.507 174.225 43.4579C174.225 43.507 174.235 45.1764 175.6 45.2647H176.317C177.112 45.2647 177.751 45.8048 177.751 46.5904Z" fill="white"/>
<path d="M175.728 45.2647H175.698C175.669 45.2647 175.639 45.2647 175.61 45.2647C174.245 45.1763 174.235 43.5168 174.235 43.4578C174.215 43.5069 173.636 44.7541 171.917 44.6362C170.189 44.5184 170.945 42.358 170.965 42.2893C170.916 42.3285 169.639 43.556 168.127 43.4284C167.793 43.3989 167.459 43.3105 167.115 43.124C164.906 41.9259 166.33 39.4611 168.5 39.4316C170.228 39.412 170.965 40.3547 170.965 40.3547C170.965 40.3547 171.338 38.4202 173.459 38.7541C175.58 39.0879 175.197 40.9636 175.197 40.9636C175.197 40.9636 176.975 40.1387 177.957 41.6608C179.115 43.448 177.377 45.2647 175.728 45.2647Z" fill="#F69050"/>
<path d="M169.924 47.0618C169.914 47.0618 169.904 47.0618 169.885 47.0618C169.806 47.0421 169.757 46.9636 169.777 46.885C169.777 46.8752 170.012 45.903 169.59 45.1076C169.128 44.2631 168.333 44.4006 168.304 44.4006C168.225 44.4104 168.146 44.3613 168.137 44.2827C168.117 44.2042 168.176 44.1256 168.254 44.1158C168.264 44.1158 169.295 43.9292 169.855 44.9701C170.336 45.8637 170.081 46.9145 170.071 46.9538C170.042 47.0127 169.983 47.0618 169.924 47.0618Z" fill="#F6C850"/>
<path d="M170.444 48.2009C170.238 48.2009 170.052 48.1714 169.914 48.1321C169.836 48.1125 169.786 48.0339 169.806 47.9554C169.826 47.8768 169.904 47.8277 169.983 47.8474C170.032 47.8572 171.151 48.1518 171.564 47.2876C171.603 47.2189 171.682 47.1796 171.76 47.2189C171.839 47.2582 171.868 47.3367 171.829 47.4153C171.544 48.0339 170.945 48.2009 170.444 48.2009Z" fill="#F6C850"/>
<path d="M171.867 45.8834C171.981 45.8834 172.074 45.6768 172.074 45.4219C172.074 45.167 171.981 44.9603 171.867 44.9603C171.753 44.9603 171.661 45.167 171.661 45.4219C171.661 45.6768 171.753 45.8834 171.867 45.8834Z" fill="#F6C850"/>
<path d="M168.814 45.8048C168.912 45.8048 168.991 45.6333 168.991 45.4218C168.991 45.2103 168.912 45.0388 168.814 45.0388C168.717 45.0388 168.638 45.2103 168.638 45.4218C168.638 45.6333 168.717 45.8048 168.814 45.8048Z" fill="#F6C850"/>
<path d="M175.58 47.1305C175.501 47.1305 175.433 47.0618 175.433 46.9832C175.433 46.3548 175.943 45.8441 176.572 45.8441C176.65 45.8441 176.719 45.9129 176.719 45.9914C176.719 46.07 176.65 46.1387 176.572 46.1387C176.11 46.1387 175.727 46.5119 175.727 46.9832C175.727 47.0618 175.658 47.1305 175.58 47.1305Z" fill="#F6C850"/>
<path d="M150.028 54.5741H119.253C118.31 54.5741 117.554 53.8081 117.554 52.8752V36.3973C117.554 35.4545 118.32 34.6984 119.253 34.6984H150.028C150.971 34.6984 151.727 35.4644 151.727 36.3973V52.8752C151.737 53.8081 150.971 54.5741 150.028 54.5741Z" fill="#F6C850"/>
<path d="M142.595 54.5741H123.505C125.43 51.6968 128.376 49.8605 131.675 49.8605H134.425C137.724 49.8605 140.66 51.6968 142.595 54.5741Z" fill="white"/>
<path d="M142.596 54.5741H123.506C123.565 54.4857 123.624 54.4072 123.683 54.3188C123.692 54.2991 123.702 54.2795 123.722 54.2697H142.39C142.4 54.2893 142.409 54.2991 142.429 54.3188C142.478 54.3973 142.537 54.4857 142.596 54.5741Z" fill="#FEB040"/>
<path d="M141.79 53.5037H124.311C124.399 53.3957 124.487 53.2975 124.576 53.1993H141.525C141.613 53.2975 141.702 53.3957 141.79 53.5037Z" fill="#FEB040"/>
<path d="M140.711 52.3843H125.392C125.509 52.2762 125.627 52.178 125.745 52.0798H140.357C140.475 52.178 140.593 52.2762 140.711 52.3843Z" fill="#FEB040"/>
<path d="M139.061 51.1567H127.031C127.208 51.0487 127.395 50.9505 127.581 50.8523H138.501C138.697 50.9505 138.874 51.0487 139.061 51.1567Z" fill="#FEB040"/>
<path d="M136.094 46.1878V50.5773C136.094 51.0291 134.699 51.3924 132.991 51.3924C131.321 51.3924 129.956 51.0487 129.888 50.6068C129.888 50.597 129.888 50.5872 129.888 50.5773V46.1878H136.094Z" fill="#F5E4D4"/>
<path d="M136.055 46.1878V46.286C136.055 48.4464 133.374 50.921 131.439 51.2058C131.135 51.2549 130.192 51.0683 129.897 50.597C129.897 50.5872 129.897 50.5773 129.897 50.5675V46.178H136.055V46.1878Z" fill="#626A7F"/>
<path d="M137.783 44.8032V44.9014C137.783 45.6575 137.164 46.2762 136.408 46.2762H135.22C134.837 47.651 133.58 48.6526 132.088 48.6526H130.821C129.417 48.6526 128.268 47.5135 128.268 46.0994V40.5118C130.624 41.1698 134.837 40.5511 134.837 40.5511C134.837 40.5511 134.454 41.9259 135.181 43.4186H136.418C137.164 43.4284 137.783 44.047 137.783 44.8032Z" fill="#F5E4D4"/>
<path d="M136.359 43.2516H135.24C134.287 41.6412 134.828 40.5708 134.828 40.5708C134.828 40.5708 130.615 41.1796 128.258 40.5315C127.188 40.2369 126.5 39.6772 126.755 38.6853C127.571 35.5037 136.35 38.8916 136.958 40.0405C137.577 41.1894 136.359 43.2516 136.359 43.2516Z" fill="white" stroke="#FEB040" stroke-width="0.3928" stroke-miterlimit="10"/>
<path d="M131.999 46.2663C131.97 46.2958 131.94 46.3056 131.901 46.3056C131.862 46.3056 131.823 46.286 131.793 46.2565L131.656 46.1092C131.233 46.4824 130.831 46.669 130.458 46.669C130.418 46.669 130.379 46.669 130.35 46.6591C129.937 46.6199 129.731 46.3449 129.721 46.3351C129.672 46.2663 129.682 46.178 129.751 46.1289C129.819 46.0798 129.908 46.0896 129.957 46.1583C129.967 46.1681 130.104 46.3449 130.389 46.3744C130.703 46.4038 131.066 46.2369 131.459 45.8932L131.381 45.8048C131.322 45.7459 131.332 45.6477 131.391 45.5986C131.449 45.5397 131.548 45.5495 131.597 45.6084L132.009 46.0601C132.068 46.119 132.058 46.2074 131.999 46.2663Z" fill="#626A7F"/>
<path d="M133.492 43.34C133.453 43.34 133.414 43.3302 133.384 43.3007C132.52 42.4562 131.42 42.6231 131.41 42.6231C131.332 42.6329 131.253 42.5839 131.243 42.5053C131.234 42.4267 131.283 42.3482 131.361 42.3384C131.41 42.3285 132.618 42.1321 133.59 43.0945C133.649 43.1534 133.649 43.2418 133.59 43.3007C133.571 43.3302 133.532 43.34 133.492 43.34Z" fill="#626A7F"/>
<path d="M130.144 45.4022C130.134 45.4022 130.114 45.4022 130.104 45.3924C130.026 45.3727 129.987 45.2843 130.006 45.2058C130.006 45.196 130.311 44.1943 129.82 43.34C129.397 42.6035 128.445 42.8293 128.435 42.8392C128.356 42.8588 128.278 42.8097 128.258 42.7311C128.239 42.6526 128.288 42.574 128.366 42.5544C128.769 42.4562 129.653 42.4562 130.075 43.2025C130.635 44.1747 130.311 45.2549 130.291 45.304C130.262 45.3629 130.212 45.4022 130.144 45.4022Z" fill="#626A7F"/>
<path d="M129.044 44.2533C129.142 44.2533 129.221 44.0818 129.221 43.8703C129.221 43.6588 129.142 43.4873 129.044 43.4873C128.946 43.4873 128.867 43.6588 128.867 43.8703C128.867 44.0818 128.946 44.2533 129.044 44.2533Z" fill="#626A7F"/>
<path d="M132.098 44.3318C132.212 44.3318 132.304 44.1252 132.304 43.8703C132.304 43.6154 132.212 43.4087 132.098 43.4087C131.984 43.4087 131.892 43.6154 131.892 43.8703C131.892 44.1252 131.984 44.3318 132.098 44.3318Z" fill="#626A7F"/>
<path d="M135.643 45.304C135.565 45.304 135.496 45.2352 135.496 45.1567C135.496 44.5184 136.017 43.9979 136.655 43.9979C136.733 43.9979 136.802 44.0667 136.802 44.1452C136.802 44.2238 136.733 44.2925 136.655 44.2925C136.174 44.2925 135.791 44.6755 135.791 45.1567C135.791 45.2352 135.732 45.304 135.643 45.304Z" fill="#626A7F"/>
<path d="M186.195 230.558C185.93 230.48 185.783 230.44 185.783 230.44L182.572 240.958L170.483 237.786C170.385 237.697 170.336 237.648 170.336 237.648C170.336 237.648 121.383 199.282 118.811 180.869C116.248 162.457 136.752 144.987 136.752 144.987C136.752 144.987 180.48 227.642 185.891 230.342C185.999 230.401 186.107 230.47 186.195 230.558Z" fill="#A0505A"/>
<path d="M147.102 164.322C145.57 172.522 140.189 189.128 134.621 205.193C126.372 196.306 119.714 187.34 118.811 180.859C117.181 169.193 124.831 157.89 130.644 151.193C132.775 149.484 135.073 147.913 137.557 146.509C139.079 149.367 142.605 155.985 147.102 164.322Z" fill="#E0712C"/>
<path d="M213.672 237.639L195.691 249.177L190.477 248.391L185.675 251.436L187.226 254.617L179.321 259.694C168.843 250.159 170.326 237.756 170.326 237.756L182.562 240.967L185.773 230.45C185.773 230.45 196.762 233.661 204.873 233.386C213.004 233.111 213.672 237.639 213.672 237.639Z" fill="white" stroke="#F69050" stroke-width="0.5892" stroke-miterlimit="10"/>
<path d="M193.236 231.855C193.236 231.855 192.48 223.861 190.585 224.362C188.69 224.873 191.066 232.846 193.197 231.972C195.328 231.098 197.459 225.432 197.459 225.432" stroke="#F69050" stroke-width="0.5892" stroke-miterlimit="10"/>
<path d="M172.202 249.167L184.251 249.354L190.232 245.779L195.908 246.693L212.926 236.067" stroke="#F69050" stroke-width="0.5892" stroke-miterlimit="10"/>
<path d="M190.742 231.403L189.622 236.617" stroke="#F69050" stroke-width="0.5892" stroke-miterlimit="10"/>
<path d="M193.177 231.992L192.058 237.206" stroke="#F69050" stroke-width="0.5892" stroke-miterlimit="10"/>
<path d="M195.721 232.414L194.602 237.629" stroke="#F69050" stroke-width="0.5892" stroke-miterlimit="10"/>
<path d="M132.598 140.97C132.598 140.97 139.796 144.329 139.796 156.643C139.796 168.545 112.32 241.429 112.32 241.429L103.865 248.598L95.2822 239.2C99.4754 235.213 87.436 163.134 132.598 140.97Z" fill="#A0505A"/>
<path d="M131.832 262.562L110.464 262.581L106.497 259.105L100.811 259.076L100.398 262.591L92.0219 262.601C87.4655 248.421 95.3215 239.19 95.3215 239.19L103.845 248.578L112.359 241.419C112.359 241.419 119.744 250.08 126.716 254.224C133.708 258.378 131.832 262.562 131.832 262.562Z" fill="white" stroke="#F69050" stroke-width="0.5892" stroke-miterlimit="10"/>
<path d="M117.229 246.467C117.229 246.467 125.616 241.056 123.229 238.984C120.843 236.912 116.041 245.907 117.347 246.624C118.653 247.341 127.698 244.621 127.698 244.621" stroke="#F69050" stroke-width="0.5892" stroke-miterlimit="10"/>
<path d="M90.8926 250.061L100.919 256.385H107.881L112.29 260.087H131.999" stroke="#F69050" stroke-width="0.5892" stroke-miterlimit="10"/>
<path d="M115.364 244.424L111.593 248.195" stroke="#F69050" stroke-width="0.5892" stroke-miterlimit="10"/>
<path d="M117.092 246.241L113.321 250.012" stroke="#F69050" stroke-width="0.5892" stroke-miterlimit="10"/>
<path d="M118.997 247.969L115.227 251.74" stroke="#F69050" stroke-width="0.5892" stroke-miterlimit="10"/>
<path d="M132.598 140.97C115.619 149.298 106.722 164.696 102.018 180.869H50.4929C37.3046 180.869 27.4748 168.702 30.2538 155.808L34.0345 138.25H123.622C126.942 138.25 130.025 139.252 132.598 140.97Z" fill="#F69050"/>
<path d="M94.3389 157.802L112.889 157.763L110.139 162.27L94.3389 157.802Z" fill="#A0505A"/>
<path d="M132.696 140.872C124.251 145.016 117.809 150.908 112.879 157.772H65.871C57.3964 157.772 51.0723 149.985 52.8006 141.687L53.5175 138.25" stroke="white" stroke-width="0.5892" stroke-miterlimit="10" stroke-linecap="round"/>
<path d="M102.087 180.859C103.962 174.408 106.496 168.074 109.943 162.27L94.3389 157.792" stroke="white" stroke-width="0.5892" stroke-miterlimit="10" stroke-linecap="round"/>
<path d="M21.9957 91.0848L31.4327 128.106H13.8254C3.57334 128.106 -3.0257 117.216 1.72718 108.132L15.2493 82.2763C19.0791 74.9604 26.6503 70.3745 34.909 70.3745H38.1005C27.2592 70.3646 19.3148 80.5774 21.9957 91.0848Z" fill="#88BFBF"/>
<path d="M130.664 81.4809C136.212 81.4809 140.827 80.7444 141.947 79.7133L124.733 117.029C121.62 123.785 114.854 128.106 107.42 128.106C105.24 128.106 103.099 127.733 101.076 127.016C99.0532 126.299 97.1481 125.249 95.4493 123.874L84.5982 115.114C84.5982 115.114 83.518 121.468 75.8093 123.088V138.231H34.0252L21.9957 91.075C19.3148 80.5676 27.2592 70.345 38.1005 70.345H67.3543C69.9369 70.345 72.4803 70.6691 74.9353 71.2975C81.6522 73.0062 87.6817 76.9539 91.9435 82.6102L106.241 101.582L119.086 79.1339C119.086 79.1535 119.076 79.183 119.076 79.2026C119.086 80.5087 124.281 81.4809 130.664 81.4809Z" fill="#88BFBF"/>
<path d="M21.8975 91.0848L31.1381 128.401" stroke="white" stroke-width="0.5892" stroke-miterlimit="10" stroke-linecap="round"/>
<path d="M84.6958 115.615L76.4863 106.875" stroke="white" stroke-width="0.5892" stroke-miterlimit="10" stroke-linecap="round"/>
<path d="M142.202 79.1633L141.947 79.7133C140.827 80.7542 136.212 81.4809 130.664 81.4809C124.281 81.4809 119.086 80.5087 119.086 79.2223C119.086 79.2026 119.086 79.1732 119.096 79.1535C119.273 77.8966 124.399 76.8164 130.674 76.8164C136.939 76.8164 142.025 77.8966 142.202 79.1633C142.202 79.1535 142.202 79.1535 142.202 79.1633Z" fill="#F69050"/>
<path d="M147.348 60.309C147.348 60.8687 147.21 61.4186 146.955 61.8998C146.7 62.381 146.327 62.8033 145.865 63.1273L145.639 63.2844L143.881 72.6625C143.597 74.1846 142.693 75.53 141.387 76.3647L138.981 77.8966L137.076 79.1143L136.192 81.2256C134.552 81.3925 132.677 81.4907 130.674 81.4907C128.651 81.4907 126.746 81.3925 125.086 81.2158V66.6723C125.086 66.0439 125.223 65.4252 125.489 64.8556L128.69 57.962C128.69 57.962 132.186 58.8262 130.575 63.1175C129.112 67.0161 132.451 66.0144 134.327 65.3172C136.006 64.6887 143.341 60.9571 146.209 59.5921C146.739 59.3368 147.348 59.7296 147.348 60.309Z" fill="#A0505A"/>
<path d="M144.284 69.0979C143.999 70.62 143.096 71.9555 141.79 72.7902L137.479 75.5398" stroke="#E0712C" stroke-width="0.491" stroke-miterlimit="10" stroke-linecap="round"/>
<path d="M144.991 65.1208C144.706 66.6429 143.803 67.9784 142.497 68.8131L138.186 71.5627" stroke="#E0712C" stroke-width="0.491" stroke-miterlimit="10" stroke-linecap="round"/>
<path d="M145.325 63.3925L138.392 67.7918" stroke="#E0712C" stroke-width="0.491" stroke-miterlimit="10" stroke-linecap="round"/>
<path d="M139.354 77.6511L138.971 77.8966L137.066 79.1143L136.183 81.2256C134.543 81.3925 132.667 81.4907 130.664 81.4907C128.641 81.4907 126.736 81.3925 125.076 81.2158V77.1307C126.736 76.9343 128.641 76.8262 130.664 76.8262C134.13 76.8164 137.233 77.1405 139.354 77.6511Z" fill="#E0712C"/>
<path d="M74.0222 71.0717C72.5983 72.9866 67.2956 77.494 49.4428 77.494C26.4738 77.494 41.1743 70.3843 41.1743 70.3843L50.9158 54.1126L61.3643 60.525V65.6805C61.3643 68.2828 63.4756 70.3843 66.068 70.3843H66.7456C69.181 70.3745 71.6949 70.4825 74.0222 71.0717Z" fill="#A0505A"/>
<path d="M61.354 60.5152V61.8311L41.1641 70.3745L50.9055 54.1028L61.354 60.5152Z" fill="#E0712C"/>
<path d="M61.9039 61.1535H64.1232C66.1657 61.1535 67.8253 59.4939 67.8253 57.4514V45.088H54.5781V53.8278C54.5781 57.8736 57.858 61.1535 61.9039 61.1535Z" fill="#A0505A"/>
<path d="M67.5413 56.7345C66.1174 56.7345 65.5479 55.7525 65.5479 55.7525" stroke="#E0712C" stroke-width="0.491" stroke-miterlimit="10" stroke-linecap="round"/>
<path d="M66.2546 52.777C66.5149 52.777 66.7259 52.3682 66.7259 51.8638C66.7259 51.3594 66.5149 50.9505 66.2546 50.9505C65.9942 50.9505 65.7832 51.3594 65.7832 51.8638C65.7832 52.3682 65.9942 52.777 66.2546 52.777Z" fill="#E0712C"/>
<path d="M57.1024 46.3744C57.1024 46.3744 68.0321 52.9734 71.5869 47.2287C74.7097 42.1911 60.8733 39.5986 56.0419 39.5789C50.7882 39.5593 43.8258 41.8867 43.9436 49.615C44.0418 55.9784 44.307 65.2877 40.5361 63.6674C27.122 57.9129 15.2005 63.9227 15.1612 75.3728C15.1219 86.823 28.4084 87.8934 28.7423 84.9375C29.086 81.9915 20.4935 82.6691 21.6522 90.3189C22.8012 97.9687 27.9272 107.533 39.6327 107.533C53.7735 107.543 62.7784 88.9245 54.0288 87.0292C47.3217 85.5758 60.8635 98.5186 64.8799 85.0652C69.2007 70.5807 53.5869 65.8376 53.2039 57.088C52.8209 48.3384 57.1024 46.3744 57.1024 46.3744Z" fill="#F6C850" stroke="white" stroke-width="0.491" stroke-miterlimit="10"/>
<path d="M56.3359 51.6281H64.1527" stroke="#F69050" stroke-width="0.5892" stroke-miterlimit="10"/>
<path d="M66.5592 54.7705C67.7849 54.7705 68.7785 53.4955 68.7785 51.9227C68.7785 50.3499 67.7849 49.0749 66.5592 49.0749C65.3335 49.0749 64.3398 50.3499 64.3398 51.9227C64.3398 53.4955 65.3335 54.7705 66.5592 54.7705Z" stroke="#F69050" stroke-width="0.5892" stroke-miterlimit="10"/>
<path d="M52.1934 48.1224V39.8539C52.1934 38.6166 53.195 37.6052 54.4421 37.6052H56.8971C58.1345 37.6052 59.1459 38.6068 59.1459 39.8539" stroke="#88BFBF" stroke-width="0.5892" stroke-miterlimit="10"/>
<path d="M54.5598 57.2255H49.8363C48.6285 57.2255 47.6465 56.2435 47.6465 55.0357V50.3122C47.6465 49.1044 48.6285 48.1224 49.8363 48.1224H54.5598C55.7676 48.1224 56.7496 49.1044 56.7496 50.3122V55.0357C56.7398 56.2435 55.7676 57.2255 54.5598 57.2255Z" fill="white" stroke="#88BFBF" stroke-width="0.5892" stroke-miterlimit="10"/>
<path d="M53.3324 55.6641H51.0247C50.0328 55.6641 49.2178 54.8589 49.2178 53.8573V51.5496C49.2178 50.5577 50.023 49.7427 51.0247 49.7427H53.3324C54.3242 49.7427 55.1392 50.5479 55.1392 51.5496V53.8573C55.1392 54.8589 54.334 55.6641 53.3324 55.6641Z" fill="white" stroke="#88BFBF" stroke-width="0.5892" stroke-miterlimit="10"/>
<path d="M54.2454 49.9783L50.1406 55.4383" stroke="#88BFBF" stroke-width="0.5892" stroke-miterlimit="10"/>
<path d="M52.8908 49.7918L49.3359 54.5054" stroke="#88BFBF" stroke-width="0.5892" stroke-miterlimit="10"/>
<path d="M55.0412 50.9505L51.4863 55.6641" stroke="#88BFBF" stroke-width="0.5892" stroke-miterlimit="10"/>
<path d="M55.1393 52.7083L52.9102 55.6641" stroke="#88BFBF" stroke-width="0.5892" stroke-miterlimit="10"/>
<path d="M51.4469 49.7918L49.2275 52.728" stroke="#88BFBF" stroke-width="0.5892" stroke-miterlimit="10"/>
<path d="M48.696 186.457V191.868C48.696 194.48 46.5748 196.601 43.9627 196.601H31.8252" stroke="#88BFBF" stroke-width="0.5892" stroke-miterlimit="10"/>
<path d="M53.2236 186.516V236.156" stroke="#88BFBF" stroke-width="0.5892" stroke-miterlimit="10"/>
<path d="M31.2461 252.074C31.2461 243.285 39.9761 236.156 50.7388 236.156H55.6292C66.3919 236.156 75.1219 243.285 75.1219 252.074" stroke="#88BFBF" stroke-width="0.5892" stroke-miterlimit="10"/>
<path d="M100.448 187.272H29.1549C25.5804 187.272 22.6934 184.375 22.6934 180.81H102.137L100.448 187.272Z" fill="#F6C850"/>
<path d="M30.8143 262.601C33.7213 262.601 36.0778 260.244 36.0778 257.337C36.0778 254.43 33.7213 252.074 30.8143 252.074C27.9073 252.074 25.5508 254.43 25.5508 257.337C25.5508 260.244 27.9073 262.601 30.8143 262.601Z" fill="#F6C850"/>
<path d="M28.1327 197.946H38.699C39.5631 197.946 40.2604 197.249 40.2604 196.385V196.267C40.2604 195.403 39.5631 194.706 38.699 194.706H28.1327C27.2685 194.706 26.5713 195.403 26.5713 196.267V196.385C26.5713 197.249 27.2685 197.946 28.1327 197.946Z" fill="#F6C850"/>
<path d="M22.6926 181.007H73.2754L56.3555 133.596C55.1771 130.306 52.0642 128.106 48.5683 128.106H11.3799C7.68761 128.106 5.11476 131.759 6.35208 135.236L22.6926 181.007Z" stroke="#F6C850" stroke-width="0.5892" stroke-miterlimit="10"/>
<path d="M25.1968 181.007H69.1707L52.8204 135.167C51.6813 131.985 48.6764 129.864 45.2983 129.864H7.64844" stroke="#F6C850" stroke-width="0.5892" stroke-miterlimit="10"/>
<path d="M75.033 262.601C77.94 262.601 80.2966 260.244 80.2966 257.337C80.2966 254.43 77.94 252.074 75.033 252.074C72.1261 252.074 69.7695 254.43 69.7695 257.337C69.7695 260.244 72.1261 262.601 75.033 262.601Z" fill="#F6C850"/>
</svg>
