<svg width="149" height="243" viewBox="0 0 149 243" fill="none" xmlns="http://www.w3.org/2000/svg">
<path fill-rule="evenodd" clip-rule="evenodd" d="M78.1593 54.7195C78.4837 45.8617 78.9375 15.9763 78.1514 0.148801L81.1478 0C81.9415 15.9835 81.4813 46.051 81.1553 54.8826C81.5906 56.8741 83.0162 58.7228 85.1825 60.5793C87.1223 62.2416 89.4795 63.7674 91.9008 65.3348C92.2503 65.561 92.6012 65.7882 92.9524 66.0167C94.2487 66.8603 96.3159 67.7145 98.9617 68.8078C99.4997 69.0301 100.062 69.2622 100.646 69.5062C104.006 70.9098 107.922 72.6393 111.625 74.9912C119.074 79.723 125.781 87.0681 125.551 99.436C125.361 109.621 121.817 118.812 117.255 126.647L117.317 126.683C117.143 126.985 116.913 127.33 116.625 127.709C115.979 128.78 115.315 129.825 114.64 130.842C111.756 135.188 108.638 139.071 105.774 142.396L105.837 142.466C105.663 142.623 105.487 142.778 105.311 142.93C103.674 144.815 102.13 146.512 100.773 148.003C99.924 148.937 99.148 149.79 98.4684 150.558C90.0449 160.075 83.1694 165.839 77.1028 169.432C71.0098 173.04 65.7989 174.417 60.7893 175.252C50.3589 176.991 41.7326 171.31 36.8481 167.593L36.8188 167.571C36.7917 167.551 36.7538 167.523 36.7057 167.487C36.6096 167.414 36.4726 167.308 36.3003 167.17C35.9558 166.894 35.4693 166.488 34.8845 165.959C33.7161 164.902 32.1485 163.345 30.5352 161.33C28.9232 159.317 27.2516 156.829 25.891 153.912L25.7166 153.923C25.7089 153.791 25.7047 153.651 25.7047 153.506C24.4394 150.696 23.4705 147.5 23.1164 143.959C22.8 140.795 23.134 137.201 24.0545 133.355L24.0318 133.349C24.07 133.212 24.1127 133.069 24.1602 132.923C25.1223 129.068 26.6659 124.969 28.7275 120.803C30.4827 117.257 32.6252 113.638 35.1314 110.049L35.0115 109.962C35.334 109.518 35.7331 109.046 36.1944 108.559C39.4961 104.027 43.3761 99.5663 47.7866 95.388C55.9532 87.6511 63.001 79.0715 68.3017 71.5779C73.5158 64.2066 76.9628 57.9946 78.1593 54.7195ZM79.6231 58.8516C77.7957 62.5826 74.7381 67.6736 70.7509 73.3104C70.6415 73.465 70.5314 73.6201 70.4205 73.7756C72.2367 73.0875 74.0916 72.5522 75.863 72.041C76.4934 71.8591 77.1132 71.6802 77.7169 71.4986C81.7913 70.2729 85.2339 68.9183 87.5163 66.0477C86.0112 65.0346 84.5362 63.9763 83.2304 62.8572C81.8406 61.6662 80.5652 60.3439 79.6231 58.8516ZM90.0323 67.6994C87.112 71.5235 82.7507 73.1171 78.5812 74.3714C77.9191 74.5706 77.2626 74.7615 76.614 74.9501C72.7201 76.0826 69.107 77.1334 66.2295 79.4027C65.3112 80.5841 64.3582 81.7786 63.3724 82.9799C64.159 82.6586 64.8825 82.3856 65.4774 82.1786C67.2148 81.5738 69.2691 81.2896 71.3822 81.0566C71.9217 80.9971 72.4669 80.9408 73.0182 80.8838C74.6811 80.712 76.3999 80.5345 78.1856 80.2469C81.4662 79.7185 84.2595 79.127 87.2811 77.6663C89.9538 76.3743 92.8723 74.3683 96.4546 71.0178C94.4015 70.1607 92.5783 69.3526 91.316 68.5311C90.9759 68.3098 90.631 68.0867 90.2831 67.8616C90.1996 67.8076 90.116 67.7536 90.0323 67.6994ZM99.4862 72.273C95.3124 76.3198 91.8603 78.7849 88.5868 80.3673C85.1666 82.0206 82.0278 82.6667 78.6626 83.2087C76.7845 83.5112 74.9454 83.7011 73.2647 83.8746C72.7295 83.9299 72.2103 83.9835 71.711 84.0385C69.5905 84.2724 67.845 84.531 66.4635 85.0118C65.3586 85.3964 63.7261 86.0455 62.1108 86.8123C60.4716 87.5905 58.9578 88.4399 58.0172 89.208L58.0115 89.201C56.761 90.5822 55.4719 91.9587 54.1471 93.3212C55.5095 92.6256 56.6838 92.1001 57.453 91.8672C60.6179 90.9091 64.3917 90.5195 67.9847 90.3163C69.772 90.2152 71.5424 90.1591 73.1937 90.1068L73.2467 90.1051C74.9227 90.052 76.4644 90.0026 77.8148 89.9148C78.4214 89.8753 79.1396 89.8405 79.9452 89.8015C83.1774 89.6449 87.8167 89.4202 92.3049 88.5519C95.0979 88.0116 97.7357 87.2371 99.8628 86.1256C101.99 85.0139 103.487 83.6297 104.216 81.9212C104.664 80.8687 105.238 77.8547 104.819 74.6511C102.997 73.7648 101.193 72.986 99.4896 72.2745C99.4884 72.274 99.4873 72.2735 99.4862 72.273ZM107.954 76.2902C108.041 79.1842 107.535 81.785 106.975 83.098C105.88 85.666 103.739 87.485 101.252 88.7845C98.7649 90.0842 95.8119 90.929 92.8747 91.4973C88.1464 92.412 83.2085 92.6493 79.9897 92.804C79.2236 92.8408 78.5549 92.873 78.0096 92.9085C76.5996 93.0002 75.0047 93.051 73.3417 93.1036L73.303 93.1049C71.6422 93.1575 69.9036 93.2125 68.1541 93.3115C64.6082 93.5121 61.1301 93.8885 58.3223 94.7385C57.3076 95.0457 54.8556 96.2573 52.0653 97.8885C49.7075 99.2668 47.2562 100.858 45.4358 102.279C46.5932 101.823 47.7748 101.485 48.9385 101.325C55.3836 100.436 68.9849 100.617 80.2267 100.877C85.7528 101.005 92.7146 100.341 98.7581 98.9917C101.779 98.3173 104.527 97.4811 106.732 96.5099C108.978 95.5205 110.483 94.4671 111.225 93.4554C113.729 90.043 113.999 85.3668 111.051 78.3113L111.15 78.27C110.776 78.0145 110.397 77.7658 110.016 77.5235C109.336 77.0918 108.647 76.6815 107.954 76.2902ZM115.392 81.6943C116.836 87.0971 116.331 91.5684 113.644 95.2302C112.432 96.8826 110.341 98.1981 107.941 99.2553C105.5 100.331 102.55 101.219 99.4118 101.92C93.1365 103.32 85.932 104.009 80.1573 103.876C68.8056 103.613 55.4964 103.449 49.3484 104.296C47.148 104.6 44.6449 105.777 42.3903 107.289C40.8311 108.334 39.4783 109.48 38.502 110.487C38.002 111.176 37.516 111.867 37.0442 112.559C39.7459 111.429 43.2329 110.52 47.3738 110.43C49.9583 110.374 54.4306 110.68 59.7467 111.058C60.0734 111.081 60.4036 111.105 60.7371 111.128C65.8727 111.494 71.7882 111.915 77.7423 112.169C84.0873 112.439 90.4362 112.518 95.8933 112.144C101.416 111.765 105.789 110.933 108.348 109.529C114.266 106.282 117.05 102.959 118.253 99.2167C119.488 95.3753 119.151 90.8472 118.23 84.9353C117.375 83.7639 116.42 82.6876 115.392 81.6943ZM122.055 93.6258C122.039 95.9207 121.768 98.0862 121.109 100.135C119.598 104.833 116.14 108.676 109.791 112.159C106.61 113.905 101.653 114.756 96.0987 115.137C90.4784 115.523 84.0017 115.439 77.6144 115.166C71.616 114.91 65.6611 114.486 60.5319 114.121C60.1957 114.098 59.8631 114.074 59.5342 114.05C54.1459 113.668 49.8484 113.377 47.4391 113.429C39.9336 113.593 35.0101 116.726 33.5457 118.142C32.7801 119.481 32.0698 120.813 31.4162 122.134C30.868 123.242 30.3608 124.339 29.895 125.421C32.5255 123.594 36.1603 122.234 41.0857 122.155C44.5327 122.099 49.7019 122.441 55.6192 122.881C56.8341 122.972 58.0824 123.067 59.357 123.164C64.3247 123.541 69.6913 123.949 75.0283 124.247C81.7364 124.622 88.3513 124.82 94.0075 124.569C99.7286 124.315 104.238 123.606 106.889 122.307C112.265 119.673 115.237 117.637 117.332 114.685C119.463 111.681 120.797 107.581 122.483 100.509L122.515 100.516C122.532 100.139 122.544 99.7602 122.551 99.3802C122.59 97.3077 122.413 95.3949 122.055 93.6258ZM118.08 118.479C115.7 120.97 112.567 122.866 108.209 125.001C104.95 126.599 99.8818 127.311 94.1406 127.566C88.3344 127.824 81.6023 127.619 74.861 127.243C69.4906 126.943 64.0849 126.532 59.1145 126.154C57.844 126.057 56.602 125.963 55.3963 125.873C49.4413 125.429 44.4179 125.101 41.1341 125.154C31.6108 125.308 28.0176 130.862 27.0455 133.752C26.6461 135.369 26.3605 136.923 26.1898 138.4C28.3964 136.049 31.8072 133.935 36.7946 133.664C39.4704 133.519 43.3046 133.99 47.6871 134.65C49.3408 134.899 51.078 135.176 52.8848 135.464C55.9518 135.953 59.2195 136.475 62.6197 136.945C73.4322 138.442 85.0489 139.343 94.0301 136.969C106.3 133.724 112.176 128.519 114.142 126.016C115.58 123.62 116.916 121.104 118.08 118.479ZM108.376 134.455C104.964 136.422 100.5 138.361 94.7969 139.869C85.175 142.413 73.0168 141.414 62.2082 139.917C58.788 139.443 55.4494 138.911 52.3549 138.418C50.557 138.131 48.8415 137.858 47.2403 137.617C42.8049 136.949 39.2755 136.534 36.9574 136.66C30.2818 137.022 27.1581 141.372 26.125 143.885C26.315 145.634 26.6724 147.293 27.1504 148.856C28.0982 147.571 29.5862 146.558 31.7522 146.369C32.5319 146.301 33.7241 146.373 35.1176 146.507C36.5501 146.644 38.3205 146.859 40.3218 147.119C41.6622 147.293 43.107 147.486 44.6313 147.69C47.6806 148.099 51.0478 148.55 54.5328 148.971C59.7527 149.601 65.1838 150.156 70.0864 150.385C75.0195 150.616 79.2973 150.509 82.2648 149.871C92.769 147.611 98.447 144.861 103.187 140.801C104.863 138.868 106.624 136.749 108.376 134.455ZM96.0292 148.787C92.4943 150.349 88.2667 151.648 82.8958 152.804C79.5289 153.528 74.9264 153.615 69.9462 153.382C64.9354 153.147 59.4201 152.582 54.1733 151.949C50.6706 151.526 47.2639 151.07 44.2033 150.66C42.6856 150.457 41.253 150.265 39.9361 150.094C37.9401 149.835 36.2114 149.625 34.8319 149.493C33.4134 149.357 32.4809 149.317 32.0121 149.358C30.5638 149.484 29.785 150.185 29.3186 151.019C28.9807 151.623 28.8057 152.313 28.7382 152.916C29.5075 154.524 30.3823 155.994 31.2889 157.315C31.5532 156.91 31.9175 156.542 32.4059 156.265C33.177 155.827 34.0957 155.707 35.0875 155.818C36.1086 155.931 37.816 156.365 39.8568 156.884C40.0353 156.929 40.2164 156.975 40.3998 157.021C42.7509 157.618 45.6497 158.342 48.8925 158.985C55.3957 160.275 63.1817 161.216 70.535 160.166C76.5566 159.306 81.1036 158.287 84.3283 157.372C87.2202 156.551 88.9846 155.83 89.7945 155.409C91.7661 153.449 93.8399 151.252 96.0292 148.787ZM84.3124 160.489C81.018 161.381 76.6049 162.329 70.9593 163.136C63.114 164.257 54.9414 163.244 48.3088 161.928C44.9836 161.268 42.0201 160.527 39.6623 159.929L39.3211 159.843C37.0797 159.274 35.5599 158.889 34.7562 158.799C34.1848 158.736 33.9509 158.837 33.8873 158.873C33.8427 158.899 33.7911 158.939 33.7412 159.082C33.6828 159.25 33.65 159.508 33.6733 159.842C33.6906 160.089 33.7359 160.337 33.7935 160.555C34.9543 161.896 36.0447 162.963 36.8972 163.734C37.4336 164.22 37.8741 164.586 38.1763 164.828C38.3273 164.949 38.4437 165.039 38.5199 165.097C38.5581 165.126 38.5862 165.147 38.6036 165.16L38.6231 165.174L38.6243 165.175L38.6384 165.185L38.6534 165.197C43.4692 168.863 51.1939 173.81 60.2962 172.293C65.0571 171.5 69.8882 170.217 75.5742 166.85C78.2571 165.262 81.1447 163.2 84.3124 160.489Z" fill="#F69050"/>
<path d="M5.2001 219C5.2001 221.16 5.6801 223.067 6.6401 224.72C7.62676 226.373 8.90676 227.667 10.4801 228.6C12.0534 229.533 13.7601 230 15.6001 230C17.5734 230 19.3201 229.613 20.8401 228.84C22.3601 228.067 23.6134 227.067 24.6001 225.84V230.32C23.4268 231.36 22.1468 232.133 20.7601 232.64C19.3734 233.147 17.6534 233.4 15.6001 233.4C13.6534 233.4 11.8268 233.053 10.1201 232.36C8.4401 231.64 6.9601 230.64 5.6801 229.36C4.4001 228.053 3.4001 226.52 2.6801 224.76C1.9601 223 1.6001 221.08 1.6001 219C1.6001 216.92 1.9601 215 2.6801 213.24C3.4001 211.48 4.4001 209.96 5.6801 208.68C6.9601 207.373 8.4401 206.373 10.1201 205.68C11.8268 204.96 13.6534 204.6 15.6001 204.6C17.6534 204.6 19.3734 204.853 20.7601 205.36C22.1468 205.867 23.4268 206.64 24.6001 207.68V212.16C23.6134 210.907 22.3601 209.907 20.8401 209.16C19.3201 208.387 17.5734 208 15.6001 208C13.7601 208 12.0534 208.467 10.4801 209.4C8.90676 210.333 7.62676 211.627 6.6401 213.28C5.6801 214.907 5.2001 216.813 5.2001 219Z" fill="#626A7F"/>
<path d="M49.197 233L45.637 224.6H34.357L30.797 233H26.997L39.997 203.6L52.997 233H49.197ZM39.997 211.32L35.717 221.4H44.277L39.997 211.32Z" fill="#626A7F"/>
<path d="M57.4432 224.52C58.3766 226.227 59.4166 227.6 60.5632 228.64C61.7366 229.68 63.1632 230.2 64.8432 230.2C66.3366 230.2 67.5366 229.787 68.4432 228.96C69.3499 228.133 69.8032 227.08 69.8032 225.8C69.8032 224.547 69.5099 223.547 68.9232 222.8C68.3366 222.053 67.5632 221.453 66.6032 221C65.6699 220.52 64.6699 220.093 63.6032 219.72C62.9099 219.48 62.1366 219.173 61.2832 218.8C60.4299 218.4 59.6166 217.907 58.8432 217.32C58.0699 216.707 57.4299 215.96 56.9232 215.08C56.4432 214.2 56.2032 213.12 56.2032 211.84C56.2032 210.453 56.5499 209.213 57.2432 208.12C57.9366 207.027 58.8966 206.173 60.1232 205.56C61.3499 204.92 62.7499 204.6 64.3232 204.6C65.8432 204.6 67.1632 204.893 68.2832 205.48C69.4299 206.04 70.4032 206.773 71.2032 207.68C72.0032 208.56 72.6299 209.493 73.0832 210.48L70.1632 212.16C69.8166 211.467 69.3766 210.787 68.8432 210.12C68.3099 209.453 67.6566 208.907 66.8832 208.48C66.1366 208.053 65.2166 207.84 64.1232 207.84C62.6032 207.84 61.4966 208.213 60.8032 208.96C60.1099 209.68 59.7632 210.493 59.7632 211.4C59.7632 212.573 60.2299 213.6 61.1632 214.48C62.0966 215.36 63.7899 216.227 66.2432 217.08C66.9899 217.347 67.7766 217.693 68.6032 218.12C69.4299 218.547 70.1899 219.093 70.8832 219.76C71.6032 220.4 72.1899 221.187 72.6432 222.12C73.0966 223.027 73.3232 224.12 73.3232 225.4C73.3232 227.027 72.9099 228.44 72.0832 229.64C71.2832 230.84 70.2299 231.773 68.9232 232.44C67.6166 233.08 66.2166 233.4 64.7232 233.4C63.2032 233.4 61.7899 233.08 60.4832 232.44C59.2032 231.773 58.0699 230.907 57.0832 229.84C56.1232 228.747 55.3366 227.587 54.7232 226.36L57.4432 224.52Z" fill="#626A7F"/>
<path d="M78.1173 205H81.5173V223.8C81.5173 225.72 82.0373 227.267 83.0773 228.44C84.1173 229.613 85.6373 230.2 87.6373 230.2C89.6373 230.2 91.1573 229.613 92.1973 228.44C93.2373 227.267 93.7573 225.72 93.7573 223.8V205H97.1573V223.8C97.1573 225.64 96.7573 227.293 95.9573 228.76C95.184 230.2 94.0906 231.333 92.6773 232.16C91.264 232.987 89.584 233.4 87.6373 233.4C85.7173 233.4 84.0373 232.987 82.5973 232.16C81.184 231.333 80.0773 230.2 79.2773 228.76C78.504 227.293 78.1173 225.64 78.1173 223.8V205Z" fill="#626A7F"/>
<path d="M103.356 205H106.756V229.8H117.756V233H103.356V205Z" fill="#626A7F"/>
<path d="M118.553 219C118.553 216.947 118.9 215.053 119.593 213.32C120.313 211.56 121.313 210.04 122.593 208.76C123.873 207.453 125.38 206.44 127.113 205.72C128.847 204.973 130.727 204.6 132.753 204.6C134.807 204.6 136.687 204.973 138.393 205.72C140.127 206.44 141.633 207.453 142.913 208.76C144.193 210.04 145.18 211.56 145.873 213.32C146.593 215.053 146.953 216.947 146.953 219C146.953 221.027 146.593 222.92 145.873 224.68C145.18 226.44 144.193 227.973 142.913 229.28C141.633 230.56 140.127 231.573 138.393 232.32C136.687 233.04 134.807 233.4 132.753 233.4C130.727 233.4 128.847 233.04 127.113 232.32C125.38 231.573 123.873 230.56 122.593 229.28C121.313 227.973 120.313 226.44 119.593 224.68C118.9 222.92 118.553 221.027 118.553 219ZM122.153 219C122.153 221.107 122.607 222.987 123.513 224.64C124.447 226.293 125.713 227.6 127.313 228.56C128.913 229.52 130.727 230 132.753 230C134.807 230 136.62 229.52 138.193 228.56C139.793 227.6 141.047 226.293 141.953 224.64C142.887 222.987 143.353 221.107 143.353 219C143.353 216.893 142.887 215.013 141.953 213.36C141.047 211.707 139.793 210.4 138.193 209.44C136.62 208.48 134.807 208 132.753 208C130.727 208 128.913 208.48 127.313 209.44C125.713 210.4 124.447 211.707 123.513 213.36C122.607 215.013 122.153 216.893 122.153 219Z" fill="#626A7F"/>
</svg>
