<svg width="228" height="123" viewBox="0 0 228 123" fill="none" xmlns="http://www.w3.org/2000/svg">
<path fill-rule="evenodd" clip-rule="evenodd" d="M38.7246 38.3341C38.9524 32.1287 39.2709 11.1923 38.7191 0.104243L40.8227 0C41.3799 11.1973 41.0568 32.2613 40.8279 38.4484C41.1336 39.8435 42.1344 41.1386 43.6553 42.4392C45.0171 43.6037 46.672 44.6727 48.3718 45.7707C48.6172 45.9292 48.8636 46.0883 49.1101 46.2484C50.0202 46.8394 51.4715 47.4378 53.3289 48.2037C53.7066 48.3594 54.1011 48.5221 54.5112 48.693C56.8706 49.6763 59.6194 50.8879 62.2189 52.5355C67.449 55.8504 72.1575 60.9961 71.996 69.6605C71.8629 76.7958 69.3747 83.2342 66.1715 88.723L66.2154 88.7483C66.0932 88.9602 65.932 89.2017 65.7293 89.4674C65.2757 90.2179 64.8097 90.9498 64.3358 91.6625C62.3115 94.7069 60.1225 97.4268 58.1113 99.7561L58.1559 99.8057C58.0334 99.9154 57.9103 100.024 57.7864 100.131C56.6371 101.451 55.5533 102.64 54.6008 103.685C54.0045 104.339 53.4598 104.936 52.9826 105.474C47.0689 112.142 42.242 116.18 37.9829 118.696C33.7053 121.224 30.047 122.189 26.53 122.774C19.2073 123.992 13.1512 120.012 9.72204 117.408L9.70147 117.393C9.68249 117.379 9.65588 117.359 9.62213 117.334C9.55462 117.283 9.45847 117.208 9.3375 117.112C9.09564 116.918 8.75409 116.634 8.34352 116.264C7.52322 115.523 6.42268 114.432 5.29011 113.021C4.15839 111.61 2.98486 109.867 2.02966 107.824L1.90721 107.831C1.90177 107.739 1.89883 107.642 1.89881 107.539C1.01051 105.571 0.330329 103.332 0.0817095 100.851C-0.140433 98.6346 0.0940529 96.1168 0.740294 93.423L0.724359 93.4185C0.751186 93.3222 0.781184 93.2226 0.814487 93.1201C1.48994 90.4193 2.57363 87.5478 4.021 84.6295C5.25326 82.145 6.75739 79.6096 8.51687 77.0956L8.4327 77.0345C8.65911 76.7238 8.93928 76.3927 9.26313 76.0517C11.5811 72.8765 14.305 69.7518 17.4014 66.8247C23.1348 61.4045 28.0827 55.394 31.804 50.1443C35.4646 44.9804 37.8846 40.6285 38.7246 38.3341ZM39.7523 41.2288C38.4693 43.8426 36.3227 47.4092 33.5235 51.358C33.4467 51.4664 33.3694 51.575 33.2916 51.684C34.5667 51.2019 35.8689 50.8269 37.1125 50.4688C37.555 50.3413 37.9902 50.216 38.414 50.0888C41.2744 49.2301 43.6913 48.2812 45.2937 46.2701C44.2371 45.5604 43.2015 44.819 42.2848 44.035C41.309 43.2006 40.4137 42.2743 39.7523 41.2288ZM47.0601 47.4272C45.0098 50.1062 41.948 51.2226 39.0208 52.1013C38.556 52.2409 38.0951 52.3746 37.6398 52.5068C34.906 53.3001 32.3694 54.0363 30.3493 55.6261C29.7046 56.4537 29.0356 57.2905 28.3434 58.1321C28.8957 57.907 29.4036 57.7158 29.8212 57.5707C31.041 57.147 32.4832 56.948 33.9667 56.7847C34.3455 56.743 34.7282 56.7036 35.1153 56.6637C36.2828 56.5433 37.4894 56.4189 38.7431 56.2174C41.0462 55.8473 43.0072 55.4329 45.1286 54.4096C47.0049 53.5045 49.0539 52.0992 51.5688 49.752C50.1274 49.1516 48.8475 48.5854 47.9613 48.0099C47.7225 47.8548 47.4804 47.6985 47.2361 47.5409C47.1775 47.5031 47.1188 47.4652 47.0601 47.4272ZM53.6971 50.6313C50.7669 53.4663 48.3434 55.1932 46.0452 56.3018C43.6441 57.4601 41.4405 57.9127 39.078 58.2924C37.7594 58.5043 36.4683 58.6373 35.2884 58.7589C34.9126 58.7976 34.5481 58.8352 34.1976 58.8737C32.7089 59.0375 31.4835 59.2187 30.5136 59.5556C29.7379 59.825 28.5918 60.2797 27.4577 60.8169C26.307 61.3621 25.2442 61.9571 24.5839 62.4952L24.5798 62.4903C23.7019 63.4579 22.7969 64.4222 21.8669 65.3768C22.8233 64.8895 23.6478 64.5213 24.1878 64.3582C26.4097 63.687 29.0591 63.414 31.5815 63.2717C32.8363 63.2008 34.0792 63.1615 35.2385 63.1249L35.2757 63.1237C36.4523 63.0865 37.5347 63.0519 38.4828 62.9904C38.9086 62.9627 39.4128 62.9384 39.9784 62.911C42.2475 62.8013 45.5046 62.6439 48.6555 62.0356C50.6163 61.6571 52.4683 61.1145 53.9615 60.3358C55.4551 59.557 56.5059 58.5873 57.0174 57.3904C57.3326 56.6531 57.7349 54.5416 57.4408 52.2973C56.1623 51.6764 54.8956 51.1308 53.6995 50.6323C53.6987 50.632 53.6979 50.6317 53.6971 50.6313ZM59.642 53.4456C59.7033 55.473 59.3479 57.295 58.9548 58.2148C58.1859 60.0139 56.6828 61.2882 54.937 62.1985C53.1908 63.1091 51.1177 63.7009 49.0556 64.099C45.7361 64.7398 42.2694 64.9061 40.0097 65.0145C39.4718 65.0402 39.0023 65.0628 38.6195 65.0876C37.6296 65.1519 36.5099 65.1874 35.3424 65.2243L35.3153 65.2252C34.1493 65.2621 32.9287 65.3006 31.7005 65.37C29.211 65.5105 26.7692 65.7742 24.798 66.3697C24.0857 66.5849 22.3643 67.4337 20.4053 68.5764C18.75 69.542 17.0291 70.6565 15.7511 71.6521C16.5636 71.3329 17.3931 71.0961 18.2101 70.9836C22.7349 70.3608 32.2837 70.4877 40.176 70.6698C44.0556 70.7593 48.9432 70.2944 53.186 69.3492C55.3068 68.8768 57.236 68.291 58.784 67.6106C60.3608 66.9175 61.4174 66.1795 61.9387 65.4707C63.6966 63.0802 63.8861 59.8043 61.816 54.8615L61.8855 54.8325C61.6229 54.6535 61.3574 54.4793 61.0897 54.3096C60.6125 54.0072 60.1288 53.7197 59.642 53.4456ZM64.8638 57.2315C65.8774 61.0165 65.5232 64.1488 63.6367 66.7141C62.7854 67.8717 61.3181 68.7933 59.633 69.534C57.919 70.2873 55.8483 70.9096 53.6449 71.4004C49.2394 72.3818 44.1814 72.8645 40.1273 72.7709C32.1578 72.587 22.8141 72.4715 18.4979 73.0656C16.9531 73.2782 15.1958 74.103 13.6129 75.1619C12.5183 75.8942 11.5686 76.6969 10.8832 77.4022C10.5321 77.8853 10.191 78.3694 9.85975 78.8539C11.7565 78.062 14.2045 77.4256 17.1117 77.3625C18.9261 77.3231 22.0659 77.5379 25.7981 77.8024C26.0274 77.8186 26.2592 77.8351 26.4933 77.8517C30.0988 78.1078 34.2517 78.4027 38.4318 78.5806C42.8864 78.7702 47.3436 78.8255 51.1748 78.5632C55.052 78.2977 58.1222 77.7147 59.9184 76.7313C64.0735 74.4564 66.0278 72.1285 66.8726 69.5069C67.7397 66.8158 67.5028 63.6436 66.8562 59.502C66.2557 58.6813 65.5855 57.9273 64.8638 57.2315ZM69.5413 65.5901C69.5301 67.1978 69.3401 68.7149 68.8776 70.1502C67.817 73.4418 65.3889 76.1334 60.9316 78.5738C58.6982 79.7966 55.2187 80.3929 51.319 80.6599C47.3732 80.9301 42.8263 80.8712 38.3421 80.6803C34.1309 80.5011 29.9503 80.2042 26.3493 79.9485C26.1133 79.9317 25.8798 79.9151 25.6489 79.8988C21.866 79.6307 18.8489 79.427 17.1574 79.4637C11.8882 79.578 8.43172 81.7734 7.40362 82.7653C6.8661 83.7031 6.36746 84.6366 5.90862 85.5617C5.5237 86.3378 5.16764 87.1062 4.8406 87.8646C6.68741 86.5847 9.23917 85.6318 12.6971 85.5761C15.117 85.5372 18.7461 85.7765 22.9004 86.0854C23.7532 86.1488 24.6296 86.2153 25.5245 86.2832C29.012 86.5477 32.7797 86.8335 36.5265 87.0424C41.2359 87.3049 45.8799 87.4436 49.8508 87.2676C53.8674 87.0896 57.0335 86.5932 58.8946 85.6832C62.6687 83.8378 64.7548 82.4116 66.2255 80.3433C67.722 78.2386 68.6581 75.3668 69.8422 70.4119L69.8648 70.4173C69.8767 70.1529 69.8852 69.8876 69.8902 69.6214C69.9172 68.1695 69.7931 66.8295 69.5413 65.5901ZM66.7512 83.001C65.08 84.7464 62.8809 86.0745 59.8214 87.5705C57.5328 88.6895 53.9749 89.1886 49.9443 89.3672C45.8681 89.5479 41.1418 89.4046 36.409 89.1408C32.6387 88.9306 28.8437 88.6427 25.3542 88.378C24.4623 88.3104 23.5903 88.2442 22.7438 88.1813C18.5631 87.8704 15.0365 87.6404 12.731 87.6775C6.04521 87.7851 3.52258 91.6759 2.84015 93.7006C2.55974 94.8336 2.35924 95.9225 2.2394 96.957C3.78854 95.31 6.18308 93.8291 9.6845 93.6392C11.563 93.5373 14.2548 93.8675 17.3316 94.33C18.4925 94.5045 19.7121 94.6986 20.9806 94.9004C23.1339 95.2431 25.4279 95.6081 27.815 95.9379C35.4059 96.9868 43.5615 97.6177 49.8667 95.9542C58.4809 93.6815 62.6059 90.0347 63.9865 88.2813C64.9961 86.6028 65.9338 84.8402 66.7512 83.001ZM59.9381 94.1932C57.5426 95.5716 54.409 96.9297 50.4051 97.986C43.65 99.7682 35.1143 99.0682 27.5261 98.0197C25.125 97.688 22.7811 97.3151 20.6086 96.9696C19.3464 96.7688 18.142 96.5772 17.0179 96.4082C13.9041 95.9402 11.4262 95.6495 9.7988 95.7378C5.11217 95.992 2.91921 99.0391 2.19387 100.8C2.32729 102.025 2.57819 103.187 2.91379 104.282C3.57917 103.382 4.62387 102.672 6.14451 102.54C6.69188 102.492 7.52888 102.543 8.50717 102.636C9.51283 102.732 10.7558 102.883 12.1608 103.065C13.1018 103.187 14.1161 103.322 15.1863 103.465C17.327 103.752 19.691 104.068 22.1376 104.362C25.8022 104.804 29.6152 105.193 33.057 105.353C36.5203 105.515 39.5236 105.44 41.6069 104.993C48.9814 103.41 52.9676 101.484 56.295 98.6389C57.4718 97.2847 58.7083 95.8004 59.9381 94.1932ZM51.2702 104.233C48.7885 105.328 45.8205 106.238 42.0499 107.048C39.6861 107.555 36.4549 107.616 32.9586 107.453C29.4407 107.288 25.5688 106.893 21.8852 106.449C19.4261 106.153 17.0345 105.833 14.8858 105.546C13.8203 105.403 12.8146 105.269 11.89 105.149C10.4887 104.968 9.27507 104.821 8.30659 104.728C7.31075 104.633 6.65607 104.605 6.32696 104.634C5.31016 104.722 4.76339 105.213 4.43594 105.797C4.19879 106.221 4.07587 106.704 4.02849 107.126C4.56859 108.253 5.18278 109.282 5.81925 110.208C6.00478 109.924 6.26054 109.666 6.6034 109.472C7.14477 109.165 7.78973 109.082 8.48606 109.159C9.20288 109.238 10.4016 109.542 11.8343 109.906C11.9597 109.938 12.0868 109.97 12.2155 110.002C13.8661 110.42 15.9013 110.928 18.1778 111.378C22.7434 112.282 28.2096 112.941 33.372 112.205C37.5994 111.603 40.7917 110.889 43.0555 110.248C45.0859 109.672 46.3245 109.168 46.8931 108.873C48.2773 107.5 49.7332 105.961 51.2702 104.233ZM43.0444 112.432C40.7315 113.056 37.6334 113.721 33.6698 114.286C28.1621 115.071 22.4245 114.361 17.768 113.44C15.4336 112.978 13.353 112.458 11.6978 112.04L11.4583 111.979C9.88465 111.58 8.81766 111.31 8.25348 111.248C7.85231 111.203 7.68811 111.274 7.64342 111.3C7.61212 111.317 7.57588 111.346 7.54087 111.446C7.49985 111.564 7.47685 111.744 7.49322 111.978C7.50536 112.152 7.53712 112.325 7.57761 112.478C8.39253 113.417 9.15804 114.165 9.75651 114.705C10.1331 115.045 10.4424 115.302 10.6545 115.472C10.7606 115.556 10.8422 115.619 10.8958 115.66C10.9226 115.68 10.9423 115.695 10.9545 115.704L10.9682 115.714L10.9691 115.715L10.9789 115.722L10.9895 115.73C14.3704 118.298 19.7936 121.764 26.1838 120.701C29.5262 120.145 32.9179 119.247 36.9097 116.888C38.7933 115.775 40.8205 114.331 43.0444 112.432Z" fill="#F69050"/>
<path d="M84.2001 99C84.2001 101.16 84.6801 103.067 85.6401 104.72C86.6268 106.373 87.9068 107.667 89.4801 108.6C91.0534 109.533 92.7601 110 94.6001 110C96.5734 110 98.3201 109.613 99.8401 108.84C101.36 108.067 102.613 107.067 103.6 105.84V110.32C102.427 111.36 101.147 112.133 99.7601 112.64C98.3734 113.147 96.6534 113.4 94.6001 113.4C92.6534 113.4 90.8268 113.053 89.1201 112.36C87.4401 111.64 85.9601 110.64 84.6801 109.36C83.4001 108.053 82.4001 106.52 81.6801 104.76C80.9601 103 80.6001 101.08 80.6001 99C80.6001 96.92 80.9601 95 81.6801 93.24C82.4001 91.48 83.4001 89.96 84.6801 88.68C85.9601 87.3733 87.4401 86.3733 89.1201 85.68C90.8268 84.96 92.6534 84.6 94.6001 84.6C96.6534 84.6 98.3734 84.8533 99.7601 85.36C101.147 85.8666 102.427 86.64 103.6 87.68V92.16C102.613 90.9066 101.36 89.9066 99.8401 89.16C98.3201 88.3866 96.5734 88 94.6001 88C92.7601 88 91.0534 88.4666 89.4801 89.4C87.9068 90.3333 86.6268 91.6266 85.6401 93.28C84.6801 94.9066 84.2001 96.8133 84.2001 99Z" fill="#626A7F"/>
<path d="M128.197 113L124.637 104.6H113.357L109.797 113H105.997L118.997 83.6L131.997 113H128.197ZM118.997 91.32L114.717 101.4H123.277L118.997 91.32Z" fill="#626A7F"/>
<path d="M136.443 104.52C137.377 106.227 138.417 107.6 139.563 108.64C140.737 109.68 142.163 110.2 143.843 110.2C145.337 110.2 146.537 109.787 147.443 108.96C148.35 108.133 148.803 107.08 148.803 105.8C148.803 104.547 148.51 103.547 147.923 102.8C147.337 102.053 146.563 101.453 145.603 101C144.67 100.52 143.67 100.093 142.603 99.72C141.91 99.48 141.137 99.1733 140.283 98.8C139.43 98.4 138.617 97.9066 137.843 97.32C137.07 96.7066 136.43 95.96 135.923 95.08C135.443 94.2 135.203 93.12 135.203 91.84C135.203 90.4533 135.55 89.2133 136.243 88.12C136.937 87.0266 137.897 86.1733 139.123 85.56C140.35 84.92 141.75 84.6 143.323 84.6C144.843 84.6 146.163 84.8933 147.283 85.48C148.43 86.04 149.403 86.7733 150.203 87.68C151.003 88.56 151.63 89.4933 152.083 90.48L149.163 92.16C148.817 91.4666 148.377 90.7866 147.843 90.12C147.31 89.4533 146.657 88.9066 145.883 88.48C145.137 88.0533 144.217 87.84 143.123 87.84C141.603 87.84 140.497 88.2133 139.803 88.96C139.11 89.68 138.763 90.4933 138.763 91.4C138.763 92.5733 139.23 93.6 140.163 94.48C141.097 95.36 142.79 96.2266 145.243 97.08C145.99 97.3466 146.777 97.6933 147.603 98.12C148.43 98.5466 149.19 99.0933 149.883 99.76C150.603 100.4 151.19 101.187 151.643 102.12C152.097 103.027 152.323 104.12 152.323 105.4C152.323 107.027 151.91 108.44 151.083 109.64C150.283 110.84 149.23 111.773 147.923 112.44C146.617 113.08 145.217 113.4 143.723 113.4C142.203 113.4 140.79 113.08 139.483 112.44C138.203 111.773 137.07 110.907 136.083 109.84C135.123 108.747 134.337 107.587 133.723 106.36L136.443 104.52Z" fill="#626A7F"/>
<path d="M157.117 85H160.517V103.8C160.517 105.72 161.037 107.267 162.077 108.44C163.117 109.613 164.637 110.2 166.637 110.2C168.637 110.2 170.157 109.613 171.197 108.44C172.237 107.267 172.757 105.72 172.757 103.8V85H176.157V103.8C176.157 105.64 175.757 107.293 174.957 108.76C174.184 110.2 173.091 111.333 171.677 112.16C170.264 112.987 168.584 113.4 166.637 113.4C164.717 113.4 163.037 112.987 161.597 112.16C160.184 111.333 159.077 110.2 158.277 108.76C157.504 107.293 157.117 105.64 157.117 103.8V85Z" fill="#626A7F"/>
<path d="M182.356 85H185.756V109.8H196.756V113H182.356V85Z" fill="#626A7F"/>
<path d="M197.553 99C197.553 96.9466 197.9 95.0533 198.593 93.32C199.313 91.56 200.313 90.04 201.593 88.76C202.873 87.4533 204.38 86.44 206.113 85.72C207.847 84.9733 209.727 84.6 211.753 84.6C213.807 84.6 215.687 84.9733 217.393 85.72C219.127 86.44 220.633 87.4533 221.913 88.76C223.193 90.04 224.18 91.56 224.873 93.32C225.593 95.0533 225.953 96.9466 225.953 99C225.953 101.027 225.593 102.92 224.873 104.68C224.18 106.44 223.193 107.973 221.913 109.28C220.633 110.56 219.127 111.573 217.393 112.32C215.687 113.04 213.807 113.4 211.753 113.4C209.727 113.4 207.847 113.04 206.113 112.32C204.38 111.573 202.873 110.56 201.593 109.28C200.313 107.973 199.313 106.44 198.593 104.68C197.9 102.92 197.553 101.027 197.553 99ZM201.153 99C201.153 101.107 201.607 102.987 202.513 104.64C203.447 106.293 204.713 107.6 206.313 108.56C207.913 109.52 209.727 110 211.753 110C213.807 110 215.62 109.52 217.193 108.56C218.793 107.6 220.047 106.293 220.953 104.64C221.887 102.987 222.353 101.107 222.353 99C222.353 96.8933 221.887 95.0133 220.953 93.36C220.047 91.7066 218.793 90.4 217.193 89.44C215.62 88.48 213.807 88 211.753 88C209.727 88 207.913 88.48 206.313 89.44C204.713 90.4 203.447 91.7066 202.513 93.36C201.607 95.0133 201.153 96.8933 201.153 99Z" fill="#626A7F"/>
</svg>
