<svg width="467" height="306" viewBox="0 0 467 306" fill="none" xmlns="http://www.w3.org/2000/svg">
<path d="M200 217.632L289.856 124.608C297.92 115.968 304.256 108.288 308.864 101.568C313.472 94.656 315.776 87.264 315.776 79.392C315.776 72.864 313.472 67.008 308.864 61.824C304.256 56.64 297.344 54.048 288.128 54.048C278.72 54.048 271.232 57.504 265.664 64.416C260.288 71.136 257.6 79.872 257.6 90.624H209.792C209.792 76.224 212.768 63.072 218.72 51.168C224.864 39.264 233.888 29.76 245.792 22.656C257.696 15.552 272.384 12 289.856 12C306.56 12 320.576 15.264 331.904 21.792C343.232 28.128 351.776 36.192 357.536 45.984C363.296 55.776 366.176 65.76 366.176 75.936C366.176 86.688 363.488 96.672 358.112 105.888C352.928 115.104 345.92 123.456 337.088 130.944L290.432 172.992H371.072V217.632H200Z" fill="#F5E4D4"/>
<path d="M94.1268 164.464C95.7908 164.464 97.1108 164.968 98.0868 165.976C99.0788 166.984 99.5748 168.384 99.5748 170.176V178H95.4948V170.728C95.4948 169.864 95.2628 169.2 94.7988 168.736C94.3508 168.256 93.7268 168.016 92.9268 168.016C92.1268 168.016 91.4948 168.256 91.0308 168.736C90.5828 169.2 90.3588 169.864 90.3588 170.728V178H86.2788V170.728C86.2788 169.864 86.0468 169.2 85.5828 168.736C85.1348 168.256 84.5108 168.016 83.7108 168.016C82.9108 168.016 82.2788 168.256 81.8148 168.736C81.3668 169.2 81.1428 169.864 81.1428 170.728V178H77.0388V164.608H81.1428V166.288C81.5588 165.728 82.1028 165.288 82.7748 164.968C83.4468 164.632 84.2068 164.464 85.0548 164.464C86.0628 164.464 86.9588 164.68 87.7428 165.112C88.5428 165.544 89.1668 166.16 89.6148 166.96C90.0788 166.224 90.7108 165.624 91.5108 165.16C92.3108 164.696 93.1828 164.464 94.1268 164.464ZM101.629 171.28C101.629 169.904 101.885 168.696 102.397 167.656C102.925 166.616 103.637 165.816 104.533 165.256C105.429 164.696 106.429 164.416 107.533 164.416C108.477 164.416 109.301 164.608 110.005 164.992C110.725 165.376 111.277 165.88 111.661 166.504V164.608H115.765V178H111.661V176.104C111.261 176.728 110.701 177.232 109.981 177.616C109.277 178 108.453 178.192 107.509 178.192C106.421 178.192 105.429 177.912 104.533 177.352C103.637 176.776 102.925 175.968 102.397 174.928C101.885 173.872 101.629 172.656 101.629 171.28ZM111.661 171.304C111.661 170.28 111.373 169.472 110.797 168.88C110.237 168.288 109.549 167.992 108.733 167.992C107.917 167.992 107.221 168.288 106.645 168.88C106.085 169.456 105.805 170.256 105.805 171.28C105.805 172.304 106.085 173.12 106.645 173.728C107.221 174.32 107.917 174.616 108.733 174.616C109.549 174.616 110.237 174.32 110.797 173.728C111.373 173.136 111.661 172.328 111.661 171.304ZM126.894 164.464C128.462 164.464 129.71 164.976 130.638 166C131.582 167.008 132.054 168.4 132.054 170.176V178H127.974V170.728C127.974 169.832 127.742 169.136 127.278 168.64C126.814 168.144 126.19 167.896 125.406 167.896C124.622 167.896 123.998 168.144 123.534 168.64C123.07 169.136 122.838 169.832 122.838 170.728V178H118.734V164.608H122.838V166.384C123.254 165.792 123.814 165.328 124.518 164.992C125.222 164.64 126.014 164.464 126.894 164.464ZM134.09 171.28C134.09 169.904 134.346 168.696 134.858 167.656C135.386 166.616 136.098 165.816 136.994 165.256C137.89 164.696 138.89 164.416 139.994 164.416C140.874 164.416 141.674 164.6 142.394 164.968C143.13 165.336 143.706 165.832 144.122 166.456V160.24H148.226V178H144.122V176.08C143.738 176.72 143.186 177.232 142.466 177.616C141.762 178 140.938 178.192 139.994 178.192C138.89 178.192 137.89 177.912 136.994 177.352C136.098 176.776 135.386 175.968 134.858 174.928C134.346 173.872 134.09 172.656 134.09 171.28ZM144.122 171.304C144.122 170.28 143.834 169.472 143.258 168.88C142.698 168.288 142.01 167.992 141.194 167.992C140.378 167.992 139.682 168.288 139.106 168.88C138.546 169.456 138.266 170.256 138.266 171.28C138.266 172.304 138.546 173.12 139.106 173.728C139.682 174.32 140.378 174.616 141.194 174.616C142.01 174.616 142.698 174.32 143.258 173.728C143.834 173.136 144.122 172.328 144.122 171.304ZM163.819 171.088C163.819 171.472 163.795 171.872 163.747 172.288H154.459C154.523 173.12 154.787 173.76 155.251 174.208C155.731 174.64 156.315 174.856 157.003 174.856C158.027 174.856 158.739 174.424 159.139 173.56H163.507C163.283 174.44 162.875 175.232 162.283 175.936C161.707 176.64 160.979 177.192 160.099 177.592C159.219 177.992 158.235 178.192 157.147 178.192C155.835 178.192 154.667 177.912 153.643 177.352C152.619 176.792 151.819 175.992 151.243 174.952C150.667 173.912 150.379 172.696 150.379 171.304C150.379 169.912 150.659 168.696 151.219 167.656C151.795 166.616 152.595 165.816 153.619 165.256C154.643 164.696 155.819 164.416 157.147 164.416C158.443 164.416 159.595 164.688 160.603 165.232C161.611 165.776 162.395 166.552 162.955 167.56C163.531 168.568 163.819 169.744 163.819 171.088ZM159.619 170.008C159.619 169.304 159.379 168.744 158.899 168.328C158.419 167.912 157.819 167.704 157.099 167.704C156.411 167.704 155.827 167.904 155.347 168.304C154.883 168.704 154.595 169.272 154.483 170.008H159.619ZM184.294 164.608V178H180.19V176.176C179.774 176.768 179.206 177.248 178.486 177.616C177.782 177.968 176.998 178.144 176.134 178.144C175.11 178.144 174.206 177.92 173.422 177.472C172.638 177.008 172.03 176.344 171.598 175.48C171.166 174.616 170.95 173.6 170.95 172.432V164.608H175.03V171.88C175.03 172.776 175.262 173.472 175.726 173.968C176.19 174.464 176.814 174.712 177.598 174.712C178.398 174.712 179.03 174.464 179.494 173.968C179.958 173.472 180.19 172.776 180.19 171.88V164.608H184.294ZM204.33 164.464C205.994 164.464 207.314 164.968 208.29 165.976C209.282 166.984 209.778 168.384 209.778 170.176V178H205.698V170.728C205.698 169.864 205.466 169.2 205.002 168.736C204.554 168.256 203.93 168.016 203.13 168.016C202.33 168.016 201.698 168.256 201.234 168.736C200.786 169.2 200.562 169.864 200.562 170.728V178H196.482V170.728C196.482 169.864 196.25 169.2 195.786 168.736C195.338 168.256 194.714 168.016 193.914 168.016C193.114 168.016 192.482 168.256 192.018 168.736C191.57 169.2 191.346 169.864 191.346 170.728V178H187.242V164.608H191.346V166.288C191.762 165.728 192.306 165.288 192.978 164.968C193.65 164.632 194.41 164.464 195.258 164.464C196.266 164.464 197.162 164.68 197.946 165.112C198.746 165.544 199.37 166.16 199.818 166.96C200.282 166.224 200.914 165.624 201.714 165.16C202.514 164.696 203.386 164.464 204.33 164.464ZM211.832 171.28C211.832 169.904 212.088 168.696 212.6 167.656C213.128 166.616 213.84 165.816 214.736 165.256C215.632 164.696 216.632 164.416 217.736 164.416C218.68 164.416 219.504 164.608 220.208 164.992C220.928 165.376 221.48 165.88 221.864 166.504V164.608H225.968V178H221.864V176.104C221.464 176.728 220.904 177.232 220.184 177.616C219.48 178 218.656 178.192 217.712 178.192C216.624 178.192 215.632 177.912 214.736 177.352C213.84 176.776 213.128 175.968 212.6 174.928C212.088 173.872 211.832 172.656 211.832 171.28ZM221.864 171.304C221.864 170.28 221.576 169.472 221 168.88C220.44 168.288 219.752 167.992 218.936 167.992C218.12 167.992 217.424 168.288 216.848 168.88C216.288 169.456 216.008 170.256 216.008 171.28C216.008 172.304 216.288 173.12 216.848 173.728C217.424 174.32 218.12 174.616 218.936 174.616C219.752 174.616 220.44 174.32 221 173.728C221.576 173.136 221.864 172.328 221.864 171.304ZM55.7512 210.192C54.5832 210.192 53.5432 209.992 52.6312 209.592C51.7192 209.192 50.9992 208.648 50.4712 207.96C49.9432 207.256 49.6472 206.472 49.5832 205.608H53.6392C53.6872 206.072 53.9032 206.448 54.2872 206.736C54.6712 207.024 55.1432 207.168 55.7032 207.168C56.2152 207.168 56.6072 207.072 56.8792 206.88C57.1672 206.672 57.3112 206.408 57.3112 206.088C57.3112 205.704 57.1112 205.424 56.7112 205.248C56.3112 205.056 55.6632 204.848 54.7672 204.624C53.8072 204.4 53.0072 204.168 52.3672 203.928C51.7272 203.672 51.1752 203.28 50.7112 202.752C50.2472 202.208 50.0152 201.48 50.0152 200.568C50.0152 199.8 50.2232 199.104 50.6392 198.48C51.0712 197.84 51.6952 197.336 52.5112 196.968C53.3432 196.6 54.3272 196.416 55.4632 196.416C57.1432 196.416 58.4632 196.832 59.4232 197.664C60.3992 198.496 60.9592 199.6 61.1032 200.976H57.3112C57.2472 200.512 57.0392 200.144 56.6872 199.872C56.3512 199.6 55.9032 199.464 55.3432 199.464C54.8632 199.464 54.4952 199.56 54.2392 199.752C53.9832 199.928 53.8552 200.176 53.8552 200.496C53.8552 200.88 54.0552 201.168 54.4552 201.36C54.8712 201.552 55.5112 201.744 56.3752 201.936C57.3672 202.192 58.1752 202.448 58.7992 202.704C59.4232 202.944 59.9672 203.344 60.4312 203.904C60.9112 204.448 61.1592 205.184 61.1752 206.112C61.1752 206.896 60.9512 207.6 60.5032 208.224C60.0712 208.832 59.4392 209.312 58.6072 209.664C57.7912 210.016 56.8392 210.192 55.7512 210.192ZM69.782 210.192C68.47 210.192 67.286 209.912 66.23 209.352C65.19 208.792 64.366 207.992 63.758 206.952C63.166 205.912 62.87 204.696 62.87 203.304C62.87 201.928 63.174 200.72 63.782 199.68C64.39 198.624 65.222 197.816 66.278 197.256C67.334 196.696 68.518 196.416 69.83 196.416C71.142 196.416 72.326 196.696 73.382 197.256C74.438 197.816 75.27 198.624 75.878 199.68C76.486 200.72 76.79 201.928 76.79 203.304C76.79 204.68 76.478 205.896 75.854 206.952C75.246 207.992 74.406 208.792 73.334 209.352C72.278 209.912 71.094 210.192 69.782 210.192ZM69.782 206.64C70.566 206.64 71.23 206.352 71.774 205.776C72.334 205.2 72.614 204.376 72.614 203.304C72.614 202.232 72.342 201.408 71.798 200.832C71.27 200.256 70.614 199.968 69.83 199.968C69.03 199.968 68.366 200.256 67.838 200.832C67.31 201.392 67.046 202.216 67.046 203.304C67.046 204.376 67.302 205.2 67.814 205.776C68.342 206.352 68.998 206.64 69.782 206.64ZM83.0712 192.24V210H78.9672V192.24H83.0712ZM88.1093 195.216C87.3893 195.216 86.7973 195.008 86.3333 194.592C85.8853 194.16 85.6613 193.632 85.6613 193.008C85.6613 192.368 85.8853 191.84 86.3333 191.424C86.7973 190.992 87.3893 190.776 88.1093 190.776C88.8133 190.776 89.3893 190.992 89.8373 191.424C90.3013 191.84 90.5333 192.368 90.5333 193.008C90.5333 193.632 90.3013 194.16 89.8373 194.592C89.3893 195.008 88.8133 195.216 88.1093 195.216ZM90.1493 196.608V210H86.0453V196.608H90.1493ZM92.3075 203.304C92.3075 201.912 92.5875 200.696 93.1475 199.656C93.7235 198.616 94.5155 197.816 95.5235 197.256C96.5475 196.696 97.7155 196.416 99.0275 196.416C100.707 196.416 102.107 196.856 103.227 197.736C104.363 198.616 105.107 199.856 105.459 201.456H101.091C100.723 200.432 100.011 199.92 98.9555 199.92C98.2035 199.92 97.6035 200.216 97.1555 200.808C96.7075 201.384 96.4835 202.216 96.4835 203.304C96.4835 204.392 96.7075 205.232 97.1555 205.824C97.6035 206.4 98.2035 206.688 98.9555 206.688C100.011 206.688 100.723 206.176 101.091 205.152H105.459C105.107 206.72 104.363 207.952 103.227 208.848C102.091 209.744 100.691 210.192 99.0275 210.192C97.7155 210.192 96.5475 209.912 95.5235 209.352C94.5155 208.792 93.7235 207.992 93.1475 206.952C92.5875 205.912 92.3075 204.696 92.3075 203.304ZM109.719 195.216C108.999 195.216 108.407 195.008 107.943 194.592C107.495 194.16 107.271 193.632 107.271 193.008C107.271 192.368 107.495 191.84 107.943 191.424C108.407 190.992 108.999 190.776 109.719 190.776C110.423 190.776 110.999 190.992 111.447 191.424C111.911 191.84 112.143 192.368 112.143 193.008C112.143 193.632 111.911 194.16 111.447 194.592C110.999 195.008 110.423 195.216 109.719 195.216ZM111.759 196.608V210H107.655V196.608H111.759ZM122.197 206.52V210H120.109C118.621 210 117.461 209.64 116.629 208.92C115.797 208.184 115.381 206.992 115.381 205.344V200.016H113.749V196.608H115.381V193.344H119.485V196.608H122.173V200.016H119.485V205.392C119.485 205.792 119.581 206.08 119.773 206.256C119.965 206.432 120.285 206.52 120.733 206.52H122.197ZM123.667 203.28C123.667 201.904 123.923 200.696 124.435 199.656C124.963 198.616 125.675 197.816 126.571 197.256C127.467 196.696 128.467 196.416 129.571 196.416C130.515 196.416 131.339 196.608 132.043 196.992C132.763 197.376 133.315 197.88 133.699 198.504V196.608H137.803V210H133.699V208.104C133.299 208.728 132.739 209.232 132.019 209.616C131.315 210 130.491 210.192 129.547 210.192C128.459 210.192 127.467 209.912 126.571 209.352C125.675 208.776 124.963 207.968 124.435 206.928C123.923 205.872 123.667 204.656 123.667 203.28ZM133.699 203.304C133.699 202.28 133.411 201.472 132.835 200.88C132.275 200.288 131.587 199.992 130.771 199.992C129.955 199.992 129.259 200.288 128.683 200.88C128.123 201.456 127.843 202.256 127.843 203.28C127.843 204.304 128.123 205.12 128.683 205.728C129.259 206.32 129.955 206.616 130.771 206.616C131.587 206.616 132.275 206.32 132.835 205.728C133.411 205.136 133.699 204.328 133.699 203.304ZM146.604 206.688C147.66 206.688 148.372 206.176 148.74 205.152H153.108C152.804 206.512 152.196 207.624 151.284 208.488C150.372 209.352 149.236 209.888 147.876 210.096V210.984C148.708 210.984 149.436 211.208 150.06 211.656C150.684 212.12 150.996 212.808 150.996 213.72C150.996 214.632 150.668 215.32 150.012 215.784C149.356 216.264 148.572 216.504 147.66 216.504H143.964V214.248H147.108C147.428 214.248 147.668 214.2 147.828 214.104C147.988 214.008 148.068 213.848 148.068 213.624C148.068 213.4 147.988 213.24 147.828 213.144C147.668 213.064 147.428 213.024 147.108 213.024H145.404V210.096C143.756 209.84 142.436 209.112 141.444 207.912C140.452 206.696 139.956 205.16 139.956 203.304C139.956 201.912 140.236 200.696 140.796 199.656C141.372 198.616 142.164 197.816 143.172 197.256C144.196 196.696 145.364 196.416 146.676 196.416C148.356 196.416 149.756 196.856 150.876 197.736C152.012 198.616 152.756 199.856 153.108 201.456H148.74C148.372 200.432 147.66 199.92 146.604 199.92C145.852 199.92 145.252 200.216 144.804 200.808C144.356 201.384 144.132 202.216 144.132 203.304C144.132 204.392 144.356 205.232 144.804 205.824C145.252 206.4 145.852 206.688 146.604 206.688ZM154.487 203.28C154.487 201.904 154.743 200.696 155.255 199.656C155.783 198.616 156.495 197.816 157.391 197.256C158.287 196.696 159.287 196.416 160.391 196.416C161.335 196.416 162.159 196.608 162.863 196.992C163.583 197.376 164.135 197.88 164.519 198.504V196.608H168.623V210H164.519V208.104C164.119 208.728 163.559 209.232 162.839 209.616C162.135 210 161.311 210.192 160.367 210.192C159.279 210.192 158.287 209.912 157.391 209.352C156.495 208.776 155.783 207.968 155.255 206.928C154.743 205.872 154.487 204.656 154.487 203.28ZM164.519 203.304C164.519 202.28 164.231 201.472 163.655 200.88C163.095 200.288 162.407 199.992 161.591 199.992C160.775 199.992 160.079 200.288 159.503 200.88C158.943 201.456 158.663 202.256 158.663 203.28C158.663 204.304 158.943 205.12 159.503 205.728C160.079 206.32 160.775 206.616 161.591 206.616C162.407 206.616 163.095 206.32 163.655 205.728C164.231 205.136 164.519 204.328 164.519 203.304ZM157.247 195.48C157.631 193.112 158.735 191.928 160.559 191.928C160.911 191.928 161.215 191.984 161.471 192.096C161.743 192.192 162.071 192.344 162.455 192.552C162.743 192.712 162.975 192.832 163.151 192.912C163.327 192.976 163.511 193.008 163.703 193.008C164.295 193.008 164.639 192.648 164.735 191.928H166.847C166.463 194.296 165.359 195.48 163.535 195.48C163.183 195.48 162.871 195.432 162.599 195.336C162.343 195.224 162.023 195.064 161.639 194.856C161.351 194.696 161.119 194.584 160.943 194.52C160.767 194.44 160.583 194.4 160.391 194.4C159.799 194.4 159.447 194.76 159.335 195.48H157.247ZM177.688 210.192C176.376 210.192 175.192 209.912 174.136 209.352C173.096 208.792 172.272 207.992 171.664 206.952C171.072 205.912 170.776 204.696 170.776 203.304C170.776 201.928 171.08 200.72 171.688 199.68C172.296 198.624 173.128 197.816 174.184 197.256C175.24 196.696 176.424 196.416 177.736 196.416C179.048 196.416 180.232 196.696 181.288 197.256C182.344 197.816 183.176 198.624 183.784 199.68C184.392 200.72 184.696 201.928 184.696 203.304C184.696 204.68 184.384 205.896 183.76 206.952C183.152 207.992 182.312 208.792 181.24 209.352C180.184 209.912 179 210.192 177.688 210.192ZM177.688 206.64C178.472 206.64 179.136 206.352 179.68 205.776C180.24 205.2 180.52 204.376 180.52 203.304C180.52 202.232 180.248 201.408 179.704 200.832C179.176 200.256 178.52 199.968 177.736 199.968C176.936 199.968 176.272 200.256 175.744 200.832C175.216 201.392 174.952 202.216 174.952 203.304C174.952 204.376 175.208 205.2 175.72 205.776C176.248 206.352 176.904 206.64 177.688 206.64Z" fill="black"/>
<path d="M191.623 203.424C191.623 202.08 191.887 200.904 192.415 199.896C192.959 198.872 193.703 198.088 194.647 197.544C195.607 196.984 196.687 196.704 197.887 196.704C199.135 196.704 200.207 196.992 201.103 197.568C202.015 198.144 202.671 198.88 203.071 199.776V196.896H204.751V210H203.071V207.096C202.655 207.992 201.991 208.736 201.079 209.328C200.183 209.904 199.111 210.192 197.863 210.192C196.679 210.192 195.607 209.912 194.647 209.352C193.703 208.792 192.959 208 192.415 206.976C191.887 205.952 191.623 204.768 191.623 203.424ZM203.071 203.448C203.071 202.392 202.855 201.464 202.423 200.664C201.991 199.864 201.399 199.248 200.647 198.816C199.911 198.384 199.095 198.168 198.199 198.168C197.271 198.168 196.439 198.376 195.703 198.792C194.967 199.208 194.383 199.816 193.951 200.616C193.535 201.4 193.327 202.336 193.327 203.424C193.327 204.496 193.535 205.44 193.951 206.256C194.383 207.056 194.967 207.672 195.703 208.104C196.439 208.52 197.271 208.728 198.199 208.728C199.095 208.728 199.911 208.512 200.647 208.08C201.399 207.648 201.991 207.032 202.423 206.232C202.855 205.432 203.071 204.504 203.071 203.448ZM227.509 202.776C227.509 203.352 227.493 203.792 227.461 204.096H216.589C216.637 205.088 216.877 205.936 217.309 206.64C217.741 207.344 218.309 207.88 219.013 208.248C219.717 208.6 220.485 208.776 221.317 208.776C222.405 208.776 223.317 208.512 224.053 207.984C224.805 207.456 225.301 206.744 225.541 205.848H227.317C226.997 207.128 226.309 208.176 225.253 208.992C224.213 209.792 222.901 210.192 221.317 210.192C220.085 210.192 218.981 209.92 218.005 209.376C217.029 208.816 216.261 208.032 215.701 207.024C215.157 206 214.885 204.808 214.885 203.448C214.885 202.088 215.157 200.896 215.701 199.872C216.245 198.848 217.005 198.064 217.981 197.52C218.957 196.976 220.069 196.704 221.317 196.704C222.565 196.704 223.653 196.976 224.581 197.52C225.525 198.064 226.245 198.8 226.741 199.728C227.253 200.64 227.509 201.656 227.509 202.776ZM225.805 202.728C225.821 201.752 225.621 200.92 225.205 200.232C224.805 199.544 224.253 199.024 223.549 198.672C222.845 198.32 222.077 198.144 221.245 198.144C219.997 198.144 218.933 198.544 218.053 199.344C217.173 200.144 216.685 201.272 216.589 202.728H225.805ZM232.502 192.24V210H230.822V192.24H232.502ZM248.403 202.776C248.403 203.352 248.387 203.792 248.355 204.096H237.483C237.531 205.088 237.771 205.936 238.203 206.64C238.635 207.344 239.203 207.88 239.907 208.248C240.611 208.6 241.379 208.776 242.211 208.776C243.299 208.776 244.211 208.512 244.947 207.984C245.699 207.456 246.195 206.744 246.435 205.848H248.211C247.891 207.128 247.203 208.176 246.147 208.992C245.107 209.792 243.795 210.192 242.211 210.192C240.979 210.192 239.875 209.92 238.899 209.376C237.923 208.816 237.155 208.032 236.595 207.024C236.051 206 235.779 204.808 235.779 203.448C235.779 202.088 236.051 200.896 236.595 199.872C237.139 198.848 237.899 198.064 238.875 197.52C239.851 196.976 240.963 196.704 242.211 196.704C243.459 196.704 244.547 196.976 245.475 197.52C246.419 198.064 247.139 198.8 247.635 199.728C248.147 200.64 248.403 201.656 248.403 202.776ZM246.699 202.728C246.715 201.752 246.515 200.92 246.099 200.232C245.699 199.544 245.147 199.024 244.443 198.672C243.739 198.32 242.971 198.144 242.139 198.144C240.891 198.144 239.827 198.544 238.947 199.344C238.067 200.144 237.579 201.272 237.483 202.728H246.699ZM253.252 207.216L250.756 213.504H249.604L251.38 207.216H253.252ZM20.6515 235.448C20.6515 234.088 20.9235 232.904 21.4675 231.896C22.0115 230.872 22.7635 230.088 23.7235 229.544C24.6835 228.984 25.7795 228.704 27.0115 228.704C28.6275 228.704 29.9555 229.104 30.9955 229.904C32.0515 230.704 32.7315 231.792 33.0355 233.168H31.2355C31.0115 232.224 30.5235 231.488 29.7715 230.96C29.0355 230.416 28.1155 230.144 27.0115 230.144C26.1315 230.144 25.3395 230.344 24.6355 230.744C23.9315 231.144 23.3715 231.744 22.9555 232.544C22.5555 233.328 22.3555 234.296 22.3555 235.448C22.3555 236.6 22.5555 237.576 22.9555 238.376C23.3715 239.176 23.9315 239.776 24.6355 240.176C25.3395 240.576 26.1315 240.776 27.0115 240.776C28.1155 240.776 29.0355 240.512 29.7715 239.984C30.5235 239.44 31.0115 238.688 31.2355 237.728H33.0355C32.7315 239.072 32.0515 240.152 30.9955 240.968C29.9395 241.784 28.6115 242.192 27.0115 242.192C25.7795 242.192 24.6835 241.92 23.7235 241.376C22.7635 240.816 22.0115 240.032 21.4675 239.024C20.9235 238 20.6515 236.808 20.6515 235.448ZM35.6103 235.424C35.6103 234.08 35.8743 232.904 36.4023 231.896C36.9463 230.872 37.6903 230.088 38.6343 229.544C39.5943 228.984 40.6743 228.704 41.8743 228.704C43.1223 228.704 44.1943 228.992 45.0903 229.568C46.0023 230.144 46.6583 230.88 47.0583 231.776V228.896H48.7383V242H47.0583V239.096C46.6423 239.992 45.9783 240.736 45.0663 241.328C44.1703 241.904 43.0983 242.192 41.8503 242.192C40.6663 242.192 39.5943 241.912 38.6343 241.352C37.6903 240.792 36.9463 240 36.4023 238.976C35.8743 237.952 35.6103 236.768 35.6103 235.424ZM47.0583 235.448C47.0583 234.392 46.8423 233.464 46.4103 232.664C45.9783 231.864 45.3863 231.248 44.6343 230.816C43.8983 230.384 43.0823 230.168 42.1863 230.168C41.2583 230.168 40.4263 230.376 39.6903 230.792C38.9543 231.208 38.3703 231.816 37.9383 232.616C37.5223 233.4 37.3143 234.336 37.3143 235.424C37.3143 236.496 37.5223 237.44 37.9383 238.256C38.3703 239.056 38.9543 239.672 39.6903 240.104C40.4263 240.52 41.2583 240.728 42.1863 240.728C43.0823 240.728 43.8983 240.512 44.6343 240.08C45.3863 239.648 45.9783 239.032 46.4103 238.232C46.8423 237.432 47.0583 236.504 47.0583 235.448ZM54.4696 231.776C54.8856 230.896 55.5416 230.168 56.4376 229.592C57.3496 229 58.4296 228.704 59.6776 228.704C60.8616 228.704 61.9256 228.984 62.8696 229.544C63.8296 230.088 64.5736 230.872 65.1016 231.896C65.6456 232.904 65.9176 234.08 65.9176 235.424C65.9176 236.768 65.6456 237.952 65.1016 238.976C64.5736 240 63.8296 240.792 62.8696 241.352C61.9256 241.912 60.8616 242.192 59.6776 242.192C58.4456 242.192 57.3736 241.904 56.4616 241.328C55.5496 240.736 54.8856 240 54.4696 239.12V248.192H52.8136V228.896H54.4696V231.776ZM64.2136 235.424C64.2136 234.336 63.9976 233.4 63.5656 232.616C63.1496 231.816 62.5736 231.208 61.8376 230.792C61.1016 230.376 60.2696 230.168 59.3416 230.168C58.4456 230.168 57.6216 230.384 56.8696 230.816C56.1336 231.248 55.5496 231.864 55.1176 232.664C54.6856 233.464 54.4696 234.392 54.4696 235.448C54.4696 236.504 54.6856 237.432 55.1176 238.232C55.5496 239.032 56.1336 239.648 56.8696 240.08C57.6216 240.512 58.4456 240.728 59.3416 240.728C60.2696 240.728 61.1016 240.52 61.8376 240.104C62.5736 239.672 63.1496 239.056 63.5656 238.256C63.9976 237.44 64.2136 236.496 64.2136 235.424ZM70.9289 231.224C71.2969 230.408 71.8569 229.776 72.6089 229.328C73.3769 228.88 74.3129 228.656 75.4169 228.656V230.408H74.9609C73.7449 230.408 72.7689 230.736 72.0329 231.392C71.2969 232.048 70.9289 233.144 70.9289 234.68V242H69.2489V228.896H70.9289V231.224ZM79.0242 226.424C78.6882 226.424 78.4002 226.304 78.1602 226.064C77.9202 225.824 77.8002 225.528 77.8002 225.176C77.8002 224.824 77.9202 224.536 78.1602 224.312C78.4002 224.072 78.6882 223.952 79.0242 223.952C79.3602 223.952 79.6482 224.072 79.8882 224.312C80.1282 224.536 80.2482 224.824 80.2482 225.176C80.2482 225.528 80.1282 225.824 79.8882 226.064C79.6482 226.304 79.3602 226.424 79.0242 226.424ZM79.8642 228.896V242H78.1842V228.896H79.8642ZM83.1406 235.448C83.1406 234.088 83.4126 232.904 83.9566 231.896C84.5006 230.872 85.2526 230.088 86.2126 229.544C87.1726 228.984 88.2686 228.704 89.5006 228.704C91.1166 228.704 92.4446 229.104 93.4846 229.904C94.5406 230.704 95.2206 231.792 95.5246 233.168H93.7246C93.5006 232.224 93.0126 231.488 92.2606 230.96C91.5246 230.416 90.6046 230.144 89.5006 230.144C88.6206 230.144 87.8286 230.344 87.1246 230.744C86.4206 231.144 85.8606 231.744 85.4446 232.544C85.0446 233.328 84.8446 234.296 84.8446 235.448C84.8446 236.6 85.0446 237.576 85.4446 238.376C85.8606 239.176 86.4206 239.776 87.1246 240.176C87.8286 240.576 88.6206 240.776 89.5006 240.776C90.6046 240.776 91.5246 240.512 92.2606 239.984C93.0126 239.44 93.5006 238.688 93.7246 237.728H95.5246C95.2206 239.072 94.5406 240.152 93.4846 240.968C92.4286 241.784 91.1006 242.192 89.5006 242.192C88.2686 242.192 87.1726 241.92 86.2126 241.376C85.2526 240.816 84.5006 240.032 83.9566 239.024C83.4126 238 83.1406 236.808 83.1406 235.448ZM105.107 228.656C106.099 228.656 106.987 228.864 107.771 229.28C108.571 229.696 109.195 230.336 109.643 231.2C110.107 232.048 110.339 233.088 110.339 234.32V242H108.683V234.512C108.683 233.088 108.323 232 107.603 231.248C106.899 230.496 105.931 230.12 104.699 230.12C103.435 230.12 102.427 230.52 101.675 231.32C100.923 232.12 100.547 233.296 100.547 234.848V242H98.8673V224.24H100.547V231.128C100.963 230.344 101.571 229.736 102.371 229.304C103.187 228.872 104.099 228.656 105.107 228.656ZM126.151 234.776C126.151 235.352 126.135 235.792 126.103 236.096H115.231C115.279 237.088 115.519 237.936 115.951 238.64C116.383 239.344 116.951 239.88 117.655 240.248C118.359 240.6 119.127 240.776 119.959 240.776C121.047 240.776 121.959 240.512 122.695 239.984C123.447 239.456 123.943 238.744 124.183 237.848H125.959C125.639 239.128 124.951 240.176 123.895 240.992C122.855 241.792 121.543 242.192 119.959 242.192C118.727 242.192 117.623 241.92 116.647 241.376C115.671 240.816 114.903 240.032 114.343 239.024C113.799 238 113.527 236.808 113.527 235.448C113.527 234.088 113.799 232.896 114.343 231.872C114.887 230.848 115.647 230.064 116.623 229.52C117.599 228.976 118.711 228.704 119.959 228.704C121.207 228.704 122.295 228.976 123.223 229.52C124.167 230.064 124.887 230.8 125.383 231.728C125.895 232.64 126.151 233.656 126.151 234.776ZM124.447 234.728C124.463 233.752 124.263 232.92 123.847 232.232C123.447 231.544 122.895 231.024 122.191 230.672C121.487 230.32 120.719 230.144 119.887 230.144C118.639 230.144 117.575 230.544 116.695 231.344C115.815 232.144 115.327 233.272 115.231 234.728H124.447ZM142.434 228.656C144.002 228.656 145.282 229.144 146.274 230.12C147.266 231.08 147.762 232.48 147.762 234.32V242H146.106V234.512C146.106 233.088 145.746 232 145.026 231.248C144.322 230.496 143.354 230.12 142.122 230.12C140.858 230.12 139.85 230.52 139.098 231.32C138.346 232.12 137.97 233.296 137.97 234.848V242H136.29V228.896H137.97V231.128C138.386 230.328 138.986 229.72 139.77 229.304C140.554 228.872 141.442 228.656 142.434 228.656ZM157.454 242.192C156.222 242.192 155.11 241.92 154.118 241.376C153.142 240.816 152.366 240.032 151.79 239.024C151.23 238 150.95 236.808 150.95 235.448C150.95 234.088 151.238 232.904 151.814 231.896C152.39 230.872 153.174 230.088 154.166 229.544C155.158 228.984 156.27 228.704 157.502 228.704C158.734 228.704 159.846 228.984 160.838 229.544C161.846 230.088 162.63 230.872 163.19 231.896C163.766 232.904 164.054 234.088 164.054 235.448C164.054 236.792 163.766 237.976 163.19 239C162.614 240.024 161.822 240.816 160.814 241.376C159.806 241.92 158.686 242.192 157.454 242.192ZM157.454 240.728C158.318 240.728 159.118 240.536 159.854 240.152C160.59 239.752 161.182 239.16 161.63 238.376C162.094 237.576 162.326 236.6 162.326 235.448C162.326 234.296 162.102 233.328 161.654 232.544C161.206 231.744 160.614 231.152 159.878 230.768C159.142 230.368 158.342 230.168 157.478 230.168C156.614 230.168 155.814 230.368 155.078 230.768C154.342 231.152 153.75 231.744 153.302 232.544C152.87 233.328 152.654 234.296 152.654 235.448C152.654 236.6 152.87 237.576 153.302 238.376C153.75 239.16 154.334 239.752 155.054 240.152C155.79 240.536 156.59 240.728 157.454 240.728ZM178.694 242.192C177.19 242.192 175.958 241.848 174.998 241.16C174.054 240.456 173.526 239.504 173.414 238.304H175.142C175.222 239.04 175.566 239.64 176.174 240.104C176.798 240.552 177.63 240.776 178.67 240.776C179.582 240.776 180.294 240.56 180.806 240.128C181.334 239.696 181.598 239.16 181.598 238.52C181.598 238.072 181.454 237.704 181.166 237.416C180.878 237.128 180.51 236.904 180.062 236.744C179.63 236.568 179.038 236.384 178.286 236.192C177.31 235.936 176.518 235.68 175.91 235.424C175.302 235.168 174.782 234.792 174.35 234.296C173.934 233.784 173.726 233.104 173.726 232.256C173.726 231.616 173.918 231.024 174.302 230.48C174.686 229.936 175.23 229.504 175.934 229.184C176.638 228.864 177.438 228.704 178.334 228.704C179.742 228.704 180.878 229.064 181.742 229.784C182.606 230.488 183.07 231.464 183.134 232.712H181.454C181.406 231.944 181.102 231.328 180.542 230.864C179.998 230.384 179.246 230.144 178.286 230.144C177.438 230.144 176.75 230.344 176.222 230.744C175.694 231.144 175.43 231.64 175.43 232.232C175.43 232.744 175.582 233.168 175.886 233.504C176.206 233.824 176.598 234.08 177.062 234.272C177.526 234.448 178.15 234.648 178.934 234.872C179.878 235.128 180.63 235.376 181.19 235.616C181.75 235.856 182.23 236.208 182.63 236.672C183.03 237.136 183.238 237.752 183.254 238.52C183.254 239.224 183.062 239.856 182.678 240.416C182.294 240.96 181.758 241.392 181.07 241.712C180.382 242.032 179.59 242.192 178.694 242.192ZM198.513 234.776C198.513 235.352 198.497 235.792 198.465 236.096H187.593C187.641 237.088 187.881 237.936 188.313 238.64C188.745 239.344 189.313 239.88 190.017 240.248C190.721 240.6 191.489 240.776 192.321 240.776C193.409 240.776 194.321 240.512 195.057 239.984C195.809 239.456 196.305 238.744 196.545 237.848H198.321C198.001 239.128 197.313 240.176 196.257 240.992C195.217 241.792 193.905 242.192 192.321 242.192C191.089 242.192 189.985 241.92 189.009 241.376C188.033 240.816 187.265 240.032 186.705 239.024C186.161 238 185.889 236.808 185.889 235.448C185.889 234.088 186.161 232.896 186.705 231.872C187.249 230.848 188.009 230.064 188.985 229.52C189.961 228.976 191.073 228.704 192.321 228.704C193.569 228.704 194.657 228.976 195.585 229.52C196.529 230.064 197.249 230.8 197.745 231.728C198.257 232.64 198.513 233.656 198.513 234.776ZM196.809 234.728C196.825 233.752 196.625 232.92 196.209 232.232C195.809 231.544 195.257 231.024 194.553 230.672C193.849 230.32 193.081 230.144 192.249 230.144C191.001 230.144 189.937 230.544 189.057 231.344C188.177 232.144 187.689 233.272 187.593 234.728H196.809ZM213.178 228.896V242H211.498V239.696C211.114 240.512 210.522 241.136 209.722 241.568C208.922 242 208.026 242.216 207.034 242.216C205.466 242.216 204.186 241.736 203.194 240.776C202.202 239.8 201.706 238.392 201.706 236.552V228.896H203.362V236.36C203.362 237.784 203.714 238.872 204.418 239.624C205.138 240.376 206.114 240.752 207.346 240.752C208.61 240.752 209.618 240.352 210.37 239.552C211.122 238.752 211.498 237.576 211.498 236.024V228.896H213.178ZM225.736 231.776C226.152 230.896 226.808 230.168 227.704 229.592C228.616 229 229.696 228.704 230.944 228.704C232.128 228.704 233.192 228.984 234.136 229.544C235.096 230.088 235.84 230.872 236.368 231.896C236.912 232.904 237.184 234.08 237.184 235.424C237.184 236.768 236.912 237.952 236.368 238.976C235.84 240 235.096 240.792 234.136 241.352C233.192 241.912 232.128 242.192 230.944 242.192C229.712 242.192 228.64 241.904 227.728 241.328C226.816 240.736 226.152 240 225.736 239.12V248.192H224.08V228.896H225.736V231.776ZM235.48 235.424C235.48 234.336 235.264 233.4 234.832 232.616C234.416 231.816 233.84 231.208 233.104 230.792C232.368 230.376 231.536 230.168 230.608 230.168C229.712 230.168 228.888 230.384 228.136 230.816C227.4 231.248 226.816 231.864 226.384 232.664C225.952 233.464 225.736 234.392 225.736 235.448C225.736 236.504 225.952 237.432 226.384 238.232C226.816 239.032 227.4 239.648 228.136 240.08C228.888 240.512 229.712 240.728 230.608 240.728C231.536 240.728 232.368 240.52 233.104 240.104C233.84 239.672 234.416 239.056 234.832 238.256C235.264 237.44 235.48 236.496 235.48 235.424ZM241.355 226.424C241.019 226.424 240.731 226.304 240.491 226.064C240.251 225.824 240.131 225.528 240.131 225.176C240.131 224.824 240.251 224.536 240.491 224.312C240.731 224.072 241.019 223.952 241.355 223.952C241.691 223.952 241.979 224.072 242.219 224.312C242.459 224.536 242.579 224.824 242.579 225.176C242.579 225.528 242.459 225.824 242.219 226.064C241.979 226.304 241.691 226.424 241.355 226.424ZM242.195 228.896V242H240.515V228.896H242.195ZM248.424 230.312V238.448C248.424 239.248 248.576 239.8 248.88 240.104C249.184 240.408 249.72 240.56 250.488 240.56H252.024V242H250.224C249.04 242 248.16 241.728 247.584 241.184C247.008 240.624 246.72 239.712 246.72 238.448V230.312H244.896V228.896H246.72V225.608H248.424V228.896H252.024V230.312H248.424ZM254.266 235.448C254.266 234.088 254.538 232.904 255.082 231.896C255.626 230.872 256.378 230.088 257.338 229.544C258.298 228.984 259.394 228.704 260.626 228.704C262.242 228.704 263.57 229.104 264.61 229.904C265.666 230.704 266.346 231.792 266.65 233.168H264.85C264.626 232.224 264.138 231.488 263.386 230.96C262.65 230.416 261.73 230.144 260.626 230.144C259.746 230.144 258.954 230.344 258.25 230.744C257.546 231.144 256.986 231.744 256.57 232.544C256.17 233.328 255.97 234.296 255.97 235.448C255.97 236.6 256.17 237.576 256.57 238.376C256.986 239.176 257.546 239.776 258.25 240.176C258.954 240.576 259.746 240.776 260.626 240.776C261.73 240.776 262.65 240.512 263.386 239.984C264.138 239.44 264.626 238.688 264.85 237.728H266.65C266.346 239.072 265.666 240.152 264.61 240.968C263.554 241.784 262.226 242.192 260.626 242.192C259.394 242.192 258.298 241.92 257.338 241.376C256.378 240.816 255.626 240.032 255.082 239.024C254.538 238 254.266 236.808 254.266 235.448ZM276.233 228.656C277.225 228.656 278.113 228.864 278.897 229.28C279.697 229.696 280.321 230.336 280.769 231.2C281.233 232.048 281.465 233.088 281.465 234.32V242H279.809V234.512C279.809 233.088 279.449 232 278.729 231.248C278.025 230.496 277.057 230.12 275.825 230.12C274.561 230.12 273.553 230.52 272.801 231.32C272.049 232.12 271.673 233.296 271.673 234.848V242H269.993V224.24H271.673V231.128C272.089 230.344 272.697 229.736 273.497 229.304C274.313 228.872 275.225 228.656 276.233 228.656ZM78.1869 266.776C78.1869 267.352 78.1709 267.792 78.1389 268.096H67.2669C67.3149 269.088 67.5549 269.936 67.9869 270.64C68.4189 271.344 68.9869 271.88 69.6909 272.248C70.3949 272.6 71.1629 272.776 71.9949 272.776C73.0829 272.776 73.9949 272.512 74.7309 271.984C75.4829 271.456 75.9789 270.744 76.2189 269.848H77.9949C77.6749 271.128 76.9869 272.176 75.9309 272.992C74.8909 273.792 73.5789 274.192 71.9949 274.192C70.7629 274.192 69.6589 273.92 68.6829 273.376C67.7069 272.816 66.9389 272.032 66.3789 271.024C65.8349 270 65.5629 268.808 65.5629 267.448C65.5629 266.088 65.8349 264.896 66.3789 263.872C66.9229 262.848 67.6829 262.064 68.6589 261.52C69.6349 260.976 70.7469 260.704 71.9949 260.704C73.2429 260.704 74.3309 260.976 75.2589 261.52C76.2029 262.064 76.9229 262.8 77.4189 263.728C77.9309 264.64 78.1869 265.656 78.1869 266.776ZM76.4829 266.728C76.4989 265.752 76.2989 264.92 75.8829 264.232C75.4829 263.544 74.9309 263.024 74.2269 262.672C73.5229 262.32 72.7549 262.144 71.9229 262.144C70.6749 262.144 69.6109 262.544 68.7309 263.344C67.8509 264.144 67.3629 265.272 67.2669 266.728H76.4829ZM94.4706 260.656C96.0386 260.656 97.3186 261.144 98.3106 262.12C99.3026 263.08 99.7986 264.48 99.7986 266.32V274H98.1426V266.512C98.1426 265.088 97.7826 264 97.0626 263.248C96.3586 262.496 95.3906 262.12 94.1586 262.12C92.8946 262.12 91.8866 262.52 91.1346 263.32C90.3826 264.12 90.0066 265.296 90.0066 266.848V274H88.3266V260.896H90.0066V263.128C90.4226 262.328 91.0226 261.72 91.8066 261.304C92.5906 260.872 93.4786 260.656 94.4706 260.656ZM109.49 274.192C108.258 274.192 107.146 273.92 106.154 273.376C105.178 272.816 104.402 272.032 103.826 271.024C103.266 270 102.986 268.808 102.986 267.448C102.986 266.088 103.274 264.904 103.85 263.896C104.426 262.872 105.21 262.088 106.202 261.544C107.194 260.984 108.306 260.704 109.538 260.704C110.77 260.704 111.882 260.984 112.874 261.544C113.882 262.088 114.666 262.872 115.226 263.896C115.802 264.904 116.09 266.088 116.09 267.448C116.09 268.792 115.802 269.976 115.226 271C114.65 272.024 113.858 272.816 112.85 273.376C111.842 273.92 110.722 274.192 109.49 274.192ZM109.49 272.728C110.354 272.728 111.154 272.536 111.89 272.152C112.626 271.752 113.218 271.16 113.666 270.376C114.13 269.576 114.362 268.6 114.362 267.448C114.362 266.296 114.138 265.328 113.69 264.544C113.242 263.744 112.65 263.152 111.914 262.768C111.178 262.368 110.378 262.168 109.514 262.168C108.65 262.168 107.85 262.368 107.114 262.768C106.378 263.152 105.786 263.744 105.338 264.544C104.906 265.328 104.69 266.296 104.69 267.448C104.69 268.6 104.906 269.576 105.338 270.376C105.786 271.16 106.37 271.752 107.09 272.152C107.826 272.536 108.626 272.728 109.49 272.728ZM130.73 274.192C129.226 274.192 127.994 273.848 127.034 273.16C126.09 272.456 125.562 271.504 125.45 270.304H127.178C127.258 271.04 127.602 271.64 128.21 272.104C128.834 272.552 129.666 272.776 130.706 272.776C131.618 272.776 132.33 272.56 132.842 272.128C133.37 271.696 133.634 271.16 133.634 270.52C133.634 270.072 133.49 269.704 133.202 269.416C132.914 269.128 132.546 268.904 132.098 268.744C131.666 268.568 131.074 268.384 130.322 268.192C129.346 267.936 128.554 267.68 127.946 267.424C127.338 267.168 126.818 266.792 126.386 266.296C125.97 265.784 125.762 265.104 125.762 264.256C125.762 263.616 125.954 263.024 126.338 262.48C126.722 261.936 127.266 261.504 127.97 261.184C128.674 260.864 129.474 260.704 130.37 260.704C131.778 260.704 132.914 261.064 133.778 261.784C134.642 262.488 135.106 263.464 135.17 264.712H133.49C133.442 263.944 133.138 263.328 132.578 262.864C132.034 262.384 131.282 262.144 130.322 262.144C129.474 262.144 128.786 262.344 128.258 262.744C127.73 263.144 127.466 263.64 127.466 264.232C127.466 264.744 127.618 265.168 127.922 265.504C128.242 265.824 128.634 266.08 129.098 266.272C129.562 266.448 130.186 266.648 130.97 266.872C131.914 267.128 132.666 267.376 133.226 267.616C133.786 267.856 134.266 268.208 134.666 268.672C135.066 269.136 135.274 269.752 135.29 270.52C135.29 271.224 135.098 271.856 134.714 272.416C134.33 272.96 133.794 273.392 133.106 273.712C132.418 274.032 131.626 274.192 130.73 274.192ZM150.549 266.776C150.549 267.352 150.533 267.792 150.501 268.096H139.629C139.677 269.088 139.917 269.936 140.349 270.64C140.781 271.344 141.349 271.88 142.053 272.248C142.757 272.6 143.525 272.776 144.357 272.776C145.445 272.776 146.357 272.512 147.093 271.984C147.845 271.456 148.341 270.744 148.581 269.848H150.357C150.037 271.128 149.349 272.176 148.293 272.992C147.253 273.792 145.941 274.192 144.357 274.192C143.125 274.192 142.021 273.92 141.045 273.376C140.069 272.816 139.301 272.032 138.741 271.024C138.197 270 137.925 268.808 137.925 267.448C137.925 266.088 138.197 264.896 138.741 263.872C139.285 262.848 140.045 262.064 141.021 261.52C141.997 260.976 143.109 260.704 144.357 260.704C145.605 260.704 146.693 260.976 147.621 261.52C148.565 262.064 149.285 262.8 149.781 263.728C150.293 264.64 150.549 265.656 150.549 266.776ZM148.845 266.728C148.861 265.752 148.661 264.92 148.245 264.232C147.845 263.544 147.293 263.024 146.589 262.672C145.885 262.32 145.117 262.144 144.285 262.144C143.037 262.144 141.973 262.544 141.093 263.344C140.213 264.144 139.725 265.272 139.629 266.728H148.845ZM165.215 260.896V274H163.535V271.696C163.151 272.512 162.559 273.136 161.759 273.568C160.959 274 160.063 274.216 159.071 274.216C157.503 274.216 156.223 273.736 155.231 272.776C154.239 271.8 153.743 270.392 153.743 268.552V260.896H155.399V268.36C155.399 269.784 155.751 270.872 156.455 271.624C157.175 272.376 158.151 272.752 159.383 272.752C160.647 272.752 161.655 272.352 162.407 271.552C163.159 270.752 163.535 269.576 163.535 268.024V260.896H165.215ZM177.772 263.776C178.188 262.896 178.844 262.168 179.74 261.592C180.652 261 181.732 260.704 182.98 260.704C184.164 260.704 185.228 260.984 186.172 261.544C187.132 262.088 187.876 262.872 188.404 263.896C188.948 264.904 189.22 266.08 189.22 267.424C189.22 268.768 188.948 269.952 188.404 270.976C187.876 272 187.132 272.792 186.172 273.352C185.228 273.912 184.164 274.192 182.98 274.192C181.748 274.192 180.676 273.904 179.764 273.328C178.852 272.736 178.188 272 177.772 271.12V280.192H176.116V260.896H177.772V263.776ZM187.516 267.424C187.516 266.336 187.3 265.4 186.868 264.616C186.452 263.816 185.876 263.208 185.14 262.792C184.404 262.376 183.572 262.168 182.644 262.168C181.748 262.168 180.924 262.384 180.172 262.816C179.436 263.248 178.852 263.864 178.42 264.664C177.988 265.464 177.772 266.392 177.772 267.448C177.772 268.504 177.988 269.432 178.42 270.232C178.852 271.032 179.436 271.648 180.172 272.08C180.924 272.512 181.748 272.728 182.644 272.728C183.572 272.728 184.404 272.52 185.14 272.104C185.876 271.672 186.452 271.056 186.868 270.256C187.3 269.44 187.516 268.496 187.516 267.424ZM204.407 266.776C204.407 267.352 204.391 267.792 204.359 268.096H193.487C193.535 269.088 193.775 269.936 194.207 270.64C194.639 271.344 195.207 271.88 195.911 272.248C196.615 272.6 197.383 272.776 198.215 272.776C199.303 272.776 200.215 272.512 200.951 271.984C201.703 271.456 202.199 270.744 202.439 269.848H204.215C203.895 271.128 203.207 272.176 202.151 272.992C201.111 273.792 199.799 274.192 198.215 274.192C196.983 274.192 195.879 273.92 194.903 273.376C193.927 272.816 193.159 272.032 192.599 271.024C192.055 270 191.783 268.808 191.783 267.448C191.783 266.088 192.055 264.896 192.599 263.872C193.143 262.848 193.903 262.064 194.879 261.52C195.855 260.976 196.967 260.704 198.215 260.704C199.463 260.704 200.551 260.976 201.479 261.52C202.423 262.064 203.143 262.8 203.639 263.728C204.151 264.64 204.407 265.656 204.407 266.776ZM202.703 266.728C202.719 265.752 202.519 264.92 202.103 264.232C201.703 263.544 201.151 263.024 200.447 262.672C199.743 262.32 198.975 262.144 198.143 262.144C196.895 262.144 195.831 262.544 194.951 263.344C194.071 264.144 193.583 265.272 193.487 266.728H202.703ZM209.401 263.224C209.769 262.408 210.329 261.776 211.081 261.328C211.849 260.88 212.785 260.656 213.889 260.656V262.408H213.433C212.217 262.408 211.241 262.736 210.505 263.392C209.769 264.048 209.401 265.144 209.401 266.68V274H207.721V260.896H209.401V263.224ZM221.816 262.312H218.768V274H217.088V262.312H215.264V260.896H217.088V259.984C217.088 258.56 217.448 257.512 218.168 256.84C218.904 256.168 220.088 255.832 221.72 255.832V257.272C220.632 257.272 219.864 257.48 219.416 257.896C218.984 258.312 218.768 259.008 218.768 259.984V260.896H221.816V262.312ZM225.541 258.424C225.205 258.424 224.917 258.304 224.677 258.064C224.437 257.824 224.317 257.528 224.317 257.176C224.317 256.824 224.437 256.536 224.677 256.312C224.917 256.072 225.205 255.952 225.541 255.952C225.877 255.952 226.165 256.072 226.405 256.312C226.645 256.536 226.765 256.824 226.765 257.176C226.765 257.528 226.645 257.824 226.405 258.064C226.165 258.304 225.877 258.424 225.541 258.424ZM226.381 260.896V274H224.701V260.896H226.381ZM232.105 256.24V274H230.425V256.24H232.105ZM236.438 274.12C236.086 274.12 235.79 274 235.55 273.76C235.326 273.52 235.214 273.224 235.214 272.872C235.214 272.52 235.326 272.232 235.55 272.008C235.79 271.768 236.086 271.648 236.438 271.648C236.774 271.648 237.054 271.768 237.278 272.008C237.518 272.232 237.638 272.52 237.638 272.872C237.638 273.224 237.518 273.52 237.278 273.76C237.054 274 236.774 274.12 236.438 274.12Z" fill="#1C212F"/>
<path d="M219.734 116.811H90.6191V42.1528C90.6191 37.0977 94.7168 33 99.7719 33H210.582C215.637 33 219.734 37.0977 219.734 42.1528V116.811Z" fill="white" stroke="#88BFBF" stroke-width="0.5892" stroke-miterlimit="10"/>
<path d="M209.988 111.947H100.902C98.0299 111.947 95.6938 109.611 95.6938 106.739V42.7464C95.6938 39.8742 98.0299 37.5381 100.902 37.5381H209.988C212.861 37.5381 215.197 39.8742 215.197 42.7464V106.758C215.197 109.63 212.861 111.947 209.988 111.947Z" fill="#88BFBF"/>
<path d="M242.367 134.331C247.308 137.548 246.159 143.848 240.319 143.848H64.4247C59.5037 143.848 57.8186 137.204 62.6439 134.159L242.367 134.331Z" fill="#88BFBF" stroke="#88BFBF" stroke-width="0.5892" stroke-miterlimit="10"/>
<path d="M240.319 139.463H64.4251C61.2848 139.463 60.0402 135.768 62.6443 134.159L90.6579 116.811H219.371L242.349 134.331C244.646 136.074 243.306 139.463 240.319 139.463Z" fill="white" stroke="#88BFBF" stroke-width="0.5892" stroke-miterlimit="10"/>
<path d="M220.022 134.236H84.7218C82.3092 134.236 81.3518 131.383 83.3432 130.157L102.798 116.811H203.899L221.573 130.291C223.354 131.632 222.32 134.236 220.022 134.236Z" fill="white" stroke="#88BFBF" stroke-width="0.5892" stroke-miterlimit="10"/>
<path d="M195.148 116.811L212.841 134.236" stroke="#88BFBF" stroke-width="0.5892" stroke-miterlimit="10"/>
<path d="M185.766 116.811L201.352 134.236" stroke="#88BFBF" stroke-width="0.5892" stroke-miterlimit="10"/>
<path d="M176.996 116.811L190.514 134.236" stroke="#88BFBF" stroke-width="0.5892" stroke-miterlimit="10"/>
<path d="M167.192 116.811L178.623 134.236" stroke="#88BFBF" stroke-width="0.5892" stroke-miterlimit="10"/>
<path d="M159.054 116.811L164.626 134.236" stroke="#88BFBF" stroke-width="0.5892" stroke-miterlimit="10"/>
<path d="M111.012 116.811L93.3193 134.236" stroke="#88BFBF" stroke-width="0.5892" stroke-miterlimit="10"/>
<path d="M120.394 116.811L104.808 134.236" stroke="#88BFBF" stroke-width="0.5892" stroke-miterlimit="10"/>
<path d="M129.164 116.811L115.645 134.236" stroke="#88BFBF" stroke-width="0.5892" stroke-miterlimit="10"/>
<path d="M138.968 116.811L127.536 134.236" stroke="#88BFBF" stroke-width="0.5892" stroke-miterlimit="10"/>
<path d="M147.106 116.811L141.534 134.236" stroke="#88BFBF" stroke-width="0.5892" stroke-miterlimit="10"/>
<path d="M152.621 134.446V116.811" stroke="#88BFBF" stroke-width="0.5892" stroke-miterlimit="10"/>
<path d="M93.3193 123.321H212.458" stroke="#88BFBF" stroke-width="0.5892" stroke-miterlimit="10"/>
<path d="M200.911 111.947H104.042L105.784 99.5969C106.856 91.9951 112.313 85.7529 119.685 83.6466L143.295 78.7447H161.658L185.267 83.6466C192.659 85.7337 198.116 91.9951 199.169 99.5969L200.911 111.947Z" fill="#A0505A"/>
<path d="M159.015 92.8567L152.026 85.7911C151.873 85.6379 151.873 85.389 152.026 85.255C152.179 85.1018 152.428 85.1018 152.562 85.255L158.977 91.7462L168.934 80.468C169.068 80.3148 169.317 80.2956 169.47 80.4297C169.623 80.5637 169.642 80.8126 169.508 80.9658L159.015 92.8567Z" fill="white"/>
<path d="M146.033 92.8567L135.54 80.9658C135.406 80.8126 135.406 80.5637 135.578 80.4297C135.731 80.2956 135.98 80.2956 136.114 80.468L146.071 91.7461L152.486 85.255C152.639 85.1018 152.869 85.1018 153.022 85.255C153.175 85.4081 153.175 85.6379 153.022 85.7911L146.033 92.8567Z" fill="white"/>
<path d="M152.639 97.4714C151.72 97.4714 150.973 96.7246 150.973 95.8055C150.973 94.8864 151.72 94.1396 152.639 94.1396C153.558 94.1396 154.305 94.8864 154.305 95.8055C154.305 96.7246 153.558 97.4714 152.639 97.4714ZM152.639 94.9056C152.141 94.9056 151.739 95.3077 151.739 95.8055C151.739 96.3034 152.141 96.7055 152.639 96.7055C153.137 96.7055 153.539 96.3034 153.539 95.8055C153.539 95.3077 153.137 94.9056 152.639 94.9056Z" fill="white"/>
<path d="M152.639 106.854C151.72 106.854 150.973 106.107 150.973 105.188C150.973 104.269 151.72 103.522 152.639 103.522C153.558 103.522 154.305 104.269 154.305 105.188C154.305 106.107 153.558 106.854 152.639 106.854ZM152.639 104.288C152.141 104.288 151.739 104.69 151.739 105.188C151.739 105.686 152.141 106.088 152.639 106.088C153.137 106.088 153.539 105.686 153.539 105.188C153.539 104.69 153.137 104.288 152.639 104.288Z" fill="white"/>
<path d="M143.179 111.545H111.891L103.542 86.7676L134.83 77.8064L143.179 111.545Z" fill="white" stroke="#88BFBF" stroke-width="0.3928" stroke-miterlimit="10"/>
<path d="M113.519 89.9845H112.925C111.412 89.9845 110.187 88.759 110.187 87.2463V78.6489C110.187 78.0361 110.685 77.5383 111.298 77.5383H113.883C114.495 77.5383 114.993 78.0361 114.993 78.6489V88.491C115.012 89.3143 114.342 89.9845 113.519 89.9845Z" fill="white"/>
<path d="M113.519 89.9845H112.925C111.412 89.9845 110.187 88.759 110.187 87.2463V78.6489C110.187 78.0361 110.685 77.5383 111.298 77.5383H113.883C114.495 77.5383 114.993 78.0361 114.993 78.6489V88.491C115.012 89.3143 114.342 89.9845 113.519 89.9845Z" stroke="#88BFBF" stroke-width="0.3928" stroke-miterlimit="10" stroke-linecap="round"/>
<path d="M126.119 89.9845H126.712C128.225 89.9845 129.45 88.759 129.45 87.2463V78.6488C129.45 78.0361 128.952 77.5382 128.34 77.5382H125.736C125.123 77.5382 124.625 78.0361 124.625 78.6488V88.4909C124.625 89.3143 125.295 89.9845 126.119 89.9845Z" fill="white"/>
<path d="M118.325 90.9802H116.947C115.874 90.9802 115.013 90.1185 115.013 89.0462V78.668C115.013 78.0553 115.511 77.5574 116.123 77.5574H118.708C119.321 77.5574 119.819 78.0553 119.819 78.668V89.4866C119.819 90.31 119.149 90.9802 118.325 90.9802Z" fill="white"/>
<path d="M123.152 91.3631H122.003C120.796 91.3631 119.82 90.3866 119.82 89.1803V78.6488C119.82 78.0361 120.318 77.5382 120.93 77.5382H123.515C124.128 77.5382 124.626 78.0361 124.626 78.6488V89.8696C124.626 90.693 123.956 91.3631 123.152 91.3631Z" fill="white"/>
<path d="M126.119 89.9845H126.712C128.225 89.9845 129.45 88.759 129.45 87.2463V78.6488C129.45 78.0361 128.952 77.5382 128.34 77.5382H125.736C125.123 77.5382 124.625 78.0361 124.625 78.6488V88.4909C124.625 89.3143 125.295 89.9845 126.119 89.9845Z" stroke="#88BFBF" stroke-width="0.3928" stroke-miterlimit="10" stroke-linecap="round"/>
<path d="M118.325 90.9802H116.947C115.874 90.9802 115.013 90.1185 115.013 89.0462V78.668C115.013 78.0553 115.511 77.5574 116.123 77.5574H118.708C119.321 77.5574 119.819 78.0553 119.819 78.668V89.4866C119.819 90.31 119.149 90.9802 118.325 90.9802Z" stroke="#88BFBF" stroke-width="0.3928" stroke-miterlimit="10" stroke-linecap="round"/>
<path d="M123.152 91.3631H122.003C120.796 91.3631 119.82 90.3866 119.82 89.1803V78.6488C119.82 78.0361 120.318 77.5382 120.93 77.5382H123.515C124.128 77.5382 124.626 78.0361 124.626 78.6488V89.8696C124.626 90.693 123.956 91.3631 123.152 91.3631Z" stroke="#88BFBF" stroke-width="0.3928" stroke-miterlimit="10" stroke-linecap="round"/>
<path d="M161.676 67.4856V81.4637C161.676 83.8763 157.559 85.8486 152.485 85.8486C147.41 85.8486 143.293 83.8763 143.293 81.4637V67.4856H161.676Z" fill="white"/>
<path d="M161.676 67.4856C161.676 78.0362 154.917 81.1765 148.426 80.6212C148.407 80.6212 148.388 80.6212 148.369 80.6212C145.496 80.3531 143.313 77.9022 143.313 75.0299V67.5048H161.676V67.4856Z" fill="#88BFBF"/>
<path d="M165.946 63.8858V64.5943C165.946 66.1644 164.683 67.4282 163.113 67.4282H161.657L161.676 67.7537C161.676 72.2726 158.019 75.9299 153.5 75.9299H151.49C146.971 75.9299 143.313 72.2726 143.313 67.7537L143.333 67.4282H141.877C140.307 67.4282 139.043 66.1644 139.043 64.5943V63.8858C139.043 62.3157 140.307 61.0519 141.877 61.0519H143.735L143.945 57.5861C143.945 57.0499 144.022 56.533 144.175 56.0543C149.651 57.4138 156.066 53.8905 157.789 52.8374C159.704 53.565 161.064 55.4032 161.064 57.5669L161.274 61.0327H163.132C164.683 61.0519 165.946 62.3157 165.946 63.8858Z" fill="white"/>
<path d="M163.247 61.0519H161.255L161.045 57.5861C161.045 55.4223 159.685 53.5841 157.77 52.8565C156.047 53.8905 149.632 57.4137 144.156 56.0734C144.003 56.5521 143.926 57.0691 143.926 57.6052L143.716 61.071H142.471C142.471 61.071 139.924 48.7397 142.433 46.4802C144.29 44.8143 161.293 48.4525 163.17 51.0374C164.223 52.5118 163.247 61.0519 163.247 61.0519Z" fill="#F5E4D4"/>
<path d="M158.459 60.3051C158.402 60.3051 158.325 60.286 158.267 60.2285C158.248 60.2094 157.004 59.1945 155.012 59.1945C154.859 59.1945 154.725 59.0605 154.725 58.9073C154.725 58.7541 154.859 58.6201 155.012 58.6201C157.214 58.6201 158.574 59.7307 158.631 59.7881C158.746 59.8839 158.765 60.0754 158.67 60.1902C158.631 60.2668 158.536 60.3051 158.459 60.3051Z" fill="#88BFBF"/>
<path d="M151.183 66.241C151.145 66.241 151.107 66.241 151.088 66.2219C150.934 66.1644 150.858 65.9921 150.915 65.8581C151.452 64.4411 151.317 62.6603 150.571 61.0902C150.13 60.1328 149.498 59.4435 148.943 59.252C147.718 58.8307 145.994 59.4243 145.975 59.4243C145.822 59.4818 145.669 59.4052 145.611 59.252C145.554 59.0988 145.63 58.9456 145.784 58.8882C145.86 58.869 147.699 58.2371 149.115 58.7158C149.824 58.9648 150.552 59.7498 151.069 60.8604C151.873 62.5646 152.007 64.5177 151.432 66.0878C151.413 66.1644 151.298 66.241 151.183 66.241Z" fill="#88BFBF"/>
<path d="M154.955 69.2856C154.974 69.4388 154.84 69.5728 154.687 69.5919H154.668C154.515 69.5919 154.4 69.4771 154.381 69.3239C154.362 69.1324 154.323 68.9409 154.266 68.7686C153.442 69.1707 152.696 69.3047 152.083 69.3047C150.877 69.3047 150.149 68.8069 150.111 68.7686C149.977 68.6728 149.957 68.5005 150.034 68.3665C150.13 68.2324 150.302 68.2133 150.436 68.2899C150.474 68.309 151.087 68.7303 152.083 68.7303C152.619 68.7303 153.27 68.6154 154.017 68.2516C153.902 68.0601 153.787 67.9452 153.787 67.9452C153.672 67.8303 153.691 67.6389 153.806 67.5431C153.921 67.4474 154.113 67.4474 154.208 67.5623C154.247 67.6197 154.898 68.3473 154.955 69.2856Z" fill="#88BFBF"/>
<path d="M155.989 63.8134C156.253 63.7969 156.44 63.3558 156.407 62.828C156.374 62.3003 156.134 61.8858 155.87 61.9022C155.606 61.9187 155.419 62.3598 155.452 62.8876C155.485 63.4153 155.725 63.8298 155.989 63.8134Z" fill="#88BFBF"/>
<path d="M148.171 63.7367C148.414 63.7216 148.586 63.3157 148.556 62.8302C148.526 62.3446 148.304 61.9633 148.062 61.9784C147.819 61.9936 147.647 62.3994 147.677 62.885C147.707 63.3705 147.928 63.7518 148.171 63.7367Z" fill="#88BFBF"/>
<path d="M142.815 64.8049C142.662 64.8049 142.528 64.6709 142.528 64.5177C142.528 63.6752 141.839 63.005 141.015 63.005C140.862 63.005 140.728 62.871 140.728 62.7178C140.728 62.5646 140.862 62.4306 141.015 62.4306C142.164 62.4306 143.102 63.3688 143.102 64.5177C143.102 64.69 142.968 64.8049 142.815 64.8049Z" fill="#88BFBF"/>
<path d="M162.078 64.8049C161.925 64.8049 161.791 64.6709 161.791 64.5177C161.791 63.3688 162.729 62.4306 163.878 62.4306C164.031 62.4306 164.165 62.5646 164.165 62.7178C164.165 62.871 164.031 63.005 163.878 63.005C163.035 63.005 162.365 63.6943 162.365 64.5177C162.365 64.69 162.25 64.8049 162.078 64.8049Z" fill="#88BFBF"/>
</svg>
