<svg width="465" height="333" viewBox="0 0 465 333" fill="none" xmlns="http://www.w3.org/2000/svg">
<path d="M310.472 211.952C294.344 211.952 280.424 208.784 268.712 202.448C257.192 195.92 248.36 187.472 242.216 177.104C236.072 166.544 233 155.312 233 143.408H281.096C281.096 153.392 284.264 160.784 290.6 165.584C296.936 170.384 304.232 172.784 312.488 172.784C320.936 172.784 327.848 170.768 333.224 166.736C338.6 162.512 341.288 156.08 341.288 147.44C341.288 138.992 337.832 132.176 330.92 126.992C324.008 121.808 313.16 119.216 298.376 119.216V87.824C309.704 87.824 318.728 85.136 325.448 79.76C332.168 74.384 335.528 68.144 335.528 61.04C335.528 55.088 333.608 50.288 329.768 46.64C326.12 42.8 320.456 40.88 312.776 40.88C305.288 40.88 299.048 43.184 294.056 47.792C289.064 52.208 286.568 57.872 286.568 64.784H241.64C241.64 52.688 244.52 41.936 250.28 32.528C256.232 23.12 264.488 15.728 275.048 10.352C285.8 4.784 298.376 2 312.776 2C327.944 2 340.808 4.496 351.368 9.48801C361.928 14.48 369.992 21.2 375.56 29.648C381.128 38.096 383.912 47.504 383.912 57.872C383.912 68.24 380.744 77.072 374.408 84.368C368.264 91.664 359.816 97.328 349.064 101.36C361.736 105.584 371.624 111.92 378.728 120.368C386.024 128.624 389.672 139.28 389.672 152.336C389.672 164.048 386.504 174.416 380.168 183.44C373.832 192.272 364.712 199.28 352.808 204.464C341.096 209.456 326.984 211.952 310.472 211.952Z" fill="#F5E4D4"/>
<path d="M57.9127 194.288L54.1687 190.808C53.3527 191.048 52.4967 191.168 51.6007 191.168C50.0487 191.168 48.6407 190.808 47.3767 190.088C46.1127 189.352 45.1127 188.336 44.3767 187.04C43.6567 185.728 43.2967 184.248 43.2967 182.6C43.2967 180.952 43.6567 179.48 44.3767 178.184C45.1127 176.872 46.1127 175.856 47.3767 175.136C48.6407 174.4 50.0487 174.032 51.6007 174.032C53.1687 174.032 54.5847 174.4 55.8487 175.136C57.1127 175.856 58.1047 176.872 58.8247 178.184C59.5447 179.48 59.9047 180.952 59.9047 182.6C59.9047 184.296 59.5287 185.808 58.7767 187.136C58.0247 188.448 56.9927 189.456 55.6807 190.16L60.1687 194.288H57.9127ZM45.0247 182.6C45.0247 184.024 45.3127 185.28 45.8887 186.368C46.4647 187.44 47.2487 188.264 48.2407 188.84C49.2327 189.416 50.3527 189.704 51.6007 189.704C52.8487 189.704 53.9687 189.416 54.9607 188.84C55.9527 188.264 56.7367 187.44 57.3127 186.368C57.8887 185.28 58.1767 184.024 58.1767 182.6C58.1767 181.176 57.8887 179.928 57.3127 178.856C56.7367 177.784 55.9527 176.96 54.9607 176.384C53.9687 175.808 52.8487 175.52 51.6007 175.52C50.3527 175.52 49.2327 175.808 48.2407 176.384C47.2487 176.96 46.4647 177.784 45.8887 178.856C45.3127 179.928 45.0247 181.176 45.0247 182.6ZM74.5942 177.896V191H72.9142V188.696C72.5302 189.512 71.9382 190.136 71.1382 190.568C70.3382 191 69.4422 191.216 68.4502 191.216C66.8822 191.216 65.6022 190.736 64.6102 189.776C63.6182 188.8 63.1222 187.392 63.1222 185.552V177.896H64.7782V185.36C64.7782 186.784 65.1302 187.872 65.8342 188.624C66.5542 189.376 67.5302 189.752 68.7622 189.752C70.0262 189.752 71.0342 189.352 71.7862 188.552C72.5382 187.752 72.9142 186.576 72.9142 185.024V177.896H74.5942ZM77.9017 184.424C77.9017 183.08 78.1657 181.904 78.6937 180.896C79.2377 179.872 79.9817 179.088 80.9257 178.544C81.8857 177.984 82.9657 177.704 84.1657 177.704C85.4137 177.704 86.4857 177.992 87.3817 178.568C88.2937 179.144 88.9497 179.88 89.3497 180.776V177.896H91.0297V191H89.3497V188.096C88.9337 188.992 88.2697 189.736 87.3577 190.328C86.4617 190.904 85.3897 191.192 84.1417 191.192C82.9577 191.192 81.8857 190.912 80.9257 190.352C79.9817 189.792 79.2377 189 78.6937 187.976C78.1657 186.952 77.9017 185.768 77.9017 184.424ZM89.3497 184.448C89.3497 183.392 89.1337 182.464 88.7017 181.664C88.2697 180.864 87.6777 180.248 86.9257 179.816C86.1897 179.384 85.3737 179.168 84.4777 179.168C83.5497 179.168 82.7177 179.376 81.9817 179.792C81.2457 180.208 80.6617 180.816 80.2297 181.616C79.8137 182.4 79.6057 183.336 79.6057 184.424C79.6057 185.496 79.8137 186.44 80.2297 187.256C80.6617 188.056 81.2457 188.672 81.9817 189.104C82.7177 189.52 83.5497 189.728 84.4777 189.728C85.3737 189.728 86.1897 189.512 86.9257 189.08C87.6777 188.648 88.2697 188.032 88.7017 187.232C89.1337 186.432 89.3497 185.504 89.3497 184.448ZM101.249 177.656C102.817 177.656 104.097 178.144 105.089 179.12C106.081 180.08 106.577 181.48 106.577 183.32V191H104.921V183.512C104.921 182.088 104.561 181 103.841 180.248C103.137 179.496 102.169 179.12 100.937 179.12C99.673 179.12 98.665 179.52 97.913 180.32C97.161 181.12 96.785 182.296 96.785 183.848V191H95.105V177.896H96.785V180.128C97.201 179.328 97.801 178.72 98.585 178.304C99.369 177.872 100.257 177.656 101.249 177.656ZM109.764 184.424C109.764 183.08 110.036 181.904 110.58 180.896C111.124 179.872 111.868 179.088 112.812 178.544C113.772 177.984 114.852 177.704 116.052 177.704C117.204 177.704 118.244 177.984 119.172 178.544C120.1 179.104 120.78 179.832 121.212 180.728V173.24H122.892V191H121.212V188.072C120.812 188.984 120.156 189.736 119.244 190.328C118.332 190.904 117.26 191.192 116.028 191.192C114.828 191.192 113.748 190.912 112.788 190.352C111.844 189.792 111.1 189 110.556 187.976C110.028 186.952 109.764 185.768 109.764 184.424ZM121.212 184.448C121.212 183.392 120.996 182.464 120.564 181.664C120.132 180.864 119.54 180.248 118.788 179.816C118.052 179.384 117.236 179.168 116.34 179.168C115.412 179.168 114.58 179.376 113.844 179.792C113.108 180.208 112.524 180.816 112.092 181.616C111.676 182.4 111.468 183.336 111.468 184.424C111.468 185.496 111.676 186.44 112.092 187.256C112.524 188.056 113.108 188.672 113.844 189.104C114.58 189.52 115.412 189.728 116.34 189.728C117.236 189.728 118.052 189.512 118.788 189.08C119.54 188.648 120.132 188.032 120.564 187.232C120.996 186.432 121.212 185.504 121.212 184.448ZM132.704 191.192C131.472 191.192 130.36 190.92 129.368 190.376C128.392 189.816 127.616 189.032 127.04 188.024C126.48 187 126.2 185.808 126.2 184.448C126.2 183.088 126.488 181.904 127.064 180.896C127.64 179.872 128.424 179.088 129.416 178.544C130.408 177.984 131.52 177.704 132.752 177.704C133.984 177.704 135.096 177.984 136.088 178.544C137.096 179.088 137.88 179.872 138.44 180.896C139.016 181.904 139.304 183.088 139.304 184.448C139.304 185.792 139.016 186.976 138.44 188C137.864 189.024 137.072 189.816 136.064 190.376C135.056 190.92 133.936 191.192 132.704 191.192ZM132.704 189.728C133.568 189.728 134.368 189.536 135.104 189.152C135.84 188.752 136.432 188.16 136.88 187.376C137.344 186.576 137.576 185.6 137.576 184.448C137.576 183.296 137.352 182.328 136.904 181.544C136.456 180.744 135.864 180.152 135.128 179.768C134.392 179.368 133.592 179.168 132.728 179.168C131.864 179.168 131.064 179.368 130.328 179.768C129.592 180.152 129 180.744 128.552 181.544C128.12 182.328 127.904 183.296 127.904 184.448C127.904 185.6 128.12 186.576 128.552 187.376C129 188.16 129.584 188.752 130.304 189.152C131.04 189.536 131.84 189.728 132.704 189.728ZM161.288 183.776C161.288 184.352 161.272 184.792 161.24 185.096H150.368C150.416 186.088 150.656 186.936 151.088 187.64C151.52 188.344 152.088 188.88 152.792 189.248C153.496 189.6 154.264 189.776 155.096 189.776C156.184 189.776 157.096 189.512 157.832 188.984C158.584 188.456 159.08 187.744 159.32 186.848H161.096C160.776 188.128 160.088 189.176 159.032 189.992C157.992 190.792 156.68 191.192 155.096 191.192C153.864 191.192 152.76 190.92 151.784 190.376C150.808 189.816 150.04 189.032 149.48 188.024C148.936 187 148.664 185.808 148.664 184.448C148.664 183.088 148.936 181.896 149.48 180.872C150.024 179.848 150.784 179.064 151.76 178.52C152.736 177.976 153.848 177.704 155.096 177.704C156.344 177.704 157.432 177.976 158.36 178.52C159.304 179.064 160.024 179.8 160.52 180.728C161.032 181.64 161.288 182.656 161.288 183.776ZM159.584 183.728C159.6 182.752 159.4 181.92 158.984 181.232C158.584 180.544 158.032 180.024 157.328 179.672C156.624 179.32 155.856 179.144 155.024 179.144C153.776 179.144 152.712 179.544 151.832 180.344C150.952 181.144 150.464 182.272 150.368 183.728H159.584ZM166.282 173.24V191H164.602V173.24H166.282ZM182.182 183.776C182.182 184.352 182.166 184.792 182.134 185.096H171.262C171.31 186.088 171.55 186.936 171.982 187.64C172.414 188.344 172.982 188.88 173.686 189.248C174.39 189.6 175.158 189.776 175.99 189.776C177.078 189.776 177.99 189.512 178.726 188.984C179.478 188.456 179.974 187.744 180.214 186.848H181.99C181.67 188.128 180.982 189.176 179.926 189.992C178.886 190.792 177.574 191.192 175.99 191.192C174.758 191.192 173.654 190.92 172.678 190.376C171.702 189.816 170.934 189.032 170.374 188.024C169.83 187 169.558 185.808 169.558 184.448C169.558 183.088 169.83 181.896 170.374 180.872C170.918 179.848 171.678 179.064 172.654 178.52C173.63 177.976 174.742 177.704 175.99 177.704C177.238 177.704 178.326 177.976 179.254 178.52C180.198 179.064 180.918 179.8 181.414 180.728C181.926 181.64 182.182 182.656 182.182 183.776ZM180.478 183.728C180.494 182.752 180.294 181.92 179.878 181.232C179.478 180.544 178.926 180.024 178.222 179.672C177.518 179.32 176.75 179.144 175.918 179.144C174.67 179.144 173.606 179.544 172.726 180.344C171.846 181.144 171.358 182.272 171.262 183.728H180.478ZM191.554 184.424C191.554 183.08 191.818 181.904 192.346 180.896C192.89 179.872 193.634 179.088 194.578 178.544C195.538 177.984 196.618 177.704 197.818 177.704C199.066 177.704 200.138 177.992 201.034 178.568C201.946 179.144 202.602 179.88 203.002 180.776V177.896H204.682V191H203.002V188.096C202.586 188.992 201.922 189.736 201.01 190.328C200.114 190.904 199.042 191.192 197.794 191.192C196.61 191.192 195.538 190.912 194.578 190.352C193.634 189.792 192.89 189 192.346 187.976C191.818 186.952 191.554 185.768 191.554 184.424ZM203.002 184.448C203.002 183.392 202.786 182.464 202.354 181.664C201.922 180.864 201.33 180.248 200.578 179.816C199.842 179.384 199.026 179.168 198.13 179.168C197.202 179.168 196.37 179.376 195.634 179.792C194.898 180.208 194.314 180.816 193.882 181.616C193.466 182.4 193.258 183.336 193.258 184.424C193.258 185.496 193.466 186.44 193.882 187.256C194.314 188.056 194.898 188.672 195.634 189.104C196.37 189.52 197.202 189.728 198.13 189.728C199.026 189.728 199.842 189.512 200.578 189.08C201.33 188.648 201.922 188.032 202.354 187.232C202.786 186.432 203.002 185.504 203.002 184.448ZM207.989 184.448C207.989 183.088 208.261 181.904 208.805 180.896C209.349 179.872 210.101 179.088 211.061 178.544C212.021 177.984 213.117 177.704 214.349 177.704C215.965 177.704 217.293 178.104 218.333 178.904C219.389 179.704 220.069 180.792 220.373 182.168H218.573C218.349 181.224 217.861 180.488 217.109 179.96C216.373 179.416 215.453 179.144 214.349 179.144C213.469 179.144 212.677 179.344 211.973 179.744C211.269 180.144 210.709 180.744 210.293 181.544C209.893 182.328 209.693 183.296 209.693 184.448C209.693 185.6 209.893 186.576 210.293 187.376C210.709 188.176 211.269 188.776 211.973 189.176C212.677 189.576 213.469 189.776 214.349 189.776C215.453 189.776 216.373 189.512 217.109 188.984C217.861 188.44 218.349 187.688 218.573 186.728H220.373C220.069 188.072 219.389 189.152 218.333 189.968C217.277 190.784 215.949 191.192 214.349 191.192C213.117 191.192 212.021 190.92 211.061 190.376C210.101 189.816 209.349 189.032 208.805 188.024C208.261 187 207.989 185.808 207.989 184.448ZM235.572 183.776C235.572 184.352 235.556 184.792 235.524 185.096H224.652C224.7 186.088 224.94 186.936 225.372 187.64C225.804 188.344 226.372 188.88 227.076 189.248C227.78 189.6 228.548 189.776 229.38 189.776C230.468 189.776 231.38 189.512 232.116 188.984C232.868 188.456 233.364 187.744 233.604 186.848H235.38C235.06 188.128 234.372 189.176 233.316 189.992C232.276 190.792 230.964 191.192 229.38 191.192C228.148 191.192 227.044 190.92 226.068 190.376C225.092 189.816 224.324 189.032 223.764 188.024C223.22 187 222.948 185.808 222.948 184.448C222.948 183.088 223.22 181.896 223.764 180.872C224.308 179.848 225.068 179.064 226.044 178.52C227.02 177.976 228.132 177.704 229.38 177.704C230.628 177.704 231.716 177.976 232.644 178.52C233.588 179.064 234.308 179.8 234.804 180.728C235.316 181.64 235.572 182.656 235.572 183.776ZM233.868 183.728C233.884 182.752 233.684 181.92 233.268 181.232C232.868 180.544 232.316 180.024 231.612 179.672C230.908 179.32 230.14 179.144 229.308 179.144C228.06 179.144 226.996 179.544 226.116 180.344C225.236 181.144 224.748 182.272 224.652 183.728H233.868ZM239.726 175.424C239.39 175.424 239.102 175.304 238.862 175.064C238.622 174.824 238.502 174.528 238.502 174.176C238.502 173.824 238.622 173.536 238.862 173.312C239.102 173.072 239.39 172.952 239.726 172.952C240.062 172.952 240.35 173.072 240.59 173.312C240.83 173.536 240.95 173.824 240.95 174.176C240.95 174.528 240.83 174.824 240.59 175.064C240.35 175.304 240.062 175.424 239.726 175.424ZM240.566 177.896V191H238.886V177.896H240.566ZM246.794 179.312V187.448C246.794 188.248 246.946 188.8 247.25 189.104C247.554 189.408 248.09 189.56 248.858 189.56H250.394V191H248.594C247.41 191 246.53 190.728 245.954 190.184C245.378 189.624 245.09 188.712 245.09 187.448V179.312H243.266V177.896H245.09V174.608H246.794V177.896H250.394V179.312H246.794ZM252.637 184.424C252.637 183.08 252.901 181.904 253.429 180.896C253.973 179.872 254.717 179.088 255.661 178.544C256.621 177.984 257.701 177.704 258.901 177.704C260.149 177.704 261.221 177.992 262.117 178.568C263.029 179.144 263.685 179.88 264.085 180.776V177.896H265.765V191H264.085V188.096C263.669 188.992 263.005 189.736 262.093 190.328C261.197 190.904 260.125 191.192 258.877 191.192C257.693 191.192 256.621 190.912 255.661 190.352C254.717 189.792 253.973 189 253.429 187.976C252.901 186.952 252.637 185.768 252.637 184.424ZM264.085 184.448C264.085 183.392 263.869 182.464 263.437 181.664C263.005 180.864 262.413 180.248 261.661 179.816C260.925 179.384 260.109 179.168 259.213 179.168C258.285 179.168 257.453 179.376 256.717 179.792C255.981 180.208 255.397 180.816 254.965 181.616C254.549 182.4 254.341 183.336 254.341 184.424C254.341 185.496 254.549 186.44 254.965 187.256C255.397 188.056 255.981 188.672 256.717 189.104C257.453 189.52 258.285 189.728 259.213 189.728C260.109 189.728 260.925 189.512 261.661 189.08C262.413 188.648 263.005 188.032 263.437 187.232C263.869 186.432 264.085 185.504 264.085 184.448ZM271.52 180.224C271.888 179.408 272.448 178.776 273.2 178.328C273.968 177.88 274.904 177.656 276.008 177.656V179.408H275.552C274.336 179.408 273.36 179.736 272.624 180.392C271.888 181.048 271.52 182.144 271.52 183.68V191H269.84V177.896H271.52V180.224ZM71.9026 223.192C70.3986 223.192 69.1666 222.848 68.2066 222.16C67.2626 221.456 66.7346 220.504 66.6226 219.304H68.3506C68.4306 220.04 68.7746 220.64 69.3826 221.104C70.0066 221.552 70.8386 221.776 71.8786 221.776C72.7906 221.776 73.5026 221.56 74.0146 221.128C74.5426 220.696 74.8066 220.16 74.8066 219.52C74.8066 219.072 74.6626 218.704 74.3746 218.416C74.0866 218.128 73.7186 217.904 73.2706 217.744C72.8386 217.568 72.2466 217.384 71.4946 217.192C70.5186 216.936 69.7266 216.68 69.1186 216.424C68.5106 216.168 67.9906 215.792 67.5586 215.296C67.1426 214.784 66.9346 214.104 66.9346 213.256C66.9346 212.616 67.1266 212.024 67.5106 211.48C67.8946 210.936 68.4386 210.504 69.1426 210.184C69.8466 209.864 70.6466 209.704 71.5426 209.704C72.9506 209.704 74.0866 210.064 74.9506 210.784C75.8146 211.488 76.2786 212.464 76.3426 213.712H74.6626C74.6146 212.944 74.3106 212.328 73.7506 211.864C73.2066 211.384 72.4546 211.144 71.4946 211.144C70.6466 211.144 69.9586 211.344 69.4306 211.744C68.9026 212.144 68.6386 212.64 68.6386 213.232C68.6386 213.744 68.7906 214.168 69.0946 214.504C69.4146 214.824 69.8066 215.08 70.2706 215.272C70.7346 215.448 71.3586 215.648 72.1426 215.872C73.0866 216.128 73.8386 216.376 74.3986 216.616C74.9586 216.856 75.4386 217.208 75.8386 217.672C76.2386 218.136 76.4466 218.752 76.4626 219.52C76.4626 220.224 76.2706 220.856 75.8866 221.416C75.5026 221.96 74.9666 222.392 74.2786 222.712C73.5906 223.032 72.7986 223.192 71.9026 223.192ZM91.217 209.896V223H89.537V220.696C89.153 221.512 88.561 222.136 87.761 222.568C86.961 223 86.065 223.216 85.073 223.216C83.505 223.216 82.225 222.736 81.233 221.776C80.241 220.8 79.745 219.392 79.745 217.552V209.896H81.401V217.36C81.401 218.784 81.753 219.872 82.457 220.624C83.177 221.376 84.153 221.752 85.385 221.752C86.649 221.752 87.657 221.352 88.409 220.552C89.161 219.752 89.537 218.576 89.537 217.024V209.896H91.217ZM94.5245 216.424C94.5245 215.08 94.7885 213.904 95.3165 212.896C95.8605 211.872 96.6045 211.088 97.5485 210.544C98.5085 209.984 99.5885 209.704 100.788 209.704C102.036 209.704 103.108 209.992 104.004 210.568C104.916 211.144 105.572 211.88 105.972 212.776V209.896H107.652V223H105.972V220.096C105.556 220.992 104.892 221.736 103.98 222.328C103.084 222.904 102.012 223.192 100.764 223.192C99.5805 223.192 98.5085 222.912 97.5485 222.352C96.6045 221.792 95.8605 221 95.3165 219.976C94.7885 218.952 94.5245 217.768 94.5245 216.424ZM105.972 216.448C105.972 215.392 105.756 214.464 105.324 213.664C104.892 212.864 104.3 212.248 103.548 211.816C102.812 211.384 101.996 211.168 101.1 211.168C100.172 211.168 99.3405 211.376 98.6045 211.792C97.8685 212.208 97.2845 212.816 96.8525 213.616C96.4365 214.4 96.2285 215.336 96.2285 216.424C96.2285 217.496 96.4365 218.44 96.8525 219.256C97.2845 220.056 97.8685 220.672 98.6045 221.104C99.3405 221.52 100.172 221.728 101.1 221.728C101.996 221.728 102.812 221.512 103.548 221.08C104.3 220.648 104.892 220.032 105.324 219.232C105.756 218.432 105.972 217.504 105.972 216.448ZM123.066 223.192C121.562 223.192 120.33 222.848 119.37 222.16C118.426 221.456 117.898 220.504 117.786 219.304H119.514C119.594 220.04 119.938 220.64 120.546 221.104C121.17 221.552 122.002 221.776 123.042 221.776C123.954 221.776 124.666 221.56 125.178 221.128C125.706 220.696 125.97 220.16 125.97 219.52C125.97 219.072 125.826 218.704 125.538 218.416C125.25 218.128 124.882 217.904 124.434 217.744C124.002 217.568 123.41 217.384 122.658 217.192C121.682 216.936 120.89 216.68 120.282 216.424C119.674 216.168 119.154 215.792 118.722 215.296C118.306 214.784 118.098 214.104 118.098 213.256C118.098 212.616 118.29 212.024 118.674 211.48C119.058 210.936 119.602 210.504 120.306 210.184C121.01 209.864 121.81 209.704 122.706 209.704C124.114 209.704 125.25 210.064 126.114 210.784C126.978 211.488 127.442 212.464 127.506 213.712H125.826C125.778 212.944 125.474 212.328 124.914 211.864C124.37 211.384 123.618 211.144 122.658 211.144C121.81 211.144 121.122 211.344 120.594 211.744C120.066 212.144 119.802 212.64 119.802 213.232C119.802 213.744 119.954 214.168 120.258 214.504C120.578 214.824 120.97 215.08 121.434 215.272C121.898 215.448 122.522 215.648 123.306 215.872C124.25 216.128 125.002 216.376 125.562 216.616C126.122 216.856 126.602 217.208 127.002 217.672C127.402 218.136 127.61 218.752 127.626 219.52C127.626 220.224 127.434 220.856 127.05 221.416C126.666 221.96 126.13 222.392 125.442 222.712C124.754 223.032 123.962 223.192 123.066 223.192ZM136.764 223.192C135.532 223.192 134.42 222.92 133.428 222.376C132.452 221.816 131.676 221.032 131.1 220.024C130.54 219 130.26 217.808 130.26 216.448C130.26 215.088 130.548 213.904 131.124 212.896C131.7 211.872 132.484 211.088 133.476 210.544C134.468 209.984 135.58 209.704 136.812 209.704C138.044 209.704 139.156 209.984 140.148 210.544C141.156 211.088 141.94 211.872 142.5 212.896C143.076 213.904 143.364 215.088 143.364 216.448C143.364 217.792 143.076 218.976 142.5 220C141.924 221.024 141.132 221.816 140.124 222.376C139.116 222.92 137.996 223.192 136.764 223.192ZM136.764 221.728C137.628 221.728 138.428 221.536 139.164 221.152C139.9 220.752 140.492 220.16 140.94 219.376C141.404 218.576 141.636 217.6 141.636 216.448C141.636 215.296 141.412 214.328 140.964 213.544C140.516 212.744 139.924 212.152 139.188 211.768C138.452 211.368 137.652 211.168 136.788 211.168C135.924 211.168 135.124 211.368 134.388 211.768C133.652 212.152 133.06 212.744 132.612 213.544C132.18 214.328 131.964 215.296 131.964 216.448C131.964 217.6 132.18 218.576 132.612 219.376C133.06 220.16 133.644 220.752 134.364 221.152C135.1 221.536 135.9 221.728 136.764 221.728ZM148.347 205.24V223H146.667V205.24H148.347ZM153.231 207.424C152.895 207.424 152.607 207.304 152.367 207.064C152.127 206.824 152.007 206.528 152.007 206.176C152.007 205.824 152.127 205.536 152.367 205.312C152.607 205.072 152.895 204.952 153.231 204.952C153.567 204.952 153.855 205.072 154.095 205.312C154.335 205.536 154.455 205.824 154.455 206.176C154.455 206.528 154.335 206.824 154.095 207.064C153.855 207.304 153.567 207.424 153.231 207.424ZM154.071 209.896V223H152.391V209.896H154.071ZM157.347 216.448C157.347 215.088 157.619 213.904 158.163 212.896C158.707 211.872 159.459 211.088 160.419 210.544C161.379 209.984 162.475 209.704 163.707 209.704C165.323 209.704 166.651 210.104 167.691 210.904C168.747 211.704 169.427 212.792 169.731 214.168H167.931C167.707 213.224 167.219 212.488 166.467 211.96C165.731 211.416 164.811 211.144 163.707 211.144C162.827 211.144 162.035 211.344 161.331 211.744C160.627 212.144 160.067 212.744 159.651 213.544C159.251 214.328 159.051 215.296 159.051 216.448C159.051 217.6 159.251 218.576 159.651 219.376C160.067 220.176 160.627 220.776 161.331 221.176C162.035 221.576 162.827 221.776 163.707 221.776C164.811 221.776 165.731 221.512 166.467 220.984C167.219 220.44 167.707 219.688 167.931 218.728H169.731C169.427 220.072 168.747 221.152 167.691 221.968C166.635 222.784 165.307 223.192 163.707 223.192C162.475 223.192 161.379 222.92 160.419 222.376C159.459 221.816 158.707 221.032 158.163 220.024C157.619 219 157.347 217.808 157.347 216.448ZM173.914 207.424C173.578 207.424 173.29 207.304 173.05 207.064C172.81 206.824 172.69 206.528 172.69 206.176C172.69 205.824 172.81 205.536 173.05 205.312C173.29 205.072 173.578 204.952 173.914 204.952C174.25 204.952 174.538 205.072 174.778 205.312C175.018 205.536 175.138 205.824 175.138 206.176C175.138 206.528 175.018 206.824 174.778 207.064C174.538 207.304 174.25 207.424 173.914 207.424ZM174.754 209.896V223H173.074V209.896H174.754ZM180.982 211.312V219.448C180.982 220.248 181.134 220.8 181.438 221.104C181.742 221.408 182.278 221.56 183.046 221.56H184.582V223H182.782C181.598 223 180.718 222.728 180.142 222.184C179.566 221.624 179.278 220.712 179.278 219.448V211.312H177.454V209.896H179.278V206.608H180.982V209.896H184.582V211.312H180.982ZM186.825 216.424C186.825 215.08 187.089 213.904 187.617 212.896C188.161 211.872 188.905 211.088 189.849 210.544C190.809 209.984 191.889 209.704 193.089 209.704C194.337 209.704 195.409 209.992 196.305 210.568C197.217 211.144 197.873 211.88 198.273 212.776V209.896H199.953V223H198.273V220.096C197.857 220.992 197.193 221.736 196.281 222.328C195.385 222.904 194.313 223.192 193.065 223.192C191.881 223.192 190.809 222.912 189.849 222.352C188.905 221.792 188.161 221 187.617 219.976C187.089 218.952 186.825 217.768 186.825 216.424ZM198.273 216.448C198.273 215.392 198.057 214.464 197.625 213.664C197.193 212.864 196.601 212.248 195.849 211.816C195.113 211.384 194.297 211.168 193.401 211.168C192.473 211.168 191.641 211.376 190.905 211.792C190.169 212.208 189.585 212.816 189.153 213.616C188.737 214.4 188.529 215.336 188.529 216.424C188.529 217.496 188.737 218.44 189.153 219.256C189.585 220.056 190.169 220.672 190.905 221.104C191.641 221.52 192.473 221.728 193.401 221.728C194.297 221.728 195.113 221.512 195.849 221.08C196.601 220.648 197.193 220.032 197.625 219.232C198.057 218.432 198.273 217.504 198.273 216.448ZM209.62 221.776C210.724 221.776 211.644 221.512 212.38 220.984C213.132 220.44 213.62 219.688 213.844 218.728H215.644C215.356 219.992 214.732 221.024 213.772 221.824C212.828 222.624 211.628 223.072 210.172 223.168V224.608C211.116 224.576 211.86 224.752 212.404 225.136C212.964 225.536 213.244 226.104 213.244 226.84C213.244 227.56 212.988 228.128 212.476 228.544C211.964 228.976 211.284 229.192 210.436 229.192H208.036V228.064H210.1C210.692 228.064 211.124 227.96 211.396 227.752C211.684 227.56 211.828 227.256 211.828 226.84C211.828 226.072 211.252 225.688 210.1 225.688H208.996V223.168C207.876 223.072 206.884 222.744 206.02 222.184C205.156 221.608 204.476 220.832 203.98 219.856C203.5 218.864 203.26 217.728 203.26 216.448C203.26 215.088 203.532 213.904 204.076 212.896C204.62 211.872 205.372 211.088 206.332 210.544C207.292 209.984 208.388 209.704 209.62 209.704C211.236 209.704 212.564 210.104 213.604 210.904C214.66 211.704 215.34 212.792 215.644 214.168H213.844C213.62 213.224 213.132 212.488 212.38 211.96C211.644 211.416 210.724 211.144 209.62 211.144C208.74 211.144 207.948 211.344 207.244 211.744C206.54 212.144 205.98 212.744 205.564 213.544C205.164 214.328 204.964 215.296 204.964 216.448C204.964 217.6 205.164 218.576 205.564 219.376C205.98 220.176 206.54 220.776 207.244 221.176C207.948 221.576 208.74 221.776 209.62 221.776ZM218.219 216.424C218.219 215.08 218.483 213.904 219.011 212.896C219.555 211.872 220.299 211.088 221.243 210.544C222.203 209.984 223.283 209.704 224.483 209.704C225.731 209.704 226.803 209.992 227.699 210.568C228.611 211.144 229.267 211.88 229.667 212.776V209.896H231.347V223H229.667V220.096C229.251 220.992 228.587 221.736 227.675 222.328C226.779 222.904 225.707 223.192 224.459 223.192C223.275 223.192 222.203 222.912 221.243 222.352C220.299 221.792 219.555 221 219.011 219.976C218.483 218.952 218.219 217.768 218.219 216.424ZM229.667 216.448C229.667 215.392 229.451 214.464 229.019 213.664C228.587 212.864 227.995 212.248 227.243 211.816C226.507 211.384 225.691 211.168 224.795 211.168C223.867 211.168 223.035 211.376 222.299 211.792C221.563 212.208 220.979 212.816 220.547 213.616C220.131 214.4 219.923 215.336 219.923 216.424C219.923 217.496 220.131 218.44 220.547 219.256C220.979 220.056 221.563 220.672 222.299 221.104C223.035 221.52 223.867 221.728 224.795 221.728C225.691 221.728 226.507 221.512 227.243 221.08C227.995 220.648 228.587 220.032 229.019 219.232C229.451 218.432 229.667 217.504 229.667 216.448ZM222.035 208.456C222.131 207.736 222.363 207.184 222.731 206.8C223.099 206.416 223.571 206.224 224.147 206.224C224.435 206.224 224.683 206.28 224.891 206.392C225.099 206.488 225.347 206.632 225.635 206.824C225.875 207 226.083 207.136 226.259 207.232C226.435 207.312 226.627 207.352 226.835 207.352C227.107 207.352 227.339 207.264 227.531 207.088C227.723 206.896 227.843 206.624 227.891 206.272H228.899C228.835 206.976 228.603 207.528 228.203 207.928C227.819 208.312 227.339 208.504 226.763 208.504C226.459 208.504 226.195 208.456 225.971 208.36C225.763 208.248 225.515 208.088 225.227 207.88C225.003 207.704 224.803 207.576 224.627 207.496C224.467 207.416 224.283 207.376 224.075 207.376C223.499 207.376 223.163 207.736 223.067 208.456H222.035ZM241.159 223.192C239.927 223.192 238.815 222.92 237.823 222.376C236.847 221.816 236.071 221.032 235.495 220.024C234.935 219 234.655 217.808 234.655 216.448C234.655 215.088 234.943 213.904 235.519 212.896C236.095 211.872 236.879 211.088 237.871 210.544C238.863 209.984 239.975 209.704 241.207 209.704C242.439 209.704 243.551 209.984 244.543 210.544C245.551 211.088 246.335 211.872 246.895 212.896C247.471 213.904 247.759 215.088 247.759 216.448C247.759 217.792 247.471 218.976 246.895 220C246.319 221.024 245.527 221.816 244.519 222.376C243.511 222.92 242.391 223.192 241.159 223.192ZM241.159 221.728C242.023 221.728 242.823 221.536 243.559 221.152C244.295 220.752 244.887 220.16 245.335 219.376C245.799 218.576 246.031 217.6 246.031 216.448C246.031 215.296 245.807 214.328 245.359 213.544C244.911 212.744 244.319 212.152 243.583 211.768C242.847 211.368 242.047 211.168 241.183 211.168C240.319 211.168 239.519 211.368 238.783 211.768C238.047 212.152 237.455 212.744 237.007 213.544C236.575 214.328 236.359 215.296 236.359 216.448C236.359 217.6 236.575 218.576 237.007 219.376C237.455 220.16 238.039 220.752 238.759 221.152C239.495 221.536 240.295 221.728 241.159 221.728ZM252.597 220.216L250.101 226.504H248.949L250.725 220.216H252.597ZM217.744 270.224L217.528 282.56H216.112L215.92 270.224H217.744ZM216.904 287.12C216.552 287.12 216.256 287 216.016 286.76C215.792 286.52 215.68 286.224 215.68 285.872C215.68 285.52 215.792 285.232 216.016 285.008C216.256 284.768 216.552 284.648 216.904 284.648C217.24 284.648 217.52 284.768 217.744 285.008C217.984 285.232 218.104 285.52 218.104 285.872C218.104 286.224 217.984 286.52 217.744 286.76C217.52 287 217.24 287.12 216.904 287.12Z" fill="#1C212F"/>
<path d="M46.7323 241.464C48.3963 241.464 49.7163 241.968 50.6923 242.976C51.6843 243.984 52.1803 245.384 52.1803 247.176V255H48.1003V247.728C48.1003 246.864 47.8683 246.2 47.4043 245.736C46.9563 245.256 46.3323 245.016 45.5323 245.016C44.7323 245.016 44.1003 245.256 43.6363 245.736C43.1883 246.2 42.9643 246.864 42.9643 247.728V255H38.8843V247.728C38.8843 246.864 38.6523 246.2 38.1883 245.736C37.7403 245.256 37.1163 245.016 36.3163 245.016C35.5163 245.016 34.8843 245.256 34.4203 245.736C33.9723 246.2 33.7483 246.864 33.7483 247.728V255H29.6443V241.608H33.7483V243.288C34.1643 242.728 34.7083 242.288 35.3803 241.968C36.0523 241.632 36.8123 241.464 37.6603 241.464C38.6683 241.464 39.5643 241.68 40.3483 242.112C41.1483 242.544 41.7723 243.16 42.2203 243.96C42.6843 243.224 43.3163 242.624 44.1163 242.16C44.9163 241.696 45.7883 241.464 46.7323 241.464ZM54.2345 248.28C54.2345 246.904 54.4905 245.696 55.0025 244.656C55.5305 243.616 56.2425 242.816 57.1385 242.256C58.0345 241.696 59.0345 241.416 60.1385 241.416C61.0825 241.416 61.9065 241.608 62.6105 241.992C63.3305 242.376 63.8825 242.88 64.2665 243.504V241.608H68.3705V255H64.2665V253.104C63.8665 253.728 63.3065 254.232 62.5865 254.616C61.8825 255 61.0585 255.192 60.1145 255.192C59.0265 255.192 58.0345 254.912 57.1385 254.352C56.2425 253.776 55.5305 252.968 55.0025 251.928C54.4905 250.872 54.2345 249.656 54.2345 248.28ZM64.2665 248.304C64.2665 247.28 63.9785 246.472 63.4025 245.88C62.8425 245.288 62.1545 244.992 61.3385 244.992C60.5225 244.992 59.8265 245.288 59.2505 245.88C58.6905 246.456 58.4105 247.256 58.4105 248.28C58.4105 249.304 58.6905 250.12 59.2505 250.728C59.8265 251.32 60.5225 251.616 61.3385 251.616C62.1545 251.616 62.8425 251.32 63.4025 250.728C63.9785 250.136 64.2665 249.328 64.2665 248.304ZM75.4436 243.84C75.9236 243.104 76.5236 242.528 77.2436 242.112C77.9636 241.68 78.7636 241.464 79.6436 241.464V245.808H78.5156C77.4916 245.808 76.7236 246.032 76.2116 246.48C75.6996 246.912 75.4436 247.68 75.4436 248.784V255H71.3396V241.608H75.4436V243.84ZM80.7892 248.328C80.7892 247 81.0612 245.816 81.6052 244.776C82.1652 243.736 82.9092 242.928 83.8372 242.352C84.7812 241.76 85.8052 241.464 86.9092 241.464C87.7572 241.464 88.5172 241.616 89.1892 241.92C89.8612 242.208 90.4052 242.616 90.8212 243.144V241.608H94.9252V261.384H90.8212V253.32C90.3572 253.88 89.7892 254.328 89.1172 254.664C88.4612 255 87.7092 255.168 86.8612 255.168C85.7732 255.168 84.7652 254.88 83.8372 254.304C82.9092 253.728 82.1652 252.92 81.6052 251.88C81.0612 250.84 80.7892 249.656 80.7892 248.328ZM90.8212 248.304C90.8212 247.584 90.6772 246.984 90.3892 246.504C90.1172 246.008 89.7572 245.64 89.3092 245.4C88.8612 245.144 88.3892 245.016 87.8932 245.016C87.4132 245.016 86.9492 245.144 86.5012 245.4C86.0532 245.64 85.6852 246.008 85.3972 246.504C85.1092 247 84.9652 247.608 84.9652 248.328C84.9652 249.048 85.1092 249.656 85.3972 250.152C85.6852 250.632 86.0532 251 86.5012 251.256C86.9492 251.496 87.4132 251.616 87.8932 251.616C88.3732 251.616 88.8372 251.496 89.2852 251.256C89.7492 251 90.1172 250.624 90.3892 250.128C90.6772 249.632 90.8212 249.024 90.8212 248.304ZM111.118 241.608V255H107.014V253.176C106.598 253.768 106.03 254.248 105.31 254.616C104.606 254.968 103.822 255.144 102.958 255.144C101.934 255.144 101.03 254.92 100.246 254.472C99.4623 254.008 98.8543 253.344 98.4223 252.48C97.9903 251.616 97.7743 250.6 97.7743 249.432V241.608H101.854V248.88C101.854 249.776 102.086 250.472 102.55 250.968C103.014 251.464 103.638 251.712 104.422 251.712C105.222 251.712 105.854 251.464 106.318 250.968C106.782 250.472 107.014 249.776 107.014 248.88V241.608H111.118ZM126.69 248.088C126.69 248.472 126.666 248.872 126.618 249.288H117.33C117.394 250.12 117.658 250.76 118.122 251.208C118.602 251.64 119.186 251.856 119.874 251.856C120.898 251.856 121.61 251.424 122.01 250.56H126.378C126.154 251.44 125.746 252.232 125.154 252.936C124.578 253.64 123.85 254.192 122.97 254.592C122.09 254.992 121.106 255.192 120.018 255.192C118.706 255.192 117.538 254.912 116.514 254.352C115.49 253.792 114.69 252.992 114.114 251.952C113.538 250.912 113.25 249.696 113.25 248.304C113.25 246.912 113.53 245.696 114.09 244.656C114.666 243.616 115.466 242.816 116.49 242.256C117.514 241.696 118.69 241.416 120.018 241.416C121.314 241.416 122.466 241.688 123.474 242.232C124.482 242.776 125.266 243.552 125.826 244.56C126.402 245.568 126.69 246.744 126.69 248.088ZM122.49 247.008C122.49 246.304 122.25 245.744 121.77 245.328C121.29 244.912 120.69 244.704 119.97 244.704C119.282 244.704 118.698 244.904 118.218 245.304C117.754 245.704 117.466 246.272 117.354 247.008H122.49ZM139.389 255.192C138.221 255.192 137.181 254.992 136.269 254.592C135.357 254.192 134.637 253.648 134.109 252.96C133.581 252.256 133.285 251.472 133.221 250.608H137.277C137.325 251.072 137.541 251.448 137.925 251.736C138.309 252.024 138.781 252.168 139.341 252.168C139.853 252.168 140.245 252.072 140.517 251.88C140.805 251.672 140.949 251.408 140.949 251.088C140.949 250.704 140.749 250.424 140.349 250.248C139.949 250.056 139.301 249.848 138.405 249.624C137.445 249.4 136.645 249.168 136.005 248.928C135.365 248.672 134.813 248.28 134.349 247.752C133.885 247.208 133.653 246.48 133.653 245.568C133.653 244.8 133.861 244.104 134.277 243.48C134.709 242.84 135.333 242.336 136.149 241.968C136.981 241.6 137.965 241.416 139.101 241.416C140.781 241.416 142.101 241.832 143.061 242.664C144.037 243.496 144.597 244.6 144.741 245.976H140.949C140.885 245.512 140.677 245.144 140.325 244.872C139.989 244.6 139.541 244.464 138.981 244.464C138.501 244.464 138.133 244.56 137.877 244.752C137.621 244.928 137.493 245.176 137.493 245.496C137.493 245.88 137.693 246.168 138.093 246.36C138.509 246.552 139.149 246.744 140.013 246.936C141.005 247.192 141.813 247.448 142.437 247.704C143.061 247.944 143.605 248.344 144.069 248.904C144.549 249.448 144.797 250.184 144.813 251.112C144.813 251.896 144.589 252.6 144.141 253.224C143.709 253.832 143.077 254.312 142.245 254.664C141.429 255.016 140.477 255.192 139.389 255.192ZM160.548 241.608V255H156.444V253.176C156.028 253.768 155.46 254.248 154.74 254.616C154.036 254.968 153.252 255.144 152.388 255.144C151.364 255.144 150.46 254.92 149.676 254.472C148.892 254.008 148.284 253.344 147.852 252.48C147.42 251.616 147.204 250.6 147.204 249.432V241.608H151.284V248.88C151.284 249.776 151.516 250.472 151.98 250.968C152.444 251.464 153.068 251.712 153.852 251.712C154.652 251.712 155.284 251.464 155.748 250.968C156.212 250.472 156.444 249.776 156.444 248.88V241.608H160.548ZM162.68 248.28C162.68 246.904 162.936 245.696 163.448 244.656C163.976 243.616 164.688 242.816 165.584 242.256C166.48 241.696 167.48 241.416 168.584 241.416C169.528 241.416 170.352 241.608 171.056 241.992C171.776 242.376 172.328 242.88 172.712 243.504V241.608H176.816V255H172.712V253.104C172.312 253.728 171.752 254.232 171.032 254.616C170.328 255 169.504 255.192 168.56 255.192C167.472 255.192 166.48 254.912 165.584 254.352C164.688 253.776 163.976 252.968 163.448 251.928C162.936 250.872 162.68 249.656 162.68 248.28ZM172.712 248.304C172.712 247.28 172.424 246.472 171.848 245.88C171.288 245.288 170.6 244.992 169.784 244.992C168.968 244.992 168.272 245.288 167.696 245.88C167.136 246.456 166.856 247.256 166.856 248.28C166.856 249.304 167.136 250.12 167.696 250.728C168.272 251.32 168.968 251.616 169.784 251.616C170.6 251.616 171.288 251.32 171.848 250.728C172.424 250.136 172.712 249.328 172.712 248.304ZM188.975 243.504C189.375 242.88 189.927 242.376 190.631 241.992C191.335 241.608 192.159 241.416 193.103 241.416C194.207 241.416 195.207 241.696 196.103 242.256C196.999 242.816 197.703 243.616 198.215 244.656C198.743 245.696 199.007 246.904 199.007 248.28C199.007 249.656 198.743 250.872 198.215 251.928C197.703 252.968 196.999 253.776 196.103 254.352C195.207 254.912 194.207 255.192 193.103 255.192C192.175 255.192 191.351 255 190.631 254.616C189.927 254.232 189.375 253.736 188.975 253.128V261.384H184.871V241.608H188.975V243.504ZM194.831 248.28C194.831 247.256 194.543 246.456 193.967 245.88C193.407 245.288 192.711 244.992 191.879 244.992C191.063 244.992 190.367 245.288 189.791 245.88C189.231 246.472 188.951 247.28 188.951 248.304C188.951 249.328 189.231 250.136 189.791 250.728C190.367 251.32 191.063 251.616 191.879 251.616C192.695 251.616 193.391 251.32 193.967 250.728C194.543 250.12 194.831 249.304 194.831 248.28ZM205.264 243.84C205.744 243.104 206.344 242.528 207.064 242.112C207.784 241.68 208.584 241.464 209.464 241.464V245.808H208.336C207.312 245.808 206.544 246.032 206.032 246.48C205.52 246.912 205.264 247.68 205.264 248.784V255H201.16V241.608H205.264V243.84ZM213.49 240.216C212.77 240.216 212.178 240.008 211.714 239.592C211.266 239.16 211.042 238.632 211.042 238.008C211.042 237.368 211.266 236.84 211.714 236.424C212.178 235.992 212.77 235.776 213.49 235.776C214.194 235.776 214.77 235.992 215.218 236.424C215.682 236.84 215.914 237.368 215.914 238.008C215.914 238.632 215.682 239.16 215.218 239.592C214.77 240.008 214.194 240.216 213.49 240.216ZM215.53 241.608V255H211.426V241.608H215.53ZM235.592 241.464C237.256 241.464 238.576 241.968 239.552 242.976C240.544 243.984 241.04 245.384 241.04 247.176V255H236.96V247.728C236.96 246.864 236.728 246.2 236.264 245.736C235.816 245.256 235.192 245.016 234.392 245.016C233.592 245.016 232.96 245.256 232.496 245.736C232.048 246.2 231.824 246.864 231.824 247.728V255H227.744V247.728C227.744 246.864 227.512 246.2 227.048 245.736C226.6 245.256 225.976 245.016 225.176 245.016C224.376 245.016 223.744 245.256 223.28 245.736C222.832 246.2 222.608 246.864 222.608 247.728V255H218.504V241.608H222.608V243.288C223.024 242.728 223.568 242.288 224.24 241.968C224.912 241.632 225.672 241.464 226.52 241.464C227.528 241.464 228.424 241.68 229.208 242.112C230.008 242.544 230.632 243.16 231.08 243.96C231.544 243.224 232.176 242.624 232.976 242.16C233.776 241.696 234.648 241.464 235.592 241.464ZM256.534 248.088C256.534 248.472 256.51 248.872 256.462 249.288H247.174C247.238 250.12 247.502 250.76 247.966 251.208C248.446 251.64 249.03 251.856 249.718 251.856C250.742 251.856 251.454 251.424 251.854 250.56H256.222C255.998 251.44 255.59 252.232 254.998 252.936C254.422 253.64 253.694 254.192 252.814 254.592C251.934 254.992 250.95 255.192 249.862 255.192C248.55 255.192 247.382 254.912 246.358 254.352C245.334 253.792 244.534 252.992 243.958 251.952C243.382 250.912 243.094 249.696 243.094 248.304C243.094 246.912 243.374 245.696 243.934 244.656C244.51 243.616 245.31 242.816 246.334 242.256C247.358 241.696 248.534 241.416 249.862 241.416C251.158 241.416 252.31 241.688 253.318 242.232C254.326 242.776 255.11 243.552 255.67 244.56C256.246 245.568 256.534 246.744 256.534 248.088ZM252.334 247.008C252.334 246.304 252.094 245.744 251.614 245.328C251.134 244.912 250.534 244.704 249.814 244.704C249.126 244.704 248.542 244.904 248.062 245.304C247.598 245.704 247.31 246.272 247.198 247.008H252.334ZM260.763 240.216C260.043 240.216 259.451 240.008 258.987 239.592C258.539 239.16 258.315 238.632 258.315 238.008C258.315 237.368 258.539 236.84 258.987 236.424C259.451 235.992 260.043 235.776 260.763 235.776C261.467 235.776 262.043 235.992 262.491 236.424C262.955 236.84 263.187 237.368 263.187 238.008C263.187 238.632 262.955 239.16 262.491 239.592C262.043 240.008 261.467 240.216 260.763 240.216ZM262.803 241.608V255H258.699V241.608H262.803ZM269.881 243.84C270.361 243.104 270.961 242.528 271.681 242.112C272.401 241.68 273.201 241.464 274.081 241.464V245.808H272.953C271.929 245.808 271.161 246.032 270.649 246.48C270.137 246.912 269.881 247.68 269.881 248.784V255H265.777V241.608H269.881V243.84ZM275.227 248.28C275.227 246.904 275.483 245.696 275.995 244.656C276.523 243.616 277.235 242.816 278.131 242.256C279.027 241.696 280.027 241.416 281.131 241.416C282.075 241.416 282.899 241.608 283.603 241.992C284.323 242.376 284.875 242.88 285.259 243.504V241.608H289.363V255H285.259V253.104C284.859 253.728 284.299 254.232 283.579 254.616C282.875 255 282.051 255.192 281.107 255.192C280.019 255.192 279.027 254.912 278.131 254.352C277.235 253.776 276.523 252.968 275.995 251.928C275.483 250.872 275.227 249.656 275.227 248.28ZM285.259 248.304C285.259 247.28 284.971 246.472 284.395 245.88C283.835 245.288 283.147 244.992 282.331 244.992C281.515 244.992 280.819 245.288 280.243 245.88C279.683 246.456 279.403 247.256 279.403 248.28C279.403 249.304 279.683 250.12 280.243 250.728C280.819 251.32 281.515 251.616 282.331 251.616C283.147 251.616 283.835 251.32 284.395 250.728C284.971 250.136 285.259 249.328 285.259 248.304ZM117.112 273.464C118.776 273.464 120.096 273.968 121.072 274.976C122.064 275.984 122.56 277.384 122.56 279.176V287H118.48V279.728C118.48 278.864 118.248 278.2 117.784 277.736C117.336 277.256 116.712 277.016 115.912 277.016C115.112 277.016 114.48 277.256 114.016 277.736C113.568 278.2 113.344 278.864 113.344 279.728V287H109.264V279.728C109.264 278.864 109.032 278.2 108.568 277.736C108.12 277.256 107.496 277.016 106.696 277.016C105.896 277.016 105.264 277.256 104.8 277.736C104.352 278.2 104.128 278.864 104.128 279.728V287H100.024V273.608H104.128V275.288C104.544 274.728 105.088 274.288 105.76 273.968C106.432 273.632 107.192 273.464 108.04 273.464C109.048 273.464 109.944 273.68 110.728 274.112C111.528 274.544 112.152 275.16 112.6 275.96C113.064 275.224 113.696 274.624 114.496 274.16C115.296 273.696 116.168 273.464 117.112 273.464ZM138.055 280.088C138.055 280.472 138.031 280.872 137.983 281.288H128.695C128.759 282.12 129.023 282.76 129.487 283.208C129.967 283.64 130.551 283.856 131.239 283.856C132.263 283.856 132.975 283.424 133.375 282.56H137.743C137.519 283.44 137.111 284.232 136.519 284.936C135.943 285.64 135.215 286.192 134.335 286.592C133.455 286.992 132.471 287.192 131.383 287.192C130.071 287.192 128.903 286.912 127.879 286.352C126.855 285.792 126.055 284.992 125.479 283.952C124.903 282.912 124.615 281.696 124.615 280.304C124.615 278.912 124.895 277.696 125.455 276.656C126.031 275.616 126.831 274.816 127.855 274.256C128.879 273.696 130.055 273.416 131.383 273.416C132.679 273.416 133.831 273.688 134.839 274.232C135.847 274.776 136.631 275.552 137.191 276.56C137.767 277.568 138.055 278.744 138.055 280.088ZM133.855 279.008C133.855 278.304 133.615 277.744 133.135 277.328C132.655 276.912 132.055 276.704 131.335 276.704C130.647 276.704 130.063 276.904 129.583 277.304C129.119 277.704 128.831 278.272 128.719 279.008H133.855ZM148.38 273.464C149.948 273.464 151.196 273.976 152.124 275C153.068 276.008 153.54 277.4 153.54 279.176V287H149.46V279.728C149.46 278.832 149.228 278.136 148.764 277.64C148.3 277.144 147.676 276.896 146.892 276.896C146.108 276.896 145.484 277.144 145.02 277.64C144.556 278.136 144.324 278.832 144.324 279.728V287H140.22V273.608H144.324V275.384C144.74 274.792 145.3 274.328 146.004 273.992C146.708 273.64 147.5 273.464 148.38 273.464ZM163.855 283.52V287H161.767C160.279 287 159.119 286.64 158.287 285.92C157.455 285.184 157.039 283.992 157.039 282.344V277.016H155.407V273.608H157.039V270.344H161.143V273.608H163.831V277.016H161.143V282.392C161.143 282.792 161.239 283.08 161.431 283.256C161.623 283.432 161.943 283.52 162.391 283.52H163.855ZM172.237 287.192C170.925 287.192 169.741 286.912 168.685 286.352C167.645 285.792 166.821 284.992 166.213 283.952C165.621 282.912 165.325 281.696 165.325 280.304C165.325 278.928 165.629 277.72 166.237 276.68C166.845 275.624 167.677 274.816 168.733 274.256C169.789 273.696 170.973 273.416 172.285 273.416C173.597 273.416 174.781 273.696 175.837 274.256C176.893 274.816 177.725 275.624 178.333 276.68C178.941 277.72 179.245 278.928 179.245 280.304C179.245 281.68 178.933 282.896 178.309 283.952C177.701 284.992 176.861 285.792 175.789 286.352C174.733 286.912 173.549 287.192 172.237 287.192ZM172.237 283.64C173.021 283.64 173.685 283.352 174.229 282.776C174.789 282.2 175.069 281.376 175.069 280.304C175.069 279.232 174.797 278.408 174.253 277.832C173.725 277.256 173.069 276.968 172.285 276.968C171.485 276.968 170.821 277.256 170.293 277.832C169.765 278.392 169.501 279.216 169.501 280.304C169.501 281.376 169.757 282.2 170.269 282.776C170.797 283.352 171.453 283.64 172.237 283.64ZM185.527 275.84C186.007 275.104 186.607 274.528 187.327 274.112C188.047 273.68 188.847 273.464 189.727 273.464V277.808H188.599C187.575 277.808 186.807 278.032 186.295 278.48C185.783 278.912 185.527 279.68 185.527 280.784V287H181.423V273.608H185.527V275.84ZM193.752 272.216C193.032 272.216 192.44 272.008 191.976 271.592C191.528 271.16 191.304 270.632 191.304 270.008C191.304 269.368 191.528 268.84 191.976 268.424C192.44 267.992 193.032 267.776 193.752 267.776C194.456 267.776 195.032 267.992 195.48 268.424C195.944 268.84 196.176 269.368 196.176 270.008C196.176 270.632 195.944 271.16 195.48 271.592C195.032 272.008 194.456 272.216 193.752 272.216ZM195.792 273.608V287H191.688V273.608H195.792ZM197.95 280.28C197.95 278.904 198.206 277.696 198.718 276.656C199.246 275.616 199.958 274.816 200.854 274.256C201.75 273.696 202.75 273.416 203.854 273.416C204.798 273.416 205.622 273.608 206.326 273.992C207.046 274.376 207.598 274.88 207.982 275.504V273.608H212.086V287H207.982V285.104C207.582 285.728 207.022 286.232 206.302 286.616C205.598 287 204.774 287.192 203.83 287.192C202.742 287.192 201.75 286.912 200.854 286.352C199.958 285.776 199.246 284.968 198.718 283.928C198.206 282.872 197.95 281.656 197.95 280.28ZM207.982 280.304C207.982 279.28 207.694 278.472 207.118 277.88C206.558 277.288 205.87 276.992 205.054 276.992C204.238 276.992 203.542 277.288 202.966 277.88C202.406 278.456 202.126 279.256 202.126 280.28C202.126 281.304 202.406 282.12 202.966 282.728C203.542 283.32 204.238 283.616 205.054 283.616C205.87 283.616 206.558 283.32 207.118 282.728C207.694 282.136 207.982 281.328 207.982 280.304Z" fill="black"/>
<path d="M151.81 157.884H84.7559L97.7399 129.19L99.6408 124.975H136.925L142.162 136.543L151.81 157.884Z" fill="white" stroke="#88BFBF" stroke-width="0.5892" stroke-miterlimit="10"/>
<path d="M142.162 136.543L97.7402 129.19L99.6412 124.975H136.925L142.162 136.543Z" fill="#88BFBF"/>
<path d="M197.307 124.975H39.4732C33.6807 124.975 29 120.277 29 114.502V11.4733C29 5.68068 33.6986 1 39.4732 1H197.307C203.1 1 207.781 5.69861 207.781 11.4733V114.484C207.781 120.277 203.082 124.975 197.307 124.975Z" fill="white" stroke="#88BFBF" stroke-width="0.5892" stroke-miterlimit="10"/>
<path d="M167.375 10.7021C168.405 10.7021 169.24 9.86705 169.24 8.83699C169.24 7.80692 168.405 6.97189 167.375 6.97189C166.345 6.97189 165.51 7.80692 165.51 8.83699C165.51 9.86705 166.345 10.7021 167.375 10.7021Z" stroke="#F6C850" stroke-width="0.491" stroke-miterlimit="10"/>
<path d="M174.996 10.7021C176.026 10.7021 176.861 9.86705 176.861 8.83699C176.861 7.80692 176.026 6.97189 174.996 6.97189C173.966 6.97189 173.131 7.80692 173.131 8.83699C173.131 9.86705 173.966 10.7021 174.996 10.7021Z" stroke="#F6C850" stroke-width="0.491" stroke-miterlimit="10"/>
<path d="M182.636 10.7021C183.666 10.7021 184.501 9.86705 184.501 8.83699C184.501 7.80692 183.666 6.97189 182.636 6.97189C181.606 6.97189 180.771 7.80692 180.771 8.83699C180.771 9.86705 181.606 10.7021 182.636 10.7021Z" stroke="#F6C850" stroke-width="0.491" stroke-miterlimit="10"/>
<path d="M193.901 118.978H44.0987C40.1596 118.978 37 115.791 37 111.909V19.0482C37 15.125 40.2006 11.9783 44.0987 11.9783H193.901C197.84 11.9783 201 15.1659 201 19.0482V111.909C201 115.791 197.84 118.978 193.901 118.978Z" fill="#88BFBF"/>
<path d="M170.032 118.978H62.9736C73.7945 105.648 90.3133 97.0751 108.819 97.0751H124.187C142.693 97.1274 159.212 105.648 170.032 118.978Z" fill="#F69050"/>
<path d="M113.157 97.1275C112.112 105.021 105.368 111.085 97.2133 111.085C91.2017 111.085 85.9742 107.792 83.2036 102.93C90.9403 99.2185 99.618 97.1275 108.766 97.1275H113.157Z" fill="white"/>
<path d="M144.782 100.787C142.429 106.798 136.627 111.033 129.779 111.033C121.624 111.033 114.88 104.969 113.835 97.0751H124.238C131.452 97.1274 138.352 98.3821 144.782 100.787Z" fill="white"/>
<path d="M133.022 73.8127V97.5455C133.022 101.257 125.598 104.237 116.503 104.237C114.83 104.237 113.209 104.132 111.693 103.975C104.898 103.139 99.9839 100.577 99.9839 97.5455V73.8127H133.022Z" fill="#A0505A"/>
<path d="M130.826 78.6743C130.826 88.9724 121.835 101.466 111.693 103.923C104.898 103.087 99.9839 100.525 99.9839 97.4932V73.7604H130.303L130.826 78.6743Z" fill="#E0712C"/>
<path d="M141.491 70.7811V71.3561C141.491 75.3813 138.198 78.6746 134.172 78.6746H127.168C123.979 85.5226 117.026 90.2273 108.976 90.2273H107.617C98.6255 90.2273 91.3594 82.9611 91.3594 73.9698V57.1896C101.762 57.8692 114.988 48.7734 114.988 48.7734C119.326 65.5536 131.716 65.3445 137.466 64.2467C139.818 65.4491 141.491 67.9583 141.491 70.7811Z" fill="#A0505A"/>
<path d="M131.191 73.3423C130.773 73.3423 130.407 72.9764 130.407 72.5582C130.407 69.2126 133.126 66.4943 136.471 66.4943C136.889 66.4943 137.255 66.8602 137.255 67.2784C137.255 67.6966 136.889 68.0625 136.471 68.0625C134.014 68.0625 131.975 70.049 131.975 72.5582C131.975 72.9764 131.61 73.3423 131.191 73.3423Z" fill="#E0712C"/>
<path d="M133.02 78.6745H134.17C138.195 78.6745 141.489 75.3812 141.489 71.356V70.781C141.489 67.9059 139.868 65.449 137.464 64.2466C135.895 64.5603 133.752 64.7694 131.452 64.6125C125.493 64.1421 118.122 60.9011 114.985 48.7733C114.985 48.7733 101.76 57.8691 91.3571 57.1895C89.423 57.085 87.5933 56.6145 85.9728 55.6736C77.3475 50.7597 98.2051 27.7588 122.147 31.209C141.28 33.9795 140.861 56.8759 140.495 62.3124C141.436 62.2079 142.377 62.1556 143.318 62.1556C157.328 62.1556 168.672 72.9242 168.672 86.2543C168.672 94.9319 163.862 102.564 156.596 106.798C149.644 102.198 141.645 99.0617 133.02 97.7548V78.6745Z" fill="#F6C850"/>
<path d="M101.919 73.9174C101.815 73.9174 101.71 73.9175 101.658 73.8652C101.24 73.7084 101.031 73.2379 101.188 72.8719C101.188 72.8197 102.756 68.5854 100.142 64.0375C97.8943 60.1169 92.9281 60.7965 92.719 60.8487C92.3008 60.901 91.8826 60.6396 91.8303 60.1691C91.7781 59.7509 92.0395 59.3328 92.5099 59.2805C92.7713 59.2282 98.7307 58.3918 101.553 63.2534C104.533 68.4286 102.756 73.2379 102.704 73.3947C102.494 73.7083 102.233 73.9174 101.919 73.9174Z" fill="#E0712C"/>
<path d="M119.747 63.9851C119.59 63.9851 119.433 63.9328 119.276 63.8282C114.728 60.3258 108.664 60.744 108.612 60.744C108.194 60.7963 107.828 60.4304 107.776 60.0122C107.723 59.594 108.089 59.228 108.507 59.1758C108.769 59.1758 115.199 58.7053 120.217 62.5736C120.583 62.835 120.635 63.3055 120.374 63.6714C120.165 63.8805 119.956 63.9851 119.747 63.9851Z" fill="#E0712C"/>
<path d="M99.1992 75.6949C99.1992 75.6949 100.454 83.9543 108.975 75.904C108.975 75.904 103.015 76.6881 99.1992 75.6949Z" fill="white"/>
<path d="M112.322 68.7422C112.929 68.7422 113.42 67.6422 113.42 66.2853C113.42 64.9284 112.929 63.8284 112.322 63.8284C111.716 63.8284 111.225 64.9284 111.225 66.2853C111.225 67.6422 111.716 68.7422 112.322 68.7422Z" fill="#E0712C"/>
<path d="M96.0103 68.3239C96.53 68.3239 96.9513 67.4111 96.9513 66.2852C96.9513 65.1592 96.53 64.2465 96.0103 64.2465C95.4906 64.2465 95.0693 65.1592 95.0693 66.2852C95.0693 67.4111 95.4906 68.3239 96.0103 68.3239Z" fill="#E0712C"/>
<path d="M186.847 113.791H123.577C120.493 113.791 118 111.298 118 108.213V100.556C118 97.4711 120.493 94.9783 123.577 94.9783H186.847C189.932 94.9783 192.425 97.4711 192.425 100.556V108.213C192.425 111.298 189.914 113.791 186.847 113.791Z" fill="#8D98B4"/>
<path d="M170.24 108.68H165.972C164.914 108.68 164.053 107.819 164.053 106.761V103.425C164.053 102.367 164.914 101.506 165.972 101.506H170.24C171.298 101.506 172.159 102.367 172.159 103.425V106.761C172.159 107.819 171.298 108.68 170.24 108.68Z" fill="white"/>
<path d="M175.673 108.124L174.095 107.119C173.664 106.85 173.396 106.366 173.396 105.846V104.34C173.396 103.82 173.664 103.335 174.095 103.066L175.673 102.062C176.05 101.829 176.534 102.098 176.534 102.528V107.64C176.552 108.088 176.05 108.357 175.673 108.124Z" fill="white"/>
<path d="M154.064 106.994H153.67C152.11 106.994 150.836 105.721 150.836 104.16V102.493C150.836 102.349 150.962 102.224 151.105 102.224H156.611C156.755 102.224 156.88 102.349 156.88 102.493V104.16C156.898 105.721 155.625 106.994 154.064 106.994ZM151.374 102.762V104.16C151.374 105.416 152.397 106.456 153.67 106.456H154.064C155.32 106.456 156.36 105.434 156.36 104.16V102.762H151.374Z" fill="white"/>
<path d="M153.867 110.096C153.724 110.096 153.598 109.971 153.598 109.827V107.801C153.598 107.657 153.724 107.532 153.867 107.532C154.011 107.532 154.136 107.657 154.136 107.801V109.827C154.136 109.971 154.011 110.096 153.867 110.096Z" fill="white"/>
<path d="M155.284 110.096H152.469C152.325 110.096 152.2 109.971 152.2 109.827C152.2 109.684 152.325 109.558 152.469 109.558H155.284C155.428 109.558 155.553 109.684 155.553 109.827C155.553 109.971 155.428 110.096 155.284 110.096Z" fill="white"/>
<path d="M153.993 105.738H153.741C152.845 105.738 152.127 105.021 152.127 104.124V100.861C152.127 99.9639 152.845 99.2465 153.741 99.2465H153.993C154.889 99.2465 155.607 99.9639 155.607 100.861V104.124C155.607 105.021 154.889 105.738 153.993 105.738Z" fill="white"/>
<path d="M137.493 103.712L137.475 103.73C137.134 104.142 137.242 104.77 137.69 105.147L139.34 106.474C139.789 106.833 140.434 106.797 140.775 106.384L140.793 106.366C141.134 105.954 141.779 105.936 142.21 106.312L143.698 107.657C144.164 108.088 144.164 108.805 143.698 109.128C142.138 110.222 140.111 109.827 138.444 108.482L135.933 106.456C134.265 105.093 133.458 103.192 134.193 101.434C134.427 100.896 135.126 100.753 135.628 101.13L137.26 102.313C137.708 102.672 137.816 103.3 137.493 103.712Z" fill="white"/>
<path d="M141.869 104.752C141.726 104.752 141.618 104.645 141.6 104.501C141.511 103.21 140.399 102.224 139.107 102.313C138.964 102.313 138.838 102.206 138.821 102.062C138.803 101.919 138.928 101.793 139.072 101.775C140.668 101.668 142.031 102.887 142.138 104.465C142.156 104.609 142.049 104.734 141.869 104.752C141.887 104.752 141.887 104.752 141.869 104.752Z" fill="white"/>
<path d="M143.554 104.483C143.411 104.483 143.303 104.376 143.285 104.232C143.214 103.156 142.73 102.152 141.905 101.434C141.08 100.717 140.039 100.358 138.963 100.43C138.82 100.43 138.694 100.323 138.677 100.179C138.659 100.036 138.784 99.9101 138.928 99.8922C140.147 99.8204 141.331 100.215 142.263 101.022C143.196 101.829 143.734 102.959 143.823 104.178C143.841 104.358 143.716 104.483 143.554 104.483C143.572 104.483 143.572 104.483 143.554 104.483Z" fill="white"/>
</svg>
