<svg width="468" height="332" viewBox="0 0 468 332" fill="none" xmlns="http://www.w3.org/2000/svg">
<path d="M80.9658 219.048C80.9658 220.488 80.4938 221.648 79.5498 222.528C78.6058 223.408 77.1898 223.848 75.3018 223.848H71.9178V231H70.2378V214.224H75.3018C77.1738 214.224 78.5818 214.664 79.5258 215.544C80.4858 216.424 80.9658 217.592 80.9658 219.048ZM75.3018 222.408C77.9258 222.408 79.2378 221.288 79.2378 219.048C79.2378 217.928 78.9258 217.08 78.3018 216.504C77.6778 215.928 76.6778 215.64 75.3018 215.64H71.9178V222.408H75.3018ZM85.7047 213.24V231H84.0247V213.24H85.7047ZM88.9811 224.424C88.9811 223.08 89.2451 221.904 89.7731 220.896C90.3171 219.872 91.0611 219.088 92.0051 218.544C92.9651 217.984 94.0451 217.704 95.2451 217.704C96.4931 217.704 97.5651 217.992 98.4611 218.568C99.3731 219.144 100.029 219.88 100.429 220.776V217.896H102.109V231H100.429V228.096C100.013 228.992 99.3491 229.736 98.4371 230.328C97.5411 230.904 96.4691 231.192 95.2211 231.192C94.0371 231.192 92.9651 230.912 92.0051 230.352C91.0611 229.792 90.3171 229 89.7731 227.976C89.2451 226.952 88.9811 225.768 88.9811 224.424ZM100.429 224.448C100.429 223.392 100.213 222.464 99.7811 221.664C99.3491 220.864 98.7571 220.248 98.0051 219.816C97.2691 219.384 96.4531 219.168 95.5571 219.168C94.6291 219.168 93.7971 219.376 93.0611 219.792C92.3251 220.208 91.7411 220.816 91.3091 221.616C90.8931 222.4 90.6851 223.336 90.6851 224.424C90.6851 225.496 90.8931 226.44 91.3091 227.256C91.7411 228.056 92.3251 228.672 93.0611 229.104C93.7971 229.52 94.6291 229.728 95.5571 229.728C96.4531 229.728 97.2691 229.512 98.0051 229.08C98.7571 228.648 99.3491 228.032 99.7811 227.232C100.213 226.432 100.429 225.504 100.429 224.448ZM112.328 217.656C113.896 217.656 115.176 218.144 116.168 219.12C117.16 220.08 117.656 221.48 117.656 223.32V231H116V223.512C116 222.088 115.64 221 114.92 220.248C114.216 219.496 113.248 219.12 112.016 219.12C110.752 219.12 109.744 219.52 108.992 220.32C108.24 221.12 107.864 222.296 107.864 223.848V231H106.184V217.896H107.864V220.128C108.28 219.328 108.88 218.72 109.664 218.304C110.448 217.872 111.336 217.656 112.328 217.656ZM133.468 223.776C133.468 224.352 133.452 224.792 133.42 225.096H122.548C122.596 226.088 122.836 226.936 123.268 227.64C123.7 228.344 124.268 228.88 124.972 229.248C125.676 229.6 126.444 229.776 127.276 229.776C128.364 229.776 129.276 229.512 130.012 228.984C130.764 228.456 131.26 227.744 131.5 226.848H133.276C132.956 228.128 132.268 229.176 131.212 229.992C130.172 230.792 128.86 231.192 127.276 231.192C126.044 231.192 124.94 230.92 123.964 230.376C122.988 229.816 122.22 229.032 121.66 228.024C121.116 227 120.844 225.808 120.844 224.448C120.844 223.088 121.116 221.896 121.66 220.872C122.204 219.848 122.964 219.064 123.94 218.52C124.916 217.976 126.028 217.704 127.276 217.704C128.524 217.704 129.612 217.976 130.54 218.52C131.484 219.064 132.204 219.8 132.7 220.728C133.212 221.64 133.468 222.656 133.468 223.776ZM131.764 223.728C131.78 222.752 131.58 221.92 131.164 221.232C130.764 220.544 130.212 220.024 129.508 219.672C128.804 219.32 128.036 219.144 127.204 219.144C125.956 219.144 124.892 219.544 124.012 220.344C123.132 221.144 122.644 222.272 122.548 223.728H131.764ZM137.742 215.424C137.406 215.424 137.118 215.304 136.878 215.064C136.638 214.824 136.518 214.528 136.518 214.176C136.518 213.824 136.638 213.536 136.878 213.312C137.118 213.072 137.406 212.952 137.742 212.952C138.078 212.952 138.358 213.072 138.582 213.312C138.822 213.536 138.942 213.824 138.942 214.176C138.942 214.528 138.822 214.824 138.582 215.064C138.358 215.304 138.078 215.424 137.742 215.424ZM138.558 234.096C138.558 235.152 138.294 235.928 137.766 236.424C137.238 236.936 136.446 237.192 135.39 237.192H134.214V235.752H135.126C135.75 235.752 136.198 235.616 136.47 235.344C136.742 235.088 136.878 234.648 136.878 234.024V217.896H138.558V234.096ZM154.503 223.776C154.503 224.352 154.487 224.792 154.455 225.096H143.583C143.631 226.088 143.871 226.936 144.303 227.64C144.735 228.344 145.303 228.88 146.007 229.248C146.711 229.6 147.479 229.776 148.311 229.776C149.399 229.776 150.311 229.512 151.047 228.984C151.799 228.456 152.295 227.744 152.535 226.848H154.311C153.991 228.128 153.303 229.176 152.247 229.992C151.207 230.792 149.895 231.192 148.311 231.192C147.079 231.192 145.975 230.92 144.999 230.376C144.023 229.816 143.255 229.032 142.695 228.024C142.151 227 141.879 225.808 141.879 224.448C141.879 223.088 142.151 221.896 142.695 220.872C143.239 219.848 143.999 219.064 144.975 218.52C145.951 217.976 147.063 217.704 148.311 217.704C149.559 217.704 150.647 217.976 151.575 218.52C152.519 219.064 153.239 219.8 153.735 220.728C154.247 221.64 154.503 222.656 154.503 223.776ZM152.799 223.728C152.815 222.752 152.615 221.92 152.199 221.232C151.799 220.544 151.247 220.024 150.543 219.672C149.839 219.32 149.071 219.144 148.239 219.144C146.991 219.144 145.927 219.544 145.047 220.344C144.167 221.144 143.679 222.272 143.583 223.728H152.799ZM169.154 231.192C167.65 231.192 166.418 230.848 165.458 230.16C164.514 229.456 163.986 228.504 163.874 227.304H165.602C165.682 228.04 166.026 228.64 166.634 229.104C167.258 229.552 168.09 229.776 169.13 229.776C170.042 229.776 170.754 229.56 171.266 229.128C171.794 228.696 172.058 228.16 172.058 227.52C172.058 227.072 171.914 226.704 171.626 226.416C171.338 226.128 170.97 225.904 170.522 225.744C170.09 225.568 169.498 225.384 168.746 225.192C167.77 224.936 166.978 224.68 166.37 224.424C165.762 224.168 165.242 223.792 164.81 223.296C164.394 222.784 164.186 222.104 164.186 221.256C164.186 220.616 164.378 220.024 164.762 219.48C165.146 218.936 165.69 218.504 166.394 218.184C167.098 217.864 167.898 217.704 168.794 217.704C170.202 217.704 171.338 218.064 172.202 218.784C173.066 219.488 173.53 220.464 173.594 221.712H171.914C171.866 220.944 171.562 220.328 171.002 219.864C170.458 219.384 169.706 219.144 168.746 219.144C167.898 219.144 167.21 219.344 166.682 219.744C166.154 220.144 165.89 220.64 165.89 221.232C165.89 221.744 166.042 222.168 166.346 222.504C166.666 222.824 167.058 223.08 167.522 223.272C167.986 223.448 168.61 223.648 169.394 223.872C170.338 224.128 171.09 224.376 171.65 224.616C172.21 224.856 172.69 225.208 173.09 225.672C173.49 226.136 173.698 226.752 173.714 227.52C173.714 228.224 173.522 228.856 173.138 229.416C172.754 229.96 172.218 230.392 171.53 230.712C170.842 231.032 170.05 231.192 169.154 231.192ZM188.469 217.896V231H186.789V228.696C186.405 229.512 185.813 230.136 185.013 230.568C184.213 231 183.317 231.216 182.325 231.216C180.757 231.216 179.477 230.736 178.485 229.776C177.493 228.8 176.997 227.392 176.997 225.552V217.896H178.653V225.36C178.653 226.784 179.005 227.872 179.709 228.624C180.429 229.376 181.405 229.752 182.637 229.752C183.901 229.752 184.909 229.352 185.661 228.552C186.413 227.752 186.789 226.576 186.789 225.024V217.896H188.469ZM191.776 224.424C191.776 223.08 192.04 221.904 192.568 220.896C193.112 219.872 193.856 219.088 194.8 218.544C195.76 217.984 196.84 217.704 198.04 217.704C199.288 217.704 200.36 217.992 201.256 218.568C202.168 219.144 202.824 219.88 203.224 220.776V217.896H204.904V231H203.224V228.096C202.808 228.992 202.144 229.736 201.232 230.328C200.336 230.904 199.264 231.192 198.016 231.192C196.832 231.192 195.76 230.912 194.8 230.352C193.856 229.792 193.112 229 192.568 227.976C192.04 226.952 191.776 225.768 191.776 224.424ZM203.224 224.448C203.224 223.392 203.008 222.464 202.576 221.664C202.144 220.864 201.552 220.248 200.8 219.816C200.064 219.384 199.248 219.168 198.352 219.168C197.424 219.168 196.592 219.376 195.856 219.792C195.12 220.208 194.536 220.816 194.104 221.616C193.688 222.4 193.48 223.336 193.48 224.424C193.48 225.496 193.688 226.44 194.104 227.256C194.536 228.056 195.12 228.672 195.856 229.104C196.592 229.52 197.424 229.728 198.352 229.728C199.248 229.728 200.064 229.512 200.8 229.08C201.552 228.648 202.144 228.032 202.576 227.232C203.008 226.432 203.224 225.504 203.224 224.448ZM61.0883 279.424C60.7523 279.424 60.4643 279.304 60.2243 279.064C59.9843 278.824 59.8643 278.528 59.8643 278.176C59.8643 277.824 59.9843 277.536 60.2243 277.312C60.4643 277.072 60.7523 276.952 61.0883 276.952C61.4243 276.952 61.7043 277.072 61.9283 277.312C62.1683 277.536 62.2883 277.824 62.2883 278.176C62.2883 278.528 62.1683 278.824 61.9283 279.064C61.7043 279.304 61.4243 279.424 61.0883 279.424ZM61.9043 298.096C61.9043 299.152 61.6403 299.928 61.1123 300.424C60.5843 300.936 59.7923 301.192 58.7363 301.192H57.5603V299.752H58.4723C59.0963 299.752 59.5443 299.616 59.8163 299.344C60.0883 299.088 60.2243 298.648 60.2243 298.024V281.896H61.9043V298.096ZM77.3453 281.896V295H75.6653V292.696C75.2813 293.512 74.6893 294.136 73.8893 294.568C73.0893 295 72.1933 295.216 71.2013 295.216C69.6333 295.216 68.3533 294.736 67.3613 293.776C66.3693 292.8 65.8733 291.392 65.8733 289.552V281.896H67.5293V289.36C67.5293 290.784 67.8813 291.872 68.5853 292.624C69.3053 293.376 70.2813 293.752 71.5133 293.752C72.7773 293.752 73.7853 293.352 74.5373 292.552C75.2893 291.752 75.6653 290.576 75.6653 289.024V281.896H77.3453ZM87.5648 281.656C89.1328 281.656 90.4128 282.144 91.4048 283.12C92.3968 284.08 92.8928 285.48 92.8928 287.32V295H91.2368V287.512C91.2368 286.088 90.8768 285 90.1568 284.248C89.4528 283.496 88.4848 283.12 87.2528 283.12C85.9888 283.12 84.9808 283.52 84.2288 284.32C83.4768 285.12 83.1008 286.296 83.1008 287.848V295H81.4208V281.896H83.1008V284.128C83.5168 283.328 84.1168 282.72 84.9008 282.304C85.6848 281.872 86.5728 281.656 87.5648 281.656ZM99.0323 283.312V291.448C99.0323 292.248 99.1843 292.8 99.4883 293.104C99.7923 293.408 100.328 293.56 101.096 293.56H102.632V295H100.832C99.6483 295 98.7683 294.728 98.1923 294.184C97.6163 293.624 97.3283 292.712 97.3283 291.448V283.312H95.5043V281.896H97.3283V278.608H99.0323V281.896H102.632V283.312H99.0323ZM111.379 295.192C110.147 295.192 109.035 294.92 108.043 294.376C107.067 293.816 106.291 293.032 105.715 292.024C105.155 291 104.875 289.808 104.875 288.448C104.875 287.088 105.163 285.904 105.739 284.896C106.315 283.872 107.099 283.088 108.091 282.544C109.083 281.984 110.195 281.704 111.427 281.704C112.659 281.704 113.771 281.984 114.763 282.544C115.771 283.088 116.555 283.872 117.115 284.896C117.691 285.904 117.979 287.088 117.979 288.448C117.979 289.792 117.691 290.976 117.115 292C116.539 293.024 115.747 293.816 114.739 294.376C113.731 294.92 112.611 295.192 111.379 295.192ZM111.379 293.728C112.243 293.728 113.043 293.536 113.779 293.152C114.515 292.752 115.107 292.16 115.555 291.376C116.019 290.576 116.251 289.6 116.251 288.448C116.251 287.296 116.027 286.328 115.579 285.544C115.131 284.744 114.539 284.152 113.803 283.768C113.067 283.368 112.267 283.168 111.403 283.168C110.539 283.168 109.739 283.368 109.003 283.768C108.267 284.152 107.675 284.744 107.227 285.544C106.795 286.328 106.579 287.296 106.579 288.448C106.579 289.6 106.795 290.576 107.227 291.376C107.675 292.16 108.259 292.752 108.979 293.152C109.715 293.536 110.515 293.728 111.379 293.728ZM127.339 288.448C127.339 287.088 127.611 285.904 128.155 284.896C128.699 283.872 129.451 283.088 130.411 282.544C131.371 281.984 132.467 281.704 133.699 281.704C135.315 281.704 136.643 282.104 137.683 282.904C138.739 283.704 139.419 284.792 139.723 286.168H137.923C137.699 285.224 137.211 284.488 136.459 283.96C135.723 283.416 134.803 283.144 133.699 283.144C132.819 283.144 132.027 283.344 131.323 283.744C130.619 284.144 130.059 284.744 129.643 285.544C129.243 286.328 129.043 287.296 129.043 288.448C129.043 289.6 129.243 290.576 129.643 291.376C130.059 292.176 130.619 292.776 131.323 293.176C132.027 293.576 132.819 293.776 133.699 293.776C134.803 293.776 135.723 293.512 136.459 292.984C137.211 292.44 137.699 291.688 137.923 290.728H139.723C139.419 292.072 138.739 293.152 137.683 293.968C136.627 294.784 135.299 295.192 133.699 295.192C132.467 295.192 131.371 294.92 130.411 294.376C129.451 293.816 128.699 293.032 128.155 292.024C127.611 291 127.339 289.808 127.339 288.448ZM148.802 295.192C147.57 295.192 146.458 294.92 145.466 294.376C144.49 293.816 143.714 293.032 143.138 292.024C142.578 291 142.298 289.808 142.298 288.448C142.298 287.088 142.586 285.904 143.162 284.896C143.738 283.872 144.522 283.088 145.514 282.544C146.506 281.984 147.618 281.704 148.85 281.704C150.082 281.704 151.194 281.984 152.186 282.544C153.194 283.088 153.978 283.872 154.538 284.896C155.114 285.904 155.402 287.088 155.402 288.448C155.402 289.792 155.114 290.976 154.538 292C153.962 293.024 153.17 293.816 152.162 294.376C151.154 294.92 150.034 295.192 148.802 295.192ZM148.802 293.728C149.666 293.728 150.466 293.536 151.202 293.152C151.938 292.752 152.53 292.16 152.978 291.376C153.442 290.576 153.674 289.6 153.674 288.448C153.674 287.296 153.45 286.328 153.002 285.544C152.554 284.744 151.962 284.152 151.226 283.768C150.49 283.368 149.69 283.168 148.826 283.168C147.962 283.168 147.162 283.368 146.426 283.768C145.69 284.152 145.098 284.744 144.65 285.544C144.218 286.328 144.002 287.296 144.002 288.448C144.002 289.6 144.218 290.576 144.65 291.376C145.098 292.16 145.682 292.752 146.402 293.152C147.138 293.536 147.938 293.728 148.802 293.728ZM174.305 281.656C175.841 281.656 177.089 282.144 178.049 283.12C179.025 284.08 179.513 285.48 179.513 287.32V295H177.857V287.512C177.857 286.088 177.513 285 176.825 284.248C176.137 283.496 175.201 283.12 174.017 283.12C172.785 283.12 171.801 283.528 171.065 284.344C170.329 285.16 169.961 286.344 169.961 287.896V295H168.305V287.512C168.305 286.088 167.961 285 167.273 284.248C166.585 283.496 165.641 283.12 164.441 283.12C163.209 283.12 162.225 283.528 161.489 284.344C160.753 285.16 160.385 286.344 160.385 287.896V295H158.705V281.896H160.385V284.152C160.801 283.336 161.393 282.72 162.161 282.304C162.929 281.872 163.785 281.656 164.729 281.656C165.865 281.656 166.857 281.928 167.705 282.472C168.569 283.016 169.193 283.816 169.577 284.872C169.929 283.832 170.529 283.04 171.377 282.496C172.241 281.936 173.217 281.656 174.305 281.656ZM194.822 295.192C193.318 295.192 192.086 294.848 191.126 294.16C190.182 293.456 189.654 292.504 189.542 291.304H191.27C191.35 292.04 191.694 292.64 192.302 293.104C192.926 293.552 193.758 293.776 194.798 293.776C195.71 293.776 196.422 293.56 196.934 293.128C197.462 292.696 197.726 292.16 197.726 291.52C197.726 291.072 197.582 290.704 197.294 290.416C197.006 290.128 196.638 289.904 196.19 289.744C195.758 289.568 195.166 289.384 194.414 289.192C193.438 288.936 192.646 288.68 192.038 288.424C191.43 288.168 190.91 287.792 190.478 287.296C190.062 286.784 189.854 286.104 189.854 285.256C189.854 284.616 190.046 284.024 190.43 283.48C190.814 282.936 191.358 282.504 192.062 282.184C192.766 281.864 193.566 281.704 194.462 281.704C195.87 281.704 197.006 282.064 197.87 282.784C198.734 283.488 199.198 284.464 199.262 285.712H197.582C197.534 284.944 197.23 284.328 196.67 283.864C196.126 283.384 195.374 283.144 194.414 283.144C193.566 283.144 192.878 283.344 192.35 283.744C191.822 284.144 191.558 284.64 191.558 285.232C191.558 285.744 191.71 286.168 192.014 286.504C192.334 286.824 192.726 287.08 193.19 287.272C193.654 287.448 194.278 287.648 195.062 287.872C196.006 288.128 196.758 288.376 197.318 288.616C197.878 288.856 198.358 289.208 198.758 289.672C199.158 290.136 199.366 290.752 199.382 291.52C199.382 292.224 199.19 292.856 198.806 293.416C198.422 293.96 197.886 294.392 197.198 294.712C196.51 295.032 195.718 295.192 194.822 295.192ZM214.64 287.776C214.64 288.352 214.624 288.792 214.592 289.096H203.72C203.768 290.088 204.008 290.936 204.44 291.64C204.872 292.344 205.44 292.88 206.144 293.248C206.848 293.6 207.616 293.776 208.448 293.776C209.536 293.776 210.448 293.512 211.184 292.984C211.936 292.456 212.432 291.744 212.672 290.848H214.448C214.128 292.128 213.44 293.176 212.384 293.992C211.344 294.792 210.032 295.192 208.448 295.192C207.216 295.192 206.112 294.92 205.136 294.376C204.16 293.816 203.392 293.032 202.832 292.024C202.288 291 202.016 289.808 202.016 288.448C202.016 287.088 202.288 285.896 202.832 284.872C203.376 283.848 204.136 283.064 205.112 282.52C206.088 281.976 207.2 281.704 208.448 281.704C209.696 281.704 210.784 281.976 211.712 282.52C212.656 283.064 213.376 283.8 213.872 284.728C214.384 285.64 214.64 286.656 214.64 287.776ZM212.936 287.728C212.952 286.752 212.752 285.92 212.336 285.232C211.936 284.544 211.384 284.024 210.68 283.672C209.976 283.32 209.208 283.144 208.376 283.144C207.128 283.144 206.064 283.544 205.184 284.344C204.304 285.144 203.816 286.272 203.72 287.728H212.936ZM229.306 281.896V295H227.626V292.696C227.242 293.512 226.65 294.136 225.85 294.568C225.05 295 224.154 295.216 223.162 295.216C221.594 295.216 220.314 294.736 219.322 293.776C218.33 292.8 217.834 291.392 217.834 289.552V281.896H219.49V289.36C219.49 290.784 219.842 291.872 220.546 292.624C221.266 293.376 222.242 293.752 223.474 293.752C224.738 293.752 225.746 293.352 226.498 292.552C227.25 291.752 227.626 290.576 227.626 289.024V281.896H229.306ZM255.807 281.656C257.343 281.656 258.591 282.144 259.551 283.12C260.527 284.08 261.015 285.48 261.015 287.32V295H259.359V287.512C259.359 286.088 259.015 285 258.327 284.248C257.639 283.496 256.703 283.12 255.519 283.12C254.287 283.12 253.303 283.528 252.567 284.344C251.831 285.16 251.463 286.344 251.463 287.896V295H249.807V287.512C249.807 286.088 249.463 285 248.775 284.248C248.087 283.496 247.143 283.12 245.943 283.12C244.711 283.12 243.727 283.528 242.991 284.344C242.255 285.16 241.887 286.344 241.887 287.896V295H240.207V281.896H241.887V284.152C242.303 283.336 242.895 282.72 243.663 282.304C244.431 281.872 245.287 281.656 246.231 281.656C247.367 281.656 248.359 281.928 249.207 282.472C250.071 283.016 250.695 283.816 251.079 284.872C251.431 283.832 252.031 283.04 252.879 282.496C253.743 281.936 254.719 281.656 255.807 281.656ZM276.842 287.776C276.842 288.352 276.826 288.792 276.794 289.096H265.922C265.97 290.088 266.21 290.936 266.642 291.64C267.074 292.344 267.642 292.88 268.346 293.248C269.05 293.6 269.818 293.776 270.65 293.776C271.738 293.776 272.65 293.512 273.386 292.984C274.138 292.456 274.634 291.744 274.874 290.848H276.65C276.33 292.128 275.642 293.176 274.586 293.992C273.546 294.792 272.234 295.192 270.65 295.192C269.418 295.192 268.314 294.92 267.338 294.376C266.362 293.816 265.594 293.032 265.034 292.024C264.49 291 264.218 289.808 264.218 288.448C264.218 287.088 264.49 285.896 265.034 284.872C265.578 283.848 266.338 283.064 267.314 282.52C268.29 281.976 269.402 281.704 270.65 281.704C271.898 281.704 272.986 281.976 273.914 282.52C274.858 283.064 275.578 283.8 276.074 284.728C276.586 285.64 276.842 286.656 276.842 287.776ZM275.138 287.728C275.154 286.752 274.954 285.92 274.538 285.232C274.138 284.544 273.586 284.024 272.882 283.672C272.178 283.32 271.41 283.144 270.578 283.144C269.33 283.144 268.266 283.544 267.386 284.344C266.506 285.144 266.018 286.272 265.922 287.728H275.138ZM286.3 281.656C287.868 281.656 289.148 282.144 290.14 283.12C291.132 284.08 291.628 285.48 291.628 287.32V295H289.972V287.512C289.972 286.088 289.612 285 288.892 284.248C288.188 283.496 287.22 283.12 285.988 283.12C284.724 283.12 283.716 283.52 282.964 284.32C282.212 285.12 281.836 286.296 281.836 287.848V295H280.156V281.896H281.836V284.128C282.252 283.328 282.852 282.72 283.636 282.304C284.42 281.872 285.308 281.656 286.3 281.656ZM297.767 283.312V291.448C297.767 292.248 297.919 292.8 298.223 293.104C298.527 293.408 299.063 293.56 299.831 293.56H301.367V295H299.567C298.383 295 297.503 294.728 296.927 294.184C296.351 293.624 296.063 292.712 296.063 291.448V283.312H294.239V281.896H296.063V278.608H297.767V281.896H301.367V283.312H297.767ZM310.114 295.192C308.882 295.192 307.77 294.92 306.778 294.376C305.802 293.816 305.026 293.032 304.45 292.024C303.89 291 303.61 289.808 303.61 288.448C303.61 287.088 303.898 285.904 304.474 284.896C305.05 283.872 305.834 283.088 306.826 282.544C307.818 281.984 308.93 281.704 310.162 281.704C311.394 281.704 312.506 281.984 313.498 282.544C314.506 283.088 315.29 283.872 315.85 284.896C316.426 285.904 316.714 287.088 316.714 288.448C316.714 289.792 316.426 290.976 315.85 292C315.274 293.024 314.482 293.816 313.474 294.376C312.466 294.92 311.346 295.192 310.114 295.192ZM310.114 293.728C310.978 293.728 311.778 293.536 312.514 293.152C313.25 292.752 313.842 292.16 314.29 291.376C314.754 290.576 314.986 289.6 314.986 288.448C314.986 287.296 314.762 286.328 314.314 285.544C313.866 284.744 313.274 284.152 312.538 283.768C311.802 283.368 311.002 283.168 310.138 283.168C309.274 283.168 308.474 283.368 307.738 283.768C307.002 284.152 306.41 284.744 305.962 285.544C305.53 286.328 305.314 287.296 305.314 288.448C305.314 289.6 305.53 290.576 305.962 291.376C306.41 292.16 306.994 292.752 307.714 293.152C308.45 293.536 309.25 293.728 310.114 293.728ZM321.696 284.224C322.064 283.408 322.624 282.776 323.376 282.328C324.144 281.88 325.08 281.656 326.184 281.656V283.408H325.728C324.512 283.408 323.536 283.736 322.8 284.392C322.064 285.048 321.696 286.144 321.696 287.68V295H320.016V281.896H321.696V284.224Z" fill="#1C212F"/>
<path d="M222.837 227.52V231H220.749C219.261 231 218.101 230.64 217.269 229.92C216.437 229.184 216.021 227.992 216.021 226.344V221.016H214.389V217.608H216.021V214.344H220.125V217.608H222.813V221.016H220.125V226.392C220.125 226.792 220.221 227.08 220.413 227.256C220.605 227.432 220.925 227.52 221.373 227.52H222.837ZM229.227 219.84C229.707 219.104 230.307 218.528 231.027 218.112C231.747 217.68 232.547 217.464 233.427 217.464V221.808H232.299C231.275 221.808 230.507 222.032 229.995 222.48C229.483 222.912 229.227 223.68 229.227 224.784V231H225.123V217.608H229.227V219.84ZM237.453 216.216C236.733 216.216 236.141 216.008 235.677 215.592C235.229 215.16 235.005 214.632 235.005 214.008C235.005 213.368 235.229 212.84 235.677 212.424C236.141 211.992 236.733 211.776 237.453 211.776C238.157 211.776 238.733 211.992 239.181 212.424C239.645 212.84 239.877 213.368 239.877 214.008C239.877 214.632 239.645 215.16 239.181 215.592C238.733 216.008 238.157 216.216 237.453 216.216ZM239.493 217.608V231H235.389V217.608H239.493ZM246.571 213.24V231H242.467V213.24H246.571ZM257.777 217.464C259.313 217.464 260.545 217.976 261.473 219C262.401 220.008 262.865 221.4 262.865 223.176V231H258.785V223.728C258.785 222.832 258.553 222.136 258.089 221.64C257.625 221.144 257.001 220.896 256.217 220.896C255.433 220.896 254.809 221.144 254.345 221.64C253.881 222.136 253.649 222.832 253.649 223.728V231H249.545V213.24H253.649V219.408C254.065 218.816 254.633 218.344 255.353 217.992C256.073 217.64 256.881 217.464 257.777 217.464ZM264.901 224.28C264.901 222.904 265.157 221.696 265.669 220.656C266.197 219.616 266.909 218.816 267.805 218.256C268.701 217.696 269.701 217.416 270.805 217.416C271.749 217.416 272.573 217.608 273.277 217.992C273.997 218.376 274.549 218.88 274.933 219.504V217.608H279.037V231H274.933V229.104C274.533 229.728 273.973 230.232 273.253 230.616C272.549 231 271.725 231.192 270.781 231.192C269.693 231.192 268.701 230.912 267.805 230.352C266.909 229.776 266.197 228.968 265.669 227.928C265.157 226.872 264.901 225.656 264.901 224.28ZM274.933 224.304C274.933 223.28 274.645 222.472 274.069 221.88C273.509 221.288 272.821 220.992 272.005 220.992C271.189 220.992 270.493 221.288 269.917 221.88C269.357 222.456 269.077 223.256 269.077 224.28C269.077 225.304 269.357 226.12 269.917 226.728C270.493 227.32 271.189 227.616 272.005 227.616C272.821 227.616 273.509 227.32 274.069 226.728C274.645 226.136 274.933 225.328 274.933 224.304ZM286.276 224.28C286.276 222.904 286.532 221.696 287.044 220.656C287.572 219.616 288.284 218.816 289.18 218.256C290.076 217.696 291.076 217.416 292.18 217.416C293.06 217.416 293.86 217.6 294.58 217.968C295.316 218.336 295.892 218.832 296.308 219.456V213.24H300.412V231H296.308V229.08C295.924 229.72 295.372 230.232 294.652 230.616C293.948 231 293.124 231.192 292.18 231.192C291.076 231.192 290.076 230.912 289.18 230.352C288.284 229.776 287.572 228.968 287.044 227.928C286.532 226.872 286.276 225.656 286.276 224.28ZM296.308 224.304C296.308 223.28 296.02 222.472 295.444 221.88C294.884 221.288 294.196 220.992 293.38 220.992C292.564 220.992 291.868 221.288 291.292 221.88C290.732 222.456 290.452 223.256 290.452 224.28C290.452 225.304 290.732 226.12 291.292 226.728C291.868 227.32 292.564 227.616 293.38 227.616C294.196 227.616 294.884 227.32 295.444 226.728C296.02 226.136 296.308 225.328 296.308 224.304ZM316.005 224.088C316.005 224.472 315.981 224.872 315.933 225.288H306.645C306.709 226.12 306.973 226.76 307.437 227.208C307.917 227.64 308.501 227.856 309.189 227.856C310.213 227.856 310.925 227.424 311.325 226.56H315.693C315.469 227.44 315.061 228.232 314.469 228.936C313.893 229.64 313.165 230.192 312.285 230.592C311.405 230.992 310.421 231.192 309.333 231.192C308.021 231.192 306.853 230.912 305.829 230.352C304.805 229.792 304.005 228.992 303.429 227.952C302.853 226.912 302.565 225.696 302.565 224.304C302.565 222.912 302.845 221.696 303.405 220.656C303.981 219.616 304.781 218.816 305.805 218.256C306.829 217.696 308.005 217.416 309.333 217.416C310.629 217.416 311.781 217.688 312.789 218.232C313.797 218.776 314.581 219.552 315.141 220.56C315.717 221.568 316.005 222.744 316.005 224.088ZM311.805 223.008C311.805 222.304 311.565 221.744 311.085 221.328C310.605 220.912 310.005 220.704 309.285 220.704C308.597 220.704 308.013 220.904 307.533 221.304C307.069 221.704 306.781 222.272 306.669 223.008H311.805ZM85.0197 256.28C85.0197 254.904 85.2757 253.696 85.7877 252.656C86.3157 251.616 87.0277 250.816 87.9237 250.256C88.8197 249.696 89.8197 249.416 90.9237 249.416C91.8037 249.416 92.6037 249.6 93.3237 249.968C94.0597 250.336 94.6357 250.832 95.0517 251.456V245.24H99.1557V263H95.0517V261.08C94.6677 261.72 94.1157 262.232 93.3957 262.616C92.6917 263 91.8677 263.192 90.9237 263.192C89.8197 263.192 88.8197 262.912 87.9237 262.352C87.0277 261.776 86.3157 260.968 85.7877 259.928C85.2757 258.872 85.0197 257.656 85.0197 256.28ZM95.0517 256.304C95.0517 255.28 94.7637 254.472 94.1877 253.88C93.6277 253.288 92.9397 252.992 92.1237 252.992C91.3077 252.992 90.6117 253.288 90.0357 253.88C89.4757 254.456 89.1957 255.256 89.1957 256.28C89.1957 257.304 89.4757 258.12 90.0357 258.728C90.6117 259.32 91.3077 259.616 92.1237 259.616C92.9397 259.616 93.6277 259.32 94.1877 258.728C94.7637 258.136 95.0517 257.328 95.0517 256.304ZM114.749 256.088C114.749 256.472 114.725 256.872 114.677 257.288H105.389C105.453 258.12 105.717 258.76 106.181 259.208C106.661 259.64 107.245 259.856 107.933 259.856C108.957 259.856 109.669 259.424 110.069 258.56H114.437C114.213 259.44 113.805 260.232 113.213 260.936C112.637 261.64 111.909 262.192 111.029 262.592C110.149 262.992 109.165 263.192 108.077 263.192C106.765 263.192 105.597 262.912 104.573 262.352C103.549 261.792 102.749 260.992 102.173 259.952C101.597 258.912 101.309 257.696 101.309 256.304C101.309 254.912 101.589 253.696 102.149 252.656C102.725 251.616 103.525 250.816 104.549 250.256C105.573 249.696 106.749 249.416 108.077 249.416C109.373 249.416 110.525 249.688 111.533 250.232C112.541 250.776 113.325 251.552 113.885 252.56C114.461 253.568 114.749 254.744 114.749 256.088ZM110.549 255.008C110.549 254.304 110.309 253.744 109.829 253.328C109.349 252.912 108.749 252.704 108.029 252.704C107.341 252.704 106.757 252.904 106.277 253.304C105.813 253.704 105.525 254.272 105.413 255.008H110.549ZM122.362 263.192C121.194 263.192 120.154 262.992 119.242 262.592C118.33 262.192 117.61 261.648 117.082 260.96C116.554 260.256 116.258 259.472 116.194 258.608H120.25C120.298 259.072 120.514 259.448 120.898 259.736C121.282 260.024 121.754 260.168 122.314 260.168C122.826 260.168 123.218 260.072 123.49 259.88C123.778 259.672 123.922 259.408 123.922 259.088C123.922 258.704 123.722 258.424 123.322 258.248C122.922 258.056 122.274 257.848 121.378 257.624C120.418 257.4 119.618 257.168 118.978 256.928C118.338 256.672 117.786 256.28 117.322 255.752C116.858 255.208 116.626 254.48 116.626 253.568C116.626 252.8 116.834 252.104 117.25 251.48C117.682 250.84 118.306 250.336 119.122 249.968C119.954 249.6 120.938 249.416 122.074 249.416C123.754 249.416 125.074 249.832 126.034 250.664C127.01 251.496 127.57 252.6 127.714 253.976H123.922C123.858 253.512 123.65 253.144 123.298 252.872C122.962 252.6 122.514 252.464 121.954 252.464C121.474 252.464 121.106 252.56 120.85 252.752C120.594 252.928 120.466 253.176 120.466 253.496C120.466 253.88 120.666 254.168 121.066 254.36C121.482 254.552 122.122 254.744 122.986 254.936C123.978 255.192 124.786 255.448 125.41 255.704C126.034 255.944 126.578 256.344 127.042 256.904C127.522 257.448 127.77 258.184 127.786 259.112C127.786 259.896 127.562 260.6 127.114 261.224C126.682 261.832 126.05 262.312 125.218 262.664C124.402 263.016 123.45 263.192 122.362 263.192ZM142.921 256.088C142.921 256.472 142.897 256.872 142.849 257.288H133.561C133.625 258.12 133.889 258.76 134.353 259.208C134.833 259.64 135.417 259.856 136.105 259.856C137.129 259.856 137.841 259.424 138.241 258.56H142.609C142.385 259.44 141.977 260.232 141.385 260.936C140.809 261.64 140.081 262.192 139.201 262.592C138.321 262.992 137.337 263.192 136.249 263.192C134.937 263.192 133.769 262.912 132.745 262.352C131.721 261.792 130.921 260.992 130.345 259.952C129.769 258.912 129.481 257.696 129.481 256.304C129.481 254.912 129.761 253.696 130.321 252.656C130.897 251.616 131.697 250.816 132.721 250.256C133.745 249.696 134.921 249.416 136.249 249.416C137.545 249.416 138.697 249.688 139.705 250.232C140.713 250.776 141.497 251.552 142.057 252.56C142.633 253.568 142.921 254.744 142.921 256.088ZM138.721 255.008C138.721 254.304 138.481 253.744 138.001 253.328C137.521 252.912 136.921 252.704 136.201 252.704C135.513 252.704 134.929 252.904 134.449 253.304C133.985 253.704 133.697 254.272 133.585 255.008H138.721ZM153.246 249.464C154.814 249.464 156.062 249.976 156.99 251C157.934 252.008 158.406 253.4 158.406 255.176V263H154.326V255.728C154.326 254.832 154.094 254.136 153.63 253.64C153.166 253.144 152.542 252.896 151.758 252.896C150.974 252.896 150.35 253.144 149.886 253.64C149.422 254.136 149.19 254.832 149.19 255.728V263H145.086V249.608H149.19V251.384C149.606 250.792 150.166 250.328 150.87 249.992C151.574 249.64 152.366 249.464 153.246 249.464ZM167.282 259.16L170.186 249.608H174.554L169.802 263H164.738L159.986 249.608H164.378L167.282 259.16ZM182.377 263.192C181.065 263.192 179.881 262.912 178.825 262.352C177.785 261.792 176.961 260.992 176.353 259.952C175.761 258.912 175.465 257.696 175.465 256.304C175.465 254.928 175.769 253.72 176.377 252.68C176.985 251.624 177.817 250.816 178.873 250.256C179.929 249.696 181.113 249.416 182.425 249.416C183.737 249.416 184.921 249.696 185.977 250.256C187.033 250.816 187.865 251.624 188.473 252.68C189.081 253.72 189.385 254.928 189.385 256.304C189.385 257.68 189.073 258.896 188.449 259.952C187.841 260.992 187.001 261.792 185.929 262.352C184.873 262.912 183.689 263.192 182.377 263.192ZM182.377 259.64C183.161 259.64 183.825 259.352 184.369 258.776C184.929 258.2 185.209 257.376 185.209 256.304C185.209 255.232 184.937 254.408 184.393 253.832C183.865 253.256 183.209 252.968 182.425 252.968C181.625 252.968 180.961 253.256 180.433 253.832C179.905 254.392 179.641 255.216 179.641 256.304C179.641 257.376 179.897 258.2 180.409 258.776C180.937 259.352 181.593 259.64 182.377 259.64ZM195.666 245.24V263H191.562V245.24H195.666ZM204.664 259.16L207.568 249.608H211.936L207.184 263H202.12L197.368 249.608H201.76L204.664 259.16ZM215.728 248.216C215.008 248.216 214.416 248.008 213.952 247.592C213.504 247.16 213.28 246.632 213.28 246.008C213.28 245.368 213.504 244.84 213.952 244.424C214.416 243.992 215.008 243.776 215.728 243.776C216.432 243.776 217.008 243.992 217.456 244.424C217.92 244.84 218.152 245.368 218.152 246.008C218.152 246.632 217.92 247.16 217.456 247.592C217.008 248.008 216.432 248.216 215.728 248.216ZM217.768 249.608V263H213.664V249.608H217.768ZM237.83 249.464C239.494 249.464 240.814 249.968 241.79 250.976C242.782 251.984 243.278 253.384 243.278 255.176V263H239.198V255.728C239.198 254.864 238.966 254.2 238.502 253.736C238.054 253.256 237.43 253.016 236.63 253.016C235.83 253.016 235.198 253.256 234.734 253.736C234.286 254.2 234.062 254.864 234.062 255.728V263H229.982V255.728C229.982 254.864 229.75 254.2 229.286 253.736C228.838 253.256 228.214 253.016 227.414 253.016C226.614 253.016 225.982 253.256 225.518 253.736C225.07 254.2 224.846 254.864 224.846 255.728V263H220.742V249.608H224.846V251.288C225.262 250.728 225.806 250.288 226.478 249.968C227.15 249.632 227.91 249.464 228.758 249.464C229.766 249.464 230.662 249.68 231.446 250.112C232.246 250.544 232.87 251.16 233.318 251.96C233.782 251.224 234.414 250.624 235.214 250.16C236.014 249.696 236.886 249.464 237.83 249.464ZM258.772 256.088C258.772 256.472 258.748 256.872 258.7 257.288H249.412C249.476 258.12 249.74 258.76 250.204 259.208C250.684 259.64 251.268 259.856 251.956 259.856C252.98 259.856 253.692 259.424 254.092 258.56H258.46C258.236 259.44 257.828 260.232 257.236 260.936C256.66 261.64 255.932 262.192 255.052 262.592C254.172 262.992 253.188 263.192 252.1 263.192C250.788 263.192 249.62 262.912 248.596 262.352C247.572 261.792 246.772 260.992 246.196 259.952C245.62 258.912 245.332 257.696 245.332 256.304C245.332 254.912 245.612 253.696 246.172 252.656C246.748 251.616 247.548 250.816 248.572 250.256C249.596 249.696 250.772 249.416 252.1 249.416C253.396 249.416 254.548 249.688 255.556 250.232C256.564 250.776 257.348 251.552 257.908 252.56C258.484 253.568 258.772 254.744 258.772 256.088ZM254.572 255.008C254.572 254.304 254.332 253.744 253.852 253.328C253.372 252.912 252.772 252.704 252.052 252.704C251.364 252.704 250.78 252.904 250.3 253.304C249.836 253.704 249.548 254.272 249.436 255.008H254.572ZM269.097 249.464C270.665 249.464 271.913 249.976 272.841 251C273.785 252.008 274.257 253.4 274.257 255.176V263H270.177V255.728C270.177 254.832 269.945 254.136 269.481 253.64C269.017 253.144 268.393 252.896 267.609 252.896C266.825 252.896 266.201 253.144 265.737 253.64C265.273 254.136 265.041 254.832 265.041 255.728V263H260.937V249.608H265.041V251.384C265.457 250.792 266.017 250.328 266.721 249.992C267.425 249.64 268.217 249.464 269.097 249.464ZM284.573 259.52V263H282.485C280.997 263 279.837 262.64 279.005 261.92C278.173 261.184 277.757 259.992 277.757 258.344V253.016H276.125V249.608H277.757V246.344H281.861V249.608H284.549V253.016H281.861V258.392C281.861 258.792 281.957 259.08 282.149 259.256C282.341 259.432 282.661 259.52 283.109 259.52H284.573ZM292.955 263.192C291.643 263.192 290.459 262.912 289.403 262.352C288.363 261.792 287.539 260.992 286.931 259.952C286.339 258.912 286.043 257.696 286.043 256.304C286.043 254.928 286.347 253.72 286.955 252.68C287.563 251.624 288.395 250.816 289.451 250.256C290.507 249.696 291.691 249.416 293.003 249.416C294.315 249.416 295.499 249.696 296.555 250.256C297.611 250.816 298.443 251.624 299.051 252.68C299.659 253.72 299.963 254.928 299.963 256.304C299.963 257.68 299.651 258.896 299.027 259.952C298.419 260.992 297.579 261.792 296.507 262.352C295.451 262.912 294.267 263.192 292.955 263.192ZM292.955 259.64C293.739 259.64 294.403 259.352 294.947 258.776C295.507 258.2 295.787 257.376 295.787 256.304C295.787 255.232 295.515 254.408 294.971 253.832C294.443 253.256 293.787 252.968 293.003 252.968C292.203 252.968 291.539 253.256 291.011 253.832C290.483 254.392 290.219 255.216 290.219 256.304C290.219 257.376 290.475 258.2 290.987 258.776C291.515 259.352 292.171 259.64 292.955 259.64Z" fill="black"/>
<path d="M269 194.888L385.928 29H422.216V153.416H453.896V194.888H422.216V230.6H371.528V194.888H269ZM333.512 159.752H377V99.56L333.512 159.752Z" fill="#F5E4D4"/>
<path d="M288.655 200.81H20.3447L68.5088 172.421H241.228L288.655 200.81Z" fill="#D0F0E4"/>
<path d="M282.212 200.81L251.551 99.6158C250.943 97.6008 249.074 96.2217 246.962 96.2217H60.8707C58.7374 96.2217 56.8618 97.6294 56.2676 99.6801L27.0098 200.81" stroke="#88BFBF" stroke-width="0.5892" stroke-miterlimit="10"/>
<path d="M111.848 62.0236H193.243" stroke="#88BFBF" stroke-width="0.5892" stroke-miterlimit="10"/>
<path d="M140.097 77.4006H159.325V93.8852H140.097C140.097 93.8852 140.097 76.779 140.097 77.4006Z" fill="#F6C850"/>
<path d="M211.999 153.993L203.058 131.77H217.454L211.999 153.993Z" fill="#626A7F"/>
<path d="M187.466 102.11C189.384 98.4868 193.157 96.2217 197.259 96.2217H208.334L215.857 102.11H187.466Z" fill="#626A7F"/>
<path d="M229.452 128.126H201.554L212.056 153.571C211.326 152.385 206.952 153.621 202.32 156.458C197.745 159.259 194.653 162.631 195.283 163.861L172.647 124.546C166.777 114.628 173.935 102.11 185.475 102.11H247.993L248.129 102.538C252.209 115.186 242.76 128.126 229.452 128.126Z" fill="#88BFBF"/>
<path d="M249.074 109.405C248.974 111.727 248.458 113.971 247.585 116.05L214.798 102.117H247.342L248.1 104.332C248.63 105.661 248.924 107.526 249.074 109.405Z" fill="#E6E6E6"/>
<path d="M212.063 153.571C212.793 154.757 209.601 157.994 204.976 160.831C200.344 163.668 196.042 165.09 195.312 163.903C194.581 162.717 197.696 159.366 202.327 156.529C206.952 153.693 211.326 152.385 212.063 153.571Z" fill="#88BFBF"/>
<path d="M201.791 156.544L181.431 120.616C179.835 117.772 181.889 114.257 185.161 114.257H224.813C230.154 114.257 234.141 109.348 233.039 104.132" stroke="white" stroke-width="0.5892" stroke-miterlimit="10" stroke-linecap="round"/>
<path d="M195.076 163.982C194.346 162.796 197.503 159.023 202.328 156.215C207.747 153.064 211.255 152.128 212.3 153.8" stroke="white" stroke-width="0.5892" stroke-miterlimit="10" stroke-linecap="round"/>
<path d="M212.457 153.957L199.156 122.303" stroke="white" stroke-width="0.5892" stroke-miterlimit="10" stroke-linecap="round"/>
<path d="M184.695 101.874H217.146" stroke="white" stroke-width="0.5892" stroke-miterlimit="10"/>
<path d="M203.05 165.54L201.117 162.91L198.454 159.295C199.542 158.38 200.852 157.43 202.32 156.529C205.241 154.743 208.054 153.557 209.922 153.228L211.218 155.808L212.836 159.023C211.691 163.089 203.05 165.54 203.05 165.54Z" fill="#F5E4D4"/>
<path d="M211.225 155.808C210.023 157.272 207.761 159.123 204.976 160.831C203.637 161.653 202.327 162.353 201.124 162.91L198.461 159.295C199.55 158.38 200.86 157.43 202.327 156.529C205.248 154.743 208.061 153.557 209.93 153.228L211.225 155.808Z" fill="#626A7F"/>
<path d="M221.684 173.192L202.041 187.276C200.373 188.434 197.781 189.398 198.125 185.211C198.604 179.438 199.886 170.849 203.05 165.533C203.186 165.497 211.691 163.046 212.836 159.016L221.792 165.368C224.369 167.369 224.311 171.27 221.684 173.192Z" fill="white" stroke="#F6C850" stroke-width="0.5892" stroke-miterlimit="10"/>
<path d="M202.141 167.398C203.702 167.69 212.464 164.589 213.824 159.809" stroke="#F6C850" stroke-width="0.5892" stroke-miterlimit="10" stroke-linecap="round"/>
<path d="M200.029 185.826C200.029 185.826 212.85 168.048 221.971 169.048C231.9 170.127 191.911 196.194 200.029 185.826Z" fill="#F6C850"/>
<path d="M199.664 188.248C198.669 188.312 197.616 187.155 199.07 185.297C199.07 185.297 212.413 166.862 221.913 167.905C223.381 168.062 223.875 169.255 223.531 170.284" stroke="#F6C850" stroke-width="0.5892" stroke-miterlimit="10" stroke-linecap="round"/>
<path d="M249.146 110.856C244.607 109.784 233.311 106.961 220.425 103.989C214.369 102.595 209.3 98.4797 206.687 92.8491L194.954 67.5113L202.056 56.2787C204.239 52.8203 207.962 50.6195 212.049 50.3694L219.036 49.9407C226.08 49.512 231.736 53.8993 233.883 60.6088L248.094 102.11C249.654 105.997 249.146 110.856 249.146 110.856Z" fill="white" stroke="#F69050" stroke-width="0.5892" stroke-miterlimit="10"/>
<path d="M201.132 68.9333C201.132 68.9333 204.869 74.7926 213.381 76.0859" stroke="#F69050" stroke-width="0.5892" stroke-miterlimit="10"/>
<path d="M206.172 58.2723C205.785 57.8578 205.105 57.9721 204.869 58.4795C204.604 59.0511 205.084 59.6871 205.706 59.5942C206.344 59.5013 206.609 58.7367 206.172 58.2723Z" fill="#F6C850" stroke="#F69050" stroke-width="0.5892" stroke-miterlimit="10" stroke-linejoin="round"/>
<path d="M224.005 70.4838C223.618 70.0694 222.938 70.1837 222.702 70.6911C222.437 71.2627 222.917 71.8986 223.54 71.8057C224.177 71.7128 224.442 70.9483 224.005 70.4838Z" fill="#F6C850" stroke="#F69050" stroke-width="0.5892" stroke-miterlimit="10" stroke-linejoin="round"/>
<path d="M229.653 75.4857C229.266 75.0712 228.586 75.1856 228.35 75.6929C228.085 76.2645 228.565 76.9005 229.187 76.8076C229.817 76.7218 230.082 75.9573 229.653 75.4857Z" fill="#F6C850" stroke="#F69050" stroke-width="0.5892" stroke-miterlimit="10" stroke-linejoin="round"/>
<path d="M240.484 103.789C240.098 103.374 239.418 103.489 239.181 103.996C238.917 104.568 239.396 105.204 240.019 105.111C240.649 105.018 240.914 104.26 240.484 103.789Z" fill="#F6C850" stroke="#F69050" stroke-width="0.5892" stroke-miterlimit="10" stroke-linejoin="round"/>
<path d="M234.421 90.2624C234.034 89.848 233.354 89.9623 233.118 90.4696C232.853 91.0413 233.333 91.6772 233.956 91.5843C234.593 91.4914 234.858 90.7269 234.421 90.2624Z" fill="#F6C850" stroke="#F69050" stroke-width="0.5892" stroke-miterlimit="10" stroke-linejoin="round"/>
<path d="M236.933 80.5304C236.375 80.6018 236.067 81.2235 236.346 81.7093C236.661 82.2595 237.456 82.2381 237.742 81.6736C238.036 81.102 237.563 80.4446 236.933 80.5304Z" fill="#F6C850" stroke="#F69050" stroke-width="0.5892" stroke-miterlimit="10" stroke-linejoin="round"/>
<path d="M241.508 94.9641C240.949 95.0356 240.641 95.6572 240.921 96.1431C241.236 96.6933 242.03 96.6719 242.316 96.1074C242.61 95.5358 242.145 94.8784 241.508 94.9641Z" fill="#F6C850" stroke="#F69050" stroke-width="0.5892" stroke-miterlimit="10" stroke-linejoin="round"/>
<path d="M222.537 79.3942C222.15 78.9798 221.47 79.0941 221.234 79.6014C220.969 80.1731 221.449 80.809 222.072 80.7161C222.702 80.6232 222.967 79.8658 222.537 79.3942Z" fill="#F6C850" stroke="#F69050" stroke-width="0.5892" stroke-miterlimit="10" stroke-linejoin="round"/>
<path d="M218.593 87.49C218.206 87.0756 217.526 87.1899 217.29 87.6972C217.025 88.2689 217.505 88.9048 218.127 88.8119C218.765 88.7191 219.029 87.9545 218.593 87.49Z" fill="#F6C850" stroke="#F69050" stroke-width="0.5892" stroke-miterlimit="10" stroke-linejoin="round"/>
<path d="M211.534 84.6604C211.949 84.2745 211.835 83.5957 211.327 83.3599C210.754 83.0956 210.117 83.5743 210.21 84.1959C210.303 84.8247 211.062 85.0891 211.534 84.6604Z" fill="#F6C850" stroke="#F69050" stroke-width="0.5892" stroke-miterlimit="10" stroke-linejoin="round"/>
<path d="M217.798 98.5941C218.213 98.2082 218.099 97.5294 217.59 97.2936C217.018 97.0292 216.38 97.5079 216.473 98.1296C216.567 98.7655 217.333 99.0299 217.798 98.5941Z" fill="#F6C850" stroke="#F69050" stroke-width="0.5892" stroke-miterlimit="10" stroke-linejoin="round"/>
<path d="M228.343 86.6397C228.758 86.2538 228.643 85.575 228.135 85.3392C227.562 85.0748 226.925 85.5536 227.018 86.1752C227.111 86.804 227.877 87.0755 228.343 86.6397Z" fill="#F6C850" stroke="#F69050" stroke-width="0.5892" stroke-miterlimit="10" stroke-linejoin="round"/>
<path d="M231.944 101.602C232.359 101.216 232.244 100.538 231.736 100.302C231.164 100.037 230.526 100.516 230.619 101.138C230.705 101.774 231.471 102.038 231.944 101.602Z" fill="#F6C850" stroke="#F69050" stroke-width="0.5892" stroke-miterlimit="10" stroke-linejoin="round"/>
<path d="M210.353 71.2984C209.966 70.884 209.286 70.9983 209.05 71.5056C208.785 72.0773 209.265 72.7132 209.888 72.6203C210.525 72.5274 210.79 71.7629 210.353 71.2984Z" fill="#F6C850" stroke="#F69050" stroke-width="0.5892" stroke-miterlimit="10" stroke-linejoin="round"/>
<path d="M211.635 52.7631C211.248 52.3487 210.568 52.463 210.332 52.9703C210.067 53.542 210.547 54.1779 211.169 54.085C211.807 53.9921 212.071 53.2276 211.635 52.7631Z" fill="#F6C850" stroke="#F69050" stroke-width="0.5892" stroke-miterlimit="10" stroke-linejoin="round"/>
<path d="M224.005 52.7631C223.618 52.3487 222.938 52.463 222.702 52.9703C222.437 53.542 222.917 54.1779 223.54 54.085C224.177 53.9921 224.442 53.2276 224.005 52.7631Z" fill="#F6C850" stroke="#F69050" stroke-width="0.5892" stroke-miterlimit="10" stroke-linejoin="round"/>
<path d="M224.026 60.766C223.504 60.9733 223.353 61.6449 223.747 62.0522C224.184 62.5024 224.95 62.2952 225.093 61.6807C225.236 61.059 224.62 60.5302 224.026 60.766Z" fill="#F6C850" stroke="#F69050" stroke-width="0.5892" stroke-miterlimit="10" stroke-linejoin="round"/>
<path d="M216.996 56.2072C216.452 56.3644 216.245 57.0147 216.588 57.4577C216.982 57.9507 217.762 57.815 217.963 57.2219C218.17 56.6145 217.605 56.0286 216.996 56.2072Z" fill="#F6C850" stroke="#F69050" stroke-width="0.5892" stroke-miterlimit="10" stroke-linejoin="round"/>
<path d="M215.958 76.0001C215.4 76.0645 215.085 76.679 215.357 77.172C215.664 77.7222 216.459 77.7151 216.753 77.1577C217.053 76.5932 216.595 75.9287 215.958 76.0001Z" fill="#F6C850" stroke="#F69050" stroke-width="0.5892" stroke-miterlimit="10" stroke-linejoin="round"/>
<path d="M209.823 90.8841C209.265 90.9484 208.95 91.5629 209.222 92.0559C209.53 92.6061 210.324 92.599 210.618 92.0416C210.919 91.4772 210.46 90.8126 209.823 90.8841Z" fill="#F6C850" stroke="#F69050" stroke-width="0.5892" stroke-miterlimit="10" stroke-linejoin="round"/>
<path d="M211.885 62.1094C211.341 62.2666 211.133 62.9168 211.477 63.3598C211.871 63.8529 212.651 63.7171 212.851 63.124C213.059 62.5238 212.501 61.9379 211.885 62.1094Z" fill="#F6C850" stroke="#F69050" stroke-width="0.5892" stroke-miterlimit="10" stroke-linejoin="round"/>
<path d="M217.812 66.1108C217.268 66.268 217.061 66.9183 217.404 67.3613C217.798 67.8543 218.578 67.7185 218.779 67.1255C218.986 66.5181 218.428 65.9322 217.812 66.1108Z" fill="#F6C850" stroke="#F69050" stroke-width="0.5892" stroke-miterlimit="10" stroke-linejoin="round"/>
<path d="M204.977 65.9394C205.335 65.5035 205.141 64.8461 204.597 64.6818C203.996 64.496 203.423 65.0533 203.602 65.6535C203.781 66.268 204.569 66.4324 204.977 65.9394Z" fill="#F6C850" stroke="#F69050" stroke-width="0.5892" stroke-miterlimit="10" stroke-linejoin="round"/>
<path d="M232.116 65.9608C232.474 65.5249 232.28 64.8675 231.736 64.7032C231.135 64.5174 230.562 65.0747 230.741 65.675C230.913 66.2895 231.708 66.4538 232.116 65.9608Z" fill="#F6C850" stroke="#F69050" stroke-width="0.5892" stroke-miterlimit="10" stroke-linejoin="round"/>
<path d="M225.229 94.9284C225.586 94.4925 225.393 93.8351 224.849 93.6708C224.248 93.485 223.675 94.0424 223.854 94.6426C224.026 95.2499 224.821 95.4143 225.229 94.9284Z" fill="#F6C850" stroke="#F69050" stroke-width="0.5892" stroke-miterlimit="10" stroke-linejoin="round"/>
<path d="M219.515 49.7048C219.357 49.712 219.2 49.7191 219.035 49.7263L212.048 50.155C210.266 50.2622 208.562 50.7409 207.016 51.5341L204.868 45.1175L214.439 38.1149L219.515 49.7048Z" fill="#F5E4D4"/>
<path d="M206.987 51.434C208.977 50.5337 210.567 48.9331 211.469 46.9467L214.948 39.2654L214.439 38.1078L204.868 45.1103L206.987 51.434Z" fill="#626A7F"/>
<path d="M215.056 38.758C215.056 39.4226 214.784 40.0228 214.347 40.4587C213.91 40.8945 213.309 41.1661 212.643 41.1661H210.538C209.708 44.3887 206.494 46.5966 203.036 45.9892L201.454 45.7106C199.721 45.4033 198.54 43.7884 198.784 42.0521L200.638 32.7844C200.96 30.8052 203 29.5976 204.897 30.2764L207.968 31.5054C209.629 32.077 210.746 33.6348 210.746 35.3854V36.2786L212.643 36.35C213.975 36.35 215.056 37.429 215.056 38.758Z" fill="#F5E4D4"/>
<path d="M211.49 39.2225C211.49 38.3007 212.235 37.5576 213.158 37.5576" stroke="#626A7F" stroke-width="0.491" stroke-miterlimit="10" stroke-linecap="round"/>
<path d="M201.668 34.7352C201.668 34.7352 203.172 34.7352 204.246 36.1714" stroke="#626A7F" stroke-width="0.491" stroke-miterlimit="10" stroke-linecap="round"/>
<path d="M202.668 37.4095C202.744 36.994 202.647 36.6287 202.453 36.5934C202.258 36.5581 202.039 36.8663 201.964 37.2817C201.888 37.6972 201.984 38.0626 202.179 38.0979C202.373 38.1332 202.592 37.825 202.668 37.4095Z" fill="#626A7F"/>
<path d="M212.643 36.35C213.975 36.35 215.056 37.429 215.056 38.758C215.056 38.7652 215.056 38.7795 215.056 38.7938C216.13 37.1432 218.764 32.9417 218.764 31.5197C218.764 29.6119 216.38 27.704 213.91 28.5758C214.075 28.4543 214.247 28.3257 214.426 28.1899C215.378 27.4468 215.879 26.8895 215.958 26.4893C215.986 26.3464 215.965 26.2178 215.893 26.1178C215.607 25.7105 215.292 25.5318 214.956 25.589C214.462 25.6676 213.953 26.275 213.445 27.3896C213.216 27.897 213.037 28.3972 212.937 28.7044C212.736 27.5111 211.77 23.5597 207.618 24.1671C206.186 24.3743 205.513 24.9673 205.327 25.6176C204.139 24.6887 202.549 23.9598 201.232 24.6529C198.956 25.8462 199.235 27.8041 200.552 29.1903C199.306 29.1689 198.433 29.5333 198.433 30.5837C198.433 31.5483 199.428 32.0127 200.795 32.1985C202.163 32.3843 203.917 32.2843 205.434 32.1128C206.515 31.9913 207.489 31.8413 208.112 31.7341C207.697 32.5844 207.532 33.3132 207.568 33.9277C207.632 35.1996 208.556 35.9499 209.858 36.2143C210.138 36.2714 210.438 36.3072 210.746 36.3215L212.643 36.35ZM214.998 25.8748C215.02 25.8677 215.041 25.8677 215.07 25.8677C215.271 25.8677 215.464 26.0106 215.657 26.2821C215.671 26.3107 215.693 26.3536 215.679 26.4322C215.564 27.0109 214.096 28.1113 213.245 28.6901C213.581 27.704 214.29 25.9963 214.998 25.8748Z" fill="#F6C850"/>
<path d="M206.93 27.9899C206.436 27.9899 205.935 27.7255 205.57 27.261C205.162 26.7466 205.026 26.1106 205.198 25.5604C205.219 25.489 205.291 25.4461 205.362 25.4604C205.391 25.4604 205.42 25.4675 205.441 25.489C206.522 26.2607 207.388 27.3611 207.259 27.7969C207.231 27.9113 207.138 27.9827 207.016 27.9899C206.987 27.9899 206.959 27.9899 206.93 27.9899ZM205.427 25.8319C205.362 26.2464 205.491 26.7037 205.792 27.0824C206.114 27.4897 206.558 27.7255 206.987 27.6969C207.002 27.5111 206.522 26.6608 205.427 25.8319Z" fill="white"/>
<path d="M192.798 91.0841H146.982C145.851 91.0841 145.171 89.8408 145.773 88.8905L151.872 79.3299C152.667 78.0866 154.034 77.3363 155.509 77.3363H186.52L192.798 91.0841Z" fill="#F5E4D4"/>
<path d="M156.518 77.3434L160.169 71.3413C160.384 70.984 160.778 70.7625 161.193 70.7625C162.131 70.7625 162.703 71.7843 162.216 72.5846L159.317 77.3434H156.518Z" fill="#F69050"/>
<path d="M192.799 91.0841H182.497C182.476 91.0627 182.447 91.0341 182.426 91.0127C179.92 88.4403 178.854 84.5389 180.264 80.7804L181.731 77.3363H186.521L192.799 91.0841Z" fill="#626A7F"/>
<path d="M153.454 84.6675H147.713C147.326 84.6675 146.968 84.8747 146.775 85.2106L146.167 86.2681C145.759 86.9826 146.274 87.8758 147.104 87.8758H151.722C152.524 87.8758 153.268 87.4614 153.69 86.7754L154.184 85.968C154.528 85.3964 154.12 84.6675 153.454 84.6675Z" fill="#F5E4D4"/>
<path d="M151.972 87.8759H146.231C145.844 87.8759 145.486 88.0831 145.293 88.4189L144.685 89.4764C144.277 90.191 144.792 91.0842 145.622 91.0842H150.24C151.042 91.0842 151.786 90.6697 152.208 89.9838L152.702 89.1763C153.053 88.6047 152.638 87.8759 151.972 87.8759Z" fill="#F5E4D4"/>
<path d="M155.094 81.4164H149.353C148.966 81.4164 148.608 81.6236 148.415 81.9594L147.806 83.0169C147.398 83.7315 147.914 84.6247 148.744 84.6247H153.361C154.163 84.6247 154.908 84.2102 155.33 83.5243L155.824 82.7168C156.175 82.1452 155.76 81.4164 155.094 81.4164Z" fill="#F5E4D4"/>
<path d="M153.454 84.6675H147.713C147.326 84.6675 146.968 84.8747 146.775 85.2106L146.167 86.2681C145.759 86.9826 146.274 87.8758 147.104 87.8758H151.722C152.524 87.8758 153.268 87.4614 153.69 86.7754L154.184 85.968C154.528 85.3964 154.12 84.6675 153.454 84.6675Z" stroke="#626A7F" stroke-width="0.491" stroke-miterlimit="10" stroke-linecap="round"/>
<path d="M151.972 87.8759H146.231C145.844 87.8759 145.486 88.0831 145.293 88.4189L144.685 89.4764C144.277 90.191 144.792 91.0842 145.622 91.0842H150.24C151.042 91.0842 151.786 90.6697 152.208 89.9838L152.702 89.1763C153.053 88.6047 152.638 87.8759 151.972 87.8759Z" stroke="#626A7F" stroke-width="0.491" stroke-miterlimit="10" stroke-linecap="round"/>
<path d="M155.094 81.4164H149.353C148.966 81.4164 148.608 81.6236 148.415 81.9594L147.806 83.0169C147.398 83.7315 147.914 84.6247 148.744 84.6247H153.361C154.163 84.6247 154.908 84.2102 155.33 83.5243L155.824 82.7168C156.175 82.1452 155.76 81.4164 155.094 81.4164Z" stroke="#626A7F" stroke-width="0.491" stroke-miterlimit="10" stroke-linecap="round"/>
<path d="M163.405 86.1966C161.68 86.1966 160.019 85.575 158.716 84.4389L156.54 82.5382H154.535L154.02 83.0884C153.096 84.0744 151.958 84.6389 150.605 84.6389H149.646C149.145 84.6389 148.837 84.0816 149.109 83.66L151.521 79.8872H163.412V86.1966H163.405Z" fill="#F5E4D4"/>
<path d="M151.521 79.8872L149.109 83.66C148.837 84.0816 149.145 84.6389 149.646 84.6389H150.605C151.958 84.6389 153.096 84.0816 154.02 83.0884L154.535 82.5382H156.54L158.716 84.4389C160.012 85.5678 161.679 86.1966 163.405 86.1966" stroke="#626A7F" stroke-width="0.491" stroke-miterlimit="10" stroke-linecap="round"/>
<path d="M211.741 77.7222L200.809 89.9123C198.511 92.4775 195.226 93.9423 191.775 93.9423C184.96 93.9423 180.242 87.1541 182.633 80.7804L195.619 50.3265L191.231 47.8756C190.608 47.3897 190.308 46.5966 190.444 45.8249L191.188 40.8159C191.417 39.7012 192.555 38.8295 193.665 38.5723L198.805 37.4147C199.242 37.3147 199.643 37.6862 199.571 38.1221L198.826 41.9878C198.533 43.8742 199.807 45.5033 201.697 45.8249C203.243 46.0893 204.332 47.6398 204.188 49.1975L200.688 70.9911C200.681 71.0054 204.267 76.586 211.741 77.7222Z" fill="#F5E4D4"/>
<path d="M203.357 54.378L199.134 81.7522" stroke="#626A7F" stroke-width="0.491" stroke-miterlimit="10" stroke-linecap="round"/>
<path d="M194.602 41.1803L194.545 42.9524C194.524 43.6812 194.96 44.3243 195.59 44.503L202.169 45.832" stroke="#626A7F" stroke-width="0.491" stroke-miterlimit="10" stroke-linecap="round"/>
<path d="M206.644 46.4036L201.382 45.7034C199.649 45.3961 198.468 43.7813 198.712 42.0449L199.392 38.1649C199.456 37.8005 199.127 37.4933 198.769 37.579L193.4 38.8295" stroke="#626A7F" stroke-width="0.491" stroke-miterlimit="10" stroke-linecap="round"/>
<path d="M203.737 86.6254L217.969 70.8196" stroke="#F69050" stroke-width="0.5892" stroke-miterlimit="10"/>
<path d="M195.77 50.3336H198.282" stroke="#626A7F" stroke-width="0.491" stroke-miterlimit="10" stroke-linecap="round"/>
<path d="M194.609 41.6519V42.2236C194.609 42.9024 195.103 43.4597 195.712 43.4597H196.499C196.843 43.4597 197.115 43.1525 197.115 42.7666L197.165 39.0367C197.172 38.4579 196.557 38.1007 196.055 38.2221" stroke="#626A7F" stroke-width="0.491" stroke-miterlimit="10" stroke-linecap="round"/>
<path d="M197.165 41.6519V42.2236C197.165 42.9024 197.659 43.4597 198.267 43.4597H198.769" stroke="#626A7F" stroke-width="0.491" stroke-miterlimit="10" stroke-linecap="round"/>
<path d="M244.708 131.77L253.019 200.81" stroke="#88BFBF" stroke-width="0.5892" stroke-miterlimit="10"/>
<path d="M208.685 131.77L200.374 200.81" stroke="#88BFBF" stroke-width="0.5892" stroke-miterlimit="10"/>
<path d="M203.223 177.101H250.163" stroke="#88BFBF" stroke-width="0.5892" stroke-miterlimit="10"/>
<path d="M203.896 131.985H249.067C249.669 131.985 250.156 131.499 250.156 130.899V129.427C250.156 128.826 249.669 128.341 249.067 128.341H203.896C203.294 128.341 202.808 128.826 202.808 129.427V130.899C202.808 131.499 203.294 131.985 203.896 131.985Z" fill="white" stroke="#F6C850" stroke-width="0.5892" stroke-miterlimit="10"/>
<path d="M128.729 79.7372L121.814 93.9423H100.917L109.315 79.7372H128.729Z" fill="white" stroke="#88BFBF" stroke-width="0.491" stroke-miterlimit="10"/>
<path d="M124.148 83.2027C124.148 83.2027 123.239 81.6522 121.055 82.0523C119.423 82.3453 117.49 83.6886 116.302 82.9669C115.114 82.2452 114.061 81.3449 112.522 81.7736C110.983 82.2024 109.845 83.0241 109.845 83.0241" stroke="#88BFBF" stroke-width="0.491" stroke-miterlimit="10"/>
<path d="M123.432 85.4178C123.432 85.4178 122.523 83.8672 120.34 84.2674C118.707 84.5604 116.774 85.9037 115.586 85.182C114.398 84.4603 113.345 83.56 111.806 83.9887C110.267 84.4174 109.129 85.2392 109.129 85.2392" stroke="#88BFBF" stroke-width="0.491" stroke-miterlimit="10"/>
<path d="M136.589 143.489C136.589 145.397 131.284 146.94 124.641 146.94C117.998 146.94 112.851 145.397 112.851 143.489C112.851 141.581 117.998 140.038 124.641 140.038C131.284 140.038 136.589 141.588 136.589 143.489Z" fill="#F69050"/>
<path d="M133.533 141.167V165.818L132.781 162.26C131.972 158.43 128.586 155.693 124.663 155.693C123.482 155.693 122.322 155.943 121.27 156.415C121.234 156.429 121.198 156.451 121.155 156.465L118.399 146.433L116.867 140.852C118.965 140.345 121.678 140.038 124.642 140.038C128.164 140.038 131.335 140.473 133.533 141.167Z" fill="#A0505A"/>
<path d="M133.532 141.167V145.811C131.335 146.504 128.163 146.94 124.641 146.94C122.357 146.94 120.224 146.754 118.399 146.44L116.867 140.859C118.964 140.352 121.677 140.045 124.641 140.045C128.163 140.038 131.335 140.473 133.532 141.167Z" fill="#E0712C"/>
<path d="M133.003 165.097C133.196 165.154 135.015 165.661 136.626 165.661C137.499 165.661 138.308 165.511 138.766 165.054C139.16 164.661 139.253 164.089 139.045 163.367C138.859 162.724 138.501 162.324 137.979 162.181C137.019 161.924 135.688 162.639 134.635 163.389C136.275 161.403 137.893 158.88 137.291 157.23C137.077 156.644 136.59 156.251 135.981 156.179C135.473 156.122 135 156.301 134.779 156.636C133.748 158.201 132.903 164.625 132.867 164.897L133.003 165.097ZM135.079 156.837C135.208 156.644 135.48 156.529 135.795 156.529C135.845 156.529 135.895 156.529 135.945 156.536C136.175 156.565 136.726 156.694 136.962 157.351C137.119 157.787 137.177 158.587 136.54 159.931C135.938 161.202 134.85 162.696 133.304 164.389C133.533 162.76 134.263 158.073 135.079 156.837ZM138.515 164.804C138.043 165.275 136.969 165.418 135.401 165.218C134.578 165.111 133.812 164.939 133.404 164.832C133.712 164.561 134.285 164.068 134.95 163.61C136.225 162.732 137.241 162.353 137.893 162.531C138.286 162.639 138.551 162.946 138.709 163.468C138.881 164.068 138.816 164.504 138.515 164.804Z" fill="#F6C850"/>
<path d="M118.471 158.466L116.817 160.316C114.942 162.417 114.634 165.475 116.058 167.905L123.339 180.366C124.763 182.803 127.376 184.296 130.197 184.296H133.211C135.394 184.296 137.019 182.296 136.568 180.166L132.774 162.267C131.965 158.437 128.579 155.7 124.656 155.7C122.301 155.693 120.046 156.701 118.471 158.466Z" fill="white" stroke="#88BFBF" stroke-width="0.491" stroke-miterlimit="10"/>
<path d="M124.105 163.853L133.504 182.031C133.948 182.853 134.499 183.382 135.129 183.718C134.585 184.082 133.926 184.304 133.211 184.304H130.197C127.369 184.304 124.756 182.803 123.339 180.374L116.058 167.905C115.765 167.398 115.543 166.869 115.392 166.319C114.361 162.496 118.721 159.495 121.993 161.738C122.737 162.246 123.467 162.932 124.105 163.853Z" fill="#88BFBF"/>
<path d="M124.126 163.896H115.45C115.493 163.761 115.543 163.632 115.6 163.51H123.847C123.933 163.625 124.019 163.739 124.105 163.861L124.126 163.896Z" fill="white"/>
<path d="M125.4 166.354H115.407C115.407 166.34 115.4 166.326 115.4 166.319C115.371 166.204 115.342 166.083 115.321 165.968H125.207L125.4 166.354Z" fill="white"/>
<path d="M126.675 168.82H116.595L116.366 168.427H126.474L126.675 168.82Z" fill="white"/>
<path d="M127.949 171.285H118.034L117.805 170.892H127.748L127.949 171.285Z" fill="white"/>
<path d="M129.223 173.743H119.473L119.244 173.357H129.023L129.223 173.743Z" fill="white"/>
<path d="M130.497 176.208H120.912L120.683 175.815H130.29L130.497 176.208Z" fill="white"/>
<path d="M131.772 178.673H122.351L122.122 178.28H131.564L131.772 178.673Z" fill="white"/>
<path d="M133.039 181.131H123.847C123.754 181.002 123.661 180.874 123.575 180.745H132.839L133.039 181.131Z" fill="white"/>
<path d="M134.922 183.596H126.932C126.675 183.482 126.424 183.353 126.181 183.21H134.406C134.571 183.353 134.743 183.482 134.922 183.596Z" fill="white"/>
<path d="M107.267 142.982C107.202 144.868 101.84 146.397 95.2401 146.397C88.6397 146.397 83.2778 144.875 83.2134 142.982V128.126H107.267V142.982Z" fill="#E0712C"/>
<path d="M105.67 145.447L105.634 147.212L105.291 164.44V163.939C105.291 159.516 101.697 155.929 97.2657 155.929H96.7789C94.5167 155.929 92.4765 156.808 90.966 158.223L89.9137 151.12L89.2622 146.726C91.0233 147.019 93.0635 147.183 95.2326 147.183C99.6997 147.176 103.587 146.476 105.67 145.447Z" fill="#A0505A"/>
<path d="M105.67 145.447L105.634 147.212C102.971 149.098 94.7455 151.42 89.9205 151.113L89.269 146.719C91.0301 147.004 93.0703 147.176 95.2394 147.176C99.6993 147.176 103.587 146.476 105.67 145.447Z" fill="#E0712C"/>
<path d="M97.631 184.532H98.9625C102.456 184.532 105.291 181.703 105.291 178.216V163.939C105.291 159.516 101.697 155.929 97.2659 155.929H96.7791C91.6248 155.929 87.6517 160.466 88.3461 165.568L90.0284 177.916C90.551 181.703 93.7939 184.532 97.631 184.532Z" fill="white" stroke="#88BFBF" stroke-width="0.491" stroke-miterlimit="10"/>
<path d="M103.3 182.81C102.169 183.875 100.637 184.532 98.9623 184.532H97.6307C93.7937 184.532 90.5507 181.703 90.0353 177.916L88.353 165.568C88.3244 165.333 88.2957 165.097 88.2886 164.868C88.7181 162.131 91.0876 160.038 93.9511 160.038C95.3614 160.038 96.6643 160.552 97.6737 161.41C98.6831 162.267 99.3918 163.475 99.6137 164.868L101.826 179.938C101.99 181.06 102.52 182.06 103.3 182.81Z" fill="#88BFBF"/>
<path d="M98.9485 162.96H88.9478C89.0193 162.824 89.1052 162.696 89.1911 162.574H98.7123C98.7982 162.696 98.8769 162.824 98.9485 162.96Z" fill="white"/>
<path d="M99.6931 165.418H88.3322C88.3179 165.29 88.3035 165.161 88.2964 165.032H99.6359L99.6931 165.418Z" fill="white"/>
<path d="M100.058 167.883H88.6686L88.6113 167.498H100.001L100.058 167.883Z" fill="white"/>
<path d="M100.416 170.349H89.005L88.9478 169.956H100.359L100.416 170.349Z" fill="white"/>
<path d="M100.781 172.807H89.3415L89.2842 172.421H100.724L100.781 172.807Z" fill="white"/>
<path d="M101.139 175.272H89.6707L89.6206 174.886H101.082L101.139 175.272Z" fill="white"/>
<path d="M101.504 177.737H90.0071L89.957 177.344H101.447L101.504 177.737Z" fill="white"/>
<path d="M101.87 180.195H90.7162C90.6518 180.066 90.5945 179.938 90.5444 179.809H101.805L101.827 179.938C101.841 180.023 101.855 180.109 101.87 180.195Z" fill="white"/>
<path d="M103.151 182.66H92.6061C92.463 182.539 92.3198 182.403 92.1909 182.274H102.822C102.922 182.41 103.036 182.539 103.151 182.66Z" fill="white"/>
<path d="M112.472 65.7679V77.8008C111.949 76.436 107.811 76.629 103.258 78.351C99.357 79.8301 96.429 81.8594 95.9995 83.2671V66.3324C95.9995 61.2948 98.6984 56.7932 102.843 54.3352C108.227 55.2712 112.472 59.9515 112.472 65.7679Z" fill="#F6C850"/>
<path d="M95.6847 54.8782C92.0194 57.422 89.6857 61.645 89.6857 66.3324V80.3017H69.3047L72.1181 68.2116C73.3136 63.0598 77.0505 58.9511 81.9184 57.2005L95.6847 54.8782Z" fill="#F6C850"/>
<path d="M136.904 114.671V142.717C136.904 140.809 131.285 139.266 124.641 139.266C117.998 139.266 112.615 140.809 112.615 142.717V129.277C112.615 128.648 112.099 128.133 111.469 128.133H74.9309C63.9422 128.133 55.817 117.922 58.3011 107.24L67.1207 69.312C68.5238 63.2598 73.4347 58.651 79.5697 57.6078L81.9178 57.2076C77.0499 58.9583 73.313 63.0669 72.1175 68.2188L69.3041 80.3088H89.6851V66.3324C89.6851 61.6449 92.026 57.4148 95.6841 54.8782L98.9055 54.3352C99.5713 54.2208 100.223 54.1708 100.874 54.1708C100.96 54.1708 101.039 54.1708 101.125 54.1708C101.203 54.1708 101.282 54.178 101.354 54.178C101.368 54.178 101.382 54.178 101.397 54.178C101.454 54.178 101.518 54.1851 101.576 54.1851C101.583 54.1851 101.597 54.1851 101.604 54.1851C101.64 54.1851 101.676 54.1922 101.705 54.1922C101.769 54.1994 101.826 54.1994 101.891 54.2065C101.962 54.2137 102.041 54.2208 102.113 54.228C102.184 54.2351 102.249 54.2423 102.32 54.2494C102.335 54.2494 102.349 54.2566 102.37 54.2566C102.442 54.2637 102.521 54.278 102.592 54.2851C102.599 54.2851 102.607 54.2851 102.607 54.2851C102.685 54.2994 102.764 54.3066 102.843 54.3209C98.6979 56.7789 95.9991 61.2805 95.9991 66.3181V100.652H122.873C130.619 100.666 136.904 106.933 136.904 114.671Z" fill="#F69050"/>
<path d="M96.1498 54.5638C92.4846 57.1076 89.6783 61.645 89.6783 66.3324V80.3017H69.2974L72.1107 68.2116C73.3063 63.0598 76.7281 58.8725 81.6033 57.1219" stroke="white" stroke-width="0.5892" stroke-miterlimit="10" stroke-linecap="round"/>
<path d="M112.615 124.968C112.615 120.988 114.025 117.136 116.595 114.1" stroke="white" stroke-width="0.5892" stroke-miterlimit="10" stroke-linecap="round"/>
<path d="M82.8416 123.546C82.8058 123.546 82.77 123.539 82.7414 123.517L81.7964 123.003C81.689 122.946 81.6532 122.817 81.7105 122.71C81.7678 122.603 81.8966 122.567 82.004 122.624L82.949 123.139C83.0564 123.196 83.0921 123.324 83.0349 123.432C82.9919 123.503 82.9203 123.546 82.8416 123.546ZM83.7865 123.303C83.7078 123.303 83.6362 123.26 83.6004 123.189C83.5432 123.081 83.579 122.953 83.6863 122.896L84.6313 122.381C84.7387 122.324 84.8675 122.367 84.9248 122.467C84.9821 122.574 84.9463 122.703 84.8389 122.76L83.8939 123.274C83.8581 123.289 83.8223 123.303 83.7865 123.303ZM80.9517 122.524C80.9159 122.524 80.8801 122.517 80.8515 122.496L79.9065 121.981C79.7991 121.924 79.7633 121.795 79.8206 121.688C79.8779 121.581 80.0067 121.545 80.1141 121.602L81.0591 122.117C81.1664 122.174 81.2022 122.303 81.145 122.41C81.102 122.481 81.0304 122.524 80.9517 122.524ZM85.6693 122.274C85.5906 122.274 85.519 122.231 85.4832 122.16C85.4259 122.053 85.4617 121.924 85.5691 121.867L86.514 121.352C86.6787 121.267 86.829 121.167 86.9794 121.059C87.0724 120.988 87.2084 121.009 87.28 121.102C87.3516 121.195 87.3301 121.331 87.2371 121.402C87.0724 121.524 86.9006 121.631 86.7216 121.731L85.7767 122.245C85.7409 122.267 85.7051 122.274 85.6693 122.274ZM79.0832 121.467C79.0403 121.467 78.9973 121.452 78.9544 121.424C78.6537 121.202 78.3745 120.945 78.1383 120.652C78.0596 120.559 78.0739 120.423 78.1669 120.352C78.26 120.273 78.396 120.288 78.4676 120.381C78.6824 120.645 78.9329 120.874 79.2049 121.074C79.298 121.145 79.3195 121.281 79.2551 121.374C79.2193 121.438 79.1548 121.467 79.0832 121.467ZM87.8814 120.716C87.8312 120.716 87.7883 120.702 87.7453 120.666C87.6523 120.595 87.638 120.459 87.7167 120.366C87.9315 120.102 88.1104 119.816 88.2536 119.502C88.3037 119.394 88.4326 119.344 88.54 119.394C88.6473 119.444 88.6975 119.573 88.6473 119.68C88.4899 120.023 88.2894 120.345 88.0532 120.631C88.0031 120.688 87.9458 120.716 87.8814 120.716ZM77.7374 119.83C77.6587 119.83 77.5799 119.787 77.5441 119.709C77.3866 119.366 77.2721 119.009 77.2005 118.637C77.179 118.523 77.2578 118.408 77.3723 118.387C77.4868 118.366 77.6014 118.444 77.6229 118.558C77.6873 118.894 77.7875 119.216 77.9307 119.523C77.9808 119.63 77.9307 119.759 77.8233 119.809C77.7947 119.823 77.766 119.83 77.7374 119.83ZM88.769 118.787C88.7547 118.787 88.7404 118.787 88.7333 118.787C88.6187 118.766 88.54 118.651 88.5614 118.537C88.6044 118.301 88.6259 118.065 88.6259 117.83V117.508C88.6259 117.387 88.7189 117.294 88.8406 117.294C88.9623 117.294 89.0554 117.387 89.0554 117.508V117.83C89.0554 118.094 89.0339 118.358 88.9838 118.616C88.9623 118.716 88.8693 118.787 88.769 118.787ZM77.3437 117.744C77.222 117.744 77.1289 117.651 77.1289 117.529V116.458C77.1289 116.336 77.222 116.243 77.3437 116.243C77.4654 116.243 77.5584 116.336 77.5584 116.458V117.529C77.5584 117.644 77.4582 117.744 77.3437 117.744ZM88.8335 116.651C88.7118 116.651 88.6187 116.558 88.6187 116.436V115.364C88.6187 115.243 88.7118 115.15 88.8335 115.15C88.9552 115.15 89.0482 115.243 89.0482 115.364V116.436C89.0482 116.558 88.9552 116.651 88.8335 116.651ZM77.3437 115.6C77.222 115.6 77.1289 115.507 77.1289 115.386V114.314C77.1289 114.193 77.222 114.1 77.3437 114.1C77.4654 114.1 77.5584 114.193 77.5584 114.314V115.386C77.5584 115.5 77.4582 115.6 77.3437 115.6ZM88.8335 114.507C88.7118 114.507 88.6187 114.414 88.6187 114.293V113.221C88.6187 113.099 88.7118 113.006 88.8335 113.006C88.9552 113.006 89.0482 113.099 89.0482 113.221V114.293C89.0482 114.414 88.9552 114.507 88.8335 114.507ZM77.3437 113.457C77.222 113.457 77.1289 113.364 77.1289 113.242V112.17C77.1289 112.049 77.222 111.956 77.3437 111.956C77.4654 111.956 77.5584 112.049 77.5584 112.17V113.242C77.5584 113.357 77.4582 113.457 77.3437 113.457ZM88.8335 112.363C88.7118 112.363 88.6187 112.27 88.6187 112.149V111.077C88.6187 110.956 88.7118 110.863 88.8335 110.863C88.9552 110.863 89.0482 110.956 89.0482 111.077V112.149C89.0482 112.27 88.9552 112.363 88.8335 112.363ZM77.3437 111.313C77.222 111.313 77.1289 111.22 77.1289 111.099V110.177H77.7088C77.8305 110.177 77.9235 110.27 77.9235 110.391C77.9235 110.513 77.8305 110.606 77.7088 110.606H77.5584V111.099C77.5584 111.213 77.4582 111.313 77.3437 111.313ZM88.4469 110.606H87.3731C87.2514 110.606 87.1583 110.513 87.1583 110.391C87.1583 110.27 87.2514 110.177 87.3731 110.177H88.4469C88.5686 110.177 88.6617 110.27 88.6617 110.391C88.6617 110.513 88.5686 110.606 88.4469 110.606ZM86.2993 110.606H85.2255C85.1038 110.606 85.0107 110.513 85.0107 110.391C85.0107 110.27 85.1038 110.177 85.2255 110.177H86.2993C86.421 110.177 86.514 110.27 86.514 110.391C86.514 110.513 86.421 110.606 86.2993 110.606ZM84.1517 110.606H83.0778C82.9561 110.606 82.8631 110.513 82.8631 110.391C82.8631 110.27 82.9561 110.177 83.0778 110.177H84.1517C84.2733 110.177 84.3664 110.27 84.3664 110.391C84.3664 110.513 84.2733 110.606 84.1517 110.606ZM82.004 110.606H80.9302C80.8085 110.606 80.7154 110.513 80.7154 110.391C80.7154 110.27 80.8085 110.177 80.9302 110.177H82.004C82.1257 110.177 82.2188 110.27 82.2188 110.391C82.2188 110.513 82.1257 110.606 82.004 110.606ZM79.8564 110.606H78.7826C78.6609 110.606 78.5678 110.513 78.5678 110.391C78.5678 110.27 78.6609 110.177 78.7826 110.177H79.8564C79.9781 110.177 80.0712 110.27 80.0712 110.391C80.0712 110.513 79.9781 110.606 79.8564 110.606Z" fill="white"/>
<path d="M62.5826 122.36C62.5038 122.36 62.4323 122.317 62.3965 122.245C62.3392 122.138 62.375 122.01 62.4824 121.953L63.3557 121.474C63.3772 121.459 63.3987 121.452 63.4202 121.438C63.5204 121.381 63.6564 121.417 63.7137 121.517C63.771 121.617 63.7351 121.752 63.6349 121.81C63.6135 121.824 63.592 121.838 63.5633 121.845L62.69 122.324C62.6542 122.353 62.6184 122.36 62.5826 122.36ZM64.3938 121.217C64.3365 121.217 64.2792 121.195 64.2363 121.145C64.1575 121.059 64.1647 120.924 64.2506 120.845C64.5011 120.616 64.7231 120.352 64.9163 120.073C64.9808 119.973 65.1168 119.952 65.217 120.016C65.3172 120.08 65.3387 120.216 65.2743 120.316C65.0667 120.623 64.8161 120.909 64.5441 121.167C64.494 121.202 64.4439 121.217 64.3938 121.217ZM65.5893 119.459C65.5606 119.459 65.5392 119.452 65.5105 119.444C65.4031 119.402 65.3459 119.28 65.3888 119.166C65.5105 118.844 65.5964 118.516 65.6465 118.18C65.6609 118.065 65.7682 117.98 65.8899 117.994C66.0045 118.008 66.0904 118.115 66.0761 118.237C66.026 118.608 65.9329 118.973 65.7969 119.323C65.7539 119.409 65.6752 119.459 65.5893 119.459ZM65.8971 117.358C65.7754 117.358 65.6823 117.265 65.6823 117.144V116.072C65.6823 115.95 65.7754 115.857 65.8971 115.857C66.0188 115.857 66.1119 115.95 66.1119 116.072V117.144C66.1119 117.258 66.0188 117.358 65.8971 117.358ZM65.8971 115.214C65.7754 115.214 65.6823 115.121 65.6823 115V113.928C65.6823 113.807 65.7754 113.714 65.8971 113.714C66.0188 113.714 66.1119 113.807 66.1119 113.928V115C66.1119 115.114 66.0188 115.214 65.8971 115.214ZM65.8971 113.071C65.7754 113.071 65.6823 112.978 65.6823 112.856V111.785C65.6823 111.663 65.7754 111.57 65.8971 111.57C66.0188 111.57 66.1119 111.663 66.1119 111.785V112.856C66.1119 112.971 66.0188 113.071 65.8971 113.071ZM65.8971 110.927C65.7754 110.927 65.6823 110.834 65.6823 110.713V110.606H65.1454C65.0237 110.606 64.9307 110.513 64.9307 110.391C64.9307 110.27 65.0237 110.177 65.1454 110.177H66.1119V110.713C66.1119 110.827 66.0188 110.927 65.8971 110.927ZM64.0716 110.606H62.9978C62.8761 110.606 62.783 110.513 62.783 110.391C62.783 110.27 62.8761 110.177 62.9978 110.177H64.0716C64.1933 110.177 64.2864 110.27 64.2864 110.391C64.2864 110.513 64.1862 110.606 64.0716 110.606ZM61.924 110.606H60.8502C60.7285 110.606 60.6354 110.513 60.6354 110.391C60.6354 110.27 60.7285 110.177 60.8502 110.177H61.924C62.0457 110.177 62.1388 110.27 62.1388 110.391C62.1388 110.513 62.0385 110.606 61.924 110.606ZM59.7764 110.606H58.7026C58.5809 110.606 58.4878 110.513 58.4878 110.391C58.4878 110.27 58.5809 110.177 58.7026 110.177H59.7764C59.8981 110.177 59.9911 110.27 59.9911 110.391C59.9911 110.513 59.8909 110.606 59.7764 110.606Z" fill="white"/>
<path d="M112.472 77.8008C112.995 79.1655 109.687 81.5878 105.142 83.3099C100.596 85.0319 96.5224 85.2963 95.9998 83.9244C95.4772 82.5525 98.7058 80.0802 103.259 78.3581C107.812 76.6361 111.949 76.4288 112.472 77.8008Z" fill="#F69050"/>
<path d="M115.013 122.131V122.889C114.777 122.831 114.527 122.803 114.276 122.803H113.353C111.985 122.803 110.818 121.931 110.375 120.716L112.995 120.366C114.061 120.223 115.013 121.052 115.013 122.131Z" fill="#E0712C"/>
<path d="M117.433 125.954V131.77C117.433 133.128 116.331 134.228 114.971 134.228H112.229C111.549 134.228 110.933 133.957 110.489 133.507C110.045 133.064 109.766 132.449 109.766 131.77H111.549C112.136 131.77 112.608 131.299 112.608 130.713V129.191C112.608 128.605 112.136 128.133 111.549 128.133H102.436C98.8777 128.133 95.9927 125.254 95.9927 121.702V83.2742C96.4222 81.8665 99.3501 79.8301 103.252 78.3581C105.915 77.3506 108.442 76.8647 110.181 76.9076V119.652C110.181 121.395 111.599 122.81 113.346 122.81H114.269C116.016 122.803 117.433 124.21 117.433 125.954Z" fill="#A0505A"/>
<path d="M110.181 76.9004V80.7876C108.886 81.6593 107.132 82.5525 105.134 83.3028C100.581 85.0248 96.5153 85.2892 95.9927 83.9173V83.267C96.4222 81.8594 99.3501 79.8229 103.252 78.351C105.922 77.3434 108.442 76.8576 110.181 76.9004Z" fill="#E0712C"/>
<path d="M98.2758 47.9543L95.5841 54.8782L81.7104 57.3577L85.3328 47.9543H98.2758Z" fill="#A0505A"/>
<path d="M98.2758 47.9543L96.8226 51.6985L83.0635 53.8421L85.3328 47.9543H98.2758Z" fill="#E0712C"/>
<path d="M106.408 33.8634C106.408 34.7995 104.783 35.8356 102.907 36.7073C100.352 37.9006 97.3378 38.8081 97.3378 38.8081L95.3047 42.6309C98.068 44.0957 99.149 46.7252 99.5785 48.5616C99.8505 49.7335 99.8505 50.5695 99.8505 50.5695H80.3644C80.3644 50.5695 75.2459 34.0206 87.5804 30.0621C95.1257 27.6398 106.408 31.6412 106.408 33.8634Z" fill="white" stroke="#F6C850" stroke-width="0.5892" stroke-miterlimit="10" stroke-linecap="round"/>
<path d="M85.7766 32.4201C88.4533 32.4201 90.6231 30.2542 90.6231 27.5826C90.6231 24.9109 88.4533 22.7451 85.7766 22.7451C83.1 22.7451 80.9302 24.9109 80.9302 27.5826C80.9302 30.2542 83.1 32.4201 85.7766 32.4201Z" fill="white" stroke="#F6C850" stroke-width="0.5892" stroke-miterlimit="10" stroke-linecap="round"/>
<path d="M99.571 48.5616C99.1702 46.8253 98.1679 44.353 95.6982 42.8596H95.061C94.474 42.8596 93.9371 42.6238 93.5505 42.2379C93.164 41.852 92.9277 41.3161 92.9277 40.7302C92.9277 39.5512 93.8798 38.6009 95.061 38.6009L97.7599 38.658H97.8315C97.8816 38.6437 97.9317 38.6223 97.989 38.608C98.7192 38.4508 101.031 37.8935 102.95 36.936L103.172 38.2579L103.888 42.4951C104.375 45.4033 102.377 48.0829 99.571 48.5616Z" fill="#A0505A"/>
<path d="M103.165 38.2507C100.817 39.2011 97.7529 38.6509 97.7529 38.6509C97.7529 38.6509 100.638 38.0793 102.943 36.9288L103.165 38.2507Z" fill="#E0712C"/>
<path d="M96.7218 41.1375C96.7218 40.3229 96.0632 39.6655 95.2471 39.6655" stroke="#E0712C" stroke-width="0.491" stroke-miterlimit="10" stroke-linecap="round"/>
<path d="M104.303 131.77L112.615 200.81" stroke="#88BFBF" stroke-width="0.5892" stroke-miterlimit="10"/>
<path d="M68.2729 131.77L59.9688 200.81" stroke="#88BFBF" stroke-width="0.5892" stroke-miterlimit="10"/>
<path d="M62.8184 177.101H109.758" stroke="#88BFBF" stroke-width="0.5892" stroke-miterlimit="10"/>
<path d="M61.05 131.77H111.526C112.128 131.77 112.615 131.284 112.615 130.684V129.212C112.615 128.612 112.128 128.126 111.526 128.126H61.05C60.4487 128.126 59.9619 128.612 59.9619 129.212V130.684C59.9691 131.284 60.4559 131.77 61.05 131.77Z" fill="white" stroke="#F6C850" stroke-width="0.5892" stroke-miterlimit="10"/>
</svg>
