<svg width="468" height="307" viewBox="0 0 468 307" fill="none" xmlns="http://www.w3.org/2000/svg">
<path d="M57 75.92V33.584L153.768 14V219.344H106.824V63.824L57 75.92Z" fill="#F5E4D4"/>
<path d="M241.253 178.592V184.856H247.613V186.248H241.253V192.608H248.333V194H239.573V177.2H248.333V178.592H241.253ZM258.027 180.656C259.595 180.656 260.875 181.144 261.867 182.12C262.859 183.08 263.355 184.48 263.355 186.32V194H261.699V186.512C261.699 185.088 261.339 184 260.619 183.248C259.915 182.496 258.947 182.12 257.715 182.12C256.451 182.12 255.443 182.52 254.691 183.32C253.939 184.12 253.563 185.296 253.563 186.848V194H251.883V180.896H253.563V183.128C253.979 182.328 254.579 181.72 255.363 181.304C256.147 180.872 257.035 180.656 258.027 180.656ZM266.542 187.448C266.542 186.088 266.814 184.904 267.358 183.896C267.902 182.872 268.654 182.088 269.614 181.544C270.574 180.984 271.67 180.704 272.902 180.704C274.518 180.704 275.846 181.104 276.886 181.904C277.942 182.704 278.622 183.792 278.926 185.168H277.126C276.902 184.224 276.414 183.488 275.662 182.96C274.926 182.416 274.006 182.144 272.902 182.144C272.022 182.144 271.23 182.344 270.526 182.744C269.822 183.144 269.262 183.744 268.846 184.544C268.446 185.328 268.246 186.296 268.246 187.448C268.246 188.6 268.446 189.576 268.846 190.376C269.262 191.176 269.822 191.776 270.526 192.176C271.23 192.576 272.022 192.776 272.902 192.776C274.006 192.776 274.926 192.512 275.662 191.984C276.414 191.44 276.902 190.688 277.126 189.728H278.926C278.622 191.072 277.942 192.152 276.886 192.968C275.83 193.784 274.502 194.192 272.902 194.192C271.67 194.192 270.574 193.92 269.614 193.376C268.654 192.816 267.902 192.032 267.358 191.024C266.814 190 266.542 188.808 266.542 187.448ZM288.005 194.192C286.773 194.192 285.661 193.92 284.669 193.376C283.693 192.816 282.917 192.032 282.341 191.024C281.781 190 281.501 188.808 281.501 187.448C281.501 186.088 281.789 184.904 282.365 183.896C282.941 182.872 283.725 182.088 284.717 181.544C285.709 180.984 286.821 180.704 288.053 180.704C289.285 180.704 290.397 180.984 291.389 181.544C292.397 182.088 293.181 182.872 293.741 183.896C294.317 184.904 294.605 186.088 294.605 187.448C294.605 188.792 294.317 189.976 293.741 191C293.165 192.024 292.373 192.816 291.365 193.376C290.357 193.92 289.237 194.192 288.005 194.192ZM288.005 192.728C288.869 192.728 289.669 192.536 290.405 192.152C291.141 191.752 291.733 191.16 292.181 190.376C292.645 189.576 292.877 188.6 292.877 187.448C292.877 186.296 292.653 185.328 292.205 184.544C291.757 183.744 291.165 183.152 290.429 182.768C289.693 182.368 288.893 182.168 288.029 182.168C287.165 182.168 286.365 182.368 285.629 182.768C284.893 183.152 284.301 183.744 283.853 184.544C283.421 185.328 283.205 186.296 283.205 187.448C283.205 188.6 283.421 189.576 283.853 190.376C284.301 191.16 284.885 191.752 285.605 192.152C286.341 192.536 287.141 192.728 288.005 192.728ZM304.052 180.656C305.62 180.656 306.9 181.144 307.892 182.12C308.884 183.08 309.38 184.48 309.38 186.32V194H307.724V186.512C307.724 185.088 307.364 184 306.644 183.248C305.94 182.496 304.972 182.12 303.74 182.12C302.476 182.12 301.468 182.52 300.716 183.32C299.964 184.12 299.588 185.296 299.588 186.848V194H297.908V180.896H299.588V183.128C300.004 182.328 300.604 181.72 301.388 181.304C302.172 180.872 303.06 180.656 304.052 180.656ZM315.519 182.312V190.448C315.519 191.248 315.671 191.8 315.975 192.104C316.279 192.408 316.815 192.56 317.583 192.56H319.119V194H317.319C316.135 194 315.255 193.728 314.679 193.184C314.103 192.624 313.815 191.712 313.815 190.448V182.312H311.991V180.896H313.815V177.608H315.519V180.896H319.119V182.312H315.519ZM323.81 183.224C324.178 182.408 324.738 181.776 325.49 181.328C326.258 180.88 327.194 180.656 328.298 180.656V182.408H327.842C326.626 182.408 325.65 182.736 324.914 183.392C324.178 184.048 323.81 185.144 323.81 186.68V194H322.13V180.896H323.81V183.224ZM342.921 186.776C342.921 187.352 342.905 187.792 342.873 188.096H332.001C332.049 189.088 332.289 189.936 332.721 190.64C333.153 191.344 333.721 191.88 334.425 192.248C335.129 192.6 335.897 192.776 336.729 192.776C337.817 192.776 338.729 192.512 339.465 191.984C340.217 191.456 340.713 190.744 340.953 189.848H342.729C342.409 191.128 341.721 192.176 340.665 192.992C339.625 193.792 338.313 194.192 336.729 194.192C335.497 194.192 334.393 193.92 333.417 193.376C332.441 192.816 331.673 192.032 331.113 191.024C330.569 190 330.297 188.808 330.297 187.448C330.297 186.088 330.569 184.896 331.113 183.872C331.657 182.848 332.417 182.064 333.393 181.52C334.369 180.976 335.481 180.704 336.729 180.704C337.977 180.704 339.065 180.976 339.993 181.52C340.937 182.064 341.657 182.8 342.153 183.728C342.665 184.64 342.921 185.656 342.921 186.776ZM341.217 186.728C341.233 185.752 341.033 184.92 340.617 184.232C340.217 183.544 339.665 183.024 338.961 182.672C338.257 182.32 337.489 182.144 336.657 182.144C335.409 182.144 334.345 182.544 333.465 183.344C332.585 184.144 332.097 185.272 332.001 186.728H341.217ZM364.413 180.896V194H362.733V191.696C362.349 192.512 361.757 193.136 360.957 193.568C360.157 194 359.261 194.216 358.269 194.216C356.701 194.216 355.421 193.736 354.429 192.776C353.437 191.8 352.941 190.392 352.941 188.552V180.896H354.597V188.36C354.597 189.784 354.949 190.872 355.653 191.624C356.373 192.376 357.349 192.752 358.581 192.752C359.845 192.752 360.853 192.352 361.605 191.552C362.357 190.752 362.733 189.576 362.733 188.024V180.896H364.413ZM384.088 180.656C385.624 180.656 386.872 181.144 387.832 182.12C388.808 183.08 389.296 184.48 389.296 186.32V194H387.64V186.512C387.64 185.088 387.296 184 386.608 183.248C385.92 182.496 384.984 182.12 383.8 182.12C382.568 182.12 381.584 182.528 380.848 183.344C380.112 184.16 379.744 185.344 379.744 186.896V194H378.088V186.512C378.088 185.088 377.744 184 377.056 183.248C376.368 182.496 375.424 182.12 374.224 182.12C372.992 182.12 372.008 182.528 371.272 183.344C370.536 184.16 370.168 185.344 370.168 186.896V194H368.488V180.896H370.168V183.152C370.584 182.336 371.176 181.72 371.944 181.304C372.712 180.872 373.568 180.656 374.512 180.656C375.648 180.656 376.64 180.928 377.488 181.472C378.352 182.016 378.976 182.816 379.36 183.872C379.712 182.832 380.312 182.04 381.16 181.496C382.024 180.936 383 180.656 384.088 180.656ZM199.493 215.776C199.909 214.896 200.565 214.168 201.461 213.592C202.373 213 203.453 212.704 204.701 212.704C205.885 212.704 206.949 212.984 207.893 213.544C208.853 214.088 209.597 214.872 210.125 215.896C210.669 216.904 210.941 218.08 210.941 219.424C210.941 220.768 210.669 221.952 210.125 222.976C209.597 224 208.853 224.792 207.893 225.352C206.949 225.912 205.885 226.192 204.701 226.192C203.469 226.192 202.397 225.904 201.485 225.328C200.573 224.736 199.909 224 199.493 223.12V232.192H197.837V212.896H199.493V215.776ZM209.237 219.424C209.237 218.336 209.021 217.4 208.589 216.616C208.173 215.816 207.597 215.208 206.861 214.792C206.125 214.376 205.293 214.168 204.365 214.168C203.469 214.168 202.645 214.384 201.893 214.816C201.157 215.248 200.573 215.864 200.141 216.664C199.709 217.464 199.493 218.392 199.493 219.448C199.493 220.504 199.709 221.432 200.141 222.232C200.573 223.032 201.157 223.648 201.893 224.08C202.645 224.512 203.469 224.728 204.365 224.728C205.293 224.728 206.125 224.52 206.861 224.104C207.597 223.672 208.173 223.056 208.589 222.256C209.021 221.44 209.237 220.496 209.237 219.424ZM215.952 215.224C216.32 214.408 216.88 213.776 217.632 213.328C218.4 212.88 219.336 212.656 220.44 212.656V214.408H219.984C218.768 214.408 217.792 214.736 217.056 215.392C216.32 216.048 215.952 217.144 215.952 218.68V226H214.272V212.896H215.952V215.224ZM228.943 226.192C227.711 226.192 226.599 225.92 225.607 225.376C224.631 224.816 223.855 224.032 223.279 223.024C222.719 222 222.439 220.808 222.439 219.448C222.439 218.088 222.727 216.904 223.303 215.896C223.879 214.872 224.663 214.088 225.655 213.544C226.647 212.984 227.759 212.704 228.991 212.704C230.223 212.704 231.335 212.984 232.327 213.544C233.335 214.088 234.119 214.872 234.679 215.896C235.255 216.904 235.543 218.088 235.543 219.448C235.543 220.792 235.255 221.976 234.679 223C234.103 224.024 233.311 224.816 232.303 225.376C231.295 225.92 230.175 226.192 228.943 226.192ZM228.943 224.728C229.807 224.728 230.607 224.536 231.343 224.152C232.079 223.752 232.671 223.16 233.119 222.376C233.583 221.576 233.815 220.6 233.815 219.448C233.815 218.296 233.591 217.328 233.143 216.544C232.695 215.744 232.103 215.152 231.367 214.768C230.631 214.368 229.831 214.168 228.967 214.168C228.103 214.168 227.303 214.368 226.567 214.768C225.831 215.152 225.239 215.744 224.791 216.544C224.359 217.328 224.143 218.296 224.143 219.448C224.143 220.6 224.359 221.576 224.791 222.376C225.239 223.16 225.823 223.752 226.543 224.152C227.279 224.536 228.079 224.728 228.943 224.728ZM244.006 214.312H240.958V226H239.278V214.312H237.454V212.896H239.278V211.984C239.278 210.56 239.638 209.512 240.358 208.84C241.094 208.168 242.278 207.832 243.91 207.832V209.272C242.822 209.272 242.054 209.48 241.606 209.896C241.174 210.312 240.958 211.008 240.958 211.984V212.896H244.006V214.312ZM247.73 210.424C247.394 210.424 247.106 210.304 246.866 210.064C246.626 209.824 246.506 209.528 246.506 209.176C246.506 208.824 246.626 208.536 246.866 208.312C247.106 208.072 247.394 207.952 247.73 207.952C248.066 207.952 248.354 208.072 248.594 208.312C248.834 208.536 248.954 208.824 248.954 209.176C248.954 209.528 248.834 209.824 248.594 210.064C248.354 210.304 248.066 210.424 247.73 210.424ZM248.57 212.896V226H246.89V212.896H248.57ZM257.127 226.192C255.623 226.192 254.391 225.848 253.431 225.16C252.487 224.456 251.959 223.504 251.847 222.304H253.575C253.655 223.04 253.999 223.64 254.607 224.104C255.231 224.552 256.063 224.776 257.103 224.776C258.015 224.776 258.727 224.56 259.239 224.128C259.767 223.696 260.031 223.16 260.031 222.52C260.031 222.072 259.887 221.704 259.599 221.416C259.311 221.128 258.943 220.904 258.495 220.744C258.063 220.568 257.471 220.384 256.719 220.192C255.743 219.936 254.951 219.68 254.343 219.424C253.735 219.168 253.215 218.792 252.783 218.296C252.367 217.784 252.159 217.104 252.159 216.256C252.159 215.616 252.351 215.024 252.735 214.48C253.119 213.936 253.663 213.504 254.367 213.184C255.071 212.864 255.871 212.704 256.767 212.704C258.175 212.704 259.311 213.064 260.175 213.784C261.039 214.488 261.503 215.464 261.567 216.712H259.887C259.839 215.944 259.535 215.328 258.975 214.864C258.431 214.384 257.679 214.144 256.719 214.144C255.871 214.144 255.183 214.344 254.655 214.744C254.127 215.144 253.863 215.64 253.863 216.232C253.863 216.744 254.015 217.168 254.319 217.504C254.639 217.824 255.031 218.08 255.495 218.272C255.959 218.448 256.583 218.648 257.367 218.872C258.311 219.128 259.063 219.376 259.623 219.616C260.183 219.856 260.663 220.208 261.063 220.672C261.463 221.136 261.671 221.752 261.687 222.52C261.687 223.224 261.495 223.856 261.111 224.416C260.727 224.96 260.191 225.392 259.503 225.712C258.815 226.032 258.023 226.192 257.127 226.192ZM269.601 226.192C268.097 226.192 266.865 225.848 265.905 225.16C264.961 224.456 264.433 223.504 264.321 222.304H266.049C266.129 223.04 266.473 223.64 267.081 224.104C267.705 224.552 268.537 224.776 269.577 224.776C270.489 224.776 271.201 224.56 271.713 224.128C272.241 223.696 272.505 223.16 272.505 222.52C272.505 222.072 272.361 221.704 272.073 221.416C271.785 221.128 271.417 220.904 270.969 220.744C270.537 220.568 269.945 220.384 269.193 220.192C268.217 219.936 267.425 219.68 266.817 219.424C266.209 219.168 265.689 218.792 265.257 218.296C264.841 217.784 264.633 217.104 264.633 216.256C264.633 215.616 264.825 215.024 265.209 214.48C265.593 213.936 266.137 213.504 266.841 213.184C267.545 212.864 268.345 212.704 269.241 212.704C270.649 212.704 271.785 213.064 272.649 213.784C273.513 214.488 273.977 215.464 274.041 216.712H272.361C272.313 215.944 272.009 215.328 271.449 214.864C270.905 214.384 270.153 214.144 269.193 214.144C268.345 214.144 267.657 214.344 267.129 214.744C266.601 215.144 266.337 215.64 266.337 216.232C266.337 216.744 266.489 217.168 266.793 217.504C267.113 217.824 267.505 218.08 267.969 218.272C268.433 218.448 269.057 218.648 269.841 218.872C270.785 219.128 271.537 219.376 272.097 219.616C272.657 219.856 273.137 220.208 273.537 220.672C273.937 221.136 274.145 221.752 274.161 222.52C274.161 223.224 273.969 223.856 273.585 224.416C273.201 224.96 272.665 225.392 271.977 225.712C271.289 226.032 270.497 226.192 269.601 226.192ZM278.403 210.424C278.067 210.424 277.779 210.304 277.539 210.064C277.299 209.824 277.179 209.528 277.179 209.176C277.179 208.824 277.299 208.536 277.539 208.312C277.779 208.072 278.067 207.952 278.403 207.952C278.739 207.952 279.027 208.072 279.267 208.312C279.507 208.536 279.627 208.824 279.627 209.176C279.627 209.528 279.507 209.824 279.267 210.064C279.027 210.304 278.739 210.424 278.403 210.424ZM279.243 212.896V226H277.563V212.896H279.243ZM289.024 226.192C287.792 226.192 286.68 225.92 285.688 225.376C284.712 224.816 283.936 224.032 283.36 223.024C282.8 222 282.52 220.808 282.52 219.448C282.52 218.088 282.808 216.904 283.384 215.896C283.96 214.872 284.744 214.088 285.736 213.544C286.728 212.984 287.84 212.704 289.072 212.704C290.304 212.704 291.416 212.984 292.408 213.544C293.416 214.088 294.2 214.872 294.76 215.896C295.336 216.904 295.624 218.088 295.624 219.448C295.624 220.792 295.336 221.976 294.76 223C294.184 224.024 293.392 224.816 292.384 225.376C291.376 225.92 290.256 226.192 289.024 226.192ZM289.024 224.728C289.888 224.728 290.688 224.536 291.424 224.152C292.16 223.752 292.752 223.16 293.2 222.376C293.664 221.576 293.896 220.6 293.896 219.448C293.896 218.296 293.672 217.328 293.224 216.544C292.776 215.744 292.184 215.152 291.448 214.768C290.712 214.368 289.912 214.168 289.048 214.168C288.184 214.168 287.384 214.368 286.648 214.768C285.912 215.152 285.32 215.744 284.872 216.544C284.44 217.328 284.224 218.296 284.224 219.448C284.224 220.6 284.44 221.576 284.872 222.376C285.32 223.16 285.904 223.752 286.624 224.152C287.36 224.536 288.16 224.728 289.024 224.728ZM305.07 212.656C306.638 212.656 307.918 213.144 308.91 214.12C309.902 215.08 310.398 216.48 310.398 218.32V226H308.742V218.512C308.742 217.088 308.382 216 307.662 215.248C306.958 214.496 305.99 214.12 304.758 214.12C303.494 214.12 302.486 214.52 301.734 215.32C300.982 216.12 300.606 217.296 300.606 218.848V226H298.926V212.896H300.606V215.128C301.022 214.328 301.622 213.72 302.406 213.304C303.19 212.872 304.078 212.656 305.07 212.656ZM313.586 219.424C313.586 218.08 313.85 216.904 314.378 215.896C314.922 214.872 315.666 214.088 316.61 213.544C317.57 212.984 318.65 212.704 319.85 212.704C321.098 212.704 322.17 212.992 323.066 213.568C323.978 214.144 324.634 214.88 325.034 215.776V212.896H326.714V226H325.034V223.096C324.618 223.992 323.954 224.736 323.042 225.328C322.146 225.904 321.074 226.192 319.826 226.192C318.642 226.192 317.57 225.912 316.61 225.352C315.666 224.792 314.922 224 314.378 222.976C313.85 221.952 313.586 220.768 313.586 219.424ZM325.034 219.448C325.034 218.392 324.818 217.464 324.386 216.664C323.954 215.864 323.362 215.248 322.61 214.816C321.874 214.384 321.058 214.168 320.162 214.168C319.234 214.168 318.402 214.376 317.666 214.792C316.93 215.208 316.346 215.816 315.914 216.616C315.498 217.4 315.29 218.336 315.29 219.424C315.29 220.496 315.498 221.44 315.914 222.256C316.346 223.056 316.93 223.672 317.666 224.104C318.402 224.52 319.234 224.728 320.162 224.728C321.058 224.728 321.874 224.512 322.61 224.08C323.362 223.648 323.954 223.032 324.386 222.232C324.818 221.432 325.034 220.504 325.034 219.448ZM332.469 208.24V226H330.789V208.24H332.469ZM196.366 251.424C196.366 250.08 196.638 248.904 197.182 247.896C197.726 246.872 198.47 246.088 199.414 245.544C200.374 244.984 201.454 244.704 202.654 244.704C203.806 244.704 204.846 244.984 205.774 245.544C206.702 246.104 207.382 246.832 207.814 247.728V240.24H209.494V258H207.814V255.072C207.414 255.984 206.758 256.736 205.846 257.328C204.934 257.904 203.862 258.192 202.63 258.192C201.43 258.192 200.35 257.912 199.39 257.352C198.446 256.792 197.702 256 197.158 254.976C196.63 253.952 196.366 252.768 196.366 251.424ZM207.814 251.448C207.814 250.392 207.598 249.464 207.166 248.664C206.734 247.864 206.142 247.248 205.39 246.816C204.654 246.384 203.838 246.168 202.942 246.168C202.014 246.168 201.182 246.376 200.446 246.792C199.71 247.208 199.126 247.816 198.694 248.616C198.278 249.4 198.07 250.336 198.07 251.424C198.07 252.496 198.278 253.44 198.694 254.256C199.126 255.056 199.71 255.672 200.446 256.104C201.182 256.52 202.014 256.728 202.942 256.728C203.838 256.728 204.654 256.512 205.39 256.08C206.142 255.648 206.734 255.032 207.166 254.232C207.598 253.432 207.814 252.504 207.814 251.448ZM225.425 250.776C225.425 251.352 225.409 251.792 225.377 252.096H214.505C214.553 253.088 214.793 253.936 215.225 254.64C215.657 255.344 216.225 255.88 216.929 256.248C217.633 256.6 218.401 256.776 219.233 256.776C220.321 256.776 221.233 256.512 221.969 255.984C222.721 255.456 223.217 254.744 223.457 253.848H225.233C224.913 255.128 224.225 256.176 223.169 256.992C222.129 257.792 220.817 258.192 219.233 258.192C218.001 258.192 216.897 257.92 215.921 257.376C214.945 256.816 214.177 256.032 213.617 255.024C213.073 254 212.801 252.808 212.801 251.448C212.801 250.088 213.073 248.896 213.617 247.872C214.161 246.848 214.921 246.064 215.897 245.52C216.873 244.976 217.985 244.704 219.233 244.704C220.481 244.704 221.569 244.976 222.497 245.52C223.441 246.064 224.161 246.8 224.657 247.728C225.169 248.64 225.425 249.656 225.425 250.776ZM223.721 250.728C223.737 249.752 223.537 248.92 223.121 248.232C222.721 247.544 222.169 247.024 221.465 246.672C220.761 246.32 219.993 246.144 219.161 246.144C217.913 246.144 216.849 246.544 215.969 247.344C215.089 248.144 214.601 249.272 214.505 250.728H223.721ZM234.797 251.424C234.797 250.08 235.061 248.904 235.589 247.896C236.133 246.872 236.877 246.088 237.821 245.544C238.781 244.984 239.861 244.704 241.061 244.704C242.309 244.704 243.381 244.992 244.277 245.568C245.189 246.144 245.845 246.88 246.245 247.776V244.896H247.925V258H246.245V255.096C245.829 255.992 245.165 256.736 244.253 257.328C243.357 257.904 242.285 258.192 241.037 258.192C239.853 258.192 238.781 257.912 237.821 257.352C236.877 256.792 236.133 256 235.589 254.976C235.061 253.952 234.797 252.768 234.797 251.424ZM246.245 251.448C246.245 250.392 246.029 249.464 245.597 248.664C245.165 247.864 244.573 247.248 243.821 246.816C243.085 246.384 242.269 246.168 241.373 246.168C240.445 246.168 239.613 246.376 238.877 246.792C238.141 247.208 237.557 247.816 237.125 248.616C236.709 249.4 236.501 250.336 236.501 251.424C236.501 252.496 236.709 253.44 237.125 254.256C237.557 255.056 238.141 255.672 238.877 256.104C239.613 256.52 240.445 256.728 241.373 256.728C242.269 256.728 243.085 256.512 243.821 256.08C244.573 255.648 245.165 255.032 245.597 254.232C246.029 253.432 246.245 252.504 246.245 251.448ZM251.232 251.448C251.232 250.088 251.504 248.904 252.048 247.896C252.592 246.872 253.344 246.088 254.304 245.544C255.264 244.984 256.36 244.704 257.592 244.704C259.208 244.704 260.536 245.104 261.576 245.904C262.632 246.704 263.312 247.792 263.616 249.168H261.816C261.592 248.224 261.104 247.488 260.352 246.96C259.616 246.416 258.696 246.144 257.592 246.144C256.712 246.144 255.92 246.344 255.216 246.744C254.512 247.144 253.952 247.744 253.536 248.544C253.136 249.328 252.936 250.296 252.936 251.448C252.936 252.6 253.136 253.576 253.536 254.376C253.952 255.176 254.512 255.776 255.216 256.176C255.92 256.576 256.712 256.776 257.592 256.776C258.696 256.776 259.616 256.512 260.352 255.984C261.104 255.44 261.592 254.688 261.816 253.728H263.616C263.312 255.072 262.632 256.152 261.576 256.968C260.52 257.784 259.192 258.192 257.592 258.192C256.36 258.192 255.264 257.92 254.304 257.376C253.344 256.816 252.592 256.032 252.048 255.024C251.504 254 251.232 252.808 251.232 251.448ZM272.695 258.192C271.463 258.192 270.351 257.92 269.359 257.376C268.383 256.816 267.607 256.032 267.031 255.024C266.471 254 266.191 252.808 266.191 251.448C266.191 250.088 266.479 248.904 267.055 247.896C267.631 246.872 268.415 246.088 269.407 245.544C270.399 244.984 271.511 244.704 272.743 244.704C273.975 244.704 275.087 244.984 276.079 245.544C277.087 246.088 277.871 246.872 278.431 247.896C279.007 248.904 279.295 250.088 279.295 251.448C279.295 252.792 279.007 253.976 278.431 255C277.855 256.024 277.063 256.816 276.055 257.376C275.047 257.92 273.927 258.192 272.695 258.192ZM272.695 256.728C273.559 256.728 274.359 256.536 275.095 256.152C275.831 255.752 276.423 255.16 276.871 254.376C277.335 253.576 277.567 252.6 277.567 251.448C277.567 250.296 277.343 249.328 276.895 248.544C276.447 247.744 275.855 247.152 275.119 246.768C274.383 246.368 273.583 246.168 272.719 246.168C271.855 246.168 271.055 246.368 270.319 246.768C269.583 247.152 268.991 247.744 268.543 248.544C268.111 249.328 267.895 250.296 267.895 251.448C267.895 252.6 268.111 253.576 268.543 254.376C268.991 255.16 269.575 255.752 270.295 256.152C271.031 256.536 271.831 256.728 272.695 256.728ZM284.277 247.224C284.645 246.408 285.205 245.776 285.957 245.328C286.725 244.88 287.661 244.656 288.765 244.656V246.408H288.309C287.093 246.408 286.117 246.736 285.381 247.392C284.645 248.048 284.277 249.144 284.277 250.68V258H282.597V244.896H284.277V247.224ZM290.765 251.424C290.765 250.08 291.037 248.904 291.581 247.896C292.125 246.872 292.869 246.088 293.813 245.544C294.773 244.984 295.853 244.704 297.053 244.704C298.205 244.704 299.245 244.984 300.173 245.544C301.101 246.104 301.781 246.832 302.213 247.728V240.24H303.893V258H302.213V255.072C301.813 255.984 301.157 256.736 300.245 257.328C299.333 257.904 298.261 258.192 297.029 258.192C295.829 258.192 294.749 257.912 293.789 257.352C292.845 256.792 292.101 256 291.557 254.976C291.029 253.952 290.765 252.768 290.765 251.424ZM302.213 251.448C302.213 250.392 301.997 249.464 301.565 248.664C301.133 247.864 300.541 247.248 299.789 246.816C299.053 246.384 298.237 246.168 297.341 246.168C296.413 246.168 295.581 246.376 294.845 246.792C294.109 247.208 293.525 247.816 293.093 248.616C292.677 249.4 292.469 250.336 292.469 251.424C292.469 252.496 292.677 253.44 293.093 254.256C293.525 255.056 294.109 255.672 294.845 256.104C295.581 256.52 296.413 256.728 297.341 256.728C298.237 256.728 299.053 256.512 299.789 256.08C300.541 255.648 301.133 255.032 301.565 254.232C301.997 253.432 302.213 252.504 302.213 251.448ZM313.704 258.192C312.472 258.192 311.36 257.92 310.368 257.376C309.392 256.816 308.616 256.032 308.04 255.024C307.48 254 307.2 252.808 307.2 251.448C307.2 250.088 307.488 248.904 308.064 247.896C308.64 246.872 309.424 246.088 310.416 245.544C311.408 244.984 312.52 244.704 313.752 244.704C314.984 244.704 316.096 244.984 317.088 245.544C318.096 246.088 318.88 246.872 319.44 247.896C320.016 248.904 320.304 250.088 320.304 251.448C320.304 252.792 320.016 253.976 319.44 255C318.864 256.024 318.072 256.816 317.064 257.376C316.056 257.92 314.936 258.192 313.704 258.192ZM313.704 256.728C314.568 256.728 315.368 256.536 316.104 256.152C316.84 255.752 317.432 255.16 317.88 254.376C318.344 253.576 318.576 252.6 318.576 251.448C318.576 250.296 318.352 249.328 317.904 248.544C317.456 247.744 316.864 247.152 316.128 246.768C315.392 246.368 314.592 246.168 313.728 246.168C312.864 246.168 312.064 246.368 311.328 246.768C310.592 247.152 310 247.744 309.552 248.544C309.12 249.328 308.904 250.296 308.904 251.448C308.904 252.6 309.12 253.576 309.552 254.376C310 255.16 310.584 255.752 311.304 256.152C312.04 256.536 312.84 256.728 313.704 256.728ZM329.664 251.448C329.664 250.088 329.936 248.904 330.48 247.896C331.024 246.872 331.776 246.088 332.736 245.544C333.696 244.984 334.792 244.704 336.024 244.704C337.64 244.704 338.968 245.104 340.008 245.904C341.064 246.704 341.744 247.792 342.048 249.168H340.248C340.024 248.224 339.536 247.488 338.784 246.96C338.048 246.416 337.128 246.144 336.024 246.144C335.144 246.144 334.352 246.344 333.648 246.744C332.944 247.144 332.384 247.744 331.968 248.544C331.568 249.328 331.368 250.296 331.368 251.448C331.368 252.6 331.568 253.576 331.968 254.376C332.384 255.176 332.944 255.776 333.648 256.176C334.352 256.576 335.144 256.776 336.024 256.776C337.128 256.776 338.048 256.512 338.784 255.984C339.536 255.44 340.024 254.688 340.248 253.728H342.048C341.744 255.072 341.064 256.152 340.008 256.968C338.952 257.784 337.624 258.192 336.024 258.192C334.792 258.192 333.696 257.92 332.736 257.376C331.776 256.816 331.024 256.032 330.48 255.024C329.936 254 329.664 252.808 329.664 251.448ZM351.127 258.192C349.895 258.192 348.783 257.92 347.791 257.376C346.815 256.816 346.039 256.032 345.463 255.024C344.903 254 344.623 252.808 344.623 251.448C344.623 250.088 344.911 248.904 345.487 247.896C346.063 246.872 346.847 246.088 347.839 245.544C348.831 244.984 349.943 244.704 351.175 244.704C352.407 244.704 353.519 244.984 354.511 245.544C355.519 246.088 356.303 246.872 356.863 247.896C357.439 248.904 357.727 250.088 357.727 251.448C357.727 252.792 357.439 253.976 356.863 255C356.287 256.024 355.495 256.816 354.487 257.376C353.479 257.92 352.359 258.192 351.127 258.192ZM351.127 256.728C351.991 256.728 352.791 256.536 353.527 256.152C354.263 255.752 354.855 255.16 355.303 254.376C355.767 253.576 355.999 252.6 355.999 251.448C355.999 250.296 355.775 249.328 355.327 248.544C354.879 247.744 354.287 247.152 353.551 246.768C352.815 246.368 352.015 246.168 351.151 246.168C350.287 246.168 349.487 246.368 348.751 246.768C348.015 247.152 347.423 247.744 346.975 248.544C346.543 249.328 346.327 250.296 346.327 251.448C346.327 252.6 346.543 253.576 346.975 254.376C347.423 255.16 348.007 255.752 348.727 256.152C349.463 256.536 350.263 256.728 351.127 256.728ZM376.63 244.656C378.166 244.656 379.414 245.144 380.374 246.12C381.35 247.08 381.838 248.48 381.838 250.32V258H380.182V250.512C380.182 249.088 379.838 248 379.15 247.248C378.462 246.496 377.526 246.12 376.342 246.12C375.11 246.12 374.126 246.528 373.39 247.344C372.654 248.16 372.286 249.344 372.286 250.896V258H370.63V250.512C370.63 249.088 370.286 248 369.598 247.248C368.91 246.496 367.966 246.12 366.766 246.12C365.534 246.12 364.55 246.528 363.814 247.344C363.078 248.16 362.71 249.344 362.71 250.896V258H361.03V244.896H362.71V247.152C363.126 246.336 363.718 245.72 364.486 245.304C365.254 244.872 366.11 244.656 367.054 244.656C368.19 244.656 369.182 244.928 370.03 245.472C370.894 246.016 371.518 246.816 371.902 247.872C372.254 246.832 372.854 246.04 373.702 245.496C374.566 244.936 375.542 244.656 376.63 244.656ZM397.147 258.192C395.643 258.192 394.411 257.848 393.451 257.16C392.507 256.456 391.979 255.504 391.867 254.304H393.595C393.675 255.04 394.019 255.64 394.627 256.104C395.251 256.552 396.083 256.776 397.123 256.776C398.035 256.776 398.747 256.56 399.259 256.128C399.787 255.696 400.051 255.16 400.051 254.52C400.051 254.072 399.907 253.704 399.619 253.416C399.331 253.128 398.963 252.904 398.515 252.744C398.083 252.568 397.491 252.384 396.739 252.192C395.763 251.936 394.971 251.68 394.363 251.424C393.755 251.168 393.235 250.792 392.803 250.296C392.387 249.784 392.179 249.104 392.179 248.256C392.179 247.616 392.371 247.024 392.755 246.48C393.139 245.936 393.683 245.504 394.387 245.184C395.091 244.864 395.891 244.704 396.787 244.704C398.195 244.704 399.331 245.064 400.195 245.784C401.059 246.488 401.523 247.464 401.587 248.712H399.907C399.859 247.944 399.555 247.328 398.995 246.864C398.451 246.384 397.699 246.144 396.739 246.144C395.891 246.144 395.203 246.344 394.675 246.744C394.147 247.144 393.883 247.64 393.883 248.232C393.883 248.744 394.035 249.168 394.339 249.504C394.659 249.824 395.051 250.08 395.515 250.272C395.979 250.448 396.603 250.648 397.387 250.872C398.331 251.128 399.083 251.376 399.643 251.616C400.203 251.856 400.683 252.208 401.083 252.672C401.483 253.136 401.691 253.752 401.707 254.52C401.707 255.224 401.515 255.856 401.131 256.416C400.747 256.96 400.211 257.392 399.523 257.712C398.835 258.032 398.043 258.192 397.147 258.192ZM416.965 250.776C416.965 251.352 416.949 251.792 416.917 252.096H406.045C406.093 253.088 406.333 253.936 406.765 254.64C407.197 255.344 407.765 255.88 408.469 256.248C409.173 256.6 409.941 256.776 410.773 256.776C411.861 256.776 412.773 256.512 413.509 255.984C414.261 255.456 414.757 254.744 414.997 253.848H416.773C416.453 255.128 415.765 256.176 414.709 256.992C413.669 257.792 412.357 258.192 410.773 258.192C409.541 258.192 408.437 257.92 407.461 257.376C406.485 256.816 405.717 256.032 405.157 255.024C404.613 254 404.341 252.808 404.341 251.448C404.341 250.088 404.613 248.896 405.157 247.872C405.701 246.848 406.461 246.064 407.437 245.52C408.413 244.976 409.525 244.704 410.773 244.704C412.021 244.704 413.109 244.976 414.037 245.52C414.981 246.064 415.701 246.8 416.197 247.728C416.709 248.64 416.965 249.656 416.965 250.776ZM415.261 250.728C415.277 249.752 415.077 248.92 414.661 248.232C414.261 247.544 413.709 247.024 413.005 246.672C412.301 246.32 411.533 246.144 410.701 246.144C409.453 246.144 408.389 246.544 407.509 247.344C406.629 248.144 406.141 249.272 406.045 250.728H415.261ZM431.631 244.896V258H429.951V255.696C429.567 256.512 428.975 257.136 428.175 257.568C427.375 258 426.479 258.216 425.487 258.216C423.919 258.216 422.639 257.736 421.647 256.776C420.655 255.8 420.159 254.392 420.159 252.552V244.896H421.815V252.36C421.815 253.784 422.167 254.872 422.871 255.624C423.591 256.376 424.567 256.752 425.799 256.752C427.063 256.752 428.071 256.352 428.823 255.552C429.575 254.752 429.951 253.576 429.951 252.024V244.896H431.631Z" fill="#1C212F"/>
<path d="M359.995 212.464C361.659 212.464 362.979 212.968 363.955 213.976C364.947 214.984 365.443 216.384 365.443 218.176V226H361.363V218.728C361.363 217.864 361.131 217.2 360.667 216.736C360.219 216.256 359.595 216.016 358.795 216.016C357.995 216.016 357.363 216.256 356.899 216.736C356.451 217.2 356.227 217.864 356.227 218.728V226H352.147V218.728C352.147 217.864 351.915 217.2 351.451 216.736C351.003 216.256 350.379 216.016 349.579 216.016C348.779 216.016 348.147 216.256 347.683 216.736C347.235 217.2 347.011 217.864 347.011 218.728V226H342.907V212.608H347.011V214.288C347.427 213.728 347.971 213.288 348.643 212.968C349.315 212.632 350.075 212.464 350.923 212.464C351.931 212.464 352.827 212.68 353.611 213.112C354.411 213.544 355.035 214.16 355.483 214.96C355.947 214.224 356.579 213.624 357.379 213.16C358.179 212.696 359.051 212.464 359.995 212.464ZM380.938 219.088C380.938 219.472 380.914 219.872 380.866 220.288H371.578C371.642 221.12 371.906 221.76 372.37 222.208C372.85 222.64 373.434 222.856 374.122 222.856C375.146 222.856 375.858 222.424 376.258 221.56H380.626C380.402 222.44 379.994 223.232 379.402 223.936C378.826 224.64 378.098 225.192 377.218 225.592C376.338 225.992 375.354 226.192 374.266 226.192C372.954 226.192 371.786 225.912 370.762 225.352C369.738 224.792 368.938 223.992 368.362 222.952C367.786 221.912 367.498 220.696 367.498 219.304C367.498 217.912 367.778 216.696 368.338 215.656C368.914 214.616 369.714 213.816 370.738 213.256C371.762 212.696 372.938 212.416 374.266 212.416C375.562 212.416 376.714 212.688 377.722 213.232C378.73 213.776 379.514 214.552 380.074 215.56C380.65 216.568 380.938 217.744 380.938 219.088ZM376.738 218.008C376.738 217.304 376.498 216.744 376.018 216.328C375.538 215.912 374.938 215.704 374.218 215.704C373.53 215.704 372.946 215.904 372.466 216.304C372.002 216.704 371.714 217.272 371.602 218.008H376.738ZM391.263 212.464C392.831 212.464 394.079 212.976 395.007 214C395.951 215.008 396.423 216.4 396.423 218.176V226H392.343V218.728C392.343 217.832 392.111 217.136 391.647 216.64C391.183 216.144 390.559 215.896 389.775 215.896C388.991 215.896 388.367 216.144 387.903 216.64C387.439 217.136 387.207 217.832 387.207 218.728V226H383.103V212.608H387.207V214.384C387.623 213.792 388.183 213.328 388.887 212.992C389.591 212.64 390.383 212.464 391.263 212.464ZM406.739 222.52V226H404.651C403.163 226 402.003 225.64 401.171 224.92C400.339 224.184 399.923 222.992 399.923 221.344V216.016H398.291V212.608H399.923V209.344H404.027V212.608H406.715V216.016H404.027V221.392C404.027 221.792 404.123 222.08 404.315 222.256C404.507 222.432 404.827 222.52 405.275 222.52H406.739ZM415.121 226.192C413.809 226.192 412.625 225.912 411.569 225.352C410.529 224.792 409.705 223.992 409.097 222.952C408.505 221.912 408.209 220.696 408.209 219.304C408.209 217.928 408.513 216.72 409.121 215.68C409.729 214.624 410.561 213.816 411.617 213.256C412.673 212.696 413.857 212.416 415.169 212.416C416.481 212.416 417.665 212.696 418.721 213.256C419.777 213.816 420.609 214.624 421.217 215.68C421.825 216.72 422.129 217.928 422.129 219.304C422.129 220.68 421.817 221.896 421.193 222.952C420.585 223.992 419.745 224.792 418.673 225.352C417.617 225.912 416.433 226.192 415.121 226.192ZM415.121 222.64C415.905 222.64 416.569 222.352 417.113 221.776C417.673 221.2 417.953 220.376 417.953 219.304C417.953 218.232 417.681 217.408 417.137 216.832C416.609 216.256 415.953 215.968 415.169 215.968C414.369 215.968 413.705 216.256 413.177 216.832C412.649 217.392 412.385 218.216 412.385 219.304C412.385 220.376 412.641 221.2 413.153 221.776C413.681 222.352 414.337 222.64 415.121 222.64ZM428.41 214.84C428.89 214.104 429.49 213.528 430.21 213.112C430.93 212.68 431.73 212.464 432.61 212.464V216.808H431.482C430.458 216.808 429.69 217.032 429.178 217.48C428.666 217.912 428.41 218.68 428.41 219.784V226H424.306V212.608H428.41V214.84ZM271.811 290.192C270.499 290.192 269.315 289.912 268.259 289.352C267.219 288.792 266.395 287.992 265.787 286.952C265.195 285.912 264.899 284.696 264.899 283.304C264.899 281.928 265.203 280.72 265.811 279.68C266.419 278.624 267.251 277.816 268.307 277.256C269.363 276.696 270.547 276.416 271.859 276.416C273.171 276.416 274.355 276.696 275.411 277.256C276.467 277.816 277.299 278.624 277.907 279.68C278.515 280.72 278.819 281.928 278.819 283.304C278.819 284.68 278.507 285.896 277.883 286.952C277.275 287.992 276.435 288.792 275.363 289.352C274.307 289.912 273.123 290.192 271.811 290.192ZM271.811 286.64C272.595 286.64 273.259 286.352 273.803 285.776C274.363 285.2 274.643 284.376 274.643 283.304C274.643 282.232 274.371 281.408 273.827 280.832C273.299 280.256 272.643 279.968 271.859 279.968C271.059 279.968 270.395 280.256 269.867 280.832C269.339 281.392 269.075 282.216 269.075 283.304C269.075 284.376 269.331 285.2 269.843 285.776C270.371 286.352 271.027 286.64 271.811 286.64ZM285.1 278.504C285.484 277.88 286.036 277.376 286.756 276.992C287.476 276.608 288.3 276.416 289.228 276.416C290.332 276.416 291.332 276.696 292.228 277.256C293.124 277.816 293.828 278.616 294.34 279.656C294.868 280.696 295.132 281.904 295.132 283.28C295.132 284.656 294.868 285.872 294.34 286.928C293.828 287.968 293.124 288.776 292.228 289.352C291.332 289.912 290.332 290.192 289.228 290.192C288.284 290.192 287.46 290.008 286.756 289.64C286.052 289.256 285.5 288.752 285.1 288.128V290H280.996V272.24H285.1V278.504ZM290.956 283.28C290.956 282.256 290.668 281.456 290.092 280.88C289.532 280.288 288.836 279.992 288.004 279.992C287.188 279.992 286.492 280.288 285.916 280.88C285.356 281.472 285.076 282.28 285.076 283.304C285.076 284.328 285.356 285.136 285.916 285.728C286.492 286.32 287.188 286.616 288.004 286.616C288.82 286.616 289.516 286.32 290.092 285.728C290.668 285.12 290.956 284.304 290.956 283.28ZM299.325 275.216C298.605 275.216 298.013 275.008 297.549 274.592C297.101 274.16 296.877 273.632 296.877 273.008C296.877 272.368 297.101 271.84 297.549 271.424C298.013 270.992 298.605 270.776 299.325 270.776C300.029 270.776 300.605 270.992 301.053 271.424C301.517 271.84 301.749 272.368 301.749 273.008C301.749 273.632 301.517 274.16 301.053 274.592C300.605 275.008 300.029 275.216 299.325 275.216ZM301.389 291.728C301.389 293.376 300.973 294.56 300.141 295.28C299.309 296.016 298.149 296.384 296.661 296.384H295.053V292.904H296.037C296.485 292.904 296.805 292.816 296.997 292.64C297.189 292.464 297.285 292.176 297.285 291.776V276.608H301.389V291.728ZM316.964 283.088C316.964 283.472 316.94 283.872 316.892 284.288H307.604C307.668 285.12 307.932 285.76 308.396 286.208C308.876 286.64 309.46 286.856 310.148 286.856C311.172 286.856 311.884 286.424 312.284 285.56H316.652C316.428 286.44 316.02 287.232 315.428 287.936C314.852 288.64 314.124 289.192 313.244 289.592C312.364 289.992 311.38 290.192 310.292 290.192C308.98 290.192 307.812 289.912 306.788 289.352C305.764 288.792 304.964 287.992 304.388 286.952C303.812 285.912 303.524 284.696 303.524 283.304C303.524 281.912 303.804 280.696 304.364 279.656C304.94 278.616 305.74 277.816 306.764 277.256C307.788 276.696 308.964 276.416 310.292 276.416C311.588 276.416 312.74 276.688 313.748 277.232C314.756 277.776 315.54 278.552 316.1 279.56C316.676 280.568 316.964 281.744 316.964 283.088ZM312.764 282.008C312.764 281.304 312.524 280.744 312.044 280.328C311.564 279.912 310.964 279.704 310.244 279.704C309.556 279.704 308.972 279.904 308.492 280.304C308.028 280.704 307.74 281.272 307.628 282.008H312.764ZM326.593 286.52V290H324.505C323.017 290 321.857 289.64 321.025 288.92C320.193 288.184 319.777 286.992 319.777 285.344V280.016H318.145V276.608H319.777V273.344H323.881V276.608H326.569V280.016H323.881V285.392C323.881 285.792 323.977 286.08 324.169 286.256C324.361 286.432 324.681 286.52 325.129 286.52H326.593ZM330.943 275.216C330.223 275.216 329.631 275.008 329.167 274.592C328.719 274.16 328.495 273.632 328.495 273.008C328.495 272.368 328.719 271.84 329.167 271.424C329.631 270.992 330.223 270.776 330.943 270.776C331.647 270.776 332.223 270.992 332.671 271.424C333.135 271.84 333.367 272.368 333.367 273.008C333.367 273.632 333.135 274.16 332.671 274.592C332.223 275.008 331.647 275.216 330.943 275.216ZM332.983 276.608V290H328.879V276.608H332.983ZM341.981 286.16L344.885 276.608H349.253L344.501 290H339.437L334.685 276.608H339.077L341.981 286.16ZM357.076 290.192C355.764 290.192 354.58 289.912 353.524 289.352C352.484 288.792 351.66 287.992 351.052 286.952C350.46 285.912 350.164 284.696 350.164 283.304C350.164 281.928 350.468 280.72 351.076 279.68C351.684 278.624 352.516 277.816 353.572 277.256C354.628 276.696 355.812 276.416 357.124 276.416C358.436 276.416 359.62 276.696 360.676 277.256C361.732 277.816 362.564 278.624 363.172 279.68C363.78 280.72 364.084 281.928 364.084 283.304C364.084 284.68 363.772 285.896 363.148 286.952C362.54 287.992 361.7 288.792 360.628 289.352C359.572 289.912 358.388 290.192 357.076 290.192ZM357.076 286.64C357.86 286.64 358.524 286.352 359.068 285.776C359.628 285.2 359.908 284.376 359.908 283.304C359.908 282.232 359.636 281.408 359.092 280.832C358.564 280.256 357.908 279.968 357.124 279.968C356.324 279.968 355.66 280.256 355.132 280.832C354.604 281.392 354.34 282.216 354.34 283.304C354.34 284.376 354.596 285.2 355.108 285.776C355.636 286.352 356.292 286.64 357.076 286.64Z" fill="black"/>
<path d="M378.226 120.231H234.527C229.122 120.231 224.753 115.891 224.753 110.524V10.7066C224.753 5.33923 229.122 1 234.527 1H378.226C383.631 1 388 5.33923 388 10.7066V110.509C388.016 115.876 383.631 120.231 378.226 120.231Z" fill="white" stroke="#88BFBF" stroke-width="0.5892" stroke-miterlimit="10" stroke-linecap="round"/>
<path d="M378.319 110.947H236.004C233.888 110.947 232.183 109.239 232.183 107.152V11.6591C232.183 9.55752 233.903 7.86416 236.004 7.86416H378.319C380.435 7.86416 382.14 9.57264 382.14 11.6591V107.137C382.155 109.239 380.435 110.947 378.319 110.947Z" fill="#88BFBF" stroke="#88BFBF" stroke-width="0.5892" stroke-miterlimit="10" stroke-linejoin="round"/>
<path d="M241.104 16.7845H238.851C238.12 16.7845 237.511 16.1949 237.511 15.454V13.2164C237.511 12.4906 238.105 11.8859 238.851 11.8859H241.104C241.835 11.8859 242.444 12.4755 242.444 13.2164V15.454C242.429 16.1949 241.835 16.7845 241.104 16.7845Z" stroke="white" stroke-width="0.5892" stroke-miterlimit="10" stroke-linecap="round"/>
<path d="M251.351 16.7845H249.098C248.367 16.7845 247.758 16.1949 247.758 15.454V13.2164C247.758 12.4907 248.352 11.8859 249.098 11.8859H251.351C252.082 11.8859 252.691 12.4755 252.691 13.2164V15.454C252.691 16.1949 252.082 16.7845 251.351 16.7845Z" stroke="white" stroke-width="0.5892" stroke-miterlimit="10" stroke-linecap="round"/>
<path d="M261.596 16.7845H259.343C258.612 16.7845 258.003 16.1949 258.003 15.454V13.2164C258.003 12.4907 258.597 11.8859 259.343 11.8859H261.596C262.327 11.8859 262.936 12.4755 262.936 13.2164V15.454C262.936 16.1949 262.342 16.7845 261.596 16.7845Z" stroke="white" stroke-width="0.5892" stroke-miterlimit="10" stroke-linecap="round"/>
<path d="M336.711 154.264H280.93L291.876 120.231H325.75L336.711 154.264Z" fill="white" stroke="#88BFBF" stroke-width="0.5892" stroke-miterlimit="10" stroke-linecap="round"/>
<path d="M285.315 140.642L291.877 120.231H325.75L285.315 140.642Z" fill="#88BFBF"/>
<path d="M370.036 39.1762H342.922C340.38 39.1762 338.325 37.1351 338.325 34.6101V17.223C338.325 14.698 340.38 12.6569 342.922 12.6569H370.036C372.579 12.6569 374.634 14.698 374.634 17.223V34.6101C374.634 37.1351 372.579 39.1762 370.036 39.1762Z" stroke="white" stroke-width="0.5892" stroke-miterlimit="10" stroke-linecap="round"/>
<path d="M346.073 18.8559H366.762" stroke="white" stroke-width="0.5892" stroke-miterlimit="10" stroke-linecap="round"/>
<path d="M346.073 23.5429H366.762" stroke="white" stroke-width="0.5892" stroke-miterlimit="10" stroke-linecap="round"/>
<path d="M346.073 28.2298H366.762" stroke="white" stroke-width="0.5892" stroke-miterlimit="10" stroke-linecap="round"/>
<path d="M346.073 32.9168H366.762" stroke="white" stroke-width="0.5892" stroke-miterlimit="10" stroke-linecap="round"/>
<path d="M377.527 110.947H269.756L263.438 119.943C256.298 130.104 241.211 130.255 233.873 120.231L195.387 67.6609C197 69.6567 204.384 67.4341 211.418 62.8379C218.558 58.166 223.171 52.2846 221.724 50.1075L248.412 83.8839L256.587 69.5508C258.825 65.7559 262.54 63.0344 266.864 62.0365L294.678 56.1854H318.656L345.085 61.9761C349.682 63.0193 353.58 65.9978 355.787 70.1254L377.527 110.947Z" fill="white" stroke="#88BFBF" stroke-width="0.5892" stroke-miterlimit="10"/>
<path d="M347.946 110.328L340.289 95.3141" stroke="#88BFBF" stroke-width="0.5892" stroke-miterlimit="10" stroke-linecap="round"/>
<path d="M269.146 111.734L276.728 96.8714" stroke="#88BFBF" stroke-width="0.5892" stroke-miterlimit="10" stroke-linecap="round"/>
<path d="M238.03 70.7755L255.4 92.8346" stroke="#88BFBF" stroke-width="0.5892" stroke-miterlimit="10" stroke-linecap="round"/>
<path d="M309.659 63.4426L316.053 71.1686L330.363 59.1034" stroke="#88BFBF" stroke-width="0.5892" stroke-miterlimit="10" stroke-linecap="round"/>
<path d="M304.771 63.5938L298.559 71.471L282.833 59.1034" stroke="#88BFBF" stroke-width="0.5892" stroke-miterlimit="10" stroke-linecap="round"/>
<path d="M227.022 56.8658C228.468 59.0581 223.84 65.0151 216.654 69.7474C209.59 74.4041 202.1 76.6418 200.471 74.6309" stroke="#88BFBF" stroke-width="0.5892" stroke-miterlimit="10" stroke-linecap="round"/>
<path d="M222.242 60.691C223.192 60.691 223.963 59.926 223.963 58.9825C223.963 58.0389 223.192 57.274 222.242 57.274C221.292 57.274 220.522 58.0389 220.522 58.9825C220.522 59.926 221.292 60.691 222.242 60.691Z" stroke="#88BFBF" stroke-width="0.5892" stroke-miterlimit="10" stroke-linecap="round"/>
<path d="M307.192 71.4257C308.142 71.4257 308.912 70.6607 308.912 69.7172C308.912 68.7736 308.142 68.0087 307.192 68.0087C306.241 68.0087 305.471 68.7736 305.471 69.7172C305.471 70.6607 306.241 71.4257 307.192 71.4257Z" stroke="#88BFBF" stroke-width="0.5892" stroke-miterlimit="10" stroke-linecap="round"/>
<path d="M307.192 85.1842C308.142 85.1842 308.912 84.4193 308.912 83.4757C308.912 82.5321 308.142 81.7672 307.192 81.7672C306.241 81.7672 305.471 82.5321 305.471 83.4757C305.471 84.4193 306.241 85.1842 307.192 85.1842Z" stroke="#88BFBF" stroke-width="0.5892" stroke-miterlimit="10" stroke-linecap="round"/>
<path d="M262.89 120.669L269.756 110.947V120.669H262.89Z" fill="#88BFBF"/>
<path d="M211.251 62.3843C204.217 66.9805 196.834 69.2031 195.22 67.2073C195.189 67.1771 195.174 67.1468 195.144 67.1015C194.809 66.6025 194.839 65.9222 195.144 65.0906C196.194 62.354 200.533 58.1206 206.044 54.5222C210.429 51.6496 214.752 49.6538 217.751 49.0339C219.487 48.6862 220.781 48.792 221.405 49.4573L221.557 49.6387C222.988 51.8159 218.391 57.7124 211.251 62.3843Z" fill="#F69050"/>
<path d="M211.25 62.3842C207.246 64.9999 203.12 66.8595 200.015 67.5853L186.115 48.1116C184.182 45.3902 184.821 41.6255 187.577 39.7053L200.091 30.9664L192.996 18.9768C191.961 17.2381 192.555 14.9853 194.321 13.9723C194.899 13.6397 195.524 13.4885 196.148 13.4885C197.351 13.4885 198.538 14.0782 199.238 15.1668L221.42 49.427L221.572 49.6689C222.988 51.8159 218.39 57.7124 211.25 62.3842Z" fill="#F5E4D4"/>
<path d="M200.059 31.1025L207.808 43.0316C208.524 44.1504 208.204 45.6321 207.078 46.3578L205.357 47.4767C204.231 48.2175 202.708 47.9 201.978 46.7812L194.655 35.8953" stroke="#626A7F" stroke-width="0.5892" stroke-miterlimit="10" stroke-linecap="round"/>
<path d="M201.947 46.7509C202.693 47.8849 202.358 49.4119 201.217 50.1376L199.649 51.1204C198.522 51.831 197.03 51.5135 196.299 50.4098" stroke="#626A7F" stroke-width="0.5892" stroke-miterlimit="10" stroke-linecap="round"/>
<path d="M189.099 39.7356L196.27 50.3191C197.016 51.453 196.696 52.9801 195.524 53.7058L194.062 54.5072C192.966 55.2026 191.52 54.9154 190.759 53.857L186.603 48.0361" stroke="#626A7F" stroke-width="0.5892" stroke-miterlimit="10" stroke-linecap="round"/>
<path d="M216.244 41.4441L212.606 35.8348C211.403 33.9751 208.891 33.4611 207.049 34.7009L198.021 40.7788C198.021 40.7788 200.64 45.4507 207.003 41.7464L209.135 45.1181C204.78 47.8546 203.532 53.6151 206.364 57.8938L216.244 41.4441Z" fill="#F5E4D4"/>
<path d="M215.772 41.5953L212.134 35.986C210.931 34.1264 208.419 33.6123 206.577 34.8521L198.021 40.7788C198.021 40.7788 200.64 45.4507 207.003 41.7465L209.135 45.1181C204.78 47.8547 203.532 53.6151 206.364 57.8939" stroke="#626A7F" stroke-width="0.5892" stroke-miterlimit="10" stroke-linecap="round"/>
<path d="M211.25 62.3843C207.246 64.9999 203.12 66.8596 200.014 67.5853L196.559 62.7471C198.492 60.2373 201.948 57.2135 206.043 54.5374C210.428 51.6647 214.751 49.669 217.75 49.0491C219.486 48.7013 220.78 48.8072 221.404 49.4724L221.556 49.6539C221.572 49.6841 221.587 49.6992 221.602 49.7295C221.617 49.7446 221.617 49.7597 221.633 49.7899C221.648 49.8202 221.663 49.8353 221.678 49.8655C222.713 52.1788 218.162 57.8485 211.25 62.3843Z" fill="#626A7F"/>
<path d="M318.642 42.8804V56.1703C318.642 60.0257 313.252 63.1402 306.63 63.1402C299.992 63.1402 294.618 60.0257 294.618 56.1703V42.8804H318.642Z" fill="#F5E4D4"/>
<path d="M298.134 61.0991C295.957 59.8442 294.602 58.0904 294.602 56.1703V42.8804H318.641V46.5695C318.641 50.3947 316.296 53.8268 312.734 55.2631L298.134 61.0991Z" fill="#626A7F"/>
<path d="M325.339 42.0942V42.321C325.339 44.6191 323.466 46.4788 321.152 46.4788H318.397C317.468 50.1981 314.088 52.9649 310.039 52.9649H303.219C299.184 52.9649 295.789 50.2133 294.876 46.4788H292.12C289.806 46.4788 287.934 44.6191 287.934 42.321V42.0942C287.934 39.7961 289.806 37.9364 292.12 37.9364H294.617V34.6555C294.617 31.1478 297.22 28.2449 300.615 27.7611C301.361 29.0009 303.614 31.9643 308.212 31.798C310.374 31.7224 312.383 31.3142 314.043 30.8303C316.037 30.2558 318.032 31.4654 318.534 33.3553C318.61 33.7786 318.656 34.2019 318.656 34.6404V37.9213H321.152C323.451 37.9213 325.339 39.7961 325.339 42.0942Z" fill="#F5E4D4"/>
<path d="M320.558 37.9213H318.64V34.2775C318.64 33.96 318.594 33.6425 318.518 33.3553C318.016 31.4654 316.022 30.2558 314.027 30.8304C312.368 31.3142 310.373 31.7224 308.196 31.798C303.599 31.9643 301.346 29.0009 300.6 27.7611C297.205 28.245 294.601 31.1479 294.601 34.6555V37.9364H292.211C292.211 37.9364 289.471 28.0938 291.526 25.3118C293.551 22.5752 295.987 23.7696 295.987 23.7696C295.987 23.7696 294.525 15.575 302.685 15.7262C310.83 15.8774 321.426 25.2665 322.202 26.9901C323.42 29.6359 320.558 37.9213 320.558 37.9213Z" fill="#626A7F"/>
<path d="M319.569 42.8653C319.569 41.2475 320.893 39.9472 322.507 39.9472" stroke="#626A7F" stroke-width="0.491" stroke-miterlimit="10" stroke-linecap="round"/>
<path d="M293.719 42.8653C293.719 41.2475 292.395 39.9473 290.781 39.9473" stroke="#626A7F" stroke-width="0.491" stroke-miterlimit="10" stroke-linecap="round"/>
<path d="M314.804 34.6556C314.804 34.6556 312.642 33.0832 309.887 34.2171" stroke="#626A7F" stroke-width="0.491" stroke-miterlimit="10" stroke-linecap="round"/>
<path d="M298.301 34.6555C298.301 34.6555 300.463 33.0831 303.218 34.2171" stroke="#626A7F" stroke-width="0.491" stroke-miterlimit="10" stroke-linecap="round"/>
<path d="M310.419 45.8136C310.419 45.8136 309.247 48.3234 305.654 47.008" stroke="#626A7F" stroke-width="0.491" stroke-miterlimit="10" stroke-linecap="round"/>
<path d="M305.487 44.5133C306.415 44.5738 307.831 44.5133 307.831 44.5133" stroke="#626A7F" stroke-width="0.491" stroke-miterlimit="10" stroke-linecap="round"/>
<path d="M312.352 40.9603C312.772 40.9603 313.113 40.3917 313.113 39.6903C313.113 38.9889 312.772 38.4203 312.352 38.4203C311.932 38.4203 311.591 38.9889 311.591 39.6903C311.591 40.3917 311.932 40.9603 312.352 40.9603Z" fill="#626A7F"/>
<path d="M301.436 40.9603C301.857 40.9603 302.198 40.3917 302.198 39.6903C302.198 38.9889 301.857 38.4203 301.436 38.4203C301.016 38.4203 300.675 38.9889 300.675 39.6903C300.675 40.3917 301.016 40.9603 301.436 40.9603Z" fill="#626A7F"/>
<path d="M303.249 43.969H298.454C297.525 43.969 296.779 43.2281 296.779 42.3059V37.5433C296.779 36.621 297.525 35.8802 298.454 35.8802H303.249C304.178 35.8802 304.924 36.621 304.924 37.5433V42.3059C304.939 43.213 304.178 43.969 303.249 43.969Z" stroke="white" stroke-width="0.491" stroke-miterlimit="10"/>
<path d="M314.987 43.969H310.191C309.263 43.969 308.517 43.2281 308.517 42.3059V37.5433C308.517 36.621 309.263 35.8802 310.191 35.8802H314.987C315.915 35.8802 316.661 36.621 316.661 37.5433V42.3059C316.661 43.213 315.915 43.969 314.987 43.969Z" stroke="white" stroke-width="0.491" stroke-miterlimit="10"/>
<path d="M304.94 39.025H308.518" stroke="white" stroke-width="0.491" stroke-miterlimit="10"/>
</svg>
