<svg width="287" height="259" viewBox="0 0 287 259" fill="none" xmlns="http://www.w3.org/2000/svg">
<path d="M99.1201 258.03H210.675" stroke="#F6C850" stroke-width="0.5892" stroke-miterlimit="10" stroke-linecap="round"/>
<path d="M154.858 159.349V203.048C154.858 216.502 161.831 228.993 173.281 236.053L189.395 245.991" stroke="#88BFBF" stroke-width="0.5892" stroke-miterlimit="10" stroke-linecap="round" stroke-linejoin="round"/>
<path d="M146.129 159.349V203.048C146.129 216.502 139.157 228.993 127.706 236.053L111.592 245.991" stroke="#88BFBF" stroke-width="0.5892" stroke-miterlimit="10" stroke-linecap="round" stroke-linejoin="round"/>
<path d="M140.265 159.349H159.915C161.653 159.349 163.058 157.945 163.058 156.207V151.248H137.123V156.207C137.123 157.945 138.527 159.349 140.265 159.349Z" fill="white" stroke="#88BFBF" stroke-width="0.5892" stroke-miterlimit="10"/>
<path d="M190.122 258.03C186.135 258.03 182.904 254.8 182.904 250.813C182.904 246.826 186.135 243.595 190.122 243.595C194.109 243.595 197.34 246.826 197.34 250.813C197.34 254.8 194.109 258.03 190.122 258.03Z" fill="white" stroke="#F6C850" stroke-width="0.5892" stroke-miterlimit="10"/>
<path d="M111.434 258.03C107.448 258.03 104.217 254.8 104.217 250.813C104.217 246.826 107.448 243.595 111.434 243.595C115.421 243.595 118.652 246.826 118.652 250.813C118.652 254.8 115.421 258.03 111.434 258.03Z" fill="white" stroke="#F6C850" stroke-width="0.5892" stroke-miterlimit="10"/>
<path d="M111.434 256.508C108.291 256.508 105.738 253.955 105.738 250.813C105.738 247.67 108.291 245.117 111.434 245.117C114.576 245.117 117.129 247.67 117.129 250.813C117.129 253.955 114.576 256.508 111.434 256.508Z" fill="white" stroke="#F6C850" stroke-width="0.5892" stroke-miterlimit="10"/>
<path d="M190.093 256.508C186.951 256.508 184.397 253.955 184.397 250.813C184.397 247.67 186.951 245.117 190.093 245.117C193.235 245.117 195.789 247.67 195.789 250.813C195.789 253.955 193.235 256.508 190.093 256.508Z" fill="white" stroke="#F6C850" stroke-width="0.5892" stroke-miterlimit="10"/>
<path d="M139.883 224.161C139.883 224.161 149.231 217.307 161.123 224.161" stroke="#88BFBF" stroke-width="0.5892" stroke-miterlimit="10" stroke-linecap="round" stroke-linejoin="round"/>
<path d="M154.632 147.33L145.598 239.765H173.437L196.328 156.59C200.541 143.019 191.477 129.212 177.365 129.182H175.401C164.953 129.153 156.095 136.901 154.632 147.33Z" fill="#31A1A9"/>
<path d="M151.038 239.765H165.709L163.402 247.317C160.505 244.43 156.469 242.348 152.059 242.083C151.647 242.053 151.244 242.043 150.842 242.043L151.038 239.765Z" fill="#F5E4D4"/>
<path d="M167.87 257.972C168.636 250.862 161.133 242.633 152.05 242.073C142.966 241.513 137.359 247.513 136.917 254.643C136.848 255.723 136.75 257.039 136.986 258.001L167.87 257.972Z" fill="white" stroke="#F69050" stroke-width="0.5892" stroke-miterlimit="10"/>
<path d="M137.183 255.389L167.87 255.752" stroke="#F69050" stroke-width="0.5892" stroke-miterlimit="10"/>
<path d="M162.547 239.765L185.772 225.624L133.844 138.629C127.274 128.21 110.6 124.989 100.082 131.392C87.9547 138.776 85.5783 155.382 95.143 165.87L162.547 239.765Z" fill="#88BFBF"/>
<path d="M162.646 239.372L185.968 225.428L133.942 138.629C127.372 128.21 110.698 124.989 100.181 131.392C88.0529 138.776 85.6764 155.382 95.2411 165.87L162.646 239.372Z" stroke="white" stroke-width="0.5892" stroke-miterlimit="10"/>
<path d="M185.409 225.006C184.378 223.297 178.338 225.035 171.916 228.904C165.494 232.764 161.144 237.418 162.175 239.127C163.206 240.836 169.225 238.96 175.648 235.101C182.06 231.242 186.43 226.724 185.409 225.006Z" fill="#E0712C"/>
<path d="M183.994 236.063L173.153 242.878L170.089 239.441L169.156 238.39L165.268 234.03C166.937 232.322 169.225 230.515 171.926 228.904C174.106 227.598 176.256 226.557 178.201 225.85L181.235 231.183L181.903 232.351L183.994 236.063Z" fill="#F5E4D4"/>
<path d="M201.1 243.458L174.095 258.021C173.418 257.294 172.838 256.44 172.377 255.467C171.984 254.652 171.68 253.798 171.444 252.934C169.853 246.963 172.102 240.119 179.28 236.701C185.614 233.687 193.5 235.415 198.056 239.382C199.402 240.57 200.462 241.955 201.1 243.458Z" fill="white" stroke="#F69050" stroke-width="0.5892" stroke-miterlimit="10"/>
<path d="M199.657 241.248L172.643 255.811" stroke="#F69050" stroke-width="0.5892" stroke-miterlimit="10" stroke-linecap="round"/>
<path d="M181.215 231.173C179.664 232.469 177.759 233.824 175.628 235.101C173.35 236.476 171.111 237.595 169.137 238.39L165.052 234.03C166.721 232.322 169.206 230.515 171.906 228.904C174.086 227.598 176.237 226.459 178.181 225.752L181.215 231.173Z" fill="#626A7F"/>
<path d="M184.81 223.494C183.779 221.785 177.258 223.484 170.728 227.412C164.198 231.34 160.054 235.945 161.085 237.654" stroke="white" stroke-width="0.5892" stroke-miterlimit="10"/>
<path d="M275.212 151.248C277.775 151.248 279.857 149.166 279.857 146.603V128.829C279.857 126.266 277.775 124.184 275.212 124.184H16.9071C14.3441 124.184 12.2622 126.266 12.2622 128.829V146.603C12.2622 149.166 14.3441 151.248 16.9071 151.248H275.212Z" fill="#626A7F"/>
<path d="M275.134 120.158H16.9759C14.4129 120.158 12.3311 122.239 12.3311 124.803V142.577C12.3311 145.14 14.4129 147.222 16.9759 147.222H275.134C277.697 147.222 279.779 145.14 279.779 142.577V124.803C279.779 122.239 277.697 120.158 275.134 120.158Z" fill="white" stroke="#F6C850" stroke-width="0.5892" stroke-miterlimit="10"/>
<path d="M261.69 147.241V258.07" stroke="#F6C850" stroke-width="0.5892" stroke-miterlimit="10" stroke-linecap="round"/>
<path d="M36.3311 147.241V258.07" stroke="#F6C850" stroke-width="0.5892" stroke-miterlimit="10" stroke-linecap="round"/>
<path d="M27.8466 230.485L27.4342 230.75L12.4489 207.664L7.94149 208.007C6.97913 208.086 6.21317 207.212 6.40957 206.259C6.61579 205.317 7.66653 204.826 8.52087 205.297L12.223 207.33L9.50287 203.127L4.99549 203.48C4.03313 203.559 3.26717 202.675 3.47339 201.732C3.67961 200.79 4.73035 200.299 5.58469 200.77L9.28684 202.793L6.56669 198.59L2.05932 198.944C1.09696 199.022 0.330995 198.138 0.537215 197.196C0.743435 196.253 1.79418 195.762 2.64852 196.233L6.35066 198.266L4.71072 195.742L1.66652 193.14C0.930021 192.511 1.00858 191.353 1.81382 190.822C2.62888 190.292 3.7189 190.695 3.99386 191.628L5.12316 195.467L6.81219 198.07L6.45867 193.749C6.38011 192.786 7.2541 192.02 8.19682 192.217C9.13954 192.413 9.63053 193.474 9.16899 194.318L6.98896 198.344L9.74837 202.597L9.39486 198.286C9.3163 197.323 10.1903 196.557 11.133 196.754C12.0757 196.95 12.5667 198.011 12.1052 198.855L9.92514 202.881L12.6846 207.133L12.331 202.822C12.2525 201.86 13.1265 201.084 14.0692 201.29C15.0119 201.487 15.5029 202.547 15.0414 203.392L12.8613 207.418L27.8466 230.485Z" fill="#626A7F"/>
<path d="M53.0251 222.325C45.827 236.829 36.1052 246.914 30.3605 246.217C29.8892 246.158 29.4473 246.03 29.0348 245.824C23.5749 243.114 25.4604 228.197 33.2574 212.505C36.5962 205.778 40.4751 200.014 44.246 195.821C49.2837 190.233 54.1249 187.454 57.2477 189.006C62.7076 191.716 60.8124 206.633 53.0251 222.325Z" fill="#626A7F"/>
<path d="M44.0098 210.865C42.4091 229.248 36.527 244.076 30.3698 246.217C29.8985 246.158 29.4566 246.03 29.0441 245.824C23.5842 243.114 25.4696 228.197 33.2667 212.505C36.6055 205.778 40.4844 200.014 44.2553 195.821C44.5303 200.446 44.4713 205.543 44.0098 210.865Z" fill="#F6C850"/>
<path d="M57.2475 189.006L30.3701 246.217" stroke="#F6C850" stroke-width="0.5892" stroke-miterlimit="10"/>
<path d="M56.7369 231.428L52.9366 232.705L50.403 234.482L54.7042 233.971C55.6665 233.854 56.4619 234.698 56.3048 235.651C56.1379 236.603 55.1068 237.134 54.2328 236.701L50.128 234.669L45.9742 237.585L50.2753 237.075C51.2377 236.957 52.0331 237.801 51.876 238.754C51.7091 239.706 50.678 240.237 49.804 239.805L45.6992 237.772L41.5552 240.688L45.8563 240.178C46.8187 240.06 47.6141 240.904 47.4472 241.857C47.2802 242.81 46.2491 243.34 45.3752 242.908L41.2704 240.875L33.6795 246.207H32.8252L41.0053 240.463L40.4946 235.975C40.3866 235.012 41.2311 234.217 42.1837 234.384C43.1362 234.551 43.6567 235.592 43.2246 236.456L41.3293 240.237L45.4243 237.359L44.9136 232.872C44.8056 231.909 45.6501 231.114 46.6027 231.281C47.5552 231.448 48.0757 232.489 47.6436 233.353L45.7581 237.124L49.8531 234.246L49.3424 229.759C49.2344 228.796 50.0789 228.001 51.0315 228.168C51.984 228.335 52.5045 229.376 52.0724 230.24L50.1771 234.021L52.642 232.292L55.1264 229.15C55.7254 228.394 56.894 228.423 57.4439 229.219C58.0233 230.014 57.66 231.124 56.7369 231.428Z" fill="#F6C850"/>
<path d="M25.9317 245.451C25.4407 245.618 24.9202 245.736 24.3899 245.805C18.2033 246.61 9.65995 240.836 4.49463 232.066C-1.11259 222.541 -0.601955 213.094 5.63375 210.953C7.65667 210.256 10.0429 210.423 12.5176 211.287C17.6829 213.084 23.2803 217.896 27.0708 224.328C32.6682 233.863 32.1576 243.31 25.9317 245.451Z" fill="white" stroke="#F6C850" stroke-width="0.5892" stroke-miterlimit="10"/>
<path d="M25.9316 245.451C25.4406 245.618 24.9201 245.736 24.3898 245.805C18.6746 243.212 13.7057 232.233 12.6549 218.898C12.4487 216.266 12.4094 213.713 12.5175 211.287C17.6828 213.084 23.2802 217.896 27.0707 224.328C32.6681 233.863 32.1575 243.31 25.9316 245.451Z" fill="#F6C850"/>
<path d="M3.26709 212.338L24.3801 245.805" stroke="#F6C850" stroke-width="0.5892" stroke-miterlimit="10"/>
<path d="M28.445 246.61C35.2785 246.61 40.8182 230.127 40.8182 209.795C40.8182 189.462 35.2785 172.979 28.445 172.979C21.6114 172.979 16.0718 189.462 16.0718 209.795C16.0718 230.127 21.6114 246.61 28.445 246.61Z" fill="white" stroke="#F6C850" stroke-width="0.5892" stroke-miterlimit="10"/>
<path d="M28.4448 172.97V246.61" stroke="#F6C850" stroke-width="0.5892" stroke-miterlimit="10"/>
<path d="M36.3307 181.798L28.4452 192.364L21.7578 179.127" stroke="#F6C850" stroke-width="0.5892" stroke-miterlimit="10" stroke-linecap="round"/>
<path d="M38.8934 190.754L28.3664 205.228L18.8999 186.914" stroke="#F6C850" stroke-width="0.5892" stroke-miterlimit="10" stroke-linecap="round"/>
<path d="M40.5333 201.084L28.2681 217.994L17.0635 196.39" stroke="#F6C850" stroke-width="0.5892" stroke-miterlimit="10" stroke-linecap="round"/>
<path d="M41.2992 214.872L28.327 233.019L16.1011 209.824" stroke="#F6C850" stroke-width="0.5892" stroke-miterlimit="10" stroke-linecap="round"/>
<path d="M46.7893 258.07H10.0723C7.24418 258.07 4.94629 255.772 4.94629 252.944V251.343C4.94629 248.515 7.24418 246.217 10.0723 246.217H46.7893C49.6175 246.217 51.9154 248.515 51.9154 251.343V252.944C51.9154 255.782 49.6175 258.07 46.7893 258.07Z" fill="white" stroke="#88BFBF" stroke-width="0.5892" stroke-miterlimit="10"/>
<path d="M262.947 130.478C262.947 131.942 261.778 133.13 260.344 133.13H220.347C218.904 133.13 217.745 131.942 217.745 130.478C217.745 129.015 218.914 127.827 220.347 127.827H260.344C261.778 127.827 262.947 129.015 262.947 130.478Z" fill="#F69050"/>
<path d="M246.066 102.865H229.696V114.256H261.317C259.313 107.5 253.107 102.865 246.066 102.865Z" fill="white" stroke="#F6C850" stroke-width="0.5892" stroke-miterlimit="10"/>
<path d="M232.642 102.865V114.256L225.866 114.266V102.865H232.642Z" fill="#F6C850" stroke="#F6C850" stroke-width="0.5892" stroke-miterlimit="10"/>
<path d="M286.387 114.03L261.316 114.256C261.316 114.256 267.591 105.752 284.815 108C284.815 108 271.342 105.192 257.673 108" stroke="#F6C850" stroke-width="0.5892" stroke-miterlimit="10"/>
<path d="M261.316 114.256C261.316 114.256 272.305 108.217 285.699 111.143" stroke="#F6C850" stroke-width="0.5892" stroke-miterlimit="10"/>
<path d="M264.115 123.575C264.115 124.645 264.282 125.618 264.547 126.334H252.518C251.899 126.334 251.389 125.794 251.389 125.136V122.023C251.389 121.356 251.889 120.825 252.518 120.825H264.547C264.282 121.532 264.115 122.505 264.115 123.575Z" fill="#F6C850"/>
<path d="M251.398 122.023V125.136C251.398 125.804 251.938 126.334 252.596 126.334H265.519V126.56C265.519 127.11 265.077 127.552 264.527 127.552H219.326C218.776 127.552 218.334 127.11 218.334 126.56V120.59C218.334 120.04 218.776 119.598 219.326 119.598H264.527C265.077 119.598 265.519 120.04 265.519 120.59V120.816H252.596C251.938 120.825 251.398 121.356 251.398 122.023Z" fill="white"/>
<path d="M251.398 122.023V125.136C251.398 125.804 251.938 126.334 252.596 126.334H265.519V126.56C265.519 127.11 265.077 127.552 264.527 127.552H219.326C218.776 127.552 218.334 127.11 218.334 126.56V120.59C218.334 120.04 218.776 119.598 219.326 119.598H264.527C265.077 119.598 265.519 120.04 265.519 120.59V120.816H252.596C251.938 120.825 251.398 121.356 251.398 122.023Z" stroke="#F6C850" stroke-width="0.5892" stroke-miterlimit="10"/>
<path d="M234.557 135.261C234.086 135.703 233.791 136.508 233.791 137.186C233.791 138.531 234.97 139.916 236.423 139.916H272.639C272.639 140.544 272.128 141.064 271.49 141.064H227.781C226.613 141.064 225.552 140.623 224.786 139.916C224.02 139.208 223.539 138.226 223.539 137.136C223.539 134.966 225.434 133.208 227.781 133.208H271.49C272.119 133.208 272.639 133.719 272.639 134.357V134.564H236.423C235.686 134.554 235.028 134.829 234.557 135.261Z" fill="#F6C850"/>
<path d="M270.017 134.554V139.817H272.629V140.259H236.295C235.893 140.259 235.5 140.181 235.146 140.033C234.763 139.876 234.41 139.65 234.125 139.356C233.565 138.796 233.222 138.03 233.222 137.186C233.222 135.487 234.596 134.112 236.295 134.112H272.629V134.554H270.017Z" fill="#F69050"/>
<path d="M271.028 134.554V139.817H236.423C234.969 139.817 233.791 138.639 233.791 137.186C233.791 136.459 234.086 135.801 234.557 135.32C235.028 134.848 235.686 134.554 236.413 134.554H271.028Z" fill="white"/>
<path d="M271.028 134.554V139.817" stroke="#F69050" stroke-width="0.491" stroke-miterlimit="10"/>
<path d="M241.244 138.285V142.675H238.21V138.845C238.21 137.932 237.474 137.186 236.55 137.186H235.195V136.626H239.585C240.508 136.626 241.244 137.372 241.244 138.285Z" fill="#F69050"/>
<path d="M272.777 114.501H221.182C219.847 114.501 218.767 115.582 218.767 116.917C218.776 118.243 219.847 119.323 221.182 119.323H272.777C274.112 119.323 275.192 118.243 275.192 116.907C275.182 115.582 274.102 114.501 272.777 114.501Z" fill="#88BFBF"/>
<path d="M261.07 119.333H260.55C260.609 119.49 260.756 119.883 261.08 119.883C261.276 119.883 262.239 119.735 262.239 116.917C262.239 115.915 262.121 115.149 261.885 114.629C261.601 114.01 261.227 113.942 261.09 113.942C260.756 113.942 260.609 114.344 260.55 114.501H261.07C261.09 114.462 261.11 114.442 261.119 114.433C261.296 114.482 261.767 114.973 261.767 116.917C261.767 118.861 261.296 119.343 261.119 119.402C261.1 119.382 261.08 119.362 261.07 119.333Z" fill="#626A7F"/>
<path d="M265.332 119.333H264.812C264.87 119.49 265.018 119.883 265.342 119.883C265.538 119.883 266.501 119.735 266.501 116.917C266.501 115.915 266.383 115.149 266.147 114.629C265.862 114.01 265.489 113.942 265.352 113.942C265.018 113.942 264.87 114.344 264.812 114.501H265.332C265.352 114.462 265.371 114.442 265.381 114.433C265.558 114.482 266.029 114.973 266.029 116.917C266.029 118.861 265.558 119.343 265.381 119.402C265.371 119.382 265.352 119.362 265.332 119.333Z" fill="#626A7F"/>
<path d="M269.604 119.333H269.083C269.142 119.49 269.289 119.883 269.613 119.883C269.888 119.883 270.772 119.667 270.772 116.917C270.772 114.158 269.888 113.951 269.613 113.951C269.279 113.951 269.132 114.354 269.073 114.511H269.594C269.613 114.472 269.633 114.452 269.643 114.442C269.839 114.492 270.291 115.002 270.291 116.927C270.291 118.105 270.124 118.714 269.977 119.028C269.859 119.284 269.731 119.392 269.643 119.411C269.633 119.382 269.623 119.362 269.604 119.333Z" fill="#626A7F"/>
<path d="M248.255 119.333H247.734C247.793 119.49 247.941 119.883 248.265 119.883C248.461 119.883 249.423 119.735 249.423 116.917C249.423 114.158 248.54 113.951 248.265 113.951C247.931 113.951 247.784 114.354 247.725 114.511H248.245C248.265 114.472 248.284 114.452 248.294 114.442C248.491 114.492 248.942 115.002 248.942 116.927C248.942 118.871 248.471 119.352 248.294 119.411C248.294 119.382 248.275 119.362 248.255 119.333Z" fill="#626A7F"/>
<path d="M252.527 119.333H252.007C252.066 119.49 252.213 119.883 252.537 119.883C252.724 119.883 253.067 119.804 253.333 119.254C253.568 118.753 253.696 117.968 253.696 116.917C253.696 115.866 253.578 115.081 253.333 114.58C253.067 114.03 252.724 113.951 252.537 113.951C252.203 113.951 252.056 114.354 251.997 114.511H252.518C252.537 114.472 252.557 114.452 252.567 114.442C252.684 114.462 252.802 114.59 252.901 114.796C253.038 115.091 253.215 115.699 253.215 116.927C253.215 118.145 253.048 118.753 252.901 119.058C252.802 119.264 252.675 119.392 252.567 119.411C252.557 119.382 252.547 119.362 252.527 119.333Z" fill="#626A7F"/>
<path d="M256.799 119.333H256.278C256.337 119.49 256.485 119.883 256.809 119.883C257.084 119.883 257.967 119.667 257.967 116.917C257.967 114.089 257.005 113.951 256.809 113.951C256.475 113.951 256.327 114.354 256.269 114.511H256.789C256.809 114.472 256.828 114.452 256.838 114.442C257.015 114.492 257.486 114.983 257.486 116.927C257.486 118.852 257.035 119.362 256.838 119.411C256.828 119.382 256.818 119.362 256.799 119.333Z" fill="#626A7F"/>
<path d="M235.45 119.333H234.93C234.989 119.49 235.136 119.883 235.46 119.883C235.607 119.883 235.981 119.814 236.255 119.195C236.491 118.685 236.609 117.909 236.609 116.907C236.609 115.984 236.481 115.208 236.255 114.678C236.049 114.207 235.755 113.932 235.45 113.932C235.116 113.932 234.969 114.334 234.91 114.491H235.431C235.45 114.462 235.46 114.433 235.47 114.423C235.529 114.452 235.666 114.56 235.804 114.874C235.951 115.199 236.118 115.817 236.118 116.897C236.118 118.842 235.647 119.323 235.47 119.382C235.48 119.382 235.47 119.362 235.45 119.333Z" fill="#626A7F"/>
<path d="M239.722 119.333H239.201C239.26 119.49 239.408 119.883 239.732 119.883C239.879 119.883 240.252 119.814 240.527 119.195C240.763 118.685 240.881 117.909 240.881 116.907C240.881 114.148 239.997 113.942 239.722 113.942C239.388 113.942 239.241 114.344 239.182 114.501H239.702C239.722 114.462 239.741 114.442 239.751 114.433C239.948 114.482 240.399 114.992 240.399 116.917C240.399 118.861 239.928 119.343 239.751 119.402C239.751 119.382 239.741 119.362 239.722 119.333Z" fill="#626A7F"/>
<path d="M243.993 119.333H243.473C243.532 119.49 243.679 119.883 244.003 119.883C244.278 119.883 245.162 119.667 245.162 116.917C245.162 115.866 245.044 115.081 244.798 114.58C244.533 114.03 244.19 113.951 244.003 113.951C243.669 113.951 243.522 114.354 243.463 114.511H243.983C244.003 114.472 244.023 114.452 244.032 114.442C244.15 114.462 244.268 114.59 244.366 114.796C244.504 115.091 244.681 115.699 244.681 116.927C244.681 118.852 244.229 119.362 244.032 119.411C244.023 119.382 244.003 119.362 243.993 119.333Z" fill="#626A7F"/>
<path d="M222.645 119.333H222.124C222.183 119.49 222.33 119.883 222.654 119.883C222.959 119.883 223.244 119.608 223.46 119.136C223.695 118.606 223.813 117.84 223.813 116.907C223.813 115.817 223.617 115.13 223.46 114.747C223.244 114.236 222.949 113.942 222.654 113.942C222.32 113.942 222.173 114.344 222.114 114.501H222.635C222.654 114.472 222.664 114.452 222.674 114.433C222.743 114.472 222.89 114.609 223.028 114.983C223.165 115.326 223.322 115.935 223.322 116.907C223.322 117.997 223.155 118.606 223.008 118.94C222.87 119.254 222.733 119.362 222.674 119.392C222.674 119.382 222.654 119.362 222.645 119.333Z" fill="#626A7F"/>
<path d="M226.906 119.333H226.386C226.445 119.49 226.592 119.883 226.916 119.883C227.22 119.883 227.505 119.608 227.721 119.136C227.957 118.606 228.075 117.84 228.075 116.907C228.075 114.983 227.476 113.942 226.916 113.942C226.582 113.942 226.435 114.344 226.376 114.501H226.896C226.916 114.472 226.926 114.452 226.936 114.433C227.004 114.472 227.142 114.609 227.289 114.963C227.427 115.297 227.584 115.915 227.584 116.907C227.584 117.997 227.417 118.606 227.27 118.94C227.132 119.254 226.995 119.362 226.936 119.392C226.936 119.382 226.926 119.362 226.906 119.333Z" fill="#626A7F"/>
<path d="M231.179 119.333H230.658C230.717 119.49 230.864 119.883 231.189 119.883C231.336 119.883 231.699 119.814 231.994 119.156C232.229 118.626 232.347 117.87 232.347 116.917C232.347 115.994 232.22 115.218 231.994 114.688C231.788 114.217 231.493 113.942 231.189 113.942C230.855 113.942 230.707 114.344 230.648 114.501H231.169C231.189 114.472 231.198 114.442 231.208 114.433C231.267 114.462 231.405 114.57 231.542 114.884C231.689 115.208 231.856 115.827 231.856 116.907C231.856 118.017 231.689 118.626 231.542 118.95C231.405 119.254 231.267 119.362 231.208 119.382C231.208 119.382 231.198 119.362 231.179 119.333Z" fill="#626A7F"/>
<path d="M254.551 45.4765H220.122C218.129 45.4765 216.519 43.866 216.519 41.8726V7.44366C216.519 5.4502 218.129 3.83972 220.122 3.83972H254.551C256.545 3.83972 258.155 5.4502 258.155 7.44366V41.8726C258.155 43.866 256.535 45.4765 254.551 45.4765Z" fill="#F6C850"/>
<path d="M252.037 43.1688H216.93C214.937 43.1688 213.326 41.5584 213.326 39.5649V4.4584C213.326 2.46494 214.937 0.854462 216.93 0.854462H252.037C254.03 0.854462 255.641 2.46494 255.641 4.4584V39.5649C255.641 41.5584 254.03 43.1688 252.037 43.1688Z" fill="white" stroke="#F6C850" stroke-width="0.5892" stroke-miterlimit="10"/>
<path d="M234.489 38.2097C243.438 38.2097 250.692 30.9554 250.692 22.0067C250.692 13.058 243.438 5.80371 234.489 5.80371C225.54 5.80371 218.286 13.058 218.286 22.0067C218.286 30.9554 225.54 38.2097 234.489 38.2097Z" stroke="#F6C850" stroke-width="0.5892" stroke-miterlimit="10"/>
<path d="M225.376 15.0542L234.489 22.0067L232.25 15.1426" stroke="#F6C850" stroke-width="0.5892" stroke-miterlimit="10" stroke-linecap="round"/>
<path d="M205.638 147.222H177.877L166.221 133.218H193.314L205.638 147.222Z" fill="#F6C850"/>
<path d="M220.672 147.948V156.59L198.675 156.678C195.857 156.688 193.569 154.41 193.569 151.591V148.911C193.569 147.123 192.911 145.405 191.733 144.079L184.476 135.929H211.569L218.502 142.773C219.896 144.138 220.672 145.994 220.672 147.948Z" fill="white" stroke="#88BFBF" stroke-width="0.5892" stroke-miterlimit="10"/>
<path d="M230.571 153.546C229.638 155.411 227.713 156.688 225.484 156.688H198.381C200.6 156.688 202.525 155.411 203.468 153.546H230.571Z" fill="white" stroke="#88BFBF" stroke-width="0.5892" stroke-miterlimit="10"/>
<path d="M213.769 99.7222L197.232 70.6747C193.284 63.7319 185.909 59.4504 177.926 59.4504H115.991L118.161 54.7663C117.984 55.1493 117.052 55.2475 115.628 55.0511C113.448 54.7565 110.128 53.8039 106.593 52.2327C104.57 51.3391 102.734 50.4062 101.212 49.542C98.3346 47.9021 96.5965 46.4684 96.8813 45.8301L65.2609 97.6895C58.3181 107.814 65.5653 121.572 77.8403 121.572C79.49 121.572 81.1201 121.307 82.6717 120.786C84.2233 120.266 85.6865 119.5 87.0023 118.508L111.287 100.253C112.75 99.1527 114.842 100.007 115.137 101.804L118.309 121.572H201.052C212.276 121.582 219.317 109.464 213.769 99.7222ZM176.963 101.991L179.615 95.9612C180.066 94.9301 181.52 94.9104 181.991 95.9317L184.868 102H176.963V101.991Z" fill="#F69050"/>
<path d="M125.851 59.4308C125.851 54.3538 136.329 48.0789 149.036 46.4782C168.096 44.0919 172.221 54.3538 172.221 59.4308" stroke="#F69050" stroke-width="0.5892" stroke-miterlimit="10"/>
<path d="M170.02 59.5191C170.02 64.0658 149.035 73.3752 149.035 73.3752C149.035 73.3752 128.05 64.0658 128.05 59.5191C128.05 54.9725 138.027 49.709 149.526 48.3047C166.073 46.2818 170.02 54.9627 170.02 59.5191Z" fill="#F69050"/>
<path d="M170.02 59.5192C170.02 64.0658 149.035 73.3752 149.035 73.3752C149.035 73.3752 128.05 64.0658 128.05 59.5192C128.05 59.4995 128.05 59.4799 128.05 59.4602H170.02C170.02 59.4701 170.02 59.4897 170.02 59.5192Z" fill="white"/>
<path d="M172.211 59.4209C172.211 64.4389 149.036 75.8498 149.036 75.8498C149.036 75.8498 125.86 64.4488 125.86 59.4209" stroke="white" stroke-width="0.5892" stroke-miterlimit="10"/>
<path d="M166.918 121.356C168.214 121.356 169.265 117.064 169.265 111.781C169.265 106.498 168.214 102.207 166.918 102.207" stroke="white" stroke-width="0.491" stroke-miterlimit="10" stroke-linecap="round"/>
<path d="M117.68 56.691L99.5034 93.0348" stroke="white" stroke-width="0.491" stroke-miterlimit="10"/>
<path d="M113.732 92.2001L116.737 111.978" stroke="white" stroke-width="0.491" stroke-miterlimit="10" stroke-linecap="round"/>
<path d="M148.054 78.1771H150.018" stroke="white" stroke-width="0.491" stroke-miterlimit="10" stroke-linecap="round"/>
<path d="M148.054 80.5143H150.018" stroke="white" stroke-width="0.491" stroke-miterlimit="10" stroke-linecap="round"/>
<path d="M148.054 82.8416H150.018" stroke="white" stroke-width="0.491" stroke-miterlimit="10" stroke-linecap="round"/>
<path d="M148.054 85.1689H150.018" stroke="white" stroke-width="0.491" stroke-miterlimit="10" stroke-linecap="round"/>
<path d="M148.054 87.4963H150.018" stroke="white" stroke-width="0.491" stroke-miterlimit="10" stroke-linecap="round"/>
<path d="M148.054 89.8335H150.018" stroke="white" stroke-width="0.491" stroke-miterlimit="10" stroke-linecap="round"/>
<path d="M148.054 89.9415H150.018" stroke="white" stroke-width="0.491" stroke-miterlimit="10" stroke-linecap="round"/>
<path d="M148.054 92.2688H150.018" stroke="white" stroke-width="0.491" stroke-miterlimit="10" stroke-linecap="round"/>
<path d="M148.054 94.5962H150.018" stroke="white" stroke-width="0.491" stroke-miterlimit="10" stroke-linecap="round"/>
<path d="M148.054 96.8155H150.018" stroke="white" stroke-width="0.491" stroke-miterlimit="10" stroke-linecap="round"/>
<path d="M148.054 99.1526H150.018" stroke="white" stroke-width="0.491" stroke-miterlimit="10" stroke-linecap="round"/>
<path d="M148.054 101.48H150.018" stroke="white" stroke-width="0.491" stroke-miterlimit="10" stroke-linecap="round"/>
<path d="M148.054 103.807H150.018" stroke="white" stroke-width="0.491" stroke-miterlimit="10" stroke-linecap="round"/>
<path d="M148.054 106.135H150.018" stroke="white" stroke-width="0.491" stroke-miterlimit="10" stroke-linecap="round"/>
<path d="M148.054 108.472H150.018" stroke="white" stroke-width="0.491" stroke-miterlimit="10" stroke-linecap="round"/>
<path d="M148.054 110.799H150.018" stroke="white" stroke-width="0.491" stroke-miterlimit="10" stroke-linecap="round"/>
<path d="M148.054 113.127H150.018" stroke="white" stroke-width="0.491" stroke-miterlimit="10" stroke-linecap="round"/>
<path d="M148.054 115.454H150.018" stroke="white" stroke-width="0.491" stroke-miterlimit="10" stroke-linecap="round"/>
<path d="M148.054 115.572H150.018" stroke="white" stroke-width="0.491" stroke-miterlimit="10" stroke-linecap="round"/>
<path d="M148.054 117.899H150.018" stroke="white" stroke-width="0.491" stroke-miterlimit="10" stroke-linecap="round"/>
<path d="M148.054 120.226H150.018" stroke="white" stroke-width="0.491" stroke-miterlimit="10" stroke-linecap="round"/>
<path d="M147.848 75.0053V111.978" stroke="white" stroke-width="0.491" stroke-miterlimit="10"/>
<path d="M165.778 102.187H189.395" stroke="white" stroke-width="0.491" stroke-miterlimit="10" stroke-linecap="round"/>
<path d="M100.063 140.829H175.471L168.381 121.65H108.233L100.063 140.829Z" fill="white" stroke="#88BFBF" stroke-width="0.5892" stroke-miterlimit="10"/>
<path d="M100.063 140.829C100.063 138.118 107.251 133.218 118.927 132.55C131.428 131.843 137.978 139.699 137.791 140.829H100.063Z" fill="#88BFBF"/>
<path d="M137.781 140.829C137.781 140.829 134.462 125.313 105.326 128.475L111.621 113.166C111.621 113.166 135.483 108.825 137.791 121.65L137.781 140.829Z" fill="white" stroke="#88BFBF" stroke-width="0.5892" stroke-miterlimit="10" stroke-linejoin="round"/>
<path d="M175.029 139.621C173.29 137.215 166.593 134.701 156.616 134.132C144.753 133.454 138.253 139.091 137.781 140.623V121.65C137.781 121.65 146.246 111.987 168.38 121.65L175.029 139.621Z" fill="white" stroke="#88BFBF" stroke-width="0.5892" stroke-miterlimit="10" stroke-linejoin="round"/>
<path d="M164.846 131.686C162.371 131.058 159.376 130.586 155.959 130.39C154.26 130.292 152.679 130.341 151.226 130.498C147.622 130.901 144.784 131.981 142.761 133.14" stroke="#88BFBF" stroke-width="0.5892" stroke-miterlimit="10" stroke-linecap="round" stroke-linejoin="round"/>
<path d="M163.971 128.416C161.604 127.857 158.786 127.434 155.604 127.248C153.905 127.149 152.324 127.199 150.871 127.356C147.267 127.758 144.429 128.839 142.406 129.997" stroke="#88BFBF" stroke-width="0.5892" stroke-miterlimit="10" stroke-linecap="round" stroke-linejoin="round"/>
<path d="M163.166 125.156C160.908 124.655 158.286 124.282 155.34 124.105C153.641 124.007 152.06 124.056 150.606 124.213C147.002 124.616 144.165 125.696 142.142 126.855" stroke="#88BFBF" stroke-width="0.5892" stroke-miterlimit="10" stroke-linecap="round" stroke-linejoin="round"/>
<path d="M166.406 120.786L172.652 137.794" stroke="#88BFBF" stroke-width="0.5892" stroke-miterlimit="10"/>
<path d="M175.48 140.829H137.781V140.623C138.253 139.091 144.753 133.454 156.616 134.132C166.593 134.701 173.29 137.215 175.029 139.621L175.48 140.829Z" fill="#88BFBF"/>
<path d="M161.064 59.4504C161.064 59.4504 154.033 63.1132 144.272 61.6402C141.847 61.2769 139.244 60.5895 136.554 59.4504V47.6271L149.202 39.7515L151.097 42.9037L161.064 59.4504Z" fill="#F5E4D4"/>
<path d="M149.899 40.6844C150.655 42.0886 150.783 43.758 150.233 45.2605L144.272 61.6403C141.847 61.2769 139.244 60.5895 136.554 59.4504V47.6271L149.261 39.506L149.899 40.6844Z" fill="#626A7F"/>
<path d="M148.81 35.3914C148.81 35.3914 150.292 22.2031 145.019 20.9953C140.993 20.0722 138.99 23.1066 138.99 23.1066C138.99 23.1066 136.81 19.9249 133.431 21.4175C130.22 22.8316 130.446 27.2408 131.89 26.8873C133.333 26.5338 130.495 23.7056 127.461 25.7973C124.102 28.105 127.461 31.9151 127.461 31.9151C127.461 31.9151 124.976 30.7171 123.828 33.1623C122.404 36.1966 130.535 42.7368 130.535 42.7368L148.81 35.3914Z" fill="#626A7F"/>
<path d="M140.777 29.0182L132.341 32.4061C130.309 33.2212 129.317 35.5485 130.132 37.5714L133.814 46.7531C135.17 50.141 139.058 51.7908 142.436 50.4356L145.942 49.0314C149.33 47.6762 150.98 43.7875 149.625 40.4094L145.942 31.2277C145.127 29.195 142.8 28.2031 140.777 29.0182Z" fill="#F5E4D4"/>
<path d="M151.323 39.722L149.624 40.4094L147.778 35.8137L149.477 35.1263C150.489 34.7236 151.628 35.2146 152.03 36.2163L152.413 37.1688C152.826 38.1705 152.335 39.3096 151.323 39.722Z" fill="#F5E4D4"/>
<path d="M131.988 47.1067L133.687 46.4193L131.968 42.1476L130.269 42.835C129.258 43.2376 128.777 44.3865 129.179 45.3882L129.434 46.0166C129.837 47.0183 130.976 47.5093 131.988 47.1067Z" fill="#626A7F"/>
<path d="M149.251 38.249C148.937 37.4536 149.32 36.56 150.115 36.2359" stroke="#626A7F" stroke-width="0.491" stroke-miterlimit="10" stroke-linecap="round"/>
<path d="M140.993 33.997C140.993 33.997 142.987 34.7433 145.52 33.5452" stroke="#626A7F" stroke-width="0.491" stroke-miterlimit="10" stroke-linecap="round"/>
<path d="M136.78 37.3554C136.78 37.3554 139.756 37.051 140.836 42.0592" stroke="#626A7F" stroke-width="0.491" stroke-miterlimit="10" stroke-linecap="round"/>
<path d="M145.225 43.6893C145.225 43.6893 140.835 42.5109 140.992 44.7793" stroke="#626A7F" stroke-width="0.491" stroke-miterlimit="10" stroke-linecap="round"/>
<path d="M144.611 39.0446C144.821 38.9703 144.842 38.4916 144.66 37.9753C144.477 37.4589 144.158 37.1006 143.949 37.1748C143.739 37.249 143.718 37.7278 143.901 38.2441C144.083 38.7604 144.402 39.1188 144.611 39.0446Z" fill="#626A7F"/>
<path d="M136.512 42.4239C136.721 42.3497 136.743 41.8709 136.56 41.3546C136.377 40.8383 136.059 40.4799 135.849 40.5542C135.64 40.6284 135.618 41.1072 135.801 41.6235C135.984 42.1398 136.302 42.4982 136.512 42.4239Z" fill="#626A7F"/>
<path d="M144.518 40.9299C146.085 40.9299 147.356 39.6593 147.356 38.0919C147.356 36.5245 146.085 35.2539 144.518 35.2539C142.95 35.2539 141.68 36.5245 141.68 38.0919C141.68 39.6593 142.95 40.9299 144.518 40.9299Z" stroke="#F6C850" stroke-width="0.491" stroke-miterlimit="10" stroke-linecap="round"/>
<path d="M136.171 44.1705C137.738 44.1705 139.009 42.8999 139.009 41.3325C139.009 39.7651 137.738 38.4945 136.171 38.4945C134.604 38.4945 133.333 39.7651 133.333 41.3325C133.333 42.8999 134.604 44.1705 136.171 44.1705Z" stroke="#F6C850" stroke-width="0.491" stroke-miterlimit="10" stroke-linecap="round"/>
<path d="M138.822 40.3112L141.817 38.9364" stroke="#F6C850" stroke-width="0.491" stroke-miterlimit="10" stroke-linecap="round"/>
<path d="M118.75 53.6861C118.583 54.069 117.641 54.1672 116.217 53.9708C114.037 53.6762 110.717 52.7237 107.182 51.1525C105.159 50.249 103.323 49.326 101.811 48.4618C98.9335 46.8219 97.1953 45.3882 97.4801 44.7499C97.7649 44.1214 99.9744 44.4258 103.097 45.4373C104.776 45.9774 106.711 46.7237 108.753 47.6369C112.249 49.1885 115.284 50.7008 117.071 51.8694C118.289 52.655 118.927 53.2933 118.75 53.6861Z" fill="white" stroke="#F69050" stroke-width="0.5892" stroke-miterlimit="10"/>
<path d="M135.415 33.7711L132.744 44.0919L130.338 38.1017C129.415 35.8038 130.525 33.1721 132.793 32.2097L135.415 33.7711Z" fill="#626A7F"/>
<path d="M135.513 33.5845L130.21 42.776C129.601 43.8366 128.462 44.4945 127.234 44.4945H121.755C120.95 44.4945 120.233 44.9855 119.928 45.722L117.081 51.8792L116.246 53.6762C113.84 53.3522 110.491 52.3113 107.29 50.8874C106.092 50.3571 104.923 49.7973 103.843 49.2376L105.287 46.2229L107.869 40.8317C109.107 37.9151 111.238 35.4601 113.958 33.83L119.3 30.6189C120.007 30.1966 120.822 29.9708 121.647 29.9708H130.721C131.221 29.9708 131.712 30.0788 132.154 30.2948L134.884 31.5911C135.64 31.9544 135.925 32.8677 135.513 33.5845Z" fill="#F5E4D4"/>
<path d="M122.688 33.8791H129.17C129.651 33.8791 130.122 33.9871 130.554 34.1934L133.176 35.4503C133.893 35.794 134.168 36.6778 133.775 37.3652" stroke="#626A7F" stroke-width="0.491" stroke-miterlimit="10" stroke-linecap="round"/>
<path d="M121.078 36.668H127.559C128.041 36.668 128.512 36.776 128.944 36.9822L131.566 38.2392C132.283 38.5829 132.558 39.4667 132.165 40.1541" stroke="#626A7F" stroke-width="0.491" stroke-miterlimit="10" stroke-linecap="round"/>
<path d="M119.183 40.3112H125.664C126.145 40.3112 126.616 40.4192 127.048 40.6255L129.67 41.8824C130.387 42.2261 130.662 43.1099 130.269 43.7973" stroke="#626A7F" stroke-width="0.491" stroke-miterlimit="10" stroke-linecap="round"/>
<path d="M116.256 53.6762C113.85 53.3522 110.501 52.3113 107.3 50.8874C106.102 50.3571 104.933 49.7973 103.853 49.2376L105.483 45.9086C106.573 46.3211 107.644 46.7924 108.842 47.3325C112.338 48.8841 115.392 50.5044 117.179 51.673L116.256 53.6762Z" fill="#626A7F"/>
<path d="M117.268 44.2294H121.863" stroke="#626A7F" stroke-width="0.491" stroke-miterlimit="10" stroke-linecap="round"/>
<path d="M165.739 121.572C167.035 121.572 168.086 117.188 168.086 111.781C168.086 106.374 167.035 101.991 165.739 101.991C164.442 101.991 163.392 106.374 163.392 111.781C163.392 117.188 164.442 121.572 165.739 121.572Z" fill="white"/>
<path d="M168.085 111.781C168.085 113.46 167.987 115.041 167.801 116.426C167.192 117.978 165.945 119.205 164.374 119.784C163.735 120.02 163.038 120.158 162.311 120.158H153.405C152.285 120.158 151.372 121.071 151.372 122.19V122.465C151.372 124.105 149.624 125.166 148.171 124.4L143.987 122.21C143.241 121.817 142.77 121.041 142.77 120.197V116.927C142.77 115.699 143.349 114.55 144.321 113.814L150.704 109.012C151.784 108.197 153.1 107.765 154.446 107.765H167.869C168.017 108.992 168.085 110.347 168.085 111.781Z" fill="#F5E4D4"/>
<path d="M152.315 110.927L146.452 115.336C145.559 116.014 145.028 117.074 145.028 118.194V121.199C145.028 121.974 145.46 122.691 146.148 123.045" stroke="#626A7F" stroke-width="0.491" stroke-miterlimit="10" stroke-linecap="round"/>
<path d="M155.3 112.243L149.438 116.652C148.544 117.329 148.014 118.39 148.014 119.51V122.514C148.014 123.29 148.446 124.007 149.133 124.361" stroke="#626A7F" stroke-width="0.491" stroke-miterlimit="10" stroke-linecap="round"/>
<path d="M168.086 111.781C168.086 113.46 167.987 115.041 167.801 116.426C167.192 117.978 165.945 119.205 164.374 119.784C163.775 118.007 163.382 115.09 163.382 111.781C163.382 110.347 163.46 108.992 163.588 107.765H167.879C168.017 108.992 168.086 110.347 168.086 111.781Z" fill="#626A7F"/>
<path d="M185.144 126.05C191.023 126.05 195.789 125.65 195.789 125.156C195.789 124.662 191.023 124.262 185.144 124.262C179.265 124.262 174.499 124.662 174.499 125.156C174.499 125.65 179.265 126.05 185.144 126.05Z" fill="#F6C850"/>
<path d="M194.002 125.834H189.602C185.517 125.834 182.218 122.524 182.218 118.449V112.174H201.396V118.439C201.396 122.524 198.087 125.834 194.002 125.834Z" fill="white" stroke="#F6C850" stroke-width="0.5892" stroke-miterlimit="10"/>
<path d="M204.077 117.545H201.387V112.763H204.077C205.226 112.763 206.169 113.696 206.169 114.855V115.464C206.169 116.613 205.226 117.545 204.077 117.545Z" stroke="#F6C850" stroke-width="0.5892" stroke-miterlimit="10"/>
<path d="M191.802 114.04C197.144 114.04 201.474 113.174 201.474 112.105C201.474 111.037 197.144 110.171 191.802 110.171C186.46 110.171 182.129 111.037 182.129 112.105C182.129 113.174 186.46 114.04 191.802 114.04Z" fill="#88BFBF" stroke="white" stroke-width="0.491" stroke-miterlimit="10"/>
<path d="M182.228 113.676C182.228 114.747 186.519 115.611 191.802 115.611C197.085 115.611 201.377 114.747 201.377 113.676" stroke="#F6C850" stroke-width="0.5892" stroke-miterlimit="10"/>
<path d="M182.228 115.729C182.228 116.799 186.519 117.663 191.802 117.663C197.085 117.663 201.377 116.799 201.377 115.729" stroke="#F6C850" stroke-width="0.5892" stroke-miterlimit="10"/>
<path d="M182.228 117.781C182.228 118.852 186.519 119.716 191.802 119.716C197.085 119.716 201.377 118.852 201.377 117.781" stroke="#F6C850" stroke-width="0.5892" stroke-miterlimit="10"/>
<path d="M182.375 119.834C182.375 120.904 186.598 121.768 191.802 121.768C197.007 121.768 201.229 120.904 201.229 119.834" stroke="#F6C850" stroke-width="0.5892" stroke-miterlimit="10"/>
<path d="M183.111 121.886C183.111 122.956 187 123.82 191.802 123.82C196.604 123.82 200.493 122.956 200.493 121.886" stroke="#F6C850" stroke-width="0.5892" stroke-miterlimit="10"/>
<path d="M191.419 108.668C190.476 108.02 187.54 101.843 191.174 99.3196C193.963 97.3752 194.503 102.413 193.216 101.991C190.977 101.254 189.612 91.3948 195.455 92.0037C198.028 92.2688 197.743 95.9317 195.455 96.0299" stroke="white" stroke-width="0.491" stroke-miterlimit="10" stroke-linecap="round"/>
<path d="M77.2116 137.519H28.9463C27.6501 137.519 26.4913 136.734 26.0101 135.536L12.8022 102.894C12.1737 101.333 13.3227 99.624 15.0019 99.624H63.2672C64.5634 99.624 65.7222 100.41 66.2034 101.608L79.4113 134.249C80.0496 135.811 78.9006 137.519 77.2116 137.519Z" fill="white" stroke="#F6C850" stroke-width="0.5892" stroke-miterlimit="10"/>
<path d="M74.9726 137.755H28.9266C27.6991 137.755 26.5894 137.009 26.1279 135.87L13.5288 104.73C12.9298 103.238 14.0198 101.617 15.6303 101.617H61.6763C62.9038 101.617 64.0135 102.364 64.475 103.503L77.0741 134.642C77.6731 136.135 76.5732 137.755 74.9726 137.755Z" fill="#F6C850"/>
<path d="M46.701 123.595C45.3458 123.595 44.0692 123.064 43.1068 122.102C42.3212 121.316 41.8892 120.275 41.8892 119.176C41.8892 118.066 42.3212 117.025 43.1068 116.249C43.7451 115.611 44.5995 115.257 45.5029 115.257C46.4064 115.257 47.2607 115.611 47.899 116.249C48.989 117.339 48.989 119.107 47.899 120.197C46.9956 121.1 45.5324 121.1 44.6289 120.197C44.4718 120.04 44.4718 119.794 44.6289 119.637C44.7861 119.48 45.0316 119.48 45.1887 119.637C45.7877 120.236 46.7501 120.236 47.3491 119.637C48.1347 118.852 48.1347 117.585 47.3491 116.799C46.8581 116.308 46.2001 116.033 45.5029 116.033C44.8057 116.033 44.1478 116.308 43.6568 116.799C43.0185 117.437 42.6748 118.272 42.6748 119.176C42.6748 120.069 43.0283 120.914 43.6568 121.552C44.4718 122.367 45.5422 122.809 46.6911 122.809C47.8401 122.809 48.9203 122.367 49.7255 121.552C49.8826 121.395 50.1281 121.395 50.2853 121.552C50.4424 121.709 50.4424 121.955 50.2853 122.112C49.3327 123.064 48.0561 123.595 46.701 123.595Z" fill="white"/>
<path d="M94.4849 140.976H29.0051C28.249 140.976 27.6401 140.367 27.6401 139.611V138.953C27.6401 138.197 28.249 137.588 29.0051 137.588H94.4849C95.241 137.588 95.8499 138.197 95.8499 138.953V139.611C95.84 140.367 95.2312 140.976 94.4849 140.976Z" fill="white" stroke="#F6C850" stroke-width="0.5892" stroke-miterlimit="10"/>
</svg>
