<svg width="317" height="256" viewBox="0 0 317 256" fill="none" xmlns="http://www.w3.org/2000/svg">
<path d="M213.021 7.49702L232.455 26.2532L251.987 131.985H68.7749L213.021 7.49702Z" fill="#F6C850"/>
<path d="M232.621 26.1059L213.128 7.29081L216.388 3.9029C221.19 -1.08566 229.842 -0.516093 234.83 4.27607C239.819 9.07805 240.693 17.7295 235.891 22.718L232.621 26.1059Z" fill="white" stroke="#F6C850" stroke-width="0.5892" stroke-miterlimit="10" stroke-linecap="round"/>
<path d="M235.88 22.718L216.378 3.90291" stroke="#F6C850" stroke-width="0.5892" stroke-miterlimit="10" stroke-linecap="round"/>
<path d="M235.9 5.1304L238.08 3.461C241.007 1.22204 245.21 1.81124 247.4 4.7867L300.978 70.0111L273.55 131.18" stroke="#88BFBF" stroke-width="0.5892" stroke-miterlimit="10" stroke-linecap="round"/>
<path d="M300.104 73.3401C301.763 73.3401 303.108 71.9948 303.108 70.3352C303.108 68.6756 301.763 67.3303 300.104 67.3303C298.444 67.3303 297.099 68.6756 297.099 70.3352C297.099 71.9948 298.444 73.3401 300.104 73.3401Z" fill="white" stroke="#F6C850" stroke-width="0.5892" stroke-miterlimit="10" stroke-linecap="round"/>
<path d="M265.93 124.345H280.572C284.784 124.345 288.192 127.763 288.192 131.966V132.182H258.3V131.966C258.31 127.763 261.717 124.345 265.93 124.345Z" fill="white" stroke="#F6C850" stroke-width="0.5892" stroke-miterlimit="10" stroke-linecap="round"/>
<path d="M195.001 109.88H102.31C98.8237 109.88 96.0054 107.062 96.0054 103.576V38.7443C96.0054 35.2582 98.8237 32.4398 102.31 32.4398H195.001C198.487 32.4398 201.305 35.2582 201.305 38.7443V103.566C201.315 107.052 198.487 109.88 195.001 109.88Z" fill="white" stroke="#88BFBF" stroke-width="0.5892" stroke-miterlimit="10" stroke-linecap="round"/>
<path d="M195.061 103.851H103.263C101.898 103.851 100.798 102.741 100.798 101.386V39.3629C100.798 37.998 101.908 36.8981 103.263 36.8981H195.061C196.425 36.8981 197.525 38.0078 197.525 39.3629V101.376C197.535 102.741 196.425 103.851 195.061 103.851Z" fill="#88BFBF" stroke="#88BFBF" stroke-width="0.5892" stroke-miterlimit="10" stroke-linejoin="round"/>
<path d="M106.553 42.6919H105.1C104.628 42.6919 104.235 42.3089 104.235 41.8277V40.3744C104.235 39.903 104.618 39.5102 105.1 39.5102H106.553C107.024 39.5102 107.417 39.8932 107.417 40.3744V41.8277C107.407 42.3089 107.024 42.6919 106.553 42.6919Z" stroke="white" stroke-width="0.5892" stroke-miterlimit="10" stroke-linecap="round"/>
<path d="M113.162 42.6919H111.709C111.238 42.6919 110.845 42.3089 110.845 41.8278V40.3744C110.845 39.903 111.228 39.5102 111.709 39.5102H113.162C113.634 39.5102 114.026 39.8932 114.026 40.3744V41.8278C114.026 42.3089 113.634 42.6919 113.162 42.6919Z" stroke="white" stroke-width="0.5892" stroke-miterlimit="10" stroke-linecap="round"/>
<path d="M119.771 42.6919H118.317C117.846 42.6919 117.453 42.3089 117.453 41.8278V40.3744C117.453 39.903 117.836 39.5102 118.317 39.5102H119.771C120.242 39.5102 120.635 39.8932 120.635 40.3744V41.8278C120.635 42.3089 120.252 42.6919 119.771 42.6919Z" stroke="white" stroke-width="0.5892" stroke-miterlimit="10" stroke-linecap="round"/>
<path d="M168.223 131.985H132.242L139.303 109.88H161.152L168.223 131.985Z" fill="white" stroke="#88BFBF" stroke-width="0.5892" stroke-miterlimit="10" stroke-linecap="round"/>
<path d="M135.07 123.137L139.303 109.88H161.152L135.07 123.137Z" fill="#88BFBF"/>
<path d="M189.718 57.2353H172.228C170.588 57.2353 169.263 55.9096 169.263 54.2697V42.9767C169.263 41.3367 170.588 40.011 172.228 40.011H189.718C191.358 40.011 192.683 41.3367 192.683 42.9767V54.2697C192.683 55.9096 191.358 57.2353 189.718 57.2353Z" stroke="white" stroke-width="0.5892" stroke-miterlimit="10" stroke-linecap="round"/>
<path d="M174.261 44.0373H187.606" stroke="white" stroke-width="0.5892" stroke-miterlimit="10" stroke-linecap="round"/>
<path d="M174.261 47.0815H187.606" stroke="white" stroke-width="0.5892" stroke-miterlimit="10" stroke-linecap="round"/>
<path d="M174.261 50.1257H187.606" stroke="white" stroke-width="0.5892" stroke-miterlimit="10" stroke-linecap="round"/>
<path d="M174.261 53.1699H187.606" stroke="white" stroke-width="0.5892" stroke-miterlimit="10" stroke-linecap="round"/>
<path d="M194.55 103.851H125.034L120.959 109.694C116.353 116.293 106.622 116.391 101.888 109.88L77.0635 75.7362C78.1044 77.0325 82.8671 75.5889 87.4039 72.6037C92.0095 69.5693 94.985 65.7493 94.0521 64.3352L111.267 86.2731L116.54 76.9637C117.983 74.4989 120.38 72.7313 123.168 72.0832L141.11 68.2829H156.576L173.624 72.0439C176.589 72.7215 179.103 74.656 180.527 77.3369L194.55 103.851Z" fill="white" stroke="#88BFBF" stroke-width="0.5892" stroke-miterlimit="10"/>
<path d="M175.47 103.448L170.53 93.697" stroke="#88BFBF" stroke-width="0.5892" stroke-miterlimit="10" stroke-linecap="round"/>
<path d="M124.641 104.362L129.531 94.7085" stroke="#88BFBF" stroke-width="0.5892" stroke-miterlimit="10" stroke-linecap="round"/>
<path d="M104.57 77.7592L115.774 92.0866" stroke="#88BFBF" stroke-width="0.5892" stroke-miterlimit="10" stroke-linecap="round"/>
<path d="M150.772 72.9965L154.897 78.0145L164.128 70.1781" stroke="#88BFBF" stroke-width="0.5892" stroke-miterlimit="10" stroke-linecap="round"/>
<path d="M147.619 73.0947L143.613 78.2109L133.469 70.1781" stroke="#88BFBF" stroke-width="0.5892" stroke-miterlimit="10" stroke-linecap="round"/>
<path d="M97.4693 68.7248C98.4022 70.1487 95.417 74.0178 90.7819 77.0914C86.2254 80.116 81.394 81.5693 80.3433 80.2633" stroke="#88BFBF" stroke-width="0.5892" stroke-miterlimit="10" stroke-linecap="round"/>
<path d="M94.386 71.2092C94.9989 71.2092 95.4957 70.7124 95.4957 70.0996C95.4957 69.4867 94.9989 68.9899 94.386 68.9899C93.7732 68.9899 93.2764 69.4867 93.2764 70.0996C93.2764 70.7124 93.7732 71.2092 94.386 71.2092Z" stroke="#88BFBF" stroke-width="0.5892" stroke-miterlimit="10" stroke-linecap="round"/>
<path d="M149.181 78.1814C149.794 78.1814 150.291 77.6846 150.291 77.0718C150.291 76.4589 149.794 75.9621 149.181 75.9621C148.568 75.9621 148.071 76.4589 148.071 77.0718C148.071 77.6846 148.568 78.1814 149.181 78.1814Z" stroke="#88BFBF" stroke-width="0.5892" stroke-miterlimit="10" stroke-linecap="round"/>
<path d="M149.181 87.1176C149.794 87.1176 150.291 86.6208 150.291 86.008C150.291 85.3951 149.794 84.8983 149.181 84.8983C148.568 84.8983 148.071 85.3951 148.071 86.008C148.071 86.6208 148.568 87.1176 149.181 87.1176Z" stroke="#88BFBF" stroke-width="0.5892" stroke-miterlimit="10" stroke-linecap="round"/>
<path d="M120.605 110.165L125.034 103.851V110.165H120.605Z" fill="#88BFBF"/>
<path d="M87.2963 72.309C82.7594 75.2943 77.9967 76.7379 76.9558 75.4416C76.9362 75.422 76.9263 75.4023 76.9067 75.3729C76.6907 75.0488 76.7103 74.6069 76.9067 74.0668C77.5843 72.2894 80.383 69.5398 83.9378 67.2026C86.766 65.3368 89.5549 64.0406 91.4894 63.638C92.6089 63.4121 93.4436 63.4809 93.8462 63.9129L93.9444 64.0308C94.8675 65.4449 91.9019 69.2747 87.2963 72.309Z" fill="#F69050"/>
<path d="M87.296 72.309C84.7133 74.0079 82.0521 75.2158 80.0488 75.6871L71.0831 63.0389C69.836 61.2713 70.2484 58.8262 72.0259 57.579L80.0979 51.9031L75.5218 44.1158C74.854 42.9865 75.237 41.5233 76.3761 40.8654C76.7493 40.6494 77.1519 40.5511 77.5545 40.5511C78.3303 40.5511 79.0963 40.9341 79.548 41.6412L93.8557 63.8933L93.9539 64.0504C94.8672 65.4449 91.9015 69.2747 87.296 72.309Z" fill="#F5E4D4"/>
<path d="M80.0779 51.9915L85.0763 59.7394C85.5378 60.4661 85.3316 61.4285 84.6049 61.8998L83.4952 62.6265C82.7686 63.1077 81.7866 62.9015 81.3152 62.1748L76.5918 55.1044" stroke="#626A7F" stroke-width="0.5892" stroke-miterlimit="10" stroke-linecap="round"/>
<path d="M81.2956 62.1552C81.7768 62.8917 81.5607 63.8835 80.8242 64.3548L79.8127 64.9931C79.0861 65.4547 78.1237 65.2485 77.6523 64.5316" stroke="#626A7F" stroke-width="0.5892" stroke-miterlimit="10" stroke-linecap="round"/>
<path d="M73.0079 57.5987L77.6332 64.4727C78.1143 65.2092 77.9081 66.201 77.152 66.6724L76.2093 67.1928C75.5022 67.6446 74.5693 67.458 74.0783 66.7706L71.3975 62.9899" stroke="#626A7F" stroke-width="0.5892" stroke-miterlimit="10" stroke-linecap="round"/>
<path d="M90.5172 58.7083L88.1703 55.0651C87.3945 53.8573 85.7742 53.5234 84.586 54.3286L78.7627 58.2763C78.7627 58.2763 80.4517 61.3106 84.5565 58.9047L85.9313 61.0946C83.1228 62.872 82.3175 66.6134 84.1441 69.3925L90.5172 58.7083Z" fill="#F5E4D4"/>
<path d="M90.2128 58.8066L87.8658 55.1633C87.0901 53.9555 85.4698 53.6216 84.2815 54.4268L78.7627 58.2763C78.7627 58.2763 80.4517 61.3107 84.5565 58.9048L85.9313 61.0946C83.1228 62.872 82.3175 66.6135 84.1441 69.3925" stroke="#626A7F" stroke-width="0.5892" stroke-miterlimit="10" stroke-linecap="round"/>
<path d="M87.2961 72.3091C84.7135 74.0079 82.0522 75.2158 80.049 75.6871L77.8198 72.5447C79.067 70.9146 81.2961 68.9506 83.9377 67.2125C86.7658 65.3467 89.5547 64.0504 91.4893 63.6478C92.6087 63.422 93.4434 63.4907 93.8461 63.9228L93.9443 64.0406C93.9541 64.0603 93.9639 64.0701 93.9737 64.0897C93.9835 64.0995 93.9835 64.1093 93.9934 64.129C94.0032 64.1486 94.013 64.1584 94.0228 64.1781C94.6906 65.6805 91.7544 69.3631 87.2961 72.3091Z" fill="#626A7F"/>
<path d="M156.566 59.6413V68.273C156.566 70.7771 153.09 72.8001 148.818 72.8001C144.537 72.8001 141.07 70.7771 141.07 68.273V59.6413H156.566Z" fill="#F5E4D4"/>
<path d="M143.338 71.4744C141.934 70.6593 141.06 69.5202 141.06 68.273V59.6413H156.565V62.0373C156.565 64.5218 155.053 66.7509 152.755 67.6838L143.338 71.4744Z" fill="#626A7F"/>
<path d="M160.887 59.1306V59.2779C160.887 60.7705 159.679 61.9784 158.186 61.9784H156.409C155.81 64.3941 153.63 66.1912 151.017 66.1912H146.618C144.016 66.1912 141.826 64.4039 141.237 61.9784H139.459C137.967 61.9784 136.759 60.7705 136.759 59.2779V59.1306C136.759 57.638 137.967 56.4301 139.459 56.4301H141.07V54.2992C141.07 52.0209 142.749 50.1355 144.939 49.8212C145.42 50.6265 146.873 52.5512 149.839 52.4432C151.233 52.3941 152.53 52.1289 153.6 51.8147C154.887 51.4415 156.173 52.2271 156.497 53.4546C156.546 53.7296 156.576 54.0046 156.576 54.2893V56.4203H158.186C159.669 56.4203 160.887 57.638 160.887 59.1306Z" fill="#F5E4D4"/>
<path d="M157.803 56.4203H156.565V54.0537C156.565 53.8474 156.536 53.6412 156.487 53.4546C156.163 52.2271 154.876 51.4415 153.59 51.8147C152.52 52.1289 151.233 52.3941 149.829 52.4432C146.863 52.5512 145.41 50.6265 144.929 49.8212C142.739 50.1355 141.06 52.0209 141.06 54.2992V56.4301H139.518C139.518 56.4301 137.75 50.0373 139.076 48.2304C140.382 46.453 141.953 47.2288 141.953 47.2288C141.953 47.2288 141.011 41.9063 146.274 42.0045C151.528 42.1027 158.363 48.2009 158.863 49.3204C159.649 51.0389 157.803 56.4203 157.803 56.4203Z" fill="#626A7F"/>
<path d="M157.165 59.6314C157.165 58.5807 158.019 57.7362 159.06 57.7362" stroke="#626A7F" stroke-width="0.491" stroke-miterlimit="10" stroke-linecap="round"/>
<path d="M140.491 59.6314C140.491 58.5807 139.637 57.7362 138.596 57.7362" stroke="#626A7F" stroke-width="0.491" stroke-miterlimit="10" stroke-linecap="round"/>
<path d="M154.092 54.2992C154.092 54.2992 152.697 53.2779 150.92 54.0144" stroke="#626A7F" stroke-width="0.491" stroke-miterlimit="10" stroke-linecap="round"/>
<path d="M143.446 54.2992C143.446 54.2992 144.841 53.2779 146.618 54.0144" stroke="#626A7F" stroke-width="0.491" stroke-miterlimit="10" stroke-linecap="round"/>
<path d="M151.263 61.5464C151.263 61.5464 150.507 63.1765 148.189 62.3221" stroke="#626A7F" stroke-width="0.491" stroke-miterlimit="10" stroke-linecap="round"/>
<path d="M148.081 60.7018C148.68 60.7411 149.593 60.7018 149.593 60.7018" stroke="#626A7F" stroke-width="0.491" stroke-miterlimit="10" stroke-linecap="round"/>
<path d="M152.51 58.3941C152.781 58.3941 153.001 58.0248 153.001 57.5693C153.001 57.1137 152.781 56.7444 152.51 56.7444C152.238 56.7444 152.019 57.1137 152.019 57.5693C152.019 58.0248 152.238 58.3941 152.51 58.3941Z" fill="#626A7F"/>
<path d="M145.47 58.3941C145.741 58.3941 145.961 58.0248 145.961 57.5693C145.961 57.1137 145.741 56.7444 145.47 56.7444C145.198 56.7444 144.979 57.1137 144.979 57.5693C144.979 58.0248 145.198 58.3941 145.47 58.3941Z" fill="#626A7F"/>
<path d="M146.638 60.3483H143.545C142.946 60.3483 142.465 59.8671 142.465 59.2681V56.1748C142.465 55.5758 142.946 55.0946 143.545 55.0946H146.638C147.237 55.0946 147.719 55.5758 147.719 56.1748V59.2681C147.728 59.8573 147.237 60.3483 146.638 60.3483Z" stroke="white" stroke-width="0.491" stroke-miterlimit="10"/>
<path d="M154.21 60.3483H151.116C150.517 60.3483 150.036 59.8671 150.036 59.2681V56.1748C150.036 55.5758 150.517 55.0946 151.116 55.0946H154.21C154.809 55.0946 155.29 55.5758 155.29 56.1748V59.2681C155.29 59.8573 154.809 60.3483 154.21 60.3483Z" stroke="white" stroke-width="0.491" stroke-miterlimit="10"/>
<path d="M147.729 57.1372H150.036" stroke="white" stroke-width="0.491" stroke-miterlimit="10"/>
<path d="M155.024 100.041H144.291C143.319 100.041 142.523 99.2551 142.523 98.2731V92.5677C142.523 91.5955 143.309 90.8001 144.291 90.8001H155.024C155.996 90.8001 156.792 91.5857 156.792 92.5677V98.2731C156.792 99.2453 156.006 100.041 155.024 100.041Z" stroke="#88BFBF" stroke-width="0.5892" stroke-miterlimit="10" stroke-linejoin="round"/>
<path d="M149.927 97.7428H146.294C145.715 97.7428 145.243 97.2715 145.243 96.6921V94.1487C145.243 93.5693 145.715 93.098 146.294 93.098H149.927C150.507 93.098 150.978 93.5693 150.978 94.1487V96.6921C150.978 97.2715 150.507 97.7428 149.927 97.7428Z" fill="#88BFBF"/>
<path d="M153.463 97.6741L152.344 96.9278C152.039 96.7216 151.853 96.368 151.853 95.9851V94.8656C151.853 94.4826 152.039 94.1291 152.344 93.9229L153.463 93.1765C153.728 92.9998 154.072 93.1962 154.072 93.5301V97.3304C154.082 97.6545 153.728 97.8509 153.463 97.6741Z" fill="#88BFBF"/>
<path d="M298.572 132.182H37.8809" stroke="#88BFBF" stroke-width="0.5892" stroke-miterlimit="10" stroke-linecap="round"/>
<path d="M121.813 133.9V255.138H114.968V232.061C114.968 229.91 113.22 228.162 111.07 228.162H62.0776C59.927 228.162 58.179 229.91 58.179 232.061V255.138H51.3345V133.9H121.813Z" fill="white" stroke="#88BFBF" stroke-width="0.5892" stroke-miterlimit="10" stroke-linecap="round"/>
<path d="M122.019 133.9V166.07L51.3345 224.273L51.3443 133.9H122.019Z" fill="#D0F0E4"/>
<path d="M114.968 143.131V165.118C114.968 167.16 113.318 168.81 111.275 168.81H61.8808C59.8382 168.81 58.1885 167.16 58.1885 165.118V143.131C58.1885 141.088 59.8382 139.439 61.8808 139.439H111.275C113.318 139.439 114.968 141.088 114.968 143.131Z" stroke="#88BFBF" stroke-width="0.5892" stroke-miterlimit="10" stroke-linecap="round"/>
<path d="M99.1373 185.465H74.823L73.8115 178.502H98.1357L99.1373 185.465Z" fill="#F6C850"/>
<path d="M112.11 174.486C109.076 174.486 106.621 176.941 106.621 179.975V185.465H85.9302V179.975C85.9302 176.941 88.3852 174.486 91.4196 174.486H112.11Z" fill="white" stroke="#88BFBF" stroke-width="0.5892" stroke-miterlimit="10" stroke-linecap="round"/>
<path d="M117.265 178.502H96.5747C95.9364 176.185 93.8055 174.486 91.2817 174.486H111.972C114.496 174.486 116.617 176.185 117.265 178.502Z" fill="white" stroke="#88BFBF" stroke-width="0.5892" stroke-miterlimit="10" stroke-linecap="round"/>
<path d="M114.968 189.157V211.144C114.968 213.187 113.318 214.836 111.275 214.836H61.8808C59.8382 214.836 58.1885 213.187 58.1885 211.144V189.157C58.1885 187.115 59.8382 185.465 61.8808 185.465H111.275C113.318 185.465 114.968 187.115 114.968 189.157Z" stroke="#88BFBF" stroke-width="0.5892" stroke-miterlimit="10" stroke-linecap="round"/>
<path d="M76.4629 153.687C76.4629 151.939 77.877 150.516 79.6348 150.516H93.5301C95.278 150.516 96.7019 151.93 96.7019 153.687" stroke="#88BFBF" stroke-width="0.5892" stroke-miterlimit="10" stroke-linecap="round"/>
<path d="M76.4629 199.714C76.4629 197.966 77.877 196.542 79.6348 196.542H93.5301C95.278 196.542 96.7019 197.956 96.7019 199.714" stroke="#88BFBF" stroke-width="0.5892" stroke-miterlimit="10" stroke-linecap="round"/>
<path d="M288.193 133.9H280.896V255.403H288.193V133.9Z" fill="white" stroke="#88BFBF" stroke-width="0.5892" stroke-miterlimit="10" stroke-linecap="round"/>
<path d="M164.195 255.403H316.464" stroke="#88BFBF" stroke-width="0.5892" stroke-miterlimit="10" stroke-linecap="round"/>
<path d="M72.0542 115.517H67.645C67.645 115.517 61.3504 89.2878 55.8217 88.4335C50.2931 87.5791 50.0083 97.6741 50.0083 97.6741C50.0083 97.6741 50.1065 82.3254 63.9232 84.4269C77.7498 86.5284 72.0542 115.517 72.0542 115.517Z" fill="white" stroke="#88BFBF" stroke-width="0.5892" stroke-miterlimit="10" stroke-linecap="round"/>
<path d="M56.9512 85.0947C56.9512 85.0947 69.5502 80.44 70.1198 115.124" stroke="#88BFBF" stroke-width="0.5892" stroke-miterlimit="10" stroke-linecap="round"/>
<path d="M84.0639 115.124H63.3535V131.985H84.0639V115.124Z" fill="#F69050"/>
<path d="M88.4241 123.56C87.1083 124.129 85.5371 124.06 84.0739 123.422C82.9937 122.951 81.9724 122.175 81.1475 121.114C80.0084 119.641 79.2424 117.628 79.2424 115.124C79.2424 109.055 74.411 105.245 72.4274 113.278C72.2899 113.838 72.1622 114.447 72.0542 115.124V115.105V115.065C72.0542 115.046 72.0542 115.016 72.064 114.987V114.947C72.1033 114.447 72.2506 112.964 72.7023 111.177C73.0362 109.851 73.537 108.378 74.2833 107.013C74.6565 106.335 75.0886 105.687 75.5992 105.108C76.9151 103.596 78.722 102.535 81.1868 102.535C85.7236 102.535 89.0428 107.877 90.3096 113.2C91.4192 117.825 90.9675 122.45 88.4241 123.56Z" fill="white" stroke="#88BFBF" stroke-width="0.5892" stroke-miterlimit="10" stroke-linecap="round"/>
<path d="M75.6084 105.108C75.6084 105.108 84.7017 98.6365 87.3728 123.746" stroke="#88BFBF" stroke-width="0.5892" stroke-miterlimit="10" stroke-linecap="round"/>
<path d="M49.7135 97.6741C49.7135 99.2944 49.527 105.491 55.4386 105.776C61.3503 106.06 61.9394 97.134 61.9394 97.134C61.9394 97.134 59.0327 89.2387 55.8216 88.4335C50.3911 87.0685 49.7135 97.6741 49.7135 97.6741Z" fill="#88BFBF"/>
<path d="M79.2424 115.124H72.0542C73.7138 104.725 79.2424 108.633 79.2424 115.124Z" fill="#88BFBF"/>
<path opacity="0.4" d="M201.315 38.7443V103.566C201.315 107.052 198.487 109.871 195.011 109.871H120.821C116.166 116.283 106.572 116.312 101.878 109.871L101.868 109.861C100.002 109.733 98.3526 108.78 97.292 107.376L99.0007 105.903L142.601 68.273L184.12 32.4398H195.011C198.487 32.4398 201.315 35.268 201.315 38.7443Z" fill="white"/>
<path opacity="0.4" d="M88.4252 123.854C87.1191 124.443 85.5381 124.355 84.0749 123.717V131.985H68.7852L81.1584 121.311L84.0847 118.787L86.3139 116.862L90.6248 113.199C91.8818 118.561 91.1846 122.587 88.4252 123.854Z" fill="white"/>
<path d="M7.94925 41.6706C7.83141 41.6706 7.71356 41.592 7.67428 41.4742C7.62518 41.3171 7.70375 41.1501 7.85105 41.101L8.77412 40.777C8.93124 40.7279 9.09818 40.8064 9.14728 40.9537C9.19638 41.1109 9.11782 41.2778 8.97052 41.3269L8.04745 41.651C8.00817 41.6608 7.97871 41.6706 7.94925 41.6706ZM10.2668 40.8654C10.1489 40.8654 10.0311 40.7868 9.9918 40.669C9.9427 40.5118 10.0213 40.3449 10.1686 40.2958L11.0916 39.9717C11.2488 39.9226 11.4157 40.0012 11.4648 40.1485C11.5139 40.3056 11.4353 40.4726 11.288 40.5217L10.365 40.8457C10.3355 40.8555 10.2962 40.8654 10.2668 40.8654ZM12.5843 40.0503C12.4664 40.0503 12.3486 39.9717 12.3093 39.8539C12.2602 39.6968 12.3388 39.5298 12.4861 39.4807L13.4092 39.1567C13.5663 39.1076 13.7332 39.1861 13.7823 39.3334C13.8314 39.4906 13.7529 39.6575 13.6056 39.7066L12.6825 40.0307C12.653 40.0503 12.6137 40.0503 12.5843 40.0503ZM14.9018 39.2451C14.784 39.2451 14.6661 39.1665 14.6268 39.0487C14.5777 38.8915 14.6563 38.7246 14.8036 38.6755L15.7267 38.3514C15.8838 38.3023 16.0507 38.3809 16.0998 38.5282C16.1489 38.6853 16.0704 38.8523 15.9231 38.9014L15 39.2254C14.9705 39.2451 14.9411 39.2451 14.9018 39.2451ZM17.2193 38.4398C17.1015 38.4398 16.9836 38.3613 16.9444 38.2434C16.8953 38.0863 16.9738 37.9194 17.1211 37.8703L18.0442 37.5462C18.2013 37.4971 18.3683 37.5757 18.4174 37.723C18.4665 37.8801 18.3879 38.047 18.2406 38.0961L17.3175 38.4202C17.2881 38.4398 17.2586 38.4398 17.2193 38.4398ZM19.5467 37.6346C19.4288 37.6346 19.311 37.556 19.2717 37.4382C19.2226 37.2811 19.3012 37.1141 19.4485 37.065L20.3715 36.741C20.5287 36.6919 20.6956 36.7704 20.7447 36.9177C20.7938 37.0748 20.7152 37.2418 20.5679 37.2909L19.6449 37.6149C19.6056 37.6346 19.5761 37.6346 19.5467 37.6346ZM21.8642 36.8293C21.7463 36.8293 21.6285 36.7508 21.5892 36.6329C21.5401 36.4758 21.6187 36.3089 21.766 36.2598L22.6891 35.9357C22.8462 35.8866 23.0131 35.9652 23.0622 36.1125C23.1113 36.2696 23.0328 36.4365 22.8855 36.4856L21.9624 36.8097C21.9231 36.8195 21.8936 36.8293 21.8642 36.8293ZM24.1817 36.0241C24.0639 36.0241 23.946 35.9455 23.9067 35.8277C23.8576 35.6706 23.9362 35.5036 24.0835 35.4545L25.0066 35.1305C25.1637 35.0814 25.3306 35.1599 25.3797 35.3072C25.4288 35.4644 25.3503 35.6313 25.203 35.6804L24.2799 36.0045C24.2406 36.0143 24.2112 36.0241 24.1817 36.0241ZM26.4992 35.2189C26.3814 35.2189 26.2635 35.1403 26.2243 35.0225C26.1752 34.8653 26.2537 34.6984 26.401 34.6493L27.3241 34.3252C27.4812 34.2761 27.6482 34.3547 27.6973 34.502C27.7464 34.6591 27.6678 34.8261 27.5205 34.8752L26.5974 35.1992C26.568 35.209 26.5287 35.2189 26.4992 35.2189ZM28.8167 34.4136C28.6989 34.4136 28.5811 34.3351 28.5418 34.2172C28.4927 34.0601 28.5712 33.8932 28.7185 33.8441L29.6416 33.52C29.7987 33.4709 29.9657 33.5495 30.0148 33.6968C30.0639 33.8539 29.9853 34.0208 29.838 34.0699L28.9149 34.394C28.8855 34.4038 28.8462 34.4136 28.8167 34.4136ZM31.1343 33.6084C31.0164 33.6084 30.8986 33.5298 30.8593 33.412C30.8102 33.2549 30.8888 33.0879 31.0361 33.0388L31.9591 32.7148C32.1163 32.6657 32.2832 32.7442 32.3323 32.8915C32.3814 33.0486 32.3028 33.2156 32.1555 33.2647L31.2325 33.5887C31.203 33.5986 31.1637 33.6084 31.1343 33.6084ZM33.4518 32.7933C33.3339 32.7933 33.2161 32.7148 33.1768 32.5969C33.1277 32.4398 33.2063 32.2729 33.3536 32.2238L34.2767 31.8997C34.4338 31.8506 34.6007 31.9292 34.6498 32.0765C34.6989 32.2336 34.6204 32.4005 34.4731 32.4496L33.55 32.7737C33.5205 32.7933 33.4911 32.7933 33.4518 32.7933ZM35.7693 31.9881C35.6515 31.9881 35.5336 31.9095 35.4943 31.7917C35.4452 31.6346 35.5238 31.4676 35.6711 31.4185L36.5942 31.0945C36.7513 31.0454 36.9182 31.1239 36.9673 31.2712C37.0164 31.4283 36.9379 31.5953 36.7906 31.6444L35.8675 31.9684C35.838 31.9881 35.8086 31.9881 35.7693 31.9881ZM38.0966 31.1828C37.9788 31.1828 37.861 31.1043 37.8217 30.9864C37.7726 30.8293 37.8511 30.6624 37.9984 30.6133L38.9215 30.2892C39.0786 30.2401 39.2456 30.3187 39.2947 30.466C39.3438 30.6231 39.2652 30.79 39.1179 30.8391L38.1948 31.1632C38.1556 31.1828 38.1261 31.1828 38.0966 31.1828ZM40.4142 30.3776C40.2963 30.3776 40.1785 30.299 40.1392 30.1812C40.0901 30.0241 40.1687 29.8571 40.316 29.808L41.239 29.484C41.3962 29.4349 41.5631 29.5134 41.6122 29.6607C41.6613 29.8179 41.5827 29.9848 41.4354 30.0339L40.5124 30.358C40.4731 30.3776 40.4436 30.3776 40.4142 30.3776ZM42.7317 29.5724C42.6138 29.5724 42.496 29.4938 42.4567 29.376C42.4076 29.2188 42.4862 29.0519 42.6335 29.0028L43.5566 28.6787C43.7137 28.6296 43.8806 28.7082 43.9297 28.8555C43.9788 29.0126 43.9003 29.1796 43.753 29.2287L42.8299 29.5527C42.7906 29.5724 42.7611 29.5724 42.7317 29.5724ZM45.0492 28.7671C44.9314 28.7671 44.8135 28.6886 44.7742 28.5707C44.7251 28.4136 44.8037 28.2467 44.951 28.1976L45.8741 27.8735C46.0312 27.8244 46.1981 27.903 46.2472 28.0503C46.2963 28.2074 46.2178 28.3743 46.0705 28.4234L45.1474 28.7475C45.1179 28.7573 45.0787 28.7671 45.0492 28.7671ZM47.3667 27.9619C47.2489 27.9619 47.131 27.8833 47.0918 27.7655C47.0427 27.6084 47.1212 27.4414 47.2685 27.3923L48.1916 27.0683C48.3487 27.0192 48.5157 27.0977 48.5648 27.245C48.6139 27.4021 48.5353 27.5691 48.388 27.6182L47.4649 27.9422C47.4355 27.9521 47.3962 27.9619 47.3667 27.9619Z" fill="#F6C850"/>
<path d="M18.3983 41.6706C18.2314 41.6706 18.1037 41.5429 18.1037 41.376C18.1037 38.7148 17.2788 36.7802 15.6389 35.6411C14.4114 34.7868 13.1643 34.7082 13.1544 34.7082C12.9875 34.6984 12.8697 34.5609 12.8795 34.394C12.8893 34.227 13.0268 34.1092 13.1839 34.119C13.2428 34.119 14.5882 34.1976 15.9531 35.1403C18.2216 36.7115 18.6929 39.4022 18.6929 41.376C18.6929 41.5331 18.5653 41.6706 18.3983 41.6706Z" fill="#88BFBF"/>
<path d="M65.3181 41.6706H7.94964C7.84162 41.6706 7.7336 41.6117 7.6845 41.5037C7.6354 41.4055 7.64522 41.2876 7.71396 41.1992L31.0266 10.1189C31.0757 10.0502 31.1543 10.0109 31.2329 10.0011C31.3114 9.99128 31.3998 10.0207 31.4587 10.0797L65.5243 41.16C65.6127 41.2385 65.6421 41.3662 65.6029 41.484C65.5538 41.592 65.4457 41.6706 65.3181 41.6706ZM8.53884 41.0814H64.5619L31.3016 10.7278L8.53884 41.0814Z" fill="#88BFBF"/>
<path d="M2.79387 43.7131C1.38961 43.7131 0.250488 42.574 0.250488 41.1698C0.250488 39.7655 1.38961 38.6264 2.79387 38.6264C4.19813 38.6264 5.33725 39.7655 5.33725 41.1698C5.33725 42.574 4.19813 43.7131 2.79387 43.7131ZM2.79387 39.2058C1.71367 39.2058 0.839688 40.0797 0.839688 41.1599C0.839688 42.2401 1.71367 43.1141 2.79387 43.1141C3.87407 43.1141 4.74805 42.2401 4.74805 41.1599C4.74805 40.0797 3.87407 39.2058 2.79387 39.2058Z" fill="#F6C850"/>
<path d="M5.33774 41.1698H4.74854V43.4185H5.33774V41.1698Z" fill="#F6C850"/>
<path d="M32.9999 8.1844C31.5957 8.1844 30.4565 7.04528 30.4565 5.64102C30.4565 4.23676 31.5957 3.09764 32.9999 3.09764C34.4042 3.09764 35.5433 4.23676 35.5433 5.64102C35.5433 7.03546 34.4042 8.1844 32.9999 8.1844ZM32.9999 3.67702C31.9197 3.67702 31.0457 4.551 31.0457 5.6312C31.0457 6.7114 31.9197 7.5952 32.9999 7.5952C34.0801 7.5952 34.9541 6.72122 34.9541 5.64102C34.9541 4.56082 34.0801 3.67702 32.9999 3.67702Z" fill="#F6C850"/>
<path d="M31.0267 1.7032H30.4375V7.87998H31.0267V1.7032Z" fill="#F6C850"/>
<path d="M69.9042 43.6542C68.5 43.6542 67.3608 42.5151 67.3608 41.1109C67.3608 39.7066 68.5 38.5675 69.9042 38.5675V39.1567C68.824 39.1567 67.95 40.0307 67.95 41.1109C67.95 42.1911 68.824 43.065 69.9042 43.065V43.6542Z" fill="#F6C850"/>
<path d="M218.628 167.484V222.143H206L197.957 199.684L186.438 167.484H218.628Z" fill="#A0505A"/>
<path d="M186.438 167.484H218.628V185.033L190.268 178.178L186.438 167.484Z" fill="#E0712C"/>
<path d="M218.628 199.684V222.143H206L197.957 199.684C197.957 199.684 204.468 203.278 218.628 199.684Z" stroke="white" stroke-width="0.5892" stroke-miterlimit="10" stroke-linecap="round"/>
<path d="M204.526 204.958C205.318 204.958 205.96 204.316 205.96 203.524C205.96 202.732 205.318 202.09 204.526 202.09C203.735 202.09 203.093 202.732 203.093 203.524C203.093 204.316 203.735 204.958 204.526 204.958Z" stroke="white" stroke-width="0.5892" stroke-miterlimit="10" stroke-linecap="round"/>
<path d="M211.361 209.583C212.153 209.583 212.795 208.941 212.795 208.149C212.795 207.357 212.153 206.715 211.361 206.715C210.57 206.715 209.928 207.357 209.928 208.149C209.928 208.941 210.57 209.583 211.361 209.583Z" stroke="white" stroke-width="0.5892" stroke-miterlimit="10" stroke-linecap="round"/>
<path d="M216.448 204.447C217.24 204.447 217.882 203.805 217.882 203.013C217.882 202.221 217.24 201.58 216.448 201.58C215.657 201.58 215.015 202.221 215.015 203.013C215.015 203.805 215.657 204.447 216.448 204.447Z" stroke="white" stroke-width="0.5892" stroke-miterlimit="10" stroke-linecap="round"/>
<path d="M214.435 214.964C215.227 214.964 215.868 214.322 215.868 213.53C215.868 212.739 215.227 212.097 214.435 212.097C213.643 212.097 213.001 212.739 213.001 213.53C213.001 214.322 213.643 214.964 214.435 214.964Z" stroke="white" stroke-width="0.5892" stroke-miterlimit="10" stroke-linecap="round"/>
<path d="M205.96 212.352C206.752 212.352 207.394 211.71 207.394 210.918C207.394 210.127 206.752 209.485 205.96 209.485C205.168 209.485 204.526 210.127 204.526 210.918C204.526 211.71 205.168 212.352 205.96 212.352Z" stroke="white" stroke-width="0.5892" stroke-miterlimit="10" stroke-linecap="round"/>
<path d="M208.298 220.208C209.09 220.208 209.732 219.566 209.732 218.774C209.732 217.983 209.09 217.341 208.298 217.341C207.506 217.341 206.864 217.983 206.864 218.774C206.864 219.566 207.506 220.208 208.298 220.208Z" stroke="white" stroke-width="0.5892" stroke-miterlimit="10" stroke-linecap="round"/>
<path d="M224.599 232.336L215.938 250.316C214.71 253.213 211.872 255.099 208.72 255.099H197.672C194.844 255.099 193.126 252.231 194.206 249.619L205.312 222.83C205.931 221.2 207.021 219.845 208.386 218.892C209.761 217.94 211.411 217.4 213.149 217.4C215.564 217.4 217.96 219.039 219.551 220.856L223.401 225.01C225.178 227.033 225.64 229.871 224.599 232.336Z" fill="#88BFBF"/>
<path d="M224.599 232.336L215.938 250.316C214.71 253.213 211.872 255.099 208.72 255.099H196.975C195.885 255.099 195.267 254.421 194.903 253.488H197.515C200.668 253.488 203.506 251.603 204.733 248.706L214.72 227.877C215.653 225.933 217.627 224.686 219.787 224.686C222.606 224.686 224.746 226.748 225.139 229.36C225.178 230.362 225.002 231.373 224.599 232.336Z" fill="white" stroke="#88BFBF" stroke-width="0.5892" stroke-miterlimit="10" stroke-linejoin="round"/>
<path d="M222.606 224.146C221.565 223.576 220.308 223.164 219.208 223.164C217.097 223.164 215.142 224.391 214.229 226.297L203.889 247.861C202.573 250.974 199.529 252.987 196.141 252.987H194.236C194.137 252.801 194.069 252.604 194 252.398H196.141C199.293 252.398 202.121 250.522 203.349 247.626L203.358 247.616L213.709 226.041C214.72 223.93 216.881 222.575 219.218 222.575C219.964 222.575 220.858 222.82 221.624 223.085L222.606 224.146Z" fill="white"/>
<path d="M186.438 167.484L183.973 199.684L182.874 214.11C182.874 214.11 175.695 222.103 167.525 217.174L163.744 199.694L155.093 159.697C152.756 148.885 160.14 138.368 171.109 136.905L186.438 167.484Z" fill="#A0505A"/>
<path d="M183.973 199.684L182.874 214.503C182.874 214.503 175.695 222.496 167.525 217.567L163.744 199.694C173.24 202.542 183.973 199.684 183.973 199.684Z" stroke="white" stroke-width="0.5892" stroke-miterlimit="10" stroke-linecap="round"/>
<path d="M172.69 208.591C173.481 208.591 174.123 207.949 174.123 207.157C174.123 206.366 173.481 205.724 172.69 205.724C171.898 205.724 171.256 206.366 171.256 207.157C171.256 207.949 171.898 208.591 172.69 208.591Z" stroke="white" stroke-width="0.5892" stroke-miterlimit="10" stroke-linecap="round"/>
<path d="M181.803 206.391C182.595 206.391 183.237 205.749 183.237 204.958C183.237 204.166 182.595 203.524 181.803 203.524C181.011 203.524 180.369 204.166 180.369 204.958C180.369 205.749 181.011 206.391 181.803 206.391Z" stroke="white" stroke-width="0.5892" stroke-miterlimit="10" stroke-linecap="round"/>
<path d="M167.192 204.447C167.983 204.447 168.625 203.805 168.625 203.013C168.625 202.221 167.983 201.58 167.192 201.58C166.4 201.58 165.758 202.221 165.758 203.013C165.758 203.805 166.4 204.447 167.192 204.447Z" stroke="white" stroke-width="0.5892" stroke-miterlimit="10" stroke-linecap="round"/>
<path d="M171.256 216.398C172.048 216.398 172.69 215.756 172.69 214.964C172.69 214.172 172.048 213.531 171.256 213.531C170.464 213.531 169.822 214.172 169.822 214.964C169.822 215.756 170.464 216.398 171.256 216.398Z" stroke="white" stroke-width="0.5892" stroke-miterlimit="10" stroke-linecap="round"/>
<path d="M177.943 213.53C178.735 213.53 179.377 212.889 179.377 212.097C179.377 211.305 178.735 210.663 177.943 210.663C177.152 210.663 176.51 211.305 176.51 212.097C176.51 212.889 177.152 213.53 177.943 213.53Z" stroke="white" stroke-width="0.5892" stroke-miterlimit="10" stroke-linecap="round"/>
<path d="M192.339 217.547L182.872 255.403H179.887C179.749 255.403 179.622 255.393 179.484 255.383C177.226 255.177 175.321 253.272 174.839 251.023L167.514 217.154C175.684 222.093 182.872 214.1 182.872 214.1L192.339 217.547Z" fill="#88BFBF"/>
<path d="M192.82 236.971C194.814 226.444 195.363 218.401 191.926 217.753C188.489 217.105 182.372 224.087 180.378 234.614C178.385 245.141 179.426 254.45 182.863 255.098C186.3 255.756 190.827 247.508 192.82 236.971Z" fill="white" stroke="#88BFBF" stroke-width="0.5892" stroke-miterlimit="10" stroke-linejoin="round"/>
<path d="M179.004 234.447C177.973 239.907 177.669 245.18 178.16 249.305C178.513 252.27 179.259 254.382 180.281 255.403H179.888C179.75 255.403 179.623 255.393 179.485 255.383C178.562 254.166 177.904 252.123 177.57 249.373C177.07 245.2 177.374 239.858 178.425 234.339C179.417 229.115 181.42 224.215 184.081 220.532C185.672 218.332 187.341 216.791 188.863 216.093L189.747 216.388C186.241 217.429 180.919 224.342 179.004 234.447Z" fill="white"/>
<path d="M171.109 136.895L215.908 132.28L260.687 144.84L260.304 150.79C259.696 160.178 251.604 167.484 242.196 167.484H186.448L171.109 136.895Z" fill="#F69050"/>
<path d="M258.133 144.407C258.133 152.931 249.629 163.36 240.222 163.36H184.474" stroke="white" stroke-width="0.5892" stroke-miterlimit="10" stroke-linecap="round" stroke-linejoin="round"/>
<path d="M252.822 142.709C251.427 150.319 243.984 158.45 235.833 158.45H182.216" stroke="white" stroke-width="0.5892" stroke-miterlimit="10" stroke-linecap="round" stroke-linejoin="round"/>
<path d="M246.781 140.902C244.425 147.363 238.032 153.442 231.109 153.442H179.367" stroke="white" stroke-width="0.5892" stroke-miterlimit="10" stroke-linecap="round" stroke-linejoin="round"/>
<path d="M242.137 139.635C239.044 144.339 233.967 148.041 228.556 148.041H176.814" stroke="white" stroke-width="0.5892" stroke-miterlimit="10" stroke-linecap="round" stroke-linejoin="round"/>
<path d="M236.953 138.182C233.978 141.177 230.128 143.131 226.102 143.131H174.36" stroke="white" stroke-width="0.5892" stroke-miterlimit="10" stroke-linecap="round" stroke-linejoin="round"/>
<path d="M230.206 136.227C228.104 137.416 225.806 138.123 223.45 138.123H171.708" stroke="white" stroke-width="0.5892" stroke-miterlimit="10" stroke-linecap="round" stroke-linejoin="round"/>
<path d="M186.34 167.484L171.011 136.895" stroke="white" stroke-width="0.5892" stroke-miterlimit="10" stroke-linecap="round" stroke-linejoin="round"/>
<path d="M263.142 103.851C258.92 105.049 254.766 104.695 254.324 103.409C253.911 102.181 255.777 100.08 259.558 98.6855C259.744 98.6168 259.941 98.5481 260.137 98.4793C261.276 98.0963 262.416 97.8509 263.486 97.7232C266.658 97.3206 269.24 97.8901 269.564 98.8525C270.006 100.139 267.61 102.584 263.142 103.851Z" fill="white" stroke="#88BFBF" stroke-width="0.5892" stroke-miterlimit="10" stroke-linejoin="round"/>
<path d="M260.472 132.486H258.851L254.599 103.782V103.762L254.491 103.046C254.697 101.74 256.74 99.8934 260.344 98.6953C262.141 98.0963 263.928 97.8312 265.45 97.8017L267.002 102.054L267.149 102.456L272.059 115.92C275.005 123.962 269.044 132.486 260.472 132.486Z" fill="#A0505A"/>
<path d="M267.1 102.358C266.069 103.006 264.733 103.605 263.143 104.057C259.49 105.088 255.787 104.666 254.599 103.782V103.762L254.491 103.046C254.697 101.74 256.74 99.8934 260.344 98.6953C262.141 98.0963 263.928 97.8312 265.45 97.8017L267.1 102.358Z" fill="#E0712C"/>
<path d="M207.875 108.869L202.72 121.694C200.176 128.028 194.029 132.182 187.194 132.182H117.895V125.838C117.895 124.306 118.837 122.931 120.271 122.391L127.39 119.691C128.039 119.445 128.716 119.317 129.404 119.317H137.485L183.227 114.702L191.122 96.6234L207.875 108.869Z" fill="#A0505A"/>
<path d="M125.358 123.589L119.987 125.622C118.906 126.034 118.189 127.065 118.189 128.224" stroke="#E0712C" stroke-width="0.5892" stroke-miterlimit="10" stroke-linecap="round"/>
<path d="M125.358 126.83L119.987 128.862C118.906 129.275 118.189 130.306 118.189 131.465" stroke="#E0712C" stroke-width="0.5892" stroke-miterlimit="10" stroke-linecap="round"/>
<path d="M125.358 129.952L119.986 131.887" stroke="#E0712C" stroke-width="0.5892" stroke-miterlimit="10" stroke-linecap="round"/>
<path d="M124.798 120.781C124.798 120.781 129.826 107.946 131.436 108.162C133.047 108.378 126.978 119.956 126.978 119.956L124.798 120.781Z" fill="#F69050"/>
<path d="M191.123 96.6332L189.964 99.2747L204.802 116.509L207.876 108.869L191.123 96.6332Z" fill="#E0712C"/>
<path d="M254.598 103.792L260.687 144.84L215.917 132.28L207.875 108.859L187.115 93.6872L194.402 85.0063C200.903 77.2583 210.497 72.7804 220.611 72.7804H234.998C247.508 72.7804 259.027 79.6151 265.027 90.5939L269.692 98.6659C269.692 98.6659 268.287 96.6037 260.716 98.6757C254.048 100.512 254.598 103.792 254.598 103.792Z" fill="#88BFBF"/>
<path d="M207.876 108.672L210.203 98.5775" stroke="white" stroke-width="0.5892" stroke-miterlimit="10" stroke-linecap="round" stroke-linejoin="round"/>
<path d="M259.559 135.255L251.987 88.188" stroke="white" stroke-width="0.5892" stroke-miterlimit="10" stroke-linecap="round" stroke-linejoin="round"/>
<path d="M215.908 132.093L260.589 144.84" stroke="white" stroke-width="0.5892" stroke-miterlimit="10" stroke-linecap="round" stroke-linejoin="round"/>
<path d="M218.323 66.2206V72.8197L229.97 72.7215V61.0749L218.323 66.2206Z" fill="#A0505A"/>
<path d="M230.913 59.0422V59.2189C230.913 60.9865 229.578 62.4203 227.81 62.4203H227.123C226.681 64.1682 222.753 66.2108 219.964 66.2108H216.713C213.159 66.2108 210.438 63.0193 211.018 59.5037L211.175 58.5512L210.213 58.0111C209.663 57.6969 209.506 56.98 209.889 56.4694L211.97 53.7198L212.422 51.0094C212.785 48.7803 214.249 46.9636 216.193 46.07C216.959 54.7017 224.579 55.723 226.592 55.8409H227.712C229.479 55.8409 230.913 57.2746 230.913 59.0422Z" fill="#A0505A"/>
<path d="M225.757 59.8867C225.757 58.4923 226.886 57.363 228.281 57.363" stroke="#E0712C" stroke-width="0.5892" stroke-miterlimit="10" stroke-linecap="round"/>
<path d="M215.112 55.9292C215.389 55.9292 215.613 55.4104 215.613 54.7705C215.613 54.1305 215.389 53.6117 215.112 53.6117C214.836 53.6117 214.611 54.1305 214.611 54.7705C214.611 55.4104 214.836 55.9292 215.112 55.9292Z" fill="#E0712C"/>
<path d="M214.347 51.1862C214.347 51.1862 215.731 51.0487 217.155 53.0127" stroke="#E0712C" stroke-width="0.5892" stroke-miterlimit="10" stroke-linecap="round"/>
<path d="M226.592 55.8409H227.711C229.479 55.8409 230.913 57.2746 230.913 59.0422V59.219C230.913 60.9866 229.577 62.4203 227.809 62.4203L227.053 62.9506C223.872 64.9931 219.472 73.0259 220.552 78.7117C221.77 85.1045 227.338 86.5284 232.484 85.5464C237.629 84.5644 241.381 81.5693 240.163 75.1666C240.026 74.4105 239.8 73.6544 239.515 72.908C239.603 72.9375 239.682 72.967 239.77 72.9964C245.957 74.6855 253.224 74.8819 255.227 70.0504C257.23 65.219 256.778 60.4366 250.759 57.9424C247.263 56.489 242.51 56.4988 238.828 57.5005C240.683 51.0487 237.384 43.8703 231.325 43.1534C221.809 42.0241 216.35 45.9521 216.202 46.0602C216.192 47.1993 216.968 55.2811 226.592 55.8409Z" fill="#E0712C"/>
<path d="M239.073 57.2746C238.298 59.7983 236.697 62.4988 234.095 64.3352C234.095 64.3352 238.69 67.3696 239.771 73.0062" stroke="white" stroke-width="0.5892" stroke-miterlimit="10" stroke-linecap="round" stroke-linejoin="round"/>
<path d="M241.745 57.0586H239.143V54.4563C239.143 53.0913 240.242 51.9914 241.607 51.9914H241.745C243.11 51.9914 244.21 53.0913 244.21 54.4563V54.5937C244.22 55.9489 243.11 57.0586 241.745 57.0586Z" stroke="#F69050" stroke-width="0.5892" stroke-miterlimit="10" stroke-linejoin="round"/>
<path d="M240.792 59.7296L239.123 57.0782L241.774 55.4088C243.1 54.5741 244.858 54.9669 245.693 56.2926L245.85 56.5381C246.684 57.8638 246.292 59.6216 244.966 60.4563L244.72 60.6134C243.375 61.4481 241.627 61.0553 240.792 59.7296Z" stroke="#F69050" stroke-width="0.5892" stroke-miterlimit="10" stroke-linejoin="round"/>
<path d="M225.413 64.4629L227.269 62.6855L229.086 64.7378C229.979 65.7689 229.861 67.3303 228.83 68.2141L228.722 68.3025C227.691 69.1961 226.13 69.0783 225.246 68.0472L225.158 67.9392C224.264 66.9179 224.382 65.3565 225.413 64.4629Z" stroke="#F69050" stroke-width="0.5892" stroke-miterlimit="10" stroke-linejoin="round"/>
<path d="M228.124 65.7395L227.289 62.7247L230.304 61.89C231.816 61.4678 233.377 62.3516 233.8 63.8638L233.878 64.1486C234.301 65.6609 233.417 67.2223 231.904 67.6445L231.62 67.7231C230.107 68.1355 228.546 67.2419 228.124 65.7395Z" stroke="#F69050" stroke-width="0.5892" stroke-miterlimit="10" stroke-linejoin="round"/>
<path d="M201.325 175.036L184.219 255.098" stroke="#F6C850" stroke-width="0.5892" stroke-miterlimit="10" stroke-linecap="round"/>
<path d="M245.103 175.036L262.209 255.098" stroke="#F6C850" stroke-width="0.5892" stroke-miterlimit="10" stroke-linecap="round"/>
<path d="M188.01 237.324H258.183" stroke="#F6C850" stroke-width="0.5892" stroke-miterlimit="10" stroke-linecap="round"/>
<path d="M258.567 175.036H187.853C186.959 175.036 186.232 174.309 186.232 173.416V169.105C186.232 168.211 186.959 167.484 187.853 167.484H258.567C259.46 167.484 260.187 168.211 260.187 169.105V173.416C260.187 174.309 259.46 175.036 258.567 175.036Z" fill="white" stroke="#88BFBF" stroke-width="0.5892" stroke-miterlimit="10" stroke-linejoin="round"/>
</svg>
