<svg width="376" height="260" viewBox="0 0 376 260" fill="none" xmlns="http://www.w3.org/2000/svg">
<path d="M252.894 0.983078H124.645V122.191H252.894V0.983078Z" stroke="#88BFBF" stroke-width="0.5892" stroke-miterlimit="10"/>
<path d="M188.769 0.983078H124.645V122.191H188.769V0.983078Z" stroke="#88BFBF" stroke-width="0.5892" stroke-miterlimit="10"/>
<path d="M252.894 0.983063H188.77V122.191H252.894V0.983063Z" stroke="#88BFBF" stroke-width="0.5892" stroke-miterlimit="10"/>
<path d="M241.06 12.7082H201.957V51.8114H241.06V12.7082Z" stroke="#88BFBF" stroke-width="0.5892" stroke-miterlimit="10"/>
<path d="M227.499 31.5134L222.952 34.9504" stroke="#88BFBF" stroke-width="0.5892" stroke-miterlimit="10" stroke-linecap="round"/>
<path d="M216.618 39.7426L201.957 50.8294V42.6788L241.05 13.6901V21.2712L230.514 29.2352" stroke="#88BFBF" stroke-width="0.5892" stroke-miterlimit="10" stroke-linecap="round"/>
<path d="M124.645 0.983078H188.769V10.3612L124.645 0.983078Z" fill="#88BFBF"/>
<path d="M204.785 78.453C204.343 78.453 203.93 78.2174 203.705 77.8246L194.326 61.4252C193.855 60.6003 194.454 59.5594 195.407 59.5594C195.849 59.5594 196.261 59.795 196.487 60.1878L205.865 76.5872C206.336 77.4219 205.737 78.453 204.785 78.453Z" stroke="#88BFBF" stroke-width="0.5892" stroke-miterlimit="10"/>
<path d="M175.424 12.7082H136.32V51.8114H175.424V12.7082Z" stroke="#88BFBF" stroke-width="0.5892" stroke-miterlimit="10"/>
<path d="M136.32 42.6788L175.414 13.6901" stroke="#88BFBF" stroke-width="0.5892" stroke-miterlimit="10" stroke-linecap="round"/>
<path d="M172.585 78.453C173.027 78.453 173.44 78.2174 173.666 77.8246L183.044 61.4252C183.515 60.6003 182.916 59.5594 181.963 59.5594C181.522 59.5594 181.109 59.795 180.883 60.1878L171.505 76.5872C171.034 77.4219 171.633 78.453 172.585 78.453Z" stroke="#88BFBF" stroke-width="0.5892" stroke-miterlimit="10"/>
<path d="M353.194 240.179L22.8398 258.837V232.293H353.194V240.179Z" fill="#D0F0E4"/>
<path d="M338.14 211.72L39.9854 230.378V203.835H338.14V211.72Z" fill="#D0F0E4"/>
<path d="M318.943 183.36L56.0811 202.018V175.475H318.943V183.36Z" fill="#D0F0E4"/>
<path d="M303.81 155.196L74.0117 173.854V147.311H303.81V155.196Z" fill="#D0F0E4"/>
<path d="M22.8398 232.293H353.194V257.855" stroke="#88BFBF" stroke-width="0.5892" stroke-miterlimit="10"/>
<path d="M39.9854 203.737H338.14V230.388" stroke="#88BFBF" stroke-width="0.5892" stroke-miterlimit="10"/>
<path d="M56.0811 175.376H318.943V202.018" stroke="#88BFBF" stroke-width="0.5892" stroke-miterlimit="10"/>
<path d="M74.1104 147.213H303.81V173.854" stroke="#88BFBF" stroke-width="0.5892" stroke-miterlimit="10"/>
<path d="M283.188 128.584L94.6436 144.934V121.671H283.188V128.584Z" fill="#D0F0E4"/>
<path d="M94.7227 121.582H283.188V144.934" stroke="#88BFBF" stroke-width="0.5892" stroke-miterlimit="10"/>
<path d="M74.0322 174.954V113.658" stroke="#88BFBF" stroke-width="0.5892" stroke-miterlimit="10"/>
<path d="M124.771 72.07L9.4353 166.548C5.39928 170.584 3.13086 176.054 3.13086 181.759C3.13086 193.642 12.7643 203.766 24.6465 203.766" stroke="#88BFBF" stroke-width="0.5892" stroke-miterlimit="10"/>
<path d="M39.6914 230.388V141.704" stroke="#88BFBF" stroke-width="0.5892" stroke-miterlimit="10"/>
<path d="M303.81 175.151V113.658" stroke="#88BFBF" stroke-width="0.5892" stroke-miterlimit="10"/>
<path d="M253.07 72.07L368.416 166.548C372.452 170.584 374.72 176.054 374.72 181.759C374.72 193.642 365.087 203.766 353.205 203.766" stroke="#88BFBF" stroke-width="0.5892" stroke-miterlimit="10"/>
<path d="M338.16 230.388V141.704" stroke="#88BFBF" stroke-width="0.5892" stroke-miterlimit="10"/>
<path d="M322.496 259.377C322.496 259.377 335.351 236.31 327.544 236.182C323.901 236.123 320.169 248.604 321.583 259.377H322.496Z" fill="#88BFBF"/>
<path d="M321.937 259.249C321.937 259.249 326.709 237.655 338.238 241.141C349.766 244.627 330.087 259.249 330.087 259.249" stroke="#F6C850" stroke-width="0.5892" stroke-miterlimit="10" stroke-linecap="round"/>
<path d="M306.509 259.622C302.513 259.249 300.254 252.1 304.987 249.714C311.793 246.287 313.923 253.445 312.578 253.681C311.233 253.927 309.337 244.873 315.21 245.118C321.082 245.364 321.298 259.249 321.298 259.249" stroke="#F6C850" stroke-width="0.5892" stroke-miterlimit="10" stroke-linecap="round"/>
<path d="M326.769 259.249C326.769 259.249 332.906 244.342 338.886 241.367" stroke="#F6C850" stroke-width="0.5892" stroke-miterlimit="10" stroke-linecap="round"/>
<path d="M320.228 251.511C320.228 251.511 318.785 243.508 318.726 238.244" stroke="#F6C850" stroke-width="0.5892" stroke-miterlimit="10"/>
<path d="M321.977 241.809C321.692 242.516 319.492 244.274 319.492 244.274C319.492 244.274 319.139 241.475 319.423 240.768C319.708 240.061 320.513 239.727 321.211 240.012C321.918 240.296 322.261 241.102 321.977 241.809Z" stroke="#F6C850" stroke-width="0.5892" stroke-miterlimit="10"/>
<path d="M321.239 236.182C320.955 236.889 318.755 238.647 318.755 238.647C318.755 238.647 318.401 235.848 318.686 235.141C318.971 234.434 319.776 234.1 320.473 234.385C321.18 234.679 321.524 235.475 321.239 236.182Z" stroke="#F6C850" stroke-width="0.5892" stroke-miterlimit="10"/>
<path d="M316.173 242.427C316.585 243.066 319.079 244.372 319.079 244.372C319.079 244.372 318.893 241.563 318.48 240.925C318.068 240.287 317.213 240.11 316.575 240.522C315.937 240.945 315.76 241.789 316.173 242.427Z" stroke="#F6C850" stroke-width="0.5892" stroke-miterlimit="10"/>
<path d="M36.6946 259.779C36.6946 259.779 28.7993 252.65 28.9564 247.534C29.1332 241.681 34.7306 244.509 35.0252 242.398C35.3296 240.296 29.1135 225.92 37.765 226.028C46.4164 226.136 42.3902 239.923 44.7372 241.2C47.0841 242.467 50.9729 240.954 49.9221 246.532C48.8714 252.12 40.1316 259.711 40.1316 259.711L36.6946 259.779Z" fill="#88BFBF"/>
<path d="M12.9895 259.603C7.87328 259.603 3.93546 250.254 11.8209 247.779C19.7064 245.305 20.5705 252.758 18.852 253.043C17.1335 253.328 16.2792 238.725 30.4691 240.709C45.9552 242.869 36.4888 259.603 36.4888 259.603C36.4888 259.603 45.6214 244.244 37.2253 226.254" stroke="#F6C850" stroke-width="0.5892" stroke-miterlimit="10" stroke-linecap="round"/>
<path d="M47.2119 259.603C47.2119 259.603 55.225 242.83 62.9141 248.172C70.6032 253.514 52.554 259.603 52.554 259.603" stroke="#F6C850" stroke-width="0.5892" stroke-miterlimit="10" stroke-linecap="round"/>
<path d="M50.0996 259.455C50.0996 259.455 57.8869 249.046 63.0227 248.28" stroke="#F6C850" stroke-width="0.5892" stroke-miterlimit="10" stroke-linecap="round"/>
<path d="M40.2695 259.504C40.2695 259.504 44.4823 249.694 48.2139 243.881" stroke="#F6C850" stroke-width="0.5892" stroke-miterlimit="10" stroke-linecap="round"/>
<path d="M49.2056 250.126C48.3807 250.696 44.6982 251.04 44.6982 251.04C44.6982 251.04 46.3382 247.72 47.1532 247.151C47.9781 246.581 49.0976 246.787 49.6672 247.612C50.2367 248.437 50.0305 249.567 49.2056 250.126Z" stroke="#F6C850" stroke-width="0.5892" stroke-miterlimit="10"/>
<path d="M52.4664 243.429C51.6415 243.999 47.959 244.342 47.959 244.342C47.959 244.342 49.5989 241.023 50.414 240.454C51.2389 239.884 52.3584 240.09 52.9279 240.915C53.4975 241.74 53.2912 242.869 52.4664 243.429Z" stroke="#F6C850" stroke-width="0.5892" stroke-miterlimit="10"/>
<path d="M53.8315 237.743C53.3012 238.588 50.0508 240.355 50.0508 240.355C50.0508 240.355 50.2374 236.663 50.7775 235.819C51.3077 234.974 52.4272 234.719 53.2717 235.249C54.1163 235.779 54.3618 236.899 53.8315 237.743Z" stroke="#F6C850" stroke-width="0.5892" stroke-miterlimit="10"/>
<path d="M42.3907 246.611C42.3808 247.612 44.1681 250.853 44.1681 250.853C44.1681 250.853 45.9946 247.632 46.0044 246.64C46.0143 245.639 45.209 244.823 44.2074 244.823C43.2155 244.814 42.4005 245.609 42.3907 246.611Z" stroke="#F6C850" stroke-width="0.5892" stroke-miterlimit="10"/>
<path d="M46.044 239.992C46.0342 240.994 47.8214 244.234 47.8214 244.234C47.8214 244.234 49.6479 241.013 49.6578 240.022C49.6676 239.02 48.8623 238.205 47.8607 238.205C46.859 238.205 46.0538 239 46.044 239.992Z" stroke="#F6C850" stroke-width="0.5892" stroke-miterlimit="10"/>
<path d="M281.685 259.622H364.448" stroke="#88BFBF" stroke-width="0.5892" stroke-miterlimit="10"/>
<path d="M0.25293 259.622H199.933" stroke="#88BFBF" stroke-width="0.5892" stroke-miterlimit="10"/>
<path d="M181.768 71.088C181.768 71.6969 181.699 72.2959 181.571 72.8851C181.542 73.0029 181.512 73.1208 181.483 73.2386C181.169 74.417 180.599 75.5365 179.784 76.489C179.774 76.4988 179.764 76.5185 179.755 76.5283C179.666 76.6363 179.568 76.7345 179.47 76.8426C179.45 76.872 179.421 76.8916 179.401 76.9113C179.077 77.2452 178.714 77.5594 178.321 77.8442C177.633 78.345 176.907 78.7182 176.151 78.9833C176.033 79.0226 175.915 79.0619 175.797 79.1012C174.736 79.4154 173.627 79.5136 172.547 79.3958C172.429 79.3859 172.311 79.3663 172.193 79.3467C171.044 79.1699 169.935 78.7673 168.943 78.129C168.825 78.0504 168.707 77.9718 168.589 77.8933C168.157 77.5889 167.754 77.2354 167.381 76.8426C167.273 76.7247 167.165 76.6167 167.067 76.489C166.861 76.2435 166.655 75.9784 166.478 75.7034L165.859 74.7705L166.409 76.489L166.517 76.8426L167.548 80.093L167.656 80.4465L168.589 83.3925L168.687 83.6969L168.795 84.0504L168.943 84.5022L169.826 87.3009L169.935 87.6544L170.966 90.9048L171.074 91.2583L172.105 94.5087L172.183 94.7641L172.213 94.8623L172.537 95.8737L172.596 96.0603C172.586 96.021 172.566 95.9817 172.537 95.9425C172.468 95.8443 172.35 95.7559 172.183 95.6773C171.624 95.4023 170.504 95.1961 168.933 95.0783C168.815 95.0685 168.697 95.0586 168.579 95.0488C167.637 94.9899 166.556 94.9506 165.329 94.931C165.211 94.931 165.093 94.931 164.975 94.931C163.974 94.9212 162.894 94.931 161.725 94.9605C161.607 94.9605 161.489 94.9703 161.371 94.9703C160.34 94.9997 159.26 95.039 158.121 95.0881C158.003 95.0979 157.885 95.0979 157.768 95.1078C156.727 95.1569 155.646 95.2158 154.517 95.2845C154.399 95.2943 154.281 95.2943 154.164 95.3042C153.113 95.3729 152.033 95.4416 150.913 95.53C150.795 95.5398 150.677 95.5496 150.56 95.5595C149.499 95.638 148.419 95.7264 147.309 95.8246C147.201 95.8344 147.093 95.8442 146.985 95.8541C146.975 95.8541 146.966 95.8541 146.956 95.8541C145.856 95.9523 144.766 96.0505 143.705 96.1585C143.587 96.1683 143.47 96.1781 143.352 96.1978C142.242 96.3058 141.152 96.4236 140.101 96.5513C139.984 96.5611 139.866 96.5807 139.748 96.5906C138.628 96.7182 137.538 96.8557 136.497 97.003C136.38 97.0226 136.262 97.0325 136.144 97.0521C135.005 97.2092 133.925 97.3663 132.893 97.5235C132.776 97.5431 132.658 97.5627 132.54 97.5824C131.42 97.7591 130.38 97.9457 129.407 98.1225C129.368 98.1323 129.329 98.1421 129.29 98.1421C129.172 98.1618 129.054 98.1912 128.936 98.2109C128.494 98.2993 128.072 98.3876 127.669 98.476C126.943 98.6331 126.285 98.7902 125.686 98.9474C125.568 98.9768 125.45 99.0063 125.332 99.0456C123.27 99.6053 122.101 100.155 122.101 100.646V86.5447H111.27C111.152 86.5447 111.034 86.5447 110.916 86.5349C109.777 86.4956 108.687 86.2796 107.666 85.9261C107.548 85.8868 107.43 85.8377 107.312 85.7984C106.242 85.3761 105.25 84.7967 104.366 84.0799C104.268 84.0013 104.16 83.9129 104.062 83.8246C104.023 83.7951 103.993 83.7656 103.954 83.7264C103.875 83.6576 103.787 83.5791 103.708 83.5005C103.64 83.4416 103.581 83.3728 103.512 83.3041C102.687 82.4792 101.99 81.5267 101.46 80.4661C101.401 80.3483 101.342 80.2304 101.293 80.1126C100.821 79.1011 100.507 78.0111 100.37 76.8622C100.35 76.7443 100.34 76.6265 100.33 76.5087C100.301 76.1748 100.281 75.8409 100.281 75.4972C100.281 74.7411 100.36 73.9849 100.507 73.2583C100.527 73.1404 100.556 73.0226 100.586 72.9047C100.861 71.7558 101.322 70.6658 101.951 69.6543C102.01 69.5659 102.068 69.4677 102.127 69.3794L102.177 69.3008L103.699 67.0127L104.052 66.4825L104.347 66.0504L104.582 65.6969L106.753 62.4464L106.988 62.0929L107.312 61.6117L107.666 61.0815L109.159 58.8425L109.394 58.489L110.916 56.2009L111.27 55.6706L111.555 55.2385L111.79 54.885L113.961 51.6346L114.196 51.2811L114.255 51.1927C114.343 51.065 114.432 50.9472 114.52 50.8195C114.638 50.6624 114.756 50.5151 114.874 50.358C115.561 49.4938 116.327 48.7181 117.172 48.0307C117.319 47.9128 117.466 47.795 117.614 47.6771C117.78 47.5495 117.957 47.4218 118.124 47.304C118.242 47.2254 118.36 47.1469 118.478 47.0683C119.489 46.3907 120.589 45.8408 121.728 45.4185C121.846 45.3793 121.964 45.3302 122.082 45.2909C123.132 44.9275 124.222 44.682 125.332 44.5544C125.45 44.5446 125.568 44.5249 125.686 44.5151C126.177 44.466 126.677 44.4464 127.178 44.4464H154.704L154.733 44.4365L155.637 44.083L157.758 43.2581L158.111 43.1207L161.362 41.8539L161.715 41.7164L164.003 40.8326L164.907 40.4791L164.966 40.4496L165.319 40.3121L165.928 40.0765L166.144 40.4791L166.34 40.8326L168.118 44.083L168.314 44.4365L168.57 44.9079L168.923 45.556L170.092 47.687L170.288 48.0405L172.065 51.2909L172.173 51.4971L172.252 51.6444L172.527 52.1354L174.029 54.8948L174.226 55.2484L175.777 58.0863L176.003 58.4988L176.131 58.7246L176.2 58.8523L177.977 62.1027L178.173 62.4563L179.381 64.6658L179.735 65.3139L179.951 65.7067L180.147 66.0602L180.727 67.1208C181.11 67.8278 181.385 68.5643 181.552 69.3106C181.581 69.4284 181.601 69.5463 181.62 69.6641C181.728 70.1158 181.768 70.6068 181.768 71.088Z" fill="#F69050"/>
<g opacity="0.2">
<g opacity="0.2">
<g opacity="0.2">
<path opacity="0.2" d="M104.102 66.4726V83.7951C104.062 83.7656 104.033 83.7362 103.994 83.6969C103.915 83.6282 103.827 83.5496 103.748 83.471V67.0029L104.102 66.4726Z" fill="white"/>
</g>
<g opacity="0.2">
<path opacity="0.2" d="M111.31 55.6608V86.5152C111.192 86.5152 111.074 86.5152 110.956 86.5054V56.1911L111.31 55.6608Z" fill="white"/>
</g>
<g opacity="0.2">
<path opacity="0.2" d="M107.705 61.0618V85.8868C107.587 85.8475 107.469 85.7984 107.352 85.7591V61.5921L107.705 61.0618Z" fill="white"/>
</g>
<g opacity="0.2">
<path opacity="0.2" d="M118.518 47.0487V86.5054H118.164V47.2942C118.282 47.2156 118.4 47.1272 118.518 47.0487Z" fill="white"/>
</g>
<g opacity="0.2">
<path opacity="0.2" d="M114.914 50.3482V86.5054H114.561V50.8097C114.678 50.6526 114.796 50.5053 114.914 50.3482Z" fill="white"/>
</g>
<g opacity="0.2">
<path opacity="0.2" d="M125.726 44.5053V98.9277C125.608 98.9572 125.49 98.9866 125.372 99.0259V44.5347C125.49 44.5249 125.608 44.5151 125.726 44.5053Z" fill="white"/>
</g>
<g opacity="0.2">
<path opacity="0.2" d="M122.121 45.2811V86.5152H121.768V45.3989C121.885 45.3596 122.003 45.3203 122.121 45.2811Z" fill="white"/>
</g>
<g opacity="0.2">
<g opacity="0.2">
<path opacity="0.2" d="M129.319 44.4169V98.1225C129.201 98.1421 129.084 98.1716 128.966 98.1912V44.4169H129.319Z" fill="white"/>
</g>
</g>
<g opacity="0.2">
<path opacity="0.2" d="M136.527 44.4169V96.9834C136.41 97.003 136.292 97.0128 136.174 97.0325V44.4169H136.527Z" fill="white"/>
</g>
<g opacity="0.2">
<path opacity="0.2" d="M132.923 44.4169V97.5038C132.805 97.5235 132.687 97.5431 132.569 97.5627V44.4169H132.923Z" fill="white"/>
</g>
<g opacity="0.2">
<path opacity="0.2" d="M143.736 44.4169V96.1487C143.619 96.1585 143.501 96.1683 143.383 96.1879V44.4169H143.736Z" fill="white"/>
</g>
<g opacity="0.2">
<path opacity="0.2" d="M140.131 44.4169V96.5316C140.013 96.5415 139.895 96.5611 139.777 96.5709V44.4169H140.131Z" fill="white"/>
</g>
<g opacity="0.2">
<path opacity="0.2" d="M150.943 44.4169V95.5202C150.826 95.53 150.708 95.5398 150.59 95.5496V44.4169H150.943Z" fill="white"/>
</g>
<g opacity="0.2">
<path opacity="0.2" d="M147.339 44.4169V95.8148C147.231 95.8246 147.123 95.8344 147.015 95.8442C147.005 95.8442 146.995 95.8442 146.985 95.8442V44.4169H147.339Z" fill="white"/>
</g>
<g opacity="0.2">
<g opacity="0.2">
<path opacity="0.2" d="M154.537 44.4169V95.2845C154.419 95.2943 154.301 95.2943 154.184 95.3041V44.4169H154.537Z" fill="white"/>
</g>
</g>
<g opacity="0.2">
<path opacity="0.2" d="M161.745 41.7066V94.9702C161.627 94.9702 161.509 94.9801 161.392 94.9801V41.844L161.745 41.7066Z" fill="white"/>
</g>
<g opacity="0.2">
<path opacity="0.2" d="M158.142 43.101V95.0881C158.024 95.0979 157.906 95.0979 157.788 95.1077V43.2385L158.142 43.101Z" fill="white"/>
</g>
<g opacity="0.2">
<path opacity="0.2" d="M168.952 45.5364V78.129C168.834 78.0504 168.716 77.9718 168.599 77.8933V44.8981L168.952 45.5364Z" fill="white"/>
<path opacity="0.2" d="M168.952 84.5021V95.0783C168.834 95.0685 168.716 95.0586 168.599 95.0488V83.3827L168.697 83.6871L168.805 84.0406L168.952 84.5021Z" fill="white"/>
</g>
<g opacity="0.2">
<path opacity="0.2" d="M165.349 40.2532V40.3023L164.995 40.4398V40.2532H165.349Z" fill="white"/>
<path opacity="0.2" d="M165.349 40.3023V94.9408C165.231 94.9408 165.113 94.9408 164.995 94.9408V40.4398L165.349 40.3023Z" fill="white"/>
</g>
<g opacity="0.2">
<path opacity="0.2" d="M176.161 58.705V78.9833C176.043 79.0226 175.925 79.0619 175.808 79.1011V58.0667L176.033 58.4791L176.161 58.705Z" fill="white"/>
</g>
<g opacity="0.2">
<path opacity="0.2" d="M172.557 95.8737V95.9523C172.488 95.8541 172.37 95.7657 172.203 95.6871V94.764L172.233 94.8622L172.557 95.8737Z" fill="white"/>
<path opacity="0.2" d="M172.557 52.1158V79.3859C172.439 79.3761 172.321 79.3565 172.203 79.3368V51.4775L172.282 51.6248L172.557 52.1158Z" fill="white"/>
</g>
<g opacity="0.2">
<g opacity="0.2">
<path opacity="0.2" d="M179.755 65.2844V76.5283C179.667 76.6363 179.568 76.7345 179.47 76.8425C179.45 76.872 179.421 76.8916 179.401 76.9113V64.6461L179.755 65.2844Z" fill="white"/>
</g>
</g>
</g>
<g opacity="0.2">
<g opacity="0.2">
<path opacity="0.2" d="M129.447 98.1028C129.408 98.1126 129.368 98.1225 129.329 98.1225C129.211 98.1421 129.093 98.1716 128.975 98.1912C128.534 98.2796 128.111 98.368 127.709 98.4563H122.121V98.1028H129.447Z" fill="white"/>
</g>
<g opacity="0.2">
<path opacity="0.2" d="M171.093 91.2485H122.121V90.8949H170.976L171.093 91.2485Z" fill="white"/>
</g>
<g opacity="0.2">
<path opacity="0.2" d="M172.233 94.8524H122.121V94.4989H172.125L172.203 94.7542L172.233 94.8524Z" fill="white"/>
</g>
<g opacity="0.2">
<g opacity="0.2">
<path opacity="0.2" d="M169.944 87.6445H122.121V87.3008H169.836L169.944 87.6445Z" fill="white"/>
</g>
</g>
<g opacity="0.2">
<path opacity="0.2" d="M167.665 80.4465H101.508C101.449 80.3286 101.39 80.2108 101.341 80.0929H167.557L167.665 80.4465Z" fill="white"/>
</g>
<g opacity="0.2">
<path opacity="0.2" d="M168.804 84.0504H104.405C104.306 83.9718 104.198 83.8834 104.1 83.7951C104.061 83.7656 104.031 83.7361 103.992 83.6969H168.686L168.804 84.0504Z" fill="white"/>
</g>
<g opacity="0.2">
<path opacity="0.2" d="M181.579 72.8851C181.55 73.0029 181.521 73.1207 181.491 73.2386H100.555C100.574 73.1207 100.604 73.0029 100.633 72.8851H181.579Z" fill="white"/>
</g>
<g opacity="0.2">
<path opacity="0.2" d="M166.526 76.8425H100.408C100.389 76.7247 100.379 76.6068 100.369 76.489H166.409L166.526 76.8425Z" fill="white"/>
<path opacity="0.2" d="M179.793 76.489C179.783 76.4988 179.773 76.5184 179.764 76.5283C179.675 76.6363 179.577 76.7345 179.479 76.8425H167.39C167.282 76.7247 167.174 76.6166 167.076 76.489H179.793Z" fill="white"/>
</g>
<g opacity="0.2">
<path opacity="0.2" d="M180.167 66.0307H104.396L104.631 65.6772H179.97L180.167 66.0307Z" fill="white"/>
</g>
<g opacity="0.2">
<path opacity="0.2" d="M181.639 69.6346H101.999C102.058 69.5463 102.117 69.4481 102.176 69.3597L102.225 69.2811H181.57C181.6 69.399 181.62 69.5168 181.639 69.6346Z" fill="white"/>
</g>
<g opacity="0.2">
<g opacity="0.2">
<path opacity="0.2" d="M178.192 62.4268H106.801L107.027 62.0831H178.006L178.192 62.4268Z" fill="white"/>
</g>
</g>
<g opacity="0.2">
<path opacity="0.2" d="M174.255 55.2287H111.594L111.829 54.8752H174.059L174.255 55.2287Z" fill="white"/>
</g>
<g opacity="0.2">
<path opacity="0.2" d="M176.229 58.8326H109.197L109.433 58.4791H176.032L176.16 58.705L176.229 58.8326Z" fill="white"/>
</g>
<g opacity="0.2">
<path opacity="0.2" d="M170.307 48.0208H117.2C117.347 47.903 117.495 47.7851 117.642 47.6673H170.11L170.307 48.0208Z" fill="white"/>
</g>
<g opacity="0.2">
<path opacity="0.2" d="M172.282 51.6248H114L114.236 51.2712H172.085L172.203 51.4775L172.282 51.6248Z" fill="white"/>
</g>
<g opacity="0.2">
<path opacity="0.2" d="M166.369 40.8129H164.032L164.936 40.4594H166.173L166.369 40.8129Z" fill="white"/>
</g>
<g opacity="0.2">
<path opacity="0.2" d="M168.343 44.4169H154.771L155.675 44.0633H168.146L168.343 44.4169Z" fill="white"/>
</g>
</g>
</g>
<path d="M147.88 102.983C131.264 104.27 122.151 102.699 122.142 100.617C122.142 99.1241 133.111 97.0521 147.016 95.8443C161.697 94.5775 172.165 94.6364 172.616 96.0603C173.245 98.0439 165.084 101.648 147.88 102.983Z" fill="#F5E4D4"/>
<path d="M147.104 83.8737L152.76 95.3925" stroke="white" stroke-width="0.5892" stroke-miterlimit="10"/>
<path d="M145.228 88.3712C145.711 88.3712 146.102 87.9799 146.102 87.4973C146.102 87.0146 145.711 86.6233 145.228 86.6233C144.746 86.6233 144.354 87.0146 144.354 87.4973C144.354 87.9799 144.746 88.3712 145.228 88.3712Z" stroke="white" stroke-width="0.491" stroke-miterlimit="10"/>
<path d="M154.743 44.4267L167.077 77.3925" stroke="white" stroke-width="0.491" stroke-miterlimit="10"/>
<path d="M100.37 73.7787C102.864 72.3352 106.459 73.8867 108.393 77.2452C110.328 80.5938 109.876 84.4825 107.382 85.9261" stroke="white" stroke-width="0.491" stroke-miterlimit="10" stroke-linecap="round"/>
<path d="M181.464 73.3368C180.973 75.0946 179.902 76.7051 178.331 77.8442C175.994 79.5431 173.077 79.8377 170.573 78.9244C170.014 76.7247 171.644 74.093 174.491 72.7673C177.123 71.5496 179.971 71.8442 181.464 73.3368Z" stroke="white" stroke-width="0.491" stroke-miterlimit="10"/>
<path d="M147.103 95.6184L146.985 44.4169" stroke="white" stroke-width="0.5892" stroke-miterlimit="10"/>
<path d="M149.98 55.9751C150.463 55.9751 150.854 55.5838 150.854 55.1011C150.854 54.6184 150.463 54.2271 149.98 54.2271C149.498 54.2271 149.106 54.6184 149.106 55.1011C149.106 55.5838 149.498 55.9751 149.98 55.9751Z" stroke="white" stroke-width="0.491" stroke-miterlimit="10"/>
<path d="M149.98 66.7574C150.463 66.7574 150.854 66.3661 150.854 65.8834C150.854 65.4007 150.463 65.0095 149.98 65.0095C149.498 65.0095 149.106 65.4007 149.106 65.8834C149.106 66.3661 149.498 66.7574 149.98 66.7574Z" stroke="white" stroke-width="0.491" stroke-miterlimit="10"/>
<path d="M149.98 77.5398C150.463 77.5398 150.854 77.1485 150.854 76.6658C150.854 76.1831 150.463 75.7918 149.98 75.7918C149.498 75.7918 149.106 76.1831 149.106 76.6658C149.106 77.1485 149.498 77.5398 149.98 77.5398Z" stroke="white" stroke-width="0.491" stroke-miterlimit="10"/>
<path d="M134.309 44.25L147.065 51.5659L153.86 44.1616" stroke="white" stroke-width="0.491" stroke-miterlimit="10"/>
<path d="M176.788 175.534L154.084 175.543L155.606 170.682H176.69L176.788 175.534Z" fill="white" stroke="#F69050" stroke-width="0.491" stroke-miterlimit="10"/>
<path d="M182.09 119.324C185.606 125.137 186.617 132.129 184.909 138.699L177.563 166.912L176.581 170.682H155.616L157.167 165.743L165.897 137.452L140.905 96.4433C142.85 96.2273 144.892 96.021 147.004 95.8443C155.665 95.098 162.853 94.8132 167.39 94.9899L182.09 119.324Z" fill="white" stroke="#626A7F" stroke-width="0.5892" stroke-miterlimit="10" stroke-linecap="round"/>
<path d="M207.309 175.534L176.789 175.543L176.69 170.653L176.71 170.682L193.502 162.895C202.979 165.831 207.074 170.103 208.802 172.853C209.529 174.021 208.684 175.534 207.309 175.534Z" fill="white" stroke="#F69050" stroke-width="0.491" stroke-miterlimit="10"/>
<path d="M193.501 162.895L176.709 170.682L132.067 109.582C130.594 107.569 129.445 105.37 128.64 103.042C128.129 101.569 127.756 100.047 127.53 98.4956C132.057 97.5038 139.059 96.5316 147.013 95.8442C149.016 95.6675 150.931 95.5202 152.758 95.4023L156.745 102.001L193.501 162.895Z" fill="white" stroke="#626A7F" stroke-width="0.5892" stroke-miterlimit="10" stroke-linecap="round"/>
<path d="M144.332 101.726L183.75 167.039" stroke="#626A7F" stroke-width="0.5892" stroke-miterlimit="10" stroke-linecap="round"/>
<path d="M141.544 99.1928C141.544 99.1928 141.249 106.401 135.023 108.944" stroke="#626A7F" stroke-width="0.5892" stroke-miterlimit="10" stroke-linecap="round"/>
<path d="M167.4 94.9899L169.658 98.7412C167.056 99.8999 162.764 101.098 156.735 101.992C154.113 102.384 151.157 102.718 147.868 102.974C146.208 103.101 144.627 103.199 143.124 103.278C136.997 103.582 132.126 103.445 128.63 103.042C128.12 101.569 127.746 100.047 127.521 98.4957C127.521 98.4957 137.331 96.6299 147.465 95.805C157.599 94.9801 167.4 94.9899 167.4 94.9899Z" fill="#626A7F"/>
<path d="M121.875 100.705C121.875 99.2125 132.412 97.0325 147.014 95.7559C161.695 94.4694 172.428 94.6364 172.88 96.0603" stroke="white" stroke-width="0.491" stroke-miterlimit="10" stroke-linecap="round"/>
<path d="M148.026 44.4267H134.838L136.655 34.8522H148.026V44.4267Z" fill="#F6C850"/>
<path d="M138.118 44.4267H134.838L136.655 34.8522H148.026V38.2303L138.118 44.4267Z" fill="#F5E4D4"/>
<path d="M136.605 36.286C136.605 36.286 138.412 26.0142 138.648 25.4349C139.051 24.4529 147.368 21.2908 148.645 22.4594C149.921 23.628 147.339 24.6689 148.723 24.5609C150.108 24.4529 154.281 21.3497 156.029 23.7164C157.09 25.1599 153.673 27.2417 151.483 27.664C149.293 28.0863 143.136 31.3858 142.988 32.5544C142.841 33.7229 140.867 36.0601 136.605 36.286Z" fill="white" stroke="#F6C850" stroke-width="0.491" stroke-miterlimit="10"/>
<path d="M151.483 27.4872V36.1878C151.483 37.5429 150.383 38.6329 149.038 38.6329H145.925C144.305 38.6329 142.999 37.3171 142.999 35.6968V34.8424H141.486C140.995 34.8424 140.554 34.646 140.229 34.322C139.905 33.9979 139.709 33.556 139.709 33.065C139.709 32.083 140.504 31.2876 141.486 31.2876H143.195C143.647 29.8735 144.835 28.7737 146.357 28.4791L151.483 27.4872Z" fill="#F6C850"/>
<path d="M142.645 33.448C142.645 32.6427 142.164 32.0437 141.368 32.1714" stroke="#F5E4D4" stroke-width="0.3928" stroke-miterlimit="10" stroke-linecap="round"/>
<path d="M148.281 30.6394C148.281 30.6394 149.303 30.0601 150.451 29.952" stroke="#F5E4D4" stroke-width="0.3928" stroke-miterlimit="10" stroke-linecap="round"/>
<path d="M149.696 32.5347C149.912 32.5347 150.088 32.2489 150.088 31.8964C150.088 31.5439 149.912 31.2581 149.696 31.2581C149.479 31.2581 149.303 31.5439 149.303 31.8964C149.303 32.2489 149.479 32.5347 149.696 32.5347Z" fill="#F5E4D4"/>
<path d="M142.114 75.7133L139.796 76.5971L139.59 76.6756L137.999 77.2746V72.8949H118.762L123.043 65.6183L123.22 65.3139L125.331 64.5185L125.744 64.3613L127.364 63.7427L127.678 63.6248L130.173 62.6723L130.585 62.5152L132.176 61.9162L132.569 61.7689L134.277 61.1207C134.317 61.1011 134.356 61.0913 134.395 61.0815C134.523 61.0422 134.65 61.0127 134.778 61.0029C134.935 60.9833 135.092 60.9833 135.24 60.9931C135.711 61.0324 136.153 61.2386 136.497 61.5626C136.732 61.7787 136.919 62.0536 137.037 62.3679L142.114 75.7133Z" fill="white"/>
<path d="M139.138 67.2484L137.262 62.2893C137.135 61.9554 136.938 61.6608 136.703 61.435C136.31 61.052 135.78 60.8163 135.23 60.777C135.053 60.7672 134.876 60.7672 134.709 60.7967C134.542 60.8163 134.375 60.8654 134.218 60.9243L132.509 61.5725L132.097 61.7296L130.526 62.3286L130.113 62.4857L127.658 63.4186L127.246 63.5757L125.665 64.1748L125.252 64.3319L123.396 65.0389L123.22 65.3433L123.043 65.6478L125.429 64.7443L125.842 64.5872L130.27 62.908L130.683 62.7509L134.228 61.4055L134.356 61.3564C134.415 61.3368 134.473 61.3171 134.532 61.2975C134.65 61.268 134.758 61.2484 134.876 61.2386C134.935 61.2386 134.984 61.2288 135.043 61.2288C135.819 61.2288 136.555 61.7001 136.85 62.4759L141.829 75.6151L139.914 76.3417L139.708 76.4203L139.501 76.4989L137.989 77.0684V77.5398L139.658 76.9113L142.388 75.8704L139.138 67.2484Z" fill="#88BFBF"/>
<path d="M142.113 75.7133L139.786 76.5971L134.404 62.4072C134.159 61.7689 134.483 61.052 135.121 60.8065C135.76 60.561 136.476 60.8851 136.722 61.5234L142.113 75.7133Z" fill="#88BFBF"/>
<path d="M139.659 76.872L134.199 62.4759C133.914 61.7198 134.297 60.8752 135.043 60.5905C135.407 60.453 135.809 60.4628 136.163 60.6199C136.516 60.777 136.791 61.0716 136.929 61.435L142.389 75.8311L139.659 76.872ZM135.574 60.944C135.456 60.944 135.328 60.9636 135.21 61.0127C134.68 61.2091 134.415 61.8081 134.621 62.3286L139.924 76.3123L141.839 75.5856L136.536 61.6019C136.438 61.3466 136.251 61.1404 135.996 61.0324C135.858 60.9734 135.711 60.944 135.574 60.944Z" fill="#88BFBF"/>
<path d="M131.646 63.8998C131.41 63.8998 131.155 63.8114 130.919 63.6445C130.585 63.4088 130.32 63.0454 130.153 62.6134C129.986 62.1813 129.947 61.7198 130.045 61.327C130.143 60.9047 130.389 60.6003 130.723 60.4726C131.4 60.2173 132.206 60.7574 132.559 61.7001C132.598 61.8179 132.549 61.9456 132.432 61.9849C132.314 62.0242 132.186 61.9751 132.147 61.8572C131.882 61.1698 131.302 60.7279 130.87 60.8851C130.674 60.9636 130.526 61.1502 130.468 61.4252C130.399 61.7296 130.428 62.0929 130.566 62.4464C130.703 62.7999 130.919 63.0945 131.175 63.2811C131.41 63.4481 131.646 63.4972 131.842 63.4186C131.96 63.3793 132.088 63.4284 132.127 63.5463C132.166 63.6641 132.117 63.7918 131.999 63.8311C131.882 63.8802 131.764 63.8998 131.646 63.8998Z" fill="#88BFBF"/>
<path d="M126.766 65.6772C126.53 65.6772 126.275 65.5888 126.039 65.4219C125.705 65.1862 125.44 64.8229 125.273 64.3908C125.106 63.9587 125.067 63.4972 125.165 63.1044C125.264 62.6821 125.509 62.3777 125.843 62.25C126.177 62.1224 126.56 62.1911 126.913 62.4366C127.247 62.6723 127.512 63.0356 127.679 63.4677C127.719 63.5855 127.669 63.7132 127.552 63.7525C127.434 63.7918 127.306 63.7427 127.267 63.6248C127.129 63.2713 126.913 62.9767 126.658 62.7901C126.422 62.6232 126.187 62.5741 125.99 62.6526C125.794 62.7312 125.647 62.9178 125.588 63.1927C125.519 63.4972 125.548 63.8605 125.686 64.214C125.823 64.5675 126.039 64.8621 126.295 65.0487C126.53 65.2157 126.766 65.2648 126.962 65.1862C127.08 65.1469 127.208 65.196 127.247 65.3139C127.286 65.4317 127.237 65.5594 127.12 65.5986C127.002 65.6576 126.884 65.6772 126.766 65.6772Z" fill="#88BFBF"/>
<path d="M138.021 86.5054C139.398 86.5054 140.515 83.4586 140.515 79.7002C140.515 75.9417 139.398 72.8949 138.021 72.8949C136.643 72.8949 135.526 75.9417 135.526 79.7002C135.526 83.4586 136.643 86.5054 138.021 86.5054Z" fill="#E0712C"/>
<path d="M146.976 74.2894V81.6544C146.976 82.2436 146.671 82.7935 146.17 83.1077L143.028 84.9735H136.429C135.869 83.7264 135.516 81.8311 135.516 79.7198C135.516 78.1977 135.702 76.7836 136.007 75.6543H142.331L141.359 73.0815C141.074 72.345 141.761 71.5987 142.517 71.8049L145.719 72.6494C146.465 72.8458 146.976 73.5136 146.976 74.2894Z" fill="#F6C850"/>
<path d="M146.798 79.3565C146.798 79.9457 146.494 80.4956 145.993 80.8098L143.027 82.6756" stroke="#E0712C" stroke-width="0.3928" stroke-miterlimit="10" stroke-linecap="round"/>
<path d="M146.798 76.6363C146.798 77.2255 146.494 77.7754 145.993 78.0897L143.027 79.9555" stroke="#E0712C" stroke-width="0.3928" stroke-miterlimit="10" stroke-linecap="round"/>
<path d="M146.798 74.0831C146.798 74.6723 146.494 75.2223 145.993 75.5365L143.027 77.4023" stroke="#E0712C" stroke-width="0.3928" stroke-miterlimit="10" stroke-linecap="round"/>
<path d="M143.804 74.7116L142.321 75.6347" stroke="#E0712C" stroke-width="0.3928" stroke-miterlimit="10" stroke-linecap="round"/>
<path d="M140.514 79.7002C140.514 81.8213 140.16 83.7165 139.601 84.9637H136.429C135.869 83.7165 135.516 81.8213 135.516 79.7002C135.516 78.1781 135.702 76.764 136.007 75.6347H140.013C140.327 76.764 140.514 78.1781 140.514 79.7002Z" fill="#F5E4D4"/>
<path d="M126.166 60.836L119.105 72.728" stroke="white" stroke-width="0.491" stroke-miterlimit="10"/>
<path d="M137.931 72.728C136.556 72.728 135.437 76.0766 135.437 79.8868C135.437 83.6969 136.556 86.7804 137.931 86.7804H122.121" stroke="white" stroke-width="0.491" stroke-miterlimit="10" stroke-linecap="round"/>
<path d="M155.067 31.6804L164.376 43.2385L159.093 48.6002L147.397 39.4676C147.054 39.1338 147.329 38.25 148.036 37.1501C148.546 36.3449 149.283 35.4316 150.177 34.5282C151.07 33.6247 151.974 32.8686 152.769 32.3481C153.849 31.6411 154.723 31.3563 155.067 31.6804Z" fill="#88BFBF" stroke="#88BFBF" stroke-width="0.491" stroke-miterlimit="10" stroke-linecap="round"/>
<path d="M162.718 46.9257C164.176 45.446 164.909 43.8052 164.357 43.261C163.804 42.7168 162.175 43.4752 160.717 44.955C159.26 46.4348 158.526 48.0756 159.079 48.6198C159.631 49.164 161.26 48.4055 162.718 46.9257Z" fill="white" stroke="#88BFBF" stroke-width="0.5892" stroke-miterlimit="10"/>
<path d="M157.325 42.4431V43.1894C157.325 43.7983 155.773 44.0929 155.351 43.651L151.678 39.8015C151.403 39.5069 151.246 39.1239 151.246 38.7213V36.502C151.246 35.9325 151.511 35.4022 151.963 35.0585L153.269 34.0667C153.583 33.8212 153.976 33.6935 154.369 33.6935H157.914C158.896 33.6935 159.799 34.2336 160.251 35.0978L163.374 40.9799H158.768C157.973 40.9897 157.325 41.6379 157.325 42.4431Z" fill="#F6C850"/>
<path d="M163.305 40.9897H158.877C158.071 40.9897 157.413 41.6477 157.413 42.4529V43.1992C157.413 43.8081 156.039 44.1027 155.616 43.6608L151.541 39.4185" stroke="#E0712C" stroke-width="0.3928" stroke-miterlimit="10" stroke-linecap="round"/>
<path d="M153.044 40.9897C152.769 40.705 152.622 40.3318 152.622 39.939V37.7786C152.622 37.2189 152.877 36.6984 153.319 36.3645L154.596 35.3923C154.91 35.1567 155.283 35.029 155.676 35.029H158.17" stroke="#E0712C" stroke-width="0.3928" stroke-miterlimit="10" stroke-linecap="round"/>
<path d="M154.457 42.4824C154.182 42.1976 154.035 41.8244 154.035 41.4316V39.2712C154.035 38.7115 154.29 38.191 154.732 37.8572L156.009 36.885C156.323 36.6493 156.696 36.5216 157.089 36.5216H159.318" stroke="#E0712C" stroke-width="0.3928" stroke-miterlimit="10" stroke-linecap="round"/>
<path d="M156 43.7197C155.745 43.4546 155.607 43.1109 155.607 42.7475V40.7442C155.607 40.2336 155.843 39.7426 156.256 39.4382L157.434 38.5347C157.719 38.3187 158.072 38.2009 158.426 38.2009H159.918" stroke="#E0712C" stroke-width="0.3928" stroke-miterlimit="10" stroke-linecap="round"/>
<path d="M231.986 117.311H270.461C278.238 117.311 285.505 121.141 289.905 127.543L307.532 153.507C308.985 155.619 307.669 158.496 305.106 158.496H285.486L277.649 148.254C276.726 146.957 274.684 147.527 274.556 149.118L272.975 168.404H231.014L227.479 148.794C227.263 147.262 225.279 146.79 224.386 148.057L217.188 157.327H193.728L212.032 128.319C216.363 121.465 223.895 117.311 231.986 117.311Z" fill="white" stroke="#88BFBF" stroke-width="0.5892" stroke-miterlimit="10" stroke-linecap="round"/>
<path d="M255.426 127.327L261.661 148.038H246.254L253.098 127.327H255.426Z" fill="#F69050"/>
<g opacity="0.2">
<g opacity="0.2">
<g opacity="0.2">
<path opacity="0.2" d="M250.457 135.331V148.038H250.045V136.578L250.182 136.155L250.457 135.331Z" fill="white"/>
</g>
<g opacity="0.2">
<path opacity="0.2" d="M254.847 127.376H254.435V148.038H254.847V127.376Z" fill="white"/>
</g>
<g opacity="0.2">
<path opacity="0.2" d="M259.237 139.975V148.038H258.824V138.601L259.237 139.975Z" fill="white"/>
</g>
</g>
<g opacity="0.2">
<g opacity="0.2">
<path opacity="0.2" d="M260.857 145.357H247.139L247.276 144.934H260.73L260.857 145.357Z" fill="white"/>
</g>
<g opacity="0.2">
<path opacity="0.2" d="M259.531 140.967H248.592L248.729 140.545H259.404L259.531 140.967Z" fill="white"/>
</g>
<g opacity="0.2">
<path opacity="0.2" d="M258.215 136.578H250.045L250.182 136.155H258.087L258.215 136.578Z" fill="white"/>
</g>
<g opacity="0.2">
<path opacity="0.2" d="M256.889 132.188H251.498L251.636 131.766H256.762L256.889 132.188Z" fill="white"/>
</g>
<g opacity="0.2">
<path opacity="0.2" d="M255.564 127.799H252.952L253.09 127.376H255.446L255.564 127.799Z" fill="white"/>
</g>
</g>
</g>
<path d="M258.215 127.111L260.729 129.812L268.83 117.311H261.652L258.215 127.111Z" fill="white" stroke="#88BFBF" stroke-width="0.5892" stroke-miterlimit="10" stroke-linecap="round"/>
<path d="M250.762 127.111L248.238 129.812L239.459 117.311H247.315L250.762 127.111Z" fill="white" stroke="#88BFBF" stroke-width="0.5892" stroke-miterlimit="10" stroke-linecap="round"/>
<path d="M310.615 160.872C310.615 165.763 307.129 170.398 301.709 171.193L279.486 174.463L274.605 175.18V156.286L276.108 155.933L297.79 150.787C301.974 149.795 306.334 151.475 308.769 155.02C310.036 156.846 310.615 158.879 310.615 160.872Z" fill="#A0505A"/>
<path d="M279.486 174.463L274.605 175.18V156.286L276.108 155.933L279.486 174.463Z" fill="#E0712C"/>
<path d="M274.605 180.012H227.892V151.975C227.892 149.795 229.659 148.038 231.829 148.038H270.658C272.838 148.038 274.596 149.805 274.596 151.975V180.012H274.605Z" fill="#F6C850"/>
<path d="M254.131 166.264H248.366C247.777 166.264 247.306 165.792 247.306 165.203V162.787C247.306 162.198 247.777 161.727 248.366 161.727H254.131C254.72 161.727 255.191 162.198 255.191 162.787V165.203C255.191 165.792 254.71 166.264 254.131 166.264Z" stroke="white" stroke-width="0.491" stroke-miterlimit="10"/>
<path d="M244.302 179.707L293.755 172.313C303.379 170.849 312.05 178.303 312.05 188.044C312.05 196.833 304.93 203.953 296.142 203.953H244.626L244.302 179.707Z" fill="#0096A0"/>
<path d="M237.614 208.283L207.849 214.028C204.059 214.833 200.249 211.671 200.082 207.586L199.64 196.725C199.414 191.226 204.687 187.917 209.656 190.273L237.614 208.283Z" fill="white" stroke="#F69050" stroke-width="0.5892" stroke-miterlimit="10"/>
<path d="M209.862 213.635C206.199 214.401 202.497 211.328 202.32 207.35L201.858 196.804C201.623 191.462 206.71 188.28 211.521 190.578" stroke="#F69050" stroke-width="0.5892" stroke-miterlimit="10"/>
<path d="M209.656 190.264L237.614 208.283L231.241 209.511L209.656 190.264Z" fill="#F69050"/>
<path d="M220.428 198.159L216.746 205.494L213.102 196.872L208.89 206.555" stroke="#F69050" stroke-width="0.5892" stroke-miterlimit="10" stroke-linejoin="round"/>
<path d="M208.684 195.527L212.808 205.818L216.844 197.599L219.977 204.454" stroke="#F69050" stroke-width="0.5892" stroke-miterlimit="10" stroke-linejoin="round"/>
<path d="M260.73 194.82C259.08 193.465 254.308 196.548 250.066 201.704C245.823 206.859 243.722 212.143 245.372 213.498C245.126 213.35 214.124 193.907 194.887 180.64C189.997 177.272 187.414 171.871 187.414 166.401C187.414 162.591 188.671 158.751 191.273 155.54C197.794 147.497 209.872 146.957 217.09 154.381L260.73 194.82Z" fill="#88BFBF"/>
<path d="M256.027 206.608C260.268 201.452 262.368 196.172 260.717 194.815C259.067 193.457 254.291 196.537 250.051 201.693C245.81 206.849 243.71 212.129 245.36 213.487C247.01 214.844 251.786 211.764 256.027 206.608Z" fill="#F69050" stroke="white" stroke-width="0.5892" stroke-miterlimit="10"/>
<path d="M274.38 211.789L268.861 221.157C266.062 225.9 259.738 225.989 256.841 221.314L247.552 206.349C248.347 205.033 249.329 203.658 250.458 202.283C252.501 199.799 254.671 197.796 256.557 196.539L271.346 202.165C274.959 203.55 276.452 208.264 274.38 211.789Z" fill="white" stroke="#F69050" stroke-width="0.5892" stroke-miterlimit="10"/>
<path d="M269.784 201.557C273.201 202.882 274.409 207.311 272.455 210.699L267.25 219.684C264.619 224.241 258.658 224.319 255.918 219.841" stroke="#F69050" stroke-width="0.5892" stroke-miterlimit="10"/>
<path d="M251.636 206.359L259.158 202.548L256.899 211.612L265.894 206.093" stroke="#F69050" stroke-width="0.5892" stroke-miterlimit="10" stroke-linejoin="round"/>
<path d="M259.757 215.246L262.094 204.689L254.425 208.47L255.603 201.458" stroke="#F69050" stroke-width="0.5892" stroke-miterlimit="10" stroke-linejoin="round"/>
<path d="M265.621 119.01C265.582 119.638 265.307 120.198 264.875 120.601C264.443 121.003 263.873 121.249 263.245 121.249H261.075L260.937 123.537C260.819 125.422 258.944 127.347 256.989 127.347H251.5C249.556 127.347 247.67 125.422 247.552 123.537L247.415 121.249H245.215C244.587 121.249 244.007 121.003 243.585 120.601C243.153 120.198 242.878 119.638 242.839 119C242.76 117.625 243.89 116.486 245.264 116.486H247.12L246.914 113C246.875 112.263 247.454 111.645 248.191 111.645H260.309C261.045 111.645 261.625 112.263 261.585 113L261.379 116.486H263.255C264.61 116.496 265.7 117.645 265.621 119.01Z" fill="#A0505A"/>
<path d="M261.369 116.486H263.342C263.342 116.486 265.228 109.641 263.411 107.884C261.594 106.126 250.439 102.08 246.835 104.604C244.203 106.45 245.637 116.486 245.637 116.486H247.09C247.09 116.486 252.953 112.283 253.876 112.646C254.799 113.01 251.224 114.777 251.941 115.121C254.622 116.407 259.444 111.743 260.553 111.743C261.663 111.743 261.369 116.486 261.369 116.486Z" fill="#E0712C"/>
<path d="M258.883 118.185C258.883 118.185 257.597 117.144 255.947 117.821" stroke="#E0712C" stroke-width="0.3928" stroke-miterlimit="10" stroke-linecap="round"/>
<path d="M256.252 123.782C256.252 123.782 255.545 125.294 253.404 124.509" stroke="#E0712C" stroke-width="0.3928" stroke-miterlimit="10" stroke-linecap="round"/>
<path d="M249.103 117.841C249.103 117.841 251.705 117.262 252.49 118.872C252.972 119.864 252.736 123.33 253.296 123.37C253.855 123.409 254.7 123.37 254.7 123.37" stroke="#E0712C" stroke-width="0.3928" stroke-miterlimit="10" stroke-linecap="round"/>
<path d="M257.126 120.856C257.38 120.856 257.587 120.513 257.587 120.09C257.587 119.667 257.38 119.324 257.126 119.324C256.871 119.324 256.664 119.667 256.664 120.09C256.664 120.513 256.871 120.856 257.126 120.856Z" fill="#E0712C"/>
<path d="M251.155 120.856C251.41 120.856 251.616 120.513 251.616 120.09C251.616 119.667 251.41 119.324 251.155 119.324C250.9 119.324 250.693 119.667 250.693 120.09C250.693 120.513 250.9 120.856 251.155 120.856Z" fill="#E0712C"/>
<path d="M246.638 119.363C246.579 118.401 245.784 117.655 244.821 117.655" stroke="#E0712C" stroke-width="0.3928" stroke-miterlimit="10" stroke-linecap="round"/>
<path d="M261.712 119.412C261.771 118.391 262.615 117.596 263.627 117.596" stroke="#E0712C" stroke-width="0.3928" stroke-miterlimit="10" stroke-linecap="round"/>
<path d="M116.524 138.424C116.524 137.785 116.494 137.167 116.445 136.587C115.846 136.322 112.066 134.506 111.113 131.236C111.113 131.236 108.246 137.039 103.984 136.371C103.974 136.371 103.964 136.371 103.954 136.362C103.954 136.362 103.954 136.362 103.944 136.362L102.913 135.831C102.894 135.821 102.884 135.812 102.864 135.812C101.696 135.252 100.35 135.979 100.115 137.196C99.8397 136.43 99.6433 135.615 99.5255 134.761C98.7694 129.046 101.922 124.263 107.156 124.263C111.928 124.263 116.514 128.751 117.241 133.494C117.535 135.291 117.231 136.97 116.524 138.424Z" fill="#F6C850"/>
<path d="M100.959 139.111C100.498 141.822 90.3829 138.041 88.1342 142.568C86.671 145.524 88.9296 149.088 82.576 149.393C75.0048 149.746 71.9312 153.89 73.1587 163.494L93.8396 152.525L99.6137 147.38L102.128 139.651L100.959 139.111Z" fill="#F6C850"/>
<path d="M112.744 145.494V148.185L106.351 152.054L99.6143 147.389L102.128 139.661L112.744 145.494Z" fill="#F5E4D4"/>
<path d="M103.286 140.27L106.35 152.054L112.743 148.185V145.494L103.286 140.27Z" fill="#626A7F"/>
<path d="M116.524 138.483C116.524 142.872 113.705 146.437 110.229 146.437C107.381 146.437 104.857 144.051 104.033 140.771L101.155 139.298C100.831 139.131 100.566 138.885 100.38 138.581C100.193 138.286 100.095 137.933 100.095 137.569C100.095 136.116 101.627 135.183 102.923 135.841L103.993 136.381V136.371C108.255 137.029 111.123 131.236 111.123 131.236C112.075 134.506 115.856 136.313 116.455 136.587C116.504 137.186 116.524 137.815 116.524 138.483Z" fill="#F5E4D4"/>
<path d="M116.505 137.569C116.505 137.569 114.924 136.912 113.952 137.894C112.744 139.111 113.009 142.607 113.009 142.607" stroke="#626A7F" stroke-width="0.3928" stroke-miterlimit="10" stroke-linecap="round"/>
<path d="M110.829 137.363C110.829 137.363 109.523 137.265 108.227 137.952" stroke="#626A7F" stroke-width="0.3928" stroke-miterlimit="10" stroke-linecap="round"/>
<path d="M103.1 138.335C102.992 137.687 102.521 137.157 101.893 136.961" stroke="#626A7F" stroke-width="0.3928" stroke-miterlimit="10" stroke-linecap="round"/>
<path d="M110.399 139.73C110.51 139.321 110.4 138.936 110.154 138.87C109.908 138.803 109.619 139.08 109.508 139.488C109.397 139.897 109.507 140.282 109.753 140.348C109.999 140.415 110.288 140.138 110.399 139.73Z" fill="#626A7F"/>
<path d="M115.21 139.926C115.321 139.518 115.211 139.133 114.965 139.066C114.719 138.999 114.43 139.276 114.32 139.684C114.209 140.093 114.319 140.478 114.565 140.544C114.811 140.611 115.1 140.334 115.21 139.926Z" fill="#626A7F"/>
<path d="M112.528 143.786C112.528 143.786 110.829 144.237 110.338 142.804" stroke="#626A7F" stroke-width="0.3928" stroke-miterlimit="10" stroke-linecap="round"/>
<path d="M87.0428 152.555H125.292C130.536 152.555 135.298 155.648 137.419 160.45L144.647 175.318L79.7662 206.732L58.8594 197.776L70.2408 164.466C72.7547 157.327 79.4814 152.555 87.0428 152.555Z" fill="white" stroke="#F69050" stroke-width="0.491" stroke-miterlimit="10"/>
<path d="M104.974 159.115L101.802 157.239L106.201 152.231H106.516L110.974 156.905L107.881 158.781L121.157 186.139L95.9492 198.463L104.974 159.115Z" fill="#F69050"/>
<g opacity="0.2">
<g opacity="0.2">
<g opacity="0.2">
<path opacity="0.2" d="M99.7112 182.064V193.2H99.3184V183.773L99.7112 182.064Z" fill="white"/>
</g>
<g opacity="0.2">
<path opacity="0.2" d="M103.846 164.005V193.19H103.453V165.714L103.699 164.653L103.787 164.26L103.846 164.005Z" fill="white"/>
<path opacity="0.2" d="M103.846 154.902V158.447L103.453 158.221V155.353L103.846 154.902Z" fill="white"/>
</g>
<g opacity="0.2">
<path opacity="0.2" d="M107.989 153.782V192.581L107.597 192.768V153.37L107.989 153.782Z" fill="white"/>
</g>
<g opacity="0.2">
<path opacity="0.2" d="M112.134 167.54V190.548L111.741 190.745V166.735L112.134 167.54Z" fill="white"/>
</g>
<g opacity="0.2">
<path opacity="0.2" d="M116.278 176.074V188.525L115.885 188.722V175.259L116.278 176.074Z" fill="white"/>
</g>
<g opacity="0.2">
<path opacity="0.2" d="M120.412 184.607V186.502L120.02 186.689V183.802L120.412 184.607Z" fill="white"/>
</g>
</g>
<g opacity="0.2">
<g opacity="0.2">
<path opacity="0.2" d="M106.624 193.249L105.819 193.642H97.0596L97.148 193.249H106.624Z" fill="white"/>
</g>
<g opacity="0.2">
<path opacity="0.2" d="M115.09 189.105L114.284 189.498H98.0029L98.1011 189.105H115.09Z" fill="white"/>
</g>
<g opacity="0.2">
<path opacity="0.2" d="M120.775 185.354H98.9551L99.0435 184.961H120.589L120.775 185.354Z" fill="white"/>
</g>
<g opacity="0.2">
<path opacity="0.2" d="M118.771 181.219H99.9072L99.9956 180.826H118.575L118.771 181.219Z" fill="white"/>
</g>
<g opacity="0.2">
<path opacity="0.2" d="M116.759 177.075H100.851L100.949 176.682H116.572L116.759 177.075Z" fill="white"/>
</g>
<g opacity="0.2">
<path opacity="0.2" d="M114.745 172.931H101.803L101.891 172.538H114.559L114.745 172.931Z" fill="white"/>
</g>
<g opacity="0.2">
<path opacity="0.2" d="M112.742 168.797H102.755L102.843 168.404H112.545L112.742 168.797Z" fill="white"/>
</g>
<g opacity="0.2">
<path opacity="0.2" d="M110.729 164.653H103.698L103.787 164.26H110.543L110.729 164.653Z" fill="white"/>
</g>
<g opacity="0.2">
<path opacity="0.2" d="M108.726 160.509H104.65L104.739 160.116H108.529L108.726 160.509Z" fill="white"/>
</g>
<g opacity="0.2">
<path opacity="0.2" d="M110.464 156.375H102.559L102.902 155.982H110.091L110.464 156.375Z" fill="white"/>
</g>
</g>
</g>
<path d="M85.6772 173.864L82.5938 184.273" stroke="#F69050" stroke-width="0.491" stroke-miterlimit="10"/>
<path d="M118.142 152.535L110.866 156.699L106.516 152.231H106.201L101.9 157.043L93.8379 152.535L99.7102 147.389L106.349 152.054L112.741 148.185L118.142 152.535Z" fill="white" stroke="#F69050" stroke-width="0.491" stroke-miterlimit="10" stroke-linejoin="round"/>
<path d="M157.089 164.732L149.469 188.948H103.118L110.738 164.732H157.089Z" fill="#88BFBF"/>
<path d="M127.767 188.948L135.387 164.732" stroke="white" stroke-width="0.5892" stroke-miterlimit="10"/>
<path d="M111.612 164.732C111.612 164.732 117.416 161.285 125.822 161.815C134.228 162.336 135.406 164.732 135.406 164.732H111.612Z" fill="white" stroke="#88BFBF" stroke-width="0.491" stroke-miterlimit="10" stroke-linecap="round"/>
<path d="M155.41 164.732C155.41 164.732 144.47 159.9 135.406 164.732H155.41Z" fill="white" stroke="#88BFBF" stroke-width="0.491" stroke-miterlimit="10" stroke-linecap="round"/>
<path d="M134.199 214.264L111.672 232.057C108.981 234.179 108.628 238.126 110.896 240.689L126.373 258.247C126.373 258.247 127.846 257.157 127.355 252.778C126.667 246.719 128.337 241.053 128.337 241.053L161.675 217.278C166.831 213.606 169.934 207.694 170.022 201.36C170.15 192.758 159.721 188.398 153.682 194.516L134.199 214.264Z" fill="#F5E4D4"/>
<path d="M128.326 241.043C128.326 241.043 126.667 246.709 127.344 252.768C127.835 257.157 126.362 258.247 126.362 258.247L110.886 240.689C108.618 238.116 108.981 234.179 111.662 232.057L118.889 226.342C119.106 226.185 119.322 226.018 119.538 225.851L128.729 218.584L134.189 214.264C134.189 214.264 133.885 221.442 137.263 234.67L128.326 241.043Z" fill="white" stroke="#626A7F" stroke-width="0.5892" stroke-miterlimit="10" stroke-linecap="round"/>
<path d="M127.708 253.357C127.895 255.056 127.777 256.283 127.551 257.148C127.502 257.354 127.443 257.531 127.374 257.698C126.991 258.709 126.49 259.043 126.49 259.043L110.444 240.846C108.363 238.48 108.421 234.994 110.415 232.706C110.66 232.421 110.945 232.146 111.259 231.9L111.78 231.488L116.297 227.923C116.002 229.887 117.269 233.177 119.705 236.28C122.788 240.208 126.883 242.3 128.67 241.22C128.385 242.26 127.079 247.75 127.708 253.357Z" fill="#F6C850"/>
<path d="M127.56 257.148C127.511 257.354 127.452 257.531 127.384 257.698L111.456 239.629C110.277 238.293 109.717 236.575 109.875 234.797C109.943 234.061 110.13 233.344 110.425 232.696C110.67 232.411 110.955 232.136 111.269 231.891L111.789 231.478C110.974 232.411 110.474 233.57 110.366 234.837C110.218 236.477 110.739 238.067 111.829 239.305L127.56 257.148Z" fill="white"/>
<path d="M128.022 244.205C128.022 244.205 123.702 242.486 123.122 244.205C122.553 245.923 127.698 247.013 127.698 247.013L128.022 244.205Z" fill="white"/>
<path d="M155.608 190.961V244.765C149.352 251.118 141.045 247.701 141.045 247.701C133.709 226.588 134.2 214.863 134.2 214.863L128.74 219.174C114.776 210.453 113.637 190.391 113.607 189.91L136.36 178.902C145.267 174.591 155.608 181.072 155.608 190.961Z" fill="#F5E4D4"/>
<path d="M136.369 178.892C145.266 174.591 155.606 181.072 155.606 190.951V244.755C149.351 251.108 141.043 247.691 141.043 247.691C133.718 226.578 134.199 214.843 134.199 214.843" stroke="#626A7F" stroke-width="0.5892" stroke-miterlimit="10" stroke-linecap="round"/>
<path d="M128.739 219.164L119.548 226.431C103.07 239.462 78.834 227.727 78.834 206.722L113.607 189.89C113.607 189.89 113.607 189.89 113.607 189.9C113.636 190.391 114.785 210.454 128.739 219.164Z" fill="#F69050"/>
<g opacity="0.2">
<g opacity="0.2">
<g opacity="0.2">
<path opacity="0.2" d="M83.175 204.63V220.941C83.0375 220.745 82.9099 220.549 82.7822 220.352V204.817L83.175 204.63Z" fill="white"/>
</g>
<g opacity="0.2">
<path opacity="0.2" d="M87.3186 202.627V225.576C87.1909 225.458 87.0534 225.341 86.9258 225.223V202.814L87.3186 202.627Z" fill="white"/>
</g>
<g opacity="0.2">
<path opacity="0.2" d="M91.4533 200.624V228.522C91.3257 228.444 91.1882 228.375 91.0605 228.296V200.81L91.4533 200.624Z" fill="white"/>
</g>
<g opacity="0.2">
<path opacity="0.2" d="M95.5979 198.62V230.427C95.4702 230.378 95.3327 230.339 95.2051 230.29V198.817L95.5979 198.62Z" fill="white"/>
</g>
<g opacity="0.2">
<path opacity="0.2" d="M99.7414 196.617V231.527C99.6138 231.508 99.4763 231.478 99.3486 231.459V196.814L99.7414 196.617Z" fill="white"/>
</g>
<g opacity="0.2">
<path opacity="0.2" d="M103.876 194.604V231.9C103.749 231.9 103.611 231.9 103.483 231.891V194.8L103.876 194.604Z" fill="white"/>
</g>
<g opacity="0.2">
<path opacity="0.2" d="M108.02 192.601V231.586C107.892 231.606 107.755 231.625 107.627 231.645V192.797L108.02 192.601Z" fill="white"/>
</g>
<g opacity="0.2">
<path opacity="0.2" d="M112.164 190.598V230.535C112.037 230.585 111.899 230.624 111.771 230.673V190.794L112.164 190.598Z" fill="white"/>
</g>
<g opacity="0.2">
<path opacity="0.2" d="M116.298 202.47V228.64C116.17 228.719 116.033 228.788 115.905 228.856V201.321C115.925 201.39 115.945 201.458 115.974 201.517C116.013 201.645 116.062 201.783 116.102 201.91C116.17 202.097 116.239 202.283 116.298 202.47Z" fill="white"/>
</g>
<g opacity="0.2">
<path opacity="0.2" d="M120.442 210.915V225.733L120.049 226.048V210.306C120.176 210.503 120.304 210.709 120.442 210.915Z" fill="white"/>
</g>
<g opacity="0.2">
<path opacity="0.2" d="M124.586 215.923V222.621H124.38L124.193 222.768V215.531C124.321 215.668 124.449 215.796 124.586 215.923Z" fill="white"/>
</g>
</g>
<g opacity="0.2">
<g opacity="0.2">
<path opacity="0.2" d="M112.232 230.506C112.202 230.516 112.182 230.526 112.153 230.535C112.025 230.585 111.888 230.624 111.76 230.673C111.515 230.751 111.269 230.83 111.014 230.909H97.0498C96.6374 230.791 96.2249 230.653 95.8125 230.516H112.232V230.506Z" fill="white"/>
</g>
<g opacity="0.2">
<path opacity="0.2" d="M119.636 226.362L119.547 226.431C119.41 226.539 119.272 226.647 119.135 226.755H88.7714C88.5946 226.627 88.4277 226.499 88.2607 226.362H119.636Z" fill="white"/>
</g>
<g opacity="0.2">
<path opacity="0.2" d="M124.87 222.228L124.576 222.454V222.621H84.4314C84.3234 222.493 84.2154 222.355 84.1172 222.228H124.87Z" fill="white"/>
</g>
<g opacity="0.2">
<path opacity="0.2" d="M127.698 218.476H81.6916C81.6228 218.349 81.5541 218.211 81.4854 218.084H127.148C127.325 218.221 127.512 218.349 127.698 218.476Z" fill="white"/>
</g>
<g opacity="0.2">
<path opacity="0.2" d="M123.063 214.332H79.9733C79.934 214.205 79.8947 214.067 79.8555 213.94H122.73C122.828 214.077 122.946 214.205 123.063 214.332Z" fill="white"/>
</g>
<g opacity="0.2">
<path opacity="0.2" d="M119.98 210.198H79.0598C79.0402 210.071 79.0304 209.933 79.0107 209.805H119.734C119.823 209.933 119.901 210.061 119.98 210.198Z" fill="white"/>
</g>
<g opacity="0.2">
<path opacity="0.2" d="M117.76 206.054H80.2383L81.0533 205.661H117.584C117.633 205.789 117.692 205.927 117.76 206.054Z" fill="white"/>
</g>
<g opacity="0.2">
<path opacity="0.2" d="M116.111 201.91H88.792L89.6071 201.517H115.984C116.013 201.655 116.062 201.782 116.111 201.91Z" fill="white"/>
</g>
<g opacity="0.2">
<path opacity="0.2" d="M114.893 197.776H97.335L98.15 197.383H114.795C114.834 197.511 114.864 197.638 114.893 197.776Z" fill="white"/>
</g>
<g opacity="0.2">
<path opacity="0.2" d="M114.048 193.632H105.888L106.703 193.239H113.989C114.009 193.367 114.028 193.494 114.048 193.632Z" fill="white"/>
</g>
</g>
</g>
<path d="M113.607 189.9C113.637 190.391 114.776 210.454 128.74 219.174" stroke="white" stroke-width="0.5892" stroke-miterlimit="10"/>
<path d="M155.607 225.537V244.765C149.352 251.118 141.044 247.701 141.044 247.701C137.833 238.45 136.124 230.997 135.211 225.547H155.607V225.537Z" fill="white"/>
<path d="M141.034 247.691C137.823 238.44 136.114 230.987 135.201 225.537H155.597V244.765" stroke="#626A7F" stroke-width="0.5892" stroke-miterlimit="10" stroke-linecap="round"/>
<path d="M170.268 258.837H141.25C139.895 258.837 138.863 257.629 139.079 256.293L139.129 255.999L139.305 254.938L140.562 247.239C140.562 247.239 149.41 250.804 155.931 244.185C155.931 244.185 157.973 249.449 166.497 253.318C168.5 254.231 169.443 255.586 169.885 256.735C169.954 256.902 170.003 257.069 170.052 257.226C170.317 258.149 170.268 258.837 170.268 258.837Z" fill="#F6C850"/>
<path d="M170.051 257.216H141.249C140.532 257.216 139.855 256.902 139.393 256.352C139.295 256.234 139.206 256.116 139.138 255.989L139.314 254.928C139.344 255.331 139.501 255.724 139.776 256.038C140.149 256.47 140.689 256.725 141.259 256.725H169.894C169.953 256.892 170.012 257.059 170.051 257.216Z" fill="white"/>
<path d="M160.428 249.635C157.207 251.933 152.248 251.275 151.914 250.283C151.57 249.301 156.716 248.584 157.393 246.542C158.11 247.436 159.033 248.516 160.428 249.635Z" fill="white"/>
<path d="M134.2 214.853C134.2 203.314 137.244 196.617 137.244 196.617" stroke="#626A7F" stroke-width="0.5892" stroke-miterlimit="10" stroke-linecap="round"/>
<path d="M106.35 178.686L66.0482 188.162C60.9418 189.36 57.3379 193.917 57.3379 199.16C57.3379 207.498 66.0679 212.967 73.5704 209.324L112.566 190.391C113.233 190.067 113.764 189.498 114.029 188.8L118.35 177.714C118.526 177.272 118.153 176.8 117.672 176.869L116.985 176.967C115.895 177.124 114.913 177.723 114.274 178.627L112.516 181.259C112.192 181.74 111.652 182.025 111.073 182.025H106.958C106.124 182.025 105.525 181.21 105.78 180.414L106.35 178.686Z" fill="#F5E4D4"/>
<path d="M105.957 178.784L66.0482 188.26C60.9418 189.458 57.3379 194.015 57.3379 199.259C57.3379 207.596 66.0679 213.066 73.5704 209.422L112.566 190.489C113.233 190.165 113.764 189.596 114.029 188.899L118.35 177.812C118.526 177.37 118.153 176.899 117.672 176.967L116.985 177.065C115.895 177.223 114.913 177.822 114.274 178.725L112.516 181.357C112.192 181.838 111.652 182.123 111.073 182.123H106.566C105.731 182.123 105.132 181.308 105.387 180.512L105.957 178.784Z" stroke="white" stroke-width="0.5892" stroke-miterlimit="10"/>
<path d="M107.548 185.265H113.568C114.559 185.265 115.463 184.725 115.944 183.851" stroke="white" stroke-width="0.491" stroke-miterlimit="10" stroke-linecap="round"/>
<path d="M106.173 188.8H112.193C113.184 188.8 114.088 188.26 114.569 187.386" stroke="white" stroke-width="0.491" stroke-miterlimit="10" stroke-linecap="round"/>
</svg>
