<svg width="253" height="283" viewBox="0 0 253 283" fill="none" xmlns="http://www.w3.org/2000/svg">
<path d="M146.771 219.136L145.111 223.663L137.442 244.54C134.564 246.573 130.931 247.879 126.856 247.879C126.374 247.879 125.795 247.761 125.304 247.732C121.042 247.437 116.957 245.571 114.129 243.195L116.417 218.017L116.584 216.19C128.947 220.982 143.363 220.177 146.771 219.136Z" fill="#A0505A"/>
<path d="M146.771 219.136L143.52 227.974C133.602 229.319 119.068 221.208 116.427 218.017L116.594 216.19C128.947 220.982 143.363 220.177 146.771 219.136Z" fill="#E0712C"/>
<path d="M137.599 244.511L135.252 269.09C134.83 275.572 129.861 280.531 123.969 280.531C123.704 280.531 123.439 280.521 123.164 280.501C116.919 280.03 112.215 274.148 112.657 267.372L114.081 245.65L114.228 243.323C115.485 244.501 116.948 245.513 118.568 246.298C120.601 247.28 122.869 247.918 125.295 248.105C125.786 248.144 126.267 248.164 126.748 248.164C128.143 248.164 129.508 248.007 130.804 247.712C130.843 247.702 130.892 247.693 130.932 247.683C133.357 247.113 135.577 246.062 137.423 244.639C137.491 244.599 137.55 244.56 137.599 244.511Z" fill="white" stroke="#F6C850" stroke-width="0.491" stroke-miterlimit="10"/>
<path d="M135.35 246.004L133.691 265.673C133.337 271.153 129.134 275.346 124.146 275.346C123.92 275.346 123.694 275.336 123.468 275.316C118.195 274.914 114.208 269.945 114.581 264.21L115.887 244.639" stroke="#F6C850" stroke-width="0.491" stroke-miterlimit="10"/>
<path d="M130.912 247.467C129.615 247.732 128.152 247.781 126.758 247.781C126.277 247.781 125.795 247.761 125.304 247.732C122.879 247.565 120.601 246.976 118.578 246.072L117.93 242.891C117.517 241.535 118.548 240.17 119.972 240.22L129.399 240.494C130.597 240.524 131.511 241.565 131.403 242.753L130.912 247.467Z" fill="#F6C850"/>
<path d="M130.814 247.369L129.626 262.305C129.419 265.202 126.67 267.342 124.077 266.871L123.871 266.851C120.179 266.174 117.351 262.324 117.832 258.2L118.578 246.062C120.611 246.966 122.879 247.555 125.305 247.722C125.796 247.761 126.277 247.771 126.758 247.771C128.153 247.781 129.518 247.634 130.814 247.369Z" fill="#F6C850"/>
<path d="M129.371 263.552L118.618 261.097C117.528 260.851 117.606 259.27 118.726 259.133L129.007 257.925C130.235 257.778 130.402 256.059 129.223 255.686L119.374 252.563C117.872 252.082 117.989 249.922 119.541 249.607L130.824 247.653C130.824 247.653 122.399 248.39 118.588 246.288" stroke="white" stroke-width="0.491" stroke-miterlimit="10" stroke-linecap="round" stroke-linejoin="round"/>
<path d="M167.058 163.898L146.77 219.136C143.362 220.177 127.287 221.552 111.595 214.275L123.938 157.172C125.087 148.53 132.452 142.069 141.182 142.069H150.256C161.657 142.059 169.984 152.861 167.058 163.898Z" fill="#F69050"/>
<path d="M149.126 213.244C145.719 214.285 128.269 215.562 112.576 208.285" stroke="white" stroke-width="0.5892" stroke-miterlimit="10" stroke-linecap="round"/>
<path d="M173.824 220.226L171.782 223.85L158.711 246.72C153.673 248.714 147.732 249.45 142.41 248.331L141.742 248.144C139.11 247.594 136.42 246.121 134.515 244.472L144.05 218.989C144.05 218.989 144.06 218.989 144.07 218.989C147.359 220.079 158.672 223.143 173.824 220.226Z" fill="#A0505A"/>
<path d="M173.824 220.226L169.513 227.817C152.917 230.468 143.51 220.481 143.51 220.481L144.06 218.999C147.359 220.079 158.672 223.143 173.824 220.226Z" fill="#E0712C"/>
<path d="M201.792 172.658L179.157 219.165C159.998 223.958 147.331 220.079 144.061 218.999L167.746 155.65C169.367 151.81 172.057 148.638 175.386 146.429C178.715 144.219 182.683 142.972 186.846 142.972C202.617 142.972 209.413 158.841 201.792 172.658Z" fill="#F69050"/>
<path d="M181.699 214.157C162.541 218.949 149.48 215.071 146.21 213.99" stroke="white" stroke-width="0.5892" stroke-miterlimit="10" stroke-linecap="round"/>
<path d="M167.745 155.65L132.934 249.49" stroke="white" stroke-width="0.5892" stroke-miterlimit="10"/>
<path d="M158.514 246.789L157.749 248.802L149.068 271.516C146.583 279.303 138.413 283.928 131.235 282.151L130.842 282.023C125.804 280.776 122.603 274.707 124.577 269.346L134.495 245.11L134.701 244.609C135.948 245.729 137.401 246.652 139.022 247.319C139.886 247.673 140.799 247.958 141.752 248.164L142.419 248.351C145.238 248.94 148.145 249.048 151.012 248.714C153.585 248.4 156.118 247.752 158.514 246.789Z" fill="white" stroke="#F6C850" stroke-width="0.491" stroke-miterlimit="10"/>
<path d="M155.706 247.84L148.095 267.951C146.014 274.472 139.169 278.351 133.159 276.858L132.835 276.75C128.613 275.699 125.932 270.622 127.582 266.125L135.987 245.719" stroke="#F6C850" stroke-width="0.491" stroke-miterlimit="10" stroke-linecap="round"/>
<path d="M152.789 245.67L151.002 248.694C148.144 249.028 145.238 248.92 142.409 248.331L141.742 248.144C140.789 247.948 139.876 247.663 139.012 247.3L139.719 242.39C139.886 241.211 141.025 240.416 142.193 240.661L151.424 242.596C152.819 242.881 153.516 244.452 152.789 245.67Z" fill="#F6C850"/>
<path d="M151.002 248.694L150.953 248.773L146.337 260.969C145.071 264.927 140.927 267.274 137.274 266.37L137.077 266.302C134.514 265.663 132.884 262.58 133.896 259.86L138.992 247.486L139.022 247.3C139.886 247.653 140.799 247.938 141.752 248.144L142.419 248.331C145.238 248.93 148.144 249.028 151.002 248.694Z" fill="#F6C850"/>
<path d="M133.602 262.03L144.207 263.179C145.513 263.316 146.063 261.549 144.904 260.93L136.646 256.521C135.516 255.922 135.988 254.213 137.264 254.272L147.693 254.743C149.098 254.812 149.608 252.927 148.371 252.269L139.012 247.28C139.012 247.28 143.834 249.549 150.973 248.665" stroke="white" stroke-width="0.491" stroke-miterlimit="10" stroke-linecap="round" stroke-linejoin="round"/>
<path d="M108.708 144.985C148.7 144.985 181.12 112.565 181.12 72.5725C181.12 32.5801 148.7 0.159801 108.708 0.159801C68.7152 0.159801 36.2949 32.5801 36.2949 72.5725C36.2949 112.565 68.7152 144.985 108.708 144.985Z" fill="#D0F0E4"/>
<path d="M84.4515 144.995C54.1765 134.861 32.3564 106.265 32.3564 72.5725" stroke="#F6C850" stroke-width="0.6874" stroke-miterlimit="10"/>
<path d="M108.707 119.345C134.539 119.345 155.48 98.4043 155.48 72.5725C155.48 46.7407 134.539 25.7998 108.707 25.7998C82.8754 25.7998 61.9346 46.7407 61.9346 72.5725C61.9346 98.4043 82.8754 119.345 108.707 119.345Z" stroke="white" stroke-width="0.982" stroke-miterlimit="10" stroke-linecap="round" stroke-dasharray="2.95 2.95"/>
<path d="M108.707 25.8096V33.5969" stroke="white" stroke-width="1.473" stroke-miterlimit="10" stroke-linecap="round"/>
<path d="M108.707 111.548V119.345" stroke="white" stroke-width="1.473" stroke-miterlimit="10" stroke-linecap="round"/>
<path d="M75.6338 39.4987L81.1428 45.0176" stroke="white" stroke-width="1.473" stroke-miterlimit="10" stroke-linecap="round"/>
<path d="M136.263 100.137L141.772 105.646" stroke="white" stroke-width="1.473" stroke-miterlimit="10" stroke-linecap="round"/>
<path d="M61.9346 72.5725H69.7317" stroke="white" stroke-width="1.473" stroke-miterlimit="10" stroke-linecap="round"/>
<path d="M147.683 72.5725H155.47" stroke="white" stroke-width="1.473" stroke-miterlimit="10" stroke-linecap="round"/>
<path d="M75.6338 105.646L81.1428 100.137" stroke="white" stroke-width="1.473" stroke-miterlimit="10" stroke-linecap="round"/>
<path d="M136.263 45.0176L141.772 39.4987" stroke="white" stroke-width="1.473" stroke-miterlimit="10" stroke-linecap="round"/>
<path d="M108.707 122.291C102 122.291 95.4892 120.975 89.3517 118.383C83.4303 115.879 78.1176 112.294 73.5513 107.728C68.985 103.162 65.4007 97.8492 62.8966 91.9277C60.3042 85.8 58.9883 79.2894 58.9883 72.5725C58.9883 58.795 64.3304 46.1469 73.9441 37.4169L77.9016 41.777C73.8067 45.4987 70.7919 49.5839 68.4548 55.0634C66.1078 60.5724 64.8705 66.6216 64.8705 72.5627C64.8705 78.4841 66.0292 84.219 68.3173 89.62C70.5268 94.8344 73.6888 99.5284 77.715 103.555C81.7412 107.581 86.4254 110.743 91.6496 112.943C97.0506 115.231 102.785 116.389 108.707 116.389C114.628 116.389 120.363 115.231 125.764 112.943C130.979 110.733 135.673 107.571 139.699 103.555C143.725 99.5284 146.887 94.8442 149.097 89.62C151.385 84.219 152.543 78.4841 152.543 72.5627C152.543 66.6707 151.345 60.9456 148.979 55.5348C146.701 50.3302 143.44 45.6362 139.296 41.6002C135.162 37.574 130.37 34.4021 125.047 32.1828C119.558 29.8948 114.648 28.9324 108.727 28.9324V23.0404C115.434 23.0404 121.11 24.1599 127.316 26.7425C133.326 29.2466 138.737 32.8211 143.411 37.3776C148.105 41.9537 151.797 47.2663 154.38 53.1682C157.07 59.3253 158.445 65.8458 158.445 72.5528C158.445 79.2599 157.129 85.7706 154.537 91.9081C152.033 97.8295 148.448 103.142 143.882 107.708C139.316 112.275 134.003 115.859 128.082 118.363C121.925 120.975 115.414 122.291 108.707 122.291Z" fill="#D0F0E4" stroke="white" stroke-width="1.473" stroke-miterlimit="10" stroke-linecap="round" stroke-linejoin="round"/>
<path d="M84.1963 47.6002L115.061 79.2599" stroke="#F69050" stroke-width="0.6874" stroke-miterlimit="10" stroke-linecap="round"/>
<path d="M109.041 75.3417C110.391 75.3417 111.486 74.247 111.486 72.8965C111.486 71.5461 110.391 70.4514 109.041 70.4514C107.69 70.4514 106.596 71.5461 106.596 72.8965C106.596 74.247 107.69 75.3417 109.041 75.3417Z" fill="#D0F0E4" stroke="white" stroke-width="1.473" stroke-miterlimit="10" stroke-linecap="round"/>
<path d="M122.377 20.8702L122.819 17.718C123.035 16.2646 124.498 15.3415 125.902 15.7736L128.986 16.7065C130.39 17.1288 131.097 18.7098 130.469 20.0453L128.976 23.0502" stroke="white" stroke-width="1.473" stroke-miterlimit="10" stroke-linecap="round"/>
<path d="M101.333 282.514V155.984H215.864V282.514" stroke="#88BFBF" stroke-width="0.5892" stroke-miterlimit="10"/>
<path d="M219.919 160.216H97.2768C94.5076 160.216 92.2588 157.967 92.2588 155.198V136.078C92.2588 133.309 94.5076 131.06 97.2768 131.06H219.919C222.688 131.06 224.937 133.309 224.937 136.078V155.198C224.937 157.967 222.688 160.216 219.919 160.216Z" fill="white" stroke="#88BFBF" stroke-width="0.5892" stroke-miterlimit="10"/>
<path d="M220.214 156.779H96.9829C94.2136 156.779 91.9648 154.53 91.9648 151.761V132.641C91.9648 129.872 94.2136 127.623 96.9829 127.623H220.214C222.983 127.623 225.232 129.872 225.232 132.641V151.761C225.232 154.53 222.983 156.779 220.214 156.779Z" fill="#88BFBF"/>
<path d="M219.447 233.326V218.341C219.447 213.234 223.591 209.09 228.698 209.09C233.804 209.09 237.948 213.234 237.948 218.341V233.326" stroke="#F6C850" stroke-width="0.5892" stroke-miterlimit="10"/>
<path d="M210.305 282.603H244.763C248.78 282.603 252.04 279.342 252.04 275.326V227.326C252.04 223.309 248.78 220.049 244.763 220.049H210.305C206.289 220.049 203.028 223.309 203.028 227.326V275.326C203.028 279.352 206.289 282.603 210.305 282.603Z" fill="#88BFBF"/>
<path d="M252.03 231.195C252.03 226.599 248.298 222.868 243.703 222.868H216.855C212.259 222.868 208.527 226.599 208.527 231.195V264.367" stroke="white" stroke-width="0.5892" stroke-miterlimit="10"/>
<path d="M244.871 282.603H221.372C217.414 282.603 214.213 279.401 214.213 275.444V232.697C214.213 228.74 217.414 225.539 221.372 225.539H244.871C248.828 225.539 252.03 228.74 252.03 232.697V275.444C252.03 279.401 248.828 282.603 244.871 282.603Z" fill="white" stroke="#F6C850" stroke-width="0.5892" stroke-miterlimit="10"/>
<path d="M224.622 236.694V221.709C224.622 216.602 228.766 212.458 233.873 212.458C238.979 212.458 243.123 216.602 243.123 221.709V236.694" stroke="#F6C850" stroke-width="0.5892" stroke-miterlimit="10"/>
<path d="M244.792 276.976H221.676C219.8 276.976 218.278 275.454 218.278 273.578V255.912C218.278 254.036 219.8 252.514 221.676 252.514H244.792C246.668 252.514 248.19 254.036 248.19 255.912V273.578C248.2 275.454 246.678 276.976 244.792 276.976Z" fill="#F6C850"/>
<path d="M209.999 264.367H207.093" stroke="#F6C850" stroke-width="0.5892" stroke-miterlimit="10"/>
<path d="M203.48 233.64C203.48 247.958 187.827 269.198 193.218 276.004C198.363 282.495 203.48 275.994 203.48 275.994V233.64Z" fill="white" stroke="#88BFBF" stroke-width="0.5892" stroke-miterlimit="10"/>
<path d="M220.124 259.074H246.098" stroke="white" stroke-width="0.491" stroke-miterlimit="10" stroke-linecap="round"/>
<path d="M226.487 236.4H222.756V238.187H226.487V236.4Z" stroke="#F6C850" stroke-width="0.5892" stroke-miterlimit="10"/>
<path d="M244.92 236.4H241.188V238.187H244.92V236.4Z" stroke="#F6C850" stroke-width="0.5892" stroke-miterlimit="10"/>
<path d="M220.125 260.272V259.074" stroke="white" stroke-width="0.491" stroke-miterlimit="10" stroke-linecap="round"/>
<path d="M222.482 260.272V259.074" stroke="white" stroke-width="0.491" stroke-miterlimit="10" stroke-linecap="round"/>
<path d="M224.849 260.272V259.074" stroke="white" stroke-width="0.491" stroke-miterlimit="10" stroke-linecap="round"/>
<path d="M227.205 260.272V259.074" stroke="white" stroke-width="0.491" stroke-miterlimit="10" stroke-linecap="round"/>
<path d="M229.571 260.272V259.074" stroke="white" stroke-width="0.491" stroke-miterlimit="10" stroke-linecap="round"/>
<path d="M231.929 260.272V259.074" stroke="white" stroke-width="0.491" stroke-miterlimit="10" stroke-linecap="round"/>
<path d="M234.403 260.272V259.074" stroke="white" stroke-width="0.491" stroke-miterlimit="10" stroke-linecap="round"/>
<path d="M236.771 260.272V259.074" stroke="white" stroke-width="0.491" stroke-miterlimit="10" stroke-linecap="round"/>
<path d="M239.019 260.272V259.074" stroke="white" stroke-width="0.491" stroke-miterlimit="10" stroke-linecap="round"/>
<path d="M241.376 260.272V259.074" stroke="white" stroke-width="0.491" stroke-miterlimit="10" stroke-linecap="round"/>
<path d="M243.742 260.272V259.074" stroke="white" stroke-width="0.491" stroke-miterlimit="10" stroke-linecap="round"/>
<path d="M246.099 260.272V259.074" stroke="white" stroke-width="0.491" stroke-miterlimit="10" stroke-linecap="round"/>
<path d="M222.864 264.367C222.225 264.367 221.744 263.807 221.823 263.179L222.343 259.064H223.384L223.905 263.179C223.993 263.807 223.502 264.367 222.864 264.367Z" fill="white" stroke="#88BFBF" stroke-width="0.5892" stroke-miterlimit="10"/>
<path d="M184.224 127.614H140.279V150.858H184.224V127.614Z" fill="white"/>
<path d="M179.078 145.898C179.583 145.898 179.992 145.49 179.992 144.985C179.992 144.481 179.583 144.072 179.078 144.072C178.574 144.072 178.165 144.481 178.165 144.985C178.165 145.49 178.574 145.898 179.078 145.898Z" fill="#F69050" stroke="#F69050" stroke-width="0.491" stroke-miterlimit="10"/>
<path d="M175.7 145.898C176.205 145.898 176.614 145.49 176.614 144.985C176.614 144.481 176.205 144.072 175.7 144.072C175.196 144.072 174.787 144.481 174.787 144.985C174.787 145.49 175.196 145.898 175.7 145.898Z" fill="white" stroke="#F69050" stroke-width="0.491" stroke-miterlimit="10"/>
<path d="M172.332 145.898C172.837 145.898 173.245 145.49 173.245 144.985C173.245 144.481 172.837 144.072 172.332 144.072C171.828 144.072 171.419 144.481 171.419 144.985C171.419 145.49 171.828 145.898 172.332 145.898Z" fill="white" stroke="#F69050" stroke-width="0.491" stroke-miterlimit="10"/>
<path d="M179.078 142.491C179.583 142.491 179.992 142.082 179.992 141.578C179.992 141.073 179.583 140.664 179.078 140.664C178.574 140.664 178.165 141.073 178.165 141.578C178.165 142.082 178.574 142.491 179.078 142.491Z" fill="#F69050" stroke="#F69050" stroke-width="0.491" stroke-miterlimit="10"/>
<path d="M175.7 142.491C176.205 142.491 176.614 142.082 176.614 141.578C176.614 141.073 176.205 140.664 175.7 140.664C175.196 140.664 174.787 141.073 174.787 141.578C174.787 142.082 175.196 142.491 175.7 142.491Z" fill="white" stroke="#F69050" stroke-width="0.491" stroke-miterlimit="10"/>
<path d="M172.332 142.491C172.837 142.491 173.245 142.082 173.245 141.578C173.245 141.073 172.837 140.664 172.332 140.664C171.828 140.664 171.419 141.073 171.419 141.578C171.419 142.082 171.828 142.491 172.332 142.491Z" fill="white" stroke="#F69050" stroke-width="0.491" stroke-miterlimit="10"/>
<path d="M179.079 135.695C179.584 135.695 179.993 135.287 179.993 134.782C179.993 134.278 179.584 133.869 179.079 133.869C178.575 133.869 178.166 134.278 178.166 134.782C178.166 135.287 178.575 135.695 179.079 135.695Z" fill="white" stroke="#F69050" stroke-width="0.491" stroke-miterlimit="10"/>
<path d="M175.701 135.695C176.206 135.695 176.615 135.287 176.615 134.782C176.615 134.278 176.206 133.869 175.701 133.869C175.197 133.869 174.788 134.278 174.788 134.782C174.788 135.287 175.197 135.695 175.701 135.695Z" fill="#F69050" stroke="#F69050" stroke-width="0.491" stroke-miterlimit="10"/>
<path d="M172.333 135.695C172.838 135.695 173.246 135.287 173.246 134.782C173.246 134.278 172.838 133.869 172.333 133.869C171.829 133.869 171.42 134.278 171.42 134.782C171.42 135.287 171.829 135.695 172.333 135.695Z" fill="white" stroke="#F69050" stroke-width="0.491" stroke-miterlimit="10"/>
<path d="M179.079 139.093C179.584 139.093 179.993 138.684 179.993 138.18C179.993 137.676 179.584 137.267 179.079 137.267C178.575 137.267 178.166 137.676 178.166 138.18C178.166 138.684 178.575 139.093 179.079 139.093Z" fill="white" stroke="#F69050" stroke-width="0.491" stroke-miterlimit="10"/>
<path d="M175.701 139.093C176.206 139.093 176.615 138.684 176.615 138.18C176.615 137.676 176.206 137.267 175.701 137.267C175.197 137.267 174.788 137.676 174.788 138.18C174.788 138.684 175.197 139.093 175.701 139.093Z" fill="white" stroke="#F69050" stroke-width="0.491" stroke-miterlimit="10"/>
<path d="M172.333 139.093C172.838 139.093 173.246 138.684 173.246 138.18C173.246 137.676 172.838 137.267 172.333 137.267C171.829 137.267 171.42 137.676 171.42 138.18C171.42 138.684 171.829 139.093 172.333 139.093Z" fill="#F69050" stroke="#F69050" stroke-width="0.491" stroke-miterlimit="10"/>
<path d="M152.466 139.093C152.97 139.093 153.379 138.684 153.379 138.18C153.379 137.676 152.97 137.267 152.466 137.267C151.962 137.267 151.553 137.676 151.553 138.18C151.553 138.684 151.962 139.093 152.466 139.093Z" fill="#F69050" stroke="#F69050" stroke-width="0.491" stroke-miterlimit="10"/>
<path d="M149.088 139.093C149.592 139.093 150.001 138.684 150.001 138.18C150.001 137.676 149.592 137.267 149.088 137.267C148.584 137.267 148.175 137.676 148.175 138.18C148.175 138.684 148.584 139.093 149.088 139.093Z" fill="white" stroke="#F69050" stroke-width="0.491" stroke-miterlimit="10"/>
<path d="M145.718 132.298C146.222 132.298 146.631 131.889 146.631 131.384C146.631 130.88 146.222 130.471 145.718 130.471C145.214 130.471 144.805 130.88 144.805 131.384C144.805 131.889 145.214 132.298 145.718 132.298Z" fill="white" stroke="#F69050" stroke-width="0.491" stroke-miterlimit="10"/>
<path d="M152.464 135.695C152.968 135.695 153.377 135.287 153.377 134.782C153.377 134.278 152.968 133.869 152.464 133.869C151.96 133.869 151.551 134.278 151.551 134.782C151.551 135.287 151.96 135.695 152.464 135.695Z" fill="white" stroke="#F69050" stroke-width="0.491" stroke-miterlimit="10"/>
<path d="M149.086 135.695C149.59 135.695 149.999 135.287 149.999 134.782C149.999 134.278 149.59 133.869 149.086 133.869C148.582 133.869 148.173 134.278 148.173 134.782C148.173 135.287 148.582 135.695 149.086 135.695Z" fill="white" stroke="#F69050" stroke-width="0.491" stroke-miterlimit="10"/>
<path d="M145.718 135.695C146.222 135.695 146.631 135.287 146.631 134.782C146.631 134.278 146.222 133.869 145.718 133.869C145.214 133.869 144.805 134.278 144.805 134.782C144.805 135.287 145.214 135.695 145.718 135.695Z" fill="#F69050" stroke="#F69050" stroke-width="0.491" stroke-miterlimit="10"/>
<path d="M165.232 142.491C165.736 142.491 166.145 142.082 166.145 141.578C166.145 141.073 165.736 140.664 165.232 140.664C164.727 140.664 164.318 141.073 164.318 141.578C164.318 142.082 164.727 142.491 165.232 142.491Z" fill="white" stroke="#F69050" stroke-width="0.491" stroke-miterlimit="10"/>
<path d="M161.854 142.491C162.358 142.491 162.767 142.082 162.767 141.578C162.767 141.073 162.358 140.664 161.854 140.664C161.349 140.664 160.94 141.073 160.94 141.578C160.94 142.082 161.349 142.491 161.854 142.491Z" fill="white" stroke="#F69050" stroke-width="0.491" stroke-miterlimit="10"/>
<path d="M158.486 142.491C158.99 142.491 159.399 142.082 159.399 141.578C159.399 141.073 158.99 140.664 158.486 140.664C157.981 140.664 157.572 141.073 157.572 141.578C157.572 142.082 157.981 142.491 158.486 142.491Z" fill="#F69050" stroke="#F69050" stroke-width="0.491" stroke-miterlimit="10"/>
<path d="M165.232 135.695C165.736 135.695 166.145 135.287 166.145 134.782C166.145 134.278 165.736 133.869 165.232 133.869C164.727 133.869 164.318 134.278 164.318 134.782C164.318 135.287 164.727 135.695 165.232 135.695Z" fill="#F69050" stroke="#F69050" stroke-width="0.491" stroke-miterlimit="10"/>
<path d="M161.854 135.695C162.358 135.695 162.767 135.287 162.767 134.782C162.767 134.278 162.358 133.869 161.854 133.869C161.349 133.869 160.94 134.278 160.94 134.782C160.94 135.287 161.349 135.695 161.854 135.695Z" fill="white" stroke="#F69050" stroke-width="0.491" stroke-miterlimit="10"/>
<path d="M158.487 135.695C158.991 135.695 159.4 135.287 159.4 134.782C159.4 134.278 158.991 133.869 158.487 133.869C157.982 133.869 157.573 134.278 157.573 134.782C157.573 135.287 157.982 135.695 158.487 135.695Z" fill="white" stroke="#F69050" stroke-width="0.491" stroke-miterlimit="10"/>
<path d="M165.232 139.093C165.736 139.093 166.145 138.684 166.145 138.18C166.145 137.675 165.736 137.267 165.232 137.267C164.727 137.267 164.318 137.675 164.318 138.18C164.318 138.684 164.727 139.093 165.232 139.093Z" fill="white" stroke="#F69050" stroke-width="0.491" stroke-miterlimit="10"/>
<path d="M161.854 139.093C162.358 139.093 162.767 138.684 162.767 138.18C162.767 137.675 162.358 137.267 161.854 137.267C161.349 137.267 160.94 137.675 160.94 138.18C160.94 138.684 161.349 139.093 161.854 139.093Z" fill="#F69050" stroke="#F69050" stroke-width="0.491" stroke-miterlimit="10"/>
<path d="M158.487 139.093C158.991 139.093 159.4 138.684 159.4 138.18C159.4 137.675 158.991 137.267 158.487 137.267C157.982 137.267 157.573 137.675 157.573 138.18C157.573 138.684 157.982 139.093 158.487 139.093Z" fill="white" stroke="#F69050" stroke-width="0.491" stroke-miterlimit="10"/>
<path d="M213.84 132.897H168.521L168.56 127.614H141.26L133.316 104.34L124.812 120.003L148.822 140.488L137.342 156.042L108.982 137.866C103.846 134.517 100.753 128.812 100.753 122.684C100.753 119.62 101.529 116.596 103.021 113.915L116.259 89.9735C121.817 79.9277 132.383 73.7018 143.853 73.7018H186.364C193.434 73.7018 200.063 77.1388 204.138 82.9129L224.75 111.607C231.163 120.494 224.799 132.897 213.84 132.897Z" fill="white" stroke="#F69050" stroke-width="0.5892" stroke-miterlimit="10"/>
<path d="M146.652 150.681C143.294 155.198 139.159 157.79 137.402 156.484C135.644 155.178 136.94 150.465 140.289 145.948C143.647 141.43 147.389 139.034 149.146 140.34C150.904 141.646 150.001 146.173 146.652 150.681Z" fill="#F69050"/>
<path d="M147.516 73.741L161.116 92.5856L173.666 73.741H147.516Z" stroke="#F69050" stroke-width="0.5892" stroke-miterlimit="10"/>
<path d="M161.264 99.4498C162.05 99.4498 162.688 98.8123 162.688 98.0259C162.688 97.2395 162.05 96.602 161.264 96.602C160.477 96.602 159.84 97.2395 159.84 98.0259C159.84 98.8123 160.477 99.4498 161.264 99.4498Z" stroke="#F69050" stroke-width="0.5892" stroke-miterlimit="10"/>
<path d="M161.264 108.484C162.05 108.484 162.688 107.847 162.688 107.06C162.688 106.274 162.05 105.636 161.264 105.636C160.477 105.636 159.84 106.274 159.84 107.06C159.84 107.847 160.477 108.484 161.264 108.484Z" stroke="#F69050" stroke-width="0.5892" stroke-miterlimit="10"/>
<path d="M189.713 103.142L196.204 113.208H168.904V133.24" stroke="#F69050" stroke-width="0.5892" stroke-miterlimit="10"/>
<path d="M196.203 113.208H203.362" stroke="#F69050" stroke-width="0.5892" stroke-miterlimit="10"/>
<path d="M168.904 133.24C171.095 133.24 172.871 128.681 172.871 123.057C172.871 117.433 171.095 112.874 168.904 112.874C166.713 112.874 164.937 117.433 164.937 123.057C164.937 128.681 166.713 133.24 168.904 133.24Z" fill="#F69050"/>
<path d="M172.832 113.237C175.022 113.237 176.799 117.636 176.799 123.057C176.799 128.478 175.022 132.877 172.832 132.877" stroke="#F69050" stroke-width="0.5892" stroke-miterlimit="10"/>
<path d="M134.347 154.137C132.589 152.831 133.885 148.118 137.234 143.601C140.593 139.083 144.138 136.687 145.895 137.993" stroke="#F69050" stroke-width="0.5892" stroke-miterlimit="10"/>
<path d="M147.614 65.6003C147.683 55.9178 154.115 53.2664 164.681 54.1109C176.072 55.0241 171.408 70.6969 177.732 71.2173C180.383 71.4334 183.408 68.4285 187.434 65.9538C190.753 63.7149 194.75 62.4088 199.061 62.4088C210.56 62.4088 219.889 71.7378 219.889 83.237C219.889 88.53 217.424 93.6462 214.174 97.3189C214.174 97.3189 201.889 80.0651 197.127 78.4448C187.758 75.2632 184.783 83.4923 178.282 84.7689C177.428 84.9359 176.514 84.985 175.513 84.8671C166.262 83.8066 168.03 68.5561 168.03 68.5561C165.634 67.5741 165.113 65.0896 165.025 63.5872C165.074 62.8605 165.045 62.3793 165.045 62.3793C165.045 62.3793 164.986 62.8703 165.025 63.5872C164.829 66.4153 163.1 73.1813 153.467 70.7558V74.0455C153.467 93.9703 153.791 97.8394 149.755 102.848C149.156 103.594 145.149 109.614 152.328 112.864C161.578 117.047 155.048 128.055 155.048 128.055H135.477C135.477 128.055 123.86 125.993 122.848 115.447C121.405 100.373 140.308 96.3369 142.773 95.8754C137.981 95.1389 133.297 90.4154 133.297 84.6904C133.297 79.6134 137.195 75.3221 141.202 73.908C141.211 73.908 141.211 73.908 141.221 73.8982C141.339 73.8589 141.457 73.8196 141.575 73.7803C144.707 72.7001 147.015 70.3237 147.526 67.4464L147.614 65.6003Z" fill="#F6C850"/>
<path d="M165.075 65.7083C165.065 65.7083 165.065 65.7083 165.075 65.7083C164.937 65.7083 164.829 65.5905 164.829 65.4628L164.908 60.4448C164.908 60.3073 165.016 60.1993 165.153 60.1993C165.291 60.1993 165.399 60.3171 165.399 60.4448L165.32 65.4628C165.31 65.6003 165.202 65.7083 165.075 65.7083Z" fill="#A0505A"/>
<path d="M153.899 71.4235C153.86 71.4235 153.82 71.4137 153.781 71.3941C151.405 70.1469 150.904 68.8703 150.874 68.8212C150.825 68.6936 150.894 68.5561 151.022 68.507C151.149 68.4579 151.287 68.5266 151.336 68.6445C151.346 68.6641 151.827 69.8131 154.007 70.962C154.125 71.0209 154.174 71.178 154.115 71.2959C154.076 71.3744 153.987 71.4235 153.899 71.4235Z" fill="#A0505A"/>
<path d="M186.884 62.89C188.512 62.89 189.83 61.571 189.83 59.944C189.83 58.3169 188.512 56.998 186.884 56.998C185.257 56.998 183.938 58.3169 183.938 59.944C183.938 61.571 185.257 62.89 186.884 62.89Z" fill="#F6C850"/>
<path d="M152.209 109.476C153.516 109.476 154.576 108.416 154.576 107.109C154.576 105.802 153.516 104.743 152.209 104.743C150.902 104.743 149.843 105.802 149.843 107.109C149.843 108.416 150.902 109.476 152.209 109.476Z" fill="#F6C850"/>
<path d="M167.118 142.727L167.108 144.514C167.108 144.671 167.069 144.828 167.01 144.966L162.709 154.55C162.071 155.934 160.686 156.818 159.164 156.818H149.963C147.665 156.818 145.436 156.043 143.629 154.628L143.305 154.373L137.825 150.062C138.434 148.746 139.269 147.342 140.3 145.957C142.264 143.306 144.513 141.322 146.378 140.389H159.586C160.637 142.736 157.22 144.622 157.22 144.622H163.19L165.351 142.275C165.91 141.666 166.922 141.931 167.118 142.727Z" fill="#A0505A"/>
<path d="M163.72 151.633C163.081 153.018 161.697 153.902 160.175 153.902H152.427" stroke="#E0712C" stroke-width="0.491" stroke-miterlimit="10" stroke-linecap="round"/>
<path d="M165.075 148.599C164.437 149.984 163.052 150.867 161.53 150.867H153.782" stroke="#E0712C" stroke-width="0.491" stroke-miterlimit="10" stroke-linecap="round"/>
<path d="M166.538 145.221C165.9 146.605 164.515 147.489 162.993 147.489H155.245" stroke="#E0712C" stroke-width="0.491" stroke-miterlimit="10" stroke-linecap="round"/>
<path d="M146.554 150.484C145.68 151.908 144.394 153.391 143.304 154.373L143.294 154.363L137.814 150.052C138.423 148.736 139.258 147.332 140.289 145.948C142.253 143.296 144.502 141.313 146.368 140.38H149.206C149.461 142.609 149.088 146.36 146.554 150.484Z" fill="#E0712C"/>
<path d="M155.973 120.19C155.973 120.19 160.745 107.453 162.591 107.708C164.428 107.954 158.477 119.247 158.477 119.247L155.973 120.19Z" fill="#F69050"/>
<path d="M172.873 123.057C172.873 128.507 171.203 132.946 169.112 133.221C169.043 133.231 168.974 133.231 168.906 133.231H149.462C148.873 133.231 148.401 132.759 148.401 132.17V125.964C148.401 124.206 149.482 122.635 151.122 122.016L159.262 118.933C159.999 118.658 160.784 118.51 161.57 118.51H172.451C172.716 119.885 172.873 121.427 172.873 123.057Z" fill="#A0505A"/>
<path d="M156.945 123.391L150.797 125.718C149.56 126.19 148.745 127.378 148.745 128.694" stroke="#E0712C" stroke-width="0.491" stroke-miterlimit="10" stroke-linecap="round"/>
<path d="M156.945 127.103L150.797 129.43C149.56 129.902 148.745 131.09 148.745 132.406" stroke="#E0712C" stroke-width="0.491" stroke-miterlimit="10" stroke-linecap="round"/>
<path d="M156.611 130.569L150.464 132.897" stroke="#E0712C" stroke-width="0.491" stroke-miterlimit="10" stroke-linecap="round"/>
<path d="M172.873 123.057C172.873 128.507 171.204 132.946 169.112 133.221C169.043 133.231 168.974 133.231 168.906 133.231C166.716 133.231 164.938 128.674 164.938 123.047C164.938 121.545 165.164 119.836 165.4 118.501H172.402C172.647 119.846 172.873 121.555 172.873 123.057Z" fill="#E0712C"/>
<path d="M171.242 70.746C171.242 71.3155 171.045 71.8556 170.721 72.2779C170.388 72.71 169.926 73.0242 169.366 73.1715L168.011 73.525V75.0373C168.011 78.6903 165.055 81.6462 161.402 81.6462H160.096C156.453 81.6462 153.507 78.7002 153.487 75.0668V70.746C163.121 73.1813 164.849 66.4055 165.045 63.5774C165.124 65.0111 165.605 67.3286 167.726 68.399L168.099 68.3008C169.69 67.908 171.242 69.106 171.242 70.746Z" fill="#A0505A"/>
<path d="M163.052 71.9636C163.052 71.9636 165.055 71.7672 166.214 72.759" stroke="#E0712C" stroke-width="0.491" stroke-miterlimit="10" stroke-linecap="round"/>
<path d="M155.274 72.5234C155.274 72.5234 156.747 71.7279 158.397 72.4546C159.379 72.8867 160.027 75.2042 160.047 78.2681" stroke="#E0712C" stroke-width="0.491" stroke-miterlimit="10" stroke-linecap="round"/>
<path d="M157.159 75.5185C157.371 75.5185 157.542 75.1887 157.542 74.782C157.542 74.3752 157.371 74.0455 157.159 74.0455C156.948 74.0455 156.776 74.3752 156.776 74.782C156.776 75.1887 156.948 75.5185 157.159 75.5185Z" fill="#E0712C"/>
<path d="M164.289 75.5185C164.501 75.5185 164.672 75.1887 164.672 74.782C164.672 74.3752 164.501 74.0455 164.289 74.0455C164.078 74.0455 163.906 74.3752 163.906 74.782C163.906 75.1887 164.078 75.5185 164.289 75.5185Z" fill="#E0712C"/>
<path d="M168.385 71.6985C168.385 70.8441 168.984 70.1076 169.818 69.9309" stroke="#E0712C" stroke-width="0.491" stroke-miterlimit="10" stroke-linecap="round"/>
<path d="M89.7367 222.583C90.9053 225.332 90.5616 230.989 84.6794 230.91C77.3832 230.812 77.5698 211.152 77.5698 211.152C77.5698 211.152 85.0231 211.496 89.7367 222.583Z" fill="#88BFBF"/>
<path d="M21.7819 215.935C19.9553 219.804 22.4103 222.917 24.4725 221.846C28.0765 219.971 29.628 215.149 29.628 215.149C29.628 215.149 23.4218 212.478 21.7819 215.935Z" fill="#88BFBF"/>
<path d="M89.6385 222.583C85.7301 214.756 81.3209 211.034 74.2603 211.034C62.3683 211.034 54.7382 223.761 53.2848 240.22C53.1081 238.177 50.9968 236.085 50.8396 233.964C48.7185 205.781 64.1654 194.665 75.753 194.665C85.2391 194.655 87.6057 208.285 89.6385 222.583Z" fill="white" stroke="#88BFBF" stroke-width="0.5892" stroke-miterlimit="10"/>
<path d="M50.8486 240.612C48.7275 212.429 64.8913 201.313 75.5656 201.313C81.4871 201.313 85.199 204.809 88.0566 212.763" stroke="#88BFBF" stroke-width="0.5892" stroke-miterlimit="10"/>
<path d="M6.35456 182.772C3.1827 185.915 -2.55218 198.799 4.54768 201.352C11.6475 203.915 19.9651 178.687 19.9651 178.687C19.9651 178.687 13.9454 175.241 6.35456 182.772Z" fill="#F6C850" stroke="#F6C850" stroke-width="0.5892" stroke-miterlimit="10"/>
<path d="M64.8915 241.31L62.3579 255.048C61.0813 261.941 55.0715 266.95 48.06 266.95C41.0485 266.95 35.0387 261.941 33.7621 255.048L31.2285 241.31C31.2285 240.622 31.3856 239.964 31.6606 239.375C33.6933 241.418 40.3022 242.91 48.1287 242.91C55.8473 242.91 62.3677 241.457 64.5085 239.473C64.754 240.033 64.8915 240.661 64.8915 241.31Z" fill="#D0F0E4"/>
<path d="M63.2318 238.049C63.2318 239.994 56.4658 241.565 48.1188 241.565C39.7718 241.565 33.0059 239.994 33.0059 238.049C33.0059 237.892 33.0451 237.745 33.1335 237.598C34.0959 235.869 40.4396 234.544 48.1188 234.544C56.0338 234.544 62.5248 235.958 63.1729 237.755C63.2122 237.853 63.2318 237.951 63.2318 238.049Z" fill="#88BFBF"/>
<path d="M53.5395 217.555C53.5395 225.686 52.42 233.365 50.4266 240.121H44.6917C44.672 205.977 32.2203 178.314 16.8716 178.314C12.8847 178.314 9.09417 180.18 5.66699 183.538C15.762 171.725 19.9551 168.484 25.7194 168.484C39.4871 168.484 53.5395 190.452 53.5395 217.555Z" fill="white" stroke="#F6C850" stroke-width="0.5892" stroke-miterlimit="10"/>
<path d="M12.0898 176.34C15.3697 173.954 17.481 172.844 21.2421 172.844C36.6006 172.844 52.1456 198.475 48.0507 240.111" stroke="#F6C850" stroke-width="0.5892" stroke-miterlimit="10"/>
<path d="M48.0889 240.111C48.0889 240.111 48.9334 208.049 31.4637 207.941C26.8384 207.912 22.5078 215.247 22.5078 215.247C22.5078 215.247 42.9629 209.905 43.9743 240.111H48.0889Z" fill="white" stroke="#88BFBF" stroke-width="0.5892" stroke-miterlimit="10"/>
<path d="M45.9489 240.21C46.1944 231.175 43.9161 209.375 26.2598 210.543" stroke="#88BFBF" stroke-width="0.5892" stroke-miterlimit="10"/>
<path d="M22.4308 184.835C23.3257 184.835 24.0511 184.109 24.0511 183.214C24.0511 182.32 23.3257 181.594 22.4308 181.594C21.536 181.594 20.8105 182.32 20.8105 183.214C20.8105 184.109 21.536 184.835 22.4308 184.835Z" fill="white" stroke="#F6C850" stroke-width="0.5892" stroke-miterlimit="10"/>
<path d="M60.6195 231.175C61.9266 231.175 62.9862 230.116 62.9862 228.809C62.9862 227.502 61.9266 226.442 60.6195 226.442C59.3125 226.442 58.2529 227.502 58.2529 228.809C58.2529 230.116 59.3125 231.175 60.6195 231.175Z" fill="white" stroke="#F6C850" stroke-width="0.5892" stroke-miterlimit="10"/>
<path d="M56.6917 185.522C59.1594 185.522 61.1598 183.522 61.1598 181.054C61.1598 178.586 59.1594 176.586 56.6917 176.586C54.2241 176.586 52.2236 178.586 52.2236 181.054C52.2236 183.522 54.2241 185.522 56.6917 185.522Z" fill="#D0F0E4"/>
<path d="M68.4269 282.514L64.4694 262.806C64.1355 261.126 61.8966 260.733 61.0128 262.206C55.5529 271.29 40.7247 271.349 35.1764 262.295L35.0782 262.128C34.1845 260.675 31.9652 261.067 31.6313 262.737L27.6641 282.504" stroke="#88BFBF" stroke-width="0.5892" stroke-miterlimit="10"/>
<path d="M48.0508 269.061V282.603" stroke="#88BFBF" stroke-width="0.5892" stroke-miterlimit="10"/>
<path d="M18.6787 282.514H150.306" stroke="#88BFBF" stroke-width="0.5892" stroke-miterlimit="10"/>
</svg>
