<svg width="360" height="281" viewBox="0 0 360 281" fill="none" xmlns="http://www.w3.org/2000/svg">
<path d="M283.163 279.923H33.2441L135.372 37.4283H181.035L283.163 279.923Z" fill="#FFF9F0"/>
<path d="M153.873 19.1828L158.204 14.8522L162.534 19.1828" stroke="#F6C850" stroke-width="0.5892" stroke-miterlimit="10"/>
<path d="M158.204 14.8522V0.348022" stroke="#F6C850" stroke-width="0.5892" stroke-miterlimit="10"/>
<path d="M158.204 44.9897C162.054 44.9897 165.176 41.8682 165.176 38.0175C165.176 34.1669 162.054 31.0453 158.204 31.0453C154.353 31.0453 151.231 34.1669 151.231 38.0175C151.231 41.8682 154.353 44.9897 158.204 44.9897Z" fill="#F6C850" stroke="white" stroke-width="0.5892" stroke-miterlimit="10"/>
<path d="M181.035 37.4284H135.382L135.991 34.6493C137.994 25.4971 147.333 18.8587 158.213 18.8587C163.654 18.8587 168.711 20.5183 172.649 23.317C176.596 26.1157 179.425 30.0634 180.426 34.6395L181.035 37.4284Z" stroke="#626A7F" stroke-width="0.5892" stroke-miterlimit="10" stroke-linecap="round"/>
<path d="M228.563 193.822H223.928V223.085H228.563V193.822Z" fill="#88BFBF"/>
<path d="M312.73 223.085H286.343C285.391 223.085 284.654 222.26 284.772 221.318L288.445 190.316C288.543 189.521 289.221 188.922 290.016 188.922H316.402C317.355 188.922 318.091 189.746 317.974 190.689L314.301 221.691C314.203 222.486 313.525 223.085 312.73 223.085Z" fill="#626A7F"/>
<path d="M298.354 223.085H277.516C276.239 223.085 275.247 221.966 275.394 220.699L278.065 198.123C278.193 197.052 279.106 196.237 280.187 196.237H301.525L298.354 223.085Z" fill="white" stroke="#F6C850" stroke-width="0.5892" stroke-miterlimit="10"/>
<path d="M300.69 223.085H280.805C279.528 223.085 278.536 221.966 278.683 220.699L281.355 198.123C281.482 197.052 282.395 196.237 283.476 196.237H303.616C304.255 196.237 304.756 196.797 304.677 197.435L301.751 222.133C301.692 222.683 301.23 223.085 300.69 223.085Z" fill="white" stroke="#F6C850" stroke-width="0.5892" stroke-miterlimit="10"/>
<path d="M236.9 198.221H228.857V223.085H236.9V198.221Z" stroke="#626A7F" stroke-width="0.5892" stroke-miterlimit="10" stroke-linecap="round"/>
<path d="M245.424 198.221H234.102V223.085H245.424V198.221Z" stroke="#626A7F" stroke-width="0.5892" stroke-miterlimit="10" stroke-linecap="round"/>
<path d="M259.142 223.085H256.01L244.354 195.491H247.486L259.142 223.085Z" stroke="#626A7F" stroke-width="0.5892" stroke-miterlimit="10" stroke-linecap="round"/>
<path d="M265.112 223.085H259.279L249.243 199.684H255.076L265.112 223.085Z" stroke="#626A7F" stroke-width="0.5892" stroke-miterlimit="10" stroke-linecap="round"/>
<path d="M223.633 198.221H215.521V223.085H223.633V198.221Z" stroke="#626A7F" stroke-width="0.5892" stroke-miterlimit="10" stroke-linecap="round"/>
<path d="M253.25 179.16H215.521V184.011H253.25V179.16Z" stroke="#626A7F" stroke-width="0.5892" stroke-miterlimit="10" stroke-linecap="round"/>
<path d="M263.315 175.448H215.521V179.357H263.315V175.448Z" fill="#F69050"/>
<path d="M247.78 169.812H215.521V175.35H247.78V169.812Z" fill="#F6C850"/>
<path d="M253.25 165.579H215.521V169.714H253.25V165.579Z" stroke="#626A7F" stroke-width="0.5892" stroke-miterlimit="10" stroke-linecap="round"/>
<path d="M318.347 154.679L318.317 154.846L313.859 184.011H272.497L276.955 154.846L277.014 154.434C277.721 153 282.042 151.89 287.276 151.89C293.001 151.89 297.636 153.216 297.636 154.846C297.636 153.216 302.271 151.89 307.996 151.89C313.525 151.9 318.032 153.128 318.347 154.679Z" fill="white" stroke="#F6C850" stroke-width="0.5892" stroke-miterlimit="10"/>
<path d="M293.227 184.021L297.646 154.856" stroke="#F6C850" stroke-width="0.5892" stroke-miterlimit="10"/>
<path d="M293.227 184.021C293.227 182.391 288.592 181.065 282.867 181.065C277.142 181.065 272.507 182.391 272.507 184.021H293.227Z" fill="#F6C850"/>
<path d="M313.947 184.021C313.947 182.391 309.312 181.065 303.587 181.065C297.862 181.065 293.227 182.391 293.227 184.021H313.947Z" fill="#F6C850"/>
<path d="M293.383 183.403C293.324 181.773 297.91 180.29 303.635 180.083C307.21 179.956 310.735 180.457 312.591 181.174L317.01 153.393" stroke="#F6C850" stroke-width="0.5892" stroke-miterlimit="10" stroke-linecap="round"/>
<path d="M315.048 144.948H277.909V136.679C277.909 135.864 278.567 135.206 279.382 135.206H313.585C314.4 135.206 315.058 135.864 315.058 136.679V144.948H315.048Z" fill="white" stroke="#626A7F" stroke-width="0.5892" stroke-miterlimit="10" stroke-linecap="round"/>
<path d="M318.014 134.813H286.011C285.51 134.813 285.117 134.411 285.117 133.92V130.63C285.117 130.129 285.52 129.736 286.011 129.736H318.014C318.515 129.736 318.908 130.139 318.908 130.63V133.92C318.908 134.411 318.505 134.813 318.014 134.813Z" fill="#F6C850"/>
<path d="M319.261 126.653H281.297V129.736H319.261V126.653Z" fill="#F69050"/>
<path d="M318.574 126.653H289.596C289.213 126.653 288.908 126.339 288.908 125.965V123.481C288.908 123.098 289.222 122.794 289.596 122.794H318.574C318.957 122.794 319.262 123.108 319.262 123.481V125.965C319.262 126.339 318.957 126.653 318.574 126.653Z" fill="white" stroke="#626A7F" stroke-width="0.5892" stroke-miterlimit="10" stroke-linecap="round"/>
<path d="M238.856 114.614H227.71V144.948H238.856V114.614Z" stroke="#626A7F" stroke-width="0.5892" stroke-miterlimit="10" stroke-linecap="round"/>
<path d="M227.709 114.614H223.212V144.948H227.709V114.614Z" fill="white" stroke="#626A7F" stroke-width="0.5892" stroke-miterlimit="10" stroke-linecap="round"/>
<path d="M223.212 114.614H215.65V144.948H223.212V114.614Z" fill="white" stroke="#626A7F" stroke-width="0.5892" stroke-miterlimit="10" stroke-linecap="round"/>
<path d="M250.099 120.093H240.328V144.957H250.099V120.093Z" stroke="#626A7F" stroke-width="0.5892" stroke-miterlimit="10" stroke-linecap="round"/>
<path d="M241.036 144.948H237.186C236.813 144.948 236.499 144.643 236.499 144.26V120.761C236.499 120.388 236.803 120.073 237.186 120.073H241.036C241.409 120.073 241.723 120.378 241.723 120.761V144.26C241.713 144.643 241.409 144.948 241.036 144.948Z" fill="white" stroke="#626A7F" stroke-width="0.5892" stroke-miterlimit="10" stroke-linecap="round"/>
<path d="M250.1 120.093V133.723L244.807 120.093H250.1Z" fill="#626A7F"/>
<path d="M272.725 144.948H257.091C256.748 144.948 256.433 144.731 256.316 144.417L246.162 118.276C245.946 117.726 246.348 117.137 246.937 117.137H262.571C262.915 117.137 263.229 117.353 263.347 117.668L273.501 143.808C273.717 144.358 273.314 144.948 272.725 144.948Z" fill="white" stroke="#F6C850" stroke-width="0.5892" stroke-miterlimit="10"/>
<path d="M275.277 144.948H259.644C259.3 144.948 258.986 144.731 258.868 144.417L248.714 118.276C248.498 117.726 248.901 117.137 249.49 117.137H265.124C265.467 117.137 265.782 117.353 265.899 117.668L276.053 143.808C276.269 144.358 275.867 144.948 275.277 144.948Z" fill="white" stroke="#F6C850" stroke-width="0.5892" stroke-miterlimit="10"/>
<path d="M302.734 99.2453C301.271 99.6577 299.719 99.8836 298.128 99.8836C288.829 99.8836 281.297 92.3516 281.297 83.0521C281.297 75.3827 286.433 68.9015 293.454 66.8785L302.734 99.2453Z" stroke="#F6C850" stroke-width="0.5892" stroke-miterlimit="10"/>
<path d="M298.129 99.8836V105.884" stroke="#F6C850" stroke-width="0.5892" stroke-miterlimit="10"/>
<path d="M298.129 97.3107C306.004 97.3107 312.387 90.9269 312.387 83.0521C312.387 75.1773 306.004 68.7935 298.129 68.7935C290.254 68.7935 283.87 75.1773 283.87 83.0521C283.87 90.9269 290.254 97.3107 298.129 97.3107Z" fill="white" stroke="#88BFBF" stroke-width="0.5892" stroke-miterlimit="10"/>
<path d="M304.089 105.844H292.217L298.109 102.888L304.089 105.844Z" fill="white" stroke="#F6C850" stroke-width="0.5892" stroke-miterlimit="10"/>
<path d="M319.261 105.884V279.923H313.889V267.256C313.889 264.437 311.601 262.149 308.783 262.149H225.941C223.123 262.149 220.835 264.437 220.835 267.256V279.923H215.522V105.884H319.261Z" stroke="#626A7F" stroke-width="0.5892" stroke-miterlimit="10" stroke-linecap="round"/>
<path d="M311.808 257.328H222.78C221.651 257.328 220.728 256.414 220.728 255.275V229.655C220.728 228.526 221.641 227.602 222.78 227.602H311.808C312.937 227.602 313.86 228.516 313.86 229.655V255.275C313.86 256.414 312.937 257.328 311.808 257.328Z" stroke="#88BFBF" stroke-width="0.5892" stroke-miterlimit="10"/>
<path d="M271.988 81.9817V105.884H263.621L271.988 81.9817Z" fill="#626A7F"/>
<path d="M271.987 81.9817L271.928 82.1585L263.67 105.884H225.273L233.532 82.1585L233.797 81.4023C235.034 79.6249 238.462 78.3287 242.547 78.2599C242.616 78.2599 242.674 78.2599 242.743 78.2599C242.812 78.2599 242.871 78.2599 242.94 78.2599C247.712 78.2599 251.964 79.9195 252.74 82.0995C253.506 79.9195 257.571 78.2599 262.344 78.2599C267.018 78.2599 271.113 79.8606 271.987 81.9817Z" fill="white" stroke="#F6C850" stroke-width="0.5892" stroke-miterlimit="10"/>
<path d="M252.73 82.0995L244.393 105.393" stroke="#F6C850" stroke-width="0.5892" stroke-miterlimit="10" stroke-linecap="round"/>
<path d="M244.373 105.589H225.273C225.98 103.379 229.948 101.681 234.72 101.681C239.512 101.681 243.666 103.379 244.373 105.589Z" fill="#F6C850"/>
<path d="M263.62 105.589H244.521C245.228 103.379 249.195 101.681 253.967 101.681C258.76 101.681 262.913 103.379 263.62 105.589Z" fill="#F6C850"/>
<path d="M260.901 235.193C260.901 234.427 261.52 233.799 262.296 233.799H272.715C273.481 233.799 274.109 234.418 274.109 235.193" stroke="#626A7F" stroke-width="0.5892" stroke-miterlimit="10" stroke-linecap="round"/>
<path d="M215.522 184.021H319.261" stroke="#626A7F" stroke-width="0.5892" stroke-miterlimit="10" stroke-linecap="round"/>
<path d="M215.522 144.948H319.261" stroke="#626A7F" stroke-width="0.5892" stroke-miterlimit="10" stroke-linecap="round"/>
<path d="M215.522 223.085H319.261" stroke="#626A7F" stroke-width="0.5892" stroke-miterlimit="10" stroke-linecap="round"/>
<path d="M228.288 69.3925L215.522 105.884H319.261L332.027 69.3925" stroke="#626A7F" stroke-width="0.5892" stroke-miterlimit="10" stroke-linecap="round" stroke-linejoin="round"/>
<path d="M343.674 270.555C343.674 272.529 343.311 274.424 342.643 276.182C341.671 278.735 339.206 280.405 336.466 280.405H315.678C312.948 280.405 310.473 278.735 309.511 276.182C308.843 274.424 308.479 272.529 308.479 270.555C308.479 264.86 311.494 259.832 316.1 256.827V253.508C316.1 254.961 320.568 256.139 326.067 256.139C331.576 256.139 336.034 254.961 336.034 253.508V256.837C340.66 259.832 343.674 264.86 343.674 270.555Z" fill="#F69050"/>
<path d="M336.054 255.923V256.807C334.473 258.064 330.172 258.732 326.086 258.732C322.001 258.732 317.7 258.064 316.119 256.807V255.923C316.306 256.346 317.101 256.896 318.869 257.357C320.793 257.868 323.356 258.143 326.086 258.143C328.816 258.143 331.379 257.868 333.304 257.357C335.072 256.886 335.857 256.336 336.054 255.923Z" fill="white"/>
<path d="M336.054 253.508C336.054 254.961 331.586 256.139 326.086 256.139C320.587 256.139 316.119 254.961 316.119 253.508C316.119 253.321 316.188 253.144 316.325 252.968C317.268 251.779 321.275 250.876 326.086 250.876C330.898 250.876 334.905 251.769 335.848 252.968C335.975 253.144 336.054 253.321 336.054 253.508Z" fill="#88BFBF"/>
<path d="M312.741 266.382C313.436 266.382 313.998 265.819 313.998 265.125C313.998 264.431 313.436 263.868 312.741 263.868C312.047 263.868 311.484 264.431 311.484 265.125C311.484 265.819 312.047 266.382 312.741 266.382Z" stroke="#F6C850" stroke-width="0.5892" stroke-miterlimit="10"/>
<path d="M317.003 269.475C317.697 269.475 318.26 268.912 318.26 268.218C318.26 267.524 317.697 266.961 317.003 266.961C316.309 266.961 315.746 267.524 315.746 268.218C315.746 268.912 316.309 269.475 317.003 269.475Z" stroke="#F6C850" stroke-width="0.5892" stroke-miterlimit="10"/>
<path d="M322.306 265.802C323 265.802 323.563 265.24 323.563 264.545C323.563 263.851 323 263.288 322.306 263.288C321.612 263.288 321.049 263.851 321.049 264.545C321.049 265.24 321.612 265.802 322.306 265.802Z" stroke="#F6C850" stroke-width="0.5892" stroke-miterlimit="10"/>
<path d="M321.559 274.149C322.253 274.149 322.816 273.587 322.816 272.892C322.816 272.198 322.253 271.635 321.559 271.635C320.865 271.635 320.302 272.198 320.302 272.892C320.302 273.587 320.865 274.149 321.559 274.149Z" stroke="#F6C850" stroke-width="0.5892" stroke-miterlimit="10"/>
<path d="M316.846 277.812C317.54 277.812 318.103 277.249 318.103 276.555C318.103 275.861 317.54 275.298 316.846 275.298C316.152 275.298 315.589 275.861 315.589 276.555C315.589 277.249 316.152 277.812 316.846 277.812Z" stroke="#F6C850" stroke-width="0.5892" stroke-miterlimit="10"/>
<path d="M312.093 274.149C312.787 274.149 313.35 273.587 313.35 272.892C313.35 272.198 312.787 271.635 312.093 271.635C311.399 271.635 310.836 272.198 310.836 272.892C310.836 273.587 311.399 274.149 312.093 274.149Z" stroke="#F6C850" stroke-width="0.5892" stroke-miterlimit="10"/>
<path d="M317.691 261.717C318.385 261.717 318.948 261.154 318.948 260.46C318.948 259.766 318.385 259.203 317.691 259.203C316.996 259.203 316.434 259.766 316.434 260.46C316.434 261.154 316.996 261.717 317.691 261.717Z" stroke="#F6C850" stroke-width="0.5892" stroke-miterlimit="10"/>
<path d="M327.696 262.67C328.391 262.67 328.953 262.107 328.953 261.413C328.953 260.719 328.391 260.156 327.696 260.156C327.002 260.156 326.439 260.719 326.439 261.413C326.439 262.107 327.002 262.67 327.696 262.67Z" stroke="#F6C850" stroke-width="0.5892" stroke-miterlimit="10"/>
<path d="M326.646 270.29C327.34 270.29 327.903 269.727 327.903 269.033C327.903 268.339 327.34 267.776 326.646 267.776C325.951 267.776 325.389 268.339 325.389 269.033C325.389 269.727 325.951 270.29 326.646 270.29Z" stroke="#F6C850" stroke-width="0.5892" stroke-miterlimit="10"/>
<path d="M330.279 275.298C330.974 275.298 331.536 274.735 331.536 274.041C331.536 273.347 330.974 272.784 330.279 272.784C329.585 272.784 329.022 273.347 329.022 274.041C329.022 274.735 329.585 275.298 330.279 275.298Z" stroke="#F6C850" stroke-width="0.5892" stroke-miterlimit="10"/>
<path d="M325.567 279.069C326.261 279.069 326.823 278.506 326.823 277.812C326.823 277.118 326.261 276.555 325.567 276.555C324.872 276.555 324.31 277.118 324.31 277.812C324.31 278.506 324.872 279.069 325.567 279.069Z" stroke="#F6C850" stroke-width="0.5892" stroke-miterlimit="10"/>
<path d="M331.625 267.285C332.319 267.285 332.882 266.722 332.882 266.028C332.882 265.334 332.319 264.771 331.625 264.771C330.931 264.771 330.368 265.334 330.368 266.028C330.368 266.722 330.931 267.285 331.625 267.285Z" stroke="#F6C850" stroke-width="0.5892" stroke-miterlimit="10"/>
<path d="M335.269 262.13C335.963 262.13 336.526 261.567 336.526 260.873C336.526 260.178 335.963 259.616 335.269 259.616C334.575 259.616 334.012 260.178 334.012 260.873C334.012 261.567 334.575 262.13 335.269 262.13Z" stroke="#F6C850" stroke-width="0.5892" stroke-miterlimit="10"/>
<path d="M339.412 266.303C340.106 266.303 340.669 265.74 340.669 265.046C340.669 264.352 340.106 263.789 339.412 263.789C338.718 263.789 338.155 264.352 338.155 265.046C338.155 265.74 338.718 266.303 339.412 266.303Z" stroke="#F6C850" stroke-width="0.5892" stroke-miterlimit="10"/>
<path d="M334.668 270.418C335.362 270.418 335.925 269.855 335.925 269.161C335.925 268.467 335.362 267.904 334.668 267.904C333.974 267.904 333.411 268.467 333.411 269.161C333.411 269.855 333.974 270.418 334.668 270.418Z" stroke="#F6C850" stroke-width="0.5892" stroke-miterlimit="10"/>
<path d="M340.345 273.049C341.039 273.049 341.602 272.487 341.602 271.793C341.602 271.098 341.039 270.536 340.345 270.536C339.651 270.536 339.088 271.098 339.088 271.793C339.088 272.487 339.651 273.049 340.345 273.049Z" stroke="#F6C850" stroke-width="0.5892" stroke-miterlimit="10"/>
<path d="M336.525 277.881C337.219 277.881 337.781 277.318 337.781 276.624C337.781 275.93 337.219 275.367 336.525 275.367C335.83 275.367 335.268 275.93 335.268 276.624C335.268 277.318 335.83 277.881 336.525 277.881Z" stroke="#F6C850" stroke-width="0.5892" stroke-miterlimit="10"/>
<path d="M348.103 238.208C348.103 238.208 357.432 233.17 358.973 241.969C360.761 252.133 348.623 261.079 348.623 261.079C348.623 261.079 346.011 254.607 339.009 249.03C332.95 244.208 337.978 231.422 348.103 238.208Z" fill="white" stroke="#F6C850" stroke-width="0.5892" stroke-miterlimit="10"/>
<path d="M329.789 227.003C334.217 227.043 340.581 218.048 334.571 208.178C327.314 196.257 326.067 189.354 326.067 189.354C326.067 189.354 315.392 203.475 317.209 214.306C319.203 226.169 329.789 227.003 329.789 227.003Z" fill="#F6C850"/>
<path d="M330.555 221.013C337.026 222.722 343.174 218.784 343.301 209.809C343.527 193.939 346.532 188.774 346.532 188.774C346.532 188.774 326.372 196.031 323.318 207.305C320.411 218.048 330.555 221.013 330.555 221.013Z" fill="white" stroke="#F6C850" stroke-width="0.5892" stroke-miterlimit="10"/>
<path d="M303.51 231.462C303.274 231.481 303.029 231.501 302.764 231.521C288.839 232.562 284.833 245.308 284.833 245.308C284.833 245.308 283.978 244.385 284.155 241.193C284.489 232.964 292.06 224.46 300.702 229.861C301.664 230.47 302.607 230.99 303.51 231.462Z" fill="#F6C850"/>
<path d="M319.301 234.594C316.846 234.751 311.239 235.429 303.511 231.462C302.607 231 301.665 230.47 300.702 229.861C292.061 224.46 284.686 232.964 284.352 241.193C284.332 241.596 284.43 241.999 284.45 242.391C283.635 235.242 283.655 217.449 305.288 218.048C320.156 218.48 319.301 234.594 319.301 234.594Z" fill="white" stroke="#F6C850" stroke-width="0.5892" stroke-miterlimit="10"/>
<path d="M322.836 252.987C322.836 252.987 325.399 217.272 290.764 221.936" stroke="#F6C850" stroke-width="0.5892" stroke-miterlimit="10"/>
<path d="M346.532 188.774C324.712 211.066 328.777 252.987 328.777 252.987C326.479 236.951 340.581 221.013 348.093 237.786C350.332 242.774 348.614 261.069 348.614 261.069" stroke="#F6C850" stroke-width="0.5892" stroke-miterlimit="10"/>
<path d="M23.2173 224.912L20.2909 227.475C19.8196 226.915 19.3973 226.296 19.034 225.619L0.788414 191.622C0.0224543 190.198 1.05356 188.48 2.66404 188.48H5.21724C7.2598 188.48 9.1256 189.599 10.088 191.396L24.435 218.126C25.6723 220.404 25.1617 223.223 23.2173 224.912Z" fill="#F6C850"/>
<path d="M72.8855 225.658L30.4336 234.378V233.494C30.4336 229.262 33.4091 225.619 37.5531 224.764L64.9018 219.147C69.0262 218.303 72.8855 221.455 72.8855 225.658Z" fill="#F6C850"/>
<path d="M68.0745 279.923V237.393C68.0745 233.868 64.8437 231.236 61.387 231.943L34.7257 237.413C31.5539 238.061 28.9418 240.28 27.783 243.305L13.7109 279.923" stroke="#626A7F" stroke-width="0.5892" stroke-miterlimit="10" stroke-linecap="round"/>
<path d="M0.679688 191.435L21.4097 230.057C23.1871 233.367 26.9187 235.115 30.6012 234.359L72.9844 225.658" stroke="#626A7F" stroke-width="0.5892" stroke-miterlimit="10" stroke-linecap="round"/>
<path d="M87.9418 194.116H52.0693V198.908H87.9418V194.116Z" fill="#88BFBF"/>
<path d="M81.4014 188.912C81.8335 189.314 82.0986 190.041 82.0986 190.65C82.0986 191.867 81.0381 193.115 79.7222 193.115H47.002C47.002 193.684 47.4635 194.146 48.0331 194.146H87.5193C88.5798 194.146 89.5324 193.753 90.2296 193.105C90.9268 192.466 91.3491 191.573 91.3491 190.591C91.3491 188.627 89.6306 187.046 87.5193 187.046H48.0331C47.4635 187.046 47.002 187.507 47.002 188.077V188.264H79.7222C80.3801 188.273 80.9693 188.519 81.4014 188.912Z" fill="#F69050"/>
<path d="M49.3685 188.273V193.026H47.0117V193.419H79.84C80.2033 193.419 80.5568 193.35 80.8711 193.223C81.2246 193.085 81.5388 192.869 81.7942 192.614C82.295 192.113 82.6092 191.416 82.6092 190.65C82.6092 189.118 81.3621 187.881 79.84 187.881H47.0117V188.273H49.3685Z" fill="#F69050"/>
<path d="M48.4561 188.273V193.026H79.7229C81.0388 193.026 82.0994 191.966 82.0994 190.65C82.0994 189.992 81.8342 189.403 81.4022 188.971C80.9701 188.538 80.3809 188.273 79.7229 188.273H48.4561Z" fill="white"/>
<path d="M48.4561 188.273V193.026" stroke="#F69050" stroke-width="0.491" stroke-miterlimit="10"/>
<path d="M75.3525 191.642V195.609H78.0923V192.152C78.0923 191.327 78.7601 190.66 79.585 190.66H80.8026V190.149H76.8354C76.0301 190.149 75.3525 190.817 75.3525 191.642Z" fill="#F6C850"/>
<path d="M31.9277 203.013C31.9277 200.922 33.6266 199.223 35.7183 199.223H110.252C112.344 199.223 114.043 200.922 114.043 203.013" stroke="#626A7F" stroke-width="0.5892" stroke-miterlimit="10" stroke-linecap="round"/>
<path d="M114.101 279.923L93.0566 206.627C92.1237 203.386 88.9125 201.128 85.2399 201.128H60.7193C57.0466 201.128 53.8355 203.386 52.9026 206.627L31.8682 279.923" stroke="#626A7F" stroke-width="0.5892" stroke-miterlimit="10" stroke-linecap="round"/>
<path d="M131.769 267.236V277.92C131.769 279.03 132.662 279.923 133.772 279.923H160.482C160.482 279.923 160.639 274.964 156.574 273.58C149.67 271.233 146.449 267.236 146.449 267.236H131.769Z" fill="white" stroke="#F69050" stroke-width="0.5892" stroke-miterlimit="10"/>
<path d="M146.626 272.706C147.716 272.401 151.644 270.231 150.299 268.886C149.66 268.247 148.128 268.886 148.128 268.886" stroke="#F69050" stroke-width="0.5892" stroke-miterlimit="10"/>
<path d="M150.652 274.179C151.742 273.874 155.513 271.449 154.03 270.261C152.911 269.357 151.232 271.105 151.232 271.105" stroke="#F69050" stroke-width="0.5892" stroke-miterlimit="10"/>
<path d="M147.274 268.1L131.769 272.922V267.236H146.459C146.459 267.236 146.724 267.57 147.274 268.1Z" fill="#F69050"/>
<path d="M165.255 267.236V277.92C165.255 279.03 166.149 279.923 167.258 279.923H193.969C193.969 279.923 194.126 274.964 190.06 273.58C183.157 271.233 179.936 267.236 179.936 267.236H165.255Z" fill="white" stroke="#F69050" stroke-width="0.5892" stroke-miterlimit="10"/>
<path d="M180.112 272.706C181.202 272.401 185.13 270.231 183.785 268.886C183.147 268.247 181.615 268.886 181.615 268.886" stroke="#F69050" stroke-width="0.5892" stroke-miterlimit="10"/>
<path d="M184.139 274.179C185.229 273.874 189 271.449 187.517 270.261C186.397 269.357 184.718 271.105 184.718 271.105" stroke="#F69050" stroke-width="0.5892" stroke-miterlimit="10"/>
<path d="M180.761 268.1L165.255 272.922V267.236H179.946C179.946 267.236 180.211 267.57 180.761 268.1Z" fill="#F69050"/>
<path d="M138.985 160.885L129.312 262.149H149.542L159.705 213.079L163.859 223.537V262.149H184.923V218.853L173.689 160.885H138.985Z" fill="#88BFBF"/>
<path d="M149.523 185.21L140.115 262.149" stroke="#626A7F" stroke-width="0.5892" stroke-miterlimit="10"/>
<path d="M174.023 262.149V218.853L160.825 165.795" stroke="#626A7F" stroke-width="0.5892" stroke-miterlimit="10"/>
<path d="M163.566 223.537L150.957 186.918C150.525 185.661 149.336 184.817 148.001 184.817" stroke="white" stroke-width="0.5892" stroke-miterlimit="10"/>
<path d="M137.385 177.628L138.985 160.885H173.689L174.681 166.031L137.385 177.628Z" fill="#626A7F"/>
<path d="M184.963 267.236H163.781C162.986 267.236 162.338 266.588 162.338 265.792V263.593C162.338 262.797 162.986 262.149 163.781 262.149H184.963C185.759 262.149 186.407 262.797 186.407 263.593V265.792C186.397 266.588 185.759 267.236 184.963 267.236Z" fill="#626A7F"/>
<path d="M149.906 267.236H128.724C127.928 267.236 127.28 266.588 127.28 265.792V263.593C127.28 262.797 127.928 262.149 128.724 262.149H149.906C150.701 262.149 151.349 262.797 151.349 263.593V265.792C151.339 266.588 150.701 267.236 149.906 267.236Z" fill="#626A7F"/>
<path d="M206.44 163.851L213.078 188.686L179.985 197.534L173.337 172.679C173.131 171.903 172.63 171.295 171.992 170.921C171.353 170.548 170.568 170.421 169.792 170.627C168.25 171.039 167.327 172.63 167.739 174.172L174.388 199.026L173.661 199.223L167.023 174.388C166.492 172.414 167.631 170.391 169.576 169.802C169.615 169.792 169.654 169.782 169.694 169.772L201.825 161.18C203.838 160.65 205.9 161.848 206.44 163.851Z" fill="#88BFBF"/>
<path d="M174.072 172.512L180.711 197.347L179.984 197.543L173.336 172.689C173.13 171.913 172.629 171.304 171.991 170.931C171.352 170.558 170.567 170.43 169.791 170.637C168.249 171.049 167.326 172.64 167.738 174.182L174.387 199.036L173.66 199.232L167.022 174.398C166.491 172.424 167.63 170.401 169.575 169.812C171.549 169.35 173.542 170.538 174.072 172.512Z" fill="#626A7F"/>
<path d="M173.336 172.679L179.572 196.012L173.974 197.504L167.739 174.172C167.326 172.63 168.239 171.039 169.791 170.627C170.567 170.421 171.352 170.548 171.991 170.921C172.629 171.295 173.13 171.903 173.336 172.679Z" fill="white"/>
<path d="M206.538 177.01L191.484 182.195L179.602 160.885H133.546C125.719 160.885 119.867 153.687 121.467 146.028L126.259 123.01C127.762 115.802 134.115 110.636 141.471 110.636H172.963C180.593 110.636 187.094 116.175 188.302 123.707L193.045 146.116L206.538 177.01Z" fill="#F6C850" stroke="white" stroke-width="0.5892" stroke-miterlimit="10"/>
<path d="M131.091 160.64C125.67 159.55 121.644 154.934 121.231 149.494C121.644 149.209 122.105 148.964 122.596 148.787C126.161 147.471 130.236 149.632 131.719 153.609C132.632 156.103 132.318 158.715 131.091 160.64Z" fill="white"/>
<path d="M165.381 96.8295V110.646H150.131L153.646 101.455L165.381 96.8295Z" fill="#F5E4D4"/>
<path d="M168.887 91.0161C168.877 91.0161 168.858 91.0259 168.848 91.0259L164.321 92.2239C162.7 92.656 161.453 93.8541 160.923 95.3663H159.185C158.085 95.3663 157.191 96.26 157.191 97.3598V97.3893C157.191 98.4302 157.987 99.2845 159.008 99.3729C158.998 99.3827 158.998 99.3827 158.998 99.3827C158.998 99.3827 158.193 103.213 153.489 101.926C153.489 101.926 153.676 91.8508 153.872 88.7182C154.039 86.1355 167.738 81.2452 169.005 83.327C170.124 85.1732 168.828 86.0373 167.728 86.4203C169.673 86.0079 173.345 85.458 173.718 87.0979C174.151 89.003 170.272 90.6528 168.887 91.0161Z" fill="#626A7F"/>
<path d="M169.771 98.0767H169.29L169.427 100.433C169.525 102.123 168.17 103.556 166.481 103.556H164.36C162.317 103.556 160.658 101.897 160.658 99.8541V99.3926H159.195C158.095 99.3926 157.201 98.4989 157.201 97.3991V97.3696C157.201 96.2698 158.095 95.3762 159.195 95.3762H160.933C161.463 93.8639 162.71 92.656 164.331 92.2338L168.858 91.0357L170.409 97.2518C170.566 97.6446 170.193 98.0767 169.771 98.0767Z" fill="#F5E4D4"/>
<path d="M161.119 100.041C160.913 102.201 163.073 103.743 165.116 103.743" stroke="#626A7F" stroke-width="0.491" stroke-miterlimit="10" stroke-linecap="round"/>
<path d="M160.324 97.7329C160.324 96.967 159.705 96.3483 158.939 96.3483" stroke="#626A7F" stroke-width="0.491" stroke-miterlimit="10" stroke-linecap="round"/>
<path d="M168.102 96.3287C168.302 96.3287 168.465 95.9901 168.465 95.5725C168.465 95.1549 168.302 94.8164 168.102 94.8164C167.901 94.8164 167.738 95.1549 167.738 95.5725C167.738 95.9901 167.901 96.3287 168.102 96.3287Z" fill="#626A7F"/>
<path d="M166.53 93.9817C166.53 93.9817 167.738 93.0586 169.466 93.0586" stroke="#626A7F" stroke-width="0.491" stroke-miterlimit="10" stroke-linecap="round"/>
<path d="M161.855 167.18C161.855 167.18 173.885 167.7 178.117 158.047L175.878 153.952L169.191 156.525L161.855 167.18Z" fill="white" stroke="#F69050" stroke-width="0.5892" stroke-miterlimit="10"/>
<path d="M171.49 108.113C170.91 108.162 170.38 108.417 169.987 108.81C169.555 109.242 169.28 109.841 169.28 110.509V158.892C169.28 163.507 165.539 167.249 160.923 167.249H142.373C137.385 167.249 133.535 162.918 134.065 157.998V157.988L140.743 112.06C141.077 109.792 143.012 108.113 145.309 108.113H171.49Z" fill="#F69050" stroke="#F69050" stroke-width="0.5892" stroke-miterlimit="10"/>
<path d="M169.624 108.113C169.044 108.162 168.514 108.417 168.121 108.81C167.758 109.173 167.512 109.645 167.444 110.175C167.434 110.283 167.424 110.391 167.424 110.499L167.031 114.201L162.318 158.882C162.318 163.497 158.576 167.239 153.961 167.239H142.383C137.394 167.239 133.545 162.908 134.075 157.988V157.979L137.09 137.219L140.753 112.051C140.782 111.834 140.831 111.618 140.89 111.402C141.46 109.468 143.247 108.103 145.309 108.103H169.624V108.113Z" fill="white" stroke="#F69050" stroke-width="0.5892" stroke-miterlimit="10"/>
<path d="M165.49 117.746L163.732 130.934C163.153 133.635 161.051 135.078 158.007 135.569L137.188 138.594L140.223 117.736H165.49V117.746Z" fill="#F6C850"/>
<path d="M168.878 108.113H168.357C167.414 108.103 166.589 108.771 166.403 109.704L163.339 129.471C162.76 132.172 160.373 134.106 157.614 134.106H138.455C136.138 134.106 134.409 131.965 134.91 129.697L138.602 112.924C139.221 110.116 141.715 108.113 144.593 108.113H168.878Z" fill="#F69050" stroke="#F69050" stroke-width="0.5892" stroke-miterlimit="10"/>
<path d="M153.087 139.605L157.967 109.762C158.066 109.163 158.586 108.712 159.195 108.712C159.961 108.712 160.55 109.399 160.422 110.165L155.542 140.008C155.444 140.607 154.923 141.059 154.314 141.059C153.548 141.059 152.959 140.371 153.087 139.605Z" fill="white" stroke="#F69050" stroke-width="0.5892" stroke-miterlimit="10"/>
<path d="M142.177 139.605L147.057 109.762C147.155 109.163 147.676 108.712 148.285 108.712C149.051 108.712 149.64 109.399 149.512 110.165L144.632 140.008C144.533 140.607 144.013 141.059 143.404 141.059C142.638 141.059 142.049 140.371 142.177 139.605Z" fill="white" stroke="#F69050" stroke-width="0.5892" stroke-miterlimit="10"/>
<path d="M174.092 110.656L169.29 110.676V110.509C169.29 109.841 169.555 109.242 169.997 108.81C170.39 108.417 170.91 108.162 171.5 108.113H171.892C173.1 108.211 174.053 109.232 174.092 110.656Z" fill="white" stroke="#F69050" stroke-width="0.5892" stroke-miterlimit="10"/>
<path d="M204.74 177.628L208.785 188.067C209.434 189.746 208.491 191.612 206.762 192.093L197.875 194.529C197.335 194.676 196.766 194.548 196.343 194.185L195.44 193.399L197.286 192.908C198.101 192.692 198.651 191.936 198.612 191.092L198.406 189.01C198.366 188.077 197.61 187.331 196.677 187.301H196.776C195.646 187.262 194.546 186.565 194.105 185.524L192.69 181.763L204.74 177.628Z" fill="#F5E4D4"/>
<path d="M195.627 193.606L197.08 193.213C197.895 192.997 198.445 192.339 198.406 191.494L198.298 189.216C198.259 188.283 197.502 187.537 196.57 187.507C195.44 187.468 194.439 186.771 193.997 185.73L192.484 182.165" stroke="white" stroke-width="0.5892" stroke-miterlimit="10" stroke-linecap="round"/>
<path d="M200.38 193.586C201.421 193.311 202.128 192.349 202.079 191.268L201.941 188.362" stroke="white" stroke-width="0.5892" stroke-miterlimit="10" stroke-linecap="round"/>
<path d="M204.141 192.614C205.182 192.339 205.889 191.376 205.839 190.296L205.702 187.39" stroke="white" stroke-width="0.5892" stroke-miterlimit="10" stroke-linecap="round"/>
<path d="M170.498 134.106L172.874 146.538C173.277 148.659 174.023 150.712 175.074 152.597L191.474 182.195L206.528 177.01" stroke="white" stroke-width="0.5892" stroke-miterlimit="10"/>
<path d="M180.445 162.299L175.074 152.597C174.17 150.957 173.493 149.209 173.061 147.393C173.571 147.226 174.101 147.108 174.661 147.059C178.903 146.686 182.665 150.25 183.067 155.013C183.303 157.9 182.252 160.561 180.445 162.299Z" fill="white"/>
</svg>
