<svg width="369" height="246" viewBox="0 0 369 246" fill="none" xmlns="http://www.w3.org/2000/svg">
<path d="M368.527 245.738H0.473633L66.5426 206.724H303.47L368.527 245.738Z" fill="#D0F0E4"/>
<path d="M211.496 55.0045H145.279V16.7164C145.279 14.1239 147.381 12.0224 149.973 12.0224H206.802C209.394 12.0224 211.496 14.1239 211.496 16.7164V55.0045Z" fill="white" stroke="#88BFBF" stroke-width="0.5892" stroke-miterlimit="10"/>
<path d="M206.496 52.5103H150.552C149.079 52.5103 147.881 51.3122 147.881 49.8392V17.0208C147.881 15.5478 149.079 14.3498 150.552 14.3498H206.496C207.969 14.3498 209.167 15.5478 209.167 17.0208V49.8491C209.167 51.3221 207.969 52.5103 206.496 52.5103Z" fill="#88BFBF"/>
<path d="M223.102 63.9898C225.636 65.6396 225.047 68.8704 222.052 68.8704H131.845C129.321 68.8704 128.457 65.4628 130.932 63.9015L223.102 63.9898Z" fill="#88BFBF" stroke="#88BFBF" stroke-width="0.5892" stroke-miterlimit="10"/>
<path d="M222.052 66.6216H131.846C130.235 66.6216 129.597 64.7263 130.933 63.9014L145.299 55.0045H211.309L223.093 63.9898C224.272 64.8834 223.584 66.6216 222.052 66.6216Z" fill="white" stroke="#88BFBF" stroke-width="0.5892" stroke-miterlimit="10"/>
<path d="M211.643 63.941H142.254C141.017 63.941 140.526 62.4778 141.547 61.8493L151.525 55.0048H203.374L212.438 61.918C213.351 62.6054 212.821 63.941 211.643 63.941Z" fill="white" stroke="#88BFBF" stroke-width="0.5892" stroke-miterlimit="10"/>
<path d="M198.887 55.0045L207.96 63.9407" stroke="#88BFBF" stroke-width="0.5892" stroke-miterlimit="10"/>
<path d="M194.075 55.0045L202.069 63.9407" stroke="#88BFBF" stroke-width="0.5892" stroke-miterlimit="10"/>
<path d="M189.577 55.0045L196.51 63.9407" stroke="#88BFBF" stroke-width="0.5892" stroke-miterlimit="10"/>
<path d="M184.549 55.0045L190.411 63.9407" stroke="#88BFBF" stroke-width="0.5892" stroke-miterlimit="10"/>
<path d="M180.376 55.0045L183.234 63.9407" stroke="#88BFBF" stroke-width="0.5892" stroke-miterlimit="10"/>
<path d="M155.738 55.0045L146.664 63.9407" stroke="#88BFBF" stroke-width="0.5892" stroke-miterlimit="10"/>
<path d="M160.549 55.0045L152.556 63.9407" stroke="#88BFBF" stroke-width="0.5892" stroke-miterlimit="10"/>
<path d="M165.046 55.0045L158.113 63.9407" stroke="#88BFBF" stroke-width="0.5892" stroke-miterlimit="10"/>
<path d="M170.074 55.0045L164.212 63.9407" stroke="#88BFBF" stroke-width="0.5892" stroke-miterlimit="10"/>
<path d="M174.248 55.0045L171.391 63.9407" stroke="#88BFBF" stroke-width="0.5892" stroke-miterlimit="10"/>
<path d="M177.076 64.0487V55.0045" stroke="#88BFBF" stroke-width="0.5892" stroke-miterlimit="10"/>
<path d="M146.664 58.3433H207.764" stroke="#88BFBF" stroke-width="0.5892" stroke-miterlimit="10"/>
<path d="M201.842 52.5103H152.163L153.057 46.1764C153.607 42.2778 156.405 39.0765 160.186 37.9963L172.294 35.4824H181.711L193.82 37.9963C197.61 39.0667 200.409 42.2778 200.949 46.1764L201.842 52.5103Z" fill="#F6C850"/>
<path d="M180.356 42.7197L176.772 39.0961C176.693 39.0176 176.693 38.8899 176.772 38.8212C176.85 38.7426 176.978 38.7426 177.047 38.8212L180.336 42.1502L185.443 36.3662C185.512 36.2876 185.639 36.2778 185.718 36.3465C185.796 36.4153 185.806 36.5429 185.737 36.6215L180.356 42.7197Z" fill="white"/>
<path d="M173.698 42.7197L168.317 36.6215C168.248 36.5429 168.248 36.4153 168.337 36.3465C168.415 36.2778 168.543 36.2778 168.612 36.3662L173.718 42.1502L177.008 38.8212C177.086 38.7426 177.204 38.7426 177.283 38.8212C177.361 38.8997 177.361 39.0176 177.283 39.0961L173.698 42.7197Z" fill="white"/>
<path d="M177.087 45.0863C176.615 45.0863 176.232 44.7034 176.232 44.232C176.232 43.7606 176.615 43.3777 177.087 43.3777C177.558 43.3777 177.941 43.7606 177.941 44.232C177.941 44.7034 177.558 45.0863 177.087 45.0863ZM177.087 43.7705C176.831 43.7705 176.625 43.9767 176.625 44.232C176.625 44.4873 176.831 44.6935 177.087 44.6935C177.342 44.6935 177.548 44.4873 177.548 44.232C177.548 43.9767 177.342 43.7705 177.087 43.7705Z" fill="white"/>
<path d="M177.087 49.8981C176.615 49.8981 176.232 49.5152 176.232 49.0438C176.232 48.5724 176.615 48.1895 177.087 48.1895C177.558 48.1895 177.941 48.5724 177.941 49.0438C177.941 49.5152 177.558 49.8981 177.087 49.8981ZM177.087 48.5823C176.831 48.5823 176.625 48.7885 176.625 49.0438C176.625 49.2991 176.831 49.5053 177.087 49.5053C177.342 49.5053 177.548 49.2991 177.548 49.0438C177.548 48.7885 177.342 48.5823 177.087 48.5823Z" fill="white"/>
<path d="M172.235 52.304H156.189L151.907 39.5969L167.953 35.0012L172.235 52.304Z" fill="white" stroke="#88BFBF" stroke-width="0.3928" stroke-miterlimit="10"/>
<path d="M157.023 41.2467H156.719C155.943 41.2467 155.314 40.6182 155.314 39.8424V35.4333C155.314 35.119 155.57 34.8637 155.884 34.8637H157.21C157.524 34.8637 157.779 35.119 157.779 35.4333V40.4807C157.789 40.903 157.445 41.2467 157.023 41.2467Z" fill="white"/>
<path d="M157.023 41.2467H156.719C155.943 41.2467 155.314 40.6182 155.314 39.8424V35.4333C155.314 35.119 155.57 34.8637 155.884 34.8637H157.21C157.524 34.8637 157.779 35.119 157.779 35.4333V40.4807C157.789 40.903 157.445 41.2467 157.023 41.2467Z" stroke="#88BFBF" stroke-width="0.3928" stroke-miterlimit="10" stroke-linecap="round"/>
<path d="M163.485 41.2467H163.789C164.565 41.2467 165.193 40.6182 165.193 39.8424V35.4332C165.193 35.119 164.938 34.8637 164.624 34.8637H163.288C162.974 34.8637 162.719 35.119 162.719 35.4332V40.4807C162.719 40.903 163.062 41.2467 163.485 41.2467Z" fill="white"/>
<path d="M159.488 41.7573H158.781C158.231 41.7573 157.789 41.3154 157.789 40.7655V35.4431C157.789 35.1288 158.044 34.8735 158.359 34.8735H159.684C159.999 34.8735 160.254 35.1288 160.254 35.4431V40.9914C160.254 41.4136 159.91 41.7573 159.488 41.7573Z" fill="white"/>
<path d="M161.963 41.9537H161.373C160.755 41.9537 160.254 41.4529 160.254 40.8342V35.4332C160.254 35.119 160.509 34.8637 160.823 34.8637H162.149C162.463 34.8637 162.719 35.119 162.719 35.4332V41.1878C162.719 41.61 162.375 41.9537 161.963 41.9537Z" fill="white"/>
<path d="M163.485 41.2467H163.789C164.565 41.2467 165.193 40.6182 165.193 39.8424V35.4332C165.193 35.119 164.938 34.8637 164.624 34.8637H163.288C162.974 34.8637 162.719 35.119 162.719 35.4332V40.4807C162.719 40.903 163.062 41.2467 163.485 41.2467Z" stroke="#88BFBF" stroke-width="0.3928" stroke-miterlimit="10" stroke-linecap="round"/>
<path d="M159.488 41.7573H158.781C158.231 41.7573 157.789 41.3154 157.789 40.7655V35.4431C157.789 35.1288 158.044 34.8735 158.359 34.8735H159.684C159.999 34.8735 160.254 35.1288 160.254 35.4431V40.9914C160.254 41.4136 159.91 41.7573 159.488 41.7573Z" stroke="#88BFBF" stroke-width="0.3928" stroke-miterlimit="10" stroke-linecap="round"/>
<path d="M161.963 41.9537H161.373C160.755 41.9537 160.254 41.4529 160.254 40.8342V35.4332C160.254 35.119 160.509 34.8637 160.823 34.8637H162.149C162.463 34.8637 162.719 35.119 162.719 35.4332V41.1878C162.719 41.61 162.375 41.9537 161.963 41.9537Z" stroke="#88BFBF" stroke-width="0.3928" stroke-miterlimit="10" stroke-linecap="round"/>
<path d="M181.72 29.7082V36.8768C181.72 38.1141 179.609 39.1256 177.007 39.1256C174.404 39.1256 172.293 38.1141 172.293 36.8768V29.7082H181.72Z" fill="white"/>
<path d="M181.72 29.7083C181.72 35.1191 178.254 36.7296 174.925 36.4448C174.915 36.4448 174.905 36.4448 174.895 36.4448C173.422 36.3073 172.303 35.0503 172.303 33.5773V29.7181H181.72V29.7083Z" fill="#88BFBF"/>
<path d="M183.91 27.8621V28.2254C183.91 29.0306 183.262 29.6788 182.457 29.6788H181.711L181.721 29.8457C181.721 32.1632 179.845 34.0388 177.527 34.0388H176.496C174.179 34.0388 172.303 32.1632 172.303 29.8457L172.313 29.6788H171.567C170.761 29.6788 170.113 29.0306 170.113 28.2254V27.8621C170.113 27.0568 170.761 26.4087 171.567 26.4087H172.519L172.627 24.6313C172.627 24.3563 172.666 24.0912 172.745 23.8457C175.554 24.5429 178.843 22.736 179.727 22.1959C180.709 22.5691 181.406 23.5118 181.406 24.6215L181.514 26.3989H182.467C183.262 26.4087 183.91 27.0568 183.91 27.8621Z" fill="white"/>
<path d="M182.526 26.4087H181.505L181.397 24.6313C181.397 23.5216 180.7 22.5789 179.718 22.2058C178.834 22.736 175.544 24.5429 172.736 23.8555C172.657 24.101 172.618 24.3662 172.618 24.6411L172.51 26.4185H171.871C171.871 26.4185 170.565 20.0945 171.852 18.9357C172.804 18.0814 181.525 19.9472 182.487 21.2729C183.027 22.029 182.526 26.4087 182.526 26.4087Z" fill="#F5E4D4"/>
<path d="M180.071 26.0257C180.042 26.0257 180.002 26.0159 179.973 25.9865C179.963 25.9767 179.325 25.4562 178.304 25.4562C178.225 25.4562 178.156 25.3875 178.156 25.3089C178.156 25.2303 178.225 25.1616 178.304 25.1616C179.433 25.1616 180.13 25.7312 180.16 25.7606C180.218 25.8097 180.228 25.9079 180.179 25.9668C180.16 26.0061 180.11 26.0257 180.071 26.0257Z" fill="#88BFBF"/>
<path d="M176.339 29.0699C176.319 29.0699 176.3 29.0699 176.29 29.0601C176.211 29.0307 176.172 28.9423 176.202 28.8735C176.477 28.1469 176.408 27.2336 176.025 26.4284C175.799 25.9374 175.475 25.5838 175.19 25.4856C174.562 25.2696 173.678 25.574 173.668 25.574C173.589 25.6035 173.511 25.5642 173.481 25.4856C173.452 25.4071 173.491 25.3285 173.57 25.2991C173.609 25.2893 174.552 24.9652 175.279 25.2107C175.642 25.3383 176.015 25.741 176.28 26.3105C176.693 27.1845 176.761 28.1861 176.467 28.9914C176.457 29.0307 176.398 29.0699 176.339 29.0699Z" fill="#88BFBF"/>
<path d="M178.274 30.6313C178.284 30.7099 178.215 30.7786 178.137 30.7884H178.127C178.048 30.7884 177.989 30.7295 177.98 30.651C177.97 30.5528 177.95 30.4546 177.921 30.3662C177.498 30.5724 177.116 30.6411 176.801 30.6411C176.183 30.6411 175.809 30.3858 175.79 30.3662C175.721 30.3171 175.711 30.2287 175.751 30.16C175.8 30.0912 175.888 30.0814 175.957 30.1207C175.976 30.1305 176.291 30.3465 176.801 30.3465C177.076 30.3465 177.41 30.2876 177.793 30.101C177.734 30.0028 177.675 29.9439 177.675 29.9439C177.616 29.885 177.626 29.7868 177.685 29.7377C177.744 29.6886 177.842 29.6886 177.891 29.7475C177.911 29.777 178.245 30.1501 178.274 30.6313Z" fill="#88BFBF"/>
<path d="M178.804 27.8249C178.94 27.8165 179.036 27.5903 179.019 27.3196C179.002 27.0489 178.878 26.8364 178.743 26.8448C178.608 26.8532 178.512 27.0795 178.529 27.3501C178.545 27.6208 178.669 27.8334 178.804 27.8249Z" fill="#88BFBF"/>
<path d="M174.794 27.7856C174.919 27.7779 175.007 27.5697 174.992 27.3207C174.976 27.0717 174.863 26.8761 174.738 26.8839C174.614 26.8917 174.525 27.0998 174.541 27.3488C174.556 27.5978 174.67 27.7934 174.794 27.7856Z" fill="#88BFBF"/>
<path d="M172.048 28.3334C171.969 28.3334 171.901 28.2647 171.901 28.1861C171.901 27.754 171.547 27.4104 171.125 27.4104C171.046 27.4104 170.978 27.3416 170.978 27.2631C170.978 27.1845 171.046 27.1158 171.125 27.1158C171.714 27.1158 172.195 27.5969 172.195 28.1861C172.195 28.2745 172.126 28.3334 172.048 28.3334Z" fill="#88BFBF"/>
<path d="M181.927 28.3334C181.848 28.3334 181.779 28.2647 181.779 28.1861C181.779 27.5969 182.26 27.1158 182.85 27.1158C182.928 27.1158 182.997 27.1845 182.997 27.2631C182.997 27.3416 182.928 27.4104 182.85 27.4104C182.418 27.4104 182.074 27.7639 182.074 28.1861C182.074 28.2745 182.015 28.3334 181.927 28.3334Z" fill="#88BFBF"/>
<path d="M359.688 245.738L317.629 106.668C316.795 103.898 314.232 102.003 311.335 102.003H56.0638C53.1375 102.003 50.5646 103.938 49.7496 106.756L9.61523 245.738" stroke="#88BFBF" stroke-width="0.5892" stroke-miterlimit="10"/>
<path d="M125.992 55.0045H237.646" stroke="#88BFBF" stroke-width="0.5892" stroke-miterlimit="10"/>
<path d="M164.742 76.1372H191.119V98.7919H164.742C164.742 98.7919 164.742 75.2828 164.742 76.1372Z" fill="#F6C850"/>
<path d="M263.373 181.398L251.107 150.858H270.855L263.373 181.398Z" fill="#626A7F"/>
<path d="M229.72 110.095C232.351 105.116 237.527 102.003 243.153 102.003H258.345L268.666 110.095H229.72Z" fill="#626A7F"/>
<path d="M287.314 145.849H249.045L263.451 180.818C262.45 179.188 256.45 180.887 250.096 184.786C243.821 188.635 239.579 193.27 240.443 194.959L209.392 140.93C201.34 127.299 211.16 110.095 226.99 110.095H312.748L312.934 110.684C318.532 128.065 305.569 145.849 287.314 145.849Z" fill="#88BFBF"/>
<path d="M314.23 120.121C314.093 123.312 313.386 126.396 312.188 129.254L267.212 110.105H311.854L312.895 113.149C313.621 114.975 314.024 117.538 314.23 120.121Z" fill="#E6E6E6"/>
<path d="M263.461 180.818C264.463 182.449 260.083 186.897 253.739 190.796C247.386 194.694 241.484 196.648 240.482 195.018C239.481 193.388 243.753 188.782 250.106 184.884C256.45 180.985 262.45 179.188 263.461 180.818Z" fill="#88BFBF"/>
<path d="M249.369 184.904L221.441 135.529C219.251 131.62 222.07 126.789 226.557 126.789H280.95C288.276 126.789 293.746 120.042 292.234 112.874" stroke="white" stroke-width="0.5892" stroke-miterlimit="10" stroke-linecap="round"/>
<path d="M240.158 195.126C239.157 193.496 243.487 188.311 250.106 184.452C257.54 180.121 262.352 178.835 263.785 181.133" stroke="white" stroke-width="0.5892" stroke-miterlimit="10" stroke-linecap="round"/>
<path d="M264 181.349L245.755 137.846" stroke="white" stroke-width="0.5892" stroke-miterlimit="10" stroke-linecap="round"/>
<path d="M225.919 109.771H270.433" stroke="white" stroke-width="0.5892" stroke-miterlimit="10"/>
<path d="M251.097 197.267L248.446 193.653L244.793 188.684C246.286 187.427 248.083 186.121 250.096 184.884C254.102 182.429 257.962 180.799 260.525 180.347L262.302 183.892L264.521 188.311C262.95 193.899 251.097 197.267 251.097 197.267Z" fill="#F5E4D4"/>
<path d="M262.312 183.892C260.662 185.905 257.559 188.449 253.739 190.795C251.903 191.925 250.106 192.887 248.456 193.653L244.803 188.684C246.295 187.427 248.092 186.121 250.106 184.884C254.112 182.429 257.971 180.799 260.534 180.347L262.312 183.892Z" fill="#626A7F"/>
<path d="M276.659 207.784L249.713 227.139C247.425 228.73 243.87 230.056 244.341 224.301C244.999 216.367 246.757 204.563 251.098 197.257C251.284 197.208 262.95 193.84 264.521 188.301L276.806 197.031C280.341 199.781 280.263 205.142 276.659 207.784Z" fill="white" stroke="#F6C850" stroke-width="0.5892" stroke-miterlimit="10"/>
<path d="M249.851 199.82C251.991 200.223 264.011 195.961 265.877 189.391" stroke="#F6C850" stroke-width="0.5892" stroke-miterlimit="10" stroke-linecap="round"/>
<path d="M246.954 225.146C246.954 225.146 264.542 200.714 277.052 202.089C290.673 203.571 235.818 239.395 246.954 225.146Z" fill="#F6C850"/>
<path d="M246.453 228.475C245.088 228.563 243.645 226.972 245.638 224.419C245.638 224.419 263.943 199.084 276.974 200.517C278.987 200.733 279.664 202.373 279.193 203.787" stroke="#F6C850" stroke-width="0.5892" stroke-miterlimit="10" stroke-linecap="round"/>
<path d="M314.331 122.114C308.105 120.641 292.609 116.763 274.933 112.677C266.625 110.763 259.672 105.106 256.088 97.368L239.993 62.5463L249.735 47.1093C252.73 42.3564 257.836 39.3318 263.443 38.9881L273.028 38.3989C282.691 37.8097 290.448 43.8392 293.394 53.0602L312.887 110.095C315.028 115.437 314.331 122.114 314.331 122.114Z" fill="white" stroke="#F69050" stroke-width="0.5892" stroke-miterlimit="10"/>
<path d="M248.468 64.5005C248.468 64.5005 253.594 72.5529 265.27 74.3303" stroke="#F69050" stroke-width="0.5892" stroke-miterlimit="10"/>
<path d="M255.382 49.8491C254.851 49.2795 253.918 49.4366 253.594 50.1339C253.231 50.9195 253.889 51.7935 254.743 51.6658C255.617 51.5381 255.981 50.4874 255.382 49.8491Z" fill="#F6C850" stroke="#F69050" stroke-width="0.5892" stroke-miterlimit="10" stroke-linejoin="round"/>
<path d="M279.844 66.6315C279.313 66.0619 278.38 66.219 278.056 66.9162C277.693 67.7018 278.351 68.5758 279.205 68.4482C280.079 68.3205 280.443 67.2698 279.844 66.6315Z" fill="#F6C850" stroke="#F69050" stroke-width="0.5892" stroke-miterlimit="10" stroke-linejoin="round"/>
<path d="M287.592 73.5055C287.061 72.9359 286.128 73.093 285.804 73.7902C285.441 74.5758 286.099 75.4498 286.953 75.3222C287.817 75.2043 288.181 74.1536 287.592 73.5055Z" fill="#F6C850" stroke="#F69050" stroke-width="0.5892" stroke-miterlimit="10" stroke-linejoin="round"/>
<path d="M302.449 112.402C301.919 111.833 300.986 111.99 300.662 112.687C300.298 113.473 300.956 114.347 301.811 114.219C302.675 114.092 303.038 113.051 302.449 112.402Z" fill="#F6C850" stroke="#F69050" stroke-width="0.5892" stroke-miterlimit="10" stroke-linejoin="round"/>
<path d="M294.132 93.8132C293.601 93.2437 292.668 93.4008 292.344 94.098C291.981 94.8836 292.639 95.7576 293.493 95.6299C294.367 95.5023 294.731 94.4515 294.132 93.8132Z" fill="#F6C850" stroke="#F69050" stroke-width="0.5892" stroke-miterlimit="10" stroke-linejoin="round"/>
<path d="M297.578 80.4384C296.812 80.5366 296.389 81.3909 296.772 82.0587C297.205 82.8148 298.295 82.7854 298.687 82.0096C299.09 81.224 298.442 80.3205 297.578 80.4384Z" fill="#F6C850" stroke="#F69050" stroke-width="0.5892" stroke-miterlimit="10" stroke-linejoin="round"/>
<path d="M303.853 100.275C303.087 100.373 302.665 101.227 303.048 101.895C303.48 102.651 304.57 102.622 304.963 101.846C305.365 101.06 304.727 100.157 303.853 100.275Z" fill="#F6C850" stroke="#F69050" stroke-width="0.5892" stroke-miterlimit="10" stroke-linejoin="round"/>
<path d="M277.831 78.877C277.301 78.3075 276.368 78.4646 276.044 79.1618C275.68 79.9474 276.338 80.8214 277.193 80.6937C278.057 80.5661 278.42 79.5251 277.831 78.877Z" fill="#F6C850" stroke="#F69050" stroke-width="0.5892" stroke-miterlimit="10" stroke-linejoin="round"/>
<path d="M272.42 90.003C271.889 89.4335 270.957 89.5906 270.632 90.2878C270.269 91.0734 270.927 91.9474 271.781 91.8197C272.655 91.6921 273.019 90.6413 272.42 90.003Z" fill="#F6C850" stroke="#F69050" stroke-width="0.5892" stroke-miterlimit="10" stroke-linejoin="round"/>
<path d="M262.736 86.1143C263.306 85.584 263.149 84.6512 262.452 84.3271C261.666 83.9638 260.792 84.6217 260.92 85.476C261.047 86.3402 262.088 86.7035 262.736 86.1143Z" fill="#F6C850" stroke="#F69050" stroke-width="0.5892" stroke-miterlimit="10" stroke-linejoin="round"/>
<path d="M271.329 105.263C271.899 104.733 271.742 103.8 271.044 103.476C270.259 103.113 269.385 103.771 269.513 104.625C269.64 105.499 270.691 105.862 271.329 105.263Z" fill="#F6C850" stroke="#F69050" stroke-width="0.5892" stroke-miterlimit="10" stroke-linejoin="round"/>
<path d="M285.794 88.8345C286.364 88.3042 286.206 87.3713 285.509 87.0472C284.724 86.6839 283.85 87.3418 283.977 88.1962C284.105 89.0603 285.156 89.4335 285.794 88.8345Z" fill="#F6C850" stroke="#F69050" stroke-width="0.5892" stroke-miterlimit="10" stroke-linejoin="round"/>
<path d="M290.733 109.398C291.303 108.867 291.146 107.934 290.449 107.61C289.663 107.247 288.789 107.905 288.917 108.759C289.035 109.633 290.085 109.997 290.733 109.398Z" fill="#F6C850" stroke="#F69050" stroke-width="0.5892" stroke-miterlimit="10" stroke-linejoin="round"/>
<path d="M261.116 67.7509C260.586 67.1814 259.653 67.3385 259.329 68.0357C258.965 68.8213 259.623 69.6953 260.478 69.5676C261.352 69.44 261.715 68.3892 261.116 67.7509Z" fill="#F6C850" stroke="#F69050" stroke-width="0.5892" stroke-miterlimit="10" stroke-linejoin="round"/>
<path d="M262.875 42.2779C262.345 41.7083 261.412 41.8654 261.088 42.5626C260.724 43.3482 261.382 44.2222 262.236 44.0946C263.11 43.9669 263.474 42.9162 262.875 42.2779Z" fill="#F6C850" stroke="#F69050" stroke-width="0.5892" stroke-miterlimit="10" stroke-linejoin="round"/>
<path d="M279.844 42.2779C279.313 41.7083 278.38 41.8654 278.056 42.5626C277.693 43.3482 278.351 44.2222 279.205 44.0946C280.079 43.9669 280.443 42.9162 279.844 42.2779Z" fill="#F6C850" stroke="#F69050" stroke-width="0.5892" stroke-miterlimit="10" stroke-linejoin="round"/>
<path d="M279.873 53.2763C279.156 53.561 278.95 54.4841 279.49 55.0439C280.089 55.6625 281.14 55.3777 281.336 54.5332C281.533 53.6789 280.688 52.9522 279.873 53.2763Z" fill="#F6C850" stroke="#F69050" stroke-width="0.5892" stroke-miterlimit="10" stroke-linejoin="round"/>
<path d="M270.229 47.0111C269.483 47.2272 269.198 48.1208 269.67 48.7296C270.21 49.4072 271.28 49.2206 271.555 48.4056C271.84 47.5709 271.064 46.7656 270.229 47.0111Z" fill="#F6C850" stroke="#F69050" stroke-width="0.5892" stroke-miterlimit="10" stroke-linejoin="round"/>
<path d="M268.806 74.2125C268.04 74.3009 267.608 75.1454 267.981 75.823C268.403 76.5791 269.493 76.5693 269.896 75.8033C270.308 75.0275 269.68 74.1143 268.806 74.2125Z" fill="#F6C850" stroke="#F69050" stroke-width="0.5892" stroke-miterlimit="10" stroke-linejoin="round"/>
<path d="M260.39 94.6676C259.624 94.7559 259.192 95.6005 259.565 96.278C259.987 97.0342 261.077 97.0244 261.48 96.2584C261.892 95.4826 261.264 94.5694 260.39 94.6676Z" fill="#F6C850" stroke="#F69050" stroke-width="0.5892" stroke-miterlimit="10" stroke-linejoin="round"/>
<path d="M263.218 55.1224C262.471 55.3385 262.187 56.2321 262.658 56.8409C263.198 57.5185 264.268 57.3319 264.543 56.5169C264.828 55.692 264.062 54.8867 263.218 55.1224Z" fill="#F6C850" stroke="#F69050" stroke-width="0.5892" stroke-miterlimit="10" stroke-linejoin="round"/>
<path d="M271.349 60.6216C270.602 60.8377 270.317 61.7313 270.789 62.3401C271.329 63.0177 272.399 62.8311 272.674 62.0161C272.959 61.1814 272.193 60.3761 271.349 60.6216Z" fill="#F6C850" stroke="#F69050" stroke-width="0.5892" stroke-miterlimit="10" stroke-linejoin="round"/>
<path d="M253.742 60.386C254.233 59.7869 253.968 58.8835 253.221 58.6576C252.396 58.4023 251.611 59.1683 251.856 59.9932C252.102 60.8377 253.182 61.0635 253.742 60.386Z" fill="#F6C850" stroke="#F69050" stroke-width="0.5892" stroke-miterlimit="10" stroke-linejoin="round"/>
<path d="M290.969 60.4154C291.46 59.8164 291.195 58.9129 290.449 58.6871C289.624 58.4318 288.838 59.1977 289.084 60.0226C289.319 60.8671 290.409 61.093 290.969 60.4154Z" fill="#F6C850" stroke="#F69050" stroke-width="0.5892" stroke-miterlimit="10" stroke-linejoin="round"/>
<path d="M281.522 100.226C282.013 99.6267 281.748 98.7232 281.001 98.4974C280.177 98.242 279.391 99.008 279.636 99.8329C279.872 100.668 280.962 100.893 281.522 100.226Z" fill="#F6C850" stroke="#F69050" stroke-width="0.5892" stroke-miterlimit="10" stroke-linejoin="round"/>
<path d="M273.684 38.0749C273.468 38.0847 273.252 38.0945 273.027 38.1043L263.442 38.6935C260.997 38.8408 258.66 39.4988 256.539 40.5888L253.593 31.7704L266.722 22.1468L273.684 38.0749Z" fill="#F5E4D4"/>
<path d="M256.499 40.4513C259.229 39.214 261.409 37.0143 262.647 34.2843L267.419 23.7278L266.722 22.137L253.593 31.7606L256.499 40.4513Z" fill="#626A7F"/>
<path d="M267.567 23.0306C267.567 23.9439 267.193 24.7687 266.594 25.3678C265.995 25.9668 265.17 26.3399 264.257 26.3399H261.37C260.231 30.7688 255.822 33.8031 251.079 32.9684L248.909 32.5855C246.532 32.1632 244.912 29.9439 245.246 27.5576L247.789 14.8211C248.231 12.1009 251.03 10.4414 253.632 11.3743L257.845 13.0633C260.123 13.8489 261.655 15.9897 261.655 18.3956V19.6231L264.257 19.7213C266.084 19.7213 267.567 21.2041 267.567 23.0306Z" fill="#F5E4D4"/>
<path d="M262.676 23.6689C262.676 22.4021 263.697 21.3809 264.964 21.3809" stroke="#626A7F" stroke-width="0.491" stroke-miterlimit="10" stroke-linecap="round"/>
<path d="M249.202 17.502C249.202 17.502 251.264 17.502 252.737 19.4758" stroke="#626A7F" stroke-width="0.491" stroke-miterlimit="10" stroke-linecap="round"/>
<path d="M250.573 21.1773C250.677 20.6063 250.545 20.1042 250.278 20.0557C250.011 20.0072 249.711 20.4307 249.607 21.0017C249.503 21.5727 249.635 22.0748 249.902 22.1233C250.169 22.1718 250.469 21.7483 250.573 21.1773Z" fill="#626A7F"/>
<path d="M264.257 19.7213C266.084 19.7213 267.567 21.2041 267.567 23.0306C267.567 23.0404 267.567 23.0601 267.567 23.0797C269.04 20.8113 272.653 15.0371 272.653 13.083C272.653 10.461 269.383 7.83908 265.995 9.03712C266.221 8.87018 266.457 8.69342 266.703 8.50684C268.009 7.48556 268.696 6.71961 268.804 6.16969C268.843 5.97329 268.814 5.79652 268.716 5.65904C268.323 5.0993 267.891 4.8538 267.429 4.93236C266.752 5.04038 266.054 5.87508 265.357 7.407C265.043 8.10422 264.797 8.79163 264.66 9.21388C264.385 7.57394 263.059 2.14349 257.364 2.97819C255.4 3.26297 254.477 4.07802 254.221 4.97164C252.591 3.69504 250.411 2.6934 248.604 3.64594C245.482 5.28588 245.864 7.97656 247.671 9.88164C245.963 9.85218 244.765 10.353 244.765 11.7965C244.765 13.1222 246.13 13.7605 248.005 14.0159C249.881 14.2712 252.287 14.1337 254.369 13.898C255.851 13.7311 257.187 13.5249 258.041 13.3776C257.472 14.5461 257.246 15.5478 257.295 16.3923C257.383 18.1403 258.65 19.1714 260.437 19.5347C260.82 19.6133 261.233 19.6624 261.655 19.682L264.257 19.7213ZM267.488 5.32516C267.518 5.31534 267.547 5.31534 267.586 5.31534C267.861 5.31534 268.126 5.51174 268.392 5.8849C268.411 5.92418 268.441 5.9831 268.421 6.09112C268.264 6.88654 266.251 8.39882 265.082 9.19424C265.544 7.83908 266.516 5.4921 267.488 5.32516Z" fill="#F6C850"/>
<path d="M256.421 8.23188C255.743 8.23188 255.056 7.86854 254.555 7.23024C253.995 6.5232 253.808 5.64922 254.044 4.89308C254.074 4.79488 254.172 4.73595 254.27 4.75559C254.309 4.75559 254.349 4.76542 254.378 4.79488C255.861 5.85544 257.049 7.36772 256.872 7.96674C256.833 8.12386 256.705 8.22206 256.538 8.23188C256.499 8.23188 256.46 8.23188 256.421 8.23188ZM254.358 5.26624C254.27 5.8358 254.447 6.46428 254.859 6.98474C255.301 7.54448 255.91 7.86853 256.499 7.82925C256.519 7.57393 255.861 6.40536 254.358 5.26624Z" fill="white"/>
<path d="M237.035 94.9424H174.187C172.636 94.9424 171.703 93.2338 172.528 91.9277L180.894 78.7885C181.984 77.0799 183.86 76.0488 185.883 76.0488H228.423L237.035 94.9424Z" fill="#F5E4D4"/>
<path d="M187.268 76.0586L192.276 67.8098C192.57 67.3188 193.11 67.0144 193.68 67.0144C194.966 67.0144 195.752 68.4186 195.084 69.5185L191.107 76.0586H187.268Z" fill="#F69050"/>
<path d="M237.036 94.9424H222.905C222.875 94.913 222.836 94.8737 222.806 94.8442C219.369 91.309 217.906 85.9473 219.841 80.782L221.854 76.0488H228.423L237.036 94.9424Z" fill="#626A7F"/>
<path d="M183.065 86.1241H175.19C174.66 86.1241 174.169 86.4089 173.903 86.8704L173.069 88.3238C172.509 89.3058 173.216 90.5333 174.355 90.5333H180.689C181.789 90.5333 182.81 89.9637 183.39 89.021L184.067 87.9113C184.538 87.1257 183.979 86.1241 183.065 86.1241Z" fill="#F5E4D4"/>
<path d="M181.032 90.5333H173.157C172.626 90.5333 172.135 90.818 171.87 91.2796L171.035 92.7329C170.476 93.7149 171.183 94.9424 172.322 94.9424H178.656C179.756 94.9424 180.777 94.3729 181.356 93.4302L182.034 92.3205C182.515 91.5349 181.946 90.5333 181.032 90.5333Z" fill="#F5E4D4"/>
<path d="M185.314 81.656H177.438C176.908 81.656 176.417 81.9408 176.151 82.4023L175.317 83.8557C174.757 84.8377 175.464 86.0652 176.603 86.0652H182.937C184.037 86.0652 185.058 85.4956 185.638 84.5529L186.315 83.4433C186.796 82.6577 186.227 81.656 185.314 81.656Z" fill="#F5E4D4"/>
<path d="M183.065 86.1241H175.19C174.66 86.1241 174.169 86.4089 173.903 86.8704L173.069 88.3238C172.509 89.3058 173.216 90.5333 174.355 90.5333H180.689C181.789 90.5333 182.81 89.9637 183.39 89.021L184.067 87.9113C184.538 87.1257 183.979 86.1241 183.065 86.1241Z" stroke="#626A7F" stroke-width="0.491" stroke-miterlimit="10" stroke-linecap="round"/>
<path d="M181.032 90.5333H173.157C172.626 90.5333 172.135 90.818 171.87 91.2796L171.035 92.7329C170.476 93.7149 171.183 94.9424 172.322 94.9424H178.656C179.756 94.9424 180.777 94.3729 181.356 93.4302L182.034 92.3205C182.515 91.5349 181.946 90.5333 181.032 90.5333Z" stroke="#626A7F" stroke-width="0.491" stroke-miterlimit="10" stroke-linecap="round"/>
<path d="M185.314 81.656H177.438C176.908 81.656 176.417 81.9408 176.151 82.4023L175.317 83.8557C174.757 84.8377 175.464 86.0652 176.603 86.0652H182.937C184.037 86.0652 185.058 85.4956 185.638 84.5529L186.315 83.4433C186.796 82.6577 186.227 81.656 185.314 81.656Z" stroke="#626A7F" stroke-width="0.491" stroke-miterlimit="10" stroke-linecap="round"/>
<path d="M196.714 88.2256C194.348 88.2256 192.07 87.3712 190.282 85.8099L187.297 83.1977H184.548L183.84 83.9539C182.574 85.309 181.012 86.0848 179.156 86.0848H177.84C177.153 86.0848 176.731 85.3188 177.104 84.7395L180.413 79.5545H196.724V88.2256H196.714Z" fill="#F5E4D4"/>
<path d="M180.413 79.5545L177.104 84.7395C176.731 85.3188 177.153 86.0848 177.84 86.0848H179.156C181.012 86.0848 182.574 85.3188 183.84 83.9539L184.548 83.1977H187.297L190.282 85.8099C192.06 87.3614 194.348 88.2256 196.714 88.2256" stroke="#626A7F" stroke-width="0.491" stroke-miterlimit="10" stroke-linecap="round"/>
<path d="M263.02 76.5791L248.025 93.332C244.873 96.8574 240.365 98.8705 235.632 98.8705C226.283 98.8705 219.812 89.5415 223.092 80.782L240.905 38.9292L234.886 35.5609C234.031 34.8932 233.619 33.8032 233.806 32.7426L234.827 25.8588C235.141 24.3269 236.702 23.1288 238.225 22.7753L245.275 21.1845C245.874 21.047 246.424 21.5576 246.326 22.1566L245.305 27.4693C244.902 30.0617 246.65 32.3007 249.243 32.7426C251.364 33.1059 252.856 35.2369 252.66 37.3776L247.858 67.3286C247.848 67.3483 252.768 75.0177 263.02 76.5791Z" fill="#F5E4D4"/>
<path d="M251.52 44.4971L245.727 82.1176" stroke="#626A7F" stroke-width="0.491" stroke-miterlimit="10" stroke-linecap="round"/>
<path d="M239.51 26.3596L239.432 28.7949C239.402 29.7966 240.001 30.6804 240.865 30.9259L249.89 32.7524" stroke="#626A7F" stroke-width="0.491" stroke-miterlimit="10" stroke-linecap="round"/>
<path d="M256.028 33.538L248.811 32.5757C246.434 32.1534 244.814 29.9341 245.148 27.5478L246.081 22.2156C246.169 21.7147 245.717 21.2925 245.226 21.4103L237.861 23.1288" stroke="#626A7F" stroke-width="0.491" stroke-miterlimit="10" stroke-linecap="round"/>
<path d="M252.041 88.8148L271.563 67.093" stroke="#F69050" stroke-width="0.5892" stroke-miterlimit="10"/>
<path d="M241.111 38.939H244.558" stroke="#626A7F" stroke-width="0.491" stroke-miterlimit="10" stroke-linecap="round"/>
<path d="M239.521 27.0077V27.7933C239.521 28.7262 240.198 29.4922 241.033 29.4922H242.113C242.584 29.4922 242.958 29.0699 242.958 28.5396L243.026 23.4136C243.036 22.6182 242.192 22.1272 241.504 22.2941" stroke="#626A7F" stroke-width="0.491" stroke-miterlimit="10" stroke-linecap="round"/>
<path d="M243.026 27.0077V27.7933C243.026 28.7262 243.704 29.4922 244.539 29.4922H245.226" stroke="#626A7F" stroke-width="0.491" stroke-miterlimit="10" stroke-linecap="round"/>
<path d="M308.242 150.858L319.643 245.738" stroke="#88BFBF" stroke-width="0.5892" stroke-miterlimit="10"/>
<path d="M258.828 150.858L247.427 245.738" stroke="#88BFBF" stroke-width="0.5892" stroke-miterlimit="10"/>
<path d="M251.335 213.156H315.725" stroke="#88BFBF" stroke-width="0.5892" stroke-miterlimit="10"/>
<path d="M252.258 151.152H314.222C315.047 151.152 315.715 150.484 315.715 149.66V147.637C315.715 146.812 315.047 146.144 314.222 146.144H252.258C251.433 146.144 250.766 146.812 250.766 147.637V149.66C250.766 150.484 251.433 151.152 252.258 151.152Z" fill="white" stroke="#F6C850" stroke-width="0.5892" stroke-miterlimit="10"/>
<path d="M149.149 79.3483L139.663 98.8705H110.998L122.517 79.3483H149.149Z" fill="white" stroke="#88BFBF" stroke-width="0.491" stroke-miterlimit="10"/>
<path d="M142.865 84.111C142.865 84.111 141.617 81.9801 138.622 82.53C136.383 82.9326 133.732 84.7788 132.102 83.787C130.472 82.7951 129.028 81.5578 126.917 82.147C124.806 82.7362 123.244 83.8655 123.244 83.8655" stroke="#88BFBF" stroke-width="0.491" stroke-miterlimit="10"/>
<path d="M141.882 87.1552C141.882 87.1552 140.635 85.0243 137.64 85.5742C135.401 85.9768 132.749 87.823 131.119 86.8312C129.489 85.8394 128.046 84.602 125.934 85.1912C123.823 85.7804 122.262 86.9097 122.262 86.9097" stroke="#88BFBF" stroke-width="0.491" stroke-miterlimit="10"/>
<path d="M159.93 166.962C159.93 169.584 152.654 171.705 143.541 171.705C134.428 171.705 127.367 169.584 127.367 166.962C127.367 164.34 134.428 162.219 143.541 162.219C152.654 162.219 159.93 164.35 159.93 166.962Z" fill="#F69050"/>
<path d="M155.738 163.771V197.65L154.707 192.76C153.597 187.496 148.952 183.735 143.571 183.735C141.951 183.735 140.36 184.079 138.916 184.727C138.867 184.746 138.818 184.776 138.759 184.795L134.978 171.008L132.877 163.339C135.754 162.642 139.476 162.219 143.541 162.219C148.373 162.219 152.723 162.818 155.738 163.771Z" fill="#A0505A"/>
<path d="M155.737 163.771V170.154C152.722 171.106 148.372 171.705 143.54 171.705C140.408 171.705 137.482 171.45 134.977 171.018L132.876 163.349C135.753 162.651 139.475 162.229 143.54 162.229C148.372 162.219 152.722 162.818 155.737 163.771Z" fill="#E0712C"/>
<path d="M155.011 196.658C155.276 196.737 157.77 197.434 159.98 197.434C161.178 197.434 162.287 197.228 162.916 196.599C163.456 196.059 163.584 195.273 163.299 194.282C163.044 193.398 162.553 192.848 161.836 192.651C160.52 192.298 158.693 193.28 157.25 194.311C159.499 191.581 161.718 188.115 160.893 185.846C160.598 185.041 159.931 184.501 159.096 184.403C158.399 184.324 157.751 184.57 157.446 185.031C156.032 187.182 154.873 196.01 154.824 196.383L155.011 196.658ZM157.859 185.306C158.035 185.041 158.409 184.884 158.841 184.884C158.909 184.884 158.978 184.884 159.047 184.894C159.361 184.933 160.117 185.11 160.441 186.013C160.657 186.612 160.736 187.712 159.862 189.558C159.037 191.306 157.544 193.359 155.423 195.686C155.737 193.447 156.739 187.005 157.859 185.306ZM162.572 196.255C161.924 196.904 160.451 197.1 158.3 196.825C157.171 196.678 156.12 196.442 155.561 196.295C155.983 195.922 156.769 195.244 157.682 194.615C159.43 193.408 160.824 192.887 161.718 193.133C162.258 193.28 162.621 193.702 162.837 194.419C163.073 195.244 162.985 195.843 162.572 196.255Z" fill="#F6C850"/>
<path d="M135.077 187.545L132.808 190.088C130.235 192.976 129.813 197.178 131.767 200.517L141.754 217.643C143.708 220.992 147.293 223.044 151.162 223.044H155.296C158.291 223.044 160.52 220.295 159.902 217.368L154.697 192.769C153.587 187.506 148.942 183.745 143.561 183.745C140.33 183.735 137.237 185.12 135.077 187.545Z" fill="white" stroke="#88BFBF" stroke-width="0.491" stroke-miterlimit="10"/>
<path d="M142.805 194.949L155.699 219.931C156.307 221.061 157.063 221.787 157.928 222.249C157.181 222.75 156.278 223.054 155.296 223.054H151.162C147.283 223.054 143.698 220.992 141.754 217.653L131.767 200.517C131.365 199.82 131.06 199.093 130.854 198.337C129.44 193.084 135.42 188.959 139.908 192.043C140.929 192.74 141.931 193.683 142.805 194.949Z" fill="#88BFBF"/>
<path d="M142.833 195.008H130.932C130.991 194.822 131.059 194.645 131.138 194.478H142.451C142.568 194.635 142.686 194.792 142.804 194.959L142.833 195.008Z" fill="white"/>
<path d="M144.581 198.386H130.873C130.873 198.367 130.863 198.347 130.863 198.337C130.824 198.18 130.784 198.013 130.755 197.856H144.316L144.581 198.386Z" fill="white"/>
<path d="M146.329 201.774H132.503L132.188 201.234H146.054L146.329 201.774Z" fill="white"/>
<path d="M148.077 205.162H134.476L134.162 204.622H147.802L148.077 205.162Z" fill="white"/>
<path d="M149.825 208.54H136.45L136.136 208.01H149.55L149.825 208.54Z" fill="white"/>
<path d="M151.574 211.928H138.425L138.11 211.388H151.289L151.574 211.928Z" fill="white"/>
<path d="M153.321 215.316H140.398L140.084 214.776H153.037L153.321 215.316Z" fill="white"/>
<path d="M155.059 218.694H142.45C142.323 218.517 142.195 218.341 142.077 218.164H154.784L155.059 218.694Z" fill="white"/>
<path d="M157.643 222.082H146.683C146.33 221.925 145.986 221.748 145.652 221.552H156.936C157.161 221.748 157.397 221.925 157.643 222.082Z" fill="white"/>
<path d="M119.708 166.265C119.62 168.858 112.265 170.959 103.21 170.959C94.1565 170.959 86.8013 168.867 86.7129 166.265V145.849H119.708V166.265Z" fill="#E0712C"/>
<path d="M117.518 169.653L117.469 172.079L116.998 195.755V195.067C116.998 188.989 112.068 184.059 105.99 184.059H105.322C102.219 184.059 99.4199 185.267 97.3479 187.211L95.9044 177.45L95.0107 171.411C97.4265 171.814 100.225 172.04 103.201 172.04C109.328 172.03 114.661 171.067 117.518 169.653Z" fill="#A0505A"/>
<path d="M117.517 169.653L117.468 172.079C113.815 174.671 102.532 177.863 95.9131 177.44L95.0195 171.401C97.4353 171.794 100.234 172.029 103.209 172.029C109.327 172.029 114.66 171.067 117.517 169.653Z" fill="#E0712C"/>
<path d="M106.49 223.368H108.317C113.109 223.368 116.998 219.48 116.998 214.688V195.067C116.998 188.989 112.068 184.059 105.99 184.059H105.322C98.2514 184.059 92.8013 190.295 93.7538 197.306L96.0615 214.275C96.7784 219.48 101.227 223.368 106.49 223.368Z" fill="white" stroke="#88BFBF" stroke-width="0.491" stroke-miterlimit="10"/>
<path d="M114.268 221.002C112.717 222.465 110.615 223.368 108.317 223.368H106.491C101.227 223.368 96.7789 219.48 96.0719 214.275L93.7642 197.306C93.7249 196.982 93.6856 196.658 93.6758 196.344C94.265 192.583 97.5154 189.705 101.443 189.705C103.378 189.705 105.165 190.413 106.55 191.591C107.934 192.769 108.907 194.429 109.211 196.344L112.245 217.054C112.471 218.596 113.198 219.971 114.268 221.002Z" fill="#88BFBF"/>
<path d="M108.298 193.722H94.5791C94.6773 193.535 94.7951 193.358 94.913 193.192H107.974C108.091 193.358 108.199 193.535 108.298 193.722Z" fill="white"/>
<path d="M109.319 197.1H93.7346C93.715 196.923 93.6954 196.746 93.6855 196.57H109.24L109.319 197.1Z" fill="white"/>
<path d="M109.819 200.488H94.1958L94.1172 199.958H109.741L109.819 200.488Z" fill="white"/>
<path d="M110.311 203.876H94.6577L94.5791 203.336H110.232L110.311 203.876Z" fill="white"/>
<path d="M110.812 207.254H95.1196L95.041 206.724H110.733L110.812 207.254Z" fill="white"/>
<path d="M111.302 210.642H95.5707L95.502 210.111H111.224L111.302 210.642Z" fill="white"/>
<path d="M111.804 214.03H96.0326L95.9639 213.49H111.725L111.804 214.03Z" fill="white"/>
<path d="M112.304 217.408H97.0042C96.9159 217.231 96.8373 217.054 96.7686 216.877H112.215L112.245 217.054C112.265 217.172 112.284 217.29 112.304 217.408Z" fill="white"/>
<path d="M114.062 220.796H99.5969C99.4005 220.629 99.2041 220.442 99.0273 220.265H113.61C113.748 220.452 113.905 220.629 114.062 220.796Z" fill="white"/>
<path d="M126.849 60.1503V76.6871C126.132 74.8115 120.456 75.0767 114.21 77.4433C108.859 79.476 104.842 82.2649 104.253 84.1994V60.926C104.253 54.0029 107.955 47.8163 113.641 44.4383C121.025 45.7247 126.849 52.1568 126.849 60.1503Z" fill="#F6C850"/>
<path d="M103.82 45.1846C98.7926 48.6805 95.5913 54.4841 95.5913 60.9261V80.1242H67.6338L71.493 63.5087C73.133 56.4285 78.259 50.782 84.9366 48.3761L103.82 45.1846Z" fill="#F6C850"/>
<path d="M160.363 127.358V165.902C160.363 163.28 152.654 161.159 143.541 161.159C134.428 161.159 127.044 163.28 127.044 165.902V147.43C127.044 146.566 126.337 145.859 125.473 145.859H75.3514C60.2777 145.859 49.1319 131.826 52.5395 117.146L64.6377 65.021C66.5625 56.7034 73.299 50.3695 81.7147 48.9358L84.9357 48.3859C78.2581 50.7918 73.132 56.4383 71.4921 63.5185L67.6328 80.134H95.5904V60.926C95.5904 54.4841 98.8015 48.6707 103.82 45.1846L108.239 44.4383C109.152 44.2811 110.045 44.2124 110.939 44.2124C111.057 44.2124 111.165 44.2124 111.283 44.2124C111.391 44.2124 111.499 44.2222 111.597 44.2222C111.617 44.2222 111.636 44.2222 111.656 44.2222C111.734 44.2222 111.823 44.232 111.901 44.232C111.911 44.232 111.931 44.232 111.941 44.232C111.99 44.232 112.039 44.2419 112.078 44.2419C112.167 44.2517 112.245 44.2517 112.333 44.2615C112.432 44.2713 112.54 44.2811 112.638 44.291C112.736 44.3008 112.824 44.3106 112.923 44.3204C112.942 44.3204 112.962 44.3302 112.991 44.3302C113.09 44.3401 113.198 44.3597 113.296 44.3695C113.306 44.3695 113.315 44.3695 113.315 44.3695C113.423 44.3892 113.532 44.399 113.64 44.4186C107.954 47.7967 104.252 53.9833 104.252 60.9064V108.092H141.116C151.741 108.111 160.363 116.723 160.363 127.358Z" fill="#F69050"/>
<path d="M104.458 44.7525C99.43 48.2484 95.5806 54.4841 95.5806 60.926V80.1241H67.623L71.4823 63.5087C73.1222 56.4285 77.8162 50.674 84.5036 48.2681" stroke="white" stroke-width="0.5892" stroke-miterlimit="10" stroke-linecap="round"/>
<path d="M127.044 141.509C127.044 136.039 128.978 130.746 132.504 126.573" stroke="white" stroke-width="0.5892" stroke-miterlimit="10" stroke-linecap="round"/>
<path d="M86.2026 139.555C86.1535 139.555 86.1044 139.545 86.0651 139.515L84.7689 138.808C84.6216 138.73 84.5725 138.553 84.651 138.406C84.7296 138.259 84.9063 138.209 85.0536 138.288L86.3499 138.995C86.4972 139.074 86.5463 139.25 86.4677 139.398C86.4088 139.496 86.3106 139.555 86.2026 139.555ZM87.4988 139.221C87.3908 139.221 87.2926 139.162 87.2435 139.064C87.1649 138.916 87.214 138.74 87.3613 138.661L88.6576 137.954C88.8049 137.876 88.9816 137.934 89.0602 138.072C89.1388 138.219 89.0897 138.396 88.9424 138.475L87.6461 139.182C87.597 139.201 87.5479 139.221 87.4988 139.221ZM83.6101 138.151C83.561 138.151 83.5119 138.141 83.4726 138.111L82.1764 137.404C82.0291 137.326 81.98 137.149 82.0585 137.002C82.1371 136.854 82.3139 136.805 82.4612 136.884L83.7574 137.591C83.9047 137.669 83.9538 137.846 83.8752 137.993C83.8163 138.092 83.7181 138.151 83.6101 138.151ZM90.0815 137.807C89.9735 137.807 89.8753 137.748 89.8262 137.65C89.7476 137.502 89.7967 137.326 89.944 137.247L91.2402 136.54C91.4661 136.422 91.6723 136.285 91.8785 136.137C92.0062 136.039 92.1928 136.069 92.291 136.196C92.3892 136.324 92.3597 136.511 92.2321 136.609C92.0062 136.776 91.7705 136.923 91.525 137.06L90.2288 137.768C90.1797 137.797 90.1306 137.807 90.0815 137.807ZM81.0471 136.697C80.9882 136.697 80.9292 136.678 80.8703 136.638C80.4579 136.334 80.0749 135.98 79.7508 135.578C79.6428 135.45 79.6625 135.263 79.7901 135.165C79.9178 135.057 80.1044 135.077 80.2026 135.205C80.4972 135.568 80.8409 135.882 81.214 136.157C81.3417 136.255 81.3711 136.442 81.2828 136.569C81.2337 136.658 81.1453 136.697 81.0471 136.697ZM93.1159 135.666C93.0471 135.666 92.9882 135.646 92.9293 135.597C92.8016 135.499 92.782 135.313 92.89 135.185C93.1846 134.822 93.4301 134.429 93.6265 133.997C93.6952 133.849 93.872 133.781 94.0193 133.849C94.1666 133.918 94.2353 134.095 94.1666 134.242C93.9506 134.714 93.6756 135.155 93.3515 135.548C93.2828 135.627 93.2042 135.666 93.1159 135.666ZM79.2009 134.448C79.0929 134.448 78.9849 134.389 78.9358 134.281C78.7197 133.81 78.5626 133.319 78.4644 132.808C78.435 132.651 78.543 132.494 78.7001 132.465C78.8572 132.435 79.0143 132.543 79.0438 132.7C79.1322 133.162 79.2697 133.604 79.4661 134.026C79.5348 134.173 79.4661 134.35 79.3188 134.419C79.2795 134.439 79.2402 134.448 79.2009 134.448ZM94.3335 133.015C94.3139 133.015 94.2943 133.015 94.2844 133.015C94.1273 132.985 94.0193 132.828 94.0488 132.671C94.1077 132.347 94.1371 132.023 94.1371 131.699V131.257C94.1371 131.09 94.2648 130.962 94.4317 130.962C94.5987 130.962 94.7263 131.09 94.7263 131.257V131.699C94.7263 132.062 94.6969 132.425 94.6281 132.779C94.5987 132.916 94.471 133.015 94.3335 133.015ZM78.6608 131.581C78.4939 131.581 78.3662 131.453 78.3662 131.286V129.813C78.3662 129.646 78.4939 129.519 78.6608 129.519C78.8278 129.519 78.9554 129.646 78.9554 129.813V131.286C78.9554 131.443 78.8179 131.581 78.6608 131.581ZM94.4219 130.078C94.255 130.078 94.1273 129.951 94.1273 129.784V128.311C94.1273 128.144 94.255 128.016 94.4219 128.016C94.5889 128.016 94.7165 128.144 94.7165 128.311V129.784C94.7165 129.951 94.5889 130.078 94.4219 130.078ZM78.6608 128.635C78.4939 128.635 78.3662 128.507 78.3662 128.34V126.867C78.3662 126.7 78.4939 126.573 78.6608 126.573C78.8278 126.573 78.9554 126.7 78.9554 126.867V128.34C78.9554 128.497 78.8179 128.635 78.6608 128.635ZM94.4219 127.132C94.255 127.132 94.1273 127.005 94.1273 126.838V125.365C94.1273 125.198 94.255 125.07 94.4219 125.07C94.5889 125.07 94.7165 125.198 94.7165 125.365V126.838C94.7165 127.005 94.5889 127.132 94.4219 127.132ZM78.6608 125.689C78.4939 125.689 78.3662 125.561 78.3662 125.394V123.921C78.3662 123.754 78.4939 123.627 78.6608 123.627C78.8278 123.627 78.9554 123.754 78.9554 123.921V125.394C78.9554 125.551 78.8179 125.689 78.6608 125.689ZM94.4219 124.186C94.255 124.186 94.1273 124.059 94.1273 123.892V122.419C94.1273 122.252 94.255 122.124 94.4219 122.124C94.5889 122.124 94.7165 122.252 94.7165 122.419V123.892C94.7165 124.059 94.5889 124.186 94.4219 124.186ZM78.6608 122.743C78.4939 122.743 78.3662 122.615 78.3662 122.448V121.182H79.1616C79.3286 121.182 79.4562 121.309 79.4562 121.476C79.4562 121.643 79.3286 121.771 79.1616 121.771H78.9554V122.448C78.9554 122.605 78.8179 122.743 78.6608 122.743ZM93.8916 121.771H92.4186C92.2517 121.771 92.124 121.643 92.124 121.476C92.124 121.309 92.2517 121.182 92.4186 121.182H93.8916C94.0586 121.182 94.1862 121.309 94.1862 121.476C94.1862 121.643 94.0586 121.771 93.8916 121.771ZM90.9456 121.771H89.4726C89.3057 121.771 89.178 121.643 89.178 121.476C89.178 121.309 89.3057 121.182 89.4726 121.182H90.9456C91.1126 121.182 91.2402 121.309 91.2402 121.476C91.2402 121.643 91.1126 121.771 90.9456 121.771ZM87.9996 121.771H86.5266C86.3597 121.771 86.232 121.643 86.232 121.476C86.232 121.309 86.3597 121.182 86.5266 121.182H87.9996C88.1666 121.182 88.2942 121.309 88.2942 121.476C88.2942 121.643 88.1666 121.771 87.9996 121.771ZM85.0536 121.771H83.5806C83.4137 121.771 83.286 121.643 83.286 121.476C83.286 121.309 83.4137 121.182 83.5806 121.182H85.0536C85.2206 121.182 85.3482 121.309 85.3482 121.476C85.3482 121.643 85.2206 121.771 85.0536 121.771ZM82.1076 121.771H80.6346C80.4677 121.771 80.34 121.643 80.34 121.476C80.34 121.309 80.4677 121.182 80.6346 121.182H82.1076C82.2746 121.182 82.4022 121.309 82.4022 121.476C82.4022 121.643 82.2746 121.771 82.1076 121.771Z" fill="white"/>
<path d="M58.412 137.925C58.3039 137.925 58.2057 137.866 58.1566 137.768C58.0781 137.62 58.1272 137.443 58.2745 137.365L59.4725 136.707C59.502 136.687 59.5314 136.678 59.5609 136.658C59.6984 136.579 59.885 136.628 59.9635 136.766C60.0421 136.903 59.993 137.09 59.8555 137.169C59.826 137.188 59.7966 137.208 59.7573 137.218L58.5593 137.876C58.5102 137.915 58.4611 137.925 58.412 137.925ZM60.8964 136.353C60.8179 136.353 60.7393 136.324 60.6804 136.255C60.5724 136.137 60.5822 135.951 60.7 135.843C61.0437 135.529 61.3481 135.165 61.6133 134.782C61.7017 134.645 61.8882 134.615 62.0257 134.704C62.1632 134.792 62.1927 134.979 62.1043 135.116C61.8195 135.538 61.4758 135.931 61.1026 136.285C61.0339 136.334 60.9652 136.353 60.8964 136.353ZM62.5364 133.938C62.4971 133.938 62.4676 133.928 62.4283 133.918C62.281 133.859 62.2025 133.692 62.2614 133.535C62.4283 133.093 62.5462 132.641 62.6149 132.18C62.6346 132.023 62.7819 131.905 62.9488 131.925C63.1059 131.944 63.2238 132.092 63.2041 132.259C63.1354 132.769 63.0077 133.27 62.8211 133.751C62.7622 133.869 62.6542 133.938 62.5364 133.938ZM62.9586 131.051C62.7917 131.051 62.664 130.923 62.664 130.756V129.283C62.664 129.116 62.7917 128.988 62.9586 128.988C63.1256 128.988 63.2532 129.116 63.2532 129.283V130.756C63.2532 130.913 63.1256 131.051 62.9586 131.051ZM62.9586 128.105C62.7917 128.105 62.664 127.977 62.664 127.81V126.337C62.664 126.17 62.7917 126.042 62.9586 126.042C63.1256 126.042 63.2532 126.17 63.2532 126.337V127.81C63.2532 127.967 63.1256 128.105 62.9586 128.105ZM62.9586 125.159C62.7917 125.159 62.664 125.031 62.664 124.864V123.391C62.664 123.224 62.7917 123.096 62.9586 123.096C63.1256 123.096 63.2532 123.224 63.2532 123.391V124.864C63.2532 125.021 63.1256 125.159 62.9586 125.159ZM62.9586 122.213C62.7917 122.213 62.664 122.085 62.664 121.918V121.771H61.9275C61.7606 121.771 61.6329 121.643 61.6329 121.476C61.6329 121.309 61.7606 121.182 61.9275 121.182H63.2532V121.918C63.2532 122.075 63.1256 122.213 62.9586 122.213ZM60.4545 121.771H58.9815C58.8146 121.771 58.6869 121.643 58.6869 121.476C58.6869 121.309 58.8146 121.182 58.9815 121.182H60.4545C60.6215 121.182 60.7491 121.309 60.7491 121.476C60.7491 121.643 60.6116 121.771 60.4545 121.771ZM57.5085 121.771H56.0355C55.8686 121.771 55.7409 121.643 55.7409 121.476C55.7409 121.309 55.8686 121.182 56.0355 121.182H57.5085C57.6755 121.182 57.8031 121.309 57.8031 121.476C57.8031 121.643 57.6656 121.771 57.5085 121.771ZM54.5625 121.771H53.0895C52.9226 121.771 52.7949 121.643 52.7949 121.476C52.7949 121.309 52.9226 121.182 53.0895 121.182H54.5625C54.7295 121.182 54.8571 121.309 54.8571 121.476C54.8571 121.643 54.7196 121.771 54.5625 121.771Z" fill="white"/>
<path d="M126.848 76.6871C127.565 78.5627 123.028 81.8917 116.792 84.2583C110.556 86.6249 104.969 86.9883 104.252 85.1028C103.535 83.2174 107.964 79.8197 114.209 77.4531C120.455 75.0864 126.131 74.8017 126.848 76.6871Z" fill="#F69050"/>
<path d="M130.334 137.61V138.651C130.01 138.573 129.666 138.533 129.323 138.533H128.056C126.18 138.533 124.58 137.335 123.971 135.666L127.565 135.185C129.028 134.988 130.334 136.128 130.334 137.61Z" fill="#E0712C"/>
<path d="M133.653 142.864V150.858C133.653 152.723 132.141 154.236 130.275 154.236H126.514C125.581 154.236 124.737 153.863 124.128 153.244C123.519 152.635 123.136 151.79 123.136 150.858H125.581C126.386 150.858 127.034 150.209 127.034 149.404V147.313C127.034 146.507 126.386 145.859 125.581 145.859H113.08C108.2 145.859 104.242 141.902 104.242 137.021V84.2092C104.831 82.2747 108.848 79.476 114.2 77.4531C117.853 76.0685 121.319 75.4007 123.705 75.4596V134.203C123.705 136.599 125.65 138.543 128.046 138.543H129.313C131.709 138.533 133.653 140.468 133.653 142.864Z" fill="#A0505A"/>
<path d="M123.705 75.4498V80.7919C121.928 81.9899 119.522 83.2174 116.782 84.2485C110.537 86.6151 104.959 86.9785 104.242 85.093V84.1994C104.831 82.2649 108.848 79.4662 114.2 77.4432C117.863 76.0586 121.319 75.3909 123.705 75.4498Z" fill="#E0712C"/>
<path d="M107.374 35.669L103.682 45.1846L84.6504 48.5921L89.6193 35.669H107.374Z" fill="#A0505A"/>
<path d="M107.374 35.669L105.381 40.8147L86.5068 43.7607L89.6198 35.669H107.374Z" fill="#E0712C"/>
<path d="M118.53 16.3039C118.53 17.5904 116.301 19.0143 113.728 20.2123C110.222 21.8522 106.088 23.0994 106.088 23.0994L103.299 28.3531C107.089 30.3662 108.572 33.9799 109.161 36.5037C109.535 38.1142 109.535 39.2631 109.535 39.2631H82.8046C82.8046 39.2631 75.7833 16.52 92.7032 11.0797C103.053 7.75072 118.53 13.2499 118.53 16.3039Z" fill="white" stroke="#F6C850" stroke-width="0.5892" stroke-miterlimit="10" stroke-linecap="round"/>
<path d="M90.2282 14.3203C93.8999 14.3203 96.8763 11.3438 96.8763 7.67216C96.8763 4.00049 93.8999 1.02402 90.2282 1.02402C86.5565 1.02402 83.5801 4.00049 83.5801 7.67216C83.5801 11.3438 86.5565 14.3203 90.2282 14.3203Z" fill="white" stroke="#F6C850" stroke-width="0.5892" stroke-miterlimit="10" stroke-linecap="round"/>
<path d="M109.152 36.5037C108.602 34.1174 107.227 30.7197 103.839 28.6673H102.965C102.16 28.6673 101.424 28.3433 100.893 27.813C100.363 27.2827 100.039 26.5462 100.039 25.741C100.039 24.1207 101.345 22.8146 102.965 22.8146L106.668 22.8932H106.766C106.835 22.8735 106.903 22.8441 106.982 22.8244C107.983 22.6084 111.155 21.8424 113.787 20.5266L114.091 22.3433L115.073 28.1665C115.741 32.1633 113.001 35.8458 109.152 36.5037Z" fill="#A0505A"/>
<path d="M114.081 22.3334C110.86 23.6395 106.657 22.8833 106.657 22.8833C106.657 22.8833 110.615 22.0977 113.777 20.5167L114.081 22.3334Z" fill="#E0712C"/>
<path d="M105.244 26.3007C105.244 25.1812 104.34 24.2778 103.221 24.2778" stroke="#E0712C" stroke-width="0.491" stroke-miterlimit="10" stroke-linecap="round"/>
<path d="M115.643 150.858L127.044 245.738" stroke="#88BFBF" stroke-width="0.5892" stroke-miterlimit="10"/>
<path d="M66.2183 150.858L54.8271 245.738" stroke="#88BFBF" stroke-width="0.5892" stroke-miterlimit="10"/>
<path d="M58.7354 213.156H123.125" stroke="#88BFBF" stroke-width="0.5892" stroke-miterlimit="10"/>
<path d="M56.31 150.858H125.551C126.376 150.858 127.043 150.19 127.043 149.365V147.342C127.043 146.517 126.376 145.849 125.551 145.849H56.31C55.4851 145.849 54.8174 146.517 54.8174 147.342V149.365C54.8272 150.19 55.495 150.858 56.31 150.858Z" fill="white" stroke="#F6C850" stroke-width="0.5892" stroke-miterlimit="10"/>
</svg>
