<svg width="204" height="155" viewBox="0 0 204 155" fill="none" xmlns="http://www.w3.org/2000/svg">
<path d="M193.226 120.231H49.5268C44.1222 120.231 39.7529 115.891 39.7529 110.524V10.7066C39.7529 5.33923 44.1222 1 49.5268 1H193.226C198.631 1 203 5.33923 203 10.7066V110.509C203.016 115.876 198.631 120.231 193.226 120.231Z" fill="white" stroke="#88BFBF" stroke-width="0.5892" stroke-miterlimit="10" stroke-linecap="round"/>
<path d="M193.319 110.947H51.0043C48.8882 110.947 47.1831 109.239 47.1831 107.152V11.6591C47.1831 9.55752 48.9034 7.86416 51.0043 7.86416H193.319C195.435 7.86416 197.14 9.57264 197.14 11.6591V107.137C197.155 109.239 195.435 110.947 193.319 110.947Z" fill="#88BFBF" stroke="#88BFBF" stroke-width="0.5892" stroke-miterlimit="10" stroke-linejoin="round"/>
<path d="M56.1041 16.7845H53.8509C53.1202 16.7845 52.5112 16.1949 52.5112 15.454V13.2164C52.5112 12.4906 53.105 11.8859 53.8509 11.8859H56.1041C56.8349 11.8859 57.4438 12.4755 57.4438 13.2164V15.454C57.4286 16.1949 56.8349 16.7845 56.1041 16.7845Z" stroke="white" stroke-width="0.5892" stroke-miterlimit="10" stroke-linecap="round"/>
<path d="M66.3512 16.7845H64.098C63.3673 16.7845 62.7583 16.1949 62.7583 15.454V13.2164C62.7583 12.4907 63.352 11.8859 64.098 11.8859H66.3512C67.0819 11.8859 67.6909 12.4755 67.6909 13.2164V15.454C67.6909 16.1949 67.0819 16.7845 66.3512 16.7845Z" stroke="white" stroke-width="0.5892" stroke-miterlimit="10" stroke-linecap="round"/>
<path d="M76.5963 16.7845H74.3431C73.6124 16.7845 73.0034 16.1949 73.0034 15.454V13.2164C73.0034 12.4907 73.5972 11.8859 74.3431 11.8859H76.5963C77.3271 11.8859 77.936 12.4755 77.936 13.2164V15.454C77.936 16.1949 77.3423 16.7845 76.5963 16.7845Z" stroke="white" stroke-width="0.5892" stroke-miterlimit="10" stroke-linecap="round"/>
<path d="M151.711 154.264H95.9302L106.876 120.231H140.75L151.711 154.264Z" fill="white" stroke="#88BFBF" stroke-width="0.5892" stroke-miterlimit="10" stroke-linecap="round"/>
<path d="M100.315 140.642L106.877 120.231H140.75L100.315 140.642Z" fill="#88BFBF"/>
<path d="M185.036 39.1762H157.922C155.38 39.1762 153.325 37.1351 153.325 34.6101V17.223C153.325 14.698 155.38 12.6569 157.922 12.6569H185.036C187.579 12.6569 189.634 14.698 189.634 17.223V34.6101C189.634 37.1351 187.579 39.1762 185.036 39.1762Z" stroke="white" stroke-width="0.5892" stroke-miterlimit="10" stroke-linecap="round"/>
<path d="M161.073 18.8559H181.762" stroke="white" stroke-width="0.5892" stroke-miterlimit="10" stroke-linecap="round"/>
<path d="M161.073 23.5429H181.762" stroke="white" stroke-width="0.5892" stroke-miterlimit="10" stroke-linecap="round"/>
<path d="M161.073 28.2298H181.762" stroke="white" stroke-width="0.5892" stroke-miterlimit="10" stroke-linecap="round"/>
<path d="M161.073 32.9168H181.762" stroke="white" stroke-width="0.5892" stroke-miterlimit="10" stroke-linecap="round"/>
<path d="M192.527 110.947H84.7562L78.4382 119.943C71.2981 130.104 56.2111 130.255 48.8731 120.231L10.3867 67.6609C12.0005 69.6567 19.3841 67.4341 26.4176 62.8379C33.5577 58.166 38.1706 52.2846 36.7243 50.1075L63.4121 83.8839L71.5874 69.5508C73.8253 65.7559 77.54 63.0344 81.8636 62.0365L109.678 56.1854H133.656L160.085 61.9761C164.682 63.0193 168.58 65.9978 170.787 70.1254L192.527 110.947Z" fill="white" stroke="#88BFBF" stroke-width="0.5892" stroke-miterlimit="10"/>
<path d="M162.946 110.328L155.289 95.3141" stroke="#88BFBF" stroke-width="0.5892" stroke-miterlimit="10" stroke-linecap="round"/>
<path d="M84.1465 111.734L91.7281 96.8714" stroke="#88BFBF" stroke-width="0.5892" stroke-miterlimit="10" stroke-linecap="round"/>
<path d="M53.0298 70.7755L70.4004 92.8346" stroke="#88BFBF" stroke-width="0.5892" stroke-miterlimit="10" stroke-linecap="round"/>
<path d="M124.659 63.4426L131.053 71.1686L145.363 59.1034" stroke="#88BFBF" stroke-width="0.5892" stroke-miterlimit="10" stroke-linecap="round"/>
<path d="M119.771 63.5938L113.559 71.471L97.833 59.1034" stroke="#88BFBF" stroke-width="0.5892" stroke-miterlimit="10" stroke-linecap="round"/>
<path d="M42.0219 56.8658C43.4682 59.0581 38.8401 65.0151 31.6543 69.7474C24.5904 74.4041 17.1002 76.6418 15.4712 74.6309" stroke="#88BFBF" stroke-width="0.5892" stroke-miterlimit="10" stroke-linecap="round"/>
<path d="M37.2423 60.691C38.1924 60.691 38.9626 59.926 38.9626 58.9825C38.9626 58.0389 38.1924 57.274 37.2423 57.274C36.2922 57.274 35.522 58.0389 35.522 58.9825C35.522 59.926 36.2922 60.691 37.2423 60.691Z" stroke="#88BFBF" stroke-width="0.5892" stroke-miterlimit="10" stroke-linecap="round"/>
<path d="M122.192 71.4257C123.142 71.4257 123.912 70.6607 123.912 69.7172C123.912 68.7736 123.142 68.0087 122.192 68.0087C121.241 68.0087 120.471 68.7736 120.471 69.7172C120.471 70.6607 121.241 71.4257 122.192 71.4257Z" stroke="#88BFBF" stroke-width="0.5892" stroke-miterlimit="10" stroke-linecap="round"/>
<path d="M122.192 85.1842C123.142 85.1842 123.912 84.4193 123.912 83.4757C123.912 82.5321 123.142 81.7672 122.192 81.7672C121.241 81.7672 120.471 82.5321 120.471 83.4757C120.471 84.4193 121.241 85.1842 122.192 85.1842Z" stroke="#88BFBF" stroke-width="0.5892" stroke-miterlimit="10" stroke-linecap="round"/>
<path d="M77.8896 120.669L84.7557 110.947V120.669H77.8896Z" fill="#88BFBF"/>
<path d="M26.2508 62.3843C19.2173 66.9805 11.8336 69.2031 10.2198 67.2073C10.1894 67.1771 10.1742 67.1468 10.1437 67.1015C9.80879 66.6025 9.83924 65.9222 10.1437 65.0906C11.1942 62.354 15.533 58.1206 21.0441 54.5222C25.4287 51.6496 29.7523 49.6538 32.7514 49.0339C34.487 48.6862 35.781 48.792 36.4052 49.4573L36.5574 49.6387C37.9885 51.8159 33.3908 57.7124 26.2508 62.3843Z" fill="#F69050"/>
<path d="M26.2501 62.3842C22.2462 64.9999 18.1205 66.8595 15.0148 67.5853L1.11524 48.1116C-0.818212 45.3902 -0.178806 41.6255 2.57675 39.7053L15.0909 30.9664L7.9965 18.9768C6.96126 17.2381 7.55499 14.9853 9.32098 13.9723C9.8995 13.6397 10.5237 13.4885 11.1479 13.4885C12.3506 13.4885 13.538 14.0782 14.2384 15.1668L36.4198 49.427L36.572 49.6689C37.9878 51.8159 33.3902 57.7124 26.2501 62.3842Z" fill="#F5E4D4"/>
<path d="M15.0593 31.1025L22.8083 43.0316C23.5239 44.1504 23.2042 45.6321 22.0776 46.3578L20.3573 47.4767C19.2307 48.2175 17.7083 47.9 16.9775 46.7812L9.65479 35.8953" stroke="#626A7F" stroke-width="0.5892" stroke-miterlimit="10" stroke-linecap="round"/>
<path d="M16.9474 46.7509C17.6934 47.8849 17.3585 49.4119 16.2167 50.1376L14.6486 51.1204C13.522 51.831 12.0301 51.5135 11.2993 50.4098" stroke="#626A7F" stroke-width="0.5892" stroke-miterlimit="10" stroke-linecap="round"/>
<path d="M4.09929 39.7356L11.2698 50.3191C12.0158 51.453 11.6961 52.9801 10.5238 53.7058L9.06233 54.5072C7.9662 55.2026 6.51992 54.9154 5.75872 53.857L1.60254 48.0361" stroke="#626A7F" stroke-width="0.5892" stroke-miterlimit="10" stroke-linecap="round"/>
<path d="M31.2442 41.4441L27.6056 35.8348C26.4029 33.9751 23.891 33.4611 22.0489 34.7009L13.021 40.7788C13.021 40.7788 15.6395 45.4507 22.0032 41.7464L24.1346 45.1181C19.7805 47.8546 18.5321 53.6151 21.3638 57.8938L31.2442 41.4441Z" fill="#F5E4D4"/>
<path d="M30.7722 41.5953L27.1337 35.986C25.931 34.1264 23.419 33.6123 21.5769 34.8521L13.021 40.7788C13.021 40.7788 15.6395 45.4507 22.0032 41.7465L24.1345 45.1181C19.7805 47.8547 18.5321 53.6151 21.3638 57.8939" stroke="#626A7F" stroke-width="0.5892" stroke-miterlimit="10" stroke-linecap="round"/>
<path d="M26.2498 62.3843C22.2459 64.9999 18.1201 66.8596 15.0144 67.5853L11.5586 62.7471C13.492 60.2373 16.9479 57.2135 21.0432 54.5374C25.4277 51.6647 29.7513 49.669 32.7504 49.0491C34.486 48.7013 35.78 48.8072 36.4042 49.4724L36.5565 49.6539C36.5717 49.6841 36.5869 49.6992 36.6021 49.7295C36.6174 49.7446 36.6173 49.7597 36.6326 49.7899C36.6478 49.8202 36.663 49.8353 36.6783 49.8655C37.7135 52.1788 33.1615 57.8485 26.2498 62.3843Z" fill="#626A7F"/>
<path d="M133.642 42.8804V56.1703C133.642 60.0257 128.252 63.1402 121.63 63.1402C114.992 63.1402 109.618 60.0257 109.618 56.1703V42.8804H133.642Z" fill="#F5E4D4"/>
<path d="M113.134 61.0991C110.957 59.8442 109.602 58.0904 109.602 56.1703V42.8804H133.641V46.5695C133.641 50.3947 131.296 53.8268 127.734 55.2631L113.134 61.0991Z" fill="#626A7F"/>
<path d="M140.339 42.0942V42.321C140.339 44.6191 138.466 46.4788 136.152 46.4788H133.397C132.468 50.1981 129.088 52.9649 125.039 52.9649H118.219C114.184 52.9649 110.789 50.2133 109.876 46.4788H107.12C104.806 46.4788 102.934 44.6191 102.934 42.321V42.0942C102.934 39.7961 104.806 37.9364 107.12 37.9364H109.617V34.6555C109.617 31.1478 112.22 28.2449 115.615 27.7611C116.361 29.0009 118.614 31.9643 123.212 31.798C125.374 31.7224 127.383 31.3142 129.043 30.8303C131.037 30.2558 133.032 31.4654 133.534 33.3553C133.61 33.7786 133.656 34.2019 133.656 34.6404V37.9213H136.152C138.451 37.9213 140.339 39.7961 140.339 42.0942Z" fill="#F5E4D4"/>
<path d="M135.558 37.9213H133.64V34.2775C133.64 33.96 133.594 33.6425 133.518 33.3553C133.016 31.4654 131.022 30.2558 129.027 30.8304C127.368 31.3142 125.373 31.7224 123.196 31.798C118.599 31.9643 116.346 29.0009 115.6 27.7611C112.205 28.245 109.601 31.1479 109.601 34.6555V37.9364H107.211C107.211 37.9364 104.471 28.0938 106.526 25.3118C108.551 22.5752 110.987 23.7696 110.987 23.7696C110.987 23.7696 109.525 15.575 117.685 15.7262C125.83 15.8774 136.426 25.2665 137.202 26.9901C138.42 29.6359 135.558 37.9213 135.558 37.9213Z" fill="#626A7F"/>
<path d="M134.569 42.8653C134.569 41.2475 135.893 39.9472 137.507 39.9472" stroke="#626A7F" stroke-width="0.491" stroke-miterlimit="10" stroke-linecap="round"/>
<path d="M108.719 42.8653C108.719 41.2475 107.395 39.9473 105.781 39.9473" stroke="#626A7F" stroke-width="0.491" stroke-miterlimit="10" stroke-linecap="round"/>
<path d="M129.804 34.6556C129.804 34.6556 127.642 33.0832 124.887 34.2171" stroke="#626A7F" stroke-width="0.491" stroke-miterlimit="10" stroke-linecap="round"/>
<path d="M113.301 34.6555C113.301 34.6555 115.463 33.0831 118.218 34.2171" stroke="#626A7F" stroke-width="0.491" stroke-miterlimit="10" stroke-linecap="round"/>
<path d="M125.419 45.8136C125.419 45.8136 124.247 48.3234 120.654 47.008" stroke="#626A7F" stroke-width="0.491" stroke-miterlimit="10" stroke-linecap="round"/>
<path d="M120.487 44.5133C121.415 44.5738 122.831 44.5133 122.831 44.5133" stroke="#626A7F" stroke-width="0.491" stroke-miterlimit="10" stroke-linecap="round"/>
<path d="M127.352 40.9603C127.772 40.9603 128.113 40.3917 128.113 39.6903C128.113 38.9889 127.772 38.4203 127.352 38.4203C126.932 38.4203 126.591 38.9889 126.591 39.6903C126.591 40.3917 126.932 40.9603 127.352 40.9603Z" fill="#626A7F"/>
<path d="M116.436 40.9603C116.857 40.9603 117.198 40.3917 117.198 39.6903C117.198 38.9889 116.857 38.4203 116.436 38.4203C116.016 38.4203 115.675 38.9889 115.675 39.6903C115.675 40.3917 116.016 40.9603 116.436 40.9603Z" fill="#626A7F"/>
<path d="M118.249 43.969H113.454C112.525 43.969 111.779 43.2281 111.779 42.3059V37.5433C111.779 36.621 112.525 35.8802 113.454 35.8802H118.249C119.178 35.8802 119.924 36.621 119.924 37.5433V42.3059C119.939 43.213 119.178 43.969 118.249 43.969Z" stroke="white" stroke-width="0.491" stroke-miterlimit="10"/>
<path d="M129.987 43.969H125.191C124.263 43.969 123.517 43.2281 123.517 42.3059V37.5433C123.517 36.621 124.263 35.8802 125.191 35.8802H129.987C130.915 35.8802 131.661 36.621 131.661 37.5433V42.3059C131.661 43.213 130.915 43.969 129.987 43.969Z" stroke="white" stroke-width="0.491" stroke-miterlimit="10"/>
<path d="M119.94 39.025H123.518" stroke="white" stroke-width="0.491" stroke-miterlimit="10"/>
</svg>
