<svg width="187" height="113" viewBox="0 0 187 113" fill="none" xmlns="http://www.w3.org/2000/svg">
<path d="M160.734 84.8109H31.6191V10.1528C31.6191 5.09768 35.7168 1 40.7719 1H151.582C156.637 1 160.734 5.09768 160.734 10.1528V84.8109Z" fill="white" stroke="#88BFBF" stroke-width="0.5892" stroke-miterlimit="10"/>
<path d="M150.988 79.9474H41.9021C39.0299 79.9474 36.6938 77.6113 36.6938 74.7391V10.7464C36.6938 7.87416 39.0299 5.5381 41.9021 5.5381H150.988C153.861 5.5381 156.197 7.87416 156.197 10.7464V74.7582C156.197 77.6305 153.861 79.9474 150.988 79.9474Z" fill="#88BFBF"/>
<path d="M183.367 102.331C188.308 105.548 187.159 111.848 181.319 111.848H5.42472C0.503677 111.848 -1.18136 105.204 3.64394 102.159L183.367 102.331Z" fill="#88BFBF" stroke="#88BFBF" stroke-width="0.5892" stroke-miterlimit="10"/>
<path d="M181.319 107.463H5.42509C2.28481 107.463 1.04018 103.768 3.64431 102.159L31.6579 84.8109H160.371L183.349 102.331C185.646 104.074 184.306 107.463 181.319 107.463Z" fill="white" stroke="#88BFBF" stroke-width="0.5892" stroke-miterlimit="10"/>
<path d="M161.022 102.236H25.7218C23.3092 102.236 22.3518 99.3828 24.3432 98.1573L43.7975 84.8111H144.899L162.573 98.2914C164.354 99.6317 163.32 102.236 161.022 102.236Z" fill="white" stroke="#88BFBF" stroke-width="0.5892" stroke-miterlimit="10"/>
<path d="M136.148 84.8109L153.841 102.236" stroke="#88BFBF" stroke-width="0.5892" stroke-miterlimit="10"/>
<path d="M126.766 84.8109L142.352 102.236" stroke="#88BFBF" stroke-width="0.5892" stroke-miterlimit="10"/>
<path d="M117.996 84.8109L131.514 102.236" stroke="#88BFBF" stroke-width="0.5892" stroke-miterlimit="10"/>
<path d="M108.192 84.8109L119.623 102.236" stroke="#88BFBF" stroke-width="0.5892" stroke-miterlimit="10"/>
<path d="M100.054 84.8109L105.626 102.236" stroke="#88BFBF" stroke-width="0.5892" stroke-miterlimit="10"/>
<path d="M52.0121 84.8109L34.3193 102.236" stroke="#88BFBF" stroke-width="0.5892" stroke-miterlimit="10"/>
<path d="M61.3941 84.8109L45.8076 102.236" stroke="#88BFBF" stroke-width="0.5892" stroke-miterlimit="10"/>
<path d="M70.1635 84.8109L56.645 102.236" stroke="#88BFBF" stroke-width="0.5892" stroke-miterlimit="10"/>
<path d="M79.9675 84.8109L68.5361 102.236" stroke="#88BFBF" stroke-width="0.5892" stroke-miterlimit="10"/>
<path d="M88.1058 84.8109L82.5337 102.236" stroke="#88BFBF" stroke-width="0.5892" stroke-miterlimit="10"/>
<path d="M93.6211 102.446V84.8109" stroke="#88BFBF" stroke-width="0.5892" stroke-miterlimit="10"/>
<path d="M34.3193 91.3212H153.458" stroke="#88BFBF" stroke-width="0.5892" stroke-miterlimit="10"/>
<path d="M141.911 79.9474H45.0415L46.784 67.5969C47.8563 59.9951 53.3134 53.7529 60.6854 51.6466L84.295 46.7447H102.658L126.267 51.6466C133.659 53.7337 139.116 59.9951 140.169 67.5969L141.911 79.9474Z" fill="#A0505A"/>
<path d="M100.015 60.8567L93.026 53.7911C92.8728 53.6379 92.8728 53.389 93.026 53.255C93.1792 53.1018 93.4281 53.1018 93.5622 53.255L99.9768 59.7462L109.934 48.468C110.068 48.3148 110.317 48.2956 110.47 48.4297C110.623 48.5637 110.642 48.8126 110.508 48.9658L100.015 60.8567Z" fill="white"/>
<path d="M87.0327 60.8567L76.5396 48.9658C76.4055 48.8126 76.4055 48.5637 76.5778 48.4297C76.731 48.2956 76.98 48.2956 77.114 48.468L87.071 59.7461L93.4856 53.255C93.6388 53.1018 93.8685 53.1018 94.0217 53.255C94.1749 53.4081 94.1749 53.6379 94.0217 53.7911L87.0327 60.8567Z" fill="white"/>
<path d="M93.639 65.4714C92.7199 65.4714 91.9731 64.7246 91.9731 63.8055C91.9731 62.8864 92.7199 62.1396 93.639 62.1396C94.5581 62.1396 95.3049 62.8864 95.3049 63.8055C95.3049 64.7246 94.5581 65.4714 93.639 65.4714ZM93.639 62.9056C93.1412 62.9056 92.7391 63.3077 92.7391 63.8055C92.7391 64.3034 93.1412 64.7055 93.639 64.7055C94.1369 64.7055 94.539 64.3034 94.539 63.8055C94.539 63.3077 94.1369 62.9056 93.639 62.9056Z" fill="white"/>
<path d="M93.639 74.854C92.7199 74.854 91.9731 74.1072 91.9731 73.1881C91.9731 72.269 92.7199 71.5222 93.639 71.5222C94.5581 71.5222 95.3049 72.269 95.3049 73.1881C95.3049 74.1072 94.5581 74.854 93.639 74.854ZM93.639 72.2881C93.1412 72.2881 92.7391 72.6902 92.7391 73.1881C92.7391 73.6859 93.1412 74.088 93.639 74.088C94.1369 74.088 94.539 73.6859 94.539 73.1881C94.539 72.6902 94.1369 72.2881 93.639 72.2881Z" fill="white"/>
<path d="M84.1789 79.5452H52.891L44.5425 54.7676L75.8304 45.8064L84.1789 79.5452Z" fill="white" stroke="#88BFBF" stroke-width="0.3928" stroke-miterlimit="10"/>
<path d="M54.5188 57.9845H53.9252C52.4125 57.9845 51.187 56.759 51.187 55.2463V46.6489C51.187 46.0361 51.6849 45.5383 52.2976 45.5383H54.8826C55.4953 45.5383 55.9931 46.0361 55.9931 46.6489V56.491C56.0123 57.3143 55.3421 57.9845 54.5188 57.9845Z" fill="white"/>
<path d="M54.5188 57.9845H53.9252C52.4125 57.9845 51.187 56.759 51.187 55.2463V46.6489C51.187 46.0361 51.6849 45.5383 52.2976 45.5383H54.8826C55.4953 45.5383 55.9931 46.0361 55.9931 46.6489V56.491C56.0123 57.3143 55.3421 57.9845 54.5188 57.9845Z" stroke="#88BFBF" stroke-width="0.3928" stroke-miterlimit="10" stroke-linecap="round"/>
<path d="M67.1186 57.9845H67.7122C69.2249 57.9845 70.4503 56.759 70.4503 55.2463V46.6488C70.4503 46.0361 69.9525 45.5382 69.3397 45.5382H66.7356C66.1229 45.5382 65.625 46.0361 65.625 46.6488V56.4909C65.625 57.3143 66.2952 57.9845 67.1186 57.9845Z" fill="white"/>
<path d="M59.3253 58.9802H57.9467C56.8744 58.9802 56.0127 58.1185 56.0127 57.0462V46.668C56.0127 46.0553 56.5106 45.5574 57.1233 45.5574H59.7083C60.321 45.5574 60.8189 46.0553 60.8189 46.668V57.4866C60.8189 58.31 60.1487 58.9802 59.3253 58.9802Z" fill="white"/>
<path d="M64.1516 59.3631H63.0027C61.7964 59.3631 60.8198 58.3866 60.8198 57.1803V46.6488C60.8198 46.0361 61.3176 45.5382 61.9304 45.5382H64.5154C65.1281 45.5382 65.626 46.0361 65.626 46.6488V57.8696C65.626 58.693 64.9558 59.3631 64.1516 59.3631Z" fill="white"/>
<path d="M67.1186 57.9845H67.7122C69.2249 57.9845 70.4503 56.759 70.4503 55.2463V46.6488C70.4503 46.0361 69.9525 45.5382 69.3397 45.5382H66.7356C66.1229 45.5382 65.625 46.0361 65.625 46.6488V56.4909C65.625 57.3143 66.2952 57.9845 67.1186 57.9845Z" stroke="#88BFBF" stroke-width="0.3928" stroke-miterlimit="10" stroke-linecap="round"/>
<path d="M59.3253 58.9802H57.9467C56.8744 58.9802 56.0127 58.1185 56.0127 57.0462V46.668C56.0127 46.0553 56.5106 45.5574 57.1233 45.5574H59.7083C60.321 45.5574 60.8189 46.0553 60.8189 46.668V57.4866C60.8189 58.31 60.1487 58.9802 59.3253 58.9802Z" stroke="#88BFBF" stroke-width="0.3928" stroke-miterlimit="10" stroke-linecap="round"/>
<path d="M64.1516 59.3631H63.0027C61.7964 59.3631 60.8198 58.3866 60.8198 57.1803V46.6488C60.8198 46.0361 61.3176 45.5382 61.9304 45.5382H64.5154C65.1281 45.5382 65.626 46.0361 65.626 46.6488V57.8696C65.626 58.693 64.9558 59.3631 64.1516 59.3631Z" stroke="#88BFBF" stroke-width="0.3928" stroke-miterlimit="10" stroke-linecap="round"/>
<path d="M102.676 35.4856V49.4637C102.676 51.8763 98.5587 53.8486 93.4845 53.8486C88.4103 53.8486 84.2935 51.8763 84.2935 49.4637V35.4856H102.676Z" fill="white"/>
<path d="M102.676 35.4856C102.676 46.0362 95.9172 49.1765 89.426 48.6212C89.4068 48.6212 89.3877 48.6212 89.3685 48.6212C86.4963 48.3531 84.3135 45.9022 84.3135 43.0299V35.5048H102.676V35.4856Z" fill="#88BFBF"/>
<path d="M106.946 31.8858V32.5943C106.946 34.1644 105.683 35.4282 104.113 35.4282H102.657L102.676 35.7537C102.676 40.2726 99.0192 43.9299 94.5002 43.9299H92.4897C87.9707 43.9299 84.3135 40.2726 84.3135 35.7537L84.3326 35.4282H82.8774C81.3072 35.4282 80.0435 34.1644 80.0435 32.5943V31.8858C80.0435 30.3157 81.3072 29.0519 82.8774 29.0519H84.7347L84.9454 25.5861C84.9454 25.0499 85.022 24.533 85.1751 24.0543C90.6515 25.4138 97.066 21.8905 98.7894 20.8374C100.704 21.565 102.064 23.4032 102.064 25.5669L102.274 29.0327H104.132C105.683 29.0519 106.946 30.3157 106.946 31.8858Z" fill="white"/>
<path d="M104.247 29.0519H102.255L102.045 25.5861C102.045 23.4223 100.685 21.5841 98.7702 20.8565C97.0469 21.8905 90.6323 25.4137 85.156 24.0734C85.0028 24.5521 84.9262 25.0691 84.9262 25.6052L84.7155 29.071H83.4709C83.4709 29.071 80.9242 16.7397 83.4326 14.4802C85.29 12.8143 102.293 16.4525 104.17 19.0374C105.223 20.5118 104.247 29.0519 104.247 29.0519Z" fill="#F5E4D4"/>
<path d="M99.459 28.3051C99.4015 28.3051 99.3249 28.286 99.2675 28.2285C99.2483 28.2094 98.0037 27.1945 96.0123 27.1945C95.8591 27.1945 95.7251 27.0605 95.7251 26.9073C95.7251 26.7541 95.8591 26.6201 96.0123 26.6201C98.2143 26.6201 99.5739 27.7307 99.6313 27.7881C99.7462 27.8839 99.7654 28.0754 99.6696 28.1902C99.6313 28.2668 99.5356 28.3051 99.459 28.3051Z" fill="#88BFBF"/>
<path d="M92.1834 34.241C92.1451 34.241 92.1068 34.241 92.0877 34.2219C91.9345 34.1644 91.8579 33.9921 91.9154 33.8581C92.4515 32.4411 92.3175 30.6603 91.5707 29.0902C91.1303 28.1328 90.4984 27.4435 89.9431 27.252C88.7176 26.8307 86.9943 27.4243 86.9752 27.4243C86.822 27.4818 86.6688 27.4052 86.6114 27.252C86.5539 27.0988 86.6305 26.9456 86.7837 26.8882C86.8603 26.869 88.6985 26.2371 90.1155 26.7158C90.8239 26.9648 91.5516 27.7498 92.0686 28.8604C92.8728 30.5646 93.0068 32.5177 92.4323 34.0878C92.4132 34.1644 92.2983 34.241 92.1834 34.241Z" fill="#88BFBF"/>
<path d="M95.9551 37.2856C95.9743 37.4388 95.8402 37.5728 95.687 37.5919H95.6679C95.5147 37.5919 95.3998 37.4771 95.3807 37.3239C95.3615 37.1324 95.3232 36.9409 95.2658 36.7686C94.4424 37.1707 93.6957 37.3047 93.0829 37.3047C91.8766 37.3047 91.149 36.8069 91.1107 36.7686C90.9766 36.6728 90.9575 36.5005 91.034 36.3665C91.1298 36.2324 91.3021 36.2133 91.4362 36.2899C91.4745 36.309 92.0872 36.7303 93.0829 36.7303C93.6191 36.7303 94.2701 36.6154 95.0168 36.2516C94.902 36.0601 94.7871 35.9452 94.7871 35.9452C94.6722 35.8303 94.6914 35.6389 94.8062 35.5431C94.9211 35.4474 95.1126 35.4474 95.2083 35.5623C95.2466 35.6197 95.8977 36.3473 95.9551 37.2856Z" fill="#88BFBF"/>
<path d="M96.989 31.8134C97.2529 31.7969 97.4401 31.3558 97.4072 30.828C97.3743 30.3003 97.1338 29.8858 96.8699 29.9022C96.606 29.9187 96.4188 30.3598 96.4517 30.8876C96.4845 31.4153 96.7251 31.8298 96.989 31.8134Z" fill="#88BFBF"/>
<path d="M89.1712 31.7367C89.414 31.7216 89.5863 31.3157 89.556 30.8302C89.5258 30.3446 89.3044 29.9633 89.0616 29.9784C88.8189 29.9936 88.6466 30.3994 88.6769 30.885C88.7071 31.3705 88.9285 31.7518 89.1712 31.7367Z" fill="#88BFBF"/>
<path d="M83.8151 32.8049C83.662 32.8049 83.5279 32.6709 83.5279 32.5177C83.5279 31.6752 82.8386 31.005 82.0152 31.005C81.8621 31.005 81.728 30.871 81.728 30.7178C81.728 30.5646 81.8621 30.4306 82.0152 30.4306C83.1641 30.4306 84.1024 31.3688 84.1024 32.5177C84.1024 32.69 83.9683 32.8049 83.8151 32.8049Z" fill="#88BFBF"/>
<path d="M103.078 32.8049C102.925 32.8049 102.791 32.6709 102.791 32.5177C102.791 31.3688 103.729 30.4306 104.878 30.4306C105.031 30.4306 105.165 30.5646 105.165 30.7178C105.165 30.871 105.031 31.005 104.878 31.005C104.035 31.005 103.365 31.6943 103.365 32.5177C103.365 32.69 103.25 32.8049 103.078 32.8049Z" fill="#88BFBF"/>
</svg>
