<svg width="181" height="159" viewBox="0 0 181 159" fill="none" xmlns="http://www.w3.org/2000/svg">
<path d="M123.81 157.884H56.7559L69.7399 129.19L71.6408 124.975H108.925L114.162 136.543L123.81 157.884Z" fill="white" stroke="#88BFBF" stroke-width="0.5892" stroke-miterlimit="10"/>
<path d="M114.162 136.543L69.7402 129.19L71.6412 124.975H108.925L114.162 136.543Z" fill="#88BFBF"/>
<path d="M169.307 124.975H11.4732C5.68067 124.975 1 120.277 1 114.502V11.4733C1 5.68068 5.6986 1 11.4732 1H169.307C175.1 1 179.781 5.69861 179.781 11.4733V114.484C179.781 120.277 175.082 124.975 169.307 124.975Z" fill="white" stroke="#88BFBF" stroke-width="0.5892" stroke-miterlimit="10"/>
<path d="M139.375 10.7021C140.405 10.7021 141.24 9.86705 141.24 8.83699C141.24 7.80692 140.405 6.97189 139.375 6.97189C138.345 6.97189 137.51 7.80692 137.51 8.83699C137.51 9.86705 138.345 10.7021 139.375 10.7021Z" stroke="#F6C850" stroke-width="0.491" stroke-miterlimit="10"/>
<path d="M146.996 10.7021C148.026 10.7021 148.861 9.86705 148.861 8.83699C148.861 7.80692 148.026 6.97189 146.996 6.97189C145.966 6.97189 145.131 7.80692 145.131 8.83699C145.131 9.86705 145.966 10.7021 146.996 10.7021Z" stroke="#F6C850" stroke-width="0.491" stroke-miterlimit="10"/>
<path d="M154.636 10.7021C155.666 10.7021 156.501 9.86705 156.501 8.83699C156.501 7.80692 155.666 6.97189 154.636 6.97189C153.606 6.97189 152.771 7.80692 152.771 8.83699C152.771 9.86705 153.606 10.7021 154.636 10.7021Z" stroke="#F6C850" stroke-width="0.491" stroke-miterlimit="10"/>
<path d="M165.901 118.978H16.0987C12.1596 118.978 9 115.791 9 111.909V19.0482C9 15.125 12.2006 11.9783 16.0987 11.9783H165.901C169.84 11.9783 173 15.1659 173 19.0482V111.909C173 115.791 169.84 118.978 165.901 118.978Z" fill="#88BFBF"/>
<path d="M142.032 118.978H34.9736C45.7945 105.648 62.3133 97.0751 80.8186 97.0751H96.1875C114.693 97.1274 131.212 105.648 142.032 118.978Z" fill="#F69050"/>
<path d="M85.1571 97.1275C84.1116 105.021 77.3682 111.085 69.2133 111.085C63.2017 111.085 57.9742 107.792 55.2036 102.93C62.9403 99.2185 71.618 97.1275 80.7661 97.1275H85.1571Z" fill="white"/>
<path d="M116.782 100.787C114.429 106.798 108.627 111.033 101.779 111.033C93.6239 111.033 86.8805 104.969 85.835 97.0751H96.2376C103.452 97.1274 110.352 98.3821 116.782 100.787Z" fill="white"/>
<path d="M105.022 73.8127V97.5455C105.022 101.257 97.5985 104.237 88.5026 104.237C86.8299 104.237 85.2094 104.132 83.6934 103.975C76.8977 103.139 71.9839 100.577 71.9839 97.5455V73.8127H105.022Z" fill="#A0505A"/>
<path d="M102.826 78.6743C102.826 88.9724 93.8347 101.466 83.6934 103.923C76.8977 103.087 71.9839 100.525 71.9839 97.4932V73.7604H102.303L102.826 78.6743Z" fill="#E0712C"/>
<path d="M113.491 70.7811V71.3561C113.491 75.3813 110.198 78.6746 106.172 78.6746H99.1676C95.9789 85.5226 89.0263 90.2273 80.976 90.2273H79.6168C70.6255 90.2273 63.3594 82.9611 63.3594 73.9698V57.1896C73.7621 57.8692 86.9876 48.7734 86.9876 48.7734C91.3264 65.5536 103.716 65.3445 109.466 64.2467C111.818 65.4491 113.491 67.9583 113.491 70.7811Z" fill="#A0505A"/>
<path d="M103.191 73.3423C102.773 73.3423 102.407 72.9764 102.407 72.5582C102.407 69.2126 105.126 66.4943 108.471 66.4943C108.889 66.4943 109.255 66.8602 109.255 67.2784C109.255 67.6966 108.889 68.0625 108.471 68.0625C106.014 68.0625 103.975 70.049 103.975 72.5582C103.975 72.9764 103.61 73.3423 103.191 73.3423Z" fill="#E0712C"/>
<path d="M105.02 78.6745H106.17C110.195 78.6745 113.489 75.3812 113.489 71.356V70.781C113.489 67.9059 111.868 65.449 109.464 64.2466C107.895 64.5603 105.752 64.7694 103.452 64.6125C97.4926 64.1421 90.1218 60.9011 86.9853 48.7733C86.9853 48.7733 73.7598 57.8691 63.3571 57.1895C61.423 57.085 59.5933 56.6145 57.9728 55.6736C49.3475 50.7597 70.2051 27.7588 94.147 31.209C113.28 33.9795 112.861 56.8759 112.495 62.3124C113.436 62.2079 114.377 62.1556 115.318 62.1556C129.328 62.1556 140.672 72.9242 140.672 86.2543C140.672 94.9319 135.862 102.564 128.596 106.798C121.644 102.198 113.645 99.0617 105.02 97.7548V78.6745Z" fill="#F6C850"/>
<path d="M73.9194 73.9174C73.8148 73.9174 73.7103 73.9175 73.658 73.8652C73.2398 73.7084 73.0308 73.2379 73.1876 72.8719C73.1876 72.8197 74.7558 68.5854 72.1421 64.0375C69.8943 60.1169 64.9281 60.7965 64.719 60.8487C64.3008 60.901 63.8826 60.6396 63.8303 60.1691C63.7781 59.7509 64.0395 59.3328 64.5099 59.2805C64.7713 59.2282 70.7307 58.3918 73.5535 63.2534C76.5332 68.4286 74.7558 73.2379 74.7035 73.3947C74.4944 73.7083 74.233 73.9174 73.9194 73.9174Z" fill="#E0712C"/>
<path d="M91.7465 63.9851C91.5897 63.9851 91.4328 63.9328 91.276 63.8282C86.7281 60.3258 80.6642 60.744 80.6119 60.744C80.1938 60.7963 79.8278 60.4304 79.7755 60.0122C79.7232 59.594 80.0892 59.228 80.5074 59.1758C80.7688 59.1758 87.1986 58.7053 92.2169 62.5736C92.5829 62.835 92.6352 63.3055 92.3738 63.6714C92.1647 63.8805 91.9556 63.9851 91.7465 63.9851Z" fill="#E0712C"/>
<path d="M71.1992 75.6949C71.1992 75.6949 72.4538 83.9543 80.9746 75.904C80.9746 75.904 75.0153 76.6881 71.1992 75.6949Z" fill="white"/>
<path d="M84.3223 68.7422C84.9286 68.7422 85.4201 67.6422 85.4201 66.2853C85.4201 64.9284 84.9286 63.8284 84.3223 63.8284C83.716 63.8284 83.2246 64.9284 83.2246 66.2853C83.2246 67.6422 83.716 68.7422 84.3223 68.7422Z" fill="#E0712C"/>
<path d="M68.0103 68.3239C68.53 68.3239 68.9513 67.4111 68.9513 66.2852C68.9513 65.1592 68.53 64.2465 68.0103 64.2465C67.4906 64.2465 67.0693 65.1592 67.0693 66.2852C67.0693 67.4111 67.4906 68.3239 68.0103 68.3239Z" fill="#E0712C"/>
<path d="M158.847 113.791H95.5774C92.4928 113.791 90 111.298 90 108.213V100.556C90 97.4711 92.4928 94.9783 95.5774 94.9783H158.847C161.932 94.9783 164.425 97.4711 164.425 100.556V108.213C164.425 111.298 161.914 113.791 158.847 113.791Z" fill="#8D98B4"/>
<path d="M142.24 108.68H137.972C136.914 108.68 136.053 107.819 136.053 106.761V103.425C136.053 102.367 136.914 101.506 137.972 101.506H142.24C143.298 101.506 144.159 102.367 144.159 103.425V106.761C144.159 107.819 143.298 108.68 142.24 108.68Z" fill="white"/>
<path d="M147.673 108.124L146.095 107.119C145.664 106.85 145.396 106.366 145.396 105.846V104.34C145.396 103.82 145.664 103.335 146.095 103.066L147.673 102.062C148.05 101.829 148.534 102.098 148.534 102.528V107.64C148.552 108.088 148.05 108.357 147.673 108.124Z" fill="white"/>
<path d="M126.064 106.994H125.67C124.11 106.994 122.836 105.721 122.836 104.16V102.493C122.836 102.349 122.962 102.224 123.105 102.224H128.611C128.755 102.224 128.88 102.349 128.88 102.493V104.16C128.898 105.721 127.625 106.994 126.064 106.994ZM123.374 102.762V104.16C123.374 105.416 124.397 106.456 125.67 106.456H126.064C127.32 106.456 128.36 105.434 128.36 104.16V102.762H123.374Z" fill="white"/>
<path d="M125.867 110.096C125.724 110.096 125.598 109.971 125.598 109.827V107.801C125.598 107.657 125.724 107.532 125.867 107.532C126.011 107.532 126.136 107.657 126.136 107.801V109.827C126.136 109.971 126.011 110.096 125.867 110.096Z" fill="white"/>
<path d="M127.284 110.096H124.469C124.325 110.096 124.2 109.971 124.2 109.827C124.2 109.684 124.325 109.558 124.469 109.558H127.284C127.428 109.558 127.553 109.684 127.553 109.827C127.553 109.971 127.428 110.096 127.284 110.096Z" fill="white"/>
<path d="M125.993 105.738H125.741C124.845 105.738 124.127 105.021 124.127 104.124V100.861C124.127 99.9639 124.845 99.2465 125.741 99.2465H125.993C126.889 99.2465 127.607 99.9639 127.607 100.861V104.124C127.607 105.021 126.889 105.738 125.993 105.738Z" fill="white"/>
<path d="M109.493 103.712L109.475 103.73C109.134 104.142 109.242 104.77 109.69 105.147L111.34 106.474C111.789 106.833 112.434 106.797 112.775 106.384L112.793 106.366C113.134 105.954 113.779 105.936 114.21 106.312L115.698 107.657C116.164 108.088 116.164 108.805 115.698 109.128C114.138 110.222 112.111 109.827 110.444 108.482L107.933 106.456C106.265 105.093 105.458 103.192 106.193 101.434C106.427 100.896 107.126 100.753 107.628 101.13L109.26 102.313C109.708 102.672 109.816 103.3 109.493 103.712Z" fill="white"/>
<path d="M113.869 104.752C113.726 104.752 113.618 104.645 113.6 104.501C113.511 103.21 112.399 102.224 111.107 102.313C110.964 102.313 110.838 102.206 110.821 102.062C110.803 101.919 110.928 101.793 111.072 101.775C112.668 101.668 114.031 102.887 114.138 104.465C114.156 104.609 114.049 104.734 113.869 104.752C113.887 104.752 113.887 104.752 113.869 104.752Z" fill="white"/>
<path d="M115.554 104.483C115.411 104.483 115.303 104.376 115.285 104.232C115.214 103.156 114.73 102.152 113.905 101.434C113.08 100.717 112.039 100.358 110.963 100.43C110.82 100.43 110.694 100.323 110.677 100.179C110.659 100.036 110.784 99.9101 110.928 99.8922C112.147 99.8204 113.331 100.215 114.263 101.022C115.196 101.829 115.734 102.959 115.823 104.178C115.841 104.358 115.716 104.483 115.554 104.483C115.572 104.483 115.572 104.483 115.554 104.483Z" fill="white"/>
</svg>
