<svg width="269" height="179" viewBox="0 0 269 179" fill="none" xmlns="http://www.w3.org/2000/svg">
<path d="M268.655 178.81H0.344727L48.5088 150.421H221.228L268.655 178.81Z" fill="#D0F0E4"/>
<path d="M262.212 178.81L231.551 77.6158C230.943 75.6008 229.074 74.2217 226.962 74.2217H40.8707C38.7374 74.2217 36.8618 75.6294 36.2676 77.6801L7.00977 178.81" stroke="#88BFBF" stroke-width="0.5892" stroke-miterlimit="10"/>
<path d="M91.8481 40.0236H173.243" stroke="#88BFBF" stroke-width="0.5892" stroke-miterlimit="10"/>
<path d="M120.097 55.4006H139.325V71.8852H120.097C120.097 71.8852 120.097 54.779 120.097 55.4006Z" fill="#F6C850"/>
<path d="M191.999 131.993L183.058 109.77H197.454L191.999 131.993Z" fill="#626A7F"/>
<path d="M167.466 80.1096C169.384 76.4868 173.157 74.2217 177.259 74.2217H188.334L195.857 80.1096H167.466Z" fill="#626A7F"/>
<path d="M209.452 106.126H181.554L192.056 131.571C191.326 130.385 186.952 131.621 182.32 134.458C177.745 137.259 174.653 140.631 175.283 141.861L152.647 102.546C146.777 92.6284 153.935 80.1096 165.475 80.1096H227.993L228.129 80.5383C232.209 93.1857 222.76 106.126 209.452 106.126Z" fill="#88BFBF"/>
<path d="M229.074 87.4051C228.974 89.7273 228.458 91.971 227.585 94.0503L194.798 80.1167H227.342L228.1 82.3318C228.63 83.6608 228.924 85.5258 229.074 87.4051Z" fill="#E6E6E6"/>
<path d="M192.063 131.571C192.793 132.757 189.601 135.994 184.976 138.831C180.344 141.668 176.042 143.09 175.312 141.903C174.581 140.717 177.696 137.366 182.327 134.529C186.952 131.693 191.326 130.385 192.063 131.571Z" fill="#88BFBF"/>
<path d="M181.791 134.544L161.431 98.6163C159.835 95.7724 161.889 92.2568 165.161 92.2568H204.813C210.154 92.2568 214.141 87.3479 213.039 82.1317" stroke="white" stroke-width="0.5892" stroke-miterlimit="10" stroke-linecap="round"/>
<path d="M175.076 141.982C174.346 140.796 177.503 137.023 182.328 134.215C187.747 131.064 191.255 130.128 192.3 131.8" stroke="white" stroke-width="0.5892" stroke-miterlimit="10" stroke-linecap="round"/>
<path d="M192.457 131.957L179.156 100.303" stroke="white" stroke-width="0.5892" stroke-miterlimit="10" stroke-linecap="round"/>
<path d="M164.695 79.8738H197.146" stroke="white" stroke-width="0.5892" stroke-miterlimit="10"/>
<path d="M183.05 143.54L181.117 140.91L178.454 137.295C179.542 136.38 180.852 135.43 182.32 134.529C185.241 132.743 188.054 131.557 189.922 131.228L191.218 133.808L192.836 137.023C191.691 141.089 183.05 143.54 183.05 143.54Z" fill="#F5E4D4"/>
<path d="M191.225 133.808C190.023 135.272 187.761 137.123 184.976 138.831C183.637 139.653 182.327 140.353 181.124 140.91L178.461 137.295C179.55 136.38 180.86 135.43 182.327 134.529C185.248 132.743 188.061 131.557 189.93 131.228L191.225 133.808Z" fill="#626A7F"/>
<path d="M201.684 151.192L182.041 165.276C180.373 166.434 177.781 167.398 178.125 163.211C178.604 157.438 179.886 148.849 183.05 143.533C183.186 143.497 191.691 141.046 192.836 137.016L201.792 143.368C204.369 145.369 204.311 149.27 201.684 151.192Z" fill="white" stroke="#F6C850" stroke-width="0.5892" stroke-miterlimit="10"/>
<path d="M182.141 145.398C183.702 145.69 192.464 142.589 193.824 137.809" stroke="#F6C850" stroke-width="0.5892" stroke-miterlimit="10" stroke-linecap="round"/>
<path d="M180.029 163.826C180.029 163.826 192.85 146.048 201.971 147.048C211.9 148.127 171.911 174.194 180.029 163.826Z" fill="#F6C850"/>
<path d="M179.664 166.248C178.669 166.312 177.616 165.155 179.07 163.297C179.07 163.297 192.413 144.862 201.913 145.905C203.381 146.062 203.875 147.255 203.531 148.284" stroke="#F6C850" stroke-width="0.5892" stroke-miterlimit="10" stroke-linecap="round"/>
<path d="M229.146 88.8556C224.607 87.7838 213.311 84.9614 200.425 81.9889C194.369 80.5955 189.3 76.4797 186.687 70.8491L174.954 45.5113L182.056 34.2787C184.239 30.8203 187.962 28.6195 192.049 28.3694L199.036 27.9407C206.08 27.512 211.736 31.8993 213.883 38.6088L228.094 80.1096C229.654 83.9967 229.146 88.8556 229.146 88.8556Z" fill="white" stroke="#F69050" stroke-width="0.5892" stroke-miterlimit="10"/>
<path d="M181.132 46.9333C181.132 46.9333 184.869 52.7926 193.381 54.0859" stroke="#F69050" stroke-width="0.5892" stroke-miterlimit="10"/>
<path d="M186.172 36.2723C185.785 35.8578 185.105 35.9721 184.869 36.4795C184.604 37.0511 185.084 37.6871 185.706 37.5942C186.344 37.5013 186.609 36.7367 186.172 36.2723Z" fill="#F6C850" stroke="#F69050" stroke-width="0.5892" stroke-miterlimit="10" stroke-linejoin="round"/>
<path d="M204.005 48.4838C203.618 48.0694 202.938 48.1837 202.702 48.6911C202.437 49.2627 202.917 49.8986 203.54 49.8057C204.177 49.7128 204.442 48.9483 204.005 48.4838Z" fill="#F6C850" stroke="#F69050" stroke-width="0.5892" stroke-miterlimit="10" stroke-linejoin="round"/>
<path d="M209.653 53.4857C209.266 53.0712 208.586 53.1856 208.35 53.6929C208.085 54.2645 208.565 54.9005 209.187 54.8076C209.817 54.7218 210.082 53.9573 209.653 53.4857Z" fill="#F6C850" stroke="#F69050" stroke-width="0.5892" stroke-miterlimit="10" stroke-linejoin="round"/>
<path d="M220.484 81.7887C220.098 81.3743 219.418 81.4886 219.181 81.996C218.917 82.5676 219.396 83.2035 220.019 83.1106C220.649 83.0178 220.914 82.2603 220.484 81.7887Z" fill="#F6C850" stroke="#F69050" stroke-width="0.5892" stroke-miterlimit="10" stroke-linejoin="round"/>
<path d="M214.421 68.2624C214.034 67.848 213.354 67.9623 213.118 68.4696C212.853 69.0413 213.333 69.6772 213.956 69.5843C214.593 69.4914 214.858 68.7269 214.421 68.2624Z" fill="#F6C850" stroke="#F69050" stroke-width="0.5892" stroke-miterlimit="10" stroke-linejoin="round"/>
<path d="M216.933 58.5304C216.375 58.6018 216.067 59.2235 216.346 59.7093C216.661 60.2595 217.456 60.2381 217.742 59.6736C218.036 59.102 217.563 58.4446 216.933 58.5304Z" fill="#F6C850" stroke="#F69050" stroke-width="0.5892" stroke-miterlimit="10" stroke-linejoin="round"/>
<path d="M221.508 72.9641C220.949 73.0356 220.641 73.6572 220.921 74.1431C221.236 74.6933 222.03 74.6719 222.316 74.1074C222.61 73.5358 222.145 72.8784 221.508 72.9641Z" fill="#F6C850" stroke="#F69050" stroke-width="0.5892" stroke-miterlimit="10" stroke-linejoin="round"/>
<path d="M202.537 57.3942C202.15 56.9798 201.47 57.0941 201.234 57.6014C200.969 58.1731 201.449 58.809 202.072 58.7161C202.702 58.6232 202.967 57.8658 202.537 57.3942Z" fill="#F6C850" stroke="#F69050" stroke-width="0.5892" stroke-miterlimit="10" stroke-linejoin="round"/>
<path d="M198.593 65.49C198.206 65.0756 197.526 65.1899 197.29 65.6972C197.025 66.2689 197.505 66.9048 198.127 66.8119C198.765 66.7191 199.029 65.9545 198.593 65.49Z" fill="#F6C850" stroke="#F69050" stroke-width="0.5892" stroke-miterlimit="10" stroke-linejoin="round"/>
<path d="M191.534 62.6604C191.949 62.2745 191.835 61.5957 191.327 61.3599C190.754 61.0956 190.117 61.5743 190.21 62.1959C190.303 62.8247 191.062 63.0891 191.534 62.6604Z" fill="#F6C850" stroke="#F69050" stroke-width="0.5892" stroke-miterlimit="10" stroke-linejoin="round"/>
<path d="M197.798 76.5941C198.213 76.2082 198.099 75.5294 197.59 75.2936C197.018 75.0292 196.38 75.5079 196.473 76.1296C196.567 76.7655 197.333 77.0299 197.798 76.5941Z" fill="#F6C850" stroke="#F69050" stroke-width="0.5892" stroke-miterlimit="10" stroke-linejoin="round"/>
<path d="M208.343 64.6397C208.758 64.2538 208.643 63.575 208.135 63.3392C207.562 63.0748 206.925 63.5536 207.018 64.1752C207.111 64.804 207.877 65.0755 208.343 64.6397Z" fill="#F6C850" stroke="#F69050" stroke-width="0.5892" stroke-miterlimit="10" stroke-linejoin="round"/>
<path d="M211.944 79.6022C212.359 79.2164 212.244 78.5376 211.736 78.3018C211.164 78.0374 210.526 78.5161 210.619 79.1378C210.705 79.7737 211.471 80.0381 211.944 79.6022Z" fill="#F6C850" stroke="#F69050" stroke-width="0.5892" stroke-miterlimit="10" stroke-linejoin="round"/>
<path d="M190.353 49.2984C189.966 48.884 189.286 48.9983 189.05 49.5056C188.785 50.0773 189.265 50.7132 189.888 50.6203C190.525 50.5274 190.79 49.7629 190.353 49.2984Z" fill="#F6C850" stroke="#F69050" stroke-width="0.5892" stroke-miterlimit="10" stroke-linejoin="round"/>
<path d="M191.635 30.7631C191.248 30.3487 190.568 30.463 190.332 30.9703C190.067 31.542 190.547 32.1779 191.169 32.085C191.807 31.9921 192.071 31.2276 191.635 30.7631Z" fill="#F6C850" stroke="#F69050" stroke-width="0.5892" stroke-miterlimit="10" stroke-linejoin="round"/>
<path d="M204.005 30.7631C203.618 30.3487 202.938 30.463 202.702 30.9703C202.437 31.542 202.917 32.1779 203.54 32.085C204.177 31.9921 204.442 31.2276 204.005 30.7631Z" fill="#F6C850" stroke="#F69050" stroke-width="0.5892" stroke-miterlimit="10" stroke-linejoin="round"/>
<path d="M204.026 38.766C203.504 38.9733 203.353 39.6449 203.747 40.0522C204.184 40.5024 204.95 40.2952 205.093 39.6807C205.236 39.059 204.62 38.5302 204.026 38.766Z" fill="#F6C850" stroke="#F69050" stroke-width="0.5892" stroke-miterlimit="10" stroke-linejoin="round"/>
<path d="M196.996 34.2072C196.452 34.3644 196.245 35.0147 196.588 35.4577C196.982 35.9507 197.762 35.815 197.963 35.2219C198.17 34.6145 197.605 34.0286 196.996 34.2072Z" fill="#F6C850" stroke="#F69050" stroke-width="0.5892" stroke-miterlimit="10" stroke-linejoin="round"/>
<path d="M195.958 54.0001C195.4 54.0645 195.085 54.679 195.357 55.172C195.664 55.7222 196.459 55.7151 196.753 55.1577C197.053 54.5932 196.595 53.9287 195.958 54.0001Z" fill="#F6C850" stroke="#F69050" stroke-width="0.5892" stroke-miterlimit="10" stroke-linejoin="round"/>
<path d="M189.823 68.8841C189.265 68.9484 188.95 69.5629 189.222 70.0559C189.53 70.6061 190.324 70.599 190.618 70.0416C190.919 69.4772 190.46 68.8126 189.823 68.8841Z" fill="#F6C850" stroke="#F69050" stroke-width="0.5892" stroke-miterlimit="10" stroke-linejoin="round"/>
<path d="M191.885 40.1094C191.341 40.2666 191.133 40.9168 191.477 41.3598C191.871 41.8529 192.651 41.7171 192.851 41.124C193.059 40.5238 192.501 39.9379 191.885 40.1094Z" fill="#F6C850" stroke="#F69050" stroke-width="0.5892" stroke-miterlimit="10" stroke-linejoin="round"/>
<path d="M197.812 44.1108C197.268 44.268 197.061 44.9183 197.404 45.3613C197.798 45.8543 198.578 45.7185 198.779 45.1255C198.986 44.5181 198.428 43.9322 197.812 44.1108Z" fill="#F6C850" stroke="#F69050" stroke-width="0.5892" stroke-miterlimit="10" stroke-linejoin="round"/>
<path d="M184.977 43.9394C185.335 43.5035 185.141 42.8461 184.597 42.6818C183.996 42.496 183.423 43.0533 183.602 43.6535C183.781 44.268 184.569 44.4324 184.977 43.9394Z" fill="#F6C850" stroke="#F69050" stroke-width="0.5892" stroke-miterlimit="10" stroke-linejoin="round"/>
<path d="M212.116 43.9608C212.474 43.5249 212.28 42.8675 211.736 42.7032C211.135 42.5174 210.562 43.0747 210.741 43.675C210.913 44.2895 211.708 44.4538 212.116 43.9608Z" fill="#F6C850" stroke="#F69050" stroke-width="0.5892" stroke-miterlimit="10" stroke-linejoin="round"/>
<path d="M205.229 72.9284C205.586 72.4925 205.393 71.8351 204.849 71.6708C204.248 71.485 203.675 72.0424 203.854 72.6426C204.026 73.2499 204.821 73.4143 205.229 72.9284Z" fill="#F6C850" stroke="#F69050" stroke-width="0.5892" stroke-miterlimit="10" stroke-linejoin="round"/>
<path d="M199.515 27.7048C199.357 27.712 199.2 27.7191 199.035 27.7263L192.048 28.155C190.266 28.2622 188.562 28.7409 187.016 29.5341L184.868 23.1175L194.439 16.1149L199.515 27.7048Z" fill="#F5E4D4"/>
<path d="M186.987 29.434C188.977 28.5337 190.567 26.9331 191.469 24.9467L194.948 17.2654L194.439 16.1078L184.868 23.1103L186.987 29.434Z" fill="#626A7F"/>
<path d="M195.056 16.758C195.056 17.4226 194.784 18.0228 194.347 18.4587C193.91 18.8945 193.309 19.1661 192.643 19.1661H190.538C189.708 22.3887 186.494 24.5966 183.036 23.9892L181.454 23.7106C179.721 23.4033 178.54 21.7884 178.784 20.0521L180.638 10.7844C180.96 8.80516 183 7.59758 184.897 8.2764L187.968 9.50541C189.629 10.077 190.746 11.6348 190.746 13.3854V14.2786L192.643 14.35C193.975 14.35 195.056 15.429 195.056 16.758Z" fill="#F5E4D4"/>
<path d="M191.49 17.2225C191.49 16.3007 192.235 15.5576 193.158 15.5576" stroke="#626A7F" stroke-width="0.491" stroke-miterlimit="10" stroke-linecap="round"/>
<path d="M181.668 12.7352C181.668 12.7352 183.172 12.7352 184.246 14.1714" stroke="#626A7F" stroke-width="0.491" stroke-miterlimit="10" stroke-linecap="round"/>
<path d="M182.668 15.4095C182.744 14.994 182.647 14.6287 182.453 14.5934C182.258 14.5581 182.039 14.8663 181.964 15.2817C181.888 15.6972 181.984 16.0626 182.179 16.0979C182.373 16.1332 182.592 15.825 182.668 15.4095Z" fill="#626A7F"/>
<path d="M192.643 14.35C193.975 14.35 195.056 15.429 195.056 16.758C195.056 16.7652 195.056 16.7795 195.056 16.7938C196.13 15.1432 198.764 10.9417 198.764 9.51971C198.764 7.61188 196.38 5.70404 193.91 6.57579C194.075 6.45431 194.247 6.3257 194.426 6.18994C195.378 5.44681 195.879 4.88947 195.958 4.48932C195.986 4.34641 195.965 4.21779 195.893 4.11776C195.607 3.71047 195.292 3.53183 194.956 3.58899C194.462 3.66759 193.953 4.27496 193.445 5.38964C193.216 5.89697 193.037 6.39715 192.937 6.70441C192.736 5.51112 191.77 1.55969 187.618 2.16705C186.186 2.37427 185.513 2.96734 185.327 3.61757C184.139 2.68867 182.549 1.95983 181.232 2.65294C178.956 3.84623 179.235 5.80408 180.552 7.1903C179.306 7.16886 178.433 7.53328 178.433 8.58366C178.433 9.5483 179.428 10.0127 180.795 10.1985C182.163 10.3843 183.917 10.2843 185.434 10.1128C186.515 9.99131 187.489 9.84126 188.112 9.73408C187.697 10.5844 187.532 11.3132 187.568 11.9277C187.632 13.1996 188.556 13.9499 189.858 14.2143C190.138 14.2714 190.438 14.3072 190.746 14.3215L192.643 14.35ZM194.998 3.87481C195.02 3.86766 195.041 3.86767 195.07 3.86767C195.271 3.86767 195.464 4.01057 195.657 4.2821C195.671 4.31068 195.693 4.35355 195.679 4.43215C195.564 5.01093 194.096 6.11134 193.245 6.69012C193.581 5.70405 194.29 3.99628 194.998 3.87481Z" fill="#F6C850"/>
<path d="M186.93 5.98987C186.436 5.98987 185.935 5.72549 185.57 5.26103C185.162 4.74656 185.026 4.11062 185.198 3.56042C185.219 3.48896 185.291 3.44609 185.362 3.46038C185.391 3.46038 185.42 3.46753 185.441 3.48896C186.522 4.26067 187.388 5.36107 187.259 5.79694C187.231 5.91127 187.138 5.98272 187.016 5.98987C186.987 5.98987 186.959 5.98987 186.93 5.98987ZM185.427 3.83194C185.362 4.24638 185.491 4.70369 185.792 5.0824C186.114 5.48969 186.558 5.72549 186.987 5.6969C187.002 5.51112 186.522 4.66082 185.427 3.83194Z" fill="white"/>
<path d="M172.798 69.0841H126.982C125.851 69.0841 125.171 67.8408 125.773 66.8905L131.872 57.3299C132.667 56.0866 134.034 55.3363 135.509 55.3363H166.52L172.798 69.0841Z" fill="#F5E4D4"/>
<path d="M136.518 55.3434L140.169 49.3413C140.384 48.984 140.778 48.7625 141.193 48.7625C142.131 48.7625 142.703 49.7843 142.216 50.5846L139.317 55.3434H136.518Z" fill="#F69050"/>
<path d="M172.799 69.0841H162.497C162.476 69.0627 162.447 69.0341 162.426 69.0127C159.92 66.4403 158.854 62.5389 160.264 58.7804L161.731 55.3363H166.521L172.799 69.0841Z" fill="#626A7F"/>
<path d="M133.454 62.6675H127.713C127.326 62.6675 126.968 62.8747 126.775 63.2106L126.167 64.2681C125.759 64.9826 126.274 65.8758 127.104 65.8758H131.722C132.524 65.8758 133.268 65.4614 133.69 64.7754L134.184 63.968C134.528 63.3964 134.12 62.6675 133.454 62.6675Z" fill="#F5E4D4"/>
<path d="M131.972 65.8759H126.231C125.844 65.8759 125.486 66.0831 125.293 66.4189L124.685 67.4764C124.277 68.191 124.792 69.0842 125.622 69.0842H130.24C131.042 69.0842 131.786 68.6697 132.208 67.9838L132.702 67.1763C133.053 66.6047 132.638 65.8759 131.972 65.8759Z" fill="#F5E4D4"/>
<path d="M135.094 59.4164H129.353C128.966 59.4164 128.608 59.6236 128.415 59.9594L127.806 61.0169C127.398 61.7315 127.914 62.6247 128.744 62.6247H133.361C134.163 62.6247 134.908 62.2102 135.33 61.5243L135.824 60.7168C136.175 60.1452 135.76 59.4164 135.094 59.4164Z" fill="#F5E4D4"/>
<path d="M133.454 62.6675H127.713C127.326 62.6675 126.968 62.8747 126.775 63.2106L126.167 64.2681C125.759 64.9826 126.274 65.8758 127.104 65.8758H131.722C132.524 65.8758 133.268 65.4614 133.69 64.7754L134.184 63.968C134.528 63.3964 134.12 62.6675 133.454 62.6675Z" stroke="#626A7F" stroke-width="0.491" stroke-miterlimit="10" stroke-linecap="round"/>
<path d="M131.972 65.8759H126.231C125.844 65.8759 125.486 66.0831 125.293 66.4189L124.685 67.4764C124.277 68.191 124.792 69.0842 125.622 69.0842H130.24C131.042 69.0842 131.786 68.6697 132.208 67.9838L132.702 67.1763C133.053 66.6047 132.638 65.8759 131.972 65.8759Z" stroke="#626A7F" stroke-width="0.491" stroke-miterlimit="10" stroke-linecap="round"/>
<path d="M135.094 59.4164H129.353C128.966 59.4164 128.608 59.6236 128.415 59.9594L127.806 61.0169C127.398 61.7315 127.914 62.6247 128.744 62.6247H133.361C134.163 62.6247 134.908 62.2102 135.33 61.5243L135.824 60.7168C136.175 60.1452 135.76 59.4164 135.094 59.4164Z" stroke="#626A7F" stroke-width="0.491" stroke-miterlimit="10" stroke-linecap="round"/>
<path d="M143.405 64.1966C141.68 64.1966 140.019 63.575 138.716 62.4389L136.54 60.5382H134.535L134.02 61.0884C133.096 62.0744 131.958 62.6389 130.605 62.6389H129.646C129.145 62.6389 128.837 62.0816 129.109 61.66L131.521 57.8872H143.412V64.1966H143.405Z" fill="#F5E4D4"/>
<path d="M131.521 57.8872L129.109 61.66C128.837 62.0816 129.145 62.6389 129.646 62.6389H130.605C131.958 62.6389 133.096 62.0816 134.02 61.0884L134.535 60.5382H136.54L138.716 62.4389C140.012 63.5678 141.679 64.1966 143.405 64.1966" stroke="#626A7F" stroke-width="0.491" stroke-miterlimit="10" stroke-linecap="round"/>
<path d="M191.741 55.7222L180.809 67.9123C178.511 70.4775 175.226 71.9423 171.775 71.9423C164.96 71.9423 160.242 65.1541 162.633 58.7804L175.619 28.3265L171.231 25.8756C170.608 25.3897 170.308 24.5966 170.444 23.8249L171.188 18.8159C171.417 17.7012 172.555 16.8295 173.665 16.5723L178.805 15.4147C179.242 15.3147 179.643 15.6862 179.571 16.1221L178.826 19.9878C178.533 21.8742 179.807 23.5033 181.697 23.8249C183.243 24.0893 184.332 25.6398 184.188 27.1975L180.688 48.9911C180.681 49.0054 184.267 54.586 191.741 55.7222Z" fill="#F5E4D4"/>
<path d="M183.357 32.378L179.134 59.7522" stroke="#626A7F" stroke-width="0.491" stroke-miterlimit="10" stroke-linecap="round"/>
<path d="M174.602 19.1803L174.545 20.9524C174.524 21.6812 174.96 22.3243 175.59 22.503L182.169 23.832" stroke="#626A7F" stroke-width="0.491" stroke-miterlimit="10" stroke-linecap="round"/>
<path d="M186.644 24.4036L181.382 23.7034C179.649 23.3961 178.468 21.7813 178.712 20.0449L179.392 16.1649C179.456 15.8005 179.127 15.4933 178.769 15.579L173.4 16.8295" stroke="#626A7F" stroke-width="0.491" stroke-miterlimit="10" stroke-linecap="round"/>
<path d="M183.737 64.6254L197.969 48.8196" stroke="#F69050" stroke-width="0.5892" stroke-miterlimit="10"/>
<path d="M175.77 28.3336H178.282" stroke="#626A7F" stroke-width="0.491" stroke-miterlimit="10" stroke-linecap="round"/>
<path d="M174.609 19.6519V20.2236C174.609 20.9024 175.103 21.4597 175.712 21.4597H176.499C176.843 21.4597 177.115 21.1525 177.115 20.7666L177.165 17.0367C177.172 16.4579 176.557 16.1007 176.055 16.2221" stroke="#626A7F" stroke-width="0.491" stroke-miterlimit="10" stroke-linecap="round"/>
<path d="M177.165 19.6519V20.2236C177.165 20.9024 177.659 21.4597 178.267 21.4597H178.769" stroke="#626A7F" stroke-width="0.491" stroke-miterlimit="10" stroke-linecap="round"/>
<path d="M224.708 109.77L233.019 178.81" stroke="#88BFBF" stroke-width="0.5892" stroke-miterlimit="10"/>
<path d="M188.685 109.77L180.374 178.81" stroke="#88BFBF" stroke-width="0.5892" stroke-miterlimit="10"/>
<path d="M183.223 155.101H230.163" stroke="#88BFBF" stroke-width="0.5892" stroke-miterlimit="10"/>
<path d="M183.896 109.985H229.067C229.669 109.985 230.156 109.499 230.156 108.899V107.427C230.156 106.826 229.669 106.341 229.067 106.341H183.896C183.294 106.341 182.808 106.826 182.808 107.427V108.899C182.808 109.499 183.294 109.985 183.896 109.985Z" fill="white" stroke="#F6C850" stroke-width="0.5892" stroke-miterlimit="10"/>
<path d="M108.729 57.7372L101.814 71.9423H80.9175L89.3147 57.7372H108.729Z" fill="white" stroke="#88BFBF" stroke-width="0.491" stroke-miterlimit="10"/>
<path d="M104.148 61.2027C104.148 61.2027 103.239 59.6522 101.055 60.0523C99.4231 60.3453 97.4903 61.6886 96.3019 60.9669C95.1136 60.2452 94.0612 59.3449 92.5221 59.7736C90.983 60.2024 89.8447 61.0241 89.8447 61.0241" stroke="#88BFBF" stroke-width="0.491" stroke-miterlimit="10"/>
<path d="M103.432 63.4178C103.432 63.4178 102.523 61.8672 100.34 62.2674C98.7073 62.5604 96.7745 63.9037 95.5861 63.182C94.3978 62.4603 93.3454 61.56 91.8063 61.9887C90.2672 62.4174 89.1289 63.2392 89.1289 63.2392" stroke="#88BFBF" stroke-width="0.491" stroke-miterlimit="10"/>
<path d="M116.589 121.489C116.589 123.397 111.284 124.94 104.641 124.94C97.9977 124.94 92.8506 123.397 92.8506 121.489C92.8506 119.581 97.9977 118.038 104.641 118.038C111.284 118.038 116.589 119.588 116.589 121.489Z" fill="#F69050"/>
<path d="M113.533 119.167V143.818L112.781 140.26C111.972 136.43 108.586 133.693 104.663 133.693C103.482 133.693 102.322 133.943 101.27 134.415C101.234 134.429 101.198 134.451 101.155 134.465L98.3992 124.433L96.8672 118.852C98.9647 118.345 101.678 118.038 104.642 118.038C108.164 118.038 111.335 118.473 113.533 119.167Z" fill="#A0505A"/>
<path d="M113.532 119.167V123.811C111.335 124.504 108.163 124.94 104.641 124.94C102.357 124.94 100.224 124.754 98.3987 124.44L96.8667 118.859C98.9642 118.352 101.677 118.045 104.641 118.045C108.163 118.038 111.335 118.473 113.532 119.167Z" fill="#E0712C"/>
<path d="M113.003 143.097C113.196 143.154 115.015 143.661 116.626 143.661C117.499 143.661 118.308 143.511 118.766 143.054C119.16 142.661 119.253 142.089 119.045 141.367C118.859 140.724 118.501 140.324 117.979 140.181C117.019 139.924 115.688 140.639 114.635 141.389C116.275 139.403 117.893 136.88 117.291 135.23C117.077 134.644 116.59 134.251 115.981 134.179C115.473 134.122 115 134.301 114.779 134.636C113.748 136.201 112.903 142.625 112.867 142.897L113.003 143.097ZM115.079 134.837C115.208 134.644 115.48 134.529 115.795 134.529C115.845 134.529 115.895 134.529 115.945 134.536C116.175 134.565 116.726 134.694 116.962 135.351C117.119 135.787 117.177 136.587 116.54 137.931C115.938 139.202 114.85 140.696 113.304 142.389C113.533 140.76 114.263 136.073 115.079 134.837ZM118.515 142.804C118.043 143.275 116.969 143.418 115.401 143.218C114.578 143.111 113.812 142.939 113.404 142.832C113.712 142.561 114.285 142.068 114.95 141.61C116.225 140.732 117.241 140.353 117.893 140.531C118.286 140.639 118.551 140.946 118.709 141.468C118.881 142.068 118.816 142.504 118.515 142.804Z" fill="#F6C850"/>
<path d="M98.4709 136.466L96.8172 138.316C94.9416 140.417 94.6338 143.475 96.0584 145.905L103.339 158.366C104.763 160.803 107.376 162.296 110.197 162.296H113.211C115.394 162.296 117.019 160.296 116.568 158.166L112.774 140.267C111.965 136.437 108.579 133.7 104.656 133.7C102.301 133.693 100.046 134.701 98.4709 136.466Z" fill="white" stroke="#88BFBF" stroke-width="0.491" stroke-miterlimit="10"/>
<path d="M104.105 141.853L113.504 160.031C113.948 160.853 114.499 161.382 115.129 161.718C114.585 162.082 113.926 162.304 113.211 162.304H110.197C107.369 162.304 104.756 160.803 103.339 158.374L96.0581 145.905C95.7646 145.398 95.5427 144.869 95.3924 144.319C94.3615 140.496 98.7212 137.495 101.993 139.738C102.737 140.246 103.467 140.932 104.105 141.853Z" fill="#88BFBF"/>
<path d="M104.126 141.896H95.4497C95.4927 141.761 95.5428 141.632 95.6 141.51H103.847C103.933 141.625 104.019 141.739 104.105 141.861L104.126 141.896Z" fill="white"/>
<path d="M105.4 144.354H95.4067C95.4067 144.34 95.3996 144.326 95.3996 144.319C95.3709 144.204 95.3423 144.083 95.3208 143.968H105.207L105.4 144.354Z" fill="white"/>
<path d="M106.675 146.82H96.5953L96.3662 146.427H106.474L106.675 146.82Z" fill="white"/>
<path d="M107.949 149.285H98.0338L97.8047 148.892H107.748L107.949 149.285Z" fill="white"/>
<path d="M109.223 151.743H99.4727L99.2437 151.357H109.023L109.223 151.743Z" fill="white"/>
<path d="M110.497 154.208H100.912L100.683 153.815H110.29L110.497 154.208Z" fill="white"/>
<path d="M111.772 156.673H102.351L102.122 156.28H111.564L111.772 156.673Z" fill="white"/>
<path d="M113.039 159.131H103.847C103.754 159.002 103.661 158.874 103.575 158.745H112.839L113.039 159.131Z" fill="white"/>
<path d="M114.922 161.596H106.932C106.675 161.482 106.424 161.353 106.181 161.21H114.406C114.571 161.353 114.743 161.482 114.922 161.596Z" fill="white"/>
<path d="M87.2668 120.982C87.2024 122.868 81.8405 124.397 75.2401 124.397C68.6397 124.397 63.2778 122.875 63.2134 120.982V106.126H87.2668V120.982Z" fill="#E0712C"/>
<path d="M85.6701 123.447L85.6343 125.212L85.2907 142.44V141.939C85.2907 137.516 81.697 133.929 77.2657 133.929H76.7789C74.5167 133.929 72.4765 134.808 70.966 136.223L69.9137 129.12L69.2622 124.726C71.0233 125.019 73.0635 125.183 75.2326 125.183C79.6997 125.176 83.5869 124.476 85.6701 123.447Z" fill="#A0505A"/>
<path d="M85.6697 123.447L85.634 125.212C82.9709 127.098 74.7455 129.42 69.9205 129.113L69.269 124.719C71.0301 125.004 73.0703 125.176 75.2394 125.176C79.6993 125.176 83.5865 124.476 85.6697 123.447Z" fill="#E0712C"/>
<path d="M77.631 162.532H78.9625C82.456 162.532 85.2908 159.703 85.2908 156.216V141.939C85.2908 137.516 81.6971 133.929 77.2659 133.929H76.7791C71.6248 133.929 67.6517 138.466 68.3461 143.568L70.0284 155.916C70.551 159.703 73.7939 162.532 77.631 162.532Z" fill="white" stroke="#88BFBF" stroke-width="0.491" stroke-miterlimit="10"/>
<path d="M83.3005 160.81C82.1694 161.875 80.6374 162.532 78.9623 162.532H77.6307C73.7937 162.532 70.5507 159.703 70.0353 155.916L68.353 143.568C68.3244 143.333 68.2957 143.097 68.2886 142.868C68.7181 140.131 71.0876 138.038 73.9511 138.038C75.3614 138.038 76.6643 138.552 77.6737 139.41C78.6831 140.267 79.3918 141.475 79.6137 142.868L81.8258 157.938C81.9904 159.06 82.5202 160.06 83.3005 160.81Z" fill="#88BFBF"/>
<path d="M78.9485 140.96H68.9478C69.0193 140.824 69.1052 140.696 69.1911 140.574H78.7123C78.7982 140.696 78.8769 140.824 78.9485 140.96Z" fill="white"/>
<path d="M79.6931 143.418H68.3322C68.3179 143.29 68.3035 143.161 68.2964 143.032H79.6359L79.6931 143.418Z" fill="white"/>
<path d="M80.0582 145.883H68.6686L68.6113 145.498H80.0009L80.0582 145.883Z" fill="white"/>
<path d="M80.4161 148.349H69.005L68.9478 147.956H80.3588L80.4161 148.349Z" fill="white"/>
<path d="M80.7811 150.807H69.3415L69.2842 150.421H80.7239L80.7811 150.807Z" fill="white"/>
<path d="M81.139 153.272H69.6707L69.6206 152.886H81.0818L81.139 153.272Z" fill="white"/>
<path d="M81.5041 155.737H70.0071L69.957 155.344H81.4468L81.5041 155.737Z" fill="white"/>
<path d="M81.8696 158.195H70.7162C70.6518 158.066 70.5945 157.938 70.5444 157.809H81.8052L81.8266 157.938C81.841 158.023 81.8553 158.109 81.8696 158.195Z" fill="white"/>
<path d="M83.151 160.66H72.6061C72.463 160.539 72.3198 160.403 72.1909 160.274H82.8217C82.9219 160.41 83.0364 160.539 83.151 160.66Z" fill="white"/>
<path d="M92.4718 43.7679V55.8008C91.9492 54.436 87.8114 54.629 83.2585 56.351C79.357 57.8301 76.429 59.8594 75.9995 61.2671V44.3324C75.9995 39.2948 78.6984 34.7932 82.8433 32.3352C88.2267 33.2712 92.4718 37.9515 92.4718 43.7679Z" fill="#F6C850"/>
<path d="M75.6847 32.8782C72.0194 35.422 69.6857 39.645 69.6857 44.3324V58.3017H49.3047L52.1181 46.2116C53.3136 41.0598 57.0505 36.9511 61.9184 35.2005L75.6847 32.8782Z" fill="#F6C850"/>
<path d="M116.904 92.6713V120.717C116.904 118.809 111.285 117.266 104.641 117.266C97.9979 117.266 92.6146 118.809 92.6146 120.717V107.277C92.6146 106.648 92.0991 106.133 91.4692 106.133H54.9309C43.9422 106.133 35.817 95.9225 38.3011 85.24L47.1207 47.312C48.5238 41.2598 53.4347 36.651 59.5697 35.6078L61.9178 35.2076C57.0499 36.9583 53.313 41.0669 52.1175 46.2188L49.3041 58.3088H69.6851V44.3324C69.6851 39.6449 72.026 35.4148 75.6841 32.8782L78.9055 32.3352C79.5713 32.2208 80.2228 32.1708 80.8742 32.1708C80.9601 32.1708 81.0388 32.1708 81.1248 32.1708C81.2035 32.1708 81.2822 32.178 81.3538 32.178C81.3681 32.178 81.3825 32.178 81.3968 32.178C81.4541 32.178 81.5185 32.1851 81.5757 32.1851C81.5829 32.1851 81.5972 32.1851 81.6044 32.1851C81.6402 32.1851 81.676 32.1922 81.7046 32.1922C81.769 32.1994 81.8263 32.1994 81.8907 32.2065C81.9623 32.2137 82.0411 32.2208 82.1127 32.228C82.1842 32.2351 82.2487 32.2423 82.3203 32.2494C82.3346 32.2494 82.3489 32.2566 82.3704 32.2566C82.442 32.2637 82.5207 32.278 82.5923 32.2851C82.5995 32.2851 82.6066 32.2851 82.6066 32.2851C82.6854 32.2994 82.7641 32.3066 82.8429 32.3209C78.6979 34.7789 75.9991 39.2805 75.9991 44.3181V78.6519H102.873C110.619 78.6662 116.904 84.9328 116.904 92.6713Z" fill="#F69050"/>
<path d="M76.1498 32.5638C72.4846 35.1076 69.6783 39.645 69.6783 44.3324V58.3017H49.2974L52.1107 46.2116C53.3063 41.0598 56.7281 36.8725 61.6033 35.1219" stroke="white" stroke-width="0.5892" stroke-miterlimit="10" stroke-linecap="round"/>
<path d="M92.6147 102.968C92.6147 98.9879 94.025 95.1365 96.595 92.0997" stroke="white" stroke-width="0.5892" stroke-miterlimit="10" stroke-linecap="round"/>
<path d="M62.8416 101.546C62.8058 101.546 62.77 101.539 62.7414 101.517L61.7964 101.003C61.689 100.946 61.6532 100.817 61.7105 100.71C61.7678 100.603 61.8966 100.567 62.004 100.624L62.949 101.139C63.0564 101.196 63.0921 101.324 63.0349 101.432C62.9919 101.503 62.9203 101.546 62.8416 101.546ZM63.7865 101.303C63.7078 101.303 63.6362 101.26 63.6004 101.189C63.5432 101.081 63.579 100.953 63.6863 100.896L64.6313 100.381C64.7387 100.324 64.8675 100.367 64.9248 100.467C64.9821 100.574 64.9463 100.703 64.8389 100.76L63.8939 101.274C63.8581 101.289 63.8223 101.303 63.7865 101.303ZM60.9517 100.524C60.9159 100.524 60.8801 100.517 60.8515 100.496L59.9065 99.9811C59.7991 99.9239 59.7633 99.7953 59.8206 99.6881C59.8779 99.5809 60.0067 99.5452 60.1141 99.6024L61.0591 100.117C61.1664 100.174 61.2022 100.303 61.145 100.41C61.102 100.481 61.0304 100.524 60.9517 100.524ZM65.6693 100.274C65.5906 100.274 65.519 100.231 65.4832 100.16C65.4259 100.053 65.4617 99.9239 65.5691 99.8668L66.514 99.3523C66.6787 99.2666 66.829 99.1665 66.9794 99.0593C67.0724 98.9879 67.2084 99.0093 67.28 99.1022C67.3516 99.1951 67.3301 99.3309 67.2371 99.4023C67.0724 99.5238 66.9006 99.631 66.7216 99.731L65.7767 100.245C65.7409 100.267 65.7051 100.274 65.6693 100.274ZM59.0832 99.4666C59.0403 99.4666 58.9973 99.4523 58.9544 99.4238C58.6537 99.2022 58.3745 98.945 58.1383 98.652C58.0596 98.5591 58.0739 98.4234 58.1669 98.3519C58.26 98.2733 58.396 98.2876 58.4676 98.3805C58.6824 98.6449 58.9329 98.8736 59.2049 99.0736C59.298 99.1451 59.3195 99.2808 59.2551 99.3737C59.2193 99.438 59.1548 99.4666 59.0832 99.4666ZM67.8814 98.7164C67.8312 98.7164 67.7883 98.7021 67.7453 98.6663C67.6523 98.5949 67.638 98.4591 67.7167 98.3662C67.9315 98.1018 68.1104 97.816 68.2536 97.5016C68.3037 97.3944 68.4326 97.3444 68.54 97.3944C68.6473 97.4445 68.6975 97.5731 68.6473 97.6803C68.4899 98.0232 68.2894 98.3448 68.0532 98.6306C68.0031 98.6878 67.9458 98.7164 67.8814 98.7164ZM57.7374 97.8303C57.6587 97.8303 57.5799 97.7874 57.5441 97.7088C57.3866 97.3659 57.2721 97.0086 57.2005 96.637C57.179 96.5227 57.2578 96.4084 57.3723 96.3869C57.4868 96.3655 57.6014 96.4441 57.6229 96.5584C57.6873 96.8943 57.7875 97.2158 57.9307 97.5231C57.9808 97.6302 57.9307 97.7589 57.8233 97.8089C57.7947 97.8232 57.766 97.8303 57.7374 97.8303ZM68.769 96.7871C68.7547 96.7871 68.7404 96.7871 68.7333 96.7871C68.6187 96.7656 68.54 96.6513 68.5614 96.537C68.6044 96.3012 68.6259 96.0654 68.6259 95.8296V95.508C68.6259 95.3866 68.7189 95.2937 68.8406 95.2937C68.9623 95.2937 69.0554 95.3866 69.0554 95.508V95.8296C69.0554 96.094 69.0339 96.3584 68.9838 96.6156C68.9623 96.7156 68.8693 96.7871 68.769 96.7871ZM57.3437 95.7438C57.222 95.7438 57.1289 95.651 57.1289 95.5295V94.4577C57.1289 94.3362 57.222 94.2433 57.3437 94.2433C57.4654 94.2433 57.5584 94.3362 57.5584 94.4577V95.5295C57.5584 95.6438 57.4582 95.7438 57.3437 95.7438ZM68.8335 94.6506C68.7118 94.6506 68.6187 94.5577 68.6187 94.4362V93.3644C68.6187 93.2429 68.7118 93.15 68.8335 93.15C68.9552 93.15 69.0482 93.2429 69.0482 93.3644V94.4362C69.0482 94.5577 68.9552 94.6506 68.8335 94.6506ZM57.3437 93.6002C57.222 93.6002 57.1289 93.5073 57.1289 93.3858V92.314C57.1289 92.1926 57.222 92.0997 57.3437 92.0997C57.4654 92.0997 57.5584 92.1926 57.5584 92.314V93.3858C57.5584 93.5002 57.4582 93.6002 57.3437 93.6002ZM68.8335 92.507C68.7118 92.507 68.6187 92.4141 68.6187 92.2926V91.2208C68.6187 91.0993 68.7118 91.0064 68.8335 91.0064C68.9552 91.0064 69.0482 91.0993 69.0482 91.2208V92.2926C69.0482 92.4141 68.9552 92.507 68.8335 92.507ZM57.3437 91.4566C57.222 91.4566 57.1289 91.3637 57.1289 91.2422V90.1704C57.1289 90.0489 57.222 89.956 57.3437 89.956C57.4654 89.956 57.5584 90.0489 57.5584 90.1704V91.2422C57.5584 91.3565 57.4582 91.4566 57.3437 91.4566ZM68.8335 90.3633C68.7118 90.3633 68.6187 90.2704 68.6187 90.149V89.0771C68.6187 88.9557 68.7118 88.8628 68.8335 88.8628C68.9552 88.8628 69.0482 88.9557 69.0482 89.0771V90.149C69.0482 90.2704 68.9552 90.3633 68.8335 90.3633ZM57.3437 89.3129C57.222 89.3129 57.1289 89.2201 57.1289 89.0986V88.1768H57.7088C57.8305 88.1768 57.9235 88.2697 57.9235 88.3912C57.9235 88.5127 57.8305 88.6055 57.7088 88.6055H57.5584V89.0986C57.5584 89.2129 57.4582 89.3129 57.3437 89.3129ZM68.4469 88.6055H67.3731C67.2514 88.6055 67.1583 88.5127 67.1583 88.3912C67.1583 88.2697 67.2514 88.1768 67.3731 88.1768H68.4469C68.5686 88.1768 68.6617 88.2697 68.6617 88.3912C68.6617 88.5127 68.5686 88.6055 68.4469 88.6055ZM66.2993 88.6055H65.2255C65.1038 88.6055 65.0107 88.5127 65.0107 88.3912C65.0107 88.2697 65.1038 88.1768 65.2255 88.1768H66.2993C66.421 88.1768 66.514 88.2697 66.514 88.3912C66.514 88.5127 66.421 88.6055 66.2993 88.6055ZM64.1517 88.6055H63.0778C62.9561 88.6055 62.8631 88.5127 62.8631 88.3912C62.8631 88.2697 62.9561 88.1768 63.0778 88.1768H64.1517C64.2733 88.1768 64.3664 88.2697 64.3664 88.3912C64.3664 88.5127 64.2733 88.6055 64.1517 88.6055ZM62.004 88.6055H60.9302C60.8085 88.6055 60.7154 88.5127 60.7154 88.3912C60.7154 88.2697 60.8085 88.1768 60.9302 88.1768H62.004C62.1257 88.1768 62.2188 88.2697 62.2188 88.3912C62.2188 88.5127 62.1257 88.6055 62.004 88.6055ZM59.8564 88.6055H58.7826C58.6609 88.6055 58.5678 88.5127 58.5678 88.3912C58.5678 88.2697 58.6609 88.1768 58.7826 88.1768H59.8564C59.9781 88.1768 60.0712 88.2697 60.0712 88.3912C60.0712 88.5127 59.9781 88.6055 59.8564 88.6055Z" fill="white"/>
<path d="M42.5826 100.36C42.5038 100.36 42.4323 100.317 42.3965 100.245C42.3392 100.138 42.375 100.01 42.4824 99.9525L43.3557 99.4738C43.3772 99.4595 43.3987 99.4523 43.4202 99.438C43.5204 99.3809 43.6564 99.4166 43.7137 99.5166C43.771 99.6167 43.7351 99.7524 43.6349 99.8096C43.6135 99.8239 43.592 99.8382 43.5633 99.8453L42.69 100.324C42.6542 100.353 42.6184 100.36 42.5826 100.36ZM44.3938 99.2165C44.3365 99.2165 44.2792 99.1951 44.2363 99.1451C44.1575 99.0593 44.1647 98.9236 44.2506 98.845C44.5011 98.6163 44.7231 98.3519 44.9163 98.0733C44.9808 97.9732 45.1168 97.9518 45.217 98.0161C45.3172 98.0804 45.3387 98.2162 45.2743 98.3162C45.0667 98.6235 44.8161 98.9093 44.5441 99.1665C44.494 99.2022 44.4439 99.2165 44.3938 99.2165ZM45.5893 97.4587C45.5606 97.4587 45.5392 97.4516 45.5105 97.4445C45.4031 97.4016 45.3459 97.2801 45.3888 97.1658C45.5105 96.8442 45.5964 96.5155 45.6465 96.1797C45.6609 96.0654 45.7682 95.9796 45.8899 95.9939C46.0045 96.0082 46.0904 96.1154 46.0761 96.2369C46.026 96.6084 45.9329 96.9729 45.7969 97.323C45.7539 97.4087 45.6752 97.4587 45.5893 97.4587ZM45.8971 95.358C45.7754 95.358 45.6823 95.2651 45.6823 95.1436V94.0718C45.6823 93.9503 45.7754 93.8574 45.8971 93.8574C46.0188 93.8574 46.1119 93.9503 46.1119 94.0718V95.1436C46.1119 95.258 46.0188 95.358 45.8971 95.358ZM45.8971 93.2144C45.7754 93.2144 45.6823 93.1215 45.6823 93V91.9282C45.6823 91.8067 45.7754 91.7138 45.8971 91.7138C46.0188 91.7138 46.1119 91.8067 46.1119 91.9282V93C46.1119 93.1143 46.0188 93.2144 45.8971 93.2144ZM45.8971 91.0707C45.7754 91.0707 45.6823 90.9778 45.6823 90.8564V89.7845C45.6823 89.6631 45.7754 89.5702 45.8971 89.5702C46.0188 89.5702 46.1119 89.6631 46.1119 89.7845V90.8564C46.1119 90.9707 46.0188 91.0707 45.8971 91.0707ZM45.8971 88.9271C45.7754 88.9271 45.6823 88.8342 45.6823 88.7127V88.6055H45.1454C45.0237 88.6055 44.9307 88.5127 44.9307 88.3912C44.9307 88.2697 45.0237 88.1768 45.1454 88.1768H46.1119V88.7127C46.1119 88.8271 46.0188 88.9271 45.8971 88.9271ZM44.0716 88.6055H42.9978C42.8761 88.6055 42.783 88.5127 42.783 88.3912C42.783 88.2697 42.8761 88.1768 42.9978 88.1768H44.0716C44.1933 88.1768 44.2864 88.2697 44.2864 88.3912C44.2864 88.5127 44.1862 88.6055 44.0716 88.6055ZM41.924 88.6055H40.8502C40.7285 88.6055 40.6354 88.5127 40.6354 88.3912C40.6354 88.2697 40.7285 88.1768 40.8502 88.1768H41.924C42.0457 88.1768 42.1388 88.2697 42.1388 88.3912C42.1388 88.5127 42.0385 88.6055 41.924 88.6055ZM39.7764 88.6055H38.7026C38.5809 88.6055 38.4878 88.5127 38.4878 88.3912C38.4878 88.2697 38.5809 88.1768 38.7026 88.1768H39.7764C39.8981 88.1768 39.9911 88.2697 39.9911 88.3912C39.9911 88.5127 39.8909 88.6055 39.7764 88.6055Z" fill="white"/>
<path d="M92.4721 55.8008C92.9947 57.1655 89.6873 59.5878 85.1415 61.3099C80.5957 63.0319 76.5224 63.2963 75.9998 61.9244C75.4772 60.5525 78.7058 58.0802 83.2588 56.3581C87.8117 54.6361 91.9495 54.4288 92.4721 55.8008Z" fill="#F69050"/>
<path d="M95.0134 100.131V100.889C94.7771 100.831 94.5266 100.803 94.276 100.803H93.3525C91.9852 100.803 90.8184 99.931 90.3745 98.7163L92.9946 98.3662C94.0613 98.2232 95.0134 99.0521 95.0134 100.131Z" fill="#E0712C"/>
<path d="M97.4332 103.954V109.77C97.4332 111.128 96.3307 112.228 94.9706 112.228H92.2287C91.5487 112.228 90.933 111.957 90.4892 111.507C90.0453 111.064 89.7661 110.449 89.7661 109.77H91.5487C92.1357 109.77 92.6082 109.299 92.6082 108.713V107.191C92.6082 106.605 92.1357 106.133 91.5487 106.133H82.4356C78.8777 106.133 75.9927 103.254 75.9927 99.7024V61.2742C76.4222 59.8665 79.3501 57.8301 83.2517 56.3581C85.9147 55.3506 88.4418 54.8647 90.1813 54.9076V97.6516C90.1813 99.3951 91.5988 100.81 93.3455 100.81H94.269C96.0157 100.803 97.4332 102.21 97.4332 103.954Z" fill="#A0505A"/>
<path d="M90.1813 54.9004V58.7876C88.8856 59.6593 87.1317 60.5525 85.1344 61.3028C80.5814 63.0248 76.5153 63.2892 75.9927 61.9173V61.267C76.4222 59.8594 79.3501 57.8229 83.2517 56.351C85.9219 55.3434 88.4418 54.8576 90.1813 54.9004Z" fill="#E0712C"/>
<path d="M78.2758 25.9543L75.5841 32.8782L61.7104 35.3577L65.3328 25.9543H78.2758Z" fill="#A0505A"/>
<path d="M78.2758 25.9543L76.8226 29.6985L63.0635 31.8421L65.3328 25.9543H78.2758Z" fill="#E0712C"/>
<path d="M86.4079 11.8634C86.4079 12.7995 84.7829 13.8356 82.9073 14.7073C80.3516 15.9006 77.3378 16.8081 77.3378 16.8081L75.3047 20.6309C78.068 22.0957 79.149 24.7252 79.5785 26.5616C79.8505 27.7335 79.8505 28.5695 79.8505 28.5695H60.3644C60.3644 28.5695 55.2459 12.0206 67.5804 8.06206C75.1257 5.63976 86.4079 9.6412 86.4079 11.8634Z" fill="white" stroke="#F6C850" stroke-width="0.5892" stroke-miterlimit="10" stroke-linecap="round"/>
<path d="M65.7766 10.4201C68.4533 10.4201 70.6231 8.25425 70.6231 5.58259C70.6231 2.91093 68.4533 0.745117 65.7766 0.745117C63.1 0.745117 60.9302 2.91093 60.9302 5.58259C60.9302 8.25425 63.1 10.4201 65.7766 10.4201Z" fill="white" stroke="#F6C850" stroke-width="0.5892" stroke-miterlimit="10" stroke-linecap="round"/>
<path d="M79.571 26.5616C79.1702 24.8253 78.1679 22.353 75.6982 20.8596H75.061C74.474 20.8596 73.9371 20.6238 73.5505 20.2379C73.164 19.852 72.9277 19.3161 72.9277 18.7302C72.9277 17.5512 73.8798 16.6009 75.061 16.6009L77.7599 16.658H77.8315C77.8816 16.6437 77.9317 16.6223 77.989 16.608C78.7192 16.4508 81.0314 15.8935 82.95 14.936L83.1719 16.2579L83.8878 20.4951C84.3746 23.4033 82.3773 26.0829 79.571 26.5616Z" fill="#A0505A"/>
<path d="M83.1649 16.2507C80.8169 17.2011 77.7529 16.6509 77.7529 16.6509C77.7529 16.6509 80.6379 16.0793 82.943 14.9288L83.1649 16.2507Z" fill="#E0712C"/>
<path d="M76.7218 19.1375C76.7218 18.3229 76.0632 17.6655 75.2471 17.6655" stroke="#E0712C" stroke-width="0.491" stroke-miterlimit="10" stroke-linecap="round"/>
<path d="M84.3032 109.77L92.6145 178.81" stroke="#88BFBF" stroke-width="0.5892" stroke-miterlimit="10"/>
<path d="M48.2729 109.77L39.9688 178.81" stroke="#88BFBF" stroke-width="0.5892" stroke-miterlimit="10"/>
<path d="M42.8184 155.101H89.7583" stroke="#88BFBF" stroke-width="0.5892" stroke-miterlimit="10"/>
<path d="M41.05 109.77H91.5264C92.1277 109.77 92.6145 109.284 92.6145 108.684V107.212C92.6145 106.612 92.1277 106.126 91.5264 106.126H41.05C40.4487 106.126 39.9619 106.612 39.9619 107.212V108.684C39.9691 109.284 40.4559 109.77 41.05 109.77Z" fill="white" stroke="#F6C850" stroke-width="0.5892" stroke-miterlimit="10"/>
</svg>
