<svg width="304" height="210" viewBox="0 0 304 210" fill="none" xmlns="http://www.w3.org/2000/svg">
<path d="M204.467 0.794006H100.776V98.693H204.467V0.794006Z" stroke="#88BFBF" stroke-width="0.5892" stroke-miterlimit="10"/>
<path d="M152.622 0.794006H100.776V98.693H152.622V0.794006Z" stroke="#88BFBF" stroke-width="0.5892" stroke-miterlimit="10"/>
<path d="M204.467 0.794006H152.622V98.693H204.467V0.794006Z" stroke="#88BFBF" stroke-width="0.5892" stroke-miterlimit="10"/>
<path d="M194.9 10.2643H163.285V41.8477H194.9V10.2643Z" stroke="#88BFBF" stroke-width="0.5892" stroke-miterlimit="10"/>
<path d="M183.935 25.4532L180.259 28.2292" stroke="#88BFBF" stroke-width="0.5892" stroke-miterlimit="10" stroke-linecap="round"/>
<path d="M175.138 32.0998L163.285 41.0545V34.4713L194.892 11.0574V17.1806L186.373 23.6131" stroke="#88BFBF" stroke-width="0.5892" stroke-miterlimit="10" stroke-linecap="round"/>
<path d="M100.776 0.794006H152.622V8.36863L100.776 0.794006Z" fill="#88BFBF"/>
<path d="M165.571 63.3659C165.214 63.3659 164.88 63.1755 164.698 62.8583L157.115 49.6126C156.734 48.9463 157.218 48.1056 157.989 48.1056C158.346 48.1056 158.679 48.2959 158.862 48.6132L166.444 61.8589C166.825 62.5331 166.341 63.3659 165.571 63.3659Z" stroke="#88BFBF" stroke-width="0.5892" stroke-miterlimit="10"/>
<path d="M141.832 10.2643H110.217V41.8477H141.832V10.2643Z" stroke="#88BFBF" stroke-width="0.5892" stroke-miterlimit="10"/>
<path d="M110.217 34.4713L141.825 11.0574" stroke="#88BFBF" stroke-width="0.5892" stroke-miterlimit="10" stroke-linecap="round"/>
<path d="M139.537 63.3659C139.895 63.3659 140.228 63.1755 140.411 62.8583L147.993 49.6126C148.374 48.9463 147.89 48.1056 147.12 48.1056C146.762 48.1056 146.429 48.2959 146.246 48.6132L138.664 61.8589C138.283 62.5331 138.767 63.3659 139.537 63.3659Z" stroke="#88BFBF" stroke-width="0.5892" stroke-miterlimit="10"/>
<path d="M285.562 193.99L18.4663 209.06V187.621H285.562V193.99Z" fill="#D0F0E4"/>
<path d="M273.39 171.005L32.3291 186.075V164.636H273.39V171.005Z" fill="#D0F0E4"/>
<path d="M257.868 148.099L45.3418 163.168V141.729H257.868V148.099Z" fill="#D0F0E4"/>
<path d="M245.633 125.351L59.8394 140.421V118.982H245.633V125.351Z" fill="#D0F0E4"/>
<path d="M18.4663 187.621H285.562V208.267" stroke="#88BFBF" stroke-width="0.5892" stroke-miterlimit="10"/>
<path d="M32.3291 164.557H273.39V186.083" stroke="#88BFBF" stroke-width="0.5892" stroke-miterlimit="10"/>
<path d="M45.3418 141.65H257.868V163.168" stroke="#88BFBF" stroke-width="0.5892" stroke-miterlimit="10"/>
<path d="M59.9189 118.903H245.634V140.421" stroke="#88BFBF" stroke-width="0.5892" stroke-miterlimit="10"/>
<path d="M228.96 103.856L76.52 117.062V98.2726H228.96V103.856Z" fill="#D0F0E4"/>
<path d="M76.584 98.2012H228.96V117.062" stroke="#88BFBF" stroke-width="0.5892" stroke-miterlimit="10"/>
<path d="M59.856 141.309V91.8005" stroke="#88BFBF" stroke-width="0.5892" stroke-miterlimit="10"/>
<path d="M100.879 58.2104L7.62895 134.52C4.36578 137.78 2.53174 142.197 2.53174 146.806C2.53174 156.403 10.3205 164.58 19.9273 164.58" stroke="#88BFBF" stroke-width="0.5892" stroke-miterlimit="10"/>
<path d="M32.0908 186.083V114.453" stroke="#88BFBF" stroke-width="0.5892" stroke-miterlimit="10"/>
<path d="M245.634 141.468V91.8005" stroke="#88BFBF" stroke-width="0.5892" stroke-miterlimit="10"/>
<path d="M204.61 58.2104L297.869 134.52C301.132 137.78 302.966 142.197 302.966 146.806C302.966 156.403 295.177 164.58 285.57 164.58" stroke="#88BFBF" stroke-width="0.5892" stroke-miterlimit="10"/>
<path d="M273.407 186.083V114.453" stroke="#88BFBF" stroke-width="0.5892" stroke-miterlimit="10"/>
<path d="M260.742 209.497C260.742 209.497 271.135 190.865 264.823 190.762C261.878 190.715 258.861 200.796 260.004 209.497H260.742Z" fill="#88BFBF"/>
<path d="M260.29 209.394C260.29 209.394 264.148 191.952 273.469 194.768C282.79 197.584 266.879 209.394 266.879 209.394" stroke="#F6C850" stroke-width="0.5892" stroke-miterlimit="10" stroke-linecap="round"/>
<path d="M247.816 209.695C244.585 209.394 242.759 203.619 246.586 201.692C252.088 198.924 253.811 204.706 252.723 204.896C251.635 205.095 250.103 197.782 254.851 197.98C259.599 198.178 259.773 209.394 259.773 209.394" stroke="#F6C850" stroke-width="0.5892" stroke-miterlimit="10" stroke-linecap="round"/>
<path d="M264.196 209.394C264.196 209.394 269.158 197.353 273.993 194.95" stroke="#F6C850" stroke-width="0.5892" stroke-miterlimit="10" stroke-linecap="round"/>
<path d="M258.908 203.144C258.908 203.144 257.741 196.679 257.693 192.428" stroke="#F6C850" stroke-width="0.5892" stroke-miterlimit="10"/>
<path d="M260.321 195.307C260.091 195.878 258.313 197.298 258.313 197.298C258.313 197.298 258.027 195.037 258.257 194.466C258.487 193.895 259.138 193.626 259.702 193.856C260.274 194.086 260.552 194.736 260.321 195.307Z" stroke="#F6C850" stroke-width="0.5892" stroke-miterlimit="10"/>
<path d="M259.726 190.762C259.495 191.333 257.717 192.753 257.717 192.753C257.717 192.753 257.431 190.493 257.661 189.922C257.892 189.351 258.543 189.081 259.106 189.311C259.678 189.549 259.956 190.191 259.726 190.762Z" stroke="#F6C850" stroke-width="0.5892" stroke-miterlimit="10"/>
<path d="M255.629 195.807C255.962 196.322 257.979 197.377 257.979 197.377C257.979 197.377 257.828 195.109 257.495 194.593C257.161 194.078 256.471 193.935 255.955 194.268C255.438 194.609 255.296 195.291 255.629 195.807Z" stroke="#F6C850" stroke-width="0.5892" stroke-miterlimit="10"/>
<path d="M29.6684 209.822C29.6684 209.822 23.285 204.063 23.412 199.931C23.5549 195.204 28.0805 197.488 28.3187 195.783C28.5648 194.086 23.5391 182.474 30.5338 182.561C37.5286 182.648 34.2734 193.784 36.1709 194.815C38.0685 195.838 41.2125 194.617 40.363 199.122C39.5135 203.635 32.4473 209.766 32.4473 209.766L29.6684 209.822Z" fill="#88BFBF"/>
<path d="M10.5025 209.679C6.36596 209.679 3.18219 202.128 9.55767 200.129C15.9332 198.131 16.6318 204.151 15.2424 204.381C13.853 204.611 13.1622 192.817 24.6349 194.419C37.1556 196.164 29.5019 209.679 29.5019 209.679C29.5019 209.679 36.8857 197.274 30.0974 182.744" stroke="#F6C850" stroke-width="0.5892" stroke-miterlimit="10" stroke-linecap="round"/>
<path d="M38.1719 209.679C38.1719 209.679 44.6506 196.132 50.8673 200.447C57.0839 204.762 42.491 209.679 42.491 209.679" stroke="#F6C850" stroke-width="0.5892" stroke-miterlimit="10" stroke-linecap="round"/>
<path d="M40.5063 209.56C40.5063 209.56 46.8024 201.153 50.9548 200.534" stroke="#F6C850" stroke-width="0.5892" stroke-miterlimit="10" stroke-linecap="round"/>
<path d="M32.5586 209.6C32.5586 209.6 35.9647 201.676 38.9817 196.981" stroke="#F6C850" stroke-width="0.5892" stroke-miterlimit="10" stroke-linecap="round"/>
<path d="M39.7834 202.025C39.1165 202.485 36.1392 202.763 36.1392 202.763C36.1392 202.763 37.4651 200.082 38.1241 199.622C38.791 199.162 39.6961 199.328 40.1566 199.995C40.6171 200.661 40.4504 201.573 39.7834 202.025Z" stroke="#F6C850" stroke-width="0.5892" stroke-miterlimit="10"/>
<path d="M42.4197 196.616C41.7527 197.076 38.7754 197.353 38.7754 197.353C38.7754 197.353 40.1013 194.673 40.7603 194.212C41.4272 193.752 42.3323 193.919 42.7928 194.585C43.2533 195.252 43.0866 196.164 42.4197 196.616Z" stroke="#F6C850" stroke-width="0.5892" stroke-miterlimit="10"/>
<path d="M43.5235 192.023C43.0948 192.705 40.4668 194.133 40.4668 194.133C40.4668 194.133 40.6177 191.151 41.0543 190.469C41.4831 189.787 42.3882 189.58 43.071 190.009C43.7538 190.437 43.9523 191.341 43.5235 192.023Z" stroke="#F6C850" stroke-width="0.5892" stroke-miterlimit="10"/>
<path d="M34.274 199.186C34.266 199.995 35.711 202.612 35.711 202.612C35.711 202.612 37.1878 200.01 37.1957 199.209C37.2037 198.4 36.5526 197.742 35.7428 197.742C34.9409 197.734 34.2819 198.377 34.274 199.186Z" stroke="#F6C850" stroke-width="0.5892" stroke-miterlimit="10"/>
<path d="M37.2271 193.84C37.2191 194.649 38.6642 197.266 38.6642 197.266C38.6642 197.266 40.1409 194.665 40.1489 193.863C40.1568 193.054 39.5057 192.396 38.6959 192.396C37.8861 192.396 37.235 193.039 37.2271 193.84Z" stroke="#F6C850" stroke-width="0.5892" stroke-miterlimit="10"/>
<path d="M227.745 209.695H294.66" stroke="#88BFBF" stroke-width="0.5892" stroke-miterlimit="10"/>
<path d="M0.205078 209.695H161.648" stroke="#88BFBF" stroke-width="0.5892" stroke-miterlimit="10"/>
<path d="M146.961 57.4172C146.961 57.909 146.905 58.3928 146.802 58.8687C146.778 58.9639 146.754 59.0591 146.73 59.1542C146.476 60.106 146.016 61.0102 145.357 61.7796C145.349 61.7875 145.341 61.8034 145.333 61.8113C145.262 61.8986 145.182 61.9779 145.103 62.0651C145.087 62.0889 145.063 62.1048 145.047 62.1206C144.785 62.3903 144.492 62.6441 144.174 62.8741C143.618 63.2787 143.031 63.58 142.419 63.7942C142.324 63.8259 142.229 63.8577 142.133 63.8894C141.276 64.1432 140.379 64.2225 139.505 64.1273C139.41 64.1194 139.315 64.1035 139.22 64.0877C138.291 63.9449 137.394 63.6197 136.592 63.1042C136.496 63.0407 136.401 62.9773 136.306 62.9138C135.956 62.6679 135.631 62.3824 135.329 62.0651C135.242 61.9699 135.155 61.8827 135.075 61.7796C134.908 61.5813 134.742 61.3671 134.599 61.1451L134.099 60.3916L134.543 61.7796L134.631 62.0651L135.464 64.6905L135.552 64.976L136.306 67.3555L136.385 67.6013L136.473 67.8869L136.592 68.2517L137.306 70.5122L137.394 70.7978L138.227 73.4231L138.315 73.7086L139.148 76.334L139.212 76.5402L139.236 76.6195L139.498 77.4364L139.545 77.5871C139.537 77.5554 139.521 77.5237 139.498 77.492C139.442 77.4127 139.347 77.3413 139.212 77.2778C138.759 77.0557 137.854 76.8892 136.584 76.794C136.488 76.7861 136.393 76.7781 136.298 76.7702C135.536 76.7226 134.662 76.6909 133.67 76.675C133.575 76.675 133.479 76.675 133.384 76.675C132.574 76.6671 131.701 76.675 130.756 76.6988C130.661 76.6988 130.566 76.7067 130.47 76.7067C129.637 76.7305 128.763 76.7623 127.842 76.8019C127.747 76.8099 127.652 76.8099 127.556 76.8178C126.715 76.8574 125.841 76.905 124.928 76.9606C124.833 76.9685 124.738 76.9685 124.643 76.9764C123.793 77.0319 122.92 77.0875 122.015 77.1588C121.919 77.1668 121.824 77.1747 121.729 77.1826C120.871 77.2461 119.998 77.3175 119.101 77.3968C119.013 77.4047 118.926 77.4127 118.839 77.4206C118.831 77.4206 118.823 77.4206 118.815 77.4206C117.926 77.4999 117.044 77.5792 116.187 77.6665C116.092 77.6744 115.996 77.6823 115.901 77.6982C115.004 77.7854 114.123 77.8806 113.273 77.9837C113.178 77.9917 113.083 78.0075 112.987 78.0154C112.082 78.1186 111.201 78.2296 110.359 78.3486C110.264 78.3644 110.169 78.3724 110.073 78.3882C109.152 78.5151 108.279 78.642 107.445 78.7689C107.35 78.7848 107.255 78.8007 107.16 78.8165C106.255 78.9593 105.413 79.11 104.627 79.2528C104.595 79.2607 104.563 79.2686 104.532 79.2686C104.436 79.2845 104.341 79.3083 104.246 79.3242C103.889 79.3955 103.547 79.4669 103.222 79.5383C102.634 79.6652 102.102 79.7921 101.618 79.919C101.523 79.9428 101.427 79.9666 101.332 79.9983C99.6647 80.4504 98.7199 80.8946 98.7199 81.2912V69.9015H89.9625C89.8672 69.9015 89.772 69.9015 89.6767 69.8936C88.7557 69.8618 87.8744 69.6873 87.0487 69.4018C86.9534 69.3701 86.8581 69.3304 86.7629 69.2987C85.8974 68.9576 85.0955 68.4897 84.381 67.9107C84.3016 67.8472 84.2143 67.7758 84.1349 67.7044C84.1031 67.6807 84.0793 67.6569 84.0475 67.6251C83.984 67.5696 83.9126 67.5062 83.849 67.4427C83.7935 67.3951 83.7458 67.3396 83.6902 67.2841C83.0233 66.6178 82.4596 65.8485 82.0309 64.9919C81.9832 64.8967 81.9356 64.8015 81.8959 64.7063C81.5148 63.8894 81.2607 63.009 81.1496 62.081C81.1337 61.9858 81.1258 61.8906 81.1178 61.7955C81.094 61.5258 81.0781 61.2561 81.0781 60.9785C81.0781 60.3678 81.1416 59.7571 81.2607 59.1701C81.2766 59.0749 81.3004 58.9798 81.3242 58.8846C81.5466 57.9566 81.9197 57.0762 82.4279 56.2592C82.4755 56.1879 82.5231 56.1085 82.5708 56.0372L82.6105 55.9737L83.8411 54.1257L84.1269 53.6974L84.3651 53.3484L84.5557 53.0628L86.3103 50.4375L86.5009 50.152L86.7629 49.7633L87.0487 49.335L88.2555 47.5266L88.4461 47.2411L89.6767 45.393L89.9625 44.9647L90.1928 44.6157L90.3833 44.3302L92.138 41.7049L92.3285 41.4193L92.3761 41.3479C92.4476 41.2448 92.5191 41.1497 92.5905 41.0465C92.6858 40.9196 92.7811 40.8007 92.8763 40.6738C93.4321 39.9758 94.0514 39.3492 94.7342 38.794C94.8533 38.6988 94.9724 38.6036 95.0915 38.5085C95.2264 38.4053 95.3694 38.3022 95.5043 38.2071C95.5996 38.1436 95.6949 38.0801 95.7902 38.0167C96.6079 37.4694 97.4972 37.0253 98.4182 36.6842C98.5134 36.6525 98.6087 36.6128 98.704 36.5811C99.5535 36.2876 100.435 36.0893 101.332 35.9862C101.427 35.9783 101.523 35.9624 101.618 35.9545C102.015 35.9148 102.42 35.899 102.825 35.899H125.079L125.103 35.891L125.834 35.6055L127.548 34.9393L127.834 34.8282L130.462 33.8051L130.748 33.694L132.598 32.9802L133.328 32.6946L133.376 32.6708L133.662 32.5598L134.154 32.3694L134.329 32.6946L134.488 32.9802L135.925 35.6055L136.084 35.891L136.29 36.2718L136.576 36.7952L137.521 38.5164L137.679 38.8019L139.116 41.4273L139.204 41.5938L139.267 41.7128L139.49 42.1094L140.704 44.3381L140.863 44.6237L142.118 46.9159L142.3 47.249L142.403 47.4314L142.459 47.5345L143.896 50.1599L144.055 50.4454L145.031 52.23L145.317 52.7535L145.492 53.0708L145.651 53.3563L146.119 54.2129C146.429 54.784 146.651 55.3788 146.786 55.9816C146.81 56.0768 146.826 56.172 146.842 56.2672C146.929 56.632 146.961 57.0286 146.961 57.4172Z" fill="#F69050"/>
<g opacity="0.2">
<g opacity="0.2">
<g opacity="0.2">
<path opacity="0.2" d="M84.1672 53.6894V67.6806C84.1354 67.6568 84.1116 67.633 84.0798 67.6013C84.0163 67.5458 83.9449 67.4824 83.8813 67.4189V54.1177L84.1672 53.6894Z" fill="white"/>
</g>
<g opacity="0.2">
<path opacity="0.2" d="M89.9948 44.9568V69.8777C89.8995 69.8777 89.8043 69.8777 89.709 69.8698V45.3851L89.9948 44.9568Z" fill="white"/>
</g>
<g opacity="0.2">
<path opacity="0.2" d="M87.0808 49.3192V69.3701C86.9855 69.3384 86.8902 69.2987 86.7949 69.267V49.7475L87.0808 49.3192Z" fill="white"/>
</g>
<g opacity="0.2">
<path opacity="0.2" d="M95.8225 38.0009V69.8698H95.5366V38.1991C95.6319 38.1357 95.7272 38.0643 95.8225 38.0009Z" fill="white"/>
</g>
<g opacity="0.2">
<path opacity="0.2" d="M92.9089 40.6658V69.8698H92.623V41.0386C92.7183 40.9117 92.8136 40.7927 92.9089 40.6658Z" fill="white"/>
</g>
<g opacity="0.2">
<path opacity="0.2" d="M101.65 35.9465V79.9031C101.555 79.9269 101.46 79.9507 101.364 79.9824V35.9703C101.46 35.9624 101.555 35.9545 101.65 35.9465Z" fill="white"/>
</g>
<g opacity="0.2">
<path opacity="0.2" d="M98.7365 36.5731V69.8777H98.4507V36.6683C98.546 36.6366 98.6412 36.6048 98.7365 36.5731Z" fill="white"/>
</g>
<g opacity="0.2">
<g opacity="0.2">
<path opacity="0.2" d="M104.556 35.8752V79.2528C104.461 79.2686 104.366 79.2924 104.271 79.3083V35.8752H104.556Z" fill="white"/>
</g>
</g>
<g opacity="0.2">
<path opacity="0.2" d="M110.383 35.8752V78.3327C110.288 78.3486 110.193 78.3565 110.098 78.3724V35.8752H110.383Z" fill="white"/>
</g>
<g opacity="0.2">
<path opacity="0.2" d="M107.47 35.8752V78.7531C107.375 78.7689 107.279 78.7848 107.184 78.8007V35.8752H107.47Z" fill="white"/>
</g>
<g opacity="0.2">
<path opacity="0.2" d="M116.212 35.8752V77.6585C116.116 77.6665 116.021 77.6744 115.926 77.6903V35.8752H116.212Z" fill="white"/>
</g>
<g opacity="0.2">
<path opacity="0.2" d="M113.297 35.8752V77.9679C113.202 77.9758 113.107 77.9916 113.011 77.9996V35.8752H113.297Z" fill="white"/>
</g>
<g opacity="0.2">
<path opacity="0.2" d="M122.039 35.8752V77.1509C121.944 77.1588 121.849 77.1668 121.753 77.1747V35.8752H122.039Z" fill="white"/>
</g>
<g opacity="0.2">
<path opacity="0.2" d="M119.125 35.8752V77.3889C119.038 77.3968 118.95 77.4047 118.863 77.4127C118.855 77.4127 118.847 77.4127 118.839 77.4127V35.8752H119.125Z" fill="white"/>
</g>
<g opacity="0.2">
<g opacity="0.2">
<path opacity="0.2" d="M124.945 35.8752V76.9606C124.85 76.9685 124.754 76.9685 124.659 76.9764V35.8752H124.945Z" fill="white"/>
</g>
</g>
<g opacity="0.2">
<path opacity="0.2" d="M130.773 33.686V76.7067C130.677 76.7067 130.582 76.7146 130.487 76.7146V33.7971L130.773 33.686Z" fill="white"/>
</g>
<g opacity="0.2">
<path opacity="0.2" d="M127.859 34.8124V76.8019C127.763 76.8099 127.668 76.8099 127.573 76.8178V34.9234L127.859 34.8124Z" fill="white"/>
</g>
<g opacity="0.2">
<path opacity="0.2" d="M136.6 36.7793V63.1041C136.505 63.0407 136.409 62.9772 136.314 62.9138V36.2638L136.6 36.7793Z" fill="white"/>
<path opacity="0.2" d="M136.6 68.2517V76.7939C136.505 76.786 136.41 76.7781 136.314 76.7701V67.3475L136.394 67.5933L136.481 67.8789L136.6 68.2517Z" fill="white"/>
</g>
<g opacity="0.2">
<path opacity="0.2" d="M133.686 32.5122V32.5519L133.4 32.6629V32.5122H133.686Z" fill="white"/>
<path opacity="0.2" d="M133.686 32.5519V76.683C133.591 76.683 133.496 76.683 133.4 76.683V32.6629L133.686 32.5519Z" fill="white"/>
</g>
<g opacity="0.2">
<path opacity="0.2" d="M142.428 47.4156V63.7942C142.333 63.8259 142.237 63.8577 142.142 63.8894V46.9L142.325 47.2331L142.428 47.4156Z" fill="white"/>
</g>
<g opacity="0.2">
<path opacity="0.2" d="M139.514 77.4364V77.4999C139.458 77.4206 139.363 77.3492 139.228 77.2857V76.5402L139.252 76.6195L139.514 77.4364Z" fill="white"/>
<path opacity="0.2" d="M139.514 42.0935V64.1194C139.419 64.1114 139.323 64.0956 139.228 64.0797V41.5779L139.292 41.6969L139.514 42.0935Z" fill="white"/>
</g>
<g opacity="0.2">
<g opacity="0.2">
<path opacity="0.2" d="M145.334 52.7297V61.8113C145.262 61.8985 145.183 61.9778 145.103 62.0651C145.088 62.0889 145.064 62.1047 145.048 62.1206V52.2141L145.334 52.7297Z" fill="white"/>
</g>
</g>
</g>
<g opacity="0.2">
<g opacity="0.2">
<path opacity="0.2" d="M104.659 79.2369C104.627 79.2448 104.595 79.2527 104.563 79.2527C104.468 79.2686 104.373 79.2924 104.278 79.3083C103.92 79.3796 103.579 79.451 103.253 79.5224H98.7358V79.2369H104.659Z" fill="white"/>
</g>
<g opacity="0.2">
<path opacity="0.2" d="M138.331 73.7007H98.7358V73.4152H138.235L138.331 73.7007Z" fill="white"/>
</g>
<g opacity="0.2">
<path opacity="0.2" d="M139.251 76.6115H98.7358V76.326H139.164L139.228 76.5322L139.251 76.6115Z" fill="white"/>
</g>
<g opacity="0.2">
<g opacity="0.2">
<path opacity="0.2" d="M137.402 70.7898H98.7358V70.5122H137.314L137.402 70.7898Z" fill="white"/>
</g>
</g>
<g opacity="0.2">
<path opacity="0.2" d="M135.559 64.976H82.07C82.0224 64.8808 81.9748 64.7857 81.9351 64.6905H135.472L135.559 64.976Z" fill="white"/>
</g>
<g opacity="0.2">
<path opacity="0.2" d="M136.48 67.8868H84.4121C84.3327 67.8234 84.2453 67.752 84.1659 67.6806C84.1342 67.6568 84.1104 67.633 84.0786 67.6013H136.385L136.48 67.8868Z" fill="white"/>
</g>
<g opacity="0.2">
<path opacity="0.2" d="M146.809 58.8687C146.785 58.9639 146.762 59.0591 146.738 59.1542H81.2998C81.3157 59.0591 81.3395 58.9639 81.3633 58.8687H146.809Z" fill="white"/>
</g>
<g opacity="0.2">
<path opacity="0.2" d="M134.638 62.0651H81.1812C81.1653 61.97 81.1574 61.8748 81.1494 61.7796H134.543L134.638 62.0651Z" fill="white"/>
<path opacity="0.2" d="M145.364 61.7796C145.356 61.7875 145.348 61.8034 145.34 61.8113C145.269 61.8986 145.19 61.9779 145.11 62.0651H135.337C135.249 61.97 135.162 61.8827 135.083 61.7796H145.364Z" fill="white"/>
</g>
<g opacity="0.2">
<path opacity="0.2" d="M145.667 53.3325H84.4048L84.5953 53.0469H145.508L145.667 53.3325Z" fill="white"/>
</g>
<g opacity="0.2">
<path opacity="0.2" d="M146.857 56.2434H82.4673C82.5149 56.172 82.5626 56.0927 82.6102 56.0213L82.6499 55.9578H146.802C146.825 56.053 146.841 56.1482 146.857 56.2434Z" fill="white"/>
</g>
<g opacity="0.2">
<g opacity="0.2">
<path opacity="0.2" d="M144.07 50.4216H86.3496L86.5322 50.144H143.919L144.07 50.4216Z" fill="white"/>
</g>
</g>
<g opacity="0.2">
<path opacity="0.2" d="M140.887 44.6078H90.2246L90.4152 44.3223H140.728L140.887 44.6078Z" fill="white"/>
</g>
<g opacity="0.2">
<path opacity="0.2" d="M142.482 47.5187H88.2866L88.4772 47.2332H142.323L142.427 47.4156L142.482 47.5187Z" fill="white"/>
</g>
<g opacity="0.2">
<path opacity="0.2" d="M137.695 38.7861H94.7573C94.8764 38.6909 94.9955 38.5957 95.1146 38.5005H137.536L137.695 38.7861Z" fill="white"/>
</g>
<g opacity="0.2">
<path opacity="0.2" d="M139.291 41.6969H92.1699L92.3605 41.4114H139.133L139.228 41.5779L139.291 41.6969Z" fill="white"/>
</g>
<g opacity="0.2">
<path opacity="0.2" d="M134.511 32.9643H132.622L133.352 32.6788H134.352L134.511 32.9643Z" fill="white"/>
</g>
<g opacity="0.2">
<path opacity="0.2" d="M136.107 35.8752H125.135L125.865 35.5897H135.948L136.107 35.8752Z" fill="white"/>
</g>
</g>
</g>
<path d="M119.562 83.1789C106.128 84.2179 98.7604 82.9489 98.7524 81.2674C98.7524 80.0618 107.621 78.3882 118.863 77.4126C130.733 76.3895 139.197 76.4371 139.562 77.5871C140.07 79.1893 133.472 82.1002 119.562 83.1789Z" fill="#F5E4D4"/>
<path d="M118.934 67.7441L123.507 77.0478" stroke="white" stroke-width="0.5892" stroke-miterlimit="10"/>
<path d="M117.418 71.3768C117.808 71.3768 118.124 71.0607 118.124 70.6709C118.124 70.281 117.808 69.965 117.418 69.965C117.027 69.965 116.711 70.281 116.711 70.6709C116.711 71.0607 117.027 71.3768 117.418 71.3768Z" stroke="white" stroke-width="0.491" stroke-miterlimit="10"/>
<path d="M125.111 35.8832L135.083 62.5094" stroke="white" stroke-width="0.491" stroke-miterlimit="10"/>
<path d="M81.1494 59.5905C83.1661 58.4246 86.0719 59.6777 87.636 62.3903C89.2001 65.095 88.8349 68.2359 86.8183 69.4018" stroke="white" stroke-width="0.491" stroke-miterlimit="10" stroke-linecap="round"/>
<path d="M146.714 59.2336C146.317 60.6533 145.452 61.9541 144.182 62.8742C142.292 64.2463 139.934 64.4843 137.909 63.7466C137.457 61.97 138.775 59.8443 141.077 58.7736C143.205 57.7901 145.507 58.028 146.714 59.2336Z" stroke="white" stroke-width="0.491" stroke-miterlimit="10"/>
<path d="M118.934 77.2303L118.838 35.8752" stroke="white" stroke-width="0.5892" stroke-miterlimit="10"/>
<path d="M121.26 45.2106C121.651 45.2106 121.967 44.8946 121.967 44.5047C121.967 44.1149 121.651 43.7988 121.26 43.7988C120.87 43.7988 120.554 44.1149 120.554 44.5047C120.554 44.8946 120.87 45.2106 121.26 45.2106Z" stroke="white" stroke-width="0.491" stroke-miterlimit="10"/>
<path d="M121.26 53.9194C121.651 53.9194 121.967 53.6034 121.967 53.2135C121.967 52.8237 121.651 52.5076 121.26 52.5076C120.87 52.5076 120.554 52.8237 120.554 53.2135C120.554 53.6034 120.87 53.9194 121.26 53.9194Z" stroke="white" stroke-width="0.491" stroke-miterlimit="10"/>
<path d="M121.26 62.6283C121.651 62.6283 121.967 62.3123 121.967 61.9224C121.967 61.5325 121.651 61.2165 121.26 61.2165C120.87 61.2165 120.554 61.5325 120.554 61.9224C120.554 62.3123 120.87 62.6283 121.26 62.6283Z" stroke="white" stroke-width="0.491" stroke-miterlimit="10"/>
<path d="M108.589 35.7404L118.902 41.6494L124.397 35.669" stroke="white" stroke-width="0.491" stroke-miterlimit="10"/>
<path d="M142.934 141.777L124.578 141.785L125.808 137.859H142.855L142.934 141.777Z" fill="white" stroke="#F69050" stroke-width="0.491" stroke-miterlimit="10"/>
<path d="M147.221 96.3769C150.064 101.072 150.882 106.72 149.5 112.026L143.561 134.813L142.767 137.859H125.816L127.071 133.869L134.129 111.019L113.923 77.8965C115.495 77.722 117.146 77.5554 118.853 77.4126C125.856 76.8098 131.668 76.5798 135.336 76.7226L147.221 96.3769Z" fill="white" stroke="#626A7F" stroke-width="0.5892" stroke-miterlimit="10" stroke-linecap="round"/>
<path d="M167.612 141.777L142.935 141.785L142.856 137.835L142.872 137.859L156.449 131.569C164.11 133.941 167.421 137.391 168.818 139.612C169.406 140.556 168.723 141.777 167.612 141.777Z" fill="white" stroke="#F69050" stroke-width="0.491" stroke-miterlimit="10"/>
<path d="M156.448 131.569L142.871 137.859L106.778 88.5089C105.587 86.8829 104.658 85.1062 104.007 83.2265C103.594 82.0367 103.292 80.8073 103.11 79.5542C106.77 78.7531 112.431 77.9679 118.862 77.4126C120.482 77.2699 122.03 77.1509 123.507 77.0557L126.73 82.3857L156.448 131.569Z" fill="white" stroke="#626A7F" stroke-width="0.5892" stroke-miterlimit="10" stroke-linecap="round"/>
<path d="M116.694 82.1636L148.564 134.916" stroke="#626A7F" stroke-width="0.5892" stroke-miterlimit="10" stroke-linecap="round"/>
<path d="M114.44 80.1173C114.44 80.1173 114.202 85.9391 109.168 87.9933" stroke="#626A7F" stroke-width="0.5892" stroke-miterlimit="10" stroke-linecap="round"/>
<path d="M135.344 76.7226L137.17 79.7525C135.066 80.6884 131.597 81.656 126.722 82.3778C124.602 82.6951 122.212 82.9647 119.552 83.1709C118.211 83.2741 116.932 83.3534 115.718 83.4168C110.763 83.6627 106.825 83.5517 103.999 83.2265C103.586 82.0367 103.284 80.8073 103.102 79.5542C103.102 79.5542 111.033 78.0472 119.227 77.3809C127.42 76.7147 135.344 76.7226 135.344 76.7226Z" fill="#626A7F"/>
<path d="M98.5371 81.3388C98.5371 80.1332 107.056 78.3724 118.862 77.3413C130.732 76.3022 139.41 76.4371 139.775 77.5871" stroke="white" stroke-width="0.491" stroke-miterlimit="10" stroke-linecap="round"/>
<path d="M119.681 35.8831H109.018L110.487 28.1498H119.681V35.8831Z" fill="#F6C850"/>
<path d="M111.67 35.8831H109.018L110.487 28.1498H119.681V30.8783L111.67 35.8831Z" fill="#F5E4D4"/>
<path d="M110.447 29.3079C110.447 29.3079 111.908 21.0115 112.098 20.5435C112.424 19.7504 119.149 17.1964 120.181 18.1403C121.213 19.0841 119.125 19.9249 120.244 19.8376C121.364 19.7504 124.738 17.244 126.151 19.1555C127.009 20.3214 124.246 22.0029 122.475 22.344C120.705 22.685 115.727 25.35 115.607 26.2939C115.488 27.2377 113.893 29.1254 110.447 29.3079Z" fill="white" stroke="#F6C850" stroke-width="0.491" stroke-miterlimit="10"/>
<path d="M122.476 22.2012V29.2286C122.476 30.3231 121.586 31.2035 120.499 31.2035H117.982C116.672 31.2035 115.616 30.1407 115.616 28.832V28.142H114.393C113.996 28.142 113.639 27.9833 113.377 27.7216C113.115 27.4598 112.956 27.1029 112.956 26.7063C112.956 25.9132 113.599 25.2707 114.393 25.2707H115.775C116.14 24.1286 117.101 23.2403 118.331 23.0023L122.476 22.2012Z" fill="#F6C850"/>
<path d="M115.329 27.0157C115.329 26.3653 114.94 25.8815 114.297 25.9846" stroke="#F5E4D4" stroke-width="0.3928" stroke-miterlimit="10" stroke-linecap="round"/>
<path d="M119.887 24.7472C119.887 24.7472 120.712 24.2793 121.641 24.192" stroke="#F5E4D4" stroke-width="0.3928" stroke-miterlimit="10" stroke-linecap="round"/>
<path d="M121.03 26.278C121.205 26.278 121.348 26.0472 121.348 25.7625C121.348 25.4778 121.205 25.2469 121.03 25.2469C120.855 25.2469 120.712 25.4778 120.712 25.7625C120.712 26.0472 120.855 26.278 121.03 26.278Z" fill="#F5E4D4"/>
<path d="M114.9 61.1529L113.027 61.8668L112.86 61.9302L111.574 62.4141V58.8766H96.02L99.4817 52.9993L99.6246 52.7534L101.332 52.111L101.665 51.9841L102.975 51.4844L103.229 51.3892L105.246 50.6199L105.579 50.493L106.865 50.0091L107.183 49.8902L108.565 49.3667C108.596 49.3508 108.628 49.3429 108.66 49.335C108.763 49.3032 108.866 49.2794 108.969 49.2715C109.096 49.2556 109.224 49.2556 109.343 49.2636C109.724 49.2953 110.081 49.4619 110.359 49.7236C110.549 49.8981 110.7 50.1202 110.796 50.374L114.9 61.1529Z" fill="white"/>
<path d="M112.494 54.316L110.978 50.3106C110.875 50.0409 110.716 49.8029 110.525 49.6205C110.208 49.3112 109.779 49.1208 109.334 49.0891C109.192 49.0812 109.049 49.0812 108.914 49.105C108.779 49.1208 108.644 49.1605 108.517 49.2081L107.135 49.7316L106.802 49.8585L105.531 50.3423L105.198 50.4692L103.213 51.2227L102.88 51.3496L101.601 51.8334L101.268 51.9603L99.7673 52.5314L99.6244 52.7773L99.4814 53.0231L101.411 52.2934L101.744 52.1665L105.325 50.8102L105.658 50.6833L108.525 49.5967L108.628 49.5571C108.675 49.5412 108.723 49.5253 108.771 49.5095C108.866 49.4857 108.953 49.4698 109.049 49.4619C109.096 49.4619 109.136 49.454 109.184 49.454C109.811 49.454 110.406 49.8347 110.644 50.4613L114.67 61.0737L113.122 61.6606L112.955 61.724L112.788 61.7875L111.565 62.2475V62.6282L112.915 62.1206L115.122 61.2799L112.494 54.316Z" fill="#88BFBF"/>
<path d="M114.901 61.153L113.019 61.8668L108.668 50.4057C108.469 49.8902 108.731 49.3112 109.248 49.1129C109.764 48.9146 110.343 49.1764 110.542 49.6919L114.901 61.153Z" fill="#88BFBF"/>
<path d="M112.916 62.0889L108.502 50.4612C108.271 49.8505 108.581 49.1684 109.184 48.9384C109.478 48.8273 109.804 48.8353 110.089 48.9622C110.375 49.0891 110.598 49.327 110.709 49.6205L115.123 61.2481L112.916 62.0889ZM109.613 49.2239C109.518 49.2239 109.415 49.2398 109.319 49.2794C108.891 49.4381 108.676 49.9219 108.843 50.3423L113.13 61.6368L114.679 61.0498L110.391 49.7553C110.312 49.5491 110.161 49.3826 109.954 49.2953C109.843 49.2477 109.724 49.2239 109.613 49.2239Z" fill="#88BFBF"/>
<path d="M106.437 51.6113C106.247 51.6113 106.04 51.5399 105.85 51.4051C105.58 51.2147 105.365 50.9213 105.23 50.5723C105.095 50.2233 105.064 49.8505 105.143 49.5333C105.222 49.1922 105.421 48.9463 105.691 48.8432C106.239 48.637 106.89 49.0732 107.176 49.8347C107.207 49.9298 107.168 50.0329 107.072 50.0647C106.977 50.0964 106.874 50.0567 106.842 49.9616C106.628 49.4064 106.159 49.0494 105.81 49.1763C105.651 49.2398 105.532 49.3905 105.484 49.6126C105.429 49.8585 105.453 50.1519 105.564 50.4375C105.675 50.723 105.85 50.9609 106.056 51.1116C106.247 51.2465 106.437 51.2861 106.596 51.2227C106.691 51.191 106.794 51.2306 106.826 51.3258C106.858 51.421 106.818 51.5241 106.723 51.5558C106.628 51.5955 106.532 51.6113 106.437 51.6113Z" fill="#88BFBF"/>
<path d="M102.491 53.047C102.301 53.047 102.094 52.9756 101.904 52.8407C101.634 52.6504 101.42 52.3569 101.285 52.0079C101.15 51.6589 101.118 51.2862 101.197 50.9689C101.277 50.6278 101.475 50.382 101.745 50.2789C102.015 50.1757 102.325 50.2313 102.61 50.4296C102.88 50.6199 103.095 50.9134 103.23 51.2624C103.261 51.3575 103.222 51.4607 103.127 51.4924C103.031 51.5241 102.928 51.4844 102.896 51.3893C102.785 51.1037 102.61 50.8658 102.404 50.7151C102.213 50.5802 102.023 50.5406 101.864 50.6041C101.705 50.6675 101.586 50.8182 101.539 51.0403C101.483 51.2862 101.507 51.5796 101.618 51.8652C101.729 52.1507 101.904 52.3886 102.11 52.5393C102.301 52.6742 102.491 52.7138 102.65 52.6504C102.745 52.6187 102.849 52.6583 102.88 52.7535C102.912 52.8487 102.872 52.9518 102.777 52.9835C102.682 53.0311 102.587 53.047 102.491 53.047Z" fill="#88BFBF"/>
<path d="M111.591 69.8697C112.705 69.8697 113.608 67.4088 113.608 64.3731C113.608 61.3375 112.705 58.8766 111.591 58.8766C110.477 58.8766 109.574 61.3375 109.574 64.3731C109.574 67.4088 110.477 69.8697 111.591 69.8697Z" fill="#E0712C"/>
<path d="M118.831 60.0029V65.9515C118.831 66.4274 118.585 66.8716 118.18 67.1254L115.64 68.6324H110.304C109.852 67.6251 109.566 66.0943 109.566 64.389C109.566 63.1596 109.717 62.0175 109.963 61.1054H115.076L114.29 59.0273C114.06 58.4324 114.615 57.8296 115.227 57.9962L117.815 58.6783C118.419 58.8369 118.831 59.3763 118.831 60.0029Z" fill="#F6C850"/>
<path d="M118.688 64.0955C118.688 64.5714 118.442 65.0156 118.037 65.2694L115.64 66.7764" stroke="#E0712C" stroke-width="0.3928" stroke-miterlimit="10" stroke-linecap="round"/>
<path d="M118.688 61.8985C118.688 62.3744 118.442 62.8186 118.037 63.0724L115.64 64.5794" stroke="#E0712C" stroke-width="0.3928" stroke-miterlimit="10" stroke-linecap="round"/>
<path d="M118.688 59.8363C118.688 60.3122 118.442 60.7564 118.037 61.0102L115.64 62.5172" stroke="#E0712C" stroke-width="0.3928" stroke-miterlimit="10" stroke-linecap="round"/>
<path d="M116.267 60.3439L115.068 61.0895" stroke="#E0712C" stroke-width="0.3928" stroke-miterlimit="10" stroke-linecap="round"/>
<path d="M113.607 64.3731C113.607 66.0863 113.321 67.6171 112.869 68.6244H110.304C109.852 67.6171 109.566 66.0863 109.566 64.3731C109.566 63.1437 109.717 62.0016 109.963 61.0895H113.202C113.456 62.0016 113.607 63.1437 113.607 64.3731Z" fill="#F5E4D4"/>
<path d="M102.007 49.1367L96.2983 58.7418" stroke="white" stroke-width="0.491" stroke-miterlimit="10"/>
<path d="M111.519 58.7418C110.407 58.7418 109.502 61.4465 109.502 64.5239C109.502 67.6014 110.407 70.0919 111.519 70.0919H98.7358" stroke="white" stroke-width="0.491" stroke-miterlimit="10" stroke-linecap="round"/>
<path d="M125.373 25.588L132.9 34.9234L128.628 39.254L119.172 31.8777C118.895 31.608 119.117 30.8942 119.689 30.0058C120.101 29.3555 120.697 28.6178 121.419 27.8881C122.142 27.1584 122.872 26.5477 123.515 26.1273C124.389 25.5563 125.095 25.3262 125.373 25.588Z" fill="#88BFBF" stroke="#88BFBF" stroke-width="0.491" stroke-miterlimit="10" stroke-linecap="round"/>
<path d="M131.559 37.9016C132.737 36.7064 133.331 35.3811 132.884 34.9416C132.437 34.502 131.12 35.1146 129.941 36.3098C128.763 37.505 128.17 38.8303 128.616 39.2698C129.063 39.7094 130.381 39.0968 131.559 37.9016Z" fill="white" stroke="#88BFBF" stroke-width="0.5892" stroke-miterlimit="10"/>
<path d="M127.199 34.2809V34.8837C127.199 35.3755 125.944 35.6134 125.603 35.2565L122.634 32.1473C122.411 31.9094 122.284 31.6001 122.284 31.2749V29.4823C122.284 29.0223 122.499 28.594 122.864 28.3164L123.92 27.5153C124.174 27.317 124.491 27.2139 124.809 27.2139H127.675C128.469 27.2139 129.2 27.6502 129.565 28.3481L132.09 33.0991H128.366C127.723 33.1071 127.199 33.6305 127.199 34.2809Z" fill="#F6C850"/>
<path d="M132.034 33.1071H128.453C127.802 33.1071 127.27 33.6385 127.27 34.2889V34.8917C127.27 35.3834 126.159 35.6214 125.817 35.2644L122.522 31.838" stroke="#E0712C" stroke-width="0.3928" stroke-miterlimit="10" stroke-linecap="round"/>
<path d="M123.737 33.107C123.515 32.877 123.396 32.5756 123.396 32.2584V30.5134C123.396 30.0613 123.602 29.641 123.96 29.3713L124.992 28.5861C125.246 28.3957 125.548 28.2926 125.865 28.2926H127.882" stroke="#E0712C" stroke-width="0.3928" stroke-miterlimit="10" stroke-linecap="round"/>
<path d="M124.881 34.3127C124.659 34.0827 124.54 33.7813 124.54 33.464V31.7191C124.54 31.267 124.746 30.8466 125.103 30.5769L126.135 29.7917C126.389 29.6013 126.691 29.4982 127.009 29.4982H128.811" stroke="#E0712C" stroke-width="0.3928" stroke-miterlimit="10" stroke-linecap="round"/>
<path d="M126.128 35.312C125.921 35.0979 125.81 34.8203 125.81 34.5268V32.9088C125.81 32.4963 126.001 32.0997 126.334 31.8539L127.287 31.1242C127.517 30.9497 127.803 30.8545 128.089 30.8545H129.296" stroke="#E0712C" stroke-width="0.3928" stroke-miterlimit="10" stroke-linecap="round"/>
<path d="M187.563 94.751H218.671C224.959 94.751 230.834 97.8443 234.391 103.016L248.643 123.987C249.818 125.692 248.754 128.016 246.682 128.016H230.818L224.482 119.743C223.736 118.696 222.085 119.156 221.981 120.441L220.703 136.019H186.777L183.919 120.18C183.745 118.942 182.141 118.562 181.418 119.585L175.598 127.072H156.631L171.43 103.642C174.932 98.1061 181.021 94.751 187.563 94.751Z" fill="white" stroke="#88BFBF" stroke-width="0.5892" stroke-miterlimit="10" stroke-linecap="round"/>
<path d="M206.515 102.841L211.556 119.569H199.099L204.633 102.841H206.515Z" fill="#F69050"/>
<g opacity="0.2">
<g opacity="0.2">
<g opacity="0.2">
<path opacity="0.2" d="M202.498 109.305V119.569H202.164V110.313L202.275 109.972L202.498 109.305Z" fill="white"/>
</g>
<g opacity="0.2">
<path opacity="0.2" d="M206.046 102.881H205.713V119.569H206.046V102.881Z" fill="white"/>
</g>
<g opacity="0.2">
<path opacity="0.2" d="M209.596 113.057V119.569H209.262V111.947L209.596 113.057Z" fill="white"/>
</g>
</g>
<g opacity="0.2">
<g opacity="0.2">
<path opacity="0.2" d="M210.906 117.404H199.814L199.926 117.062H210.803L210.906 117.404Z" fill="white"/>
</g>
<g opacity="0.2">
<path opacity="0.2" d="M209.834 113.858H200.989L201.1 113.517H209.731L209.834 113.858Z" fill="white"/>
</g>
<g opacity="0.2">
<path opacity="0.2" d="M208.77 110.313H202.165L202.276 109.972H208.667L208.77 110.313Z" fill="white"/>
</g>
<g opacity="0.2">
<path opacity="0.2" d="M207.698 106.767H203.339L203.451 106.426H207.595L207.698 106.767Z" fill="white"/>
</g>
<g opacity="0.2">
<path opacity="0.2" d="M206.627 103.222H204.515L204.626 102.881H206.531L206.627 103.222Z" fill="white"/>
</g>
</g>
</g>
<path d="M208.77 102.667L210.803 104.848L217.353 94.751H211.549L208.77 102.667Z" fill="white" stroke="#88BFBF" stroke-width="0.5892" stroke-miterlimit="10" stroke-linecap="round"/>
<path d="M202.744 102.667L200.703 104.848L193.605 94.751H199.957L202.744 102.667Z" fill="white" stroke="#88BFBF" stroke-width="0.5892" stroke-miterlimit="10" stroke-linecap="round"/>
<path d="M251.135 129.935C251.135 133.885 248.317 137.629 243.934 138.271L225.967 140.913L222.021 141.492V126.231L223.236 125.946L240.766 121.79C244.149 120.989 247.674 122.345 249.643 125.208C250.667 126.683 251.135 128.325 251.135 129.935Z" fill="#A0505A"/>
<path d="M225.967 140.913L222.021 141.492V126.231L223.236 125.946L225.967 140.913Z" fill="#E0712C"/>
<path d="M222.021 145.394H184.252V122.749C184.252 120.989 185.682 119.569 187.436 119.569H218.829C220.592 119.569 222.013 120.997 222.013 122.749V145.394H222.021Z" fill="#F6C850"/>
<path d="M205.467 134.29H200.807C200.33 134.29 199.949 133.909 199.949 133.433V131.482C199.949 131.006 200.33 130.625 200.807 130.625H205.467C205.944 130.625 206.325 131.006 206.325 131.482V133.433C206.325 133.909 205.936 134.29 205.467 134.29Z" stroke="white" stroke-width="0.491" stroke-miterlimit="10"/>
<path d="M197.52 145.148L237.504 139.176C245.284 137.994 252.295 144.014 252.295 151.882C252.295 158.981 246.539 164.731 239.433 164.731H197.782L197.52 145.148Z" fill="#0096A0"/>
<path d="M192.113 168.229L168.048 172.869C164.984 173.519 161.903 170.965 161.768 167.666L161.411 158.893C161.228 154.452 165.492 151.779 169.509 153.682L192.113 168.229Z" fill="white" stroke="#F69050" stroke-width="0.5892" stroke-miterlimit="10"/>
<path d="M169.676 172.552C166.714 173.17 163.721 170.688 163.578 167.475L163.205 158.957C163.015 154.642 167.127 152.072 171.018 153.928" stroke="#F69050" stroke-width="0.5892" stroke-miterlimit="10"/>
<path d="M169.509 153.674L192.113 168.229L186.96 169.22L169.509 153.674Z" fill="#F69050"/>
<path d="M178.219 160.051L175.241 165.976L172.296 159.012L168.89 166.833" stroke="#F69050" stroke-width="0.5892" stroke-miterlimit="10" stroke-linejoin="round"/>
<path d="M168.723 157.926L172.058 166.238L175.321 159.599L177.854 165.135" stroke="#F69050" stroke-width="0.5892" stroke-miterlimit="10" stroke-linejoin="round"/>
<path d="M210.803 157.355C209.469 156.26 205.61 158.751 202.18 162.915C198.75 167.079 197.051 171.346 198.385 172.44C198.187 172.321 173.122 156.617 157.568 145.902C153.614 143.181 151.526 138.819 151.526 134.401C151.526 131.323 152.542 128.222 154.646 125.628C159.918 119.133 169.684 118.696 175.519 124.693L210.803 157.355Z" fill="#88BFBF"/>
<path d="M207 166.876C210.429 162.711 212.127 158.447 210.792 157.35C209.458 156.254 205.597 158.741 202.168 162.906C198.739 167.07 197.042 171.335 198.376 172.431C199.71 173.528 203.571 171.04 207 166.876Z" fill="#F69050" stroke="white" stroke-width="0.5892" stroke-miterlimit="10"/>
<path d="M221.838 171.06L217.376 178.627C215.114 182.458 210 182.529 207.658 178.754L200.147 166.666C200.791 165.603 201.585 164.493 202.498 163.383C204.149 161.376 205.904 159.758 207.428 158.743L219.385 163.287C222.307 164.406 223.514 168.213 221.838 171.06Z" fill="white" stroke="#F69050" stroke-width="0.5892" stroke-miterlimit="10"/>
<path d="M218.123 162.796C220.886 163.866 221.862 167.444 220.282 170.18L216.074 177.437C213.947 181.118 209.127 181.181 206.912 177.564" stroke="#F69050" stroke-width="0.5892" stroke-miterlimit="10"/>
<path d="M203.45 166.674L209.531 163.597L207.705 170.917L214.978 166.46" stroke="#F69050" stroke-width="0.5892" stroke-miterlimit="10" stroke-linejoin="round"/>
<path d="M210.016 173.852L211.905 165.326L205.705 168.379L206.657 162.716" stroke="#F69050" stroke-width="0.5892" stroke-miterlimit="10" stroke-linejoin="round"/>
<path d="M214.757 96.1232C214.725 96.6308 214.503 97.0829 214.154 97.4081C213.804 97.7333 213.344 97.9316 212.836 97.9316H211.081L210.97 99.7797C210.874 101.303 209.358 102.857 207.778 102.857H203.34C201.768 102.857 200.243 101.303 200.148 99.7797L200.037 97.9316H198.258C197.75 97.9316 197.282 97.7333 196.941 97.4081C196.591 97.0829 196.369 96.6308 196.337 96.1153C196.274 95.0049 197.187 94.0848 198.298 94.0848H199.799L199.632 91.2691C199.6 90.6743 200.069 90.1746 200.664 90.1746H210.462C211.057 90.1746 211.526 90.6743 211.494 91.2691L211.327 94.0848H212.844C213.939 94.0927 214.82 95.0207 214.757 96.1232Z" fill="#A0505A"/>
<path d="M211.319 94.0848H212.914C212.914 94.0848 214.439 88.5565 212.97 87.1368C211.501 85.717 202.482 82.4492 199.568 84.4876C197.44 85.9788 198.599 94.0848 198.599 94.0848H199.774C199.774 94.0848 204.514 90.6901 205.261 90.9836C206.007 91.277 203.117 92.7047 203.697 92.9823C205.864 94.0213 209.762 90.2539 210.66 90.2539C211.557 90.2539 211.319 94.0848 211.319 94.0848Z" fill="#E0712C"/>
<path d="M209.31 95.4569C209.31 95.4569 208.27 94.6162 206.936 95.1635" stroke="#E0712C" stroke-width="0.3928" stroke-miterlimit="10" stroke-linecap="round"/>
<path d="M207.182 99.9779C207.182 99.9779 206.61 101.199 204.879 100.565" stroke="#E0712C" stroke-width="0.3928" stroke-miterlimit="10" stroke-linecap="round"/>
<path d="M201.402 95.1793C201.402 95.1793 203.506 94.7114 204.141 96.0122C204.53 96.8132 204.34 99.6131 204.792 99.6448C205.245 99.6765 205.927 99.6448 205.927 99.6448" stroke="#E0712C" stroke-width="0.3928" stroke-miterlimit="10" stroke-linecap="round"/>
<path d="M207.889 97.6143C208.095 97.6143 208.262 97.3373 208.262 96.9957C208.262 96.654 208.095 96.377 207.889 96.377C207.683 96.377 207.516 96.654 207.516 96.9957C207.516 97.3373 207.683 97.6143 207.889 97.6143Z" fill="#E0712C"/>
<path d="M203.062 97.6143C203.268 97.6143 203.435 97.3373 203.435 96.9957C203.435 96.654 203.268 96.377 203.062 96.377C202.856 96.377 202.688 96.654 202.688 96.9957C202.688 97.3373 202.856 97.6143 203.062 97.6143Z" fill="#E0712C"/>
<path d="M199.409 96.4087C199.362 95.6314 198.719 95.0286 197.94 95.0286" stroke="#E0712C" stroke-width="0.3928" stroke-miterlimit="10" stroke-linecap="round"/>
<path d="M211.596 96.4484C211.644 95.6235 212.327 94.981 213.144 94.981" stroke="#E0712C" stroke-width="0.3928" stroke-miterlimit="10" stroke-linecap="round"/>
<path d="M94.2104 111.804C94.2104 111.288 94.1866 110.789 94.1469 110.321C93.6626 110.107 90.6059 108.639 89.8357 105.998C89.8357 105.998 87.5174 110.686 84.0716 110.146C84.0637 110.146 84.0557 110.146 84.0478 110.138C84.0478 110.138 84.0478 110.138 84.0399 110.138L83.2062 109.71C83.1903 109.702 83.1824 109.694 83.1665 109.694C82.2217 109.242 81.134 109.829 80.9434 110.812C80.7211 110.194 80.5623 109.535 80.467 108.845C79.8557 104.229 82.4043 100.367 86.6361 100.367C90.4947 100.367 94.2025 103.991 94.79 107.822C95.0282 109.274 94.7821 110.63 94.2104 111.804Z" fill="#F6C850"/>
<path d="M81.6264 112.359C81.2532 114.548 73.0755 111.495 71.2573 115.151C70.0743 117.538 71.9004 120.418 66.7635 120.663C60.6421 120.949 58.157 124.296 59.1495 132.053L75.8702 123.194L80.5387 119.037L82.5712 112.795L81.6264 112.359Z" fill="#F6C850"/>
<path d="M91.1543 117.515V119.688L85.9856 122.813L80.5391 119.045L82.5716 112.803L91.1543 117.515Z" fill="#F5E4D4"/>
<path d="M83.5083 113.295L85.9855 122.813L91.1541 119.688V117.515L83.5083 113.295Z" fill="#626A7F"/>
<path d="M94.2106 111.851C94.2106 115.397 91.932 118.276 89.1214 118.276C86.8189 118.276 84.7784 116.349 84.1115 113.7L81.7852 112.51C81.5232 112.375 81.3088 112.177 81.158 111.931C81.0071 111.693 80.9277 111.407 80.9277 111.114C80.9277 109.94 82.1663 109.186 83.2143 109.718L84.0798 110.154V110.146C87.5255 110.678 89.8439 105.998 89.8439 105.998C90.614 108.639 93.6707 110.099 94.1551 110.321C94.1948 110.805 94.2106 111.312 94.2106 111.851Z" fill="#F5E4D4"/>
<path d="M94.1956 111.114C94.1956 111.114 92.9173 110.582 92.1313 111.376C91.1547 112.359 91.3691 115.183 91.3691 115.183" stroke="#626A7F" stroke-width="0.3928" stroke-miterlimit="10" stroke-linecap="round"/>
<path d="M89.6059 110.947C89.6059 110.947 88.55 110.868 87.502 111.423" stroke="#626A7F" stroke-width="0.3928" stroke-miterlimit="10" stroke-linecap="round"/>
<path d="M83.3579 111.732C83.2706 111.209 82.8895 110.781 82.3813 110.622" stroke="#626A7F" stroke-width="0.3928" stroke-miterlimit="10" stroke-linecap="round"/>
<path d="M89.2588 112.859C89.3483 112.529 89.2596 112.218 89.0606 112.164C88.8617 112.11 88.6279 112.334 88.5385 112.664C88.449 112.993 88.5377 113.304 88.7366 113.358C88.9356 113.412 89.1693 113.188 89.2588 112.859Z" fill="#626A7F"/>
<path d="M93.1494 113.017C93.2389 112.687 93.1502 112.376 92.9513 112.322C92.7524 112.269 92.5186 112.492 92.4291 112.822C92.3396 113.152 92.4283 113.463 92.6273 113.517C92.8262 113.571 93.06 113.347 93.1494 113.017Z" fill="#626A7F"/>
<path d="M90.9795 116.134C90.9795 116.134 89.606 116.499 89.209 115.341" stroke="#626A7F" stroke-width="0.3928" stroke-miterlimit="10" stroke-linecap="round"/>
<path d="M70.3754 123.217H101.3C105.54 123.217 109.391 125.716 111.105 129.594L116.949 141.603L64.4922 166.976L47.5889 159.742L56.7908 132.838C58.8234 127.072 64.262 123.217 70.3754 123.217Z" fill="white" stroke="#F69050" stroke-width="0.491" stroke-miterlimit="10"/>
<path d="M84.8731 128.516L82.3086 127.001L85.8656 122.956H86.1196L89.7242 126.731L87.2232 128.246L97.9576 150.343L77.5767 160.297L84.8731 128.516Z" fill="#F69050"/>
<g opacity="0.2">
<g opacity="0.2">
<g opacity="0.2">
<path opacity="0.2" d="M80.6184 147.052V156.046H80.3008V148.432L80.6184 147.052Z" fill="white"/>
</g>
<g opacity="0.2">
<path opacity="0.2" d="M83.9611 132.465V156.038H83.6436V133.846L83.842 132.989L83.9135 132.672L83.9611 132.465Z" fill="white"/>
<path opacity="0.2" d="M83.9611 125.113V127.976L83.6436 127.794V125.478L83.9611 125.113Z" fill="white"/>
</g>
<g opacity="0.2">
<path opacity="0.2" d="M87.3117 124.209V155.546L86.9941 155.697V123.876L87.3117 124.209Z" fill="white"/>
</g>
<g opacity="0.2">
<path opacity="0.2" d="M90.6618 135.321V153.904L90.3442 154.063V134.67L90.6618 135.321Z" fill="white"/>
</g>
<g opacity="0.2">
<path opacity="0.2" d="M94.0124 142.213V152.271L93.6948 152.429V141.555L94.0124 142.213Z" fill="white"/>
</g>
<g opacity="0.2">
<path opacity="0.2" d="M97.3552 149.106V150.637L97.0376 150.787V148.455L97.3552 149.106Z" fill="white"/>
</g>
</g>
<g opacity="0.2">
<g opacity="0.2">
<path opacity="0.2" d="M86.2078 156.086L85.5567 156.403H78.4746L78.5461 156.086H86.2078Z" fill="white"/>
</g>
<g opacity="0.2">
<path opacity="0.2" d="M93.0522 152.739L92.4011 153.056H79.2373L79.3167 152.739H93.0522Z" fill="white"/>
</g>
<g opacity="0.2">
<path opacity="0.2" d="M97.6486 149.709H80.0068L80.0783 149.391H97.4977L97.6486 149.709Z" fill="white"/>
</g>
<g opacity="0.2">
<path opacity="0.2" d="M96.0288 146.369H80.7769L80.8483 146.052H95.87L96.0288 146.369Z" fill="white"/>
</g>
<g opacity="0.2">
<path opacity="0.2" d="M94.4017 143.022H81.5396L81.6189 142.705H94.2508L94.4017 143.022Z" fill="white"/>
</g>
<g opacity="0.2">
<path opacity="0.2" d="M92.7739 139.675H82.3096L82.381 139.358H92.6231L92.7739 139.675Z" fill="white"/>
</g>
<g opacity="0.2">
<path opacity="0.2" d="M91.1541 136.336H83.0796L83.151 136.019H90.9954L91.1541 136.336Z" fill="white"/>
</g>
<g opacity="0.2">
<path opacity="0.2" d="M89.5265 132.989H83.8418L83.9132 132.672H89.3757L89.5265 132.989Z" fill="white"/>
</g>
<g opacity="0.2">
<path opacity="0.2" d="M87.9067 129.642H84.6118L84.6833 129.325H87.7479L87.9067 129.642Z" fill="white"/>
</g>
<g opacity="0.2">
<path opacity="0.2" d="M89.3123 126.303H82.9209L83.1988 125.985H89.0106L89.3123 126.303Z" fill="white"/>
</g>
</g>
</g>
<path d="M69.2718 140.429L66.7788 148.836" stroke="#F69050" stroke-width="0.491" stroke-miterlimit="10"/>
<path d="M95.5201 123.201L89.6369 126.564L86.1196 122.956H85.8656L82.388 126.842L75.8696 123.201L80.6175 119.045L85.9847 122.813L91.1533 119.688L95.5201 123.201Z" fill="white" stroke="#F69050" stroke-width="0.491" stroke-miterlimit="10" stroke-linejoin="round"/>
<path d="M127.008 133.052L120.847 152.612H83.3726L89.5337 133.052H127.008Z" fill="#88BFBF"/>
<path d="M103.301 152.612L109.462 133.052" stroke="white" stroke-width="0.5892" stroke-miterlimit="10"/>
<path d="M90.2402 133.052C90.2402 133.052 94.9325 130.268 101.729 130.697C108.525 131.117 109.478 133.052 109.478 133.052H90.2402Z" fill="white" stroke="#88BFBF" stroke-width="0.491" stroke-miterlimit="10" stroke-linecap="round"/>
<path d="M125.651 133.052C125.651 133.052 116.806 129.15 109.478 133.052H125.651Z" fill="white" stroke="#88BFBF" stroke-width="0.491" stroke-miterlimit="10" stroke-linecap="round"/>
<path d="M108.501 173.059L90.2878 187.431C88.1124 189.144 87.8265 192.333 89.6606 194.403L102.173 208.585C102.173 208.585 103.364 207.704 102.967 204.167C102.412 199.273 103.761 194.696 103.761 194.696L130.716 175.494C134.884 172.528 137.393 167.753 137.465 162.637C137.568 155.689 129.136 152.167 124.253 157.109L108.501 173.059Z" fill="#F5E4D4"/>
<path d="M103.753 194.688C103.753 194.688 102.411 199.265 102.959 204.159C103.356 207.704 102.165 208.585 102.165 208.585L89.6526 194.403C87.8185 192.325 88.1123 189.144 90.2798 187.431L96.1233 182.815C96.298 182.688 96.4727 182.553 96.6474 182.418L104.079 176.549L108.493 173.059C108.493 173.059 108.247 178.857 110.978 189.541L103.753 194.688Z" fill="white" stroke="#626A7F" stroke-width="0.5892" stroke-miterlimit="10" stroke-linecap="round"/>
<path d="M103.253 204.635C103.404 206.007 103.309 206.998 103.126 207.696C103.086 207.863 103.039 208.006 102.983 208.14C102.674 208.957 102.269 209.227 102.269 209.227L89.2954 194.53C87.6122 192.618 87.6598 189.803 89.2716 187.955C89.47 187.725 89.7003 187.502 89.9544 187.304L90.3752 186.971L94.0274 184.092C93.7892 185.678 94.8134 188.335 96.7824 190.842C99.2754 194.014 102.586 195.704 104.031 194.831C103.801 195.672 102.745 200.106 103.253 204.635Z" fill="#F6C850"/>
<path d="M103.134 207.696C103.094 207.863 103.047 208.005 102.991 208.14L90.1132 193.546C89.1605 192.468 88.7079 191.08 88.835 189.644C88.8905 189.049 89.0414 188.47 89.2796 187.947C89.4781 187.717 89.7083 187.495 89.9624 187.296L90.3832 186.963C89.7242 187.717 89.3193 188.653 89.2319 189.676C89.1128 191 89.5336 192.285 90.4149 193.285L103.134 207.696Z" fill="white"/>
<path d="M103.507 197.242C103.507 197.242 100.014 195.854 99.5454 197.242C99.0849 198.63 103.245 199.511 103.245 199.511L103.507 197.242Z" fill="white"/>
<path d="M125.81 154.238V197.694C120.753 202.826 114.036 200.066 114.036 200.066C108.105 183.013 108.502 173.543 108.502 173.543L104.087 177.025C92.7974 169.982 91.8764 153.778 91.8525 153.389L110.249 144.498C117.45 141.016 125.81 146.251 125.81 154.238Z" fill="#F5E4D4"/>
<path d="M110.256 144.49C117.449 141.016 125.81 146.251 125.81 154.23V197.687C120.752 202.818 114.035 200.058 114.035 200.058C108.112 183.005 108.501 173.527 108.501 173.527" stroke="#626A7F" stroke-width="0.5892" stroke-miterlimit="10" stroke-linecap="round"/>
<path d="M104.087 177.017L96.6558 182.886C83.3332 193.411 63.7383 183.933 63.7383 166.968L91.8523 153.373C91.8523 153.373 91.8523 153.373 91.8523 153.381C91.8761 153.778 92.8051 169.982 104.087 177.017Z" fill="#F69050"/>
<g opacity="0.2">
<g opacity="0.2">
<g opacity="0.2">
<path opacity="0.2" d="M67.2478 165.278V178.453C67.1366 178.294 67.0334 178.135 66.9302 177.977V165.429L67.2478 165.278Z" fill="white"/>
</g>
<g opacity="0.2">
<path opacity="0.2" d="M70.5984 163.66V182.196C70.4951 182.101 70.384 182.006 70.2808 181.911V163.811L70.5984 163.66Z" fill="white"/>
</g>
<g opacity="0.2">
<path opacity="0.2" d="M73.9411 162.042V184.576C73.8379 184.512 73.7267 184.457 73.6235 184.393V162.193L73.9411 162.042Z" fill="white"/>
</g>
<g opacity="0.2">
<path opacity="0.2" d="M77.2912 160.424V186.114C77.188 186.075 77.0768 186.043 76.9736 186.003V160.583L77.2912 160.424Z" fill="white"/>
</g>
<g opacity="0.2">
<path opacity="0.2" d="M80.6418 158.806V187.003C80.5386 186.987 80.4274 186.963 80.3242 186.947V158.965L80.6418 158.806Z" fill="white"/>
</g>
<g opacity="0.2">
<path opacity="0.2" d="M83.9846 157.18V187.304C83.8814 187.304 83.7702 187.304 83.667 187.296V157.339L83.9846 157.18Z" fill="white"/>
</g>
<g opacity="0.2">
<path opacity="0.2" d="M87.3352 155.562V187.05C87.232 187.066 87.1208 187.082 87.0176 187.098V155.721L87.3352 155.562Z" fill="white"/>
</g>
<g opacity="0.2">
<path opacity="0.2" d="M90.6853 153.944V186.202C90.582 186.241 90.4709 186.273 90.3677 186.313V154.103L90.6853 153.944Z" fill="white"/>
</g>
<g opacity="0.2">
<path opacity="0.2" d="M94.028 163.533V184.671C93.9248 184.734 93.8137 184.79 93.7104 184.845V162.605C93.7263 162.661 93.7422 162.716 93.766 162.764C93.7978 162.867 93.8375 162.978 93.8692 163.081C93.9248 163.232 93.9804 163.383 94.028 163.533Z" fill="white"/>
</g>
<g opacity="0.2">
<path opacity="0.2" d="M97.3786 170.355V182.323L97.061 182.577V169.863C97.1642 170.021 97.2675 170.188 97.3786 170.355Z" fill="white"/>
</g>
<g opacity="0.2">
<path opacity="0.2" d="M100.729 174.4V179.809H100.562L100.411 179.928V174.082C100.514 174.193 100.618 174.296 100.729 174.4Z" fill="white"/>
</g>
</g>
<g opacity="0.2">
<g opacity="0.2">
<path opacity="0.2" d="M90.7408 186.178C90.717 186.186 90.7011 186.194 90.6773 186.202C90.5741 186.241 90.4629 186.273 90.3597 186.313C90.1612 186.376 89.9627 186.44 89.7563 186.503H78.4662C78.1327 186.408 77.7993 186.297 77.4658 186.186H90.7408V186.178Z" fill="white"/>
</g>
<g opacity="0.2">
<path opacity="0.2" d="M96.7273 182.831L96.6558 182.886C96.5447 182.974 96.4335 183.061 96.3224 183.148H71.7732C71.6303 183.045 71.4953 182.942 71.3604 182.831H96.7273Z" fill="white"/>
</g>
<g opacity="0.2">
<path opacity="0.2" d="M100.959 179.492L100.721 179.674V179.809H68.2638C68.1765 179.706 68.0892 179.595 68.0098 179.492H100.959Z" fill="white"/>
</g>
<g opacity="0.2">
<path opacity="0.2" d="M103.245 176.462H66.0486C65.993 176.359 65.9374 176.248 65.8818 176.145H102.801C102.944 176.256 103.095 176.359 103.245 176.462Z" fill="white"/>
</g>
<g opacity="0.2">
<path opacity="0.2" d="M99.4981 173.115H64.6592C64.6275 173.012 64.5957 172.901 64.564 172.797H99.2281C99.3075 172.908 99.4028 173.012 99.4981 173.115Z" fill="white"/>
</g>
<g opacity="0.2">
<path opacity="0.2" d="M97.0052 169.776H63.921C63.9052 169.672 63.8972 169.561 63.8813 169.458H96.8068C96.8782 169.561 96.9417 169.664 97.0052 169.776Z" fill="white"/>
</g>
<g opacity="0.2">
<path opacity="0.2" d="M95.2106 166.428H64.8735L65.5325 166.111H95.0677C95.1074 166.214 95.1551 166.325 95.2106 166.428Z" fill="white"/>
</g>
<g opacity="0.2">
<path opacity="0.2" d="M93.8774 163.081H71.7896L72.4485 162.764H93.7742C93.7981 162.875 93.8378 162.978 93.8774 163.081Z" fill="white"/>
</g>
<g opacity="0.2">
<path opacity="0.2" d="M92.8927 159.742H78.6968L79.3558 159.425H92.8134C92.8451 159.528 92.8689 159.631 92.8927 159.742Z" fill="white"/>
</g>
<g opacity="0.2">
<path opacity="0.2" d="M92.2096 156.395H85.6118L86.2708 156.078H92.162C92.1778 156.181 92.1937 156.284 92.2096 156.395Z" fill="white"/>
</g>
</g>
</g>
<path d="M91.8525 153.381C91.8764 153.778 92.7974 169.982 104.087 177.025" stroke="white" stroke-width="0.5892" stroke-miterlimit="10"/>
<path d="M125.81 182.164V197.694C120.752 202.826 114.035 200.066 114.035 200.066C111.439 192.594 110.058 186.574 109.319 182.172H125.81V182.164Z" fill="white"/>
<path d="M114.028 200.058C111.431 192.587 110.05 186.566 109.312 182.164H125.802V197.694" stroke="#626A7F" stroke-width="0.5892" stroke-miterlimit="10" stroke-linecap="round"/>
<path d="M137.664 209.06H114.202C113.107 209.06 112.273 208.085 112.448 207.006L112.487 206.768L112.63 205.912L113.646 199.693C113.646 199.693 120.8 202.572 126.072 197.227C126.072 197.227 127.723 201.478 134.615 204.603C136.234 205.341 136.997 206.435 137.354 207.363C137.41 207.498 137.449 207.633 137.489 207.76C137.703 208.505 137.664 209.06 137.664 209.06Z" fill="#F6C850"/>
<path d="M137.488 207.752H114.202C113.622 207.752 113.074 207.498 112.701 207.054C112.622 206.959 112.55 206.863 112.495 206.76L112.638 205.904C112.661 206.229 112.788 206.546 113.011 206.8C113.312 207.149 113.749 207.355 114.21 207.355H137.361C137.409 207.49 137.457 207.625 137.488 207.752Z" fill="white"/>
<path d="M129.708 201.629C127.104 203.485 123.094 202.953 122.824 202.152C122.546 201.359 126.707 200.78 127.255 199.13C127.834 199.852 128.581 200.724 129.708 201.629Z" fill="white"/>
<path d="M108.502 173.535C108.502 164.215 110.963 158.806 110.963 158.806" stroke="#626A7F" stroke-width="0.5892" stroke-miterlimit="10" stroke-linecap="round"/>
<path d="M85.9853 144.323L53.4013 151.977C49.2727 152.945 46.3589 156.625 46.3589 160.86C46.3589 167.594 53.4172 172.012 59.483 169.07L91.0111 153.778C91.5509 153.516 91.9797 153.056 92.194 152.493L95.6875 143.538C95.8304 143.181 95.5287 142.8 95.1396 142.856L94.5839 142.935C93.7026 143.062 92.9086 143.546 92.3925 144.276L90.9714 146.401C90.7093 146.79 90.2727 147.02 89.8042 147.02H86.4776C85.8027 147.02 85.3184 146.362 85.5248 145.719L85.9853 144.323Z" fill="#F5E4D4"/>
<path d="M85.6672 144.402L53.4008 152.056C49.2722 153.024 46.3584 156.704 46.3584 160.94C46.3584 167.674 53.4167 172.091 59.4825 169.149L91.0106 153.857C91.5505 153.595 91.9792 153.135 92.1936 152.572L95.687 143.617C95.8299 143.26 95.5282 142.88 95.1391 142.935L94.5834 143.014C93.7021 143.141 92.9081 143.625 92.3921 144.355L90.9709 146.481C90.7089 146.869 90.2722 147.099 89.8038 147.099H86.1595C85.4846 147.099 85.0003 146.441 85.2067 145.798L85.6672 144.402Z" stroke="white" stroke-width="0.5892" stroke-miterlimit="10"/>
<path d="M86.9541 149.637H91.8211C92.623 149.637 93.3534 149.201 93.7424 148.495" stroke="white" stroke-width="0.491" stroke-miterlimit="10" stroke-linecap="round"/>
<path d="M85.8418 152.493H90.7088C91.5107 152.493 92.2411 152.056 92.6301 151.35" stroke="white" stroke-width="0.491" stroke-miterlimit="10" stroke-linecap="round"/>
</svg>
